<svg width="20" height="20" viewBox="0 0 20 20" fill="none" xmlns="http://www.w3.org/2000/svg">
<path fill-rule="evenodd" clip-rule="evenodd" d="M12.4999 15.8333C12.5 16.2538 12.3412 16.6588 12.0553 16.9671C11.7694 17.2754 11.3775 17.4643 10.9582 17.4958L10.8332 17.5H9.16654C8.74606 17.5001 8.34107 17.3413 8.03275 17.0554C7.72443 16.7695 7.53558 16.3776 7.50404 15.9583L7.49987 15.8333H12.4999ZM9.99987 1.66667C11.5124 1.66665 12.9657 2.25408 14.0534 3.30507C15.1411 4.35605 15.778 5.78841 15.8299 7.3L15.8332 7.5V10.6367L17.3515 13.6733C17.4178 13.8058 17.451 13.9524 17.4482 14.1005C17.4454 14.2487 17.4068 14.3939 17.3356 14.5238C17.2644 14.6537 17.1628 14.7645 17.0394 14.8465C16.9161 14.9286 16.7747 14.9795 16.6274 14.995L16.5315 15H3.46821C3.32001 15 3.17401 14.9642 3.04272 14.8954C2.91144 14.8267 2.79877 14.7271 2.71439 14.6053C2.63 14.4835 2.57641 14.343 2.55821 14.1959C2.54001 14.0489 2.55774 13.8996 2.60987 13.7608L2.64821 13.6733L4.16654 10.6367V7.5C4.16654 5.95291 4.78112 4.46918 5.87508 3.37522C6.96905 2.28125 8.45278 1.66667 9.99987 1.66667ZM9.99987 3.33334C8.92615 3.3334 7.89391 3.74796 7.11839 4.49056C6.34288 5.23315 5.88397 6.24646 5.83737 7.31917L5.83321 7.5V10.6367C5.83322 10.8433 5.79478 11.0482 5.71987 11.2408L5.65737 11.3825L4.68237 13.3333H15.3182L14.3432 11.3817C14.2507 11.1969 14.1934 10.9966 14.174 10.7908L14.1665 10.6367V7.5C14.1665 6.39494 13.7276 5.33513 12.9462 4.55373C12.1648 3.77233 11.1049 3.33334 9.99987 3.33334Z" fill="white"/>
</svg>
