<svg width="91" height="121" viewBox="0 0 91 121" fill="none" xmlns="http://www.w3.org/2000/svg">
<path d="M0 21.3063C0 21.1537 0.00156255 21.0868 0.00156255 21.0728C0.00156255 21.0992 0 21.3063 0 21.3063Z" fill="#D9FFFF"/>
<path d="M0 21.3063C0 21.1537 0.00156255 21.0868 0.00156255 21.0728C0.00156255 21.0992 0 21.3063 0 21.3063Z" fill="#D9FFFF"/>
<path d="M90.9985 21.7111C90.9985 21.7111 91.0001 21.5056 91.0001 21.4775C91.0001 21.4931 90.9985 21.5601 90.9985 21.7111Z" fill="#D9FFFF"/>
<path d="M90.9985 21.7111C90.9985 21.7111 91.0001 21.5056 91.0001 21.4775C91.0001 21.4931 90.9985 21.5601 90.9985 21.7111Z" fill="#D9FFFF"/>
<path d="M45.6672 0C35.595 10.7505 19.521 19.5626 2.32044 23.3163C2.31576 24.4606 2.28763 30.8019 2.15638 60.0314C1.98137 99.0226 39.2233 118.076 45.0063 121C50.608 118.431 88.3203 99.4072 88.4953 60.4159C88.6265 31.1865 88.6547 24.8452 88.6593 23.7009C71.4931 19.7946 55.6441 10.8408 45.6672 0Z" fill="#E0E1FF"/>
<path d="M45.5767 4.22852C35.1919 13.7194 20.8055 21.1802 4.9862 25.2468L4.82995 60.0251C4.75807 75.9383 11.1036 90.3335 23.6884 102.815C31.9574 111.015 40.6515 116.102 45.0641 118.387C45.2532 118.291 45.4626 118.184 45.6673 118.078V4.30948C45.6376 4.28301 45.6063 4.25654 45.5767 4.22852Z" fill="#E7EDF3"/>
<path d="M45.6672 4.30945V118.076C50.2549 115.699 58.5927 110.782 66.5789 103.005C79.2746 90.637 85.7499 76.2995 85.8202 60.3847L85.9764 25.6064C70.2384 21.4121 55.9582 13.8549 45.6672 4.30945Z" fill="#F8F9FA"/>
<g clip-path="url(#clip0_1108_4786)">
<path d="M59.9049 64.5477H55.9225V51.3931C55.9225 45.6524 51.2474 40.9787 45.4986 40.9787C39.7498 40.9787 35.0775 45.6496 35.0775 51.3931V64.5477H31.0952V51.3931C31.0952 43.4557 37.5568 37 45.5015 37C53.4461 37 59.9077 43.4557 59.9077 51.3931V64.5477H59.9049Z" fill="#2E3192"/>
<path d="M66 84.4583C66 85.3107 65.31 86.0001 64.4569 86.0001H26.5431C25.69 86.0001 25 85.3107 25 84.4583V59.8482C25 58.9959 25.69 58.3065 26.5431 58.3065H64.4569C65.31 58.3065 66 58.9959 66 59.8482V84.4583Z" fill="#2E3192"/>
<path d="M66 84.4583V69.3788C53.5119 79.9362 35.5013 83.9034 25.2949 85.3593C25.5755 85.7455 26.0278 86.0001 26.5432 86.0001H64.4569C65.3101 86.0001 66 85.3107 66 84.4583Z" fill="#3B3E95"/>
<path d="M48.8882 67.9829C48.8882 66.1122 47.3708 64.5991 45.5013 64.5991C43.629 64.5991 42.1145 66.1151 42.1145 67.9829C42.1145 69.0984 42.6556 70.0823 43.4887 70.7002L42.4094 78.3544H48.5962L47.5168 70.7002C48.3471 70.0823 48.8882 69.0955 48.8882 67.9829Z" fill="#8E90DE"/>
<path d="M26.2939 61.224V66.5241C26.4342 64.2731 27.5193 59.3762 34.2987 59.3762H28.1434C27.1242 59.3762 26.2939 60.2057 26.2939 61.224Z" fill="#3B3E95"/>
<path d="M42.4065 78.3544C42.4065 78.3544 46.9986 77.0587 47.514 70.7002L48.5933 78.3544H42.4065Z" fill="#4E51AF"/>
</g>
<!--<defs>-->
<!--<clipPath id="clip0_1108_4786">-->
<!--<rect width="41" height="49" fill="white" transform="translate(25 37)"/>-->
<!--</clipPath>-->
<!--</defs>-->
</svg>
