<svg width="400" height="117" viewBox="0 0 400 117" fill="none" xmlns="http://www.w3.org/2000/svg">
<path d="M397.778 103.007C397.778 109.165 392.686 114.153 386.387 114.153H13.6276C7.33217 114.153 2.22217 109.165 2.22217 103.007V14.1189C2.22217 7.96371 7.33217 2.95807 13.6276 2.95807H386.384C392.686 2.95807 397.775 7.96371 397.775 14.1189L397.778 103.007Z" fill="black"/>
<path d="M385.185 3.09251C392.044 3.09251 397.626 8.53445 397.626 15.2222V101.889C397.626 108.577 392.044 114.019 385.185 114.019H14.8148C7.95555 114.019 2.37407 108.577 2.37407 101.889V15.2222C2.37407 8.53445 7.95555 3.09251 14.8148 3.09251H385.185ZM385.185 0.777786H14.8148C6.67037 0.777786 0 7.28139 0 15.2222V101.889C0 109.83 6.67037 116.333 14.8148 116.333H385.185C393.33 116.333 400 109.83 400 101.889V15.2222C400 7.28139 393.33 0.777786 385.185 0.777786Z" fill="#A6A6A6"/>
<path d="M89.2682 57.9315C89.1823 48.6206 97.0874 44.0909 97.4489 43.88C92.9719 37.5158 86.0326 36.6462 83.5941 36.5769C77.766 35.9789 72.1126 39.9771 69.1437 39.9771C66.1156 39.9771 61.5437 36.6346 56.6163 36.7329C50.2756 36.8282 44.3437 40.4075 41.0904 45.9658C34.3763 57.2989 39.3837 73.9533 45.8163 83.114C49.0341 87.6004 52.7941 92.6097 57.7156 92.4335C62.5304 92.24 64.3289 89.4406 70.1393 89.4406C75.8963 89.4406 77.5852 92.4335 82.6045 92.3209C87.7719 92.24 91.0252 87.8142 94.1304 83.2873C97.8489 78.1451 99.3423 73.0809 99.4015 72.8209C99.28 72.7804 89.366 69.0913 89.2682 57.9315Z" fill="white"/>
<path d="M79.7867 30.5506C82.3763 27.3931 84.1482 23.0973 83.6563 18.738C79.9082 18.8998 75.2208 21.2658 72.5215 24.354C70.1334 27.0753 68 31.5358 68.5511 35.7304C72.7615 36.0366 77.0845 33.6591 79.7867 30.5506Z" fill="white"/>
<path d="M145.333 29.6927C145.333 33.0929 144.287 35.6525 142.199 37.3713C140.264 38.9573 137.514 39.7518 133.953 39.7518C132.187 39.7518 130.676 39.6767 129.41 39.5265V20.948C131.061 20.688 132.839 20.5551 134.759 20.5551C138.151 20.5551 140.708 21.2744 142.433 22.7131C144.364 24.3396 145.333 26.6651 145.333 29.6927ZM142.059 29.7765C142.059 27.5722 141.461 25.8822 140.264 24.7036C139.067 23.5278 137.319 22.9384 135.016 22.9384C134.039 22.9384 133.206 23.002 132.516 23.1349V37.2587C132.898 37.3165 133.597 37.3425 134.613 37.3425C136.99 37.3425 138.824 36.6982 140.116 35.4098C141.407 34.1213 142.059 32.2436 142.059 29.7765Z" fill="white"/>
<path d="M162.693 32.6624C162.693 34.7569 162.08 36.4729 160.853 37.8191C159.568 39.2029 157.864 39.8933 155.736 39.8933C153.686 39.8933 152.053 39.2318 150.836 37.9029C149.621 36.5769 149.013 34.9042 149.013 32.8878C149.013 30.7789 149.639 29.0484 150.895 27.7051C152.151 26.3618 153.84 25.6887 155.968 25.6887C158.018 25.6887 159.665 26.3502 160.913 27.6762C162.098 28.9647 162.693 30.6287 162.693 32.6624ZM159.473 32.7607C159.473 31.504 159.194 30.4264 158.64 29.528C157.988 28.4418 157.061 27.8987 155.855 27.8987C154.608 27.8987 153.659 28.4418 153.008 29.528C152.45 30.4264 152.175 31.5213 152.175 32.8155C152.175 34.0722 152.453 35.1498 153.008 36.0482C153.68 37.1344 154.616 37.6775 155.825 37.6775C157.01 37.6775 157.941 37.1258 158.61 36.0193C159.185 35.1035 159.473 34.0173 159.473 32.7607Z" fill="white"/>
<path d="M185.97 25.966L181.6 39.5842H178.756L176.945 33.6707C176.486 32.1944 176.113 30.7269 175.822 29.2709H175.766C175.496 30.7673 175.123 32.232 174.643 33.6707L172.72 39.5842H169.843L165.733 25.966H168.925L170.504 32.44C170.886 33.9711 171.2 35.43 171.452 36.8109H171.508C171.739 35.6727 172.122 34.2225 172.661 32.4689L174.643 25.9689H177.173L179.073 32.3302C179.532 33.8816 179.905 35.3751 180.193 36.8138H180.279C180.489 35.4127 180.806 33.9191 181.227 32.3302L182.922 25.9689H185.97V25.966Z" fill="white"/>
<path d="M202.068 39.5843H198.963V31.7843C198.963 29.3807 198.027 28.1789 196.148 28.1789C195.227 28.1789 194.483 28.5083 193.905 29.1698C193.333 29.8314 193.043 30.6114 193.043 31.5041V39.5814H189.938V29.8574C189.938 28.6614 189.899 27.3643 189.825 25.9603H192.554L192.699 28.0894H192.785C193.147 27.4278 193.686 26.8818 194.394 26.4456C195.236 25.9372 196.178 25.6801 197.209 25.6801C198.513 25.6801 199.597 26.0903 200.459 26.9136C201.532 27.9218 202.068 29.4269 202.068 31.4261V39.5843Z" fill="white"/>
<path d="M210.631 39.5842H207.529V19.7173H210.631V39.5842Z" fill="white"/>
<path d="M228.913 32.6624C228.913 34.7569 228.299 36.4729 227.073 37.8191C225.787 39.2029 224.08 39.8933 221.956 39.8933C219.902 39.8933 218.27 39.2318 217.055 37.9029C215.84 36.5769 215.233 34.9042 215.233 32.8878C215.233 30.7789 215.858 29.0484 217.114 27.7051C218.37 26.3618 220.059 25.6887 222.184 25.6887C224.237 25.6887 225.882 26.3502 227.132 27.6762C228.317 28.9647 228.913 30.6287 228.913 32.6624ZM225.689 32.7607C225.689 31.504 225.41 30.4264 224.856 29.528C224.207 28.4418 223.277 27.8987 222.074 27.8987C220.824 27.8987 219.876 28.4418 219.227 29.528C218.67 30.4264 218.394 31.5213 218.394 32.8155C218.394 34.0722 218.673 35.1498 219.227 36.0482C219.899 37.1344 220.836 37.6775 222.045 37.6775C223.23 37.6775 224.157 37.1258 224.827 36.0193C225.405 35.1035 225.689 34.0173 225.689 32.7607Z" fill="white"/>
<path d="M243.941 39.5842H241.153L240.922 38.0155H240.836C239.882 39.2664 238.522 39.8933 236.756 39.8933C235.437 39.8933 234.37 39.4802 233.567 38.6598C232.839 37.9144 232.474 36.9871 232.474 35.8864C232.474 34.2224 233.185 32.9542 234.616 32.076C236.044 31.1978 238.053 30.7673 240.64 30.7875V30.5333C240.64 28.7393 239.674 27.8438 237.739 27.8438C236.362 27.8438 235.147 28.1818 234.098 28.852L233.467 26.8644C234.764 26.0815 236.367 25.6887 238.258 25.6887C241.908 25.6887 243.739 27.5664 243.739 31.322V36.3371C243.739 37.6978 243.807 38.7811 243.941 39.5842ZM240.717 34.9042V32.804C237.292 32.7462 235.579 33.662 235.579 35.5484C235.579 36.2591 235.775 36.7907 236.175 37.146C236.575 37.5013 237.084 37.6775 237.692 37.6775C238.373 37.6775 239.01 37.4667 239.591 37.0478C240.175 36.626 240.533 36.0915 240.667 35.4358C240.699 35.2884 240.717 35.1093 240.717 34.9042Z" fill="white"/>
<path d="M261.585 39.5842H258.83L258.685 37.3973H258.599C257.719 39.0613 256.219 39.8933 254.113 39.8933C252.43 39.8933 251.028 39.2491 249.917 37.9607C248.806 36.6722 248.252 34.9996 248.252 32.9456C248.252 30.7413 248.853 28.956 250.062 27.5925C251.233 26.3213 252.667 25.6858 254.373 25.6858C256.249 25.6858 257.562 26.3011 258.308 27.5347H258.367V19.7173H261.476V35.9153C261.476 37.2413 261.511 38.4633 261.585 39.5842ZM258.367 33.8411V31.5705C258.367 31.1776 258.338 30.8598 258.282 30.6171C258.107 29.8891 257.73 29.2767 257.159 28.7827C256.581 28.2887 255.885 28.0402 255.082 28.0402C253.923 28.0402 253.016 28.488 252.35 29.3865C251.689 30.2849 251.354 31.4318 251.354 32.8329C251.354 34.1791 251.671 35.2711 252.308 36.1118C252.981 37.0073 253.887 37.4551 255.022 37.4551C256.042 37.4551 256.856 37.0825 257.476 36.3342C258.074 35.6438 258.367 34.8118 258.367 33.8411Z" fill="white"/>
<path d="M288.142 32.6624C288.142 34.7569 287.529 36.4729 286.302 37.8191C285.016 39.2029 283.316 39.8933 281.185 39.8933C279.138 39.8933 277.505 39.2318 276.285 37.9029C275.07 36.5769 274.462 34.9042 274.462 32.8878C274.462 30.7789 275.087 29.0484 276.344 27.7051C277.6 26.3618 279.289 25.6887 281.419 25.6887C283.467 25.6887 285.117 26.3502 286.362 27.6762C287.547 28.9647 288.142 30.6287 288.142 32.6624ZM284.925 32.7607C284.925 31.504 284.646 30.4264 284.092 29.528C283.437 28.4418 282.513 27.8987 281.304 27.8987C280.059 27.8987 279.111 28.4418 278.456 29.528C277.899 30.4264 277.624 31.5213 277.624 32.8155C277.624 34.0722 277.902 35.1498 278.456 36.0482C279.129 37.1344 280.065 37.6775 281.274 37.6775C282.459 37.6775 283.393 37.1258 284.062 36.0193C284.634 35.1035 284.925 34.0173 284.925 32.7607Z" fill="white"/>
<path d="M304.839 39.5843H301.736V31.7843C301.736 29.3807 300.8 28.1789 298.919 28.1789C297.997 28.1789 297.253 28.5083 296.679 29.1698C296.104 29.8314 295.816 30.6114 295.816 31.5041V39.5814H292.708V29.8574C292.708 28.6614 292.673 27.3643 292.599 25.9603H295.325L295.47 28.0894H295.556C295.92 27.4278 296.459 26.8818 297.165 26.4456C298.009 25.9372 298.948 25.6801 299.982 25.6801C301.283 25.6801 302.367 26.0903 303.23 26.9136C304.305 27.9218 304.839 29.4269 304.839 31.4261V39.5843Z" fill="white"/>
<path d="M325.736 28.2338H322.317V34.8493C322.317 36.5307 322.925 37.3714 324.128 37.3714C324.685 37.3714 325.147 37.3251 325.511 37.2298L325.591 39.5265C324.978 39.7518 324.172 39.8645 323.179 39.8645C321.953 39.8645 320.999 39.5005 320.308 38.7725C319.615 38.0445 319.271 36.8196 319.271 35.1007V28.2338H317.23V25.966H319.271V23.47L322.314 22.5745V25.9631H325.733V28.2338H325.736Z" fill="white"/>
<path d="M342.175 39.5842H339.067V31.842C339.067 29.4009 338.13 28.1789 336.255 28.1789C334.815 28.1789 333.831 28.8867 333.292 30.3022C333.2 30.5998 333.147 30.9638 333.147 31.3913V39.5813H330.044V19.7173H333.147V27.9247H333.206C334.184 26.4311 335.585 25.6858 337.402 25.6858C338.687 25.6858 339.751 26.096 340.596 26.9193C341.647 27.9449 342.175 29.4702 342.175 31.4867V39.5842Z" fill="white"/>
<path d="M359.132 32.1309C359.132 32.674 359.09 33.1304 359.016 33.5031H349.704C349.745 34.8493 350.19 35.8749 351.052 36.5855C351.84 37.2211 352.856 37.5389 354.101 37.5389C355.479 37.5389 356.735 37.3251 357.867 36.8947L358.353 38.9978C357.028 39.5582 355.47 39.8384 353.665 39.8384C351.502 39.8384 349.799 39.2173 348.566 37.9751C347.327 36.7329 346.714 35.066 346.714 32.9744C346.714 30.9204 347.286 29.2102 348.439 27.8467C349.642 26.3907 351.268 25.6627 353.322 25.6627C355.33 25.6627 356.856 26.3907 357.887 27.8467C358.72 29.0022 359.132 30.4322 359.132 32.1309ZM356.169 31.348C356.193 30.4495 355.988 29.6753 355.567 29.0224C355.028 28.1818 354.207 27.76 353.096 27.76C352.083 27.76 351.256 28.1702 350.625 28.9935C350.11 29.6493 349.804 30.4322 349.704 31.348H356.169Z" fill="white"/>
<path d="M158.948 91.7893H152.219L148.533 80.4966H135.722L132.21 91.7893H125.659L138.353 53.3439H146.193L158.948 91.7893ZM147.422 75.7588L144.089 65.7199C143.736 64.6944 143.076 62.2793 142.101 58.4775H141.982C141.594 60.1126 140.969 62.5277 140.11 65.7199L136.836 75.7588H147.422Z" fill="white"/>
<path d="M191.591 77.5875C191.591 82.3022 190.285 86.0289 187.671 88.7646C185.33 91.2 182.424 92.4162 178.954 92.4162C175.209 92.4162 172.519 91.1046 170.88 88.4815H170.762V103.085H164.445V73.1935C164.445 70.2295 164.365 67.1875 164.21 64.0675H169.766L170.119 68.4615H170.237C172.344 65.1509 175.541 63.4984 179.831 63.4984C183.185 63.4984 185.985 64.7897 188.225 67.3753C190.471 69.9637 191.591 73.3669 191.591 77.5875ZM185.156 77.8129C185.156 75.1146 184.533 72.8902 183.283 71.1395C181.917 69.3137 180.083 68.4009 177.784 68.4009C176.225 68.4009 174.809 68.9093 173.544 69.9117C172.276 70.9229 171.446 72.2431 171.058 73.8782C170.862 74.6409 170.765 75.2649 170.765 75.756V80.3782C170.765 82.3946 171.399 84.0962 172.667 85.4858C173.935 86.8753 175.582 87.5686 177.609 87.5686C179.988 87.5686 181.84 86.6731 183.165 84.8877C184.492 83.0995 185.156 80.7422 185.156 77.8129Z" fill="white"/>
<path d="M224.293 77.5875C224.293 82.3022 222.987 86.0289 220.37 88.7646C218.033 91.2 215.126 92.4162 211.656 92.4162C207.911 92.4162 205.221 91.1046 203.585 88.4815H203.467V103.085H197.15V73.1935C197.15 70.2295 197.07 67.1875 196.916 64.0675H202.471L202.824 68.4615H202.942C205.046 65.1509 208.243 63.4984 212.536 63.4984C215.888 63.4984 218.688 64.7897 220.933 67.3753C223.17 69.9637 224.293 73.3669 224.293 77.5875ZM217.858 77.8129C217.858 75.1146 217.233 72.8902 215.982 71.1395C214.616 69.3137 212.788 68.4009 210.486 68.4009C208.925 68.4009 207.511 68.9093 206.243 69.9117C204.975 70.9229 204.148 72.2431 203.76 73.8782C203.567 74.6409 203.467 75.2649 203.467 75.756V80.3782C203.467 82.3946 204.101 84.0962 205.363 85.4858C206.631 86.8724 208.279 87.5686 210.311 87.5686C212.69 87.5686 214.542 86.6731 215.867 84.8877C217.194 83.0995 217.858 80.7422 217.858 77.8129Z" fill="white"/>
<path d="M260.856 81.008C260.856 84.2782 259.692 86.9389 257.354 88.9929C254.785 91.2375 251.209 92.3584 246.613 92.3584C242.37 92.3584 238.969 91.5611 236.394 89.9635L237.858 84.83C240.631 86.4651 243.674 87.2855 246.99 87.2855C249.369 87.2855 251.221 86.7598 252.551 85.714C253.876 84.6682 254.536 83.2642 254.536 81.5135C254.536 79.9535 253.991 78.6391 252.898 77.5731C251.81 76.5071 249.994 75.5162 247.458 74.6004C240.554 72.09 237.105 68.4124 237.105 63.5764C237.105 60.416 238.314 57.8246 240.735 55.8082C243.147 53.7889 246.365 52.7806 250.388 52.7806C253.976 52.7806 256.957 53.3902 259.336 54.6064L257.757 59.6273C255.535 58.4486 253.022 57.8593 250.21 57.8593C247.988 57.8593 246.252 58.3938 245.008 59.4569C243.956 60.4073 243.428 61.5658 243.428 62.938C243.428 64.4575 244.03 65.7142 245.239 66.7022C246.29 67.6151 248.202 68.6031 250.975 69.6691C254.368 71.0009 256.859 72.558 258.462 74.3433C260.059 76.1229 260.856 78.3502 260.856 81.008Z" fill="white"/>
<path d="M281.742 68.6897H274.779V82.149C274.779 85.5724 276.006 87.2826 278.465 87.2826C279.594 87.2826 280.53 87.1873 281.271 86.9966L281.446 91.6737C280.202 92.1273 278.563 92.3555 276.533 92.3555C274.039 92.3555 272.089 91.6131 270.682 90.1311C269.28 88.6462 268.575 86.1559 268.575 82.6575V68.6839H264.427V64.0617H268.575V58.9859L274.779 57.1602V64.0617H281.742V68.6897Z" fill="white"/>
<path d="M313.158 77.7002C313.158 81.9613 311.908 85.4597 309.413 88.1955C306.797 91.0122 303.324 92.4162 298.996 92.4162C294.824 92.4162 291.502 91.0671 289.025 88.3688C286.548 85.6706 285.31 82.2646 285.31 78.1595C285.31 73.8637 286.584 70.3451 289.141 67.6093C291.692 64.8706 295.135 63.5013 299.464 63.5013C303.636 63.5013 306.993 64.8504 309.526 67.5515C311.95 70.1717 313.158 73.5546 313.158 77.7002ZM306.604 77.8995C306.604 75.3428 306.044 73.1502 304.91 71.3215C303.585 69.1086 301.692 68.0051 299.238 68.0051C296.699 68.0051 294.77 69.1115 293.446 71.3215C292.311 73.1531 291.751 75.3804 291.751 78.0151C291.751 80.5717 292.311 82.7644 293.446 84.5902C294.812 86.8031 296.72 87.9066 299.182 87.9066C301.594 87.9066 303.487 86.7799 304.853 84.5324C306.018 82.6691 306.604 80.4533 306.604 77.8995Z" fill="white"/>
<path d="M333.692 69.4842C333.067 69.3715 332.4 69.3137 331.701 69.3137C329.479 69.3137 327.76 70.1313 326.551 71.7693C325.499 73.2137 324.972 75.0395 324.972 77.2437V91.7893H318.658L318.717 72.7977C318.717 69.6026 318.637 66.6935 318.48 64.0704H323.982L324.213 69.3744H324.388C325.055 67.5515 326.107 66.084 327.547 64.9833C328.954 63.9924 330.474 63.4984 332.113 63.4984C332.696 63.4984 333.224 63.5389 333.692 63.6111V69.4842Z" fill="white"/>
<path d="M361.944 76.6169C361.944 77.7204 361.87 78.6506 361.713 79.4104H342.761C342.836 82.1491 343.751 84.2435 345.511 85.688C347.108 86.9793 349.173 87.6264 351.71 87.6264C354.516 87.6264 357.076 87.1902 359.378 86.3148L360.367 90.5904C357.677 91.7344 354.501 92.3035 350.836 92.3035C346.427 92.3035 342.966 91.0382 340.447 88.5104C337.935 85.9826 336.676 82.5882 336.676 78.33C336.676 74.1497 337.846 70.6686 340.19 67.8924C342.643 64.9284 345.958 63.4464 350.13 63.4464C354.228 63.4464 357.33 64.9284 359.437 67.8924C361.105 70.2469 361.944 73.1589 361.944 76.6169ZM355.92 75.0193C355.961 73.1935 355.55 71.6162 354.693 70.2844C353.6 68.5713 351.92 67.7162 349.659 67.7162C347.594 67.7162 345.914 68.5511 344.631 70.2266C343.579 71.5584 342.954 73.156 342.761 75.0164H355.92V75.0193Z" fill="white"/>
</svg>
