<svg width="124" height="124" viewBox="0 0 124 124" fill="none" xmlns="http://www.w3.org/2000/svg">
<path d="M62.9688 124C60.0624 124 57.1559 124 54.2495 124C53.3611 123.692 52.4942 123.282 51.582 123.094C26.6275 117.951 10.2054 103.283 2.3995 79.0432C1.42391 76.0128 0.792243 72.8716 0 69.7813C0 64.6175 0 59.4537 0 54.29C0.322556 53.238 0.761758 52.2075 0.951896 51.1318C5.31942 26.4499 24.3774 6.76442 49.1599 1.37445C73.6005 -3.942 99.2728 6.46454 113.368 27.4023C127.524 48.4294 127.556 75.7209 113.392 96.5908C105.143 108.744 94.0144 116.964 79.4915 121.392C79.4915 105.97 79.4915 91.0787 79.4915 75.6983C83.8613 75.6983 87.9854 75.6983 92.5091 75.6983C93.1361 70.409 93.7113 65.5563 94.3632 60.0566C88.9793 60.0566 84.2336 60.0566 78.6335 60.0566C79.2809 54.6825 78.2636 48.5584 80.8565 45.6479C83.5184 42.6605 89.7092 42.8121 94.7207 41.4943C94.7207 37.9119 94.7207 33.6226 94.7207 29.3785C84.5845 27.3255 76.3179 28.081 71.088 31.6792C60.8047 38.7546 63.6387 49.9272 62.8238 60.3485C58.3159 60.3485 54.2111 60.3485 49.9692 60.3485C49.9692 65.6401 49.9692 70.4044 49.9692 75.7062C54.3265 75.7062 58.4395 75.7062 62.9677 75.7062C62.9689 92.1612 62.9688 108.08 62.9688 124Z" fill="white"/>
</svg>
