<svg width="400" height="116" viewBox="0 0 400 116" fill="none" xmlns="http://www.w3.org/2000/svg">
<path d="M385.185 115.667H14.8148C6.67037 115.667 0 109.163 0 101.222V14.5556C0 6.61474 6.67037 0.111134 14.8148 0.111134H385.185C393.33 0.111134 400 6.61474 400 14.5556V101.222C400 109.163 393.33 115.667 385.185 115.667Z" fill="black"/>
<path d="M385.185 2.42585C392.044 2.42585 397.626 7.8678 397.626 14.5556V101.222C397.626 107.91 392.044 113.352 385.185 113.352H14.8148C7.95556 113.352 2.37407 107.91 2.37407 101.222V14.5556C2.37407 7.8678 7.95556 2.42585 14.8148 2.42585H385.185ZM385.185 0.111134H14.8148C6.67037 0.111134 0 6.61474 0 14.5556V101.222C0 109.163 6.67037 115.667 14.8148 115.667H385.185C393.33 115.667 400 109.163 400 101.222V14.5556C400 6.61474 393.33 0.111134 385.185 0.111134Z" fill="#A6A6A6"/>
<path d="M30.9185 21.8897C30.0481 22.778 29.5444 24.1611 29.5444 25.9522V89.84C29.5444 91.6311 30.0481 93.0141 30.9185 93.9025L31.1333 94.0975L67.8518 58.3114V57.4664L31.1333 21.6802L30.9185 21.8897Z" fill="url(#paint0_linear_71_258)"/>
<path d="M80.0776 70.246L67.8517 58.3113V57.4663L80.0924 45.5316L80.3665 45.6869L94.8628 53.7288C98.9998 56.011 98.9998 59.7666 94.8628 62.0633L80.3665 70.0908L80.0776 70.246Z" fill="url(#paint1_linear_71_258)"/>
<path d="M80.3666 70.0908L67.8518 57.8889L30.9185 93.9025C32.2925 95.3108 34.5333 95.4805 37.0814 94.0722L80.3666 70.0908Z" fill="url(#paint2_linear_71_258)"/>
<path d="M80.3666 45.6869L37.0814 21.7055C34.5333 20.3116 32.2925 20.4814 30.9185 21.8897L67.8518 57.8889L80.3666 45.6869Z" fill="url(#paint3_linear_71_258)"/>
<path d="M140.496 29.7042C140.496 32.1164 139.756 34.0484 138.296 35.4892C136.618 37.1973 134.433 38.0567 131.756 38.0567C129.196 38.0567 127.011 37.1828 125.218 35.4603C123.422 33.7125 122.526 31.5675 122.526 29C122.526 26.4325 123.422 24.2875 125.218 22.5542C127.011 20.8173 129.196 19.9434 131.756 19.9434C133.03 19.9434 134.244 20.1997 135.404 20.6764C136.559 21.1567 137.5 21.8067 138.181 22.6084L136.633 24.1323C135.444 22.7636 133.826 22.0884 131.756 22.0884C129.889 22.0884 128.27 22.7239 126.896 24.0059C125.537 25.2914 124.856 26.9561 124.856 29C124.856 31.0439 125.537 32.7231 126.896 34.0086C128.27 35.2761 129.889 35.9261 131.756 35.9261C133.737 35.9261 135.404 35.2761 136.718 33.9942C137.585 33.1456 138.078 31.9756 138.207 30.4806H131.756V28.3934H140.363C140.467 28.8447 140.496 29.2817 140.496 29.7042Z" fill="white" stroke="white" stroke-width="0.16" stroke-miterlimit="10"/>
<path d="M154.152 22.4675H146.067V27.9564H153.355V30.0436H146.067V35.5325H154.152V37.6595H143.778V20.3406H154.152V22.4675Z" fill="white" stroke="white" stroke-width="0.16" stroke-miterlimit="10"/>
<path d="M163.789 37.6595H161.5V22.4675H156.541V20.3406H168.752V22.4675H163.789V37.6595Z" fill="white" stroke="white" stroke-width="0.16" stroke-miterlimit="10"/>
<path d="M177.589 37.6595V20.3406H179.874V37.6595H177.589Z" fill="white" stroke="white" stroke-width="0.16" stroke-miterlimit="10"/>
<path d="M190.004 37.6595H187.733V22.4675H182.755V20.3406H194.981V22.4675H190.004V37.6595Z" fill="white" stroke="white" stroke-width="0.16" stroke-miterlimit="10"/>
<path d="M218.1 35.4314C216.348 37.1828 214.178 38.0567 211.589 38.0567C208.985 38.0567 206.815 37.1828 205.063 35.4314C203.315 33.6836 202.444 31.5386 202.444 29C202.444 26.4614 203.315 24.3164 205.063 22.5686C206.815 20.8172 208.985 19.9434 211.589 19.9434C214.163 19.9434 216.333 20.8172 218.085 22.5831C219.848 24.3453 220.718 26.4759 220.718 29C220.718 31.5386 219.848 33.6836 218.1 35.4314ZM206.755 33.9797C208.074 35.2761 209.678 35.9261 211.589 35.9261C213.485 35.9261 215.104 35.2761 216.407 33.9797C217.722 32.6834 218.389 31.0186 218.389 29C218.389 26.9814 217.722 25.3167 216.407 24.0203C215.104 22.7239 213.485 22.0739 211.589 22.0739C209.678 22.0739 208.074 22.7239 206.755 24.0203C205.441 25.3167 204.774 26.9814 204.774 29C204.774 31.0186 205.441 32.6834 206.755 33.9797Z" fill="white" stroke="white" stroke-width="0.16" stroke-miterlimit="10"/>
<path d="M223.93 37.6595V20.3406H226.707L235.344 33.81H235.444L235.344 30.4806V20.3406H237.63V37.6595H235.244L226.2 23.5256H226.1L226.2 26.8695V37.6595H223.93Z" fill="white" stroke="white" stroke-width="0.16" stroke-miterlimit="10"/>
<path d="M201.881 62.9517C194.922 62.9517 189.237 68.1156 189.237 75.2403C189.237 82.3073 194.922 87.5253 201.881 87.5253C208.856 87.5253 214.541 82.3073 214.541 75.2403C214.541 68.1156 208.856 62.9517 201.881 62.9517ZM201.881 82.6864C198.063 82.6864 194.778 79.6134 194.778 75.2403C194.778 70.8095 198.063 67.7906 201.881 67.7906C205.7 67.7906 209 70.8095 209 75.2403C209 79.6134 205.7 82.6864 201.881 82.6864ZM174.293 62.9517C167.318 62.9517 161.648 68.1156 161.648 75.2403C161.648 82.3073 167.318 87.5253 174.293 87.5253C181.263 87.5253 186.937 82.3073 186.937 75.2403C186.937 68.1156 181.263 62.9517 174.293 62.9517ZM174.293 82.6864C170.47 82.6864 167.174 79.6134 167.174 75.2403C167.174 70.8095 170.47 67.7906 174.293 67.7906C178.111 67.7906 181.396 70.8095 181.396 75.2403C181.396 79.6134 178.111 82.6864 174.293 82.6864ZM141.463 66.7181V71.9398H154.252C153.878 74.8575 152.878 77.0025 151.344 78.4975C149.478 80.3031 146.57 82.3073 141.463 82.3073C133.593 82.3073 127.43 76.1142 127.43 68.4406C127.43 60.767 133.593 54.5739 141.463 54.5739C145.718 54.5739 148.815 56.1953 151.1 58.297L154.874 54.6173C151.678 51.6417 147.426 49.3559 141.463 49.3559C130.67 49.3559 121.6 57.9178 121.6 68.4406C121.6 78.9634 130.67 87.5253 141.463 87.5253C147.296 87.5253 151.678 85.662 155.122 82.1664C158.652 78.725 159.752 73.8861 159.752 69.9789C159.752 68.7656 159.648 67.6498 159.463 66.7181H141.463ZM275.707 70.7661C274.667 68.0181 271.455 62.9517 264.915 62.9517C258.433 62.9517 253.037 67.9314 253.037 75.2403C253.037 82.1231 258.378 87.5253 265.537 87.5253C271.326 87.5253 274.667 84.0839 276.041 82.0798L271.744 79.2884C270.311 81.3323 268.359 82.6864 265.537 82.6864C262.733 82.6864 260.722 81.4334 259.433 78.9634L276.289 72.1636L275.707 70.7661ZM258.522 74.8575C258.378 70.1198 262.296 67.6931 265.104 67.6931C267.304 67.6931 269.17 68.7656 269.793 70.3003L258.522 74.8575ZM244.822 86.7778H250.363V50.6667H244.822V86.7778ZM235.748 65.6889H235.563C234.318 64.2517 231.944 62.9517 228.937 62.9517C222.626 62.9517 216.856 68.3539 216.856 75.28C216.856 82.1664 222.626 87.5253 228.937 87.5253C231.944 87.5253 234.318 86.2145 235.563 84.7339H235.748V86.4961C235.748 91.1942 233.174 93.7184 229.022 93.7184C225.637 93.7184 223.537 91.335 222.67 89.3309L217.852 91.2917C219.241 94.5489 222.918 98.5573 229.022 98.5573C235.518 98.5573 241 94.8306 241 85.7631V63.6992H235.748V65.6889ZM229.411 82.6864C225.593 82.6864 222.396 79.57 222.396 75.28C222.396 70.9503 225.593 67.7906 229.411 67.7906C233.174 67.7906 236.141 70.9503 236.141 75.28C236.141 79.57 233.174 82.6864 229.411 82.6864ZM301.648 50.6667H288.396V86.7778H293.922V73.0953H301.648C307.785 73.0953 313.804 68.7656 313.804 61.8792C313.804 54.9964 307.77 50.6667 301.648 50.6667ZM301.793 68.0723H293.922V55.6898H301.793C305.918 55.6898 308.274 59.03 308.274 61.8792C308.274 64.6742 305.918 68.0723 301.793 68.0723ZM335.952 62.8831C331.959 62.8831 327.807 64.602 326.1 68.4117L331.004 70.4159C332.059 68.4117 334 67.7617 336.052 67.7617C338.918 67.7617 341.826 69.4409 341.87 72.4056V72.7848C340.87 72.2214 338.73 71.3873 336.096 71.3873C330.815 71.3873 325.433 74.222 325.433 79.5123C325.433 84.3511 329.759 87.4675 334.622 87.4675C338.341 87.4675 340.392 85.8317 341.681 83.9286H341.87V86.72H347.207V72.8678C347.207 66.4653 342.304 62.8831 335.952 62.8831ZM335.285 82.672C333.478 82.672 330.959 81.7981 330.959 79.6134C330.959 76.8184 334.1 75.7459 336.818 75.7459C339.252 75.7459 340.393 76.2695 341.87 76.9592C341.437 80.3031 338.485 82.672 335.285 82.672ZM366.652 63.6739L360.3 79.3281H360.111L353.544 63.6739H347.585L357.452 85.55L351.822 97.7231H357.596L372.8 63.6739H366.652ZM316.841 86.7778H322.381V50.6667H316.841V86.7778Z" fill="white"/>
<defs>
<linearGradient id="paint0_linear_71_258" x1="64.5917" y1="90.5053" x2="16.1247" y2="40.7956" gradientUnits="userSpaceOnUse">
<stop stop-color="#00A0FF"/>
<stop offset="0.0066" stop-color="#00A1FF"/>
<stop offset="0.2601" stop-color="#00BEFF"/>
<stop offset="0.5122" stop-color="#00D2FF"/>
<stop offset="0.7604" stop-color="#00DFFF"/>
<stop offset="1" stop-color="#00E3FF"/>
</linearGradient>
<linearGradient id="paint1_linear_71_258" x1="100.25" y1="57.8848" x2="28.5554" y2="57.8848" gradientUnits="userSpaceOnUse">
<stop stop-color="#FFE000"/>
<stop offset="0.4087" stop-color="#FFBD00"/>
<stop offset="0.7754" stop-color="#FFA500"/>
<stop offset="1" stop-color="#FF9C00"/>
</linearGradient>
<linearGradient id="paint2_linear_71_258" x1="73.5614" y1="51.2557" x2="7.83629" y2="-16.1547" gradientUnits="userSpaceOnUse">
<stop stop-color="#FF3A44"/>
<stop offset="1" stop-color="#C31162"/>
</linearGradient>
<linearGradient id="paint3_linear_71_258" x1="21.6216" y1="115.158" x2="50.9708" y2="85.0561" gradientUnits="userSpaceOnUse">
<stop stop-color="#32A071"/>
<stop offset="0.0685" stop-color="#2DA771"/>
<stop offset="0.4762" stop-color="#15CF74"/>
<stop offset="0.8009" stop-color="#06E775"/>
<stop offset="1" stop-color="#00F076"/>
</linearGradient>
</defs>
</svg>
