<svg width="124" height="124" viewBox="0 0 124 124" fill="none" xmlns="http://www.w3.org/2000/svg">
<path d="M62.2172 0.00036413C96.4023 0.116748 123.968 27.7603 124 61.9577C124.033 96.3046 96.1195 124.141 61.7873 123.999C27.6181 123.859 0.0239652 96.1815 1.3986e-05 62.0262C-0.0227966 27.6816 27.8598 -0.11602 62.2172 0.00036413ZM61.9593 99.7562C61.9593 99.7482 61.9593 99.7402 61.9593 99.7322C67.9084 99.7322 73.8722 100.011 79.8019 99.6729C91.2072 99.0225 99.0404 92.2346 99.7589 80.8496C100.557 68.1911 100.52 55.4003 99.6974 42.7419C98.9914 31.8714 91.3076 24.8781 80.3824 24.4217C68.1765 23.9105 55.9191 23.9241 43.7108 24.4114C32.8245 24.8461 25.0223 31.8691 24.314 42.654C23.4826 55.3125 23.4266 68.1043 24.233 80.7617C24.9698 92.319 32.9648 99.1264 44.6119 99.7071C50.3807 99.9935 56.1757 99.7562 61.9593 99.7562Z" fill="white"/>
<path d="M61.885 92.7305C56.5987 92.7373 51.3031 92.9165 46.0259 92.6974C36.6416 92.3072 31.4192 87.6633 31.0291 78.3514C30.5661 67.3041 30.5992 56.2054 31.077 45.1569C31.4477 36.5878 36.4455 31.7214 45.0235 31.411C56.2429 31.006 67.4965 31.0254 78.7182 31.386C87.5254 31.6689 92.5951 36.5673 92.9578 45.3885C93.4129 56.4393 93.4209 67.5368 92.959 78.5864C92.5826 87.5753 87.3567 92.2524 78.2381 92.6768C72.7989 92.9301 67.3368 92.7236 61.885 92.7305ZM82.0668 62.0588C82.0543 50.7433 73.343 41.9849 62.0552 41.9358C50.7879 41.8867 41.9658 50.6668 41.9452 61.9469C41.9247 73.2236 50.6667 82.0141 61.9591 82.0723C73.1956 82.1293 82.0805 73.2864 82.0668 62.0588ZM87.9769 41.8138C85.2704 39.9916 83.602 38.0278 82.4444 38.2936C80.8716 38.6542 78.912 40.57 78.6154 42.1081C78.4215 43.1133 80.8546 45.6259 82.157 45.659C83.6637 45.6967 85.2203 43.7558 87.9769 41.8138Z" fill="white"/>
<path d="M61.8236 75.5066C54.6793 75.4062 49.0577 69.6509 49.0965 62.475C49.1364 55.1326 55.1161 49.3967 62.493 49.626C69.627 49.8474 75.129 55.703 74.9659 62.8983C74.8028 70.0491 69.009 75.6082 61.8236 75.5066Z" fill="white"/>
</svg>
