<svg width="124" height="124" viewBox="0 0 124 124" fill="none" xmlns="http://www.w3.org/2000/svg">
<path d="M69.6647 124C64.5037 124 59.3438 124 54.1829 124C53.2957 123.692 52.4302 123.282 51.5179 123.093C26.5968 117.943 10.2039 103.253 2.39623 79.0113C1.41999 75.9792 0.79013 72.8361 0 69.7434C0 64.5768 0 59.4089 0 54.2423C0.304862 53.3516 0.737201 52.4839 0.897054 51.5669C6.25213 20.8744 32.5834 -0.662426 63.9546 0.0155659C94.4008 0.674121 119.584 24.158 123.559 55.5994C127.215 84.5084 107.752 113.295 78.9057 121.602C75.849 122.484 72.7465 123.205 69.6647 124ZM52.6826 48.4536C52.6826 63.7879 52.6826 78.6671 52.6826 93.4617C57.6997 93.4617 62.2968 93.4617 67.4235 93.4617C67.4235 91.4026 67.4177 89.667 67.4246 87.9303C67.4543 80.9892 67.3239 74.0424 67.5762 67.1093C67.7429 62.5234 71.0077 59.3896 75.1513 59.1586C79.3874 58.9231 82.3986 61.6408 83.0163 66.6188C83.3314 69.1673 83.2034 71.7752 83.2114 74.3568C83.2331 80.7377 83.2181 87.1186 83.2181 93.5018C88.5755 93.5018 93.1757 93.5018 97.8285 93.5018C97.8285 82.9397 98.4452 72.6178 97.6596 62.4045C96.8364 51.7087 88.4808 45.704 77.9579 47.6522C74.3931 48.3119 71.1573 50.7529 67.7273 52.4004C67.5024 51.4114 67.1699 49.9479 66.8308 48.4547C62.0318 48.4536 57.5284 48.4536 52.6826 48.4536ZM29.2175 48.5097C29.2175 63.7697 29.2175 78.5356 29.2175 93.5075C34.1045 93.5075 38.6897 93.5075 43.4522 93.5075C43.4522 78.3573 43.4522 63.4907 43.4522 48.5097C38.5607 48.5097 34.0862 48.5097 29.2175 48.5097ZM36.4575 41.9653C41.4998 41.9345 44.8798 38.7216 44.7713 34.0614C44.6674 29.5922 41.3449 26.4526 36.6304 26.3669C31.7617 26.2788 28.0835 29.6071 28.0378 34.1415C27.991 38.788 31.445 41.9962 36.4575 41.9653Z" fill="white"/>
</svg>
