<svg width="124" height="129" viewBox="0 0 124 129" fill="none" xmlns="http://www.w3.org/2000/svg">
<path d="M78.9852 89.2169V104.349C78.9852 107.553 77.8974 109.154 75.722 109.154C74.439 109.154 73.184 108.628 71.9568 107.577V85.9896C73.184 84.9377 74.439 84.4118 75.722 84.4118C77.8974 84.4118 78.9852 86.0135 78.9852 89.2169ZM107.266 89.2886V92.5876H99.7355V89.2886C99.7355 86.0374 100.991 84.4118 103.501 84.4118C106.011 84.4118 107.266 86.0374 107.266 89.2886ZM26.4399 73.6541H35.3927V66.9127H9.28745V73.6541H18.0729V114.462H26.4399V73.6541ZM50.5371 114.462H57.9838V79.033H50.5371V106.142C48.8637 108.15 47.274 109.154 45.7679 109.154C44.7638 109.154 44.1781 108.652 44.0108 107.648C43.955 107.505 43.9271 106.668 43.9271 105.138V79.033H36.4804V107.075C36.4804 109.417 36.7036 111.163 37.1498 112.31C37.8192 114.079 39.4368 114.964 42.0027 114.964C44.6802 114.964 47.525 113.505 50.5371 110.589V114.462ZM86.4318 103.847V89.7189C86.4318 86.2286 86.1808 83.862 85.6788 82.6189C84.7305 79.9414 82.7503 78.6027 79.7382 78.6027C76.9492 78.6027 74.3554 79.8936 71.9568 82.4754V66.9127H64.5101V114.462H71.9568V111.019C74.4669 113.649 77.0607 114.964 79.7382 114.964C82.7503 114.964 84.7305 113.649 85.6788 111.019C86.1808 109.728 86.4318 107.338 86.4318 103.847ZM114.713 103.13V102.198H107.099C107.099 104.636 107.043 106.094 106.931 106.573C106.541 108.294 105.425 109.154 103.584 109.154C101.018 109.154 99.7355 107.505 99.7355 104.206V97.9665H114.713V90.5795C114.713 86.8024 113.96 84.0293 112.453 82.2603C110.278 79.8219 107.322 78.6027 103.584 78.6027C99.7913 78.6027 96.807 79.8219 94.6316 82.2603C93.0697 84.0293 92.2888 86.8024 92.2888 90.5795V102.987C92.2888 106.764 93.0976 109.537 94.7152 111.306C96.8907 113.744 99.9028 114.964 103.752 114.964C107.768 114.964 110.78 113.697 112.788 111.163C113.792 109.872 114.378 108.581 114.545 107.29C114.657 106.859 114.713 105.473 114.713 103.13ZM63.8408 37.6518V22.5911C63.8408 19.2921 62.6415 17.6426 60.2429 17.6426C57.8444 17.6426 56.6451 19.2921 56.6451 22.5911V37.6518C56.6451 40.9986 57.8444 42.6721 60.2429 42.6721C62.6415 42.6721 63.8408 40.9986 63.8408 37.6518ZM124 91.5119C124 102.7 123.275 111.067 121.825 116.613C121.044 119.434 119.426 121.801 116.972 123.713C114.517 125.626 111.673 126.725 108.437 127.012C98.1736 128.016 82.6946 128.518 62 128.518C41.3054 128.518 25.8264 128.016 15.5628 127.012C12.3275 126.725 9.46874 125.626 6.9865 123.713C4.50427 121.801 2.90058 119.434 2.17544 116.613C0.725146 111.258 0 102.891 0 91.5119C0 80.3239 0.725146 71.9568 2.17544 66.4106C2.95637 63.5897 4.574 61.2231 7.02834 59.3106C9.48268 57.3981 12.3554 56.2745 15.6464 55.9398C25.8542 54.9836 41.3054 54.5055 62 54.5055C82.6946 54.5055 98.1736 54.9836 108.437 55.9398C111.673 56.2745 114.531 57.3981 117.013 59.3106C119.496 61.2231 121.099 63.5897 121.825 66.4106C123.275 71.7656 124 80.1326 124 91.5119ZM40.4966 0H49.031L38.9069 28.6154V48.0509H30.5398V28.6154C29.7589 25.0773 28.0576 20.0093 25.4359 13.4112C23.372 8.4866 21.5592 4.01619 19.9973 0H28.8664L34.807 18.8618L40.4966 0ZM71.4548 23.882V36.4326C71.4548 40.3054 70.6739 43.1263 69.112 44.8953C66.9923 47.3337 64.036 48.5529 60.2429 48.5529C56.5056 48.5529 53.5771 47.3337 51.4575 44.8953C49.8956 43.0785 49.1147 40.2576 49.1147 36.4326V23.882C49.1147 20.0571 49.8956 17.2601 51.4575 15.491C53.5771 13.0526 56.5056 11.8334 60.2429 11.8334C64.036 11.8334 66.9923 13.0526 69.112 15.491C70.6739 17.2601 71.4548 20.0571 71.4548 23.882ZM99.4845 12.2637V48.0509H91.8704V44.1064C88.9141 47.0708 86.0414 48.5529 83.2524 48.5529C80.6865 48.5529 79.0409 47.6684 78.3158 45.8994C77.8695 44.7519 77.6464 42.9589 77.6464 40.5205V12.2637H85.2605V38.5842C85.2605 40.1619 85.2883 40.9986 85.3441 41.0943C85.5115 42.1461 86.0972 42.6721 87.1012 42.6721C88.6073 42.6721 90.197 41.6441 91.8704 39.5882V12.2637H99.4845Z" fill="white"/>
</svg>
