<svg width="17" height="17" viewBox="0 0 17 17" fill="none" xmlns="http://www.w3.org/2000/svg">
<path d="M14.0416 2.16683H12.4583V1.37516C12.4583 1.1652 12.3748 0.963836 12.2264 0.81537C12.0779 0.666904 11.8765 0.583496 11.6666 0.583496C11.4566 0.583496 11.2553 0.666904 11.1068 0.81537C10.9583 0.963836 10.8749 1.1652 10.8749 1.37516V2.16683H6.12492V1.37516C6.12492 1.1652 6.04151 0.963836 5.89304 0.81537C5.74458 0.666904 5.54321 0.583496 5.33325 0.583496C5.12329 0.583496 4.92193 0.666904 4.77346 0.81537C4.62499 0.963836 4.54158 1.1652 4.54158 1.37516V2.16683H2.95825C2.32836 2.16683 1.72427 2.41705 1.27887 2.86245C0.833475 3.30785 0.583252 3.91194 0.583252 4.54183V14.0418C0.583252 14.6717 0.833475 15.2758 1.27887 15.7212C1.72427 16.1666 2.32836 16.4168 2.95825 16.4168H14.0416C14.6715 16.4168 15.2756 16.1666 15.721 15.7212C16.1664 15.2758 16.4166 14.6717 16.4166 14.0418V4.54183C16.4166 3.91194 16.1664 3.30785 15.721 2.86245C15.2756 2.41705 14.6715 2.16683 14.0416 2.16683ZM14.8333 14.0418C14.8333 14.2518 14.7498 14.4532 14.6014 14.6016C14.4529 14.7501 14.2515 14.8335 14.0416 14.8335H2.95825C2.74829 14.8335 2.54693 14.7501 2.39846 14.6016C2.24999 14.4532 2.16659 14.2518 2.16659 14.0418V8.50016H14.8333V14.0418ZM14.8333 6.91683H2.16659V4.54183C2.16659 4.33187 2.24999 4.1305 2.39846 3.98204C2.54693 3.83357 2.74829 3.75016 2.95825 3.75016H4.54158V4.54183C4.54158 4.75179 4.62499 4.95316 4.77346 5.10162C4.92193 5.25009 5.12329 5.3335 5.33325 5.3335C5.54321 5.3335 5.74458 5.25009 5.89304 5.10162C6.04151 4.95316 6.12492 4.75179 6.12492 4.54183V3.75016H10.8749V4.54183C10.8749 4.75179 10.9583 4.95316 11.1068 5.10162C11.2553 5.25009 11.4566 5.3335 11.6666 5.3335C11.8765 5.3335 12.0779 5.25009 12.2264 5.10162C12.3748 4.95316 12.4583 4.75179 12.4583 4.54183V3.75016H14.0416C14.2515 3.75016 14.4529 3.83357 14.6014 3.98204C14.7498 4.1305 14.8333 4.33187 14.8333 4.54183V6.91683Z" fill="black"/>
</svg>
