<svg width="24" height="27" viewBox="0 0 24 27" fill="none" xmlns="http://www.w3.org/2000/svg">
<path d="M7 7.75H12M7 12.75H17M7 17.75H17M3.25 1.5H20.75C22.1307 1.5 23.25 2.61929 23.25 4V22.9429C23.25 24.6744 21.5324 25.8816 19.9032 25.2952L17.951 24.5924C17.341 24.3728 16.6695 24.3987 16.0783 24.6648L13.0259 26.0383C12.3735 26.3319 11.6265 26.3319 10.9741 26.0383L7.92172 24.6648C7.33049 24.3987 6.65902 24.3728 6.04901 24.5924L4.0968 25.2952C2.46765 25.8816 0.75 24.6744 0.75 22.9429V4C0.75 2.61929 1.86929 1.5 3.25 1.5Z" stroke="#28303F" stroke-width="1.5" stroke-linecap="round"/>
</svg>
