<svg width="30" height="30" viewBox="0 0 30 30" fill="none" xmlns="http://www.w3.org/2000/svg">
<circle opacity="0.5" cx="15" cy="15" r="15" fill="white"/>
<circle cx="15" cy="15" r="14" fill="white"/>
<path d="M14.4167 9.16663C17.3147 9.16663 19.6667 11.5186 19.6667 14.4166C19.6667 17.3146 17.3147 19.6666 14.4167 19.6666C11.5187 19.6666 9.16675 17.3146 9.16675 14.4166C9.16675 11.5186 11.5187 9.16663 14.4167 9.16663ZM14.4167 18.5C16.6725 18.5 18.5001 16.6724 18.5001 14.4166C18.5001 12.1603 16.6725 10.3333 14.4167 10.3333C12.1604 10.3333 10.3334 12.1603 10.3334 14.4166C10.3334 16.6724 12.1604 18.5 14.4167 18.5ZM19.3663 18.5414L21.0166 20.191L20.1912 21.0165L18.5415 19.3662L19.3663 18.5414Z" fill="#2E3192"/>
</svg>
