<svg width="26" height="25" viewBox="0 0 26 25" fill="none" xmlns="http://www.w3.org/2000/svg">
<circle cx="13" cy="12.5005" r="12.5" fill="url(#paint0_linear_977_3)"/>
<path d="M13 18.1255C12.7723 18.1255 12.5816 18.0483 12.4279 17.8941C12.2736 17.7403 12.1964 17.5496 12.1964 17.3219V13.3041H8.17857C7.95089 13.3041 7.75991 13.2269 7.60563 13.0726C7.45188 12.9189 7.375 12.7282 7.375 12.5005C7.375 12.2728 7.45188 12.0818 7.60563 11.9275C7.75991 11.7738 7.95089 11.6969 8.17857 11.6969H12.1964V7.67906C12.1964 7.45138 12.2736 7.2604 12.4279 7.10611C12.5816 6.95236 12.7723 6.87549 13 6.87549C13.2277 6.87549 13.4187 6.95236 13.5729 7.10611C13.7267 7.2604 13.8036 7.45138 13.8036 7.67906V11.6969H17.8214C18.0491 11.6969 18.2398 11.7738 18.3936 11.9275C18.5479 12.0818 18.625 12.2728 18.625 12.5005C18.625 12.7282 18.5479 12.9189 18.3936 13.0726C18.2398 13.2269 18.0491 13.3041 17.8214 13.3041H13.8036V17.3219C13.8036 17.5496 13.7267 17.7403 13.5729 17.8941C13.4187 18.0483 13.2277 18.1255 13 18.1255Z" fill="white"/>
<defs>
<linearGradient id="paint0_linear_977_3" x1="11.4281" y1="-6.11063" x2="27.2879" y2="-4.95805" gradientUnits="userSpaceOnUse">
<stop stop-color="#2E3192"/>
<stop offset="1" stop-color="#1AC1B0"/>
</linearGradient>
</defs>
</svg>
