<svg width="69" height="64" viewBox="0 0 69 64" fill="none" xmlns="http://www.w3.org/2000/svg">
<path d="M27.125 1.6875L3.625 2.05469V8.5H30.1875L27.125 1.6875Z" fill="#06B0C7"/>
<path d="M3.125 2.0625L27.125 1.6875L30.1875 8.5H3.625V1.6875" stroke="black" stroke-width="1.4"/>
<rect x="1.2" y="8.2" width="66.6" height="46.85" fill="white" stroke="black" stroke-width="1.4"/>
<circle cx="15.2422" cy="20.9141" r="8.30781" fill="white" stroke="black" stroke-width="1.4"/>
<path fill-rule="evenodd" clip-rule="evenodd" d="M16.0703 16.292H14.4141V20.0859H10.6201V21.7422H14.4141V25.5361H16.0703V21.7422H19.8643V20.0859H16.0703V16.292Z" fill="#06B0C7"/>
<path d="M14.3101 20.0963H14.4601V19.9463V16.2876C14.4601 16.2503 14.4988 16.2184 14.5213 16.2184H15.9663C15.9888 16.2184 16.0275 16.2503 16.0275 16.2876V19.9463V20.0963H16.1775H19.6979C19.7203 20.0963 19.7591 20.1282 19.7591 20.1655V21.6626C19.7591 21.6999 19.7203 21.7318 19.6979 21.7318H16.1775H16.0275V21.8818V25.5405C16.0275 25.5778 15.9888 25.6098 15.9663 25.6098H14.5213C14.4988 25.6098 14.4601 25.5778 14.4601 25.5405V21.8818V21.7318H14.3101H10.7865C10.7641 21.7318 10.7253 21.6999 10.7253 21.6626V20.1655C10.7253 20.1282 10.764 20.0963 10.7865 20.0963H14.3101ZM14.7324 16.3569H14.5824L14.5824 16.5069L14.5823 20.1163C14.578 20.182 14.5643 20.2075 14.5569 20.2161L14.5568 20.2163C14.5543 20.2192 14.5414 20.2346 14.4814 20.2347H10.9976H10.8476V20.3847V21.4433V21.5933H10.9976H14.4973C14.5437 21.5938 14.5563 21.6068 14.5601 21.6111C14.5668 21.6187 14.5819 21.6436 14.5823 21.7076V25.3213V25.4713H14.7323H15.7551H15.9051V25.3213V21.7126C15.9073 21.6304 15.9214 21.6143 15.9218 21.6139L15.9218 21.6139C15.922 21.6137 15.9225 21.6131 15.9242 21.612C15.926 21.6109 15.9298 21.6087 15.9367 21.6063C15.9506 21.6013 15.9738 21.5962 16.011 21.5934H19.4867H19.6367V21.4434V20.3849V20.2349H19.4867H16.0092V20.2348L16.0071 20.2349C15.9549 20.2356 15.939 20.2234 15.9342 20.2187C15.9285 20.2131 15.909 20.1891 15.9052 20.1108V16.5069V16.3569H15.7552H14.7324Z" fill="black" stroke="black" stroke-width="0.3"/>
<path d="M11.5 2.375L15 8.125" stroke="black" stroke-width="1.6"/>
<path d="M18.875 2.21875L22.375 7.96875" stroke="black" stroke-width="1.6"/>
<rect x="46.75" y="44.875" width="20.375" height="16.75" fill="#C30000"/>
<path d="M67.1895 44.3783H65.3119V39.9501C65.3119 36.9758 63.725 34.2275 61.1494 32.7403C58.5735 31.2532 55.4001 31.2532 52.8243 32.7403C50.2487 34.2275 48.6618 36.9758 48.6618 39.9501V44.3783H46.7842C46.4368 44.3783 46.1031 44.5164 45.8576 44.7623C45.6117 45.0082 45.4736 45.3415 45.4736 45.6892V61.8433C45.4736 62.1909 45.6117 62.5243 45.8576 62.7701C46.1032 63.0158 46.4368 63.1539 46.7842 63.1539H67.1894C67.5368 63.1539 67.8704 63.0158 68.116 62.7701C68.3619 62.5243 68.5 62.1909 68.5 61.8433V45.6892C68.5 45.3415 68.3619 45.0081 68.116 44.7623C67.8704 44.5164 67.5368 44.3783 67.1894 44.3783H67.1895ZM50.4332 39.9501C50.4332 37.6087 51.6823 35.4453 53.7101 34.2745C55.7379 33.1036 58.2362 33.1036 60.2638 34.2745C62.2916 35.4453 63.5408 37.6087 63.5408 39.9501V44.3783H50.4333L50.4332 39.9501ZM66.729 61.3826H47.2449V46.1496H66.729V61.3826Z" fill="black"/>
<path d="M56.9869 48.9374C56.1529 48.9374 55.3523 49.2644 54.7565 49.8478C54.1607 50.4315 53.8175 51.2252 53.7999 52.0589C53.7824 52.8925 54.0923 53.7 54.6631 54.3079V56.2742C54.6631 57.1049 55.1062 57.8727 55.8258 58.2881C56.5454 58.7037 57.432 58.7037 58.1516 58.2881C58.8712 57.8727 59.3145 57.1049 59.3145 56.2742V54.3044C59.8838 53.696 60.1925 52.8887 60.1742 52.0555C60.1559 51.2222 59.8119 50.4295 59.2164 49.8466C58.6206 49.2639 57.8202 48.9374 56.987 48.9374H56.9869ZM57.8725 53.231L57.5394 53.4966V56.2741C57.5394 56.5793 57.2921 56.8266 56.9869 56.8266C56.6817 56.8266 56.4344 56.5793 56.4344 56.2741V53.4966L56.1013 53.231C55.7939 52.9848 55.6026 52.6218 55.5737 52.2289C55.5448 51.836 55.6807 51.4488 55.9488 51.1604C56.2169 50.8718 56.593 50.7077 56.9869 50.7077C57.3808 50.7077 57.7569 50.8718 58.025 51.1604C58.2931 51.4488 58.429 51.836 58.4001 52.2289C58.3712 52.6218 58.1799 52.9848 57.8725 53.231Z" fill="black"/>
<rect x="40.75" y="14" width="23.5" height="2.29199" fill="black"/>
<rect x="40.75" y="19" width="10.25" height="2.29199" fill="black"/>
<rect x="54" y="19" width="10.25" height="2.29199" fill="black"/>
</svg>
