<svg width="396" height="106" viewBox="0 0 396 106" fill="none" xmlns="http://www.w3.org/2000/svg">
<path d="M119.22 39.1602C108.77 39.1602 100.74 42.1602 95.34 48.0502C90.15 53.7102 87.52 61.9002 87.52 72.3902C87.52 94.2902 97.88 105.39 118.31 105.39C139.38 105.39 150.05 94.3002 150.05 72.3902C150.05 50.3002 139.68 39.1602 119.22 39.1602ZM134.62 85.4601C132.08 90.9501 126.97 93.6102 118.99 93.6102C106.77 93.6102 100.83 86.6101 100.83 72.2101C100.83 57.8101 106.83 50.8401 119.13 50.8401C126.07 50.8401 130.81 53.0202 133.62 57.4902C135.69 60.7602 136.74 65.8802 136.74 72.7002C136.74 78.0702 136.03 82.3602 134.62 85.4102V85.4601Z" fill="#FDFEFE"/>
<path d="M213.52 40.9102H197.54L169.74 69.0902V40.9102H157.06V105.34H169.74V76.0702L198.12 105.34H215.31L182.74 72.1002L213.52 40.9102Z" fill="#FDFEFE"/>
<path d="M264.65 86.7202L235.45 40.9102H221.52V105.34H233.93V59.6202L263.47 105.34H277.06V40.9102H264.65V86.7202Z" fill="#FDFEFE"/>
<path d="M295.19 43.3202C293.319 44.1721 291.623 45.3659 290.19 46.8401C288.72 48.6974 287.694 50.8659 287.19 53.1802C286.3 56.4202 285.88 62.7302 285.88 72.4702C285.88 85.1902 285.88 86.6902 285.98 87.0602C286.268 90.5794 287.253 94.0061 288.88 97.1402C290.88 100.97 293.44 103.47 296.51 104.58C297.956 105.046 299.461 105.302 300.98 105.34C301.55 105.34 302.28 105.39 303.17 105.39C304.06 105.39 305.06 105.39 306.25 105.34H334.6V93.7401H313.39C306.66 93.7401 305.22 93.6902 304.97 93.6702C302.21 93.2802 300.36 92.1101 299.31 90.0901C298.845 89.211 298.493 88.277 298.26 87.3102C297.811 84.4569 297.65 81.5656 297.78 78.6801H334.61V67.0602H333.22C327.57 66.9702 321.61 66.9301 315.51 66.9301C309.87 66.9301 303.93 66.9802 297.83 67.0802C297.89 63.8802 297.9 61.6601 297.83 60.3401C297.99 59.0277 298.327 57.7428 298.83 56.5202C299.531 55.4791 300.436 54.5911 301.49 53.9102C302.78 53.2702 306.12 52.5402 314.72 52.5402H334.55V40.9402H314.48C304.58 40.9102 298.27 41.7002 295.19 43.3202Z" fill="#FDFEFE"/>
<path d="M340.32 40.9102V52.5502H361.67V105.34H374.34V52.5502H395.69V40.9102H340.32Z" fill="#FDFEFE"/>
<path d="M27.05 57.1602C25.2606 59.0519 24.2624 61.5563 24.26 64.1602C24.2559 66.6402 25.144 69.0389 26.7623 70.9181C28.3805 72.7974 30.6208 74.0317 33.074 74.3957C35.5271 74.7596 38.0293 74.2289 40.1234 72.9005C42.2176 71.572 43.764 69.5346 44.48 67.1602C44.7768 66.1881 44.9252 65.1767 44.92 64.1602C44.9079 62.0935 44.276 60.0779 43.1062 58.374C41.9363 56.6702 40.2823 55.3564 38.3579 54.6026C36.4335 53.8488 34.3272 53.6895 32.3113 54.1455C30.2955 54.6014 28.4627 55.6516 27.05 57.1602Z" fill="#FDFEFE"/>
<path d="M34.58 81.4901C32.1216 81.4965 29.6901 80.9779 27.4482 79.969C25.2063 78.9602 23.2057 77.4843 21.58 75.6401C19.3678 73.1423 17.9251 70.0581 17.4258 66.759C16.9265 63.46 17.3918 60.087 18.7657 57.0464C20.1396 54.0058 22.3635 51.4274 25.1694 49.6218C27.9753 47.8163 31.2434 46.8607 34.58 46.8701C37.1 46.8631 39.5901 47.4165 41.87 48.4901C50.25 42.8601 56.21 35.2701 58.92 27.9101C62.09 19.3501 60.92 11.1301 54.02 6.74012C46.6338 2.94073 38.4461 0.962392 30.14 0.970115H0V54.1601V105.37H30.1C41.8508 105.405 53.2658 101.453 62.48 94.1601C64.0912 92.8907 65.624 91.5249 67.07 90.0701C75.2076 81.9239 80.4276 71.3187 81.9194 59.9014C83.4112 48.4841 81.0913 36.8937 75.32 26.9301C74.2963 25.1554 73.1641 23.4455 71.93 21.8101C71.93 25.4901 71.37 32.0401 65.82 40.5501C62.62 45.4501 57.76 51.0001 50.4 57.0501C51.409 59.2835 51.9208 61.7095 51.9 64.1601C51.9013 66.4355 51.4543 68.6887 50.5845 70.7913C49.7146 72.8938 48.4391 74.8043 46.8306 76.4137C45.2222 78.023 43.3124 79.2997 41.2104 80.1708C39.1084 81.0418 36.8553 81.4901 34.58 81.4901Z" fill="#FDFEFE"/>
<path  fill="#FDFEFE" d="M-315.88,243.28h15.37v-11.54h-15.92
		c-6.54,0-11.73,0.76-15.4,2.27c-5.44,2.23-9.63,6.53-12.44,12.78c-2.37,5.23-3.57,11.17-3.57,17.63c0,6.29,1.16,11.99,3.43,16.95
		c3.23,7.02,8.28,11.55,15.01,13.46c3.31,0.94,7.85,1.41,13.51,1.41h15.37v-11.04h-14.54c-3.64,0-6.43-0.22-8.29-0.66
		c-2.72-0.65-4.99-1.97-6.74-3.91c-3.51-3.95-5.3-9.3-5.3-15.89c0-7.31,1.74-13.09,5.18-17.19
		C-327.82,244.72-323,243.28-315.88,243.28z"/>
</svg>
