<svg width="375" height="84" viewBox="0 0 375 84" fill="none" xmlns="http://www.w3.org/2000/svg">
<g clip-path="url(#clip0_260_585)">
<g opacity="0.2" clip-path="url(#clip1_260_585)">
<path d="M-50.4487 44.9059C-48.4976 42.6651 -46.3767 40.6098 -44.2328 38.5864L-42.6089 37.0861C-42.0659 36.5877 -41.5104 36.1053 -40.9638 35.6123C-39.8707 34.6262 -38.7527 33.6684 -37.6383 32.707C-33.1718 28.874 -28.6027 25.17 -23.9929 21.5172C-19.3832 17.868 -14.7274 14.2753 -10.0522 10.7126C-5.37163 7.15531 -0.666337 3.63155 4.05134 0.123688C-0.615039 3.6987 -5.26904 7.28961 -9.8965 10.9123C-14.5204 14.5404 -19.1214 18.1984 -23.6745 21.9113C-28.2277 25.6259 -32.7384 29.3918 -37.1377 33.2796C-38.2344 34.2533 -39.3347 35.2252 -40.4102 36.2219C-40.9497 36.7185 -41.4963 37.208 -42.027 37.7117L-43.619 39.2261C-45.7187 41.2655 -47.7954 43.3366 -49.6739 45.558L-50.4487 44.9059Z" fill="white"/>
<path d="M-50.4258 52.5454C-45.7346 47.3499 -40.5128 42.7358 -35.2255 38.2224C-29.9259 33.7214 -24.4989 29.3794 -19.0223 25.1046C-13.5423 20.8333 -8.00912 16.6327 -2.44413 12.4763C3.12439 8.32519 8.72298 4.21295 14.3393 0.125458C8.77428 4.2801 3.22699 8.45949 -2.29024 12.6778C-7.80393 16.9013 -13.284 21.1673 -18.7075 25.5022C-24.1292 29.8389 -29.4961 34.2445 -34.7303 38.7985C-39.9468 43.3614 -45.1014 48.0338 -49.6616 53.2116L-50.4258 52.5454Z" fill="white"/>
<path d="M-49.4229 59.1016L-47.355 56.9545L-46.8385 56.4173L-46.306 55.8977L-45.2412 54.8586L-44.1763 53.8195C-43.8243 53.4696 -43.4528 53.1427 -43.0902 52.8016L-40.9091 50.78C-40.175 50.1138 -39.4303 49.4617 -38.6909 48.8007C-37.9479 48.1451 -37.2156 47.4789 -36.4585 46.8392C-34.9514 45.5527 -33.4602 44.2485 -31.9301 42.992C-25.8486 37.9167 -19.6256 33.0198 -13.3424 28.206C-7.05572 23.3957 -0.708878 18.6667 5.68219 13.9996C12.0733 9.33248 18.4997 4.71306 24.9474 0.123688C18.5492 4.78198 12.1741 9.46855 5.83432 14.2028C-0.505451 18.9371 -6.79923 23.7333 -13.0311 28.6071C-19.2594 33.4846 -25.4241 38.4433 -31.4384 43.5734C-32.9525 44.844 -34.426 46.1606 -35.9155 47.4594C-36.6637 48.1045 -37.3872 48.776 -38.1195 49.4387C-38.8483 50.1049 -39.586 50.7623 -40.3094 51.4338L-42.4587 53.4696C-42.8142 53.8107 -43.1804 54.1429 -43.5271 54.4928L-44.5743 55.5372L-45.6215 56.5816L-46.1451 57.103L-46.651 57.6402L-48.6764 59.7891L-49.4229 59.1016Z" fill="white"/>
<path d="M-50.3938 67.8439L-48.0323 65.3345L-47.4415 64.7071L-46.8312 64.101L-45.6089 62.8905L-44.3866 61.68L-44.0806 61.3778L-43.7675 61.0844L-43.1395 60.4977L-40.6259 58.1509C-39.7821 57.3751 -38.9189 56.6241 -38.0663 55.8589C-37.2066 55.1007 -36.3646 54.3249 -35.4872 53.588L-32.8763 51.3561C-32.4394 50.985 -32.0095 50.6086 -31.5691 50.2428L-30.2459 49.1489C-23.2021 43.2977 -15.9726 37.6799 -8.66879 32.1698C-1.35966 26.6632 6.02554 21.2592 13.4673 15.9382C20.9091 10.6137 28.3934 5.35102 35.9024 0.125458C28.4411 5.41994 21.0082 10.7515 13.6195 16.145C6.22719 21.5349 -1.10316 27.0043 -8.35746 32.5745C-15.6064 38.1499 -22.7758 43.8297 -29.7524 49.7338L-31.0632 50.8383C-31.5001 51.2059 -31.9264 51.5876 -32.358 51.9605L-34.9406 54.2118C-35.8091 54.9541 -36.6405 55.7352 -37.4896 56.4986C-38.3316 57.2691 -39.1878 58.0254 -40.0192 58.8065L-42.5009 61.1622L-43.12 61.7524L-43.4296 62.0475L-43.7303 62.3515L-44.9349 63.5656L-46.1396 64.7796L-46.741 65.3875L-47.3194 66.0149L-49.6367 68.5225L-50.3938 67.8439Z" fill="white"/>
<path d="M-50.4204 75.5364C-43.4049 67.9411 -35.6483 61.1215 -27.6917 54.5847C-19.7298 48.0497 -11.5504 41.7921 -3.28077 35.6635C4.99242 29.5384 13.3629 23.5477 21.7953 17.6453C30.2259 11.7411 38.706 5.91121 47.2163 0.123688C38.7538 5.98013 30.3214 11.879 21.9421 17.8521C13.561 23.8216 5.24183 29.8795 -2.97652 36.0682C-11.1913 42.2604 -19.3124 48.5798 -27.2053 55.1679C-35.091 61.7542 -42.7716 68.6268 -49.6651 76.2115L-50.4204 75.5364Z" fill="white"/>
<path d="M-50.4204 83.1954C-48.4339 81.119 -46.497 78.9931 -44.4079 77.0209L-42.8672 75.517L-42.0977 74.7642C-41.8377 74.5168 -41.5706 74.2782 -41.307 74.0343L-38.1353 71.1238C-37.0899 70.1412 -35.9914 69.217 -34.9142 68.2716L-31.6682 65.4494L-28.3639 62.6961L-26.7117 61.3195C-26.4358 61.0915 -26.1634 60.8582 -25.8839 60.6338L-25.0454 59.9605C-16.139 52.738 -6.97779 45.8442 2.28952 39.106C4.61564 37.4325 6.92937 35.7448 9.26433 34.0836L16.2763 29.1161L23.3254 24.2016C25.6763 22.5669 28.0448 20.9517 30.4028 19.3277C39.8558 12.8527 49.369 6.46434 58.9123 0.125458C49.4168 6.53503 39.9514 12.9923 30.5496 19.5362C28.204 21.1797 25.8496 22.809 23.5094 24.4613L16.4974 29.4271L9.52436 34.4441C7.20355 36.1212 4.9022 37.8265 2.59024 39.5142C-6.62224 46.3178 -15.725 53.2735 -24.5625 60.5472L-25.3939 61.2258C-25.6698 61.452 -25.9405 61.687 -26.2147 61.9168L-27.8527 63.3022L-31.1305 66.075L-34.3463 68.913C-35.4148 69.8638 -36.5009 70.7933 -37.5357 71.7794L-40.6737 74.7006C-40.9338 74.9444 -41.1991 75.1848 -41.4556 75.434L-42.2162 76.1885L-43.7375 77.6959C-45.8018 79.6734 -47.7069 81.7976 -49.6651 83.874L-50.4204 83.1954Z" fill="white"/>
<path d="M-50.4399 90.8721C-48.3013 88.5464 -46.1026 86.2792 -43.8437 84.0755C-41.5759 81.8806 -39.2781 79.7194 -36.9237 77.6217C-32.229 73.4105 -27.3981 69.3584 -22.4823 65.4158C-12.649 57.5306 -2.51844 50.0342 7.73592 42.7199C17.9938 35.4073 28.3897 28.2961 38.851 21.2822C49.3123 14.27 59.8462 7.36915 70.4101 0.512482C59.8922 7.43984 49.4043 14.4114 38.9943 21.496C28.5825 28.5789 18.2362 35.7589 8.0331 43.1352C-2.16643 50.5131 -12.2386 58.0732 -22.003 66.0096C-26.8852 69.9769 -31.6771 74.0538 -36.3276 78.2827C-38.6608 80.3891 -40.9356 82.5557 -43.1768 84.7558C-45.4092 86.9631 -47.5796 89.2303 -49.6864 91.5524L-50.4399 90.8721Z" fill="white"/>
<path d="M-50.438 98.5222C-45.7274 93.3991 -40.7125 88.5712 -35.5172 83.9624C-30.3255 79.3465 -24.9799 74.9091 -19.5387 70.5989C-8.64753 61.9857 2.58681 53.8266 13.9627 45.8814C25.3421 37.9396 36.8824 30.2312 48.49 22.6288C60.0976 15.0281 71.7883 7.55469 83.5055 0.123688C71.8343 7.62715 60.1896 15.1712 48.6297 22.8408C37.0717 30.5122 25.5809 38.2895 14.2545 46.2966C2.93352 54.3073 -8.24421 62.53 -19.0646 71.1945C-24.4704 75.5311 -29.7771 79.9915 -34.9247 84.6233C-40.0775 89.2498 -45.0393 94.0866 -49.6862 99.2026L-50.438 98.5222Z" fill="white"/>
<path d="M-50.3816 106.109C-45.2394 100.537 -39.7717 95.283 -34.0882 90.2836C-28.4117 85.2754 -22.5584 80.4757 -16.6007 75.8157C-10.6431 71.1538 -4.57394 66.6387 1.55533 62.2119C7.68813 57.7869 13.8846 53.4537 20.1271 49.1878C32.6156 40.6611 45.2757 32.3925 58.0136 24.2457C70.7515 16.1008 83.5761 8.09369 96.4254 0.127228C83.6221 8.16438 70.8435 16.2439 58.1533 24.4578C45.4632 32.6734 32.8526 41.0128 20.4172 49.6048C14.2013 53.9026 8.03307 58.2675 1.93034 62.7244C-4.17063 67.1812 -10.2061 71.7264 -16.1284 76.413C-22.0508 81.0995 -27.8652 85.9222 -33.4956 90.9463C-39.1349 95.9616 -44.5513 101.224 -49.628 106.789L-50.3816 106.109Z" fill="white"/>
<path d="M-50.4187 113.796L-48.3102 111.548C-47.9564 111.175 -47.6097 110.795 -47.2524 110.428L-46.1716 109.33C-45.4498 108.6 -44.7334 107.864 -44.0064 107.139L-41.797 104.992L-40.6897 103.921L-39.5647 102.871L-37.3129 100.77L-35.0239 98.7095C-34.2597 98.0238 -33.5026 97.3329 -32.7225 96.6649C-26.5455 91.2573 -20.1704 86.0865 -13.6767 81.073C-0.680533 71.0549 12.7702 61.6517 26.3979 52.5313C40.0327 43.4161 53.8585 34.5961 67.7656 25.9086C81.6763 17.2247 95.6737 8.68391 109.691 0.176697C95.7179 8.75637 81.7665 17.3696 67.9018 26.1225C54.0424 34.8806 40.2644 43.7696 26.6827 52.9501C13.1081 62.1377 -0.284297 71.6027 -13.2079 81.6721C-19.6662 86.7103 -26.0025 91.9041 -32.1335 97.3276C-32.9083 97.9973 -33.6601 98.6901 -34.4172 99.3775L-36.6867 101.442L-38.919 103.546L-40.0352 104.598L-41.1319 105.67L-43.3201 107.819C-44.0418 108.544 -44.7493 109.281 -45.464 110.011L-46.5342 111.108C-46.888 111.476 -47.2311 111.856 -47.5796 112.228L-49.6669 114.478L-50.4187 113.796Z" fill="white"/>
<path d="M-50.4963 121.524L-48.2162 119.094L-47.0735 117.882L-45.9025 116.696L-43.5604 114.328L-41.1671 112.013L-39.9696 110.855L-38.7508 109.723L-36.3097 107.459C-35.4942 106.708 -34.6558 105.978 -33.8314 105.238L-32.5897 104.13C-32.1775 103.758 -31.7618 103.391 -31.3391 103.032C-24.6402 97.211 -17.7167 91.6568 -10.6605 86.2845C3.46245 75.5489 18.0984 65.5166 32.9289 55.8041C47.7665 46.0988 62.8182 36.7256 77.9512 27.4939C93.0913 18.271 108.314 9.1894 123.55 0.125519C108.359 9.26185 93.1779 18.4159 78.0856 27.713C62.9986 37.0172 47.9947 46.4593 33.2102 56.2318C18.4327 66.0114 3.85515 76.1055 -10.1953 86.8924C-17.2161 92.2894 -24.0989 97.8649 -30.7518 103.702C-31.171 104.062 -31.5832 104.432 -31.9936 104.803L-33.2265 105.913C-34.0455 106.655 -34.8769 107.386 -35.687 108.139L-38.1087 110.407L-39.3186 111.541L-40.5055 112.699L-42.8794 115.015L-45.1985 117.383L-46.3571 118.567L-47.4874 119.78L-49.7446 122.206L-50.4963 121.524Z" fill="white"/>
<path d="M-50.4187 129.08C-43.9357 122.061 -36.9909 115.492 -29.7755 109.251C-22.546 103.023 -15.0671 97.0961 -7.43776 91.3757C0.193308 85.6553 7.97297 80.1417 15.8481 74.7677C23.7233 69.3955 31.6923 64.1629 39.7213 59.0257C55.7813 48.7548 72.0729 38.8533 88.4459 29.0966C104.824 19.3471 121.287 9.7407 137.742 0.123688C121.328 9.81315 104.909 19.492 88.575 29.314C72.2463 39.1413 56.0024 49.1135 39.9937 59.4515C31.9912 64.6223 24.0506 69.8868 16.2055 75.2908C8.36213 80.6948 0.612538 86.2367 -6.97962 91.9818C-14.5718 97.7287 -22.0118 103.675 -29.1936 109.919C-36.3612 116.175 -43.2511 122.752 -49.6687 129.761L-50.4187 129.08Z" fill="white"/>
<path d="M-50.293 136.582C-43.3447 129.07 -35.8781 122.061 -28.1285 115.402C-20.3595 108.761 -12.3039 102.468 -4.08908 96.3998C4.12927 90.3348 12.5139 84.4996 21.0011 78.8234C29.4901 73.1472 38.0817 67.6283 46.737 62.2154C64.0528 51.3914 81.6163 40.9757 99.2612 30.7066C116.908 20.4392 134.636 10.3097 152.33 0.127228C134.678 10.384 116.993 20.5859 99.3903 30.9257C81.7897 41.269 64.2722 51.7555 47.0076 62.6466C38.3771 68.0931 29.8138 73.6456 21.3549 79.3518C12.8978 85.0598 4.54496 90.9233 -3.63624 97.013C-11.8157 103.106 -19.8288 109.422 -27.5501 116.077C-35.2502 122.749 -42.6619 129.766 -49.543 137.268L-50.293 136.582Z" fill="white"/>
<path d="M-50.4187 144.358C-43.0087 136.335 -35.0292 128.865 -26.7312 121.785C-26.22 121.335 -25.6894 120.905 -25.1675 120.469L-23.595 119.163C-22.5442 118.293 -21.5024 117.415 -20.4445 116.555L-17.2499 114.001C-16.1832 113.153 -15.1272 112.289 -14.0429 111.465C-9.73734 108.12 -5.38759 104.831 -0.974163 101.632C7.84208 95.2176 16.8423 89.0642 25.9557 83.0858C35.0709 77.1092 44.2975 71.3076 53.5949 65.6225C72.1932 54.2578 91.0586 43.3401 109.997 32.5586C128.938 21.777 147.948 11.1244 166.893 0.353424C147.991 11.1969 129.021 21.9237 110.126 32.7777C91.2302 43.6317 72.4108 54.6201 53.8638 66.0537C44.5929 71.7723 35.3928 77.6058 26.3077 83.6142C17.2244 89.6227 8.256 95.806 -0.521323 102.246C-4.91529 105.458 -9.24558 108.758 -13.5299 112.114C-14.6107 112.941 -15.6596 113.807 -16.721 114.657L-19.898 117.217C-20.9505 118.08 -21.987 118.96 -23.0307 119.831L-24.5944 121.14C-25.1145 121.579 -25.6416 122.008 -26.1493 122.46C-34.4012 129.552 -42.3242 137.029 -49.6687 145.04L-50.4187 144.358Z" fill="white"/>
<path d="M-50.5 152.082C-42.5947 143.515 -34.0598 135.555 -25.1728 128.036L-24.3431 127.326C-24.0654 127.091 -23.7824 126.863 -23.5011 126.631L-21.8136 125.246L-18.4385 122.476L-15.0122 119.771L-13.2981 118.419C-12.725 117.97 -12.1589 117.512 -11.5769 117.078L-8.10103 114.438C-6.94062 113.559 -5.79083 112.669 -4.61097 111.815L-1.09261 109.231L0.665683 107.94L2.44343 106.674C11.9053 99.8972 21.5724 93.4134 31.3616 87.124C41.1525 80.8364 51.0654 74.7449 61.0545 68.7806C81.0325 56.8539 101.301 45.4255 121.62 34.0997C141.941 22.7738 162.321 11.5557 182.584 0.12735C162.362 11.6282 142.021 22.9205 121.742 34.3188C101.465 45.7171 81.2412 57.218 61.3127 69.2136C51.3502 75.2132 41.4638 81.3365 31.703 87.6541C21.9439 93.9736 12.3104 100.487 2.88566 107.289L1.11499 108.56L-0.636231 109.855L-4.14044 112.448C-5.315 113.303 -6.45948 114.197 -7.61458 115.077L-11.0746 117.726C-11.6548 118.163 -12.2173 118.622 -12.7886 119.071L-14.4939 120.427L-17.9026 123.139L-21.2599 125.915L-22.9386 127.303C-23.2181 127.536 -23.5011 127.762 -23.7753 127.999L-24.5996 128.711C-33.4371 136.245 -41.9137 144.209 -49.7518 152.764L-50.5 152.082Z" fill="white"/>
<path d="M-50.4167 159.628C-42.0197 150.539 -32.9364 142.112 -23.4674 134.172C-22.8748 133.675 -22.2946 133.166 -21.6932 132.68L-19.8925 131.222L-16.291 128.305C-15.6948 127.813 -15.081 127.343 -14.4725 126.87L-12.6435 125.449L-8.9836 122.605L-5.27243 119.831L-3.41684 118.444C-2.79773 117.982 -2.18391 117.514 -1.55418 117.067L2.20475 114.358C3.46067 113.458 4.70244 112.539 5.97606 111.665C16.0765 104.547 26.3999 97.7552 36.8541 91.1796C47.3119 84.6039 57.9024 78.2473 68.5707 72.0251C89.909 59.5823 111.555 47.6839 133.226 35.8402C154.899 23.9983 176.61 12.2271 198.14 0.127228C176.653 12.3013 154.98 24.1468 133.348 36.0611C111.72 47.979 90.116 59.9499 68.8272 72.4615C58.1836 78.7174 47.6197 85.1093 37.1938 91.715C26.7678 98.3225 16.4781 105.144 6.41652 112.285C5.14821 113.162 3.91174 114.086 2.66112 114.987L-1.08189 117.705C-1.70985 118.154 -2.32012 118.624 -2.93747 119.085L-4.78598 120.476L-8.48123 123.257L-12.1252 126.108L-13.9472 127.532C-14.5539 128.008 -15.1642 128.479 -15.7568 128.971L-19.3406 131.894L-21.1325 133.355C-21.7304 133.841 -22.3088 134.352 -22.8978 134.848C-32.3155 142.804 -41.3387 151.235 -49.6685 160.312L-50.4167 159.628Z" fill="white"/>
<path d="M-50.4167 167.26C-41.5244 157.634 -31.8839 148.731 -21.8206 140.362L-19.9402 138.786L-18.0245 137.25L-14.1913 134.184C-12.923 133.15 -11.6104 132.173 -10.3156 131.174L-6.41869 128.191C-5.77304 127.688 -5.10793 127.214 -4.44989 126.726L-2.47225 125.274L1.48126 122.367C4.15231 120.479 6.81629 118.578 9.49619 116.703C20.2494 109.245 31.2467 102.15 42.3855 95.2918C53.5261 88.4351 64.81 81.817 76.1752 75.3438C98.9092 62.401 121.962 50.0378 145.007 37.6675C168.054 25.3025 191.114 12.9552 213.906 0.125458C191.156 13.0294 168.135 25.451 145.127 37.8902C122.123 50.3347 99.1109 62.7703 76.4264 75.7838C65.0859 82.2924 53.8286 88.9441 42.7181 95.8308C31.6093 102.719 20.6456 109.845 9.93134 117.327C7.26028 119.209 4.60869 121.116 1.94648 123.008L-1.99111 125.922L-3.9599 127.38C-4.6144 127.868 -5.27774 128.345 -5.91985 128.849L-9.79907 131.839C-11.0886 132.839 -12.3958 133.82 -13.6588 134.855L-17.4744 137.927L-19.3795 139.464L-21.251 141.044C-31.2648 149.424 -40.8452 158.332 -49.6685 167.944L-50.4167 167.26Z" fill="white"/>
<path d="M-50.4167 174.893C-41.0256 164.728 -30.8243 155.344 -20.1596 146.551C-9.48951 137.757 1.64931 129.552 13.057 121.752C24.4682 113.955 36.1519 106.57 47.9841 99.4394C59.8199 92.3106 71.806 85.4415 83.8788 78.7297C108.03 65.3098 132.499 52.4871 156.926 39.5919C181.355 26.6986 205.758 13.7522 229.789 0.127228C205.801 13.8247 181.434 26.847 157.044 39.8164C132.656 52.7875 108.226 65.6844 84.1247 79.1733C72.0766 85.9204 60.1153 92.823 48.3096 99.9837C36.5074 107.146 24.8556 114.559 13.4851 122.381C2.11807 130.204 -8.97829 138.432 -19.5953 147.236C-30.207 156.039 -40.3464 165.426 -49.6685 175.577L-50.4167 174.893Z" fill="white"/>
<path d="M-50.4167 182.523C-45.4797 177.164 -40.3198 172.016 -34.9883 167.055C-29.6551 162.095 -24.1538 157.32 -18.5092 152.72C-7.22531 143.513 4.56447 134.947 16.6408 126.825C28.7207 118.705 41.0942 111.03 53.6287 103.64C66.1649 96.2514 78.8657 89.1473 91.6496 82.2023C117.223 68.3175 143.123 55.0566 168.933 41.6295C194.742 28.2025 220.481 14.6252 245.709 0.127228C220.525 14.6976 194.821 28.3509 169.052 41.8539C143.281 55.357 117.419 68.6922 91.8937 82.6476C79.1328 89.628 66.4586 96.7656 53.9524 104.186C41.448 111.608 29.1098 119.313 17.0689 127.456C5.03146 135.601 -6.7141 144.19 -17.9449 153.407C-23.5612 158.013 -29.036 162.791 -34.3374 167.752C-39.6388 172.712 -44.7651 177.858 -49.6667 183.209L-50.4167 182.523Z" fill="white"/>
<path d="M-50.5 190.244C-40.1289 178.98 -28.8132 168.619 -16.935 158.983C-5.04435 149.355 7.39638 140.426 20.1467 131.987C32.9005 123.549 45.9692 115.598 59.2095 107.957C72.4515 100.318 85.8687 92.9856 99.369 85.8179C126.375 71.4878 153.712 57.8045 180.896 43.8297C208.077 29.8548 235.136 15.6113 261.514 0.160797C235.179 15.6837 208.157 30.0032 181.013 44.0541C153.866 58.105 126.566 71.8625 99.6078 86.265C86.1305 93.468 72.7399 100.834 59.5279 108.505C46.3177 116.178 33.2826 124.157 20.5677 132.62C7.8563 141.083 -4.53668 150.032 -16.3742 159.67C-28.1994 169.317 -39.4532 179.678 -49.7518 190.928L-50.5 190.244Z" fill="white"/>
<path d="M-50.4167 197.781C-39.5486 185.985 -27.665 175.161 -15.1836 165.113C-2.68983 155.072 10.4054 145.805 23.8279 137.066C37.2557 128.329 51.0196 120.122 64.9639 112.248C78.9099 104.375 93.04 96.8345 107.253 89.4601C135.683 74.7147 164.442 60.6285 192.974 46.0969C221.502 31.5636 249.841 16.6133 277.295 0.123688C249.886 16.6857 221.581 31.7138 193.091 46.3231C164.594 60.9307 135.871 75.0929 107.488 89.9107C93.2982 97.3205 79.1947 104.896 65.277 112.801C51.3627 120.707 37.6307 128.942 24.2436 137.704C10.8618 146.468 -2.18745 155.754 -14.6264 165.806C-27.053 175.863 -38.8729 186.687 -49.6685 198.467L-50.4167 197.781Z" fill="white"/>
<path d="M-50.4167 205.41C-39.071 193.095 -26.6444 181.813 -13.5757 171.373C-7.04134 166.151 -0.33895 161.139 6.49081 156.309C13.3188 151.478 20.2671 146.821 27.3091 142.309C41.3931 133.288 55.8363 124.844 70.4687 116.754C85.1029 108.666 99.9299 100.934 114.836 93.3691C144.655 78.242 174.797 63.7776 204.63 48.6912C219.545 41.1488 234.386 33.4545 249.059 25.451C263.731 17.4456 278.238 9.13279 292.453 0.337524C278.261 9.16814 263.773 17.5198 249.12 25.5623C234.464 33.6047 219.643 41.3362 204.743 48.9174C174.946 64.0816 144.837 78.6219 115.065 93.8215C100.179 101.422 85.3788 109.189 70.7747 117.309C56.1724 125.429 41.7628 133.903 27.7195 142.949C20.6987 147.473 13.7716 152.139 6.96841 156.981C0.163422 161.819 -6.51244 166.838 -13.0203 172.065C-26.0341 182.515 -38.3952 193.796 -49.6685 206.096L-50.4167 205.41Z" fill="white"/>
<path d="M-50.4167 213.037C-38.5774 200.185 -25.5883 188.431 -11.9058 177.589C-5.0637 172.168 1.95533 166.969 9.10526 161.964C16.2587 156.963 23.5449 152.153 30.9265 147.5C45.6934 138.194 60.8441 129.513 76.1911 121.213C91.5399 112.912 107.089 104.992 122.715 97.2339C153.972 81.7251 185.543 66.8667 216.699 51.1688C232.278 43.3207 247.754 35.2677 263.016 26.8241C278.278 18.3805 293.328 9.54454 308.01 0.125458C293.351 9.57989 278.321 18.4529 263.078 26.9354C247.834 35.4179 232.373 43.5098 216.814 51.395C185.692 67.1706 154.154 82.1051 122.942 97.6881C107.338 105.481 91.8124 113.437 76.4936 121.769C61.1766 130.104 46.0595 138.812 31.3334 148.143C23.9712 152.808 16.708 157.629 9.57933 162.639C2.4524 167.654 -4.53833 172.859 -11.3522 178.286C-24.9781 189.136 -37.9017 200.89 -49.6667 213.725L-50.4167 213.037Z" fill="white"/>
<path d="M-50.4167 220.665C-38.1034 207.296 -24.573 195.088 -10.3014 183.863C3.97542 172.634 18.9899 162.369 34.4148 152.799C49.8432 143.228 65.6803 134.334 81.719 125.841C97.7612 117.35 114.009 109.26 130.33 101.328C162.977 85.4733 195.923 70.2437 228.342 53.9362C244.551 45.7842 260.628 37.3635 276.44 28.4658C292.251 19.568 307.798 10.1913 322.894 0.123688C307.823 10.2267 292.295 19.6405 276.502 28.5753C260.708 37.5102 244.648 45.9697 228.457 54.1606C196.072 70.5459 163.158 85.855 130.553 101.783C114.253 109.749 98.0283 117.875 82.0161 126.4C66.0057 134.924 50.2041 143.849 34.8163 153.443C19.4321 163.037 4.46894 173.32 -9.75131 184.558C-23.9663 195.791 -37.4294 207.997 -49.6685 221.349L-50.4167 220.665Z" fill="white"/>
<path d="M-50.4167 228.29C-37.6382 214.414 -23.5753 201.761 -8.7218 190.161C6.13703 178.556 21.7813 167.99 37.8571 158.163C53.9365 148.334 70.4528 139.243 87.176 130.572C103.903 121.902 120.842 113.658 137.85 105.566C171.866 89.3841 206.163 73.794 239.806 56.8538C256.625 48.3855 273.279 39.5813 289.612 30.2047C305.941 20.828 321.949 10.877 337.411 0.125458C321.972 10.9106 305.987 20.9005 289.675 30.3142C273.363 39.7298 256.724 48.5728 239.921 57.08C206.31 74.0997 172.043 89.7693 138.069 106.024C121.082 114.153 104.166 122.434 87.4697 131.136C70.7747 139.839 54.2938 148.959 38.2569 158.811C22.2235 168.662 6.62879 179.245 -8.17167 190.859C-22.9686 202.468 -36.9642 215.119 -49.6685 228.976L-50.4167 228.29Z" fill="white"/>
<path d="M-50.4167 235.915C-37.18 221.541 -22.5954 208.45 -7.1687 196.486C8.26149 184.515 24.5284 173.657 41.2481 163.59C57.9731 153.522 75.1563 144.241 92.5553 135.407C109.958 126.574 127.58 118.189 145.262 109.942C180.626 93.4539 216.25 77.5086 251.076 59.911C268.486 51.114 285.694 41.907 302.512 32.0249C319.329 22.1446 335.759 11.5874 351.543 0.123688C335.784 11.6227 319.375 22.217 302.576 32.1344C285.775 42.0536 268.583 51.3013 251.189 60.1372C216.393 77.8126 180.797 93.8374 145.474 110.399C127.813 118.684 110.214 127.105 92.8419 135.971C75.4747 144.84 58.3251 154.151 41.6426 164.242C24.9635 174.333 8.74793 185.208 -6.62211 197.188C-21.9904 209.158 -36.5078 222.246 -49.6685 236.601L-50.4167 235.915Z" fill="white"/>
<path d="M-50.4167 243.541C-36.7325 228.679 -21.6348 215.158 -5.6439 202.837C10.3506 190.511 27.2295 179.369 44.5878 169.077C61.9496 158.781 79.7944 149.327 97.8602 140.343C115.928 131.358 134.222 122.844 152.567 114.452C189.256 97.6757 226.184 81.3823 262.153 63.1026C280.132 53.9644 297.869 44.3333 315.146 33.9246C332.419 23.5177 349.235 12.3261 365.298 0.125458C349.259 12.3597 332.467 23.5883 315.213 34.0342C297.956 44.4817 280.235 54.1535 262.27 63.3305C226.331 81.6898 189.431 98.0627 152.781 114.915C134.455 123.342 116.184 131.895 98.145 140.912C80.1092 149.93 62.2981 159.414 44.9787 169.731C27.6646 180.048 10.837 191.206 -5.09731 203.541C-21.0281 215.867 -36.0567 229.384 -49.665 244.226L-50.4167 243.541Z" fill="white"/>
<path d="M-50.4167 251.164C-36.292 235.822 -20.692 221.879 -4.14564 209.213C12.4043 196.539 29.8864 185.125 47.8744 174.617C65.866 164.108 84.3635 154.494 103.086 145.37C121.811 136.248 140.767 127.614 159.765 119.087C178.765 110.56 197.811 102.141 216.743 93.4769C235.676 84.8124 254.501 75.9023 273.032 66.4107C291.561 56.9209 309.802 46.8462 327.503 35.8862C345.203 24.9296 362.365 13.0789 378.667 0.127228C362.39 13.1125 345.251 24.9986 327.569 35.994C309.885 46.9929 291.66 57.1065 273.147 66.6369C254.63 76.1691 235.819 85.1199 216.901 93.8233C197.982 102.528 178.951 110.986 159.972 119.55C140.993 128.115 122.059 136.785 103.362 145.941C84.6677 155.097 66.2039 164.74 48.2565 175.274C30.3127 185.805 12.8819 197.237 -3.60612 209.918C-20.0906 222.591 -35.6216 236.529 -49.6703 251.852L-50.4167 251.164Z" fill="white"/>
<path d="M-50.4167 258.788C-35.8604 242.973 -19.7651 228.615 -2.67213 215.61C14.4244 202.597 32.5044 190.919 51.1115 180.208C69.724 169.494 88.8671 159.734 108.238 150.483C127.613 141.233 147.222 132.493 166.864 123.837C186.506 115.183 206.185 106.614 225.724 97.7358C245.263 88.861 264.667 79.677 283.728 69.8178C302.788 59.9605 321.507 49.4246 339.606 37.8919C357.704 26.3664 375.177 13.837 391.685 0.123688C375.204 13.8706 357.754 26.4353 339.675 37.9997C321.595 49.5695 302.891 60.1461 283.847 70.0423C264.799 79.942 245.408 89.1667 225.883 98.0822C206.358 106.999 186.693 115.607 167.071 124.3C147.448 132.995 127.861 141.772 108.514 151.053C89.1714 160.336 70.0636 170.127 51.4936 180.866C32.9289 191.601 14.902 203.295 -2.13262 216.314C-19.1637 229.327 -35.1882 243.68 -49.6685 259.474L-50.4167 258.788Z" fill="white"/>
<path d="M-50.4167 266.412C-35.4359 250.134 -18.8541 235.366 -1.22164 222.031C16.4126 208.685 35.0834 196.755 54.3062 185.849C73.5342 174.94 93.3142 165.044 113.328 155.678C133.345 146.312 153.597 137.474 173.872 128.697C194.147 119.919 214.447 111.203 234.581 102.111C254.713 93.0209 274.682 83.5559 294.253 73.3151C313.823 63.0778 332.998 52.0594 351.465 39.9401C369.931 27.826 387.684 14.6022 404.366 0.123688C387.71 14.634 369.982 27.895 351.534 40.0461C333.086 52.2043 313.927 63.2634 294.372 73.5413C274.813 83.8228 254.856 93.3284 234.738 102.459C214.619 111.59 194.331 120.347 174.075 129.163C153.82 137.98 133.587 146.855 113.6 156.254C93.6149 165.654 73.8703 175.58 54.6865 186.512C35.508 197.44 16.892 209.388 -0.680345 222.739C-18.2545 236.078 -34.7637 250.839 -49.6685 267.097L-50.4167 266.412Z" fill="white"/>
<path d="M-50.4238 275.765C-42.9237 267.253 -34.9848 259.129 -26.678 251.405C-18.3712 243.679 -9.69825 236.352 -0.733419 229.405C17.198 215.504 36.2775 203.138 55.9619 191.891C75.6534 180.641 95.9498 170.494 116.496 160.921C137.047 151.35 157.853 142.35 178.676 133.408C199.502 124.468 220.352 115.584 241.016 106.28C261.677 96.9777 282.157 87.2529 302.19 76.6639C322.221 66.0785 341.807 54.6218 360.589 41.9458C379.371 29.2787 397.34 15.3815 414.097 0.125458C397.368 15.4116 379.423 29.3441 360.66 42.0501C341.897 54.7632 322.326 66.2605 302.309 76.8883C282.288 87.5179 261.82 97.2852 241.172 106.628C220.522 115.973 199.684 124.896 178.876 133.875C158.069 142.855 137.284 151.893 116.763 161.498C96.2452 171.102 75.9841 181.279 56.3386 192.552C36.7002 203.822 17.6774 216.202 -0.190363 230.107C-9.12158 237.055 -17.7609 244.38 -26.0306 252.101C-34.3002 259.82 -42.2002 267.937 -49.6632 276.435L-50.4238 275.765Z" fill="white"/>
<path d="M-50.4309 285.37C-42.9484 276.47 -34.9866 267.974 -26.6161 259.905C-18.2474 251.834 -9.47184 244.188 -0.37611 236.951C17.8207 222.471 37.2893 209.65 57.4212 198.05C77.562 186.445 98.3679 176.045 119.441 166.269C140.519 156.493 161.875 147.337 183.245 138.24C204.617 129.142 226.016 120.103 247.206 110.592C268.394 101.085 289.378 91.1036 309.866 80.1647C330.35 69.2294 350.335 57.3256 369.411 44.0788C388.485 30.8408 406.639 16.2475 423.421 0.194366C406.667 16.2793 388.538 30.908 369.483 44.1831C350.427 57.4688 330.456 69.4131 309.986 80.3891C289.513 91.3686 268.537 101.39 247.361 110.94C226.184 120.49 204.8 129.572 183.445 138.706C162.091 147.842 140.758 157.035 119.708 166.845C98.6633 176.655 77.8946 187.085 57.8015 198.711C37.7156 210.332 18.3053 223.167 0.17756 237.647C-8.88633 244.884 -17.6247 252.527 -25.9563 260.591C-34.2878 268.654 -42.2108 277.138 -49.6544 286.024L-50.4309 285.37Z" fill="white"/>
</g>
</g>
<defs>
<clipPath id="clip0_260_585">
<rect width="375" height="84" fill="white"/>
</clipPath>
<clipPath id="clip1_260_585">
<rect width="487" height="290" fill="white" transform="translate(-50.5)"/>
</clipPath>
</defs>
</svg>
