<svg id="Layer_1" data-name="Layer 1" xmlns="http://www.w3.org/2000/svg" viewBox="0 0 483.37 483.37"><defs><style>.cls-1{fill:#d9d9d9;opacity:0.2;isolation:isolate;}.cls-2{fill:#f3d35b;stroke:#f3d35b;}.cls-2,.cls-3,.cls-4{fill-rule:evenodd;}.cls-3{fill:#f39c1c;stroke:#f29c1f;}.cls-4{fill:#cf4332;stroke:#cf4332;}.cls-5{fill:#3b97d3;}.cls-6{fill:#2980ba;}.cls-7{fill:#e57e25;}</style></defs><circle class="cls-1" cx="241.69" cy="241.69" r="241.69"/><path class="cls-2" d="M170.68,126.8a31.68,31.68,0,0,0-21.81,45.64c4.16,8.26,14.35,16.05,21.81,16.68.6,0-3.91.25-10,.44-9.28.29-11.65.53-14.45,1.45a28.26,28.26,0,0,0-18.39,18.67c-1.14,3.46-1.78,70.62-.72,75.58,1.58,7.39,9.68,11.68,16,8.45a17.55,17.55,0,0,1,1.92-.91c.1,0,.23,19.46.31,43.24l.14,43.24,1.54,2.77a15.94,15.94,0,0,0,24.56,4.34c2.56-2.3,5.13-6.42,5.15-8.25,0-.51.81.74,1.8,2.76a16.34,16.34,0,0,0,7.63,8.06l2.18,1.16,36.65.14c41.44.16,38.71.42,41.82-4,1.54-2.16,1.55-2.25,1.55-9.06,0-8.19-.66-9.55-4.64-9.55-3.7,0-4.61,1.52-4.83,8l-.17,5.38H207.75l.72-2.41c.6-2,.73-9.82.73-44.15V292.78l1.49.77c5.51,2.85,13,.16,15.6-5.62,1.33-2.92,1.49-71.64.18-77.17A28.07,28.07,0,0,0,208.16,191c-2.84-.92-5-1.13-14.45-1.35l-11.1-.26,3.09-.86A32.49,32.49,0,0,0,205.47,172c5.68-11.85,4.09-24.1-4.55-35.24l-1.1-1.42h58.85l.17,5.38c.16,4.86.3,5.51,1.43,6.71a4.76,4.76,0,0,0,6.59.09l1.45-1.25v-7c0-7.87-.92-10.18-4.89-12.3C261.07,125.74,176.35,125.57,170.68,126.8Zm134.81.21a7.88,7.88,0,0,0-4.63,4.84c-1.21,2.89-1.21,249.83,0,252.72,2.47,5.93,1.63,5.79,35.7,5.8,30.66,0,30.76,0,33.38-2.47,3.42-3.24,3.14,8.51,3.08-129.75-.06-137.4.2-126.53-3.08-129.63-2.62-2.48-2.72-2.48-33.38-2.47C309.52,126.06,307.41,126.12,305.49,127Zm27.09,22.91c-9,4.54-5.19,17.63,4.88,16.8,9.63-.8,11.1-14.3,1.9-17.38A7.57,7.57,0,0,0,332.58,149.92Zm-71.66,8.94c-1.33.94-20.23,38.31-20.23,40a4.9,4.9,0,0,0,7.27,4.07c.56-.3,3.18-4.84,5.88-10.19l4.87-9.66V333.33l-4.87-9.66c-2.7-5.35-5.32-9.89-5.88-10.19-3-1.62-7.27.66-7.27,3.89,0,1.62,18.63,38.87,20.1,40.2a4.7,4.7,0,0,0,5.75,0c1.37-1.23,20.1-38.52,20.1-40a4.9,4.9,0,0,0-7.27-4.07c-.56.3-3.18,4.84-5.88,10.19l-4.86,9.66V183.09l4.86,9.66c2.7,5.35,5.32,9.89,5.88,10.19,3,1.61,7.27-.66,7.27-3.89,0-1.83-18.81-39.19-20.23-40.19A5.22,5.22,0,0,0,260.92,158.86Z" transform="translate(-8.12 -16.53)"/><path class="cls-3" d="M183.64,126.89A34.49,34.49,0,0,1,197,133.24l2.51,2.09h59.78v5.44c0,6.39.88,8,4.39,8,3.69,0,4.38-1.46,4.38-9.29,0-7.32-.3-8.46-2.92-10.94s-2.07-2.49-44.74-2.44C183.34,126.12,180.32,126.18,183.64,126.89Zm77.78,31.81c-1.9.92-20.91,39.19-20.46,41.22a4.54,4.54,0,0,0,6.86,2.75c.64-.45,2.3-3.06,3.68-5.81q2.52-5,5.14-9.9l2.62-4.9,0,76.15v76.15l-5.12-10.1c-5.28-10.43-6-11.32-9-11.32A5,5,0,0,0,241,316.5c-.4,1.81,18.59,40.4,20.34,41.33a5.66,5.66,0,0,0,4.73,0c1.75-.93,20.74-39.52,20.34-41.33-.66-3-4.79-4.58-7.19-2.77-.55.42-3.27,5.23-6,10.7l-5,9.93V182.06l5,9.93c2.77,5.46,5.49,10.28,6,10.7,2.4,1.81,6.5.19,7.22-2.86.47-2-18.69-40.27-20.63-41.16A4.43,4.43,0,0,0,261.42,158.7Zm38.64,26.74v4.68l10-.16c11.61-.19,12.69-.58,12.69-4.66s-1-4.54-12.62-4.54h-10.1Zm51.6-3.17c-2.38,2.38-1.91,5.47,1.06,7,1.18.61,3.52.78,10.82.78h9.32v-9.3h-19.7Zm-204.09,8.61a27.56,27.56,0,0,0-19.67,19.88c-1,4.09-1.19,72.61-.25,76,1.67,6,9.92,9.52,15.6,6.63l1.9-1,.14,42.92.14,42.92,1.19,2.58c6.16,13.42,25.53,12.1,29.65-2l.72-2.48.65,2.24a17.15,17.15,0,0,0,10.53,11c3,1,71.41,1.28,74,.28,4.55-1.71,5.84-4.57,5.84-12.87,0-7.83-.69-9.29-4.38-9.29-3.51,0-4.39,1.59-4.39,8v5.45H233.41c-24.43,0-25.85,0-25.52-.9,1.12-2.91,1.31-9.53,1.31-46.67,0-22.4.08-40.72.19-40.72a19.67,19.67,0,0,1,2.18.83,11.28,11.28,0,0,0,14.12-5.21l1.32-2.56V249.45c0-33.88-.07-36.63-.95-39.51-3-9.75-11-17.36-20.37-19.31C201.33,189.72,151.46,189.93,147.57,190.88Zm152.49,17.25v4.65H305c6.91,0,9.72-1.89,8.72-5.87-.69-2.73-2.37-3.43-8.3-3.43h-5.36Zm61.7-4a4.38,4.38,0,0,0-.73,7.33c1.47,1.24,2,1.34,6.71,1.34h5.12v-9.3l-5,0C365,203.51,362.34,203.77,361.76,204.11Zm-61.7,26.74v4.64h9.59c11.61,0,13.1-.53,13.1-4.64s-1.49-4.65-13.1-4.65h-9.59Zm51.6-3.14a4,4,0,0,0,0,6.27l1.5,1.51h19.7V226.2h-19.7Zm-51.6,25.85v4.65h5.36c5.93,0,7.61-.7,8.3-3.43,1-4-1.81-5.86-8.72-5.86h-4.94ZM361,250.43c-2,2-2.06,4.51-.15,6.42,1.3,1.29,1.62,1.36,6.71,1.36h5.35v-9.29h-5.2C362.6,248.92,362.42,249,361,250.43Zm-60.89,25.82v4.68h10.1c11.64,0,12.62-.36,12.62-4.54s-1.08-4.47-12.69-4.66l-10-.16Zm52.51-3.79c-2.64,1.43-3.12,4.46-1.09,6.88l1.34,1.59h20v-9.3l-9.42,0C356,271.67,353.71,271.84,352.57,272.46Zm-52.12,22.18a17.11,17.11,0,0,0-.39,4.7v4.3h5.59c5.17,0,5.68-.09,6.71-1.18,1.91-2,2-4.1.21-6.09-1.52-1.7-1.61-1.72-6.64-1.92C303.13,294.34,300.67,294.43,300.45,294.64Zm61.74.46a4.44,4.44,0,0,0-1.48,7.28c1.18,1.18,1.62,1.26,6.71,1.26h5.44v-9.29l-4.51,0A20.42,20.42,0,0,0,362.19,295.1Zm-62,27,.15,4.52h20l1.25-1.45a4.57,4.57,0,0,0,0-6.32c-1.25-1.26-1.33-1.27-11.37-1.27H300Zm51.63-3.47a4.45,4.45,0,0,0-1.11,5.22c1.09,2.62,2.87,3,13.12,3h9.05v-9.3h-10C353.59,317.58,352.85,317.65,351.8,318.63ZM300.06,345v4.64H305c6.91,0,9.72-1.88,8.72-5.86-.69-2.73-2.37-3.43-8.3-3.43h-5.36Zm60.65-3.38a4.59,4.59,0,0,0,0,6.32c1.2,1.39,1.46,1.45,6.72,1.62l5.46.18V340.3h-5.44C362.33,340.3,361.89,340.38,360.71,341.57Zm-60.65,26.1v4.64h9.77c9.76,0,9.78,0,11.36-1.33a4.48,4.48,0,0,0,.32-6.69c-1.25-1.26-1.33-1.27-11.35-1.27h-10.1Zm51.6-3.14a4.09,4.09,0,0,0-.27,6.08l1.25,1.44,10.11.16,10.11.16V363h-19.7Z" transform="translate(-8.12 -16.53)"/><path class="cls-4" d="M184.93,126.84A37.94,37.94,0,0,1,197.14,133l2.15,1.84h60v5.4c0,6.49.93,8.23,4.39,8.23s4.39-1.68,4.37-8.88-.81-9.59-4.17-11.81l-2.19-1.46-39.8-.1C186.17,126.1,182.38,126.17,184.93,126.84Zm77.7,31.62a5.3,5.3,0,0,0-2,1.06c-1.75,1.54-19.43,37.55-19.43,39.57a4.16,4.16,0,0,0,6,3.79c1.17-.55,2.53-2.77,6.73-11l5.27-10.32V334.88L254,324.55c-4.2-8.24-5.56-10.46-6.73-11a4.18,4.18,0,0,0-6,3.53c0,2.08,18.63,39.37,20.23,40.48s3.11,1,4.77-.27c2-1.59,19.91-37.49,19.91-39.95a4.16,4.16,0,0,0-6-3.79c-1.17.55-2.53,2.77-6.73,11l-5.27,10.33V181.54l5.27,10.32c5.56,10.9,6.57,12.12,9.42,11.4a4.58,4.58,0,0,0,3.33-4c0-1.54-18.46-39-19.69-40A5.06,5.06,0,0,0,262.63,158.46ZM177.3,327.52l.14,50.73,1.15,2.32a15.56,15.56,0,0,0,7.77,7.85l3.45,1.7h71.87l2.19-1.45c3.36-2.22,4.16-4.49,4.17-11.81s-.81-8.88-4.37-8.88-4.39,1.74-4.39,8.23v5.4H233.2c-14.34,0-26.07-.06-26.06-.13s.34-1.06.75-2.2c1.17-3.24,1.15-86.57,0-87.54-2.27-1.87-3.47-5.14-3.73-10.08l-.26-4.86H177.16Z" transform="translate(-8.12 -16.53)"/><path class="cls-5" d="M144.66,275.08h32.5v99.13a16.25,16.25,0,0,1-16.25,16.25h0a16.24,16.24,0,0,1-16.25-16.25Z" transform="translate(-8.12 -16.53)"/><path class="cls-6" d="M177.16,274.73h32.5v99.14a16.25,16.25,0,0,1-16.25,16.25h0a16.26,16.26,0,0,1-16.25-16.25Z" transform="translate(-8.12 -16.53)"/><path class="cls-7" d="M144.66,208a4.65,4.65,0,0,1,4.64-4.65h0A4.65,4.65,0,0,1,154,208v67.12h-9.29Z" transform="translate(-8.12 -16.53)"/><path class="cls-7" d="M200.37,208a4.65,4.65,0,0,1,4.65-4.65h0a4.65,4.65,0,0,1,4.64,4.65v67.12h-9.29Z" transform="translate(-8.12 -16.53)"/></svg>