<svg id="Layer_1" data-name="Layer 1" xmlns="http://www.w3.org/2000/svg" viewBox="0 0 483.4 483.4"><circle cx="241.7" cy="241.7" r="241.7" fill="#d9d9d9" opacity="0.2" style="isolation:isolate"/><path d="M162.6,110.3a31.6,31.6,0,0,0-24.8,37.3,34.1,34.1,0,0,0,2.9,8.3c4.2,8.3,14.4,16.1,21.9,16.7l-10,.4c-9.3.3-11.7.6-14.5,1.5a28.3,28.3,0,0,0-18.4,18.6c-1.1,3.5-1.8,70.7-.7,75.6,1.6,7.4,9.7,11.7,16,8.5a8.2,8.2,0,0,1,1.9-.9c.1,0,.2,19.4.3,43.2l.2,43.2,1.5,2.8a15.9,15.9,0,0,0,21.6,6.4,15.7,15.7,0,0,0,3-2c2.5-2.3,5.1-6.5,5.1-8.3s.8.7,1.8,2.8a16,16,0,0,0,7.6,8l2.2,1.2h36.7c41.4.2,38.7.5,41.8-4,1.5-2.1,1.5-2.2,1.5-9s-.6-9.6-4.6-9.6-4.6,1.5-4.8,8l-.2,5.4h-51l.8-2.4c.6-2,.7-9.8.7-44.2V276.2l1.5.8c5.5,2.9,13,.2,15.6-5.6,1.3-2.9,1.5-71.6.2-77.2A28.2,28.2,0,0,0,200,174.5c-2.8-.9-5-1.2-14.4-1.4l-11.1-.2,3.1-.9a32.5,32.5,0,0,0,19.8-16.5c5.6-11.9,4-24.1-4.6-35.3l-1.1-1.4h58.8l.2,5.4c.2,4.9.3,5.5,1.4,6.7a4.8,4.8,0,0,0,6.6.1l1.5-1.3v-7c0-7.8-.9-10.1-4.9-12.3C253,109.2,168.2,109,162.6,110.3Zm134.8.2a8,8,0,0,0-4.7,4.8c-1.2,2.9-1.2,249.8,0,252.7,2.5,6,1.7,5.8,35.7,5.8,30.7,0,30.8,0,33.4-2.4s3.2,8.5,3.1-129.8.2-126.5-3.1-129.6-2.7-2.5-33.4-2.5c-27,0-29.1.1-31,1Zm27.1,22.9c-9,4.5-5.2,17.6,4.8,16.8s11.1-14.3,1.9-17.4A7.2,7.2,0,0,0,324.5,133.4Zm-71.7,8.9c-1.3,1-20.2,38.3-20.2,40a4.9,4.9,0,0,0,5.1,4.7,3.9,3.9,0,0,0,2.1-.6c.6-.3,3.2-4.8,5.9-10.2l4.9-9.6V316.8l-4.9-9.7c-2.7-5.3-5.3-9.9-5.9-10.2-3-1.6-7.2.7-7.2,3.9s18.6,38.9,20.1,40.2a4.7,4.7,0,0,0,5.7,0c1.4-1.2,20.1-38.5,20.1-40a4.8,4.8,0,0,0-5.1-4.6,4.6,4.6,0,0,0-2.2.6c-.5.3-3.1,4.8-5.8,10.2l-4.9,9.6V166.6l4.9,9.6c2.7,5.4,5.3,9.9,5.8,10.2,3,1.6,7.3-.7,7.3-3.9s-18.8-39.2-20.2-40.2a5.4,5.4,0,0,0-5.5,0Z" fill="#f3d35b" stroke="#f3d35b" fill-rule="evenodd"/><path d="M175.5,110.4a35.2,35.2,0,0,1,13.4,6.3l2.5,2.1h59.8v5.4c0,6.4.8,8,4.4,8s4.3-1.4,4.3-9.2-.3-8.5-2.9-11-2.1-2.5-44.7-2.4C175.2,109.6,172.2,109.6,175.5,110.4Zm77.8,31.8c-1.9.9-20.9,39.2-20.5,41.2a4.6,4.6,0,0,0,5.5,3.3,3.5,3.5,0,0,0,1.4-.6c.6-.4,2.3-3,3.7-5.8l5.1-9.9,2.6-4.9V317.8L246,307.7c-5.3-10.4-6-11.3-9-11.3a5.1,5.1,0,0,0-4.1,3.6c-.4,1.8,18.6,40.4,20.3,41.3a5.7,5.7,0,0,0,4.8,0c1.7-.9,20.7-39.5,20.3-41.3s-4.8-4.6-7.2-2.8c-.5.4-3.3,5.2-6,10.7l-5,9.9V165.5l5,10a114.6,114.6,0,0,0,6,10.7c2.4,1.8,6.5.1,7.2-2.9s-18.7-40.3-20.6-41.2a4.6,4.6,0,0,0-4.4.1Zm38.6,26.7v4.7l10-.2c11.6-.2,12.7-.6,12.7-4.6s-1-4.6-12.6-4.6H291.9Zm51.6-3.2c-2.3,2.4-1.9,5.5,1.1,7,1.2.7,3.5.8,10.8.8h9.3v-9.3H345Zm-204,8.7a27.3,27.3,0,0,0-19.7,19.8c-1,4.1-1.2,72.6-.3,76,1.7,6,10,9.5,15.6,6.7l1.9-1,.2,42.9v42.9l1.2,2.6c6.2,13.4,25.5,12.1,29.7-2l.7-2.5.6,2.2A17.2,17.2,0,0,0,180,373c3,1,71.5,1.3,74,.3,4.6-1.7,5.9-4.6,5.9-12.9s-.7-9.2-4.4-9.2-4.4,1.5-4.4,8v5.4H225.3c-24.4,0-25.9,0-25.5-.9,1.1-2.9,1.3-9.5,1.3-46.7,0-22.4.1-40.7.2-40.7l2.1.8a11.3,11.3,0,0,0,14.2-5.2l1.3-2.5V232.9c0-33.9-.1-36.6-1-39.5-3-9.7-11-17.3-20.3-19.3C193.2,173.2,143.3,173.4,139.5,174.4Zm152.4,17.2v4.6h5c6.9,0,9.7-1.8,8.7-5.8s-2.4-3.4-8.3-3.4h-5.4Zm61.7-4a4.4,4.4,0,0,0-1.9,5.9,4.1,4.1,0,0,0,1.2,1.4c1.5,1.3,2,1.4,6.7,1.4h5.1V187h-5c-2.8,0-5.5.2-6.1.6Zm-61.7,26.7V219h9.6c11.6,0,13.1-.5,13.1-4.7s-1.5-4.6-13.1-4.6h-9.6Zm51.6-3.1a4,4,0,0,0-.6,5.6l.6.7L345,219h19.7v-9.3H345Zm-51.6,25.9v4.6h5.4c5.9,0,7.6-.7,8.3-3.4s-1.8-5.9-8.7-5.9h-5Zm61-3.2c-2,2-2.1,4.5-.2,6.4s1.7,1.4,6.7,1.4h5.4v-9.3h-5.2C354.5,232.4,354.3,232.5,352.9,233.9ZM292,259.7v4.7h10.1c11.6,0,12.6-.4,12.6-4.5s-1.1-4.5-12.7-4.7l-10-.2Zm52.5-3.8a4.4,4.4,0,0,0-1.1,6.9l1.3,1.6h20v-9.3h-9.4c-7.4,0-9.7.2-10.8.8Zm-52.1,22.2a15,15,0,0,0-.4,4.7v4.3h5.6c5.1,0,5.7-.1,6.7-1.2s2-4.1.2-6.1-1.6-1.7-6.6-1.9a23.6,23.6,0,0,0-5.6.2Zm61.7.5a4.4,4.4,0,0,0-2.5,5.7,5.6,5.6,0,0,0,1,1.5c1.2,1.2,1.7,1.3,6.7,1.3h5.5v-9.3h-4.5a18.6,18.6,0,0,0-6.2.8Zm-62,27,.2,4.5h20l1.2-1.5a4.5,4.5,0,0,0,0-6.3c-1.2-1.2-1.3-1.3-11.4-1.3H291.9Zm51.6-3.5a4.6,4.6,0,0,0-1.1,5.2c1.1,2.6,2.9,3,13.2,3h9V301h-10c-9.3,0-10.1.1-11.1,1.1Zm-51.8,26.4v4.6h5c6.9,0,9.7-1.9,8.7-5.8s-2.4-3.5-8.3-3.5h-5.4Zm60.7-3.4a4.5,4.5,0,0,0,0,6.3c1.2,1.4,1.4,1.5,6.7,1.6l5.5.2v-9.4h-5.5c-5.1,0-5.5.1-6.7,1.2Zm-60.7,26.1v4.6h9.8c9.8,0,9.8,0,11.4-1.3a4.5,4.5,0,0,0,.6-6.3l-.3-.4c-1.3-1.2-1.3-1.3-11.4-1.3H291.9Zm51.6-3.2a4.1,4.1,0,0,0-.5,5.8l.3.3,1.2,1.5h10.1l10.1.2v-9.4H345Z" fill="#f39c1c" stroke="#f29c1f" fill-rule="evenodd"/><path d="M176.8,110.3a37,37,0,0,1,12.2,6.2l2.2,1.8h60v5.4c0,6.5.9,8.2,4.4,8.2s4.4-1.6,4.3-8.8-.8-9.6-4.1-11.9l-2.2-1.4H213.8C178,109.6,174.3,109.6,176.8,110.3Zm77.7,31.6a5.6,5.6,0,0,0-2,1.1c-1.7,1.5-19.4,37.5-19.4,39.6a4.1,4.1,0,0,0,4.1,4.2,4.5,4.5,0,0,0,1.9-.5c1.2-.5,2.5-2.7,6.7-11l5.3-10.3V318.4L245.9,308c-4.2-8.2-5.6-10.4-6.7-11a4.2,4.2,0,0,0-5.6,2,2.8,2.8,0,0,0-.4,1.5c0,2.1,18.6,39.4,20.2,40.5a3.6,3.6,0,0,0,4.7-.2c2-1.6,20-37.5,20-40a4.1,4.1,0,0,0-4.1-4.2,4.1,4.1,0,0,0-1.9.4c-1.2.6-2.6,2.8-6.8,11l-5.2,10.3V165l5.2,10.3c5.6,10.9,6.6,12.1,9.4,11.4a4.6,4.6,0,0,0,3.4-4c0-1.5-18.5-39-19.7-40a5.3,5.3,0,0,0-3.9-.8ZM169.2,311v50.7l1.2,2.3a15.6,15.6,0,0,0,7.7,7.9l3.5,1.7h71.9l2.1-1.5c3.4-2.2,4.2-4.4,4.2-11.8s-.8-8.8-4.3-8.8-4.4,1.7-4.4,8.2v5.4H199c0-.1.4-1.1.8-2.3,1.1-3.2,1.1-86.5,0-87.5s-3.5-5.1-3.8-10.1l-.2-4.8H169Z" fill="#cf4332" stroke="#cf4332" fill-rule="evenodd"/><path d="M136.5,258.5H169v99.2a16.1,16.1,0,0,1-16.2,16.2h0a16.2,16.2,0,0,1-16.3-16.2h0Z" fill="#3b97d3"/><path d="M169,258.2h32.5v99.1a16.2,16.2,0,0,1-16.2,16.3h0A16.3,16.3,0,0,1,169,357.3Z" fill="#2980ba"/><path d="M136.5,191.5a4.7,4.7,0,0,1,4.7-4.7h0a4.7,4.7,0,0,1,4.7,4.6h0v67.1h-9.3Z" fill="#e57e25"/><path d="M192.2,191.5a4.7,4.7,0,0,1,4.7-4.7h0a4.6,4.6,0,0,1,4.6,4.7v67.1h-9.3Z" fill="#e57e25"/></svg>