<svg width="41" height="49" viewBox="0 0 41 49" fill="none" xmlns="http://www.w3.org/2000/svg">
<path d="M34.9049 27.5477H30.9225V14.3931C30.9225 8.65244 26.2474 3.97869 20.4986 3.97869C14.7498 3.97869 10.0775 8.64958 10.0775 14.3931V27.5477H6.09521V14.3931C6.09521 6.45572 12.5568 0 20.5015 0C28.4461 0 34.9077 6.45572 34.9077 14.3931V27.5477H34.9049Z" fill="#2E3192"/>
<path d="M41 47.4583C41 48.3107 40.31 49 39.4569 49H1.54312C0.689966 49 0 48.3107 0 47.4583V22.8482C0 21.9958 0.689966 21.3065 1.54312 21.3065H39.4569C40.31 21.3065 41 21.9958 41 22.8482V47.4583Z" fill="#2E3192"/>
<path d="M41 47.4583V32.3787C28.5119 42.9361 10.5013 46.9034 0.294922 48.3593C0.575489 48.7454 1.02783 49 1.54316 49H39.4569C40.3101 49 41 48.3107 41 47.4583Z" fill="#3B3E95"/>
<path d="M23.8884 30.9829C23.8884 29.1123 22.3711 27.5992 20.5016 27.5992C18.6292 27.5992 17.1147 29.1151 17.1147 30.9829C17.1147 32.0984 17.6558 33.0824 18.489 33.7002L17.4096 41.3544H23.5964L22.5171 33.7002C23.3473 33.0824 23.8884 32.0956 23.8884 30.9829Z" fill="#8E90DE"/>
<path d="M1.29395 24.224V29.5241C1.43423 27.2731 2.51928 22.3762 9.29869 22.3762H3.1434C2.12419 22.3762 1.29395 23.2057 1.29395 24.224Z" fill="#3B3E95"/>
<path d="M17.4067 41.3544C17.4067 41.3544 21.9989 40.0587 22.5142 33.7002L23.5935 41.3544H17.4067Z" fill="#4E51AF"/>
</svg>
