<svg id="Слой_1" data-name="Слой 1" xmlns="http://www.w3.org/2000/svg" xmlns:xlink="http://www.w3.org/1999/xlink" viewBox="0 0 876.62 272.47"><defs><style>.cls-1{fill:url(#linear-gradient);}.cls-2{fill:url(#linear-gradient-2);}.cls-3{fill:url(#linear-gradient-3);}.cls-4{fill:#fdfefe;}</style><linearGradient id="linear-gradient" x1="742.79" y1="261.58" x2="993.1" y2="427.92" gradientUnits="userSpaceOnUse"><stop offset="0" stop-color="#2e3192"/><stop offset="1" stop-color="#1ac1b0"/></linearGradient><linearGradient id="linear-gradient-2" x1="678.41" y1="250" x2="893.14" y2="250" xlink:href="#linear-gradient"/><linearGradient id="linear-gradient-3" x1="842.38" y1="198.44" x2="842.38" y2="198.44" xlink:href="#linear-gradient"/></defs><path class="cls-1" d="M749,260.33a26.59,26.59,0,0,0-7.29,18.41,26.94,26.94,0,0,0,52.72,7.82,26.52,26.52,0,0,0,1.16-7.82A26.93,26.93,0,0,0,749,260.33Z" transform="translate(-16.52 -113.76)"/><path class="cls-2" d="M768.62,323.91a45,45,0,0,1-33.82-15.28h0a45.14,45.14,0,0,1,33.82-75,44.32,44.32,0,0,1,19,4.22h0c21.88-14.68,37.42-34.48,44.48-53.68,8.28-22.34,5.11-43.78-12.77-55.23l-.13-.1a135.93,135.93,0,0,0-62.3-15H678.41V252.67h0V386.24h78.53A135.42,135.42,0,0,0,841.27,357h0a136.55,136.55,0,0,0,49.13-79.68A137.8,137.8,0,0,0,893.14,250a135.73,135.73,0,0,0-18.37-68.39h0a134.33,134.33,0,0,0-8.85-13.36c0,9.6-1.45,26.69-15.93,48.9-8.35,12.77-21,27.25-40.22,43a44.43,44.43,0,0,1,4,18.58,45.17,45.17,0,0,1-45.17,45.17M708.11,198.44v.29h0Z" transform="translate(-16.52 -113.76)"/><path class="cls-3" d="M842.38,198.44" transform="translate(-16.52 -113.76)"/><path class="cls-4" d="M135.74,236c-10.45,0-18.48,3-23.88,8.89-5.19,5.66-7.82,13.85-7.82,24.34,0,21.9,10.36,33,30.79,33,21.07,0,31.74-11.09,31.74-33C166.57,247.14,156.2,236,135.74,236Zm15.4,46.3c-2.54,5.49-7.65,8.15-15.63,8.15-12.22,0-18.16-7-18.16-21.4s6-21.37,18.3-21.37c6.94,0,11.68,2.18,14.49,6.65,2.07,3.27,3.12,8.39,3.12,15.21C153.26,274.91,152.55,279.2,151.14,282.25Z" transform="translate(-16.52 -113.76)"/><polygon class="cls-4" points="213.52 123.99 197.54 123.99 169.74 152.17 169.74 123.99 157.06 123.99 157.06 188.42 169.74 188.42 169.74 159.15 198.12 188.42 215.31 188.42 182.74 155.18 213.52 123.99"/><polygon class="cls-4" points="264.65 169.8 235.45 123.99 221.52 123.99 221.52 188.42 233.93 188.42 233.93 142.7 263.47 188.42 277.06 188.42 277.06 123.99 264.65 123.99 264.65 169.8"/><path class="cls-4" d="M311.71,240.16a16.52,16.52,0,0,0-5,3.52,15.55,15.55,0,0,0-3,6.34c-.89,3.24-1.31,9.55-1.31,19.29,0,12.72,0,14.22.1,14.59a26.58,26.58,0,0,0,2.9,10.08c2,3.83,4.56,6.33,7.63,7.44a15.9,15.9,0,0,0,4.47.76c.57,0,1.3.05,2.19.05s1.89,0,3.08-.05h28.35v-11.6H329.91c-6.73,0-8.17-.05-8.42-.07-2.76-.39-4.61-1.56-5.66-3.58a11.91,11.91,0,0,1-1.05-2.78,43.07,43.07,0,0,1-.48-8.63h36.83V263.9l-1.39,0c-5.65-.09-11.61-.13-17.71-.13-5.64,0-11.58.05-17.68.15.06-3.2.07-5.42,0-6.74a14.72,14.72,0,0,1,1-3.82,9.27,9.27,0,0,1,2.66-2.61c1.29-.64,4.63-1.37,13.23-1.37h19.83v-11.6H331C321.1,237.75,314.79,238.54,311.71,240.16Z" transform="translate(-16.52 -113.76)"/><polygon class="cls-4" points="340.32 123.99 340.32 135.63 361.67 135.63 361.67 188.42 374.34 188.42 374.34 135.63 395.69 135.63 395.69 123.99 340.32 123.99"/><path class="cls-4" d="M43.57,254A10.2,10.2,0,0,0,40.78,261,10.33,10.33,0,0,0,61,264a10.1,10.1,0,0,0,.44-3A10.33,10.33,0,0,0,43.57,254Z" transform="translate(-16.52 -113.76)"/><path class="cls-4" d="M51.1,278.33a17.27,17.27,0,0,1-13-5.85h0a17.3,17.3,0,0,1,13-28.77,17,17,0,0,1,7.29,1.62h0c8.38-5.63,14.34-13.22,17.05-20.58,3.17-8.56,2-16.78-4.9-21.17l0,0a52.1,52.1,0,0,0-23.88-5.77H16.52V251h0v51.21h30.1A51.93,51.93,0,0,0,79,291h0a50.79,50.79,0,0,0,4.59-4.09,52.27,52.27,0,0,0,8.25-63.14h0a49.85,49.85,0,0,0-3.39-5.12c0,3.68-.56,10.23-6.11,18.74-3.2,4.9-8.06,10.45-15.42,16.5A16.92,16.92,0,0,1,68.42,261,17.32,17.32,0,0,1,51.1,278.33M27.9,230.24v.1h0Z" transform="translate(-16.52 -113.76)"/><path class="cls-4" d="M79.38,230.24" transform="translate(-16.52 -113.76)"/></svg>