<svg width="26" height="20" viewBox="0 0 26 20" fill="none" xmlns="http://www.w3.org/2000/svg">
<circle cx="17.4062" cy="4.73322" r="3.875" fill="white"/>
<circle cx="7.21875" cy="5.67938" r="3.875" fill="white"/>
<path d="M18.7812 12.4207H15.7188L12.7188 13.9207L10.9062 15.1082L10.5312 16.7332L10.9062 18.5457H18.2812L24.2188 18.1082L23.9062 15.4207L21.4062 13.2332L18.7812 12.4207Z" fill="white"/>
<path d="M4.96875 18.1082L6.40625 18.5457L6.71875 17.6707L8.21875 14.4832L8.53125 12.0457H7.34375L4.53125 12.4207L2.03125 14.4832L0.96875 16.4207V18.5457L4.96875 18.1082Z" fill="white"/>
<path d="M23.6133 19.1082C23.6133 19.1082 25.1875 19.1082 25.1875 17.5159C25.1875 15.9236 23.6133 11.1467 17.3164 11.1467C11.0195 11.1467 9.44531 15.9236 9.44531 17.5159C9.44531 19.1082 11.0195 19.1082 11.0195 19.1082H23.6133ZM11.0542 17.5159C11.0425 17.5143 11.031 17.5122 11.0195 17.5096C11.0211 17.0892 11.2824 15.8695 12.2159 14.7708C13.0849 13.7406 14.6119 12.739 17.3164 12.739C20.0193 12.739 21.5463 13.7422 22.4169 14.7708C23.3504 15.8695 23.6101 17.0908 23.6133 17.5096L23.6007 17.5127C23.5934 17.514 23.586 17.5151 23.5786 17.5159H11.0542ZM17.3164 7.96205C18.1514 7.96205 18.9522 7.62653 19.5427 7.0293C20.1331 6.43207 20.4648 5.62204 20.4648 4.77743C20.4648 3.93281 20.1331 3.12279 19.5427 2.52556C18.9522 1.92832 18.1514 1.5928 17.3164 1.5928C16.4814 1.5928 15.6806 1.92832 15.0901 2.52556C14.4997 3.12279 14.168 3.93281 14.168 4.77743C14.168 5.62204 14.4997 6.43207 15.0901 7.0293C15.6806 7.62653 16.4814 7.96205 17.3164 7.96205ZM22.0391 4.77743C22.0391 5.40474 21.9169 6.02592 21.6796 6.60548C21.4422 7.18505 21.0944 7.71165 20.6558 8.15523C20.2173 8.59881 19.6967 8.95068 19.1237 9.19074C18.5507 9.43081 17.9366 9.55437 17.3164 9.55437C16.6962 9.55437 16.0821 9.43081 15.5091 9.19074C14.9361 8.95068 14.4155 8.59881 13.977 8.15523C13.5384 7.71165 13.1906 7.18505 12.9532 6.60548C12.7159 6.02592 12.5938 5.40474 12.5938 4.77743C12.5938 3.5105 13.0913 2.29547 13.977 1.39962C14.8627 0.503772 16.0639 0.000488281 17.3164 0.000488281C18.5689 0.000488281 19.7702 0.503772 20.6558 1.39962C21.5415 2.29547 22.0391 3.5105 22.0391 4.77743ZM10.9188 11.5925C10.2891 11.392 9.63994 11.2601 8.98249 11.1992C8.61307 11.1637 8.24218 11.1462 7.87109 11.1467C1.57422 11.1467 0 15.9236 0 17.5159C0 18.578 0.524215 19.1082 1.57422 19.1082H8.21113C7.97776 18.6112 7.86137 18.0661 7.87109 17.5159C7.87109 15.9077 8.46457 14.2644 9.58699 12.8919C9.96953 12.4237 10.415 11.9858 10.9188 11.5925ZM7.74516 12.739C6.81346 14.155 6.31016 15.8151 6.29688 17.5159H1.57422C1.57422 17.1019 1.83239 15.8759 2.77062 14.7708C3.62857 13.7581 5.11936 12.7708 7.74516 12.7406V12.739ZM2.36133 5.57358C2.36133 4.30666 2.85889 3.09163 3.74456 2.19578C4.63023 1.29993 5.83146 0.796645 7.08398 0.796645C8.33651 0.796645 9.53774 1.29993 10.4234 2.19578C11.3091 3.09163 11.8066 4.30666 11.8066 5.57358C11.8066 6.84051 11.3091 8.05554 10.4234 8.95139C9.53774 9.84724 8.33651 10.3505 7.08398 10.3505C5.83146 10.3505 4.63023 9.84724 3.74456 8.95139C2.85889 8.05554 2.36133 6.84051 2.36133 5.57358ZM7.08398 2.38896C6.24897 2.38896 5.44815 2.72448 4.8577 3.32171C4.26726 3.91895 3.93555 4.72897 3.93555 5.57358C3.93555 6.4182 4.26726 7.22822 4.8577 7.82546C5.44815 8.42269 6.24897 8.75821 7.08398 8.75821C7.919 8.75821 8.71982 8.42269 9.31027 7.82546C9.90071 7.22822 10.2324 6.4182 10.2324 5.57358C10.2324 4.72897 9.90071 3.91895 9.31027 3.32171C8.71982 2.72448 7.919 2.38896 7.08398 2.38896Z" fill="white"/>
</svg>
