<svg width="12" height="12" viewBox="0 0 12 12" fill="none" xmlns="http://www.w3.org/2000/svg">
<path d="M6.25 11.6255C6.02232 11.6255 5.83161 11.5483 5.67786 11.3941C5.52357 11.2403 5.44643 11.0496 5.44643 10.8219V6.80406H1.42857C1.20089 6.80406 1.00991 6.72692 0.855625 6.57263C0.701875 6.41888 0.625 6.22817 0.625 6.00049C0.625 5.77281 0.701875 5.58183 0.855625 5.42754C1.00991 5.27379 1.20089 5.19692 1.42857 5.19692H5.44643V1.17906C5.44643 0.951381 5.52357 0.760399 5.67786 0.606113C5.83161 0.452363 6.02232 0.375488 6.25 0.375488C6.47768 0.375488 6.66866 0.452363 6.82295 0.606113C6.9767 0.760399 7.05357 0.951381 7.05357 1.17906V5.19692H11.0714C11.2991 5.19692 11.4898 5.27379 11.6436 5.42754C11.7979 5.58183 11.875 5.77281 11.875 6.00049C11.875 6.22817 11.7979 6.41888 11.6436 6.57263C11.4898 6.72692 11.2991 6.80406 11.0714 6.80406H7.05357V10.8219C7.05357 11.0496 6.9767 11.2403 6.82295 11.3941C6.66866 11.5483 6.47768 11.6255 6.25 11.6255Z" fill="white"/>
</svg>
