<svg width="46" height="46" viewBox="0 0 46 46" fill="none" xmlns="http://www.w3.org/2000/svg">
<g filter="url(#filter0_d_628_8)">
<circle cx="23.25" cy="19.0005" r="12.5" fill="url(#paint0_linear_628_8)"/>
</g>
<path d="M23.25 24.6255C23.0223 24.6255 22.8316 24.5483 22.6779 24.3941C22.5236 24.2403 22.4464 24.0496 22.4464 23.8219V19.8041H18.4286C18.2009 19.8041 18.0099 19.7269 17.8556 19.5726C17.7019 19.4189 17.625 19.2282 17.625 19.0005C17.625 18.7728 17.7019 18.5818 17.8556 18.4275C18.0099 18.2738 18.2009 18.1969 18.4286 18.1969H22.4464V14.1791C22.4464 13.9514 22.5236 13.7604 22.6779 13.6061C22.8316 13.4524 23.0223 13.3755 23.25 13.3755C23.4777 13.3755 23.6687 13.4524 23.8229 13.6061C23.9767 13.7604 24.0536 13.9514 24.0536 14.1791V18.1969H28.0714C28.2991 18.1969 28.4898 18.2738 28.6436 18.4275C28.7979 18.5818 28.875 18.7728 28.875 19.0005C28.875 19.2282 28.7979 19.4189 28.6436 19.5726C28.4898 19.7269 28.2991 19.8041 28.0714 19.8041H24.0536V23.8219C24.0536 24.0496 23.9767 24.2403 23.8229 24.3941C23.6687 24.5483 23.4777 24.6255 23.25 24.6255Z" fill="white"/>
<defs>
<filter id="filter0_d_628_8" x="0.75" y="0.500488" width="45" height="45" filterUnits="userSpaceOnUse" color-interpolation-filters="sRGB">
<feFlood flood-opacity="0" result="BackgroundImageFix"/>
<feColorMatrix in="SourceAlpha" type="matrix" values="0 0 0 0 0 0 0 0 0 0 0 0 0 0 0 0 0 0 127 0" result="hardAlpha"/>
<feOffset dy="4"/>
<feGaussianBlur stdDeviation="5"/>
<feComposite in2="hardAlpha" operator="out"/>
<feColorMatrix type="matrix" values="0 0 0 0 0.757083 0 0 0 0 0.891493 0 0 0 0 0.9875 0 0 0 0.5 0"/>
<feBlend mode="normal" in2="BackgroundImageFix" result="effect1_dropShadow_628_8"/>
<feBlend mode="normal" in="SourceGraphic" in2="effect1_dropShadow_628_8" result="shape"/>
</filter>
<linearGradient id="paint0_linear_628_8" x1="21.6781" y1="0.389373" x2="37.5379" y2="1.54195" gradientUnits="userSpaceOnUse">
<stop stop-color="#2E3192"/>
<stop offset="1" stop-color="#1AC1B0"/>
</linearGradient>
</defs>
</svg>
