<svg width="22" height="22" viewBox="0 0 22 22" fill="none" xmlns="http://www.w3.org/2000/svg">
<path d="M11.0002 0.333832C12.4147 0.333832 13.7712 0.895735 14.7714 1.89593C15.7716 2.89612 16.3335 4.25268 16.3335 5.66717C16.3335 7.08165 15.7716 8.43821 14.7714 9.4384C13.7712 10.4386 12.4147 11.0005 11.0002 11.0005C9.58568 11.0005 8.22912 10.4386 7.22893 9.4384C6.22873 8.43821 5.66683 7.08165 5.66683 5.66717C5.66683 4.25268 6.22873 2.89612 7.22893 1.89593C8.22912 0.895735 9.58568 0.333832 11.0002 0.333832ZM11.0002 3.0005C10.2929 3.0005 9.61464 3.28145 9.11455 3.78155C8.61445 4.28164 8.3335 4.95992 8.3335 5.66717C8.3335 6.37441 8.61445 7.05269 9.11455 7.55278C9.61464 8.05288 10.2929 8.33383 11.0002 8.33383C11.7074 8.33383 12.3857 8.05288 12.8858 7.55278C13.3859 7.05269 13.6668 6.37441 13.6668 5.66717C13.6668 4.95992 13.3859 4.28164 12.8858 3.78155C12.3857 3.28145 11.7074 3.0005 11.0002 3.0005ZM11.0002 12.3338C14.5602 12.3338 21.6668 14.1072 21.6668 17.6672V21.6672H0.333496V17.6672C0.333496 14.1072 7.44016 12.3338 11.0002 12.3338ZM11.0002 14.8672C7.04016 14.8672 2.86683 16.8138 2.86683 17.6672V19.1338H19.1335V17.6672C19.1335 16.8138 14.9602 14.8672 11.0002 14.8672Z" fill="white"/>
</svg>
