<svg width="23" height="25" viewBox="0 0 23 25" fill="none" xmlns="http://www.w3.org/2000/svg">
<path d="M22.1075 15.426L20.4248 13.9874C20.5045 13.4993 20.5456 13.0009 20.5456 12.5026C20.5456 12.0042 20.5045 11.5058 20.4248 11.0177L22.1075 9.5791C22.2344 9.47045 22.3252 9.32574 22.3679 9.16422C22.4106 9.00269 22.4031 8.832 22.3464 8.67484L22.3233 8.60805C21.86 7.31337 21.1664 6.11318 20.2758 5.06548L20.2296 5.01153C20.1215 4.88451 19.9776 4.79319 19.8166 4.74962C19.6556 4.70606 19.4852 4.71229 19.3279 4.76748L17.2393 5.50991C16.4687 4.87795 15.6081 4.37958 14.6781 4.0302L14.2748 1.8466C14.2444 1.6823 14.1647 1.53114 14.0463 1.41322C13.9279 1.29529 13.7764 1.21618 13.612 1.18639L13.5426 1.17354C12.2042 0.932062 10.7964 0.932062 9.45803 1.17354L9.38867 1.18639C9.22425 1.21618 9.07278 1.29529 8.9544 1.41322C8.83601 1.53114 8.75631 1.6823 8.72588 1.8466L8.31999 4.04048C7.39746 4.38992 6.53835 4.88803 5.77674 5.51505L3.67278 4.76748C3.51548 4.71185 3.34496 4.7054 3.1839 4.74899C3.02284 4.79258 2.87886 4.88415 2.77109 5.01153L2.72485 5.06548C1.83534 6.11393 1.14181 7.31391 0.677404 8.60805L0.654284 8.67484C0.538682 8.99595 0.633732 9.35561 0.893195 9.5791L2.5964 11.0331C2.51676 11.5161 2.47823 12.0093 2.47823 12.5C2.47823 12.9932 2.51676 13.4865 2.5964 13.9668L0.893195 15.4209C0.766278 15.5295 0.675443 15.6742 0.632766 15.8358C0.59009 15.9973 0.597595 16.168 0.654284 16.3251L0.677404 16.3919C1.14238 17.6867 1.83086 18.8812 2.72485 19.9345L2.77109 19.9884C2.87912 20.1155 3.02311 20.2068 3.18408 20.2503C3.34504 20.2939 3.51543 20.2877 3.67278 20.2325L5.77674 19.4849C6.54229 20.1143 7.39774 20.6127 8.31999 20.9595L8.72588 23.1534C8.75631 23.3177 8.83601 23.4688 8.9544 23.5868C9.07278 23.7047 9.22425 23.7838 9.38867 23.8136L9.45803 23.8264C10.8087 24.0692 12.1919 24.0692 13.5426 23.8264L13.612 23.8136C13.7764 23.7838 13.9279 23.7047 14.0463 23.5868C14.1647 23.4688 14.2444 23.3177 14.2748 23.1534L14.6781 20.9698C15.6077 20.6213 16.4731 20.1213 17.2393 19.4901L19.3279 20.2325C19.4852 20.2881 19.6557 20.2946 19.8168 20.251C19.9778 20.2074 20.1218 20.1158 20.2296 19.9884L20.2758 19.9345C21.1698 18.8787 21.8583 17.6867 22.3233 16.3919L22.3464 16.3251C22.462 16.0092 22.3669 15.6495 22.1075 15.426ZM18.6009 11.3208C18.6651 11.7088 18.6985 12.1069 18.6985 12.5051C18.6985 12.9033 18.6651 13.3015 18.6009 13.6894L18.4313 14.7195L20.3503 16.3611C20.0594 17.0313 19.6922 17.6657 19.256 18.2518L16.872 17.4067L16.0653 18.0694C15.4514 18.573 14.768 18.9686 14.0282 19.246L13.0494 19.6134L12.5896 22.1052C11.864 22.1874 11.1315 22.1874 10.406 22.1052L9.94613 19.6082L8.97507 19.2357C8.24292 18.9583 7.56216 18.5627 6.95332 18.0617L6.14667 17.3964L3.74728 18.2493C3.31056 17.661 2.94578 17.0265 2.65292 16.3585L4.59246 14.7016L4.42548 13.674C4.36383 13.2912 4.33043 12.8956 4.33043 12.5051C4.33043 12.1121 4.36126 11.719 4.42548 11.3363L4.59246 10.3087L2.65292 8.65172C2.94321 7.98123 3.31056 7.34927 3.74728 6.76098L6.14667 7.61387L6.95332 6.94851C7.56216 6.44757 8.24292 6.05195 8.97507 5.77451L9.9487 5.40715L10.4085 2.91014C11.1304 2.82794 11.8677 2.82794 12.5921 2.91014L13.052 5.40201L14.0307 5.76937C14.768 6.04682 15.4539 6.44243 16.0679 6.94594L16.8746 7.60873L19.2585 6.76355C19.6952 7.35184 20.06 7.98636 20.3529 8.65429L18.4339 10.2958L18.6009 11.3208ZM11.5029 7.7269C9.0059 7.7269 6.98158 9.75122 6.98158 12.2482C6.98158 14.7452 9.0059 16.7696 11.5029 16.7696C13.9999 16.7696 16.0242 14.7452 16.0242 12.2482C16.0242 9.75122 13.9999 7.7269 11.5029 7.7269ZM13.5375 14.2828C13.2706 14.5505 12.9535 14.7627 12.6043 14.9073C12.2552 15.0519 11.8808 15.126 11.5029 15.1254C10.7348 15.1254 10.0129 14.8249 9.46831 14.2828C9.20068 14.016 8.98846 13.6988 8.84386 13.3497C8.69925 13.0005 8.62511 12.6262 8.6257 12.2482C8.6257 11.4801 8.92626 10.7582 9.46831 10.2136C10.0129 9.66902 10.7348 9.37102 11.5029 9.37102C12.271 9.37102 12.9929 9.66902 13.5375 10.2136C13.8051 10.4805 14.0173 10.7976 14.162 11.1468C14.3066 11.496 14.3807 11.8703 14.3801 12.2482C14.3801 13.0163 14.0795 13.7382 13.5375 14.2828Z" fill="white"/>
</svg>
