<svg width="19" height="25" viewBox="0 0 19 25" fill="none" xmlns="http://www.w3.org/2000/svg">
<mask id="path-1-outside-1_588_2993" maskUnits="userSpaceOnUse" x="-0.25" y="-0.510529" width="19" height="26" fill="black">
<rect fill="white" x="-0.25" y="-0.510529" width="19" height="26"/>
<path d="M18.2473 4.78311C18.2492 4.80104 18.25 4.81914 18.25 4.8374V23.9681C18.25 24.2682 18.0067 24.5115 17.7066 24.5115H1.29342C0.993306 24.5115 0.75 24.2682 0.75 23.9681V1.03289C0.75 0.732778 0.993306 0.489471 1.29342 0.489471H13.9025C13.9206 0.489471 13.9387 0.490477 13.9568 0.492152C13.97 0.493493 13.9829 0.495671 13.9957 0.498017C14.0004 0.498688 14.005 0.49919 14.0096 0.500028C14.0252 0.503212 14.0402 0.507233 14.0553 0.51159C14.0572 0.512093 14.059 0.512428 14.0608 0.512931C14.0761 0.517623 14.0912 0.523152 14.1058 0.529017C14.1074 0.529855 14.1091 0.53019 14.1108 0.53086C14.1247 0.536725 14.1381 0.54326 14.1513 0.55013C14.1538 0.551303 14.1565 0.552476 14.159 0.553817C14.1709 0.560184 14.1823 0.567222 14.1936 0.574427C14.1972 0.576773 14.2011 0.578952 14.2048 0.581298C14.2148 0.588 14.2246 0.595541 14.2341 0.603081C14.2385 0.606432 14.2432 0.609449 14.2475 0.613135C14.2574 0.621346 14.2668 0.630059 14.2762 0.63894C14.2795 0.642291 14.2834 0.64514 14.2867 0.648658L18.0912 4.45309C18.0945 4.45644 18.0975 4.46029 18.1009 4.46365C18.1098 4.47303 18.1185 4.48241 18.1267 4.4923C18.1304 4.49666 18.1334 4.50135 18.1367 4.5057C18.1443 4.51542 18.1518 4.52497 18.1585 4.5352C18.161 4.53871 18.163 4.54257 18.1654 4.54626C18.1726 4.55765 18.1796 4.56904 18.186 4.58094C18.1873 4.58345 18.1885 4.58613 18.1897 4.58865C18.1966 4.60189 18.2031 4.61529 18.209 4.62903C18.2096 4.63071 18.2101 4.63238 18.2108 4.63406C18.2167 4.64881 18.2222 4.66372 18.2269 4.67897C18.2274 4.68081 18.2277 4.68265 18.2282 4.6845C18.2326 4.69958 18.2366 4.71483 18.2398 4.73041C18.2406 4.73493 18.2411 4.73963 18.2418 4.74415C18.2441 4.75705 18.2463 4.76996 18.2477 4.78319L18.2473 4.78311ZM14.4456 2.34503V4.29383H16.3944L14.4456 2.34503ZM1.83651 23.4245H17.1631V5.38084H13.9023C13.6022 5.38084 13.3587 5.13753 13.3587 4.83742V1.57641H1.8366L1.83651 23.4245ZM4.9053 18.9864C4.56213 18.9864 4.31715 18.7413 4.31715 18.3981C4.31715 18.0549 4.56213 17.7853 4.9053 17.7853H8.48418C8.82736 17.7853 9.07251 18.0549 9.07251 18.3981C9.07251 18.7412 8.82736 18.9864 8.48418 18.9864H4.9053ZM4.9053 21.3886C4.56213 21.3886 4.31715 21.1435 4.31715 20.8003C4.31715 20.4571 4.56213 20.1875 4.9053 20.1875H8.48418C8.82736 20.1875 9.07251 20.4571 9.07251 20.8003C9.07251 21.1435 8.82736 21.3886 8.48418 21.3886H4.9053ZM10.4304 18.9864C10.0872 18.9864 9.84208 18.7413 9.84208 18.3981C9.84208 18.0549 10.0872 17.7853 10.4304 17.7853H14.0093C14.3525 17.7853 14.5976 18.0549 14.5976 18.3981C14.5976 18.7412 14.3525 18.9864 14.0093 18.9864H10.4304ZM10.4304 21.3886C10.0872 21.3886 9.84208 21.1435 9.84208 20.8003C9.84208 20.4571 10.0872 20.1875 10.4304 20.1875H14.0093C14.3525 20.1875 14.5976 20.4571 14.5976 20.8003C14.5976 21.1435 14.3525 21.3886 14.0093 21.3886H10.4304ZM14.3737 11.3208C14.5443 11.3208 14.6824 11.46 14.6824 11.6316V11.7708C14.6824 12.6911 13.9391 13.4396 13.025 13.4396C12.1109 13.4396 11.3676 12.6911 11.3676 11.7708V11.6316C11.3676 11.46 11.5057 11.3208 11.6762 11.3208H11.7235L12.4871 8.44903L9.98266 8.4125V13.168L11.0325 14.2091C11.1689 14.3445 11.2456 14.5287 11.2456 14.7209V15.1884C11.2456 15.36 11.1074 15.4991 10.9368 15.4991H7.85827C7.68768 15.4991 7.54944 15.36 7.54944 15.1884V14.7209C7.54944 14.5287 7.62619 14.3446 7.76276 14.2091L8.8124 13.168V8.4125L6.30796 8.44903L7.07156 11.3208H7.11882C7.2894 11.3208 7.42764 11.46 7.42764 11.6316V11.7708C7.42764 12.6911 6.68415 13.4396 5.77006 13.4396C4.85598 13.4396 4.11266 12.6911 4.11266 11.7708V11.6316C4.11266 11.46 4.25091 11.3208 4.42132 11.3208H4.46723L5.36656 7.80086C5.39287 7.65457 5.5172 7.52924 5.67035 7.52924H8.81237V6.80587C8.81237 6.63428 8.95062 6.49503 9.12103 6.49503H9.67401C9.84459 6.49503 9.98267 6.63428 9.98267 6.80587V7.52924H13.1247C13.2778 7.52924 13.4022 7.65458 13.4258 7.78863L14.3278 11.3208L14.3737 11.3208ZM13.3124 11.1927L12.9208 9.82257L12.5294 11.1927H13.3124ZM6.07012 11.1927L5.67869 9.82257L5.28726 11.1927H6.07012Z"/>
</mask>
<path d="M18.2473 4.78311C18.2492 4.80104 18.25 4.81914 18.25 4.8374V23.9681C18.25 24.2682 18.0067 24.5115 17.7066 24.5115H1.29342C0.993306 24.5115 0.75 24.2682 0.75 23.9681V1.03289C0.75 0.732778 0.993306 0.489471 1.29342 0.489471H13.9025C13.9206 0.489471 13.9387 0.490477 13.9568 0.492152C13.97 0.493493 13.9829 0.495671 13.9957 0.498017C14.0004 0.498688 14.005 0.49919 14.0096 0.500028C14.0252 0.503212 14.0402 0.507233 14.0553 0.51159C14.0572 0.512093 14.059 0.512428 14.0608 0.512931C14.0761 0.517623 14.0912 0.523152 14.1058 0.529017C14.1074 0.529855 14.1091 0.53019 14.1108 0.53086C14.1247 0.536725 14.1381 0.54326 14.1513 0.55013C14.1538 0.551303 14.1565 0.552476 14.159 0.553817C14.1709 0.560184 14.1823 0.567222 14.1936 0.574427C14.1972 0.576773 14.2011 0.578952 14.2048 0.581298C14.2148 0.588 14.2246 0.595541 14.2341 0.603081C14.2385 0.606432 14.2432 0.609449 14.2475 0.613135C14.2574 0.621346 14.2668 0.630059 14.2762 0.63894C14.2795 0.642291 14.2834 0.64514 14.2867 0.648658L18.0912 4.45309C18.0945 4.45644 18.0975 4.46029 18.1009 4.46365C18.1098 4.47303 18.1185 4.48241 18.1267 4.4923C18.1304 4.49666 18.1334 4.50135 18.1367 4.5057C18.1443 4.51542 18.1518 4.52497 18.1585 4.5352C18.161 4.53871 18.163 4.54257 18.1654 4.54626C18.1726 4.55765 18.1796 4.56904 18.186 4.58094C18.1873 4.58345 18.1885 4.58613 18.1897 4.58865C18.1966 4.60189 18.2031 4.61529 18.209 4.62903C18.2096 4.63071 18.2101 4.63238 18.2108 4.63406C18.2167 4.64881 18.2222 4.66372 18.2269 4.67897C18.2274 4.68081 18.2277 4.68265 18.2282 4.6845C18.2326 4.69958 18.2366 4.71483 18.2398 4.73041C18.2406 4.73493 18.2411 4.73963 18.2418 4.74415C18.2441 4.75705 18.2463 4.76996 18.2477 4.78319L18.2473 4.78311ZM14.4456 2.34503V4.29383H16.3944L14.4456 2.34503ZM1.83651 23.4245H17.1631V5.38084H13.9023C13.6022 5.38084 13.3587 5.13753 13.3587 4.83742V1.57641H1.8366L1.83651 23.4245ZM4.9053 18.9864C4.56213 18.9864 4.31715 18.7413 4.31715 18.3981C4.31715 18.0549 4.56213 17.7853 4.9053 17.7853H8.48418C8.82736 17.7853 9.07251 18.0549 9.07251 18.3981C9.07251 18.7412 8.82736 18.9864 8.48418 18.9864H4.9053ZM4.9053 21.3886C4.56213 21.3886 4.31715 21.1435 4.31715 20.8003C4.31715 20.4571 4.56213 20.1875 4.9053 20.1875H8.48418C8.82736 20.1875 9.07251 20.4571 9.07251 20.8003C9.07251 21.1435 8.82736 21.3886 8.48418 21.3886H4.9053ZM10.4304 18.9864C10.0872 18.9864 9.84208 18.7413 9.84208 18.3981C9.84208 18.0549 10.0872 17.7853 10.4304 17.7853H14.0093C14.3525 17.7853 14.5976 18.0549 14.5976 18.3981C14.5976 18.7412 14.3525 18.9864 14.0093 18.9864H10.4304ZM10.4304 21.3886C10.0872 21.3886 9.84208 21.1435 9.84208 20.8003C9.84208 20.4571 10.0872 20.1875 10.4304 20.1875H14.0093C14.3525 20.1875 14.5976 20.4571 14.5976 20.8003C14.5976 21.1435 14.3525 21.3886 14.0093 21.3886H10.4304ZM14.3737 11.3208C14.5443 11.3208 14.6824 11.46 14.6824 11.6316V11.7708C14.6824 12.6911 13.9391 13.4396 13.025 13.4396C12.1109 13.4396 11.3676 12.6911 11.3676 11.7708V11.6316C11.3676 11.46 11.5057 11.3208 11.6762 11.3208H11.7235L12.4871 8.44903L9.98266 8.4125V13.168L11.0325 14.2091C11.1689 14.3445 11.2456 14.5287 11.2456 14.7209V15.1884C11.2456 15.36 11.1074 15.4991 10.9368 15.4991H7.85827C7.68768 15.4991 7.54944 15.36 7.54944 15.1884V14.7209C7.54944 14.5287 7.62619 14.3446 7.76276 14.2091L8.8124 13.168V8.4125L6.30796 8.44903L7.07156 11.3208H7.11882C7.2894 11.3208 7.42764 11.46 7.42764 11.6316V11.7708C7.42764 12.6911 6.68415 13.4396 5.77006 13.4396C4.85598 13.4396 4.11266 12.6911 4.11266 11.7708V11.6316C4.11266 11.46 4.25091 11.3208 4.42132 11.3208H4.46723L5.36656 7.80086C5.39287 7.65457 5.5172 7.52924 5.67035 7.52924H8.81237V6.80587C8.81237 6.63428 8.95062 6.49503 9.12103 6.49503H9.67401C9.84459 6.49503 9.98267 6.63428 9.98267 6.80587V7.52924H13.1247C13.2778 7.52924 13.4022 7.65458 13.4258 7.78863L14.3278 11.3208L14.3737 11.3208ZM13.3124 11.1927L12.9208 9.82257L12.5294 11.1927H13.3124ZM6.07012 11.1927L5.67869 9.82257L5.28726 11.1927H6.07012Z" fill="white"/>
<path d="M18.2473 4.78311C18.2492 4.80104 18.25 4.81914 18.25 4.8374V23.9681C18.25 24.2682 18.0067 24.5115 17.7066 24.5115H1.29342C0.993306 24.5115 0.75 24.2682 0.75 23.9681V1.03289C0.75 0.732778 0.993306 0.489471 1.29342 0.489471H13.9025C13.9206 0.489471 13.9387 0.490477 13.9568 0.492152C13.97 0.493493 13.9829 0.495671 13.9957 0.498017C14.0004 0.498688 14.005 0.49919 14.0096 0.500028C14.0252 0.503212 14.0402 0.507233 14.0553 0.51159C14.0572 0.512093 14.059 0.512428 14.0608 0.512931C14.0761 0.517623 14.0912 0.523152 14.1058 0.529017C14.1074 0.529855 14.1091 0.53019 14.1108 0.53086C14.1247 0.536725 14.1381 0.54326 14.1513 0.55013C14.1538 0.551303 14.1565 0.552476 14.159 0.553817C14.1709 0.560184 14.1823 0.567222 14.1936 0.574427C14.1972 0.576773 14.2011 0.578952 14.2048 0.581298C14.2148 0.588 14.2246 0.595541 14.2341 0.603081C14.2385 0.606432 14.2432 0.609449 14.2475 0.613135C14.2574 0.621346 14.2668 0.630059 14.2762 0.63894C14.2795 0.642291 14.2834 0.64514 14.2867 0.648658L18.0912 4.45309C18.0945 4.45644 18.0975 4.46029 18.1009 4.46365C18.1098 4.47303 18.1185 4.48241 18.1267 4.4923C18.1304 4.49666 18.1334 4.50135 18.1367 4.5057C18.1443 4.51542 18.1518 4.52497 18.1585 4.5352C18.161 4.53871 18.163 4.54257 18.1654 4.54626C18.1726 4.55765 18.1796 4.56904 18.186 4.58094C18.1873 4.58345 18.1885 4.58613 18.1897 4.58865C18.1966 4.60189 18.2031 4.61529 18.209 4.62903C18.2096 4.63071 18.2101 4.63238 18.2108 4.63406C18.2167 4.64881 18.2222 4.66372 18.2269 4.67897C18.2274 4.68081 18.2277 4.68265 18.2282 4.6845C18.2326 4.69958 18.2366 4.71483 18.2398 4.73041C18.2406 4.73493 18.2411 4.73963 18.2418 4.74415C18.2441 4.75705 18.2463 4.76996 18.2477 4.78319L18.2473 4.78311ZM14.4456 2.34503V4.29383H16.3944L14.4456 2.34503ZM1.83651 23.4245H17.1631V5.38084H13.9023C13.6022 5.38084 13.3587 5.13753 13.3587 4.83742V1.57641H1.8366L1.83651 23.4245ZM4.9053 18.9864C4.56213 18.9864 4.31715 18.7413 4.31715 18.3981C4.31715 18.0549 4.56213 17.7853 4.9053 17.7853H8.48418C8.82736 17.7853 9.07251 18.0549 9.07251 18.3981C9.07251 18.7412 8.82736 18.9864 8.48418 18.9864H4.9053ZM4.9053 21.3886C4.56213 21.3886 4.31715 21.1435 4.31715 20.8003C4.31715 20.4571 4.56213 20.1875 4.9053 20.1875H8.48418C8.82736 20.1875 9.07251 20.4571 9.07251 20.8003C9.07251 21.1435 8.82736 21.3886 8.48418 21.3886H4.9053ZM10.4304 18.9864C10.0872 18.9864 9.84208 18.7413 9.84208 18.3981C9.84208 18.0549 10.0872 17.7853 10.4304 17.7853H14.0093C14.3525 17.7853 14.5976 18.0549 14.5976 18.3981C14.5976 18.7412 14.3525 18.9864 14.0093 18.9864H10.4304ZM10.4304 21.3886C10.0872 21.3886 9.84208 21.1435 9.84208 20.8003C9.84208 20.4571 10.0872 20.1875 10.4304 20.1875H14.0093C14.3525 20.1875 14.5976 20.4571 14.5976 20.8003C14.5976 21.1435 14.3525 21.3886 14.0093 21.3886H10.4304ZM14.3737 11.3208C14.5443 11.3208 14.6824 11.46 14.6824 11.6316V11.7708C14.6824 12.6911 13.9391 13.4396 13.025 13.4396C12.1109 13.4396 11.3676 12.6911 11.3676 11.7708V11.6316C11.3676 11.46 11.5057 11.3208 11.6762 11.3208H11.7235L12.4871 8.44903L9.98266 8.4125V13.168L11.0325 14.2091C11.1689 14.3445 11.2456 14.5287 11.2456 14.7209V15.1884C11.2456 15.36 11.1074 15.4991 10.9368 15.4991H7.85827C7.68768 15.4991 7.54944 15.36 7.54944 15.1884V14.7209C7.54944 14.5287 7.62619 14.3446 7.76276 14.2091L8.8124 13.168V8.4125L6.30796 8.44903L7.07156 11.3208H7.11882C7.2894 11.3208 7.42764 11.46 7.42764 11.6316V11.7708C7.42764 12.6911 6.68415 13.4396 5.77006 13.4396C4.85598 13.4396 4.11266 12.6911 4.11266 11.7708V11.6316C4.11266 11.46 4.25091 11.3208 4.42132 11.3208H4.46723L5.36656 7.80086C5.39287 7.65457 5.5172 7.52924 5.67035 7.52924H8.81237V6.80587C8.81237 6.63428 8.95062 6.49503 9.12103 6.49503H9.67401C9.84459 6.49503 9.98267 6.63428 9.98267 6.80587V7.52924H13.1247C13.2778 7.52924 13.4022 7.65458 13.4258 7.78863L14.3278 11.3208L14.3737 11.3208ZM13.3124 11.1927L12.9208 9.82257L12.5294 11.1927H13.3124ZM6.07012 11.1927L5.67869 9.82257L5.28726 11.1927H6.07012Z" stroke="white" stroke-width="0.6" mask="url(#path-1-outside-1_588_2993)"/>
</svg>
