<svg width="40" height="28" viewBox="0 0 40 28" fill="none" xmlns="http://www.w3.org/2000/svg">
<path d="M32.25 10.7333C31.6902 7.89619 30.1627 5.34143 27.9284 3.50541C25.6942 1.66939 22.8918 0.666012 20 0.666666C15.1833 0.666666 11 3.4 8.91667 7.4C6.46706 7.66472 4.20168 8.82535 2.55581 10.6589C0.909952 12.4924 -0.00028617 14.8695 6.74879e-08 17.3333C6.74879e-08 22.85 4.48333 27.3333 10 27.3333H31.6667C36.2667 27.3333 40 23.6 40 19C40 14.6 36.5833 11.0333 32.25 10.7333ZM31.6667 24H10C6.31667 24 3.33333 21.0167 3.33333 17.3333C3.33333 13.9167 5.88333 11.0667 9.26667 10.7167L11.05 10.5333L11.8833 8.95C12.6498 7.45796 13.8131 6.20636 15.2452 5.33299C16.6773 4.45962 18.3226 3.99836 20 4C24.3667 4 28.1333 7.1 28.9833 11.3833L29.4833 13.8833L32.0333 14.0667C33.2862 14.1509 34.4607 14.7066 35.3204 15.622C36.18 16.5373 36.6611 17.7443 36.6667 19C36.6667 21.75 34.4167 24 31.6667 24ZM13.3333 15.6667H17.5833V20.6667H22.4167V15.6667H26.6667L20 9L13.3333 15.6667Z" fill="#2E3192"/>
</svg>
