<svg width="45" height="45" viewBox="0 0 45 45" fill="none" xmlns="http://www.w3.org/2000/svg">
<rect y="0.000488281" width="45" height="45" rx="8" fill="#2E3192"/>
<path d="M14.625 12.3755C14.0283 12.3755 13.456 12.6125 13.034 13.0345C12.6121 13.4565 12.375 14.0288 12.375 14.6255V30.3755C12.375 30.9722 12.6121 31.5445 13.034 31.9665C13.456 32.3884 14.0283 32.6255 14.625 32.6255H30.375C30.9717 32.6255 31.544 32.3884 31.966 31.9665C32.3879 31.5445 32.625 30.9722 32.625 30.3755V27.8105C32.9651 27.6142 33.2478 27.3323 33.4452 26.9928C33.6425 26.6533 33.7476 26.2681 33.75 25.8755V19.1255C33.7476 18.7328 33.6425 18.3476 33.4452 18.0082C33.2478 17.6687 32.9651 17.3868 32.625 17.1905V14.6255C32.625 14.0288 32.3879 13.4565 31.966 13.0345C31.544 12.6125 30.9717 12.3755 30.375 12.3755H14.625ZM14.625 14.6255H30.375V16.8755H23.625C23.0283 16.8755 22.456 17.1125 22.034 17.5345C21.6121 17.9565 21.375 18.5288 21.375 19.1255V25.8755C21.375 26.4722 21.6121 27.0445 22.034 27.4665C22.456 27.8884 23.0283 28.1255 23.625 28.1255H30.375V30.3755H14.625V14.6255ZM23.625 19.1255H31.5V25.8755H23.625V19.1255ZM27 20.813C26.5524 20.813 26.1232 20.9908 25.8068 21.3072C25.4903 21.6237 25.3125 22.0529 25.3125 22.5005C25.3125 22.948 25.4903 23.3773 25.8068 23.6937C26.1232 24.0102 26.5524 24.188 27 24.188C27.4476 24.188 27.8768 24.0102 28.1932 23.6937C28.5097 23.3773 28.6875 22.948 28.6875 22.5005C28.6875 22.0529 28.5097 21.6237 28.1932 21.3072C27.8768 20.9908 27.4476 20.813 27 20.813Z" fill="white"/>
</svg>
