<svg id="Layer_1" data-name="Layer 1" xmlns="http://www.w3.org/2000/svg" viewBox="0 0 483.4 483.4"><circle cx="241.7" cy="241.7" r="241.7" fill="#d9d9d9" opacity="0.2" style="isolation:isolate"/><path d="M232.9,90.7a66.8,66.8,0,0,0-57,55.1,68.2,68.2,0,0,0-.8,7.9v3H152.4c-17.6,0-23.6.2-26.6.8a32.1,32.1,0,0,0-25.2,31.2c0,2.1,3.1,35.4,7,74.1,9.5,93.9,9.2,90.9,10.7,95.2a32.7,32.7,0,0,0,21.6,20c6,1.7,197.6,1.7,203.5,0,13-3.7,21.8-14.3,23.6-28.5S382.8,192,382.8,188.7a32.3,32.3,0,0,0-25.2-31.2c-3-.6-9-.8-26.6-.8H308.3v-3c0-7.6-3-19-7.2-27.1-12.9-25.1-40.8-39.8-68.2-35.9" fill="#fbe383" stroke="#fbe383" fill-rule="evenodd"/><path d="M231.9,104.6c-39.6,8.2-56.7,54.2-32,85.5,4.2,5.3,6,5.2,11.9-.2,17.3-15.9,42.5-15.9,59.7,0,6,5.4,7.8,5.5,11.9.2,23.8-30.1,8.8-74.8-28.4-84.7-5.9-1.5-17.6-2-23.1-.8m12.9,10.9a49.5,49.5,0,0,1,22,29.8c1.6,6,1.5,18.3-.2,24.1-.7,2.4-1.2,4.5-1.2,4.7a11.8,11.8,0,0,0,2.2,1.4,48.1,48.1,0,0,1,6,4c4.5,3.4,3.9,3.3,5.7.4,7.8-12.3,8.3-30.1,1.2-43.4s-20-21.9-36-23.3l-4.2-.4,4.5,2.8M127.3,157.5c-14.9,2.4-26.7,16.2-26.7,31,0,6.1,16.3,165.3,17.2,168.1a33.3,33.3,0,0,0,23.4,21.8c5.7,1.4,195.3,1.4,200.9,0,12.3-3,22.4-13.6,24.3-25.6.9-5.6,16.4-160.9,16.4-164.4,0-13.2-9.6-25.8-23.1-30.2-2.8-.9-6-1-27.2-1.2l-24-.2-.6,6.4c-1.7,16.2-7.6,28.9-18.6,40.2-39.5,40.5-107.7,16.4-113.7-40.2l-.7-6.3H152.6c-12.3,0-23.7.2-25.3.5" fill="#fbfbfb" stroke="#fbfbfb" fill-rule="evenodd"/><path d="M238,104.3c-17.1,1.5-31.3,9.9-40.6,23.8a53.3,53.3,0,0,0-1.3,56c6.8,11.2,8.7,11.9,15.3,5.8a44.1,44.1,0,0,1,60.6,0c6.6,6.1,8.5,5.4,15.3-5.8,8.3-13.8,9.6-30.9,3.5-46.7-8-20.7-30.9-35-52.8-33.1m-3.8,9.2c-30.3,5.1-46.4,40.5-30.3,66.6l1.7,2.8,4-3c18.5-14,45.2-14.3,63.2-.7l4,3.1c.8.6,1.2.3,2.9-2.6,13.8-23.3,3.4-53.8-21.8-63.7a47.7,47.7,0,0,0-23.7-2.5M230,130.8c-1.7.7-2.5,3.6-1.8,5.8,1.4,4.4,9.5,22.8,10.4,23.8,2.4,2.6,7.6.4,7.6-3.1,0-1.7-9.5-24.1-10.9-25.6a5.4,5.4,0,0,0-5.3-.9M124.4,158.4a31.9,31.9,0,0,0-23.3,26.7c-.7,5,15,164.4,16.7,170.6a32.4,32.4,0,0,0,22,22.4c5.3,1.6,198.6,1.6,203.8,0a32,32,0,0,0,22-22.4c1.8-6.2,17.5-165.6,16.8-170.6a31.6,31.6,0,0,0-17.5-24.4c-6-3-7.5-3.2-32.9-3.2H308.5l-.4,5.3c-2.2,36-36.4,64.6-72.5,60.8-32.6-3.4-58.4-29.4-60.4-60.8l-.3-5.3H151.1c-18.5,0-24.4.2-26.7.9" fill="#53b3e3" stroke="#53b3e3" fill-rule="evenodd"/><path d="M230.1,130.5c-1.3,1-1.5,1.5-1.2,3.5s9.2,23.8,10.7,25.3,7.9-.6,6.9-4.3-10.1-24-11.1-24.8-3.4-1.2-5.2.3M145.9,235.4c-12.1,2.4-14.8,17.9-4.4,24.8l2.3,1.4,97,.2h97l3-1.3c10.4-4.8,9.9-19.7-.9-24.6-2.2-1-189.1-1.6-194-.6m4.5,47.2c-10.6,5.2-9.6,21,1.5,24.7,4.5,1.5,177.8,1,180.9-.5a13.3,13.3,0,0,0,6.3-18,12.8,12.8,0,0,0-5.1-5.7l-2.7-1.7-89-.2h-89l-3,1.5m8.4,44.8c-12.4,2.5-14.3,20.2-2.6,25.5,3.5,1.6,167.6,1.6,171.1,0,10.5-4.8,10.4-19.5-.1-24.7-2.1-1.1-4.3-1.1-84.1-1.2-45,0-83,.2-84.3.4" fill="#1c8cb4" stroke="#1c8cb4" fill-rule="evenodd"/></svg>