<svg width="138" height="16" viewBox="0 0 138 16" fill="none" xmlns="http://www.w3.org/2000/svg">
<path d="M7.36 15L9.98 5.76L12.62 15H15.76L19.68 0.999999H16.78L14.1 11.38L11.16 0.999999H8.8L5.88 11.38L3.2 0.999999H0.3L4.22 15H7.36ZM29.6891 11.06C29.7491 10.68 29.7891 10.34 29.7891 10C29.7891 8.5 29.3091 7.26 28.3491 6.24C27.4091 5.22 26.1891 4.72 24.7291 4.72C23.1891 4.72 21.9091 5.22 20.9291 6.24C19.9491 7.24 19.4491 8.5 19.4491 10C19.4491 11.52 19.9491 12.78 20.9491 13.78C21.9491 14.78 23.2691 15.28 24.9291 15.28C26.8491 15.28 28.3091 14.56 29.2891 13.14L27.2091 11.94C26.7091 12.6 25.9491 12.94 24.9691 12.94C23.4291 12.94 22.4891 12.32 22.1491 11.06H29.6891ZM22.1091 9.06C22.4091 7.78 23.3491 7.04 24.7291 7.04C25.9091 7.04 26.9091 7.7 27.2091 9.06H22.1091ZM34.1702 15V0.4H31.5902V15H34.1702ZM41.2916 15.28C43.2316 15.28 44.9316 14.26 45.8116 12.68L43.5716 11.4C43.1716 12.22 42.3116 12.72 41.2716 12.72C40.4916 12.72 39.8516 12.46 39.3516 11.96C38.8516 11.44 38.5916 10.78 38.5916 10C38.5916 8.4 39.7316 7.26 41.2716 7.26C42.2916 7.26 43.1516 7.78 43.5516 8.6L45.7716 7.3C44.9516 5.72 43.2316 4.72 41.2916 4.72C39.7916 4.72 38.5316 5.22 37.5116 6.24C36.5116 7.26 36.0116 8.5 36.0116 10C36.0116 11.5 36.5116 12.74 37.5116 13.76C38.5316 14.78 39.7916 15.28 41.2916 15.28ZM55.5398 13.76C56.5598 12.74 57.0798 11.48 57.0798 10C57.0798 8.52 56.5598 7.28 55.5398 6.26C54.5198 5.24 53.2598 4.72 51.7798 4.72C50.2998 4.72 49.0398 5.24 48.0198 6.26C46.9998 7.28 46.4998 8.52 46.4998 10C46.4998 11.48 46.9998 12.74 48.0198 13.76C49.0398 14.78 50.2998 15.28 51.7798 15.28C53.2598 15.28 54.5198 14.78 55.5398 13.76ZM49.8398 11.98C49.3398 11.46 49.0798 10.8 49.0798 10C49.0798 9.2 49.3398 8.54 49.8398 8.02C50.3598 7.5 50.9998 7.24 51.7798 7.24C52.5598 7.24 53.1998 7.5 53.7198 8.02C54.2398 8.54 54.4998 9.2 54.4998 10C54.4998 10.8 54.2398 11.46 53.7198 11.98C53.1998 12.5 52.5598 12.76 51.7798 12.76C50.9998 12.76 50.3598 12.5 49.8398 11.98ZM69.9548 4.72C68.6348 4.72 67.6348 5.2 66.9748 6.16C66.3948 5.2 65.4748 4.72 64.2548 4.72C62.9948 4.72 62.0748 5.16 61.4748 6.06V5H58.8948V15H61.4748V9.38C61.4748 7.92 62.2148 7.12 63.3548 7.12C64.4148 7.12 65.0348 7.82 65.0348 9.02V15H67.6148V9.38C67.6148 7.92 68.2948 7.12 69.4748 7.12C70.5348 7.12 71.1548 7.82 71.1548 9.02V15H73.7348V8.84C73.7348 6.34 72.2548 4.72 69.9548 4.72ZM85.6461 11.06C85.7061 10.68 85.7461 10.34 85.7461 10C85.7461 8.5 85.2661 7.26 84.3061 6.24C83.3661 5.22 82.1461 4.72 80.6861 4.72C79.1461 4.72 77.8661 5.22 76.8861 6.24C75.9061 7.24 75.4061 8.5 75.4061 10C75.4061 11.52 75.9061 12.78 76.9061 13.78C77.9061 14.78 79.2261 15.28 80.8861 15.28C82.8061 15.28 84.2661 14.56 85.2461 13.14L83.1661 11.94C82.6661 12.6 81.9061 12.94 80.9261 12.94C79.3861 12.94 78.4461 12.32 78.1061 11.06H85.6461ZM78.0661 9.06C78.3661 7.78 79.3061 7.04 80.6861 7.04C81.8661 7.04 82.8661 7.7 83.1661 9.06H78.0661ZM98.3672 4.72C96.9672 4.72 95.8872 5.2 95.1272 6.18V0.999999H92.5472V15H95.1272V13.82C95.8872 14.8 96.9672 15.28 98.3672 15.28C99.7072 15.28 100.867 14.78 101.807 13.76C102.767 12.74 103.247 11.48 103.247 10C103.247 8.52 102.767 7.28 101.807 6.26C100.867 5.24 99.7072 4.72 98.3672 4.72ZM95.9072 12.04C95.3872 11.5 95.1272 10.82 95.1272 10C95.1272 9.18 95.3872 8.5 95.9072 7.98C96.4272 7.44 97.0872 7.18 97.8872 7.18C98.6872 7.18 99.3472 7.44 99.8672 7.98C100.407 8.5 100.667 9.18 100.667 10C100.667 10.82 100.407 11.5 99.8672 12.04C99.3472 12.56 98.6872 12.82 97.8872 12.82C97.0872 12.82 96.4272 12.56 95.9072 12.04ZM112.667 6.18C111.887 5.2 110.807 4.72 109.407 4.72C108.067 4.72 106.927 5.24 105.967 6.26C105.027 7.28 104.547 8.52 104.547 10C104.547 11.48 105.027 12.74 105.967 13.76C106.927 14.78 108.067 15.28 109.407 15.28C110.807 15.28 111.887 14.8 112.667 13.82V15H115.247V5H112.667V6.18ZM107.907 12.04C107.387 11.5 107.127 10.82 107.127 10C107.127 9.18 107.387 8.5 107.907 7.98C108.427 7.44 109.087 7.18 109.887 7.18C110.687 7.18 111.347 7.44 111.867 7.98C112.407 8.5 112.667 9.18 112.667 10C112.667 10.82 112.407 11.5 111.867 12.04C111.347 12.56 110.687 12.82 109.887 12.82C109.087 12.82 108.427 12.56 107.907 12.04ZM122.346 15.28C124.286 15.28 125.986 14.26 126.866 12.68L124.626 11.4C124.226 12.22 123.366 12.72 122.326 12.72C121.546 12.72 120.906 12.46 120.406 11.96C119.906 11.44 119.646 10.78 119.646 10C119.646 8.4 120.786 7.26 122.326 7.26C123.346 7.26 124.206 7.78 124.606 8.6L126.826 7.3C126.006 5.72 124.286 4.72 122.346 4.72C120.846 4.72 119.586 5.22 118.566 6.24C117.566 7.26 117.066 8.5 117.066 10C117.066 11.5 117.566 12.74 118.566 13.76C119.586 14.78 120.846 15.28 122.346 15.28ZM133.311 9.94L137.331 5H134.251L130.811 9.4V0.999999H128.231V15H130.811V10.46L134.451 15H137.451L133.311 9.94Z" fill="#2E3192"/>
</svg>
