<svg width="219" height="63" viewBox="0 0 219 63" fill="none" xmlns="http://www.w3.org/2000/svg">
<path d="M216.865 55.7333C216.865 59.0906 214.089 61.8101 210.655 61.8101H7.42907C3.99687 61.8101 1.21094 59.0906 1.21094 55.7333V7.27229C1.21094 3.91653 3.99687 1.1875 7.42907 1.1875H210.653C214.089 1.1875 216.863 3.91653 216.863 7.27229L216.865 55.7333Z" fill="black"/>
<path d="M210 1.26197C213.74 1.26197 216.783 4.22888 216.783 7.875V55.125C216.783 58.7711 213.74 61.738 210 61.738H8.07692C4.33731 61.738 1.29433 58.7711 1.29433 55.125V7.875C1.29433 4.22888 4.33731 1.26197 8.07692 1.26197H210ZM210 3.8147e-06H8.07692C3.63663 3.8147e-06 0 3.54572 0 7.875V55.125C0 59.4543 3.63663 63 8.07692 63H210C214.44 63 218.077 59.4543 218.077 55.125V7.875C218.077 3.54572 214.44 3.8147e-06 210 3.8147e-06Z" fill="#A6A6A6"/>
<path d="M48.6685 31.161C48.6217 26.0848 52.9315 23.6152 53.1286 23.5002C50.6878 20.0305 46.9045 19.5564 45.5751 19.5186C42.3976 19.1926 39.3154 21.3724 37.6968 21.3724C36.0459 21.3724 33.5534 19.5501 30.867 19.6036C27.4101 19.6556 24.1761 21.607 22.4024 24.6373C18.7419 30.8161 21.4719 39.8959 24.9789 44.8903C26.7332 47.3362 28.7831 50.0673 31.4663 49.9712C34.0913 49.8657 35.0718 48.3395 38.2396 48.3395C41.3783 48.3395 42.2991 49.9712 45.0355 49.9098C47.8528 49.8657 49.6264 47.4528 51.3194 44.9848C53.3467 42.1813 54.1608 39.4203 54.1931 39.2785C54.1269 39.2565 48.7218 37.2452 48.6685 31.161Z" fill="white"/>
<path d="M43.4993 16.2331C44.9111 14.5117 45.8771 12.1696 45.609 9.79297C43.5655 9.88117 41.01 11.1711 39.5384 12.8548C38.2364 14.3384 37.0733 16.7702 37.3738 19.0571C39.6692 19.2241 42.0261 17.9278 43.4993 16.2331Z" fill="white"/>
<path d="M79.2338 15.763C79.2338 17.6168 78.6636 19.0122 77.5247 19.9493C76.4699 20.814 74.9708 21.2471 73.0291 21.2471C72.0664 21.2471 71.2425 21.2062 70.5527 21.1243V10.9954C71.4525 10.8537 72.4217 10.7812 73.4685 10.7812C75.3181 10.7812 76.7122 11.1734 77.6524 11.9578C78.7056 12.8445 79.2338 14.1124 79.2338 15.763ZM77.4488 15.8087C77.4488 14.6069 77.1225 13.6855 76.4699 13.0429C75.8173 12.4019 74.8642 12.0806 73.6091 12.0806C73.076 12.0806 72.622 12.1153 72.2457 12.1877V19.8879C72.454 19.9194 72.8353 19.9336 73.3894 19.9336C74.6849 19.9336 75.6848 19.5824 76.3891 18.8799C77.0934 18.1775 77.4488 17.1537 77.4488 15.8087Z" fill="white"/>
<path d="M88.6985 17.3802C88.6985 18.522 88.3641 19.4576 87.6953 20.1915C86.9942 20.946 86.0654 21.3224 84.9055 21.3224C83.7877 21.3224 82.8976 20.9617 82.2337 20.2372C81.5714 19.5143 81.2402 18.6024 81.2402 17.503C81.2402 16.3533 81.5811 15.4098 82.266 14.6775C82.9509 13.9451 83.8717 13.5781 85.0315 13.5781C86.1494 13.5781 87.0475 13.9388 87.7276 14.6617C88.3738 15.3642 88.6985 16.2714 88.6985 17.3802ZM86.9425 17.4337C86.9425 16.7486 86.7907 16.1611 86.4886 15.6713C86.1332 15.0791 85.6276 14.783 84.9702 14.783C84.2901 14.783 83.7732 15.0791 83.4178 15.6713C83.1141 16.1611 82.9639 16.758 82.9639 17.4636C82.9639 18.1488 83.1157 18.7362 83.4178 19.2261C83.7845 19.8183 84.2949 20.1144 84.954 20.1144C85.6002 20.1144 86.1074 19.8135 86.4725 19.2103C86.7859 18.711 86.9425 18.1188 86.9425 17.4337Z" fill="white"/>
<path d="M101.389 13.7305L99.0058 21.155H97.4551L96.4681 17.931C96.2177 17.1262 96.0142 16.3261 95.8558 15.5323H95.8252C95.6782 16.3481 95.4746 17.1466 95.2129 17.931L94.1645 21.155H92.596L90.3555 13.7305H92.0952L92.9562 17.26C93.1646 18.0948 93.3359 18.8902 93.4732 19.643H93.5038C93.6298 19.0225 93.8382 18.2318 94.1322 17.2758L95.2129 13.732H96.5925L97.6279 17.2002C97.8783 18.046 98.0818 18.8602 98.2385 19.6446H98.2854C98.4001 18.8807 98.5729 18.0664 98.8023 17.2002L99.7263 13.732H101.389V13.7305Z" fill="white"/>
<path d="M110.165 21.1547H108.472V16.9022C108.472 15.5918 107.962 14.9366 106.937 14.9366C106.435 14.9366 106.03 15.1161 105.715 15.4768C105.403 15.8375 105.245 16.2627 105.245 16.7494V21.1531H103.552V15.8517C103.552 15.1996 103.531 14.4924 103.49 13.727H104.978L105.057 14.8878H105.104C105.301 14.5271 105.595 14.2294 105.981 13.9916C106.44 13.7144 106.954 13.5742 107.516 13.5742C108.227 13.5742 108.818 13.7979 109.288 14.2467C109.873 14.7964 110.165 15.617 110.165 16.7069V21.1547Z" fill="white"/>
<path d="M114.834 21.1555H113.143V10.3242H114.834V21.1555Z" fill="white"/>
<path d="M124.8 17.3802C124.8 18.522 124.466 19.4576 123.797 20.1915C123.096 20.946 122.165 21.3224 121.007 21.3224C119.888 21.3224 118.998 20.9617 118.335 20.2372C117.673 19.5143 117.342 18.6024 117.342 17.503C117.342 16.3533 117.683 15.4098 118.368 14.6775C119.052 13.9451 119.973 13.5781 121.131 13.5781C122.251 13.5781 123.147 13.9388 123.829 14.6617C124.475 15.3642 124.8 16.2714 124.8 17.3802ZM123.042 17.4337C123.042 16.7486 122.891 16.1611 122.589 15.6713C122.235 15.0791 121.728 14.783 121.072 14.783C120.39 14.783 119.873 15.0791 119.519 15.6713C119.216 16.1611 119.065 16.758 119.065 17.4636C119.065 18.1488 119.217 18.7362 119.519 19.2261C119.886 19.8183 120.396 20.1144 121.056 20.1144C121.702 20.1144 122.207 19.8135 122.572 19.2103C122.887 18.711 123.042 18.1188 123.042 17.4337Z" fill="white"/>
<path d="M132.994 21.1539H131.474L131.348 20.2986H131.301C130.781 20.9806 130.039 21.3224 129.076 21.3224C128.358 21.3224 127.776 21.0972 127.338 20.6499C126.941 20.2435 126.742 19.7379 126.742 19.1379C126.742 18.2307 127.13 17.5392 127.91 17.0604C128.689 16.5816 129.784 16.347 131.194 16.358V16.2194C131.194 15.2413 130.668 14.7531 129.613 14.7531C128.862 14.7531 128.199 14.9373 127.627 15.3027L127.283 14.2191C127.991 13.7923 128.865 13.5781 129.895 13.5781C131.886 13.5781 132.884 14.6019 132.884 16.6494V19.3836C132.884 20.1254 132.921 20.716 132.994 21.1539ZM131.236 18.6024V17.4573C129.369 17.4258 128.435 17.9251 128.435 18.9536C128.435 19.341 128.542 19.6308 128.76 19.8246C128.978 20.0183 129.256 20.1144 129.587 20.1144C129.958 20.1144 130.306 19.9994 130.622 19.771C130.941 19.5411 131.136 19.2497 131.209 18.8922C131.226 18.8118 131.236 18.7142 131.236 18.6024Z" fill="white"/>
<path d="M142.613 21.1555H141.111L141.032 19.9632H140.985C140.505 20.8704 139.688 21.324 138.539 21.324C137.621 21.324 136.857 20.9728 136.252 20.2703C135.646 19.5679 135.344 18.656 135.344 17.5361C135.344 16.3344 135.672 15.3611 136.331 14.6177C136.969 13.9247 137.751 13.5782 138.681 13.5782C139.704 13.5782 140.419 13.9136 140.826 14.5862H140.859V10.3242H142.553V19.1552C142.553 19.8782 142.573 20.5444 142.613 21.1555ZM140.859 18.0244V16.7864C140.859 16.5722 140.843 16.399 140.812 16.2667C140.717 15.8698 140.511 15.5359 140.2 15.2666C139.885 14.9972 139.505 14.8618 139.067 14.8618C138.436 14.8618 137.941 15.1059 137.578 15.5957C137.218 16.0856 137.035 16.7108 137.035 17.4747C137.035 18.2087 137.208 18.804 137.555 19.2623C137.922 19.7506 138.416 19.9947 139.035 19.9947C139.591 19.9947 140.035 19.7915 140.372 19.3836C140.699 19.0072 140.859 18.5536 140.859 18.0244Z" fill="white"/>
<path d="M157.093 17.3802C157.093 18.522 156.759 19.4576 156.09 20.1915C155.389 20.946 154.462 21.3224 153.3 21.3224C152.184 21.3224 151.294 20.9617 150.628 20.2372C149.966 19.5143 149.635 18.6024 149.635 17.503C149.635 16.3533 149.976 15.4098 150.661 14.6775C151.345 13.9451 152.266 13.5781 153.428 13.5781C154.544 13.5781 155.444 13.9388 156.122 14.6617C156.768 15.3642 157.093 16.2714 157.093 17.3802ZM155.339 17.4337C155.339 16.7486 155.187 16.1611 154.885 15.6713C154.528 15.0791 154.024 14.783 153.365 14.783C152.686 14.783 152.169 15.0791 151.812 15.6713C151.509 16.1611 151.358 16.758 151.358 17.4636C151.358 18.1488 151.51 18.7362 151.812 19.2261C152.179 19.8183 152.689 20.1144 153.349 20.1144C153.995 20.1144 154.504 19.8135 154.869 19.2103C155.18 18.711 155.339 18.1188 155.339 17.4337Z" fill="white"/>
<path d="M166.195 21.1547H164.503V16.9022C164.503 15.5918 163.993 14.9366 162.967 14.9366C162.465 14.9366 162.059 15.1161 161.746 15.4768C161.432 15.8375 161.276 16.2627 161.276 16.7494V21.1531H159.581V15.8517C159.581 15.1996 159.562 14.4924 159.521 13.727H161.008L161.087 14.8878H161.134C161.332 14.5271 161.626 14.2294 162.011 13.9916C162.471 13.7144 162.983 13.5742 163.547 13.5742C164.256 13.5742 164.847 13.7979 165.317 14.2467C165.904 14.7964 166.195 15.617 166.195 16.7069V21.1547Z" fill="white"/>
<path d="M177.589 14.9682H175.725V18.575C175.725 19.4916 176.056 19.95 176.712 19.95C177.015 19.95 177.267 19.9248 177.466 19.8728L177.51 21.1249C177.175 21.2478 176.736 21.3092 176.195 21.3092C175.526 21.3092 175.006 21.1107 174.63 20.7138C174.252 20.3169 174.064 19.6491 174.064 18.712V14.9682H172.951V13.7319H174.064V12.3711L175.723 11.8828V13.7303H177.587V14.9682H177.589Z" fill="white"/>
<path d="M186.551 21.1555H184.856V16.9345C184.856 15.6036 184.346 14.9374 183.323 14.9374C182.538 14.9374 182.002 15.3233 181.708 16.095C181.658 16.2572 181.629 16.4557 181.629 16.6888V21.1539H179.938V10.3242H181.629V14.7988H181.661C182.194 13.9845 182.958 13.5782 183.949 13.5782C184.65 13.5782 185.23 13.8018 185.69 14.2507C186.263 14.8098 186.551 15.6414 186.551 16.7408V21.1555Z" fill="white"/>
<path d="M195.795 17.0928C195.795 17.3889 195.773 17.6378 195.732 17.841H190.655C190.678 18.5749 190.92 19.134 191.39 19.5215C191.82 19.868 192.374 20.0412 193.053 20.0412C193.804 20.0412 194.489 19.9247 195.106 19.69L195.371 20.8366C194.649 21.1422 193.799 21.2949 192.815 21.2949C191.636 21.2949 190.707 20.9563 190.035 20.2791C189.36 19.6018 189.025 18.693 189.025 17.5527C189.025 16.4329 189.337 15.5005 189.966 14.7571C190.621 13.9633 191.508 13.5664 192.628 13.5664C193.723 13.5664 194.555 13.9633 195.117 14.7571C195.571 15.3871 195.795 16.1667 195.795 17.0928ZM194.18 16.666C194.193 16.1762 194.082 15.7541 193.852 15.3981C193.558 14.9398 193.111 14.7099 192.505 14.7099C191.952 14.7099 191.502 14.9335 191.158 15.3824C190.877 15.7399 190.71 16.1667 190.655 16.666H194.18Z" fill="white"/>
<path d="M86.6567 49.6203H82.9881L80.9786 43.4636H73.9937L72.0794 49.6203H68.5078L75.4281 28.6602H79.7024L86.6567 49.6203ZM80.3728 40.8806L78.5555 35.4075C78.3633 34.8483 78.003 33.5316 77.4716 31.4589H77.407C77.1953 32.3504 76.8545 33.6671 76.386 35.4075L74.601 40.8806H80.3728Z" fill="white"/>
<path d="M104.453 41.8766C104.453 44.447 103.741 46.4787 102.316 47.9703C101.04 49.298 99.4552 49.9611 97.5635 49.9611C95.5217 49.9611 94.0549 49.246 93.1616 47.8159H93.097V55.7775H89.653V39.481C89.653 37.8651 89.6094 36.2066 89.5254 34.5056H92.5542L92.7465 36.9012H92.8111C93.9596 35.0962 95.7026 34.1953 98.0417 34.1953C99.8703 34.1953 101.397 34.8993 102.618 36.309C103.843 37.7202 104.453 39.5755 104.453 41.8766ZM100.945 41.9994C100.945 40.5284 100.605 39.3156 99.9236 38.3612C99.1789 37.3658 98.179 36.8681 96.9255 36.8681C96.0758 36.8681 95.3036 37.1453 94.6138 37.6918C93.9225 38.2431 93.4702 38.9628 93.2585 39.8543C93.1519 40.2701 93.0986 40.6103 93.0986 40.878V43.398C93.0986 44.4974 93.4443 45.4251 94.1357 46.1826C94.8271 46.9402 95.7252 47.3182 96.8302 47.3182C98.1273 47.3182 99.1369 46.83 99.859 45.8566C100.583 44.8817 100.945 43.5965 100.945 41.9994Z" fill="white"/>
<path d="M122.282 41.8766C122.282 44.447 121.569 46.4787 120.143 47.9703C118.868 49.298 117.284 49.9611 115.392 49.9611C113.35 49.9611 111.883 49.246 110.992 47.8159H110.927V55.7775H107.483V39.481C107.483 37.8651 107.439 36.2066 107.355 34.5056H110.384L110.577 36.9012H110.641C111.788 35.0962 113.531 34.1953 115.872 34.1953C117.699 34.1953 119.225 34.8993 120.45 36.309C121.669 37.7202 122.282 39.5755 122.282 41.8766ZM118.773 41.9994C118.773 40.5284 118.432 39.3156 117.75 38.3612C117.006 37.3658 116.009 36.8681 114.754 36.8681C113.903 36.8681 113.132 37.1453 112.441 37.6918C111.749 38.2431 111.299 38.9628 111.087 39.8543C110.982 40.2701 110.927 40.6103 110.927 40.878V43.398C110.927 44.4974 111.273 45.4251 111.961 46.1826C112.652 46.9386 113.55 47.3182 114.659 47.3182C115.956 47.3182 116.965 46.83 117.687 45.8566C118.411 44.8817 118.773 43.5965 118.773 41.9994Z" fill="white"/>
<path d="M142.216 43.7409C142.216 45.5238 141.581 46.9744 140.306 48.0942C138.906 49.318 136.956 49.9291 134.45 49.9291C132.137 49.9291 130.283 49.4944 128.879 48.6234L129.677 45.8246C131.189 46.7161 132.848 47.1634 134.656 47.1634C135.953 47.1634 136.962 46.8767 137.688 46.3066C138.41 45.7364 138.77 44.971 138.77 44.0165C138.77 43.166 138.473 42.4494 137.877 41.8682C137.284 41.287 136.294 40.7468 134.911 40.2475C131.147 38.8789 129.267 36.8739 129.267 34.2373C129.267 32.5143 129.926 31.1015 131.245 30.0022C132.56 28.9012 134.315 28.3516 136.508 28.3516C138.465 28.3516 140.09 28.6839 141.387 29.347L140.526 32.0843C139.314 31.4417 137.944 31.1204 136.411 31.1204C135.2 31.1204 134.253 31.4118 133.575 31.9914C133.001 32.5096 132.714 33.1411 132.714 33.8893C132.714 34.7177 133.042 35.4028 133.701 35.9415C134.274 36.4392 135.316 36.9778 136.828 37.559C138.678 38.2851 140.036 39.134 140.91 40.1074C141.781 41.0776 142.216 42.2919 142.216 43.7409Z" fill="white"/>
<path d="M153.602 37.0241H149.806V44.362C149.806 46.2284 150.475 47.1608 151.816 47.1608C152.431 47.1608 152.942 47.1088 153.346 47.0049L153.441 49.5548C152.762 49.8021 151.869 49.9265 150.763 49.9265C149.402 49.9265 148.339 49.5217 147.572 48.7138C146.808 47.9042 146.424 46.5466 146.424 44.6392V37.021H144.162V34.501H146.424V31.7337L149.806 30.7383V34.501H153.602V37.0241Z" fill="white"/>
<path d="M170.732 41.9364C170.732 44.2596 170.05 46.1669 168.69 47.6584C167.264 49.194 165.37 49.9595 163.01 49.9595C160.736 49.9595 158.925 49.224 157.575 47.7529C156.224 46.2819 155.549 44.4249 155.549 42.1869C155.549 39.8448 156.243 37.9265 157.638 36.435C159.028 34.9419 160.905 34.1953 163.266 34.1953C165.54 34.1953 167.37 34.9308 168.751 36.4035C170.073 37.832 170.732 39.6763 170.732 41.9364ZM167.159 42.0451C167.159 40.6512 166.853 39.4558 166.235 38.4588C165.513 37.2524 164.48 36.6507 163.143 36.6507C161.758 36.6507 160.707 37.254 159.985 38.4588C159.366 39.4574 159.061 40.6717 159.061 42.1081C159.061 43.502 159.366 44.6974 159.985 45.6928C160.729 46.8993 161.77 47.5009 163.112 47.5009C164.427 47.5009 165.459 46.8867 166.204 45.6613C166.839 44.6454 167.159 43.4374 167.159 42.0451Z" fill="white"/>
<path d="M181.926 37.4587C181.585 37.3973 181.222 37.3658 180.841 37.3658C179.629 37.3658 178.692 37.8115 178.033 38.7045C177.46 39.492 177.172 40.4874 177.172 41.6892V49.6193H173.73L173.762 39.2652C173.762 37.5233 173.718 35.9373 173.633 34.5072H176.633L176.759 37.3989H176.854C177.217 36.405 177.791 35.6049 178.576 35.0049C179.343 34.4646 180.172 34.1953 181.065 34.1953C181.383 34.1953 181.671 34.2174 181.926 34.2567V37.4587Z" fill="white"/>
<path d="M197.329 41.3484C197.329 41.95 197.288 42.4572 197.203 42.8714H186.871C186.911 44.3645 187.41 45.5064 188.37 46.2939C189.241 46.9979 190.366 47.3507 191.749 47.3507C193.279 47.3507 194.675 47.1129 195.93 46.6357L196.469 48.9667C195.003 49.5904 193.271 49.9006 191.273 49.9006C188.869 49.9006 186.982 49.2108 185.609 47.8327C184.239 46.4545 183.553 44.6039 183.553 42.2824C183.553 40.0033 184.191 38.1055 185.469 36.5919C186.806 34.9759 188.614 34.168 190.888 34.168C193.122 34.168 194.814 34.9759 195.962 36.5919C196.872 37.8755 197.329 39.4631 197.329 41.3484ZM194.045 40.4774C194.067 39.482 193.843 38.6221 193.376 37.896C192.78 36.962 191.864 36.4958 190.631 36.4958C189.505 36.4958 188.59 36.951 187.89 37.8645C187.317 38.5906 186.976 39.4615 186.871 40.4758H194.045V40.4774Z" fill="white"/>
</svg>
