<?xml version="1.0" encoding="UTF-8"?>
<svg version="1.1" xmlns="http://www.w3.org/2000/svg" width="200" height="200">
<path d="M0 0 C6.32521435 6.60913918 8.47031058 14.65831206 8.69140625 23.63671875 C8.46392523 30.55972451 7.65675106 35.5516706 3.12890625 41.01171875 C-4.14925472 44.65079923 -14.48658772 40.14259666 -21.96777344 38.12060547 C-24.0031806 37.5723097 -26.04223804 37.03952838 -28.08203125 36.5078125 C-29.39217341 36.15847461 -30.70207829 35.8082453 -32.01171875 35.45703125 C-33.77177246 34.98740967 -33.77177246 34.98740967 -35.56738281 34.50830078 C-39.99834762 33.03199315 -42.95109177 31.74040527 -45.4296875 27.71484375 C-47.30112491 23.0723462 -48.51140691 18.3306771 -49.78125 13.49609375 C-50.51175549 10.37646029 -50.51175549 10.37646029 -52.74609375 8.44921875 C-68.69310291 5.07661368 -88.90225388 4.2028293 -104.74609375 8.44921875 C-108.57064212 11.8533965 -109.0659291 17.06983558 -110.11914062 21.87304688 C-111.19066931 26.34298034 -112.29697283 29.36402083 -115.74609375 32.44921875 C-118.91119032 33.82100133 -122.15632181 34.66949212 -125.49609375 35.51171875 C-126.42824707 35.75994385 -127.36040039 36.00816895 -128.32080078 36.26391602 C-130.21923763 36.76636702 -132.11981467 37.26080223 -134.02246094 37.74707031 C-136.50465533 38.38697629 -138.97330908 39.06198614 -141.44140625 39.75390625 C-142.83429463 40.13276557 -144.2275035 40.51044938 -145.62109375 40.88671875 C-147.44253906 41.37978516 -147.44253906 41.37978516 -149.30078125 41.8828125 C-153.13676863 42.51344535 -155.97251122 42.36306223 -159.74609375 41.44921875 C-163.40176976 38.74448618 -164.77127131 34.77005337 -165.74609375 30.44921875 C-166.84354015 19.57927341 -165.57780053 9.83671375 -158.62109375 1.13671875 C-154.5681462 -3.08906238 -149.9404772 -5.91411853 -144.74609375 -8.55078125 C-144.02164063 -8.91945313 -143.2971875 -9.288125 -142.55078125 -9.66796875 C-106.1735081 -26.01872916 -31.38708862 -27.87622859 0 0 Z " fill="#FA5151" transform="translate(178.74609375,124.55078125)"/>
<path d="M0 0 C1.24245483 -0.00430527 1.24245483 -0.00430527 2.51000977 -0.00869751 C4.25830775 -0.01073568 6.00662867 -0.00522306 7.75488281 0.00732422 C10.42825393 0.02338196 13.1001133 0.00746779 15.7734375 -0.01171875 C17.47396166 -0.00973627 19.17448489 -0.00589251 20.875 0 C21.67301025 -0.00607269 22.47102051 -0.01214539 23.29321289 -0.0184021 C26.49971209 0.02215861 29.00834196 0.18801108 31.91015625 1.61083984 C35.47991009 5.78886696 34.54378836 11.4526395 34.421875 16.65625 C34.39713104 17.83355179 34.39713104 17.83355179 34.37188721 19.03463745 C34.33452309 20.68706443 34.29399469 22.33942255 34.25048828 23.99169922 C34.18754247 26.52173049 34.1462274 29.05155775 34.10546875 31.58203125 C34.06643463 33.19013701 34.02611428 34.79821218 33.984375 36.40625 C33.97484802 37.16253693 33.96532104 37.91882385 33.95550537 38.69802856 C33.78514092 43.91053976 33.78514092 43.91053976 32.05175781 46.34326172 C29.77133984 47.83387976 28.16754859 48.26843519 25.4375 48.3984375 C20.84048507 46.20440765 20.84048507 46.20440765 19.4375 43.3984375 C19.2052354 40.68581634 19.01813765 37.99070624 18.875 35.2734375 C18.83181641 34.51933594 18.78863281 33.76523437 18.74414062 32.98828125 C18.6380168 31.12521862 18.53724999 29.26185226 18.4375 27.3984375 C17.95778748 27.88259125 17.47807495 28.366745 16.98382568 28.86557007 C11.99347705 33.90013923 6.99612324 38.92767554 1.99462891 43.95117188 C0.12856058 45.82730249 -1.73570939 47.7052236 -3.59814453 49.58496094 C-6.274268 52.28532207 -8.95677616 54.97919461 -11.640625 57.671875 C-12.47305725 58.51462982 -13.3054895 59.35738464 -14.16314697 60.22567749 C-14.94365417 61.00633575 -15.72416138 61.78699402 -16.52832031 62.59130859 C-17.21226868 63.27969818 -17.89621704 63.96808777 -18.60089111 64.67733765 C-21.45848434 67.18456695 -23.49024806 68.37406814 -27.3125 68.4609375 C-35.5035094 65.7831075 -42.04926712 57.07160395 -48.0234375 51.10546875 C-48.89521637 50.23701828 -49.76699524 49.36856781 -50.66519165 48.47380066 C-52.49343362 46.65059164 -54.32034964 44.82605213 -56.14599609 43.00024414 C-58.94478347 40.20365976 -61.75149292 37.41518969 -64.55859375 34.62695312 C-66.33903044 32.84944778 -68.11899519 31.07146956 -69.8984375 29.29296875 C-70.73796967 28.4606221 -71.57750183 27.62827545 -72.44247437 26.77070618 C-73.21733185 25.99277206 -73.99218933 25.21483795 -74.79052734 24.41333008 C-75.81356461 23.39243034 -75.81356461 23.39243034 -76.85726929 22.35090637 C-79.76671776 19.0196225 -80.60655545 17.25017612 -80.375 12.7734375 C-79.5625 9.3984375 -79.5625 9.3984375 -76.5625 7.3984375 C-73.49194336 6.69921875 -73.49194336 6.69921875 -69.5625 7.3984375 C-65.88975627 10.07922131 -62.83523951 13.31340784 -59.69140625 16.5859375 C-58.769077 17.51817139 -57.84674774 18.45040527 -56.89646912 19.41088867 C-54.45255336 21.88144567 -52.03039274 24.37229402 -49.61224365 26.86804199 C-47.13781486 29.41426547 -44.64328144 31.94062243 -42.15039062 34.46875 C-37.26795549 39.42610632 -32.40822727 44.40520103 -27.5625 49.3984375 C-24.56306095 48.05270863 -22.48173821 46.56306649 -20.17089844 44.23388672 C-19.5305365 43.59337372 -18.89017456 42.95286072 -18.23040771 42.29293823 C-17.55109192 41.60329987 -16.87177612 40.9136615 -16.171875 40.203125 C-15.46726135 39.49568146 -14.76264771 38.78823792 -14.03668213 38.05935669 C-11.7905461 35.80203888 -9.55146991 33.53786117 -7.3125 31.2734375 C-5.78952283 29.74042797 -4.26609061 28.20787035 -2.7421875 26.67578125 C0.98966815 22.92189177 4.71575351 19.16234836 8.4375 15.3984375 C7.59771606 15.38441895 7.59771606 15.38441895 6.7409668 15.37011719 C4.20141854 15.31639243 1.66370889 15.23275563 -0.875 15.1484375 C-2.19661133 15.12716797 -2.19661133 15.12716797 -3.54492188 15.10546875 C-10.03007687 14.85888491 -10.03007687 14.85888491 -12.671875 12.57421875 C-14.05405035 9.19758862 -13.50731605 6.86276303 -12.5625 3.3984375 C-9.08883494 -0.45488134 -4.83521682 -0.036795 0 0 Z " fill="#FA5050" transform="translate(126.5625,25.6015625)"/>
</svg>
