<svg width="22" height="22" viewBox="0 0 22 22" fill="none" xmlns="http://www.w3.org/2000/svg">
<path d="M4.63623 9.38806H5.84831V10.6783H4.63623V9.38806Z" fill="black" stroke="black" stroke-width="0.8"/>
<path d="M8.27246 9.38806H9.48454V10.6783H8.27246V9.38806Z" fill="black" stroke="black" stroke-width="0.8"/>
<path d="M11.9087 9.38806H13.1208V10.6783H11.9087V9.38806Z" fill="black" stroke="black" stroke-width="0.8"/>
<path d="M15.5449 9.38806H16.757V10.6783H15.5449V9.38806Z" fill="black" stroke="black" stroke-width="0.8"/>
<path d="M4.63623 12.6124H5.84831V13.9027H4.63623V12.6124Z" fill="black" stroke="black" stroke-width="0.8"/>
<path d="M8.27246 12.6124H9.48454V13.9027H8.27246V12.6124Z" fill="black" stroke="black" stroke-width="0.8"/>
<path d="M11.9087 12.6124H13.1208V13.9027H11.9087V12.6124Z" fill="black" stroke="black" stroke-width="0.8"/>
<path d="M15.5449 12.6124H16.757V13.9027H15.5449V12.6124Z" fill="black" stroke="black" stroke-width="0.8"/>
<path d="M4.63623 15.839H5.84831V17.1293H4.63623V15.839Z" fill="black" stroke="black" stroke-width="0.8"/>
<path d="M8.27246 15.839H9.48454V17.1293H8.27246V15.839Z" fill="black" stroke="black" stroke-width="0.8"/>
<path d="M11.9087 15.839H13.1208V17.1293H11.9087V15.839Z" fill="black" stroke="black" stroke-width="0.8"/>
<path d="M15.5449 15.839H16.757V17.1293H15.5449V15.839Z" fill="black" stroke="black" stroke-width="0.8"/>
<path d="M5.84872 6.8075C6.00945 6.8075 6.1636 6.73953 6.27725 6.61854C6.39091 6.49755 6.45476 6.33346 6.45476 6.16236V2.2915C6.45476 2.1204 6.39091 1.95631 6.27725 1.83532C6.1636 1.71433 6.00945 1.64636 5.84872 1.64636C5.68798 1.64636 5.53384 1.71433 5.42018 1.83532C5.30653 1.95631 5.24268 2.1204 5.24268 2.2915V6.16236C5.24268 6.33346 5.30653 6.49755 5.42018 6.61854C5.53384 6.73953 5.68798 6.8075 5.84872 6.8075Z" fill="black" stroke="black" stroke-width="0.8"/>
<path d="M13.4244 4.2262H7.66699V5.51648H13.5941C13.483 5.09651 13.426 4.66247 13.4244 4.2262Z" fill="black" stroke="black" stroke-width="0.8"/>
<path d="M19.1814 8.88412V19.7096H2.21224V5.51648H4.03036V4.2262H2.06073C1.91906 4.22872 1.77924 4.26092 1.64927 4.32097C1.51929 4.38102 1.4017 4.46774 1.30321 4.57618C1.20473 4.68462 1.12727 4.81264 1.07527 4.95295C1.02327 5.09326 0.997748 5.24309 1.00016 5.3939V19.8322C0.997748 19.983 1.02327 20.1328 1.07527 20.2731C1.12727 20.4134 1.20473 20.5415 1.30321 20.6499C1.4017 20.7583 1.51929 20.8451 1.64927 20.9051C1.77924 20.9652 1.91906 20.9974 2.06073 20.9999H19.3329C19.4745 20.9974 19.6144 20.9652 19.7443 20.9051C19.8743 20.8451 19.9919 20.7583 20.0904 20.6499C20.1889 20.5415 20.2663 20.4134 20.3183 20.2731C20.3703 20.1328 20.3958 19.983 20.3934 19.8322V8.3164C20.0178 8.56803 19.6094 8.75933 19.1814 8.88412Z" fill="black" stroke="black" stroke-width="0.8"/>
<path d="M17.9697 7.45142C19.6432 7.45142 20.9999 6.00722 20.9999 4.22571C20.9999 2.4442 19.6432 1 17.9697 1C16.2961 1 14.9395 2.4442 14.9395 4.22571C14.9395 6.00722 16.2961 7.45142 17.9697 7.45142Z" fill="black" stroke="black" stroke-width="0.8"/>
</svg>
