<svg width="729" height="453" viewBox="0 0 729 453" fill="none" xmlns="http://www.w3.org/2000/svg">
<g opacity="0.2">
<path d="M3.14062 18.6C3.3445 18.3317 3.54838 18.0578 3.75769 17.8371C3.96428 17.5967 4.17359 17.3759 4.38834 17.1607C4.59765 16.94 4.8124 16.7276 5.02987 16.5207C5.24462 16.3111 5.45937 16.0987 5.67683 15.9003C6.54398 15.0815 7.43016 14.2933 8.31906 13.5108C10.0968 11.9486 11.9018 10.4282 13.715 8.91909C17.3412 5.90358 21.0083 2.94675 24.6862 0.00390625C21.1741 3.15356 17.6701 6.3172 14.2206 9.53113C12.4944 11.1381 10.7792 12.7562 9.09922 14.4051C8.26197 15.2324 7.42744 16.0596 6.62281 16.9092C6.41894 17.1188 6.22322 17.334 6.0275 17.5492C5.82906 17.7616 5.63334 17.9768 5.44849 18.1948C5.25821 18.41 5.07064 18.628 4.90211 18.8488C4.71726 19.0695 4.58134 19.2819 4.43455 19.4915L3.14062 18.6Z" fill="white"/>
<path d="M1.58398 32.7123C1.91834 32.2763 2.23639 31.8068 2.59249 31.4183L3.11441 30.8119C3.28838 30.6107 3.47323 30.4262 3.65264 30.2334C4.36756 29.4564 5.11239 28.7326 5.85449 27.9976C6.60747 27.2821 7.35229 26.5555 8.12158 25.8596L9.266 24.806L10.4213 23.7692C13.5066 21.008 16.6463 18.325 19.805 15.6672C26.1251 10.3545 32.5377 5.16466 38.9665 0C32.7008 5.37426 26.454 10.7709 20.3079 16.2821C17.2362 19.0377 14.1862 21.8156 11.2015 24.6635L10.0842 25.7311L8.9833 26.8126C8.24391 27.5281 7.52899 28.2687 6.80863 29.0009C6.10458 29.7471 5.38966 30.4849 4.72638 31.2562C4.0468 32.0164 3.41886 32.8101 2.88063 33.6038L1.58398 32.7123Z" fill="white"/>
<path d="M0.0253906 46.8307L0.71313 45.8972L1.05836 45.4305C1.17797 45.2824 1.30301 45.1399 1.42533 44.9945C1.92007 44.4244 2.39306 43.8236 2.91226 43.287C3.42603 42.742 3.9262 42.1803 4.45084 41.6493L6.02748 40.0591C8.15594 37.9742 10.3252 35.9424 12.5325 33.9638C16.9416 29.9952 21.4432 26.1497 25.9801 22.3489C30.5143 18.5452 35.0974 14.8087 39.6914 11.0861C44.2854 7.36354 48.912 3.68288 53.5386 0.0078125C48.9908 3.78908 44.4457 7.57314 39.936 11.3991C35.4236 15.2223 30.9247 19.0651 26.4802 22.9665C22.033 26.8679 17.6212 30.8085 13.3153 34.8609C11.157 36.8815 9.04755 38.9495 6.98433 41.0596L5.46206 42.6637C4.95645 43.2003 4.48074 43.7565 3.98873 44.3042C3.48583 44.8436 3.05362 45.4249 2.58606 45.9867C2.47189 46.1292 2.35501 46.2689 2.24355 46.4115L1.93366 46.8502L1.3166 47.7278L0.0253906 46.8307Z" fill="white"/>
<path d="M0.0976562 58.696C2.51154 55.7084 5.18638 53.0367 7.88569 50.3984C10.585 47.7574 13.3767 45.2366 16.1712 42.7185C21.7873 37.716 27.5257 32.8671 33.3103 28.0853C44.8877 18.5274 56.6526 9.22372 68.4747 0.00390625C56.8103 9.43611 45.2057 18.9494 33.8023 28.7058C28.1047 33.5854 22.4587 38.532 16.9432 43.6184C14.2004 46.1784 11.4603 48.7412 8.82895 51.4073C6.1976 54.0679 3.588 56.776 1.30732 59.7021L0.0976562 58.696Z" fill="white"/>
<path d="M0.0800781 70.8212C3.0784 67.2775 6.33769 64.0272 9.63231 60.8273L12.1277 58.4545C12.9623 57.6664 13.8158 56.9035 14.6558 56.1237C16.3357 54.5643 18.0537 53.0495 19.7663 51.5292C26.6301 45.4674 33.6515 39.6097 40.7355 33.833C47.8195 28.0619 54.9742 22.3802 62.1587 16.746C69.3514 11.1202 76.5822 5.54753 83.832 0C76.6611 5.65373 69.5091 11.3326 62.3979 17.0618C55.2922 22.7994 48.2218 28.5845 41.2248 34.4562C34.2278 40.3307 27.2961 46.2863 20.5356 52.4347C18.8502 53.9746 17.1594 55.5117 15.5066 57.0879C14.6775 57.8732 13.8376 58.6474 13.0221 59.4439L10.5756 61.8389C7.34891 65.0641 4.15758 68.3395 1.27071 71.8524L0.0800781 70.8212Z" fill="white"/>
<path d="M0.115234 82.9039C7.32426 74.6874 15.3488 67.3904 23.4739 60.2526C31.618 53.1345 39.9579 46.2678 48.3739 39.5074C56.7953 32.7525 65.2982 26.1095 73.8501 19.5363C82.4074 12.9714 91.011 6.46811 99.6417 0.00390625C91.0898 6.57431 82.5651 13.1838 74.0866 19.8549C65.6136 26.5343 57.1922 33.2807 48.8577 40.1362C40.526 46.9945 32.2786 53.9617 24.235 61.1637C16.2187 68.3797 8.29743 75.769 1.28956 83.9575L0.115234 82.9039Z" fill="white"/>
<path d="M1.65625 93.2712L4.83399 89.8756L5.62774 89.026L6.44596 88.2044L8.0824 86.5611L9.71884 84.9178C10.2598 84.3644 10.8306 83.8474 11.3879 83.308L14.7396 80.1109C15.8677 79.0573 17.0121 78.026 18.1484 76.9808C19.2901 75.9439 20.4155 74.8903 21.5789 73.8786C23.895 71.8441 26.1865 69.7816 28.5379 67.7945C37.8835 59.768 47.4466 52.0239 57.1022 44.411C66.7631 36.8038 76.5165 29.3251 86.3379 21.9442C96.1592 14.5633 106.035 7.25791 115.943 0C106.111 7.3669 96.3142 14.7785 86.5717 22.2656C76.8291 29.7527 67.1573 37.3376 57.5806 45.0454C48.0093 52.7589 38.5359 60.6009 29.2936 68.714C26.9667 70.7234 24.7023 72.8055 22.4135 74.8596C21.2636 75.8796 20.1518 76.9417 19.0264 77.9897C17.9065 79.0433 16.7729 80.0829 15.6611 81.1449L12.3583 84.3644C11.812 84.9038 11.2493 85.4292 10.7165 85.9826L9.10721 87.6343L7.49796 89.286L6.69333 90.1104L5.91588 90.96L2.80339 94.3584L1.65625 93.2712Z" fill="white"/>
<path d="M0.164062 107.098L3.79304 103.129L4.70097 102.137L5.63879 101.179L7.51716 99.2643L9.39554 97.3499L9.86581 96.872L10.347 96.408L11.312 95.4802L15.1747 91.7688C16.4714 90.5419 17.7979 89.3541 19.1082 88.144C20.4293 86.9451 21.7232 85.7182 23.0715 84.5528L27.0838 81.0231C27.7552 80.4362 28.4157 79.8409 29.0926 79.2624L31.1259 77.5324C41.9503 68.2791 53.0602 59.3947 64.2842 50.6807C75.5164 41.9723 86.8654 33.4261 98.3015 25.0111C109.738 16.5906 121.239 8.26792 132.778 0.00390625C121.312 8.37691 109.89 16.8086 98.5352 25.3381C87.1753 33.862 75.9105 42.5117 64.7626 51.3207C53.6229 60.1381 42.6055 69.1203 31.8843 78.4575L29.87 80.2042C29.1986 80.7855 28.5435 81.3892 27.8802 81.9789L23.9115 85.5393C22.5767 86.7131 21.2991 87.9484 19.9943 89.1557C18.7004 90.3742 17.3847 91.5704 16.1071 92.8056L12.2933 96.531L11.3419 97.4644L10.8662 97.9312L10.404 98.4119L8.55285 100.332L6.70166 102.252L5.77743 103.213L4.88853 104.205L1.32751 108.171L0.164062 107.098Z" fill="white"/>
<path d="M0.123047 119.262C10.904 107.25 22.8239 96.4656 35.051 86.1279C47.2862 75.793 59.8558 65.8969 72.564 56.2048C85.2777 46.5182 98.1408 37.0441 111.099 27.7097C124.055 18.3725 137.086 9.15273 150.164 0C137.16 9.26173 124.202 18.5905 111.325 28.0367C98.4453 37.4773 85.6609 47.0576 73.0315 56.8448C60.4076 66.6375 47.9277 76.6314 35.7985 87.0502C23.6802 97.4661 11.8771 108.335 1.28378 120.33L0.123047 119.262Z" fill="white"/>
<path d="M0.123047 131.376C3.17574 128.092 6.15232 124.73 9.36267 121.611L11.7303 119.233L12.9128 118.042C13.3124 117.651 13.7229 117.273 14.1279 116.888L19.0019 112.285C20.6084 110.731 22.2965 109.269 23.952 107.774L28.9401 103.311L34.018 98.9568L36.5569 96.7797C36.981 96.4192 37.3996 96.0503 37.8291 95.6954L39.1176 94.6306C52.8044 83.2085 66.8827 72.3063 81.124 61.65C84.6987 59.0034 88.2542 56.3344 91.8424 53.7074L102.618 45.8514L113.451 38.0793C117.063 35.4941 120.703 32.9398 124.327 30.3714C138.853 20.1315 153.473 10.0286 168.138 0.00390625C153.546 10.1404 139 20.3523 124.552 30.7012C120.948 33.3003 117.33 35.877 113.733 38.4901L102.958 46.3433L92.242 54.2775C88.6756 56.9297 85.139 59.6266 81.5862 62.2956C67.4291 73.0553 53.4405 84.0553 39.8597 95.5584L38.5821 96.6316C38.158 96.9893 37.7421 97.361 37.3208 97.7243L34.8036 99.9154L29.7665 104.3L24.8246 108.789C23.1827 110.292 21.5136 111.762 19.9234 113.322L15.1011 117.941C14.7015 118.327 14.2937 118.707 13.8996 119.101L12.7307 120.295L10.3929 122.678C7.22062 125.806 4.29298 129.165 1.28378 132.449L0.123047 131.376Z" fill="white"/>
<path d="M0.09375 143.513C3.38022 139.835 6.75911 136.25 10.2304 132.765C13.7153 129.294 17.2465 125.876 20.8646 122.558C28.079 115.899 35.5028 109.49 43.0571 103.255C58.1683 90.7852 73.7362 78.9299 89.4944 67.3626C105.258 55.798 121.234 44.552 137.31 33.4597C153.386 22.3702 169.574 11.4568 185.808 0.613281C169.645 11.5686 153.528 22.5938 137.53 33.7979C121.53 44.9991 105.63 56.3541 89.9511 68.0193C74.2772 79.6873 58.799 91.6432 43.7937 104.194C36.2911 110.468 28.9272 116.916 21.7806 123.604C18.1952 126.935 14.6994 130.361 11.2552 133.841C7.8247 137.331 4.4893 140.917 1.25176 144.589L0.09375 143.513Z" fill="white"/>
<path d="M0.0957031 155.613C7.33463 147.511 15.0411 139.876 23.0249 132.587C31.0032 125.288 39.218 118.27 47.5796 111.454C64.3164 97.8322 81.5806 84.929 99.0622 72.3639C116.549 59.8044 134.284 47.6138 152.121 35.5909C169.959 23.5707 187.925 11.7518 205.931 0C187.995 11.8664 170.101 23.7971 152.336 35.9262C134.575 48.0581 116.916 60.3577 99.5107 73.0206C82.1134 85.6891 64.9362 98.693 48.3081 112.396C40.0009 119.254 31.8459 126.308 23.9355 133.633C16.017 140.949 8.39207 148.598 1.251 156.689L0.0957031 155.613Z" fill="white"/>
<path d="M0.183594 167.609C8.0858 158.798 16.4882 150.489 25.2222 142.583C33.9453 134.662 42.9403 127.072 52.0957 119.702C61.251 112.33 70.5776 105.189 79.9967 98.1883C89.4212 91.1903 98.9435 84.3376 108.536 77.5911C127.728 64.1066 147.183 51.03 166.758 38.1463C186.333 25.2654 206.041 12.6025 225.787 0.00390625C206.111 12.7143 186.474 25.4918 166.973 38.4817C147.471 51.4744 128.092 64.6627 108.982 78.2507C99.4301 85.0475 89.9512 91.9504 80.573 98.9987C71.1974 106.047 61.9225 113.235 52.8215 120.647C43.7205 128.058 34.7853 135.685 26.1328 143.631C17.4668 151.562 9.14323 159.885 1.34161 168.685L0.183594 167.609Z" fill="white"/>
<path d="M0.125 179.766L3.36526 176.211C3.90893 175.622 4.44172 175.021 4.99082 174.439L6.65173 172.704C7.76081 171.55 8.86173 170.384 9.97897 169.239L13.3742 165.843L15.0759 164.149L16.8047 162.489L20.2652 159.166L23.7827 155.908C24.957 154.823 26.1205 153.731 27.3192 152.674C36.8117 144.122 46.6086 135.945 56.5876 128.016C76.5592 112.173 97.2294 97.3022 118.172 82.8786C139.124 68.4634 160.371 54.5149 181.743 40.7761C203.12 27.0428 224.63 13.5359 246.17 0.0820312C224.698 13.6504 203.258 27.2719 181.952 41.1142C160.654 54.9649 139.481 69.0224 118.609 83.541C97.7486 98.0708 77.1681 113.039 57.3079 128.964C47.3833 136.931 37.6462 145.145 28.2244 153.722C27.0338 154.781 25.8785 155.877 24.7151 156.964L21.2274 160.228L17.7969 163.557L16.0816 165.22L14.3963 166.916L11.0337 170.314C9.9246 171.46 8.83727 172.626 7.73906 173.78L6.09447 175.515C5.5508 176.097 5.02344 176.698 4.48793 177.287L1.28029 180.845L0.125 179.766Z" fill="white"/>
<path d="M0.00585938 191.991L3.5098 188.148L5.26584 186.231L7.06538 184.355L10.6645 180.61L14.3424 176.949L16.1827 175.119L18.0556 173.327L21.8069 169.747C23.0601 168.56 24.3486 167.405 25.6153 166.234L27.5236 164.482C28.157 163.895 28.7958 163.314 29.4454 162.747C39.7398 153.541 50.3794 144.757 61.2228 136.261C82.926 119.283 105.418 103.417 128.208 88.0574C151.009 72.7088 174.14 57.8855 197.395 43.2859C220.661 28.7002 244.055 14.3381 267.468 0.00390625C244.123 14.4527 220.795 28.9293 197.602 43.6324C174.417 58.3466 151.36 73.2789 128.64 88.7337C105.931 104.2 83.5295 120.163 61.9377 137.222C51.1487 145.757 40.5716 154.575 30.3479 163.806C29.7037 164.376 29.0703 164.96 28.4397 165.547L26.545 167.302C25.2864 168.476 24.0088 169.633 22.7638 170.823L19.0424 174.409L17.183 176.203L15.359 178.034L11.711 181.698L8.14728 185.442L6.36677 187.315L4.62975 189.232L1.16115 193.069L0.00585938 191.991Z" fill="white"/>
<path d="M0.125 203.94C10.0877 192.839 20.7599 182.451 31.848 172.58C42.9578 162.731 54.451 153.358 66.1751 144.311C77.9021 135.265 89.8573 126.545 101.959 118.047C114.061 109.551 126.307 101.275 138.646 93.1511C163.326 76.9081 188.362 61.2493 213.523 45.8196C238.692 30.401 263.991 15.2089 289.277 0C264.054 15.3235 238.822 30.6302 213.721 46.1633C188.628 61.7048 163.666 77.4754 139.065 93.8246C126.767 102.002 114.564 110.327 102.508 118.874C90.4553 127.42 78.5463 136.184 66.8792 145.27C55.2121 154.358 43.7788 163.763 32.7423 173.636C21.7276 183.53 11.1397 193.932 1.27757 205.016L0.125 203.94Z" fill="white"/>
<path d="M0.318359 215.806C10.996 203.925 22.4701 192.841 34.3791 182.311C46.3181 171.808 58.6974 161.856 71.3213 152.259C83.9507 142.667 96.8356 133.439 109.878 124.463C122.924 115.486 136.126 106.758 149.427 98.1978C176.037 81.0801 203.027 64.6079 230.143 48.3678C257.261 32.1304 284.504 16.111 311.696 0.0078125C284.569 16.2284 257.392 32.3624 230.341 48.7143C203.294 65.0719 176.374 81.6558 149.843 98.8797C136.58 107.493 123.421 116.274 110.422 125.298C97.4255 134.325 84.5895 143.598 72.0172 153.229C59.4476 162.865 47.1336 172.853 35.268 183.378C23.4351 193.928 12.0453 205.026 1.47093 216.89L0.318359 215.806Z" fill="white"/>
<path d="M0.125 228.1C11.5121 215.412 23.7745 203.599 36.5262 192.403C37.3118 191.69 38.1273 191.011 38.9293 190.321L41.3459 188.256C42.9606 186.881 44.5617 185.492 46.1872 184.131L51.0965 180.092C52.7357 178.751 54.3585 177.384 56.0249 176.082C62.6413 170.791 69.3257 165.59 76.108 160.532C89.6562 150.387 103.487 140.656 117.492 131.201C131.5 121.749 145.678 112.574 159.966 103.584C188.547 85.6109 217.538 68.345 246.64 51.2944C275.748 34.2438 304.962 17.3971 334.075 0.363281C305.027 17.5117 275.876 34.4757 246.839 51.6409C217.801 68.8062 188.881 86.1838 160.379 104.266C146.132 113.309 131.994 122.535 118.033 132.037C104.074 141.539 90.2922 151.318 76.8038 161.502C70.0515 166.583 63.397 171.8 56.8132 177.107C55.1523 178.415 53.5403 179.785 51.9093 181.129L47.0272 185.179C45.4098 186.542 43.8168 187.934 42.213 189.312L39.81 191.383C39.0108 192.076 38.2007 192.755 37.4206 193.471C24.7395 204.686 12.5641 216.51 1.27757 229.179L0.125 228.1Z" fill="white"/>
<path d="M0 240.318C12.1482 226.769 25.2642 214.182 38.9211 202.29L40.196 201.167C40.6228 200.795 41.0578 200.435 41.49 200.068L44.0833 197.877L49.2699 193.498L54.5353 189.219L57.1693 187.081C58.0501 186.371 58.9199 185.648 59.8143 184.96L65.1558 180.785C66.939 179.396 68.706 177.987 70.5191 176.637L75.9259 172.552L78.6279 170.509L81.3598 168.508C95.9002 157.79 110.756 147.536 125.799 137.589C140.845 127.646 156.079 118.012 171.429 108.58C202.13 89.7186 233.277 71.6451 264.502 53.7337C295.731 35.8223 327.049 18.0813 358.187 0.0078125C327.111 18.1959 295.853 36.0542 264.69 54.0802C233.53 72.1062 202.451 90.2943 171.826 109.265C156.516 118.753 141.324 128.437 126.324 138.428C111.327 148.422 96.5227 158.723 82.0394 169.48L79.3184 171.49L76.6272 173.538L71.2422 177.638C69.4372 178.991 67.6784 180.405 65.9034 181.796L60.5863 185.986C59.6947 186.676 58.8302 187.403 57.9522 188.113L55.3317 190.256L50.0935 194.546L44.9341 198.937L42.3544 201.13C41.9249 201.499 41.49 201.857 41.0686 202.232L39.8019 203.358C26.2211 215.272 13.1948 227.868 1.14986 241.397L0 240.318Z" fill="white"/>
<path d="M0.126953 252.252C13.0309 237.878 26.9896 224.55 41.5408 211.993C42.4515 211.208 43.3431 210.403 44.2673 209.635L47.0346 207.329L52.5691 202.715C53.4852 201.938 54.4285 201.195 55.3636 200.446L58.1743 198.199L63.7986 193.702L69.5016 189.314L72.3532 187.12C73.3046 186.391 74.2478 185.65 75.2156 184.943L80.992 180.659C82.9221 179.236 84.8303 177.783 86.7875 176.4C102.309 165.143 118.173 154.403 134.239 144.003C150.31 133.604 166.584 123.552 182.979 113.711C215.77 94.0336 249.034 75.2167 282.337 56.4865C315.642 37.759 349.006 19.1433 382.091 0.0078125C349.072 19.2607 315.767 37.9937 282.524 56.8358C249.287 75.6834 216.088 94.6149 183.373 114.402C167.017 124.295 150.783 134.403 134.761 144.85C118.739 155.3 102.926 166.087 87.4644 177.381C85.5154 178.767 83.6152 180.229 81.6934 181.654L75.9414 185.952C74.9764 186.662 74.0385 187.405 73.0898 188.135L70.2492 190.334L64.5706 194.733L58.9708 199.241L56.1709 201.494C55.2385 202.245 54.3007 202.992 53.39 203.769L47.8827 208.391L45.129 210.702C44.2102 211.471 43.3213 212.279 42.4161 213.064C27.9437 225.646 14.0775 238.979 1.27681 253.333L0.126953 252.252Z" fill="white"/>
<path d="M0.126953 264.321C13.792 249.098 28.607 235.018 44.0716 221.782L46.9612 219.289L49.9051 216.861L55.7958 212.012C57.7448 210.377 59.7618 208.832 61.7516 207.253L67.7401 202.535C68.7323 201.739 69.7544 200.99 70.7656 200.218L73.8047 197.921L79.8802 193.324C83.9849 190.339 88.0787 187.332 92.197 184.367C108.722 172.573 125.622 161.352 142.739 150.506C159.859 139.662 177.199 129.196 194.665 118.959C229.601 98.4901 265.026 78.9382 300.441 59.3751C335.858 39.8204 371.294 20.2936 406.32 0.00390625C371.359 20.411 335.983 40.0552 300.625 59.7272C265.274 79.4077 229.911 99.0742 195.051 119.655C177.623 129.948 160.324 140.467 143.25 151.358C126.179 162.252 109.331 173.52 92.8657 185.353C88.761 188.329 84.6862 191.345 80.5951 194.338L74.5441 198.947L71.5186 201.252C70.5128 202.024 69.4935 202.778 68.5067 203.575L62.5454 208.303C60.5637 209.885 58.5549 211.436 56.614 213.074L50.7505 217.931L47.8229 220.363L44.9469 222.861C29.5584 236.114 14.8359 250.202 1.27681 265.402L0.126953 264.321Z" fill="white"/>
<path d="M0.126953 276.392C14.5586 260.317 30.2353 245.477 46.6241 231.571C63.0211 217.664 80.1385 204.688 97.669 192.352C115.205 180.022 133.16 168.343 151.343 157.066C169.531 145.792 187.95 134.929 206.503 124.315C243.617 103.091 281.219 82.8128 318.757 62.4197C356.297 42.0293 393.799 21.5552 430.728 0.0078125C393.865 21.6697 356.419 42.2641 318.939 62.7746C281.461 83.2879 243.918 103.684 206.881 125.016C188.366 135.686 169.985 146.602 151.843 157.927C133.706 169.254 115.8 180.978 98.3269 193.347C80.8588 205.719 63.8067 218.732 47.4913 232.655C31.184 246.575 15.6024 261.421 1.27681 277.474L0.126953 276.392Z" fill="white"/>
<path d="M0.126953 288.46C7.71383 279.984 15.6432 271.843 23.8363 263.998C32.0321 256.153 40.4861 248.602 49.1603 241.327C66.5006 226.766 84.6183 213.22 103.176 200.376C121.74 187.534 140.755 175.397 160.017 163.709C179.282 152.024 198.799 140.789 218.445 129.806C257.744 107.848 297.546 86.8763 337.209 65.642C376.869 44.4077 416.424 22.9358 455.193 0.0078125C416.492 23.0503 376.992 44.6424 337.391 65.9969C297.788 87.3514 258.045 108.44 218.82 130.51C199.21 141.55 179.733 152.838 160.514 164.573C141.298 176.31 122.338 188.495 103.834 201.374C85.3359 214.254 67.2862 227.837 50.0275 242.414C41.3967 249.697 32.9835 257.254 24.8366 265.099C16.6898 272.944 8.81204 281.082 1.27953 289.544L0.126953 288.46Z" fill="white"/>
<path d="M0 300.668C15.9376 282.854 33.3268 266.469 51.5804 251.229C69.8531 236.003 88.9712 221.882 108.565 208.537C128.164 195.192 148.247 182.619 168.594 170.534C188.943 158.453 209.562 146.857 230.308 135.522C271.809 112.859 313.818 91.2198 355.594 69.1191C397.364 47.0184 438.946 24.4929 479.482 0.0585938C439.011 24.6075 397.486 47.2532 355.773 69.474C314.055 91.6949 272.103 113.452 230.675 136.229C209.964 147.62 189.387 159.269 169.083 171.401C148.783 183.535 128.751 196.153 109.212 209.537C89.6779 222.921 70.6333 237.074 52.4422 252.316C34.2701 267.573 16.976 283.958 1.14986 301.749L0 300.668Z" fill="white"/>
<path d="M0.126953 312.587C16.8284 293.933 35.0902 276.815 54.2708 260.924C73.4704 245.045 93.5942 230.389 114.221 216.569C134.856 202.752 156.007 189.773 177.436 177.32C198.867 164.869 220.581 152.944 242.423 141.282C286.112 117.963 330.307 95.6859 374.154 72.7048C417.992 49.721 461.543 26.0776 503.731 0C461.611 26.1922 418.115 49.9585 374.333 73.0626C330.541 96.1638 286.4 118.561 242.785 141.995C220.978 153.713 199.305 165.694 177.917 178.195C156.535 190.698 135.432 203.722 114.86 217.578C94.2956 231.437 74.2424 246.123 55.1271 262.02C36.0307 277.924 17.8668 295.042 1.27681 313.672L0.126953 312.587Z" fill="white"/>
<path d="M0.126953 324.654C17.5624 305.178 36.6587 287.336 56.7418 270.825C66.7833 262.566 77.0831 254.641 87.5786 247.003C98.0714 239.362 108.749 231.998 119.571 224.863C141.214 210.596 163.409 197.242 185.895 184.448C208.384 171.657 231.169 159.43 254.077 147.465C299.9 123.543 346.22 100.668 392.065 76.8092C414.986 64.8813 437.793 52.713 460.341 40.0557C482.887 27.3956 505.18 14.2492 527.025 0.339844C505.216 14.3051 482.953 27.513 460.434 40.2318C437.912 52.9506 415.135 65.1775 392.239 77.1669C346.448 101.148 300.18 124.143 254.427 148.181C231.553 160.201 208.808 172.484 186.366 185.326C163.926 198.167 141.782 211.568 120.201 225.874C109.412 233.029 98.7672 240.407 88.3125 248.065C77.8551 255.716 67.5961 263.654 57.5953 271.92C37.5965 288.446 18.6008 306.287 1.27681 325.738L0.126953 324.654Z" fill="white"/>
<path d="M0.126953 336.716C18.3208 316.389 38.2815 297.802 59.3079 280.656C69.8224 272.082 80.6087 263.86 91.5963 255.945C102.589 248.036 113.786 240.429 125.13 233.07C147.822 218.353 171.105 204.625 194.689 191.499C218.276 178.372 242.17 165.846 266.184 153.577C314.217 129.05 362.734 105.552 410.612 80.7268C434.553 68.3154 458.335 55.5799 481.789 42.2267C505.243 28.8734 528.37 14.8998 550.933 0.00390625C528.406 14.9557 505.308 28.988 481.884 42.4027C458.458 55.8174 434.699 68.6145 410.789 81.0845C362.962 106.033 314.497 129.651 266.532 154.295C242.554 166.62 218.695 179.202 195.154 192.379C171.616 205.559 148.385 219.331 125.755 234.087C114.441 241.466 103.28 249.09 92.3248 257.013C81.3726 264.944 70.6297 273.175 60.1587 281.757C39.2194 298.917 19.3592 317.505 1.27953 337.803L0.126953 336.716Z" fill="white"/>
<path d="M0.126953 348.776C19.0493 327.634 39.8419 308.328 61.7734 290.576C83.7131 272.819 106.786 256.584 130.49 241.451C154.2 226.314 178.537 212.248 203.184 198.817C227.837 185.388 252.805 172.594 277.887 160.051C328.056 134.977 378.685 110.892 428.504 85.1023C453.412 72.2102 478.119 58.8933 502.418 44.8218C526.715 30.7504 550.606 15.9216 573.805 0C550.645 15.9775 526.783 30.865 502.514 44.9951C478.242 59.1253 453.562 72.5036 428.681 85.4572C378.914 111.37 328.333 135.581 278.229 160.77C253.18 173.368 228.247 186.218 203.641 199.7C179.037 213.182 154.754 227.295 131.107 242.468C107.466 257.64 84.4715 273.903 62.6188 291.675C40.7742 309.441 20.085 328.744 1.27681 349.858L0.126953 348.776Z" fill="white"/>
<path d="M0.126953 360.837C19.7642 338.893 41.375 318.882 64.2009 300.538C87.0349 282.185 111.076 265.475 135.78 249.934C160.49 234.389 185.871 220.013 211.57 206.3C237.275 192.589 263.305 179.551 289.442 166.754C341.716 141.163 394.422 116.508 446.122 89.7175C471.968 76.3251 497.561 62.4018 522.659 47.573C547.752 32.7441 572.353 17.007 596.114 0.00390625C572.388 17.0601 547.823 32.8587 522.757 47.7462C497.689 62.6365 472.12 76.6214 446.298 90.0752C394.647 116.991 341.988 141.772 289.779 167.478C263.675 180.334 237.68 193.43 212.021 207.191C186.366 220.955 161.039 235.379 136.394 250.959C111.755 266.537 87.7906 283.275 65.0463 301.642C42.3074 320 20.7999 340.008 1.27681 361.921L0.126953 360.837Z" fill="white"/>
<path d="M0.126953 372.895C20.4683 350.163 42.881 329.459 66.5876 310.539C90.2996 291.607 115.297 274.437 140.991 258.515C166.693 242.594 193.099 227.916 219.837 213.945C246.579 199.977 273.66 186.716 300.832 173.673C355.177 147.598 409.922 122.381 463.44 94.5512C490.194 80.6391 516.638 66.0785 542.484 50.4504C568.327 34.8251 593.575 18.1294 617.831 0C593.613 18.1853 568.398 34.9397 542.582 50.6237C516.763 66.3105 490.344 80.9353 463.614 94.9089C410.142 122.862 355.441 148.204 301.158 174.397C274.018 187.498 246.974 200.815 220.277 214.836C193.588 228.863 167.234 243.588 141.597 259.546C115.966 275.504 91.0472 292.703 67.4275 311.648C43.8106 330.58 21.5012 351.278 1.27681 373.979L0.126953 372.895Z" fill="white"/>
<path d="M0.126953 384.955C21.156 361.452 44.357 340.069 68.9308 320.584C93.51 301.091 119.448 283.47 146.123 267.194C172.804 250.912 200.226 235.96 227.989 221.752C255.754 207.543 283.867 194.078 312.059 180.806C368.44 154.276 425.188 128.508 480.463 99.5996C508.092 85.1481 535.349 69.9168 561.898 53.4559C588.443 36.9977 614.284 19.2987 638.969 0.00390625C614.322 19.3518 588.516 37.1095 562.002 53.6291C535.482 70.1516 508.249 85.4471 480.642 99.9601C425.413 128.995 368.709 154.888 312.388 181.538C284.226 194.866 256.148 208.393 228.426 222.651C200.71 236.913 173.339 251.912 146.724 268.228C120.117 284.544 94.2575 302.189 69.7707 321.697C45.2894 341.19 22.1944 362.567 1.28225 386.04L0.126953 384.955Z" fill="white"/>
<path d="M0.126953 397.013C21.8329 372.749 45.8059 350.699 71.2332 330.669C96.666 310.625 123.531 292.574 151.174 275.956C178.822 259.336 207.248 244.133 236.019 229.704C264.795 215.277 293.925 201.622 323.12 188.138C352.317 174.653 381.586 161.339 410.68 147.637C439.774 133.934 468.703 119.843 497.18 104.832C525.655 89.8248 553.686 73.892 580.889 56.5591C608.088 39.2318 634.462 20.4904 659.514 0.0078125C634.5 20.5435 608.162 39.3408 580.989 56.7296C553.814 74.124 525.807 90.1182 497.357 105.19C468.901 120.265 439.995 134.42 410.922 148.184C381.849 161.951 352.603 175.327 323.438 188.87C294.273 202.416 265.176 216.127 236.443 230.606C207.715 245.086 179.341 260.337 151.761 276.996C124.186 293.65 97.3999 311.729 72.0623 331.784C46.7301 351.825 22.8631 373.867 1.27409 398.1L0.126953 397.013Z" fill="white"/>
<path d="M0.126953 409.067C22.4961 384.057 47.2303 361.35 73.4976 340.784C99.7703 320.203 127.554 301.736 156.149 284.797C184.751 267.852 214.169 252.417 243.937 237.787C273.711 223.159 303.844 209.336 334.028 195.648C364.213 181.962 394.454 168.41 424.481 154.37C454.508 140.334 484.325 125.81 513.618 110.218C542.908 94.6295 571.674 77.9673 599.488 59.7289C627.299 41.5017 654.151 21.6871 679.518 0C654.191 21.7402 627.375 41.6107 599.594 59.8994C571.81 78.1965 543.066 94.9229 513.8 110.573C484.529 126.229 454.731 140.818 424.726 154.917C394.721 169.02 364.501 182.633 334.346 196.38C304.192 210.13 274.092 224.011 244.361 238.689C214.636 253.37 185.273 268.853 156.736 285.836C128.207 302.814 100.504 321.307 74.3267 341.896C48.1545 362.476 23.5291 385.175 1.27681 410.152L0.126953 409.067Z" fill="white"/>
<path d="M0.126953 421.124C23.1485 395.381 48.6302 372.026 75.7266 350.937C102.826 329.831 131.518 310.964 161.058 293.717C190.606 276.466 221.003 260.815 251.758 246.003C282.519 231.191 313.641 217.215 344.798 203.333C375.956 189.452 407.152 175.668 438.092 161.289C469.029 146.913 499.716 131.945 529.792 115.749C559.865 99.5594 589.332 82.1342 617.711 62.968C646.088 43.8101 673.369 22.8972 699.006 0C673.41 22.9475 646.167 43.9191 617.817 63.1357C589.468 82.3634 560.026 99.8528 529.974 116.107C499.918 132.367 469.249 147.4 438.334 161.84C407.415 176.28 376.239 190.128 345.111 204.071C313.983 218.014 282.891 232.049 252.177 246.914C221.465 261.779 191.123 277.477 161.642 294.766C132.17 312.048 103.562 330.943 76.5584 352.057C49.5518 373.152 24.1815 396.496 1.27681 422.208L0.126953 421.124Z" fill="white"/>
<path d="M0.117188 435.917C11.6429 422.455 23.8428 409.608 36.6081 397.392C49.3735 385.173 62.7015 373.586 76.478 362.6C104.034 340.617 133.354 321.059 163.603 303.274C193.864 285.483 225.054 269.435 256.628 254.296C288.209 239.16 320.182 224.926 352.183 210.785C384.186 196.647 416.227 182.597 447.982 167.883C479.732 153.172 511.205 137.792 541.99 121.046C572.773 104.306 602.87 86.1877 631.734 66.1411C660.597 46.1085 688.21 24.1308 713.961 0.00390625C688.253 24.1783 660.676 46.2119 631.842 66.306C603.009 86.4113 572.933 104.594 542.173 121.401C511.406 138.212 479.953 153.658 448.221 168.434C416.488 183.212 384.466 197.323 352.49 211.523C320.514 225.726 288.574 240.018 257.038 255.207C225.508 270.397 194.372 286.491 164.182 304.319C134.003 322.141 104.77 341.721 77.3125 363.71C63.5876 374.699 50.3113 386.283 37.6031 398.493C24.8948 410.7 12.7547 423.537 1.28607 436.976L0.117188 435.917Z" fill="white"/>
<path d="M0.107422 451.107C11.606 437.033 23.8412 423.596 36.7044 410.835C49.5648 398.071 63.0505 385.979 77.0282 374.534C104.992 351.634 134.91 331.358 165.847 313.014C196.798 294.661 228.771 278.214 261.155 262.753C293.546 247.293 326.365 232.814 359.205 218.426C392.048 204.039 424.932 189.744 457.495 174.703C490.055 159.667 522.303 143.882 553.786 126.583C585.265 109.289 615.977 90.464 645.291 69.5148C674.603 48.5794 702.501 25.5006 728.29 0.113281C702.545 25.5509 674.685 48.6857 645.403 69.6796C616.118 90.6904 585.428 109.58 553.971 126.938C522.509 144.302 490.275 160.151 457.734 175.253C425.19 190.356 392.328 204.718 359.512 219.164C326.697 233.613 293.913 248.151 261.565 263.665C229.225 279.178 197.309 295.673 166.432 314.059C135.565 332.437 105.737 352.735 77.879 375.635C63.9503 387.08 50.5217 399.167 37.7183 411.919C24.915 424.672 12.7395 438.089 1.30077 452.141L0.107422 451.107Z" fill="white"/>
</g>
</svg>
