<svg width="530" height="486" viewBox="0 0 530 486" fill="none" xmlns="http://www.w3.org/2000/svg">
<line x1="37.6152" y1="167.117" x2="37.6152" y2="191.903" stroke="white"/>
<line x1="160.68" y1="137.023" x2="160.68" y2="152.957" stroke="white"/>
<line x1="174.354" y1="85.6758" x2="174.354" y2="101.609" stroke="white"/>
<line x1="307.186" y1="122.859" x2="307.186" y2="138.793" stroke="white"/>
<line x1="490.807" y1="124.629" x2="490.807" y2="183.052" stroke="white"/>
<line x1="404.855" y1="87.4492" x2="404.855" y2="207.837" stroke="white"/>
<line x1="88.4043" y1="92.7617" x2="88.4043" y2="163.578" stroke="white"/>
<line x1="160.18" y1="152.453" x2="201.201" y2="152.453" stroke="white"/>
<line x1="173.854" y1="101.113" x2="214.875" y2="101.113" stroke="white"/>
<line x1="306.686" y1="122.359" x2="347.707" y2="122.359" stroke="white"/>
<line x1="320.359" y1="182.551" x2="492.259" y2="182.551" stroke="white"/>
<line x1="320.359" y1="209.109" x2="406.309" y2="209.109" stroke="white"/>
<line x1="183.621" y1="192.406" x2="37.1154" y2="192.406" stroke="white"/>
<line x1="236.363" y1="162.305" x2="89.8575" y2="162.305" stroke="white"/>
<path d="M309.543 361.184L263.896 400.465L321.092 433.992L329.092 388.87L309.543 361.184Z" fill="#FFC0AF"/>
<path d="M195.16 311.86L166.951 287.664C166.951 287.664 188.267 295.432 196.43 290.292L195.16 311.86Z" fill="#DEA798"/>
<path d="M155.713 320.91L182.009 341.264L189.719 332.423L163.418 313.918L155.713 320.91Z" fill="#DEA798"/>
<path d="M379.122 480.389L286.47 398.473L289.701 313.2L196.43 277.949L195.281 313.917L175.676 350.515L158.693 356.587L158.434 356.681C158.434 356.681 170.221 369.02 173.849 369.838C173.849 369.838 207.401 437.327 282.893 454.446L316.35 485.991H377.252L381.174 482.203L379.122 480.389Z" fill="#FFC0AF"/>
<path d="M164.722 356.066L158.434 356.685L169.033 360.042L168.126 356.838L164.722 356.066Z" fill="#EEB3A3"/>
<path d="M315.931 485.994L282.898 454.449C207.401 437.331 173.849 369.842 173.849 369.842C170.221 369.019 158.434 356.684 158.434 356.684L158.693 356.59L170.039 357.926C170.039 357.926 178.285 363.688 180.298 366.504C180.298 366.504 214.588 428.975 289.342 443.069L344.365 485.998H316.35H315.931V485.994Z" fill="#EEB3A3"/>
<path d="M172.713 328.984L206.269 333.399L192.353 356.589L176.026 345.566L172.713 328.984Z" fill="#DEA798"/>
<path d="M164.721 356.067C164.721 356.067 180.257 367.932 192.351 356.588C192.351 356.588 196.001 352.906 191.612 347.492L164.721 356.067Z" fill="#DEA798"/>
<path d="M351.428 485.996H480.639L424.83 445.774C421.366 443.275 417.789 440.905 414.096 438.688C339.239 393.762 345.303 354.496 345.303 354.496L325.625 376.252L321.094 433.995L369.172 472.572L358.218 479.387L351.428 485.996Z" fill="#FFC0AF"/>
<path d="M369.59 367.932C369.59 367.932 349.855 401.796 418.998 441.575L395.95 454.106C395.95 454.106 327.067 359.627 329.136 356.842C331.209 354.057 357.621 350.379 357.621 350.379L369.59 367.932Z" fill="#FFC0AF"/>
<path d="M366.397 348.996C366.397 348.996 371.779 368.797 369.589 377.071C369.589 377.071 368.203 394.796 377.77 408.04C377.77 408.04 361.702 387.639 361.702 385.704C361.702 383.765 360.73 358.93 360.73 358.049C360.73 357.167 366.397 348.996 366.397 348.996Z" fill="#FFC0AF"/>
<path d="M195.377 240.803C195.377 240.803 181.57 233.588 171.838 237.61C171.838 237.61 164.594 240.922 173.873 248.372C173.873 248.372 183.605 255.704 189.715 257.716L197.636 262.212L195.377 240.803Z" fill="#FFC0AF"/>
<rect x="182.443" y="138.273" width="136.752" height="247.881" rx="6" fill="#1A1A1A"/>
<path d="M311.597 154.762V376.553C311.597 379 309.377 380.991 306.65 380.991H196.887C194.16 380.991 191.939 379 191.939 376.553V154.762C191.939 152.316 194.16 150.324 196.887 150.324H306.65C309.381 150.324 311.597 152.316 311.597 154.762Z" fill="url(#paint0_linear_2889_4118)"/>
<path d="M232.406 140.016L231.02 152.233V159.566L232.985 165.466L234.488 169.731L244.185 159.864L248.348 154.56L248.685 146.232L244.185 143.702L238.932 146.577L232.406 140.016Z" fill="url(#paint1_linear_2889_4118)"/>
<path d="M239.501 152.739L240.447 159.907L234.487 168.004L233.264 164.157C233.264 164.157 233.199 161.803 234.487 158.744C234.487 158.744 235.791 153.201 234.931 149.723L239.501 152.739Z" fill="#203A55"/>
<path opacity="0.34" d="M244.521 149.883C244.521 149.883 240.275 151.893 240.24 153.217L240.452 159.9L239.506 152.731L241.298 149.217L244.188 148.293L244.521 149.883Z" fill="black"/>
<path d="M234.931 149.717C234.931 149.717 235.134 152.376 239.501 152.737C239.501 152.737 242.589 148.788 244.183 149.45C244.183 149.45 243.579 144.812 238.931 143.986L237.156 143.48L233.934 148.8L234.931 149.717Z" fill="#001E3D"/>
<path d="M207.757 161.613C207.757 161.613 200.544 168.602 198.838 182.319L196.894 190.029C195.922 193.887 195.43 197.839 195.43 201.804V212.137L209.908 220.853L207.757 161.613Z" fill="#DDDDDD"/>
<path d="M232.293 139.182C232.293 139.182 233.468 143.028 238.932 143.988L252.166 140.69L260.096 129.166L259.591 128.319L257.241 127.896C257.241 127.896 253.552 115.871 253.924 111.844L232.293 139.182Z" fill="#ED9E8D"/>
<path d="M238.932 143.986C238.932 143.986 243.048 146.936 244.184 149.45C244.184 149.45 245.471 151.327 247.307 152.236C247.307 152.236 262.273 133.981 263.59 133.833C263.59 133.833 261.642 126.887 257.241 127.902C257.241 127.902 259.936 128.599 259.457 129.344C259.461 129.34 240.443 143.868 238.932 143.986Z" fill="url(#paint2_linear_2889_4118)"/>
<path d="M233.937 175.161L224.508 250.689H208.039C207.659 247.539 207.223 242.768 206.903 239.004C206.644 235.987 206.657 232.955 207.007 229.947C207.983 221.462 206.57 207.764 206.57 207.764C207.447 201.704 204.259 177.672 203.478 171.961C203.331 170.911 203.387 169.846 203.655 168.816C206.294 158.721 220.763 152.234 220.763 152.234L229.704 148.105L229.989 157.001L231.868 171.64L233.937 175.161Z" fill="#EEEEEE"/>
<path d="M238.932 143.988L232.402 140.02C232.402 140.02 230.415 150.251 234.103 155.418C234.108 155.414 234.959 142.895 238.932 143.988Z" fill="url(#paint3_linear_2889_4118)"/>
<path d="M291.455 250.639H224.152L225.107 209.966C225.617 199.903 231.953 171.59 231.953 171.59L245.973 157.414L263.678 133.773L271.807 139.959C274.658 142.129 288.129 148.052 288.129 148.052L286.851 220.797L291.455 250.639Z" fill="white"/>
<path opacity="0.22" d="M254.577 150.497L256.767 154.262L232.165 172.606L231.871 172.825L249.93 153.576L251.679 148.507L262.832 139.333L268.451 137.523L271.721 140.011L265.838 149.714C265.842 149.718 256.055 150.748 254.577 150.497Z" fill="black"/>
<path d="M271.719 140.013L267.962 145.255L266.441 147.378L265.336 148.917C265.336 148.917 255.401 150.641 253.557 149.712L255.552 153.731C255.552 153.731 250.594 158.487 244.543 162.67C241.269 164.934 234.988 170.477 232.168 172.608L231.874 172.828C231.745 172.922 231.645 172.976 231.576 172.992L231.879 171.641C231.883 171.637 231.883 171.637 231.887 171.633C231.887 171.629 231.891 171.625 231.891 171.621C232.686 170.501 258.174 134.631 263.591 133.836L264.709 134.69L266.791 136.272L268.45 137.534L271.719 140.013Z" fill="#DFDFDF"/>
<path d="M176.668 235.213L220.448 227.735L202.29 212.117L180.154 217.656L176.668 235.213Z" fill="#DDDDDD"/>
<path d="M168.004 226.321L170.971 232.33C171.978 234.367 174.306 235.585 176.673 235.213C178.336 234.951 180.033 233.909 181.001 231.127C181.001 231.127 183.363 224.037 180.158 217.652L168.004 226.321Z" fill="#EEEEEE"/>
<path d="M168.998 225.405C168.998 225.405 172.859 231.441 176.276 230.023C176.276 230.023 181.593 226.004 177.922 220.215L168.998 225.405Z" fill="#DDDDDD"/>
<path d="M216.972 206.538L214.816 205.668H202.934C201.997 205.668 201.081 205.923 200.295 206.404L196.658 208.625L200.235 212.116L202.308 210.792C202.779 210.49 203.362 210.384 203.919 210.498L210.64 211.869L216.972 206.538Z" fill="#EFA596"/>
<path d="M199.303 212.688H210.446L203.052 216.052L199.303 212.688Z" fill="#D97F6B"/>
<path d="M236.857 212.904L235.726 222.674V222.686L235.363 225.819C228.504 226.192 224.837 222.999 224.837 222.999L221.744 222.29L220.578 222.541L220.453 222.568L220.755 222.991C220.984 223.309 221.096 223.673 221.096 224.033C221.101 224.503 220.919 224.973 220.556 225.342L219.939 225.964C219.641 226.266 219.248 226.466 218.833 226.54C218.539 226.595 218.228 226.587 217.926 226.513C216.868 226.25 216.164 225.894 215.749 225.635C215.395 225.412 214.976 225.295 214.548 225.295H211.81L207.832 221.362L203.055 216.046L216.976 206.531L236.857 212.904Z" fill="#FFC0AF"/>
<path opacity="0.44" d="M222.889 219.939C222.487 220.366 222.306 220.93 222.388 221.494C222.193 221.545 222.008 221.678 221.826 221.823C221.645 221.972 221.472 222.132 221.295 222.242C221.001 222.426 220.82 222.254 220.574 222.547L220.448 222.575L220.751 222.998C220.98 223.315 221.092 223.679 221.092 224.04C218.017 222.547 224.556 218.164 224.556 218.164L222.889 219.939Z" fill="#BF5E55"/>
<path opacity="0.44" d="M215.81 224.677L218.825 226.545C218.531 226.6 218.22 226.592 217.918 226.518C216.894 226.263 216.199 225.923 215.784 225.668C215.4 225.433 214.95 225.3 214.493 225.3H214.186C214.186 225.3 212.368 222.201 213.624 221.214C213.624 221.214 216.674 218.484 221.84 214.465L214.354 221.708C214.354 221.708 213.456 222.777 215.81 224.677Z" fill="#BF5E55"/>
<path d="M222.387 221.39C222.767 221.292 223.151 221.241 223.523 221.222C224.741 221.159 225.933 221.523 226.943 222.158C230.779 224.563 235.72 222.675 235.72 222.675V222.687L235.357 225.821C228.498 226.193 224.831 223 224.831 223L221.739 222.291L220.447 222.569L222.387 221.39Z" fill="#E98773"/>
<path opacity="0.44" d="M209.185 219.203L219.711 210.75L216.01 212.904L208.671 218.244C207.371 218.878 207.825 221.366 207.825 221.366L211.803 225.298L213.474 225.819L210.732 223.234C210.01 222.65 209.444 221.914 209.112 221.076C208.546 219.63 209.185 219.203 209.185 219.203Z" fill="#BF5E55"/>
<path d="M215.477 228.709L210.596 228.349L179.925 226.089C178.729 226.003 177.614 225.486 176.811 224.651L151.936 198.798C151.936 198.798 148.852 195.766 151.185 195.676L186.788 197.775C187.22 197.803 187.639 197.92 188.006 198.124C188.106 198.179 188.201 198.238 188.292 198.304C188.456 198.422 188.603 198.551 188.736 198.7L215.477 228.709Z" fill="url(#paint4_linear_2889_4118)"/>
<path d="M188.287 198.3L186.766 198.837L152.722 196.961C152.722 196.961 151.538 196.921 151.18 195.676L186.783 197.775C187.215 197.803 187.634 197.92 188.001 198.124C188.101 198.179 188.196 198.238 188.287 198.3Z" fill="#588BD7"/>
<path d="M215.476 228.706L210.595 228.346L186.891 201.85C186.382 201.282 186.14 200.53 186.287 199.802C186.563 198.434 187.937 198.137 188.006 198.121C188.278 198.27 188.528 198.466 188.736 198.697L215.476 228.706Z" fill="#23539A"/>
<path d="M165.387 222.771L166.302 224.479C166.877 225.548 168.099 226.175 169.373 226.054L171.218 225.877C172.427 225.764 173.572 225.302 174.496 224.557L177.412 222.207L165.387 222.771Z" fill="#EC9685"/>
<path d="M177.74 221.596C177.679 221.988 177.351 222.34 176.872 222.646L176.863 222.65C176.53 222.861 176.129 223.053 175.693 223.222C173.831 223.954 171.382 224.311 171.382 224.311C169.395 224.651 167.123 224.248 165.68 223.892C164.778 223.668 164.048 223.049 163.715 222.231L162.359 218.893C162.29 218.725 162.238 218.552 162.203 218.38C162.091 217.871 162.113 217.334 162.268 216.829L162.29 216.758L162.432 216.288L162.778 215.172L166.648 219.022L177.74 221.596Z" fill="#EFA596"/>
<path d="M173.723 221.977L167.602 220.876C165.14 220.363 164.289 219.529 164.289 219.529L162.285 216.755L162.428 216.285L163.132 216.266L166.596 219.619L173.723 221.977Z" fill="#E98773"/>
<path d="M176.863 222.649L175.692 223.221C173.831 223.953 171.382 224.31 171.382 224.31C169.395 224.65 167.123 224.247 165.68 223.89C164.777 223.667 164.047 223.048 163.715 222.229L162.359 218.892C162.29 218.724 162.238 218.551 162.203 218.379C162.251 218.477 164.186 222.484 165.097 222.774C165.097 222.774 167.093 223.902 170.833 223.671C170.824 223.671 174.984 223.354 176.863 222.649Z" fill="#E98773"/>
<path d="M179.033 221.391C178.692 221.771 178.161 222.018 177.556 222.022L175.707 222.042C170.835 221.286 168.17 220.624 166.749 220.173C165.842 219.883 165.065 219.354 164.538 218.657L160.918 213.859C160.465 213.259 160.473 212.48 160.94 211.873L162.426 209.934L167.242 214.736L169.445 216.93L172.55 217.948L172.965 218.085L177.902 218.794C178.113 218.822 178.312 218.884 178.489 218.971C178.662 219.053 178.817 219.159 178.951 219.28C179.223 219.531 179.396 219.856 179.435 220.216C179.483 220.655 179.327 221.07 179.033 221.391Z" fill="#F0AD9F"/>
<path d="M174.37 218.29L169.844 217.573L162.125 213.899C161.045 212.798 160.756 212.27 160.756 212.27L167.243 214.741L169.446 216.935L172.552 217.953L174.37 218.29Z" fill="#E98773"/>
<path d="M172.936 216.607C172.599 216.96 172.067 217.085 171.579 216.96C171.536 216.948 171.493 216.936 171.454 216.928L169.813 216.474C169.398 216.36 162.34 213.732 162.34 213.732C161.749 213.313 161.217 212.823 160.755 212.267C160.06 211.433 160.064 209.764 160.233 208.714L160.41 207.609L160.414 207.617C160.552 207.75 162.651 209.917 162.651 209.917L168.664 212.58L171.895 213.947L172.659 214.272H172.663C172.849 214.402 173 214.578 173.082 214.782C173.458 215.706 173.255 216.27 172.936 216.607Z" fill="#FFC0AF"/>
<path d="M169.723 214.701C169.512 215.058 169.49 215.54 170.16 216.076C170.289 216.178 170.44 216.249 170.6 216.288L172.393 216.723C172.393 216.723 172.967 215.927 172.479 214.67L170.989 214.235C170.505 214.094 169.974 214.27 169.723 214.701Z" fill="#FFFBFA"/>
<path d="M172.427 216.817L170.57 216.366C170.393 216.323 170.228 216.245 170.095 216.135C169.352 215.543 169.434 215.007 169.637 214.658C169.904 214.204 170.466 213.992 171.01 214.149L172.548 214.596L172.561 214.635C173.058 215.916 172.487 216.726 172.461 216.762L172.427 216.817ZM169.801 214.74C169.55 215.167 169.693 215.594 170.215 216.014C170.328 216.104 170.47 216.17 170.617 216.205L172.341 216.625C172.449 216.437 172.777 215.739 172.401 214.737L170.954 214.313C170.501 214.18 170.025 214.357 169.801 214.74Z" fill="#FFC0AF"/>
<path d="M178.952 220.8C178.9 221.235 178.667 221.611 178.335 221.869L176.823 221.767C176.296 221.732 175.881 221.333 175.86 220.839C175.847 220.561 175.894 220.295 175.955 220.075C176.058 219.687 176.408 219.405 176.836 219.354C177.531 219.276 178.378 219.398 178.378 219.398C178.516 219.511 178.633 219.644 178.728 219.789C178.909 220.087 178.995 220.44 178.952 220.8Z" fill="#FFFBFA"/>
<path d="M171.896 213.947L170.13 213.54C169.771 213.458 169.421 213.34 169.089 213.195L163.253 210.649C162.618 210.371 162.079 209.94 161.694 209.396L160.42 207.617C160.558 207.75 162.657 209.917 162.657 209.917L168.67 212.58L171.896 213.947Z" fill="#E98773"/>
<path d="M276.716 207.26C276.608 207.06 272.086 209.873 270.047 209.344C270.047 209.344 265.529 210.006 266.039 209.932C266.548 209.857 261.706 210.402 260.009 209.744L235.1 210.868V211.217L248.545 215.032H264.436L268.224 212.654L274.202 211.146L278.063 208.886L280.176 207.695L276.716 207.26Z" fill="#DFDFDF"/>
<path d="M234.492 168L231.874 171.643C231.874 171.643 229.818 166.018 222.579 158.466L228.536 153.393L223.685 152.672L221.983 152.417L220.77 152.237C221.279 151.963 221.836 151.583 222.415 151.125C223.292 150.431 224.225 149.558 225.154 148.614C228.803 144.904 232.406 140.02 232.406 140.02C232.406 140.02 230.315 157.843 234.492 168Z" fill="#CECECE"/>
<path d="M266.865 181.088L265.128 186.615L264.213 189.529C264.079 189.956 263.997 190.395 263.962 190.83L263.5 197.148C263.491 197.277 263.478 197.407 263.457 197.54L262.653 203.267C262.584 203.741 262.558 204.215 262.567 204.685L262.597 206.479L262.645 208.998C262.649 209.248 262.493 209.491 262.252 209.617C262.247 209.617 262.247 209.62 262.243 209.62C260.273 210.623 251.764 214.995 248.957 216.993C248.339 217.431 247.519 217.478 246.918 217.106L236.699 210.811C236.332 210.584 236.129 210.188 236.155 209.769C236.159 209.711 236.168 209.652 236.18 209.589L236.82 206.62L237.036 205.617C237.183 204.928 237.247 204.227 237.221 203.537L237.07 199.506C237.053 199.044 237.092 198.574 237.187 198.108L238.448 192.036C238.56 191.496 238.612 190.947 238.599 190.407L238.547 187.982L238.772 186.897C238.884 186.356 238.936 185.808 238.923 185.267L238.906 184.402L238.828 180.853L239.023 179.337C239.023 179.337 239.338 179.207 239.951 179.11C241.264 178.902 243.938 178.839 247.786 180.5C247.786 180.5 248.883 180.986 250.382 180.962H250.387C250.741 180.955 251.121 180.919 251.51 180.841C251.726 180.798 251.946 180.743 252.166 180.673C253.056 180.39 253.782 180.457 254.451 180.665C255.133 180.872 255.755 181.221 256.425 181.472C256.602 181.538 256.783 181.597 256.969 181.648C256.973 181.648 256.978 181.652 256.982 181.652C256.986 181.652 256.991 181.656 256.999 181.656C257.224 181.714 257.453 181.758 257.695 181.777C257.695 181.777 257.898 181.812 258.373 181.793C258.796 181.773 259.431 181.711 260.334 181.538C260.507 181.507 260.688 181.468 260.878 181.429C261.332 181.331 261.794 181.299 262.243 181.35L264.165 181.566C264.61 181.613 265.068 181.577 265.513 181.452L265.733 181.389L266.865 181.088Z" fill="#DFDFDF"/>
<path opacity="0.14" d="M247.083 184.152L251.895 186.048L252.482 186.416L253.907 187.11L255.03 187.991L255.717 189.55L254.214 187.811C254.214 187.811 251.441 186.863 251.402 186.851C251.363 186.84 246.992 184.544 246.992 184.544L247.083 184.152Z" fill="#403F41"/>
<path d="M265.639 181.802L265.518 181.763C265.552 181.677 265.591 181.587 265.63 181.497L265.535 181.524L265.496 181.414L265.842 181.32L265.794 181.43C265.738 181.555 265.686 181.681 265.639 181.802Z" fill="white"/>
<path d="M265.361 182.834L265.24 182.803L265.348 182.462C265.305 182.419 265.305 182.337 265.409 182.043L265.53 182.078C265.469 182.251 265.452 182.329 265.448 182.368L265.512 182.356L265.361 182.834Z" fill="white"/>
<path d="M261.554 207.712L261.541 206.925H261.667L261.679 207.712H261.554ZM261.524 206.133L261.511 205.346H261.636L261.649 206.133H261.524ZM261.623 204.555H261.498C261.498 204.288 261.511 204.022 261.533 203.763L261.658 203.771C261.636 204.03 261.623 204.292 261.623 204.555ZM261.753 202.988L261.628 202.972L261.736 202.189L261.861 202.204L261.753 202.988ZM261.973 201.425L261.848 201.409L261.956 200.626L262.081 200.641L261.973 201.425ZM262.193 199.858L262.068 199.842L262.176 199.059L262.301 199.075L262.193 199.858ZM262.414 198.295L262.288 198.279L262.396 197.496L262.522 197.512L262.414 198.295ZM262.595 196.724L262.47 196.716L262.526 195.929L262.651 195.937L262.595 196.724ZM262.707 195.15L262.582 195.142L262.638 194.354L262.764 194.362L262.707 195.15ZM262.824 193.575L262.699 193.567L262.755 192.78L262.88 192.787L262.824 193.575ZM262.941 192L262.815 191.992L262.872 191.205L262.997 191.213L262.941 192ZM263.07 190.429L262.945 190.414C262.984 190.151 263.036 189.889 263.101 189.63L263.226 189.658C263.157 189.912 263.105 190.175 263.07 190.429ZM263.455 188.902L263.334 188.87L263.571 188.11L263.692 188.142L263.455 188.902ZM263.93 187.386L263.809 187.354L264.046 186.594L264.167 186.626L263.93 187.386ZM264.405 185.87L264.284 185.838L264.522 185.078L264.642 185.11L264.405 185.87ZM264.884 184.35L264.763 184.319L265.001 183.559L265.122 183.59L264.884 184.35Z" fill="white"/>
<path d="M261.283 209.15L261.223 209.048L261.573 208.868L261.568 208.5H261.693L261.702 208.935L261.283 209.15Z" fill="white"/>
<path d="M247.906 216.485C247.764 216.485 247.63 216.45 247.513 216.387L247.578 216.289C247.677 216.344 247.785 216.371 247.906 216.371H247.924C248.075 216.368 248.217 216.321 248.338 216.238L248.416 216.328C248.273 216.426 248.101 216.481 247.928 216.485H247.906ZM246.775 215.933L246.04 215.478L246.109 215.384L246.844 215.839L246.775 215.933ZM249.129 215.843L249.055 215.749C249.275 215.604 249.522 215.451 249.785 215.286L249.859 215.38C249.595 215.545 249.349 215.702 249.129 215.843ZM245.306 215.024L244.572 214.57L244.641 214.476L245.375 214.93L245.306 215.024ZM250.597 214.938L250.528 214.84C250.77 214.695 251.016 214.55 251.275 214.401L251.344 214.499C251.085 214.648 250.839 214.793 250.597 214.938ZM243.833 214.119L243.099 213.665L243.168 213.571L243.902 214.025L243.833 214.119ZM252.092 214.068L252.023 213.97C252.269 213.829 252.524 213.688 252.778 213.543L252.843 213.641C252.593 213.782 252.342 213.927 252.092 214.068ZM253.608 213.218L253.543 213.12C253.793 212.979 254.048 212.842 254.303 212.701L254.368 212.799C254.113 212.94 253.858 213.081 253.608 213.218ZM242.365 213.214L241.63 212.76L241.699 212.666L242.434 213.12L242.365 213.214ZM255.128 212.384L255.063 212.286C255.318 212.149 255.573 212.012 255.828 211.875L255.893 211.972C255.642 212.11 255.383 212.247 255.128 212.384ZM240.896 212.309L240.162 211.855L240.231 211.761L240.965 212.215L240.896 212.309ZM256.661 211.565L256.597 211.467C256.856 211.33 257.115 211.193 257.365 211.06L257.43 211.158C257.175 211.291 256.921 211.428 256.661 211.565ZM239.423 211.404L238.689 210.95L238.758 210.856L239.492 211.31L239.423 211.404ZM258.195 210.75L258.13 210.652C258.393 210.511 258.653 210.378 258.899 210.249L258.964 210.347C258.717 210.48 258.463 210.613 258.195 210.75ZM237.955 210.5L237.264 210.073C237.246 210.061 237.229 210.049 237.216 210.037L237.302 209.955C237.311 209.963 237.324 209.971 237.337 209.979L238.028 210.406L237.955 210.5ZM259.737 209.947L259.672 209.845C259.948 209.7 260.208 209.567 260.445 209.446L260.51 209.548C260.272 209.669 260.013 209.806 259.737 209.947ZM237.328 209.234L237.203 209.211L237.372 208.42L237.497 208.443L237.328 209.234ZM237.67 207.652L237.544 207.628L237.713 206.837L237.838 206.861L237.67 207.652ZM238.011 206.069L237.886 206.046L237.955 205.717C237.989 205.564 238.015 205.407 238.041 205.254L238.166 205.27C238.14 205.423 238.11 205.58 238.08 205.736L238.011 206.069ZM238.266 204.471L238.14 204.463C238.158 204.232 238.166 203.997 238.166 203.766V203.664H238.292V203.77C238.292 203.997 238.283 204.236 238.266 204.471ZM238.136 202.857L238.106 202.05L238.231 202.046L238.261 202.853L238.136 202.857ZM238.076 201.247L238.045 200.44L238.171 200.436L238.201 201.243L238.076 201.247ZM238.015 199.637L238.007 199.402C238.007 199.343 238.002 199.285 238.002 199.226C238.002 199.093 238.007 198.96 238.019 198.826L238.145 198.834C238.136 198.963 238.127 199.097 238.127 199.226C238.127 199.285 238.127 199.34 238.132 199.398L238.14 199.633L238.015 199.637ZM238.27 198.043L238.145 198.023L238.309 197.232L238.434 197.252L238.27 198.043ZM238.598 196.46L238.473 196.441L238.637 195.65L238.762 195.669L238.598 196.46ZM238.931 194.874L238.806 194.854L238.97 194.063L239.095 194.083L238.931 194.874ZM239.259 193.291L239.134 193.272L239.298 192.481L239.423 192.5L239.259 193.291ZM239.574 191.705L239.449 191.689C239.488 191.419 239.518 191.153 239.531 190.894L239.656 190.898C239.644 191.16 239.613 191.431 239.574 191.705ZM239.531 190.091L239.514 189.284L239.639 189.28L239.656 190.087L239.531 190.091ZM239.497 188.477L239.488 187.995L239.557 187.666L239.682 187.686L239.618 188.003L239.631 188.473L239.497 188.477ZM239.842 186.895L239.717 186.875C239.769 186.609 239.803 186.342 239.829 186.08L239.955 186.088C239.929 186.354 239.894 186.624 239.842 186.895ZM239.859 185.281L239.842 184.474L239.967 184.47L239.985 185.277L239.859 185.281ZM239.829 183.671L239.812 182.864L239.937 182.86L239.955 183.667L239.829 183.671ZM239.795 182.061L239.777 181.254L239.903 181.25L239.92 182.057L239.795 182.061Z" fill="white"/>
<path d="M239.942 180.463L239.816 180.451L239.873 180.009L239.92 180.001C239.924 179.997 239.959 179.954 239.942 179.68L240.067 179.672C240.08 179.883 240.067 180.036 239.989 180.091L239.942 180.463Z" fill="white"/>
<path d="M239.928 179.525C239.919 179.407 239.902 179.278 239.889 179.149L239.885 179.125L240.011 179.113L240.015 179.137C240.032 179.27 240.045 179.399 240.054 179.517L239.928 179.525Z" fill="white"/>
<path opacity="0.14" d="M262.002 181.337L262.252 186.907L262.019 187.565L258.456 193.437L256.706 196.265L256.059 197.096L258.339 192.528L261.255 187.036L261.44 180.969L262.002 181.337Z" fill="#403F41"/>
<path d="M257.738 187.485L257.734 187.372C257.98 187.368 258.235 187.344 258.481 187.305L258.503 187.419C258.252 187.458 257.993 187.481 257.738 187.485ZM256.97 187.45C256.715 187.419 256.46 187.372 256.214 187.309L256.248 187.199C256.486 187.262 256.736 187.309 256.983 187.34L256.97 187.45ZM259.25 187.246L259.216 187.137C259.384 187.094 259.647 187.027 259.958 186.964L259.984 187.078C259.678 187.141 259.414 187.203 259.25 187.246ZM262.973 187.105C262.515 187.094 262.282 186.992 262.23 186.964H262.226C262.222 186.964 262.222 186.96 262.222 186.96L262.23 186.945L262.239 186.909L262.265 186.855L262.287 186.862C262.287 186.862 262.503 186.98 262.978 186.992L262.973 187.105ZM255.497 187.058C255.16 186.917 254.935 186.776 254.827 186.706L254.901 186.612C255.004 186.678 255.225 186.811 255.549 186.953L255.497 187.058ZM263.746 187.05L263.725 186.937C263.954 186.902 264.2 186.847 264.455 186.776L264.494 186.886C264.23 186.956 263.98 187.011 263.746 187.05ZM260.732 186.96L260.714 186.847C260.986 186.815 261.246 186.796 261.483 186.792V186.906C261.25 186.909 260.995 186.929 260.732 186.96ZM254.24 186.283C254.041 186.181 253.812 186.095 253.553 186.024L253.588 185.914C253.855 185.985 254.097 186.075 254.305 186.185L254.24 186.283ZM248.106 186.165C247.921 186.165 247.722 186.157 247.519 186.142L247.532 186.028C247.795 186.048 248.046 186.055 248.284 186.048L248.288 186.161C248.227 186.165 248.167 186.165 248.106 186.165ZM249.052 186.091L249.031 185.977L249.044 185.973C249.048 185.973 249.337 185.914 249.782 185.852L249.8 185.965C249.359 186.024 249.074 186.083 249.07 186.083L249.052 186.091ZM246.754 186.052C246.513 186.012 246.258 185.965 246.003 185.911L246.033 185.797C246.284 185.852 246.534 185.899 246.776 185.938L246.754 186.052ZM252.814 185.887C252.581 185.86 252.326 185.84 252.063 185.832L252.067 185.719C252.335 185.726 252.594 185.746 252.832 185.777L252.814 185.887ZM250.551 185.879L250.538 185.766C250.797 185.742 251.056 185.726 251.303 185.719L251.307 185.832C251.065 185.84 250.81 185.86 250.551 185.879ZM245.269 185.726C245.022 185.66 244.776 185.585 244.543 185.507L244.586 185.397C244.819 185.476 245.061 185.55 245.303 185.617L245.269 185.726ZM243.886 185.135C243.696 184.982 243.493 184.849 243.286 184.731L243.351 184.634C243.567 184.755 243.774 184.892 243.969 185.049L243.886 185.135ZM238.924 184.453L238.885 184.344C239.131 184.273 239.381 184.214 239.628 184.167L239.654 184.281C239.412 184.324 239.166 184.383 238.924 184.453ZM242.617 184.43C242.388 184.348 242.146 184.285 241.895 184.242L241.921 184.128C242.176 184.175 242.427 184.242 242.66 184.324L242.617 184.43ZM240.397 184.179L240.384 184.066C240.643 184.046 240.898 184.038 241.152 184.046L241.148 184.16C240.902 184.152 240.651 184.156 240.397 184.179Z" fill="white"/>
<path opacity="0.04" d="M261.254 187.039L255.557 194.87L255.971 187.474L256.252 183.827L256.429 181.485L256.438 181.398C256.611 181.477 256.788 181.567 256.973 181.661C256.978 181.661 256.982 181.665 256.986 181.665C256.991 181.665 256.995 181.669 257.004 181.669C257.168 181.7 258.157 181.868 258.39 181.63L258.377 181.806C258.8 181.786 259.435 181.724 260.338 181.551L261.254 187.039Z" fill="#403F41"/>
<path d="M248.952 167.087C249.091 165.415 250.201 163.832 251.864 163.084C252.663 162.724 253.635 162.516 254.723 162.743C254.723 162.743 257.561 163.135 258.39 165.509C258.39 165.509 259.137 167.428 257.643 170.209C257.643 170.209 257.073 171.455 257.798 172.493C257.798 172.493 258.869 173.911 257.949 176.927L248.045 177.832C248.045 177.832 245.765 178.134 246.469 174.769C246.469 174.769 247.216 173.837 246.503 173.147C246.503 173.147 245.337 171.8 247.099 170.174C247.099 170.174 248.965 168.686 248.939 167.244C248.944 167.248 248.944 167.189 248.952 167.087Z" fill="black"/>
<path d="M251.423 171.754L251.933 172.153L251.035 174.018L250.611 172.757L251.039 171.946L251.423 171.754Z" fill="#0C1C2B"/>
<path d="M255.504 171.837C255.504 171.837 254.973 171.395 254.562 171.512L254.912 173.576L255.694 172.248L255.504 171.837Z" fill="#0C1C2B"/>
<path d="M243.342 180.651C243.342 180.651 243.346 182.104 247.739 181.779L247.242 180.314L246.028 179.66L244.551 179.958L243.571 180.134L243.342 180.651Z" fill="#203A55"/>
<path d="M262.312 180.662C262.312 180.662 261.958 181.681 258.316 182.041L259.12 180.878L260.692 179.992L261.832 179.965L262.256 180.38L262.312 180.662Z" fill="#203A55"/>
<path d="M256.042 190.545C256.037 190.603 255.99 190.662 255.921 190.678C255.895 190.682 255.873 190.686 255.847 190.686C255.722 190.686 255.614 190.619 255.571 190.509L255.294 189.8L254.672 188.97L254.681 189.146L255.238 189.98L255.61 191.003L255.713 191.289C255.744 191.375 255.674 191.473 255.575 191.485L255.515 191.492C255.51 191.492 255.51 191.492 255.506 191.492C255.398 191.5 255.303 191.449 255.264 191.359L254.741 190.208L254.012 189.42L254.668 190.349L255.078 191.289L255.195 191.559C255.212 191.594 255.204 191.641 255.178 191.673C255.126 191.739 255.078 191.778 255.031 191.806C254.88 191.892 254.763 191.802 254.763 191.802C254.435 191.673 254.063 190.58 254.063 190.58L253.558 189.883L253.217 189.616L253.709 190.45L253.916 190.971L253.981 191.14C254.007 191.207 253.968 191.285 253.891 191.308C253.847 191.32 253.804 191.32 253.761 191.312C253.653 191.293 253.562 191.214 253.523 191.171C253.506 191.156 253.493 191.136 253.485 191.113C253.009 190.125 252.655 189.835 252.655 189.835C251.994 189.322 251.614 188.37 251.614 188.37C251.338 187.771 250.366 187.65 250.366 187.65L244.608 185.93C243.861 185.769 243.822 185.346 243.853 185.143C243.866 185.053 243.874 184.959 243.874 184.869C243.857 183.439 244.513 180.195 244.513 180.195L247.235 180.321L246.306 183.862C247.196 184.614 250.941 185.871 251.861 186.173C251.999 186.216 252.12 186.287 252.228 186.373L252.34 186.463C252.422 186.529 252.517 186.588 252.621 186.631L253.58 187.031C253.696 187.078 253.804 187.144 253.904 187.219L254.716 187.846C254.798 187.908 254.867 187.987 254.914 188.077L255.696 189.514C255.705 189.526 255.709 189.538 255.713 189.55L255.929 190.192L256.033 190.498C256.042 190.513 256.046 190.529 256.042 190.545Z" fill="#FFC0AF"/>
<path d="M253.902 191.298C253.859 191.31 253.816 191.31 253.773 191.302L253.656 191.122L253.928 190.965L253.993 191.133C254.019 191.192 253.98 191.274 253.902 191.298Z" fill="white"/>
<path d="M255.186 191.665C255.134 191.732 255.087 191.771 255.039 191.798C254.84 191.7 254.814 191.477 254.814 191.477L255.087 191.281L255.203 191.552C255.216 191.587 255.212 191.63 255.186 191.665Z" fill="white"/>
<path d="M255.581 191.478L255.52 191.486C255.516 191.486 255.516 191.486 255.512 191.486L255.348 191.18L255.615 190.996L255.719 191.282C255.754 191.368 255.685 191.466 255.581 191.478Z" fill="white"/>
<path d="M256.042 190.544C256.038 190.603 255.99 190.661 255.921 190.677C255.895 190.681 255.874 190.685 255.848 190.685L255.723 190.387L255.934 190.195L256.038 190.501C256.042 190.513 256.047 190.528 256.042 190.544Z" fill="white"/>
<path d="M256.188 196.445L256.244 196.422L255.92 196.939L256.188 196.445Z" fill="#FFE0AE"/>
<path d="M262.067 186.721C262.08 186.995 262.007 187.273 261.856 187.524L258.189 193.713L257.122 195.624L256.91 195.985C256.906 195.993 256.897 196.004 256.893 196.012L256.707 196.263L256.159 197.219C256.146 197.246 256.124 197.27 256.102 197.289L255.826 197.532L255.701 197.642C255.688 197.654 255.675 197.657 255.658 197.657C255.623 197.657 255.593 197.646 255.571 197.626C255.554 197.61 255.532 197.548 255.528 197.52C255.528 197.516 255.528 197.509 255.528 197.505L255.83 197.156L256.249 196.416L255.925 196.933L255.753 197.211L255.606 197.383L254.936 198.006L254.712 198.139C254.621 198.194 254.509 198.159 254.478 198.069L254.474 198.057L254.465 198.026C254.427 197.908 254.47 197.775 254.573 197.685L255.014 197.258L255.459 196.58L254.811 197.348L254.193 197.74L254.003 197.857C253.887 197.932 253.744 197.892 253.692 197.791C253.684 197.775 253.679 197.759 253.675 197.74C253.671 197.724 253.671 197.704 253.671 197.685C253.675 197.618 253.705 197.556 253.757 197.505L254.517 196.917L255.01 196.087L254.271 196.827L253.671 197.387L253.593 197.415L253.558 197.426L253.442 197.469C253.347 197.501 253.252 197.45 253.239 197.364C253.239 197.356 253.234 197.344 253.239 197.332L253.243 197.293C253.252 197.152 253.325 197.015 253.446 196.921L253.507 196.874L254.491 195.789L254.923 194.923L254.936 194.7L253.666 195.401C253.524 195.48 253.351 195.476 253.23 195.389L253.144 195.331C253.139 195.331 253.139 195.327 253.135 195.323C253.049 195.252 253.075 195.111 253.191 195.064C253.295 195.017 253.42 194.962 253.554 194.896C253.852 194.743 254.185 194.543 254.362 194.332C254.362 194.332 254.91 193.862 255.29 193.588C255.29 193.588 255.843 193.18 256.275 193.043C256.448 192.988 256.591 192.867 256.664 192.714L259.575 186.674L259.074 180.422L261.813 180.473L262.067 186.721Z" fill="#FFC0AF"/>
<path d="M253.54 194.914L253.523 195.208L253.125 195.341C253.039 195.271 253.065 195.13 253.182 195.082C253.281 195.039 253.406 194.981 253.54 194.914Z" fill="white"/>
<path d="M253.552 197.446L253.435 197.489C253.34 197.52 253.245 197.469 253.232 197.383L253.444 197.289L253.552 197.446Z" fill="white"/>
<path d="M254.189 197.754L253.998 197.872C253.882 197.946 253.739 197.907 253.688 197.805L253.977 197.625C254.046 197.625 254.128 197.696 254.189 197.754Z" fill="white"/>
<path d="M254.927 198.016L254.702 198.149C254.612 198.204 254.499 198.169 254.469 198.079L254.465 198.067L254.672 197.891L254.927 198.016Z" fill="white"/>
<path d="M255.823 197.539L255.697 197.65C255.684 197.662 255.671 197.666 255.653 197.666C255.619 197.666 255.588 197.654 255.566 197.634L255.679 197.508L255.823 197.539Z" fill="white"/>
<path d="M262.312 180.666C262.312 180.666 262.109 180.502 261.655 180.49C261.552 180.486 261.435 180.494 261.301 180.51C260.701 180.588 259.811 180.913 258.571 181.845C258.485 181.908 258.403 181.975 258.312 182.045L257.945 182.049L256.118 182.069L247.734 181.783L254.749 175.554L255.781 173.956L256.464 172.895C256.464 172.895 256.55 172.918 256.693 172.957C257.137 173.079 258.148 173.345 258.934 173.49C258.934 173.49 260.325 173.619 260.83 175.327C260.83 175.327 260.964 175.789 261.154 176.443C261.236 176.726 261.327 177.043 261.422 177.372C261.841 178.825 262.321 180.541 262.312 180.666Z" fill="url(#paint5_linear_2889_4118)"/>
<path opacity="0.28" d="M258.312 182.036L257.945 182.04C257.945 182.04 258.39 180.18 258.373 178.816C258.455 179.921 258.472 181.1 258.312 182.036Z" fill="#629282"/>
<path d="M253.163 176.733L247.743 181.778C246.87 180.775 245.441 180.576 244.447 180.572C244.339 180.572 244.231 180.572 244.136 180.58C243.661 180.595 243.346 180.654 243.346 180.654L244.741 177.52C245.764 174.72 246.745 174.434 246.745 174.434L250.274 173.039L253.163 176.733Z" fill="url(#paint6_linear_2889_4118)"/>
<path opacity="0.1" d="M248.112 177.079C247.87 177.976 247.598 178.74 247.745 181.779L251.044 182.124C251.044 182.124 248.047 182.054 248.336 177.094C248.341 176.969 248.146 176.953 248.112 177.079Z" fill="#2A3C36"/>
<path opacity="0.1" d="M258.313 182.039L257.946 182.043L256.119 182.062C256.119 182.062 257.981 180.817 257.959 176.23C257.959 176.167 258.058 176.148 258.067 176.21C258.145 176.696 258.236 177.366 258.309 178.118C258.331 178.345 258.352 178.58 258.369 178.819C258.456 179.924 258.473 181.103 258.313 182.039Z" fill="#2A3C36"/>
<path opacity="0.1" d="M258.65 176.742L258.434 180.044L258.93 176.734L258.65 176.742Z" fill="#2A3C36"/>
<path opacity="0.1" d="M244.953 178.719L244.448 180.572C244.34 180.572 244.232 180.572 244.137 180.579L244.953 178.719Z" fill="#2A3C36"/>
<path opacity="0.1" d="M255.531 174.908L255.786 173.952L256.469 172.891C256.469 172.891 256.555 172.914 256.697 172.953C256.697 172.953 256.728 173.572 255.531 174.908Z" fill="#2A3C36"/>
<path d="M255.315 173.355L252.797 177.108L252.093 175.564L251.199 173.613L251.229 173.28L251.562 169.367L255.112 171.012L255.061 172.168V172.231L255.017 173.222L255.315 173.355Z" fill="#FFC0AF"/>
<path d="M255.108 172.207L255.056 172.231L253.899 172.795C253.346 173.065 252.918 173.515 252.698 174.056L252.089 175.564L251.311 173.429L251.221 173.28L251.553 169.367L255.056 172.168L255.108 172.207Z" fill="#EEB3A3"/>
<path d="M251.942 166.895C251.942 166.895 253.381 167.354 255.851 165.219C255.851 165.219 256.37 165.947 256.953 166.284C256.953 166.284 257.449 171.557 254.547 172.223C254.547 172.223 251.597 172.434 251.562 169.371C251.562 169.371 250.66 169.159 250.953 168.47C250.953 168.47 250.992 167.859 251.584 168.008L251.942 166.895Z" fill="#FFC0AF"/>
<path d="M251.423 171.754C251.423 171.754 250.711 171.954 251.32 173.43C251.32 173.43 252.253 175.718 252.965 176.137L252.801 177.105L251.925 177.493C251.925 177.493 249.938 175.025 250.162 173.274C250.158 173.278 250.754 171.844 251.423 171.754Z" fill="#203A55"/>
<path d="M255.504 171.836C255.504 171.836 256.022 173.556 247.742 181.778L249.44 182.142L249.98 181.394C249.98 181.394 256.273 175.075 256.467 172.89L255.504 171.836Z" fill="#001E3D"/>
<path d="M258.38 181.626L258.22 184.145L256.242 183.824L247.582 182.422L247.647 182.038L247.699 181.728V180.643C247.699 180.643 248.403 181.094 250.377 180.964H250.381C250.718 180.941 251.094 180.906 251.504 180.843C251.91 180.784 252.359 180.702 252.847 180.596C253.245 180.51 253.646 180.498 254.031 180.573C254.156 180.596 254.294 180.627 254.45 180.667C254.955 180.792 255.625 181.015 256.432 181.387C256.467 181.403 256.497 181.419 256.532 181.434C256.674 181.501 256.817 181.575 256.968 181.65C256.968 181.65 256.972 181.65 256.972 181.654H256.976C256.981 181.654 256.985 181.658 256.994 181.658C257.158 181.697 258.147 181.865 258.38 181.626Z" fill="#DCDBDE"/>
<path opacity="0.14" d="M249.021 180.966L249.254 182.697L247.583 182.427L247.034 184.303L246.309 183.857L246.844 181.824L247.695 181.781V180.648L248.304 180.868C248.334 180.88 248.365 180.887 248.395 180.891L249.021 180.966Z" fill="#403F41"/>
<path opacity="0.04" d="M252.849 180.602L252.396 183.203L249.031 202.393L250.5 182.893L250.647 180.95L252.849 180.602Z" fill="#403F41"/>
<path d="M250.295 185.629L251.919 186.185L251.587 188.289C251.587 188.289 251.41 187.991 250.887 187.776L250.045 187.54L250.295 185.629Z" fill="#FFC0AF"/>
<path opacity="0.04" d="M258.382 181.626L258.222 184.144L256.244 183.823L256.529 181.441C256.672 181.508 256.814 181.582 256.965 181.657C256.965 181.657 256.97 181.657 256.97 181.661H256.974C256.978 181.661 256.983 181.665 256.991 181.665C257.16 181.696 258.149 181.864 258.382 181.626Z" fill="#403F41"/>
<path d="M214.484 97.634C214.484 97.634 214.104 105.225 215.944 111.716C215.944 111.716 216.617 114.306 216.825 116.147C217.019 117.905 217.378 119.645 217.939 121.337C218.924 124.31 220.466 128.223 222.15 129.743C222.15 129.743 228.711 135.591 229.532 136.943C229.532 136.943 230.918 140.116 235.104 140.696C235.104 140.696 239.116 140.797 241.971 138.004C241.971 138.004 252.571 130.675 252.813 126.864C252.813 126.864 253.875 116.824 251.802 111.356L247.608 94.2966C247.608 94.2966 242.805 86.6071 242.485 86.5053C242.166 86.4074 236.309 86.0078 235.406 86.0078C234.503 86.0078 219.814 91.7739 219.814 91.7739L214.484 97.634Z" fill="#FFC0AF"/>
<path d="M215.783 111.119C215.783 111.119 210.44 101.111 211.399 97.9299C211.399 97.9299 209.378 94.0519 210.548 90.973C210.548 90.973 211.827 87.3927 213.421 86.6993L217.148 84.114L223.009 80.2164C224.361 79.3154 225.951 78.7514 227.622 78.5908C232.633 78.105 243.167 77.9483 246.532 84.6075L248.873 84.7721C248.873 84.7721 254.091 85.1285 254.41 101.071L251.802 111.35L250.32 110.253C249.836 109.897 249.525 109.376 249.461 108.8C249.258 107.073 248.342 103.167 244.195 101.071V96.7038C244.195 95.7754 243.772 94.8941 243.029 94.2791L238.943 90.875C238.943 90.875 222.586 96.9388 214.496 97.6361C214.483 97.6322 215.619 110.528 215.783 111.119Z" fill="black"/>
<path d="M236.859 119.995L231.87 123.078L226.834 121.687L227.629 117.116C228.955 111.55 226.834 110.852 226.834 110.852C226.834 110.852 221.871 108.306 215.785 111.123L217.681 112.208C217.681 112.208 223.892 109.787 226.324 112.208C226.324 112.208 227.953 113.148 227.158 117.065L226.324 121.985L231.874 123.525L236.859 119.995Z" fill="#D97F6B"/>
<path d="M247.894 107.827C247.769 109.269 247.963 110.714 248.464 112.081L249.428 114.694L249.907 115.995C251.108 117.366 252.49 116.237 252.49 116.237C252.762 115.732 254.222 114.722 254.991 114.216C255.086 114.154 255.177 114.087 255.267 114.016C255.544 113.805 255.79 113.566 256.006 113.3C256.269 112.974 256.498 112.642 256.701 112.305C257.474 111.012 257.842 109.672 258.001 108.564C258.213 107.122 258.088 106.084 258.088 106.084C257.842 101.356 254.028 100.808 254.028 100.808C252.049 100.318 250.728 100.792 249.847 101.607C248.724 102.641 248.473 104.419 248.421 105.356C248.395 105.837 248.318 106.311 248.188 106.777L247.894 107.827Z" fill="#FFC0AF"/>
<path d="M249.389 112.159C249.575 112.669 249.847 112.829 250.106 112.841C250.464 112.861 250.793 112.594 250.793 112.594C250.948 112.089 251.289 111.709 251.622 111.443C251.976 111.161 252.412 110.988 252.874 110.918C253.177 110.871 253.445 110.773 253.669 110.655C254.041 110.463 254.3 110.224 254.429 110.087C254.49 110.021 254.524 109.981 254.524 109.981C255.267 108.728 254.663 108.078 254.663 108.078C254.006 107.11 251.22 106.695 250.149 106.57C250.145 106.57 250.145 106.57 250.14 106.57C249.916 106.542 249.708 106.695 249.683 106.906L249.359 109.468L249.294 109.981L249.285 110.056L249.359 110.22L249.791 111.18L249.389 112.159Z" fill="#F0AFA1"/>
<path opacity="0.27" d="M254.879 109.036C254.879 109.036 255.812 106.024 252.227 106.921L254.879 109.036Z" fill="#E98773"/>
<path d="M250.266 106.591C250.3 106.665 250.33 106.74 250.361 106.806V106.81C250.641 107.445 250.767 107.743 250.775 107.766C250.719 107.59 250.698 107.445 250.698 107.32C250.698 107.288 250.698 107.257 250.702 107.226C250.719 107.006 250.78 106.83 250.771 106.587C250.698 105.204 251.453 104.609 252.296 104.37C252.464 104.323 252.633 104.288 252.801 104.264C254.17 104.076 255.449 105.753 255.449 105.753C255.768 106.712 255.984 107.903 256.084 108.514C256.153 108.949 256.123 109.392 255.98 109.811C255.604 110.9 254.71 111.256 254.248 111.37C253.998 111.433 253.807 111.629 253.79 111.871C253.773 112.083 253.89 112.204 254.036 112.271C254.296 112.392 254.615 112.334 254.814 112.134C254.835 112.11 254.857 112.091 254.879 112.067C254.918 112.028 254.952 111.989 254.987 111.954C255.133 111.797 255.267 111.644 255.384 111.491C255.384 111.491 255.384 111.487 255.388 111.487C255.997 110.72 256.295 110.003 256.442 109.443C256.49 109.259 256.52 109.094 256.537 108.949C256.555 108.82 256.563 108.706 256.567 108.608C256.567 108.589 256.567 108.569 256.567 108.554C256.567 108.542 256.567 108.526 256.567 108.514C256.567 108.499 256.567 108.483 256.567 108.467C256.567 108.448 256.567 108.432 256.567 108.416C256.563 108.271 256.567 108.127 256.576 107.982C256.606 107.355 256.52 106.693 256.382 106.082C256.377 106.062 256.373 106.043 256.369 106.023C256.364 106.003 256.36 105.984 256.356 105.964C256.352 105.945 256.347 105.925 256.343 105.906C256.339 105.882 256.33 105.859 256.326 105.835C256.321 105.811 256.313 105.784 256.308 105.761C256.304 105.737 256.295 105.714 256.291 105.69C256.248 105.529 256.205 105.377 256.157 105.228C256.153 105.212 256.148 105.193 256.14 105.177C256.131 105.149 256.123 105.126 256.114 105.099C256.071 104.965 256.028 104.836 255.984 104.719C255.98 104.703 255.976 104.687 255.967 104.676C255.958 104.644 255.945 104.617 255.937 104.589C255.928 104.566 255.92 104.546 255.911 104.523C255.911 104.515 255.907 104.511 255.902 104.503C255.898 104.487 255.889 104.468 255.885 104.452C255.881 104.437 255.872 104.417 255.868 104.401C255.855 104.37 255.842 104.335 255.829 104.303C255.816 104.272 255.807 104.245 255.794 104.217C255.781 104.186 255.768 104.158 255.76 104.127C255.527 103.559 255.108 103.069 254.55 102.752C253.151 101.953 251.536 102.529 250.957 102.784C250.905 102.807 250.853 102.831 250.801 102.858C250.767 102.878 250.732 102.897 250.702 102.917C250.676 102.932 250.654 102.948 250.628 102.964C250.628 102.964 250.628 102.964 250.624 102.964C250.577 102.995 250.533 103.03 250.495 103.066C250.456 103.101 250.417 103.132 250.382 103.171C250.179 103.375 250.037 103.602 249.946 103.845C249.613 104.715 249.899 105.764 250.266 106.591Z" fill="#E98773"/>
<path opacity="0.69" d="M249.428 114.697L249.782 115.657C249.92 116.037 250.21 116.354 250.594 116.53C251.108 116.766 251.6 116.679 251.955 116.542C252.218 116.44 252.447 116.268 252.62 116.06C253.073 115.524 254.304 114.674 254.991 114.219C255.086 114.157 255.177 114.09 255.267 114.02C255.544 113.808 255.79 113.569 256.006 113.303C256.269 112.978 256.498 112.645 256.701 112.308C257.475 111.015 257.842 109.675 258.001 108.567L257.725 108.406C257.725 108.406 257.725 108.41 257.725 108.414C257.725 108.418 257.725 108.422 257.725 108.426C257.725 108.442 257.721 108.469 257.716 108.504C257.716 108.512 257.716 108.52 257.712 108.524C257.621 109.241 256.986 112.962 253.652 114.262C253.263 114.415 252.918 114.65 252.659 114.96C252.633 114.987 252.611 115.018 252.585 115.05C251.92 115.9 250.577 115.966 249.821 115.187C249.691 115.046 249.557 114.885 249.428 114.697Z" fill="#F0AFA1"/>
<path d="M251.131 112.013C251.148 111.997 251.156 111.985 251.156 111.985C251.722 111.409 252.634 111.362 252.634 111.362C253.109 111.374 253.346 110.826 253.67 110.661C252.37 110.881 250.94 109.666 250.94 109.666C250.703 109.224 250.141 109.22 250.141 109.22C249.688 109.177 249.459 109.298 249.355 109.474C249.256 109.631 249.265 109.835 249.291 109.987C249.312 110.121 249.351 110.219 249.355 110.226L249.787 111.186L249.494 111.903C249.709 113.384 250.936 112.208 251.131 112.013Z" fill="#E98773"/>
<path d="M250.062 106.076C250.123 106.252 250.192 106.424 250.265 106.589C250.447 106.593 250.615 106.593 250.771 106.585C253.406 106.479 252.65 104.881 252.65 104.881C252.546 104.677 252.429 104.509 252.295 104.368C251.591 103.616 250.55 103.71 249.941 103.851C249.881 104.007 249.842 104.168 249.821 104.332C249.747 104.904 249.868 105.515 250.062 106.076Z" fill="#D97F6B"/>
<path d="M250.061 106.077C250.523 106.21 250.882 106.257 251.158 106.245C252.303 106.198 252.009 105.145 252.009 105.145C251.741 104.146 250.45 104.228 249.819 104.334C249.793 104.518 249.789 104.71 249.802 104.898C249.832 105.297 249.932 105.701 250.061 106.077Z" fill="#BF5E55"/>
<path d="M249.794 112.571C249.95 112.629 250.131 112.641 250.291 112.59C250.438 112.547 250.572 112.461 250.667 112.324C251.384 111.321 250.438 110.122 250.438 110.122C250.027 109.547 249.634 109.727 249.427 109.903C249.328 109.985 249.297 110.115 249.349 110.228C249.418 110.385 249.474 110.549 249.509 110.714C249.587 111.078 249.582 111.454 249.492 111.815C249.492 111.854 249.423 112.371 249.794 112.571Z" fill="#A5514A"/>
<path d="M254.667 104.963C254.667 104.963 255.479 105.409 255.855 107.282L255.682 105.593L254.637 104.34L254.667 104.963Z" fill="#E98773"/>
<path d="M250.266 106.59C250.287 106.653 250.309 106.723 250.335 106.801C250.343 106.821 250.348 106.844 250.356 106.864C250.369 106.899 250.382 106.938 250.395 106.974C250.598 107.55 250.97 108.309 251.669 108.243C251.669 108.243 251.941 108.184 252.313 108.165C253.224 108.118 254.749 108.294 254.429 110.092C254.49 110.025 254.524 109.986 254.524 109.986C254.745 109.618 254.844 109.301 254.879 109.038C254.961 108.407 254.658 108.086 254.658 108.086C254.002 107.115 251.332 106.715 250.266 106.59Z" fill="#BF5E55"/>
<path d="M250.266 106.59C250.3 106.696 250.339 106.829 250.391 106.978C251.233 107.001 254.844 107.209 254.874 109.038C254.956 108.407 254.654 108.086 254.654 108.086C254.002 107.115 251.332 106.715 250.266 106.59Z" fill="#E98773"/>
<path d="M250.355 106.867C250.368 106.903 250.381 106.942 250.394 106.977C250.597 107.553 250.969 108.313 251.669 108.246C251.669 108.246 251.941 108.187 252.316 108.168C251.876 107.788 252.092 107.141 252.092 107.141L250.489 106.84L250.355 106.867Z" fill="#B2584F"/>
<path opacity="0.63" d="M249.808 104.902C249.808 104.902 251.765 105.137 251.156 106.245H251.16C252.305 106.198 252.011 105.145 252.011 105.145C251.743 104.146 250.452 104.228 249.821 104.334C249.799 104.522 249.795 104.71 249.808 104.902Z" fill="#B2584F"/>
<path d="M257.778 106.139C257.778 106.139 257.864 107.095 257.726 108.403C257.726 108.403 257.726 108.407 257.726 108.411C257.726 108.415 257.726 108.419 257.726 108.423C257.722 108.45 257.722 108.474 257.717 108.501C257.717 108.509 257.717 108.517 257.713 108.521C257.562 109.805 257.19 111.404 256.314 112.763L256.702 112.301C257.475 111.008 257.843 109.668 258.002 108.56C258.214 107.118 258.089 106.08 258.089 106.08C257.843 101.352 254.029 100.804 254.029 100.804C252.05 100.314 250.729 100.788 249.848 101.603C249.843 101.599 257.126 99.2879 257.778 106.139Z" fill="#FFD3C8"/>
<path opacity="0.44" d="M256.174 106.309C256.252 106.567 256.364 107.01 256.412 107.57C256.507 108.753 256.304 110.465 254.874 112.075C254.913 112.036 254.947 111.997 254.982 111.961C255.129 111.805 255.263 111.648 255.384 111.495C255.993 110.728 256.291 110.011 256.437 109.451C256.485 109.266 256.515 109.102 256.532 108.953C256.563 108.726 256.567 108.542 256.563 108.42C256.558 108.275 256.563 108.13 256.571 107.986C256.636 106.74 256.221 105.365 255.902 104.507C255.85 104.37 255.803 104.245 255.755 104.135C255.522 103.567 255.103 103.077 254.546 102.76C253.146 101.961 251.531 102.537 250.952 102.791C250.784 102.866 250.628 102.96 250.494 103.077C250.494 103.077 250.645 103.054 250.9 103.038C251.993 102.972 254.982 103.073 256.07 106C256.075 106.019 256.083 106.039 256.088 106.062C256.088 106.062 256.109 106.113 256.139 106.203C256.148 106.223 256.152 106.246 256.161 106.266C256.165 106.278 256.17 106.293 256.174 106.309Z" fill="#BF5E55"/>
<path d="M250.336 106.801C250.345 106.82 250.349 106.844 250.358 106.863C250.37 106.899 250.383 106.938 250.396 106.973C250.487 107.228 250.612 107.522 250.781 107.76C250.958 108.011 251.191 108.207 251.489 108.238C251.545 108.246 251.606 108.246 251.666 108.238C251.666 108.238 251.938 108.18 252.31 108.16C252.275 108.156 251.429 108.019 250.893 107.525C250.824 107.463 250.759 107.392 250.703 107.314C250.604 107.177 250.526 107.016 250.487 106.836L250.366 106.805L250.336 106.801Z" fill="#A6524A"/>
<path d="M250.291 112.593C250.438 112.55 250.572 112.464 250.667 112.327C251.228 111.535 250.766 110.627 250.542 110.274C250.46 110.149 250.313 110.063 250.157 110.067C250.023 110.07 249.898 110.129 249.928 110.368C249.941 110.458 249.95 110.548 249.95 110.638C249.954 111.077 249.989 112.28 250.291 112.593Z" fill="#8F4640"/>
<path d="M249.29 109.987C250.064 109.145 250.621 109.846 250.621 109.846C252.124 111.311 253.67 110.661 253.67 110.661C252.37 110.881 250.94 109.666 250.94 109.666C250.703 109.224 250.141 109.22 250.141 109.22C249.688 109.177 249.459 109.298 249.355 109.474C249.256 109.631 249.26 109.831 249.29 109.987Z" fill="#ED9D8C"/>
<path d="M250.533 112.246C250.61 112.293 250.71 112.266 250.753 112.191C251.176 111.435 250.753 110.609 250.541 110.276C250.541 110.276 250.222 110.146 250.239 110.468L250.416 112.066C250.425 112.14 250.468 112.207 250.533 112.246Z" fill="#8F4640"/>
<path d="M249.946 103.851C250.036 103.608 250.179 103.381 250.382 103.177C250.417 103.142 250.455 103.107 250.494 103.072C250.538 103.036 250.581 103.001 250.624 102.97C250.624 102.97 250.624 102.97 250.628 102.97C250.654 102.954 250.676 102.938 250.702 102.923C250.736 102.903 250.766 102.884 250.801 102.864C250.853 102.837 250.9 102.813 250.956 102.79C251.535 102.535 253.155 101.963 254.55 102.758C255.107 103.076 255.526 103.565 255.76 104.133C255.772 104.161 255.781 104.192 255.794 104.223C255.807 104.251 255.816 104.282 255.829 104.309C255.842 104.341 255.855 104.372 255.867 104.407C255.872 104.423 255.88 104.439 255.885 104.458C255.889 104.474 255.898 104.494 255.902 104.509C255.902 104.517 255.906 104.521 255.911 104.529C255.919 104.552 255.928 104.572 255.937 104.595C255.945 104.623 255.958 104.654 255.967 104.682C255.971 104.697 255.975 104.713 255.984 104.725C256.027 104.846 256.07 104.971 256.114 105.105C256.122 105.132 256.131 105.156 256.14 105.183C256.144 105.199 256.148 105.218 256.157 105.234C256.204 105.383 256.248 105.536 256.291 105.696C256.295 105.72 256.304 105.743 256.308 105.767C256.317 105.79 256.321 105.818 256.325 105.841C256.33 105.865 256.338 105.888 256.343 105.912C256.347 105.931 256.351 105.951 256.356 105.97C256.36 105.99 256.364 106.01 256.369 106.029C256.373 106.049 256.377 106.068 256.381 106.088C256.52 106.699 256.606 107.357 256.576 107.988C256.567 108.133 256.563 108.278 256.567 108.423C256.567 108.438 256.567 108.454 256.567 108.473C256.567 108.489 256.567 108.505 256.567 108.52C256.567 108.532 256.567 108.544 256.567 108.56C256.567 108.579 256.567 108.595 256.567 108.614C256.563 108.712 256.554 108.826 256.537 108.955C256.502 109.124 256.472 109.288 256.442 109.449C256.299 110.013 255.997 110.726 255.388 111.494C256.736 109.719 256.412 107.569 256.412 107.569C256.174 103.503 254.403 102.79 254.403 102.79C252.723 102.19 251.548 102.578 250.896 103.001C250.853 103.005 250.836 103.044 250.818 103.044C250.818 103.044 249.341 103.879 250.49 106.844L250.369 106.809C250.339 106.742 250.309 106.668 250.274 106.593C249.898 105.763 249.613 104.713 249.946 103.851Z" fill="#D97F6B"/>
<path d="M288.047 148.105C288.047 148.105 269.28 170.057 272.86 191.829C272.86 191.829 276.389 201.52 277.482 208.156V209.922L284.371 204.677C284.371 204.677 285.628 181.891 285.956 179.008C286.285 176.121 288.907 153.989 288.907 153.989L288.047 148.105Z" fill="#DFDFDF"/>
<path d="M300.676 234.401L296.413 234.945L293.886 235.267L286.357 236.226C285.498 236.336 284.63 236.391 283.762 236.391H271.391C269.262 236.391 267.154 236.042 265.159 235.361L261.578 234.139L251.942 231.584C251.035 231.346 250.11 231.173 249.173 231.083L235.109 229.673V211.211L257.98 210.334C258.878 210.299 259.777 210.346 260.666 210.475C262.614 210.757 266.148 211.2 266.757 210.851C267.076 210.667 267.716 210.62 268.389 210.632C268.471 210.632 268.553 210.632 268.64 210.632C270.255 210.632 271.845 210.291 273.27 209.574C273.745 209.339 274.251 209.159 274.778 209.041L278.825 208.152C278.963 207.423 278.773 206.048 278.406 204.384C278.375 204.247 278.345 204.109 278.311 203.968C278.073 202.934 277.775 201.802 277.451 200.651C276.104 195.891 274.281 190.791 274.281 190.791C271.581 168.526 288.046 148.098 288.046 148.098C306.684 152.967 306.783 175.921 306.783 175.921L307.725 179.455L307.919 186.419L310.619 211.47C310.895 231.353 300.676 234.401 300.676 234.401Z" fill="#EEEEEE"/>
<path d="M301.327 260.939L298.261 258.158V256.145H253.418V265.248H298.261V263.72L301.327 260.939Z" fill="#B5DAE5"/>
<path d="M301.327 316.865L298.261 314.083V312.168H253.418V321.275H298.261V319.646L301.327 316.865Z" fill="#B5DAE5"/>
<path d="M301.327 351.099L298.261 348.321V346.547H270.902V355.654H298.261V353.88L301.327 351.099Z" fill="#B5DAE5"/>
<path d="M209.197 334.254V336.009L206.113 338.806L209.197 341.599V343.357H261.901V334.254H209.197Z" fill="white"/>
<path d="M205.007 276.027V277.786L201.928 280.579L205.007 283.376V285.135H249.85V276.027H205.007Z" fill="white"/>
<path d="M205.232 290.438V291.809L202.152 294.601L205.232 297.398V299.541H267.11V290.438H205.232Z" fill="white"/>
<path d="M313.594 362.969V377.599C313.594 380.153 311.305 382.233 308.484 382.233H195.151C192.335 382.233 190.041 380.157 190.041 377.599V362.969H313.594Z" fill="#1A1A1A"/>
<path d="M297.266 226.841C293.214 216.895 278.818 208.16 278.818 208.16C278.965 207.373 278.732 205.829 278.309 203.977C292.351 210.311 297.119 226.344 297.266 226.841Z" fill="#DFDFDF"/>
<path d="M296.412 234.948L293.886 235.269C292.547 228.888 286.029 221.026 285.135 219.969C291.372 227.196 294.918 232.527 296.412 234.948Z" fill="#DFDFDF"/>
<path d="M277.447 200.663C278.112 190.361 282.872 182.91 286.375 178.75C280.354 186.847 278.76 200.232 278.402 204.392C278.372 204.255 278.341 204.118 278.307 203.977C278.069 202.946 277.771 201.814 277.447 200.663Z" fill="#DFDFDF"/>
<path d="M290.15 174.922C289.952 175.079 288.367 176.383 286.371 178.753C287.477 177.264 288.729 175.96 290.15 174.922Z" fill="white"/>
<path d="M234.004 177.382C234.004 177.997 233.456 178.494 232.777 178.494C232.099 178.494 231.551 177.997 231.551 177.382C231.551 176.767 232.099 176.27 232.777 176.27C233.451 176.27 234.004 176.767 234.004 177.382Z" fill="#B3B3B3"/>
<path d="M232.678 178.401C233.355 178.401 233.905 177.903 233.905 177.288C233.905 176.674 233.355 176.176 232.678 176.176C232 176.176 231.451 176.674 231.451 177.288C231.451 177.903 232 178.401 232.678 178.401Z" fill="#E6E6E6"/>
<path d="M232.315 177.103C232.186 177.103 232.082 177.009 232.082 176.891C232.082 176.774 232.186 176.68 232.315 176.68C232.445 176.68 232.549 176.774 232.549 176.891C232.549 177.009 232.445 177.103 232.315 177.103Z" fill="#999999"/>
<path d="M232.315 177.939C232.186 177.939 232.082 177.845 232.082 177.727C232.082 177.61 232.186 177.516 232.315 177.516C232.445 177.516 232.549 177.61 232.549 177.727C232.549 177.845 232.445 177.939 232.315 177.939Z" fill="#999999"/>
<path d="M233.067 177.103C232.938 177.103 232.834 177.009 232.834 176.891C232.834 176.774 232.938 176.68 233.067 176.68C233.197 176.68 233.3 176.774 233.3 176.891C233.3 177.009 233.197 177.103 233.067 177.103Z" fill="#999999"/>
<path d="M233.067 177.939C232.938 177.939 232.834 177.845 232.834 177.727C232.834 177.61 232.938 177.516 233.067 177.516C233.197 177.516 233.3 177.61 233.3 177.727C233.3 177.845 233.197 177.939 233.067 177.939Z" fill="#999999"/>
<path d="M232.302 177.079C232.172 177.079 232.068 176.985 232.068 176.868C232.068 176.75 232.172 176.656 232.302 176.656C232.431 176.656 232.535 176.75 232.535 176.868C232.535 176.985 232.431 177.079 232.302 177.079Z" fill="#F2F2F2"/>
<path d="M232.302 177.915C232.172 177.915 232.068 177.821 232.068 177.704C232.068 177.586 232.172 177.492 232.302 177.492C232.431 177.492 232.535 177.586 232.535 177.704C232.535 177.821 232.431 177.915 232.302 177.915Z" fill="#F2F2F2"/>
<path d="M233.05 177.079C232.92 177.079 232.816 176.985 232.816 176.868C232.816 176.75 232.92 176.656 233.05 176.656C233.179 176.656 233.283 176.75 233.283 176.868C233.283 176.985 233.179 177.079 233.05 177.079Z" fill="#F2F2F2"/>
<path d="M233.05 177.915C232.92 177.915 232.816 177.821 232.816 177.704C232.816 177.586 232.92 177.492 233.05 177.492C233.179 177.492 233.283 177.586 233.283 177.704C233.283 177.821 233.179 177.915 233.05 177.915Z" fill="#F2F2F2"/>
<path d="M228.955 203.143C229.633 203.143 230.182 202.645 230.182 202.03C230.182 201.416 229.633 200.918 228.955 200.918C228.278 200.918 227.729 201.416 227.729 202.03C227.729 202.645 228.278 203.143 228.955 203.143Z" fill="#B3B3B3"/>
<path d="M230.082 201.937C230.082 202.552 229.534 203.049 228.856 203.049C228.177 203.049 227.629 202.552 227.629 201.937C227.629 201.322 228.177 200.824 228.856 200.824C229.534 200.824 230.082 201.322 230.082 201.937Z" fill="#E6E6E6"/>
<path d="M228.497 201.747C228.367 201.747 228.264 201.653 228.264 201.536C228.264 201.418 228.367 201.324 228.497 201.324C228.626 201.324 228.73 201.418 228.73 201.536C228.73 201.653 228.626 201.747 228.497 201.747Z" fill="#999999"/>
<path d="M228.497 202.583C228.367 202.583 228.264 202.489 228.264 202.372C228.264 202.254 228.367 202.16 228.497 202.16C228.626 202.16 228.73 202.254 228.73 202.372C228.73 202.489 228.626 202.583 228.497 202.583Z" fill="#999999"/>
<path d="M229.245 201.747C229.115 201.747 229.012 201.653 229.012 201.536C229.012 201.418 229.115 201.324 229.245 201.324C229.375 201.324 229.478 201.418 229.478 201.536C229.478 201.653 229.375 201.747 229.245 201.747Z" fill="#999999"/>
<path d="M229.245 202.583C229.115 202.583 229.012 202.489 229.012 202.372C229.012 202.254 229.115 202.16 229.245 202.16C229.375 202.16 229.478 202.254 229.478 202.372C229.478 202.489 229.375 202.583 229.245 202.583Z" fill="#999999"/>
<path d="M228.481 201.732C228.352 201.732 228.248 201.638 228.248 201.52C228.248 201.403 228.352 201.309 228.481 201.309C228.611 201.309 228.715 201.403 228.715 201.52C228.715 201.638 228.611 201.732 228.481 201.732Z" fill="#F2F2F2"/>
<path d="M228.481 202.568C228.352 202.568 228.248 202.474 228.248 202.356C228.248 202.239 228.352 202.145 228.481 202.145C228.611 202.145 228.715 202.239 228.715 202.356C228.715 202.474 228.611 202.568 228.481 202.568Z" fill="#F2F2F2"/>
<path d="M229.233 201.732C229.104 201.732 229 201.638 229 201.52C229 201.403 229.104 201.309 229.233 201.309C229.363 201.309 229.466 201.403 229.466 201.52C229.462 201.638 229.359 201.732 229.233 201.732Z" fill="#F2F2F2"/>
<path d="M229.233 202.568C229.104 202.568 229 202.474 229 202.356C229 202.239 229.104 202.145 229.233 202.145C229.363 202.145 229.466 202.239 229.466 202.356C229.462 202.474 229.359 202.568 229.233 202.568Z" fill="#F2F2F2"/>
<path d="M225.889 235.819C226.566 235.819 227.115 235.321 227.115 234.706C227.115 234.092 226.566 233.594 225.889 233.594C225.211 233.594 224.662 234.092 224.662 234.706C224.662 235.321 225.211 235.819 225.889 235.819Z" fill="#B3B3B3"/>
<path d="M227.016 234.612C227.016 235.227 226.467 235.725 225.789 235.725C225.111 235.725 224.562 235.227 224.562 234.612C224.562 233.997 225.111 233.5 225.789 233.5C226.463 233.5 227.016 233.997 227.016 234.612Z" fill="#E6E6E6"/>
<path d="M225.431 234.423C225.301 234.423 225.197 234.329 225.197 234.212C225.197 234.094 225.301 234 225.431 234C225.56 234 225.664 234.094 225.664 234.212C225.659 234.329 225.556 234.423 225.431 234.423Z" fill="#999999"/>
<path d="M225.431 235.259C225.301 235.259 225.197 235.165 225.197 235.047C225.197 234.93 225.301 234.836 225.431 234.836C225.56 234.836 225.664 234.93 225.664 235.047C225.659 235.165 225.556 235.259 225.431 235.259Z" fill="#999999"/>
<path d="M226.179 234.423C226.049 234.423 225.945 234.329 225.945 234.212C225.945 234.094 226.049 234 226.179 234C226.308 234 226.412 234.094 226.412 234.212C226.412 234.329 226.308 234.423 226.179 234.423Z" fill="#999999"/>
<path d="M226.179 235.259C226.049 235.259 225.945 235.165 225.945 235.047C225.945 234.93 226.049 234.836 226.179 234.836C226.308 234.836 226.412 234.93 226.412 235.047C226.412 235.165 226.308 235.259 226.179 235.259Z" fill="#999999"/>
<path d="M225.415 234.404C225.285 234.404 225.182 234.31 225.182 234.192C225.182 234.074 225.285 233.98 225.415 233.98C225.544 233.98 225.648 234.074 225.648 234.192C225.648 234.31 225.544 234.404 225.415 234.404Z" fill="#F2F2F2"/>
<path d="M225.415 235.239C225.285 235.239 225.182 235.145 225.182 235.028C225.182 234.91 225.285 234.816 225.415 234.816C225.544 234.816 225.648 234.91 225.648 235.028C225.648 235.145 225.544 235.239 225.415 235.239Z" fill="#F2F2F2"/>
<path d="M226.163 234.404C226.033 234.404 225.93 234.31 225.93 234.192C225.93 234.074 226.033 233.98 226.163 233.98C226.293 233.98 226.396 234.074 226.396 234.192C226.396 234.31 226.293 234.404 226.163 234.404Z" fill="#F2F2F2"/>
<path d="M226.163 235.239C226.033 235.239 225.93 235.145 225.93 235.028C225.93 234.91 226.033 234.816 226.163 234.816C226.293 234.816 226.396 234.91 226.396 235.028C226.396 235.145 226.293 235.239 226.163 235.239Z" fill="#F2F2F2"/>
<path d="M212.122 197.976C212.032 197.976 211.945 197.968 211.859 197.949C211.44 197.855 211.228 197.569 211.163 197.467C209.583 195.336 206.598 180.756 206.473 180.137L207.285 180C208.14 184.203 210.628 195.457 211.854 197.059L211.889 197.114C211.889 197.114 211.945 197.204 212.057 197.224C212.209 197.255 212.446 197.161 212.714 196.977L213.219 197.569C212.831 197.839 212.463 197.976 212.122 197.976Z" fill="#A39D9D"/>
<path d="M228.708 197.976C228.367 197.976 228 197.839 227.611 197.565L228.117 196.973C228.38 197.161 228.622 197.251 228.773 197.22C228.886 197.196 228.942 197.106 228.946 197.102L228.976 197.055C230.203 195.457 232.691 184.199 233.546 179.996L234.358 180.133C234.233 180.756 231.252 195.332 229.667 197.463C229.603 197.569 229.391 197.855 228.972 197.945C228.881 197.964 228.795 197.976 228.708 197.976Z" fill="#A39D9D"/>
<path d="M214.437 197.012L213.021 197.866L212.273 196.843L213.69 195.989C214.001 195.801 214.42 195.88 214.627 196.162C214.835 196.444 214.748 196.824 214.437 197.012Z" fill="url(#paint7_linear_2889_4118)"/>
<path d="M226.973 196.085L228.472 196.813L227.832 197.894L226.333 197.166C226.005 197.005 225.88 196.633 226.057 196.335C226.234 196.038 226.644 195.924 226.973 196.085Z" fill="url(#paint8_linear_2889_4118)"/>
<path d="M268.174 190.433C270.364 190.433 272.139 187.94 272.139 184.863C272.139 181.787 270.364 179.293 268.174 179.293C265.984 179.293 264.209 181.787 264.209 184.863C264.209 187.94 265.984 190.433 268.174 190.433Z" fill="url(#paint9_linear_2889_4118)"/>
<path d="M267.629 190.433C269.819 190.433 271.594 187.94 271.594 184.863C271.594 181.787 269.819 179.293 267.629 179.293C265.439 179.293 263.664 181.787 263.664 184.863C263.664 187.94 265.439 190.433 267.629 190.433Z" fill="#BDCFED"/>
<path d="M267.963 145.262C267.708 142.062 267.332 139.006 266.797 136.268C266.797 136.268 266.568 133.628 264.123 134.235C264.123 134.235 264.685 134.635 264.784 134.999C265.613 138.572 266.132 142.857 266.438 147.381C267.544 163.708 265.881 183.165 265.855 183.439L267.267 183.368C267.362 182.205 269.28 161.777 267.963 145.262Z" fill="url(#paint10_linear_2889_4118)"/>
<path d="M221.49 160.31C221.986 158.226 222.725 155.527 223.68 152.672C224.025 151.642 224.397 150.592 224.79 149.542C225.019 148.939 225.368 148.382 225.831 147.901L226.09 147.63C225.913 147.626 225.744 147.63 225.58 147.642C224.215 147.748 223.088 148.653 222.755 149.859L222.41 151.124C222.259 151.563 222.116 151.994 221.978 152.417C220.876 155.774 220.125 158.716 219.753 160.279C211.979 160.549 205.768 166.347 205.768 173.464V180.946H208.191V173.464C208.191 167.389 213.62 162.465 220.319 162.465C227.018 162.465 232.448 167.389 232.448 173.464V180.946H234.871V173.464C234.871 166.531 228.979 160.851 221.49 160.31Z" fill="url(#paint11_linear_2889_4118)"/>
<path d="M267.624 186.93C268.473 186.93 269.161 185.962 269.161 184.768C269.161 183.574 268.473 182.605 267.624 182.605C266.774 182.605 266.086 183.574 266.086 184.768C266.086 185.962 266.774 186.93 267.624 186.93Z" fill="url(#paint12_linear_2889_4118)"/>
<path d="M265.374 188.203C266.722 188.203 267.814 186.666 267.814 184.771C267.814 182.876 266.722 181.34 265.374 181.34C264.026 181.34 262.934 182.876 262.934 184.771C262.934 186.666 264.026 188.203 265.374 188.203Z" fill="black"/>
<path d="M265.042 188.203C266.39 188.203 267.482 186.666 267.482 184.771C267.482 182.876 266.39 181.34 265.042 181.34C263.694 181.34 262.602 182.876 262.602 184.771C262.602 186.666 263.694 188.203 265.042 188.203Z" fill="url(#paint13_linear_2889_4118)"/>
<path d="M265.042 187.81C266.154 187.81 267.055 186.449 267.055 184.77C267.055 183.091 266.154 181.73 265.042 181.73C263.93 181.73 263.029 183.091 263.029 184.77C263.029 186.449 263.93 187.81 265.042 187.81Z" fill="url(#paint14_radial_2889_4118)"/>
<path d="M165.684 269.924C165.684 269.924 172.258 264.166 180.646 266.43C180.646 266.43 197.198 274.245 197.422 280.821C197.422 280.821 201.197 295.738 184.914 295.476C184.914 295.472 149.591 287.398 165.684 269.924Z" fill="#FFC0AF"/>
<path d="M186.773 289.449L196.431 277.948C196.431 277.948 184.959 270.737 180.882 274.235C180.877 274.235 171.129 281.431 186.773 289.449Z" fill="white"/>
<path d="M155.711 306.31C155.711 306.31 162.061 296.443 171.127 300.348L187.151 307.34C187.151 307.34 214.203 319.883 205.132 330.984C205.132 330.984 197.453 346.406 175.675 327.49C175.675 327.49 160.812 324.611 155.711 320.909C155.711 320.909 150.951 312.221 155.711 306.31Z" fill="#FFC0AF"/>
<path d="M187.152 326.924C187.152 326.924 182.375 323.759 187.152 318.173C187.152 318.173 191.066 314.279 196.43 317.366L205.535 324.46L197.808 333.403L187.152 326.924Z" fill="white"/>
<path d="M152.649 338.022C152.649 338.022 157.918 327.688 168.63 331.852C168.63 331.852 199.236 343.11 190.736 354.364C190.736 354.364 184.784 364.232 164.721 356.06L158.428 356.675C158.432 356.683 147.379 351.285 152.649 338.022Z" fill="#FFC0AF"/>
<path d="M172.712 345.088C172.712 345.088 177.982 340.031 189.717 349.436L183.938 356.84C183.938 356.84 168.635 351.07 172.712 345.088Z" fill="white"/>
<path d="M369.586 367.935C369.586 367.935 362.658 365.361 353.864 360.821L333.218 396.468C329.279 394.325 326.299 391.085 324.083 387.16C324.078 387.156 324.078 387.156 324.078 387.153L324.061 387.129C323.906 386.851 323.75 386.569 323.599 386.283C323.599 386.279 323.595 386.275 323.595 386.275C315.168 370.199 318.537 343.684 320.381 332.982C319.357 331.031 321.21 328.238 321.28 328.269C317.064 325.504 305.795 315.225 305.795 315.225C292.198 311.535 284.177 300.313 284.177 300.313C275.21 288.561 272.964 277.816 272.964 277.816C272.295 273.727 272.567 270.922 273.366 269.022C274.627 266.029 277.197 265.281 279.447 265.281C280.082 265.281 280.691 265.34 281.24 265.426C281.832 265.516 282.35 265.642 282.752 265.751L296.094 275.693C297.632 277.628 298.789 278.365 300.871 279.254C303.899 280.55 307.847 281.6 307.847 281.6C322.454 281.902 331.564 292.161 331.564 292.161L350.093 309.682C362.058 316.404 362.265 327.58 362.265 327.58L368.044 357.629C368.256 359.576 368.217 361.534 368.152 363.497C368.096 365.424 368.714 366.865 369.586 367.935Z" fill="#FFC0AF"/>
<path d="M300.879 279.254L296.641 282.466L292.422 280.245C286.141 276.947 281.502 271.588 279.455 265.277C280.09 265.277 280.699 265.336 281.248 265.422C281.839 265.512 282.358 265.638 282.759 265.747L296.102 275.689L300.879 279.254Z" fill="white"/>
<path d="M187.377 82.6962C195.09 75.7015 195.09 64.361 187.377 57.3663C179.665 50.3717 167.16 50.3717 159.447 57.3663C151.735 64.361 151.735 75.7015 159.447 82.6962C167.16 89.6908 179.665 89.6908 187.377 82.6962Z" fill="#9AB1B7"/>
<path d="M186.352 81.5946C194.065 74.6 194.065 63.2594 186.352 56.2648C178.639 49.2701 166.135 49.2701 158.422 56.2648C150.709 63.2594 150.709 74.6 158.422 81.5946C166.135 88.5893 178.639 88.5893 186.352 81.5946Z" fill="white"/>
<path d="M165.777 74.8744C164.673 73.8734 164.673 72.2524 165.777 71.2514L173.855 63.9258L177.849 67.5487L169.772 74.8744C168.668 75.8754 166.881 75.8754 165.777 74.8744Z" fill="#2E3192"/>
<path d="M178.65 68.2558L173.195 63.3041L174.358 62.25L179.818 67.1973L178.65 68.2558Z" fill="#2E3192"/>
<path d="M165.732 76.1871L164.33 74.9159L165.072 74.2383L166.479 75.5094L165.732 76.1871Z" fill="#2E3192"/>
<path d="M160.102 80.5544L159.516 80.023L164.766 75.2617L165.352 75.7932L160.102 80.5544Z" fill="#2E3192"/>
<path d="M183.055 61.0714L181.116 59.3086L176.115 63.8439L178.059 65.6023L183.055 61.0714Z" fill="#2E3192"/>
<path d="M184.365 62.2785L179.789 58.124L180.546 57.4375L185.122 61.5875L184.365 62.2785Z" fill="#2E3192"/>
<path d="M174.827 66.1432L174.555 66.3906L176.844 68.467L177.117 68.2196L174.827 66.1432Z" fill="white"/>
<path d="M173.603 67.2409L173.33 67.4883L175.62 69.5647L175.892 69.3172L173.603 67.2409Z" fill="white"/>
<path d="M172.382 68.3463L172.109 68.5938L174.399 70.6701L174.672 70.4227L172.382 68.3463Z" fill="white"/>
<path d="M171.161 69.4596L170.889 69.707L173.178 71.7834L173.451 71.536L171.161 69.4596Z" fill="white"/>
<path d="M169.941 70.5651L169.668 70.8125L171.957 72.8889L172.23 72.6415L169.941 70.5651Z" fill="white"/>
<path d="M168.718 71.6706L168.445 71.918L170.735 73.9943L171.008 73.7469L168.718 71.6706Z" fill="white"/>
<path d="M167.497 72.776L167.225 73.0234L169.514 75.0998L169.787 74.8524L167.497 72.776Z" fill="white"/>
<path d="M362.21 131.808C375.776 126.712 382.219 112.606 376.599 100.302C370.98 87.9987 355.426 82.1561 341.859 87.2525C328.293 92.349 321.85 106.455 327.47 118.758C333.09 131.062 348.643 136.904 362.21 131.808Z" fill="#9AB1B7"/>
<path d="M350.764 132.503C365.448 132.503 377.351 121.707 377.351 108.39C377.351 95.073 365.448 84.2773 350.764 84.2773C336.08 84.2773 324.176 95.073 324.176 108.39C324.176 121.707 336.08 132.503 350.764 132.503Z" fill="white"/>
<path d="M369.607 112.41H357.051V113.974H369.607V112.41Z" fill="#2E3192"/>
<path d="M374.83 110.062H362.273V110.844H374.83V110.062Z" fill="#2E3192"/>
<path d="M367.348 106.492H359.951V107.416H367.348V106.492Z" fill="#2E3192"/>
<path d="M364.788 103.242H352.367V104.192H364.788V103.242Z" fill="#2E3192"/>
<path d="M339.634 100.144V101.217H336.498V100.144C336.498 99.3625 337.196 98.7227 338.066 98.7227C338.501 98.7227 338.892 98.8842 339.178 99.1363C339.463 99.3948 339.634 99.7502 339.634 100.144Z" fill="#2E3192"/>
<path d="M339.634 102.051H336.498V103.712H339.634V102.051Z" fill="#2E3192"/>
<path d="M356.53 115.224H332.679C330.904 115.224 329.465 113.918 329.465 112.309V108.793C329.465 108.373 329.565 107.953 329.764 107.572L331.382 104.405C331.98 103.229 333.284 102.473 334.717 102.473H356.523C357.955 102.473 359.124 103.526 359.124 104.832V112.871C359.124 114.17 357.963 115.224 356.53 115.224Z" fill="#2E3192"/>
<path d="M336.2 118.066C337.932 118.066 339.335 116.793 339.335 115.223C339.335 113.652 337.932 112.379 336.2 112.379C334.468 112.379 333.064 113.652 333.064 115.223C333.064 116.793 334.468 118.066 336.2 118.066Z" fill="white"/>
<path d="M336.199 117.25C334.966 117.25 333.961 116.339 333.961 115.221C333.961 114.103 334.966 113.191 336.199 113.191C337.431 113.191 338.436 114.103 338.436 115.221C338.429 116.339 337.431 117.25 336.199 117.25Z" fill="#2E3192"/>
<path d="M352.169 118.066C353.9 118.066 355.304 116.793 355.304 115.223C355.304 113.652 353.9 112.379 352.169 112.379C350.437 112.379 349.033 113.652 349.033 115.223C349.033 116.793 350.437 118.066 352.169 118.066Z" fill="white"/>
<path d="M352.169 117.25C350.936 117.25 349.932 116.339 349.932 115.221C349.932 114.103 350.936 113.191 352.169 113.191C353.402 113.191 354.407 114.103 354.407 115.221C354.407 116.339 353.402 117.25 352.169 117.25Z" fill="#2E3192"/>
<path d="M356.873 106.012H354.728V104.066H353.138V106.012H350.986V107.453H353.138V109.405H354.728V107.453H356.873V106.012Z" fill="white"/>
<path d="M339.676 107.55H331.652L333.07 104.81C333.42 104.137 334.161 103.711 334.973 103.711H339.676V107.55Z" fill="white"/>
<path d="M349.574 104.066H342.234V107.453H349.574V104.066Z" fill="white"/>
<path d="M160.467 137.89C171.167 137.89 179.841 130.024 179.841 120.32C179.841 110.616 171.167 102.75 160.467 102.75C149.768 102.75 141.094 110.616 141.094 120.32C141.094 130.024 149.768 137.89 160.467 137.89Z" fill="#9AB1B7"/>
<path d="M178.215 123.371C180.674 113.927 174.226 104.464 163.813 102.234C153.4 100.004 142.966 105.852 140.507 115.295C138.048 124.739 144.496 134.202 154.909 136.432C165.322 138.662 175.757 132.814 178.215 123.371Z" fill="white"/>
<path d="M407.263 88.2237C427.75 88.2237 444.359 73.1611 444.359 54.5806C444.359 36 427.75 20.9375 407.263 20.9375C386.775 20.9375 370.166 36 370.166 54.5806C370.166 73.1611 386.775 88.2237 407.263 88.2237Z" fill="#9AB1B7"/>
<path d="M405.675 86.7823C426.162 86.7823 442.771 71.7197 442.771 53.1392C442.771 34.5586 426.162 19.4961 405.675 19.4961C385.187 19.4961 368.578 34.5586 368.578 53.1392C368.578 71.7197 385.187 86.7823 405.675 86.7823Z" fill="white"/>
<path d="M421.535 40.8116H413.568V39.456C413.568 37.6086 411.916 36.1055 409.873 36.1055H400.357C398.32 36.1055 396.662 37.6031 396.662 39.456V40.8116H388.695C384.398 40.8116 380.914 43.9708 380.914 47.868V62.9155C380.914 66.8126 384.398 69.9719 388.695 69.9719H421.529C425.827 69.9719 429.31 66.8126 429.31 62.9155V47.868C429.316 43.9708 425.833 40.8116 421.535 40.8116Z" fill="#2E3192"/>
<path d="M415.689 50.9905H407.372V43.4531H402.858V50.9905H394.547V55.0845H402.858V62.6273H407.372V55.0845H415.689V50.9905Z" fill="white"/>
<path d="M299.459 55.0081C310.511 44.9848 310.511 28.7339 299.459 18.7107C288.407 8.68745 270.488 8.68744 259.435 18.7107C248.383 28.7339 248.383 44.9848 259.435 55.0081C270.488 65.0313 288.407 65.0313 299.459 55.0081Z" fill="#9AB1B7"/>
<path d="M278.401 61.5749C294.031 61.5749 306.702 50.0837 306.702 35.9086C306.702 21.7334 294.031 10.2422 278.401 10.2422C262.77 10.2422 250.1 21.7334 250.1 35.9086C250.1 50.0837 262.77 61.5749 278.401 61.5749Z" fill="white"/>
<path d="M289.79 26.2888C287.894 24.5697 285.413 23.7148 282.932 23.7148C280.84 23.7148 278.753 24.3255 277.013 25.542C275.272 24.3208 273.18 23.7148 271.087 23.7148C268.607 23.7148 266.126 24.5744 264.23 26.2888C260.739 29.4547 260.465 34.4289 263.407 37.8765C263.66 38.1724 263.93 38.4542 264.23 38.722L276.075 49.4595C276.37 49.7272 276.686 49.9808 277.013 50.2063C277.339 49.9761 277.65 49.7272 277.945 49.4595L289.784 38.722C290.08 38.4542 290.354 38.1677 290.608 37.8765C293.55 34.4242 293.275 29.45 289.79 26.2888Z" fill="#2E3192"/>
<path d="M274.807 42.2126L270.462 31.8697L266.785 35.7166H253.945V34.6456H266.246L270.861 29.8123L274.812 39.2112L278.769 29.9016V34.702L283.892 26.8203L285.357 33.3164L286.15 31.5174L287.874 34.6456H300.077V35.7166H287.139L286.269 34.1383L284.99 37.0458L283.348 29.7701L277.583 38.6428V35.6743L274.807 42.2126Z" fill="white"/>
<path d="M510.901 119.26C521.102 110.008 521.102 95.0077 510.901 85.7559C500.699 76.5041 484.159 76.5041 473.958 85.7559C463.756 95.0077 463.756 110.008 473.958 119.26C484.159 128.512 500.699 128.512 510.901 119.26Z" fill="#9AB1B7"/>
<path d="M509.461 117.951C519.663 108.699 519.663 93.6991 509.461 84.4473C499.26 75.1955 482.72 75.1955 472.518 84.4473C462.317 93.6991 462.317 108.699 472.518 117.951C482.72 127.203 499.26 127.203 509.461 117.951Z" fill="white"/>
<path d="M499.98 103.026L493.837 97.4542C492.054 95.8376 492.054 93.208 493.837 91.5914C495.619 89.9748 498.519 89.9748 500.302 91.5914L506.445 97.1628L499.98 103.026ZM497.073 90.731C496.002 90.731 494.923 91.0987 494.112 91.8411C492.475 93.3259 492.475 95.7335 494.112 97.2183L499.988 102.547L505.917 97.1698L500.041 91.8411C499.223 91.0987 498.144 90.731 497.073 90.731Z" fill="#2E3192"/>
<path d="M513.468 105.417C513.468 106.437 513.04 107.45 512.183 108.227C510.699 109.573 508.404 109.753 506.705 108.754C507.027 108.261 507.218 107.686 507.218 107.068C507.218 105.243 505.581 103.758 503.569 103.758H501.059L499.98 102.78L506.177 97.1602L512.183 102.607C513.04 103.391 513.468 104.404 513.468 105.417Z" fill="#2E3192"/>
<path d="M509.077 109.56C508.22 109.56 507.356 109.344 506.606 108.9L506.453 108.81L506.545 108.664C506.858 108.186 507.027 107.631 507.027 107.069C507.027 105.341 505.474 103.933 503.569 103.933H500.983L499.713 102.781L506.178 96.918L512.313 102.489C513.178 103.273 513.652 104.314 513.652 105.417C513.652 106.528 513.178 107.568 512.313 108.352C511.441 109.15 510.263 109.56 509.077 109.56ZM506.958 108.699C508.587 109.566 510.699 109.331 512.045 108.109C512.833 107.395 513.277 106.437 513.277 105.424C513.277 104.411 512.841 103.454 512.045 102.739L506.178 97.4106L500.248 102.788L501.136 103.593H503.569C505.688 103.593 507.409 105.154 507.409 107.076C507.409 107.645 507.256 108.2 506.958 108.699Z" fill="#2E3192"/>
<path d="M501.02 95.1651L500.148 94.3672L498.962 95.4426L497.776 94.3672L496.896 95.1651L498.082 96.2405L496.896 97.316L497.776 98.1139L498.962 97.0384L500.148 98.1139L501.02 97.316L499.834 96.2405L501.02 95.1651Z" fill="#2E3192"/>
<path d="M503.568 109.323H498.939V104.82H503.568C504.937 104.82 506.047 105.826 506.047 107.068C506.047 108.31 504.937 109.323 503.568 109.323ZM499.314 108.976H503.568C504.723 108.976 505.672 108.123 505.672 107.068C505.672 106.021 504.731 105.16 503.568 105.16H499.314V108.976Z" fill="#2E3192"/>
<path d="M494.686 109.148H499.131V104.992H494.686C493.424 104.992 492.398 105.922 492.398 107.074C492.391 108.218 493.416 109.148 494.686 109.148Z" fill="#2E3192"/>
<path d="M499.314 109.324H494.686C493.316 109.324 492.207 108.318 492.207 107.076C492.207 105.834 493.316 104.828 494.686 104.828H499.314V109.324ZM494.686 105.168C493.531 105.168 492.582 106.022 492.582 107.076C492.582 108.124 493.523 108.984 494.686 108.984H498.94V105.175H494.686V105.168Z" fill="#2E3192"/>
<path d="M503.377 106.775H502.497V105.984H501.847V106.775H500.967V107.365H501.847V108.163H502.497V107.365H503.377V106.775Z" fill="#2E3192"/>
<path d="M483.104 110.74H478.108C474.061 110.74 470.771 107.764 470.771 104.086V102.248C470.771 98.5772 474.054 95.5938 478.108 95.5938H483.104C487.151 95.5938 490.441 98.5703 490.441 102.248V104.086C490.441 107.764 487.159 110.74 483.104 110.74Z" fill="#2E3192"/>
<path d="M485.719 93.1133H475.498V95.6527H485.719V93.1133Z" fill="white"/>
<path d="M484.482 93.4234H476.732C475.447 93.4234 474.414 92.4797 474.414 91.3211C474.414 90.1554 475.455 89.2188 476.732 89.2188H484.482C485.767 89.2188 486.8 90.1624 486.8 91.3211C486.808 92.4797 485.767 93.4234 484.482 93.4234Z" fill="#2E3192"/>
<path d="M481.771 99.2656H479.445V107.078H481.771V99.2656Z" fill="white"/>
<path d="M484.912 104.226V102.117H476.298V104.226H484.912Z" fill="white"/>
<path d="M36.4012 168.613C52.4901 168.613 65.5328 156.784 65.5328 142.193C65.5328 127.602 52.4901 115.773 36.4012 115.773C20.3122 115.773 7.26953 127.602 7.26953 142.193C7.26953 156.784 20.3122 168.613 36.4012 168.613Z" fill="#9AB1B7"/>
<path d="M63.3963 146.548C67.0935 132.348 57.3976 118.118 41.7398 114.765C26.082 111.412 10.3917 120.205 6.69445 134.406C2.99721 148.606 12.6931 162.835 28.3509 166.188C44.0087 169.541 59.6991 160.748 63.3963 146.548Z" fill="white"/>
<path d="M24.1211 149.545C24.1211 144.074 35.044 127.141 35.044 127.141C35.044 127.141 45.967 144.074 45.967 149.545C45.967 155.015 41.076 159.451 35.044 159.451C29.0121 159.461 24.1211 155.025 24.1211 149.545Z" fill="#2E3192"/>
<path d="M40.3652 126.871C40.3652 125.55 42.9971 121.473 42.9971 121.473C42.9971 121.473 45.629 125.55 45.629 126.871C45.629 128.193 44.4543 129.258 42.9971 129.258C41.54 129.258 40.3652 128.193 40.3652 126.871Z" fill="#2E3192"/>
<path d="M44.7462 149.544C44.7462 151.89 43.7409 154.102 41.911 155.762C40.0811 157.422 37.6412 158.333 35.0545 158.333C32.8292 158.333 30.7057 157.657 29 156.407C30.0505 156.94 31.214 157.299 32.4452 157.442C35.0093 157.749 37.5622 157.135 39.618 155.711C41.6738 154.287 42.9954 152.217 43.3455 149.892C43.4585 149.134 43.402 147.567 42.5323 144.35C42.1821 143.08 41.7416 141.656 41.1881 140.078C41.9562 141.574 42.6113 142.936 43.1422 144.145C44.4638 147.229 44.7462 148.786 44.7462 149.544Z" fill="white"/>
<path d="M87.0882 100.529C106.136 100.529 121.577 86.525 121.577 69.2506C121.577 51.9763 106.136 37.9727 87.0882 37.9727C68.0407 37.9727 52.5996 51.9763 52.5996 69.2506C52.5996 86.525 68.0407 100.529 87.0882 100.529Z" fill="#3F50A4"/>
<path d="M85.8773 99.2669C104.925 99.2669 120.366 85.2633 120.366 67.9889C120.366 50.7146 104.925 36.7109 85.8773 36.7109C66.8297 36.7109 51.3887 50.7146 51.3887 67.9889C51.3887 85.2633 66.8297 99.2669 85.8773 99.2669Z" fill="white"/>
<path d="M76.991 54.6444H72.8301V50.8398H76.991C78.1484 50.8398 79.0861 51.6902 79.0861 52.7399C79.0861 53.794 78.1484 54.6444 76.991 54.6444Z" fill="#2E3192"/>
<path d="M81.7611 54.6444H85.922V50.8398H81.7611C80.6037 50.8398 79.666 51.6902 79.666 52.7399C79.6612 53.794 80.6037 54.6444 81.7611 54.6444Z" fill="#2E3192"/>
<path d="M95.8258 67.5379V76.3384C95.8258 80.3689 92.2217 83.6375 87.7775 83.6375C85.5554 83.6375 83.5433 82.8181 82.0831 81.4983C80.6278 80.1784 79.7243 78.3536 79.7243 76.334V69.5221C84.4175 69.3538 88.1682 65.8549 88.1682 61.5587V50.8359H86.5126V60.9962C86.5126 64.5704 83.3187 67.4715 79.3727 67.4715C77.3997 67.4715 75.6171 66.7451 74.3278 65.5758C73.0385 64.4066 72.2376 62.7855 72.2376 61.0006V50.8404H70.582V61.5631C70.582 65.5625 73.8346 68.8755 78.0687 69.4468V76.3384C78.0687 81.1971 82.4152 85.139 87.7726 85.139C93.13 85.139 97.4765 81.1971 97.4765 76.3384V67.5379H95.8258Z" fill="#2E3192"/>
<path d="M96.6951 72.0487C99.1685 72.0487 101.173 70.2303 101.173 67.9872C101.173 65.7441 99.1685 63.9258 96.6951 63.9258C94.2218 63.9258 92.2168 65.7441 92.2168 67.9872C92.2168 70.2303 94.2218 72.0487 96.6951 72.0487Z" fill="#2E3192"/>
<path d="M96.6948 70.5507C98.2565 70.5507 99.5225 69.4026 99.5225 67.9863C99.5225 66.57 98.2565 65.4219 96.6948 65.4219C95.1332 65.4219 93.8672 66.57 93.8672 67.9863C93.8672 69.4026 95.1332 70.5507 96.6948 70.5507Z" fill="#2E3192"/>
<path d="M144.141 250.224C137.934 248.575 131.434 242.602 127.585 238.547C132.743 234.662 135.9 229.46 135.9 223.744C135.9 211.715 121.932 201.965 104.702 201.965C87.4724 201.965 73.5039 211.719 73.5039 223.744C73.5039 235.774 87.4724 245.524 104.702 245.524C109.889 245.524 114.783 244.639 119.089 243.072C129.33 247.808 144.141 250.224 144.141 250.224Z" fill="#ADEED8"/>
<path d="M103.617 261.446C103.254 261.387 92.5427 259.601 85.1006 256.161C81.9173 257.317 78.2977 257.975 74.4622 257.975C61.716 257.975 51.3887 250.764 51.3887 241.868C51.3887 234.39 58.6926 228.099 68.5966 226.285C69.4043 232.588 73.2226 238.374 79.5503 242.792C83.9473 245.863 89.2557 248.037 95.0219 249.185C94.0501 250.513 92.8234 251.731 91.3851 252.816C94.2272 255.813 99.0302 260.224 103.617 261.446Z" fill="#ADEED8"/>
<path d="M92.5055 223.349C92.8471 221.44 91.4176 219.641 89.3125 219.331C87.2074 219.021 85.2239 220.318 84.8823 222.227C84.5406 224.136 85.9702 225.935 88.0753 226.245C90.1804 226.554 92.1638 225.258 92.5055 223.349Z" fill="white"/>
<path d="M108.714 223.604C109.204 221.721 107.919 219.835 105.843 219.391C103.768 218.946 101.688 220.112 101.198 221.994C100.708 223.876 101.993 225.763 104.068 226.207C106.144 226.652 108.224 225.486 108.714 223.604Z" fill="white"/>
<path d="M123.965 225.257C125.473 223.89 125.473 221.673 123.965 220.305C122.457 218.937 120.012 218.937 118.504 220.305C116.996 221.673 116.996 223.89 118.504 225.257C120.012 226.625 122.457 226.625 123.965 225.257Z" fill="white"/>
<path d="M349.584 261.577C354.374 260.303 359.389 255.697 362.356 252.567C358.374 249.57 355.942 245.555 355.942 241.145C355.942 231.865 366.719 224.34 380.013 224.34C393.308 224.34 404.085 231.865 404.085 241.145C404.085 250.424 393.308 257.949 380.013 257.949C376.009 257.949 372.234 257.268 368.913 256.057C361.013 259.712 349.584 261.577 349.584 261.577Z" fill="#1AC1B0"/>
<path d="M367.869 244.41C369.591 244.41 370.987 243.144 370.987 241.582C370.987 240.02 369.591 238.754 367.869 238.754C366.146 238.754 364.75 240.02 364.75 241.582C364.75 243.144 366.146 244.41 367.869 244.41Z" fill="white"/>
<path d="M381.021 244.41C382.743 244.41 384.139 243.144 384.139 241.582C384.139 240.02 382.743 238.754 381.021 238.754C379.299 238.754 377.902 240.02 377.902 241.582C377.902 243.144 379.299 244.41 381.021 244.41Z" fill="white"/>
<path d="M394.173 244.41C395.895 244.41 397.292 243.144 397.292 241.582C397.292 240.02 395.895 238.754 394.173 238.754C392.451 238.754 391.055 240.02 391.055 241.582C391.055 243.144 392.451 244.41 394.173 244.41Z" fill="white"/>
<ellipse cx="252.718" cy="372.386" rx="7.59731" ry="6.88558" fill="#272727"/>
<g clip-path="url(#clip0_2889_4118)">
<path d="M166.365 112.125H163.72V111.018C163.72 110.872 163.656 110.731 163.541 110.627C163.427 110.523 163.272 110.465 163.11 110.465C162.948 110.465 162.793 110.523 162.678 110.627C162.564 110.73 162.499 110.871 162.499 111.018V112.125H158.836V111.018C158.837 110.946 158.821 110.874 158.79 110.807C158.76 110.74 158.715 110.679 158.658 110.627C158.601 110.576 158.534 110.535 158.46 110.507C158.386 110.479 158.307 110.465 158.226 110.465C158.065 110.465 157.909 110.523 157.795 110.627C157.68 110.73 157.616 110.871 157.616 111.018V112.125H153.953V111.018C153.953 110.946 153.937 110.874 153.907 110.807C153.876 110.74 153.831 110.679 153.774 110.627C153.718 110.576 153.651 110.535 153.576 110.507C153.502 110.479 153.423 110.465 153.343 110.465C153.181 110.465 153.026 110.523 152.911 110.627C152.797 110.73 152.732 110.871 152.732 111.018V112.125H150.087C149.655 112.125 149.241 112.28 148.936 112.557C148.631 112.833 148.459 113.208 148.459 113.6V126.693C148.459 127.085 148.63 127.46 148.936 127.736C149.241 128.013 149.655 128.169 150.087 128.169H166.365C166.797 128.169 167.211 128.013 167.516 127.736C167.822 127.46 167.993 127.085 167.993 126.693V113.6C167.993 113.208 167.821 112.833 167.516 112.557C167.211 112.28 166.797 112.125 166.365 112.125ZM166.772 126.694C166.772 126.792 166.729 126.885 166.653 126.955C166.577 127.024 166.474 127.063 166.366 127.063H150.087C149.979 127.063 149.875 127.024 149.799 126.955C149.723 126.886 149.68 126.792 149.68 126.694V113.6C149.68 113.503 149.723 113.409 149.799 113.34C149.876 113.271 149.979 113.232 150.087 113.232H152.732V114.339C152.732 114.485 152.796 114.626 152.911 114.73C153.025 114.834 153.18 114.892 153.342 114.892C153.504 114.892 153.659 114.834 153.774 114.731C153.888 114.627 153.953 114.486 153.953 114.339V113.232H157.616V114.339C157.615 114.485 157.68 114.626 157.794 114.73C157.909 114.834 158.064 114.892 158.226 114.892C158.388 114.892 158.543 114.834 158.657 114.731C158.772 114.627 158.836 114.486 158.836 114.339V113.232H162.499V114.339C162.499 114.485 162.563 114.626 162.678 114.73C162.792 114.834 162.947 114.892 163.109 114.892C163.271 114.892 163.426 114.834 163.541 114.731C163.655 114.627 163.72 114.486 163.72 114.339V113.232H166.365C166.473 113.232 166.576 113.271 166.652 113.34C166.728 113.409 166.771 113.503 166.771 113.6L166.772 126.694Z" fill="#2E3192"/>
<path d="M152.732 117.105H155.174V118.765H152.732V117.105ZM152.732 119.872H155.174V121.531H152.732V119.872ZM152.732 122.638H155.174V124.298H152.732V122.638ZM157.006 122.638H159.447V124.298H157.006V122.638ZM157.006 119.872H159.447V121.531H157.006V119.872ZM157.006 117.105H159.447V118.765H157.006V117.105ZM161.279 122.638H163.72V124.298H161.279V122.638ZM161.279 119.872H163.72V121.531H161.279V119.872ZM161.279 117.105H163.72V118.765H161.279V117.105Z" fill="#2E3192"/>
</g>
<defs>
<linearGradient id="paint0_linear_2889_4118" x1="191.941" y1="265.659" x2="311.599" y2="265.659" gradientUnits="userSpaceOnUse">
<stop stop-color="#3D94E7"/>
<stop offset="1" stop-color="#1F45B1"/>
</linearGradient>
<linearGradient id="paint1_linear_2889_4118" x1="231.018" y1="154.873" x2="248.687" y2="154.873" gradientUnits="userSpaceOnUse">
<stop stop-color="#3D94E7"/>
<stop offset="1" stop-color="#2D51B6"/>
</linearGradient>
<linearGradient id="paint2_linear_2889_4118" x1="238.934" y1="140.015" x2="263.592" y2="140.015" gradientUnits="userSpaceOnUse">
<stop stop-color="#285EC2"/>
<stop offset="1" stop-color="#142F61"/>
</linearGradient>
<linearGradient id="paint3_linear_2889_4118" x1="231.871" y1="147.716" x2="238.934" y2="147.716" gradientUnits="userSpaceOnUse">
<stop stop-color="#285EC2"/>
<stop offset="1" stop-color="#122954"/>
</linearGradient>
<linearGradient id="paint4_linear_2889_4118" x1="150.309" y1="212.192" x2="215.475" y2="212.192" gradientUnits="userSpaceOnUse">
<stop stop-color="#3D94E7"/>
<stop offset="1" stop-color="#1F45B1"/>
</linearGradient>
<linearGradient id="paint5_linear_2889_4118" x1="248.047" y1="177.058" x2="262.484" y2="177.993" gradientUnits="userSpaceOnUse">
<stop stop-color="#3D94E7"/>
<stop offset="1" stop-color="#1F45B1"/>
</linearGradient>
<linearGradient id="paint6_linear_2889_4118" x1="243.577" y1="177.034" x2="253.102" y2="177.651" gradientUnits="userSpaceOnUse">
<stop stop-color="#3D94E7"/>
<stop offset="1" stop-color="#1F45B1"/>
</linearGradient>
<linearGradient id="paint7_linear_2889_4118" x1="212.274" y1="196.876" x2="214.741" y2="196.876" gradientUnits="userSpaceOnUse">
<stop stop-color="#3D94E7"/>
<stop offset="1" stop-color="#1F45B1"/>
</linearGradient>
<linearGradient id="paint8_linear_2889_4118" x1="225.978" y1="196.953" x2="228.473" y2="196.953" gradientUnits="userSpaceOnUse">
<stop stop-color="#1F45B1"/>
<stop offset="1" stop-color="#3D94E7"/>
</linearGradient>
<linearGradient id="paint9_linear_2889_4118" x1="264.211" y1="184.864" x2="272.138" y2="184.864" gradientUnits="userSpaceOnUse">
<stop stop-color="#3D94E7"/>
<stop offset="1" stop-color="#1F45B1"/>
</linearGradient>
<linearGradient id="paint10_linear_2889_4118" x1="264.123" y1="158.794" x2="268.424" y2="158.794" gradientUnits="userSpaceOnUse">
<stop stop-color="#285EC2"/>
<stop offset="1" stop-color="#142F61"/>
</linearGradient>
<linearGradient id="paint11_linear_2889_4118" x1="205.769" y1="164.285" x2="234.872" y2="164.285" gradientUnits="userSpaceOnUse">
<stop stop-color="#285EC2"/>
<stop offset="1" stop-color="#142F61"/>
</linearGradient>
<linearGradient id="paint12_linear_2889_4118" x1="266.088" y1="184.767" x2="269.163" y2="184.767" gradientUnits="userSpaceOnUse">
<stop stop-color="#3D94E7"/>
<stop offset="1" stop-color="#1F45B1"/>
</linearGradient>
<linearGradient id="paint13_linear_2889_4118" x1="262.601" y1="184.77" x2="267.481" y2="184.77" gradientUnits="userSpaceOnUse">
<stop stop-color="#3D94E7"/>
<stop offset="1" stop-color="#1F45B1"/>
</linearGradient>
<radialGradient id="paint14_radial_2889_4118" cx="0" cy="0" r="1" gradientUnits="userSpaceOnUse" gradientTransform="translate(265.041 184.769) scale(2.76559 2.50813)">
<stop stop-color="#CAD8F1"/>
<stop offset="1" stop-color="#608BD4"/>
</radialGradient>
<clipPath id="clip0_2889_4118">
<rect width="19.5341" height="17.7041" fill="white" transform="translate(148.459 110.465)"/>
</clipPath>
</defs>
</svg>
