<svg width="210" height="63" viewBox="0 0 210 63" fill="none" xmlns="http://www.w3.org/2000/svg">
<path d="M202.222 63H7.77778C3.50194 63 0 59.4543 0 55.125V7.875C0 3.54572 3.50194 2.86102e-06 7.77778 2.86102e-06H202.222C206.498 2.86102e-06 210 3.54572 210 7.875V55.125C210 59.4543 206.498 63 202.222 63Z" fill="black"/>
<path d="M202.222 1.26197C205.823 1.26197 208.754 4.22888 208.754 7.875V55.125C208.754 58.7711 205.823 61.738 202.222 61.738H7.77778C4.17667 61.738 1.24639 58.7711 1.24639 55.125V7.875C1.24639 4.22888 4.17667 1.26197 7.77778 1.26197H202.222ZM202.222 2.86102e-06H7.77778C3.50194 2.86102e-06 0 3.54572 0 7.875V55.125C0 59.4543 3.50194 63 7.77778 63H202.222C206.498 63 210 59.4543 210 55.125V7.875C210 3.54572 206.498 2.86102e-06 202.222 2.86102e-06Z" fill="#A6A6A6"/>
<path d="M16.2331 11.8712C15.7762 12.3555 15.5117 13.1095 15.5117 14.086V48.9171C15.5117 49.8936 15.7762 50.6477 16.2331 51.132L16.3459 51.2383L35.6231 31.728V31.2673L16.3459 11.757L16.2331 11.8712Z" fill="url(#paint0_linear_2889_4472)"/>
<path d="M42.0417 38.2344L35.623 31.7277V31.267L42.0494 24.7602L42.1933 24.8449L49.8039 29.2293C51.9758 30.4736 51.9758 32.5211 49.8039 33.7732L42.1933 38.1497L42.0417 38.2344Z" fill="url(#paint1_linear_2889_4472)"/>
<path d="M42.1927 38.1517L35.6224 31.4993L16.2324 51.1336C16.9538 51.9014 18.1302 51.9939 19.468 51.2261L42.1927 38.1517Z" fill="url(#paint2_linear_2889_4472)"/>
<path d="M42.1927 24.8476L19.468 11.7731C18.1302 11.0132 16.9538 11.1057 16.2324 11.8735L35.6224 31.5L42.1927 24.8476Z" fill="url(#paint3_linear_2889_4472)"/>
<path d="M73.7606 16.134C73.7606 17.4492 73.3717 18.5024 72.6056 19.288C71.7248 20.2192 70.5776 20.6877 69.1717 20.6877C67.8281 20.6877 66.6809 20.2113 65.7398 19.2722C64.7967 18.3193 64.3262 17.1499 64.3262 15.7501C64.3262 14.3503 64.7967 13.1809 65.7398 12.2359C66.6809 11.2889 67.8281 10.8125 69.1717 10.8125C69.8406 10.8125 70.4784 10.9523 71.087 11.2122C71.6937 11.474 72.1876 11.8284 72.5453 12.2654L71.7326 13.0963C71.1084 12.3501 70.2587 11.9819 69.1717 11.9819C68.1917 11.9819 67.342 12.3284 66.6206 13.0273C65.907 13.7282 65.5492 14.6358 65.5492 15.7501C65.5492 16.8644 65.907 17.7799 66.6206 18.4808C67.342 19.1718 68.1917 19.5262 69.1717 19.5262C70.212 19.5262 71.087 19.1718 71.7773 18.4729C72.2323 18.0102 72.4909 17.3724 72.559 16.5573H69.1717V15.4194H73.6906C73.7451 15.6655 73.7606 15.9037 73.7606 16.134Z" fill="white" stroke="white" stroke-width="0.16" stroke-miterlimit="10"/>
<path d="M80.9288 12.1869H76.6841V15.1794H80.5108V16.3174H76.6841V19.3099H80.9288V20.4695H75.4824V11.0273H80.9288V12.1869Z" fill="white" stroke="white" stroke-width="0.16" stroke-miterlimit="10"/>
<path d="M85.9889 20.4695H84.7872V12.1869H82.1836V11.0273H88.5944V12.1869H85.9889V20.4695Z" fill="white" stroke="white" stroke-width="0.16" stroke-miterlimit="10"/>
<path d="M93.2344 20.4695V11.0273H94.4341V20.4695H93.2344Z" fill="white" stroke="white" stroke-width="0.16" stroke-miterlimit="10"/>
<path d="M99.7525 20.4695H98.5606V12.1869H95.9473V11.0273H102.366V12.1869H99.7525V20.4695Z" fill="white" stroke="white" stroke-width="0.16" stroke-miterlimit="10"/>
<path d="M114.502 19.2565C113.583 20.2113 112.443 20.6877 111.084 20.6877C109.717 20.6877 108.578 20.2113 107.658 19.2565C106.74 18.3036 106.283 17.1342 106.283 15.7501C106.283 14.3661 106.74 13.1967 107.658 12.2438C108.578 11.2889 109.717 10.8125 111.084 10.8125C112.435 10.8125 113.575 11.2889 114.495 12.2517C115.42 13.2124 115.877 14.374 115.877 15.7501C115.877 17.1342 115.42 18.3036 114.502 19.2565ZM108.547 18.465C109.239 19.1718 110.081 19.5262 111.084 19.5262C112.08 19.5262 112.929 19.1718 113.614 18.465C114.304 17.7582 114.654 16.8507 114.654 15.7501C114.654 14.6496 114.304 13.742 113.614 13.0352C112.929 12.3284 112.08 11.9741 111.084 11.9741C110.081 11.9741 109.239 12.3284 108.547 13.0352C107.856 13.742 107.506 14.6496 107.506 15.7501C107.506 16.8507 107.856 17.7582 108.547 18.465Z" fill="white" stroke="white" stroke-width="0.16" stroke-miterlimit="10"/>
<path d="M117.562 20.4695V11.0273H119.021L123.555 18.3708H123.608L123.555 16.5556V11.0273H124.755V20.4695H123.503L118.754 12.7638H118.702L118.754 14.5868V20.4695H117.562Z" fill="white" stroke="white" stroke-width="0.16" stroke-miterlimit="10"/>
<path d="M105.988 34.26C102.334 34.26 99.3493 37.0753 99.3493 40.9597C99.3493 44.8125 102.334 47.6573 105.988 47.6573C109.649 47.6573 112.634 44.8125 112.634 40.9597C112.634 37.0753 109.649 34.26 105.988 34.26ZM105.988 45.0192C103.983 45.0192 102.258 43.3438 102.258 40.9597C102.258 38.544 103.983 36.8981 105.988 36.8981C107.992 36.8981 109.725 38.544 109.725 40.9597C109.725 43.3438 107.992 45.0192 105.988 45.0192ZM91.5034 34.26C87.8421 34.26 84.8651 37.0753 84.8651 40.9597C84.8651 44.8125 87.8421 47.6573 91.5034 47.6573C95.1629 47.6573 98.1418 44.8125 98.1418 40.9597C98.1418 37.0753 95.1629 34.26 91.5034 34.26ZM91.5034 45.0192C89.4968 45.0192 87.7662 43.3438 87.7662 40.9597C87.7662 38.544 89.4968 36.8981 91.5034 36.8981C93.5082 36.8981 95.2329 38.544 95.2329 40.9597C95.2329 43.3438 93.5082 45.0192 91.5034 45.0192ZM74.2679 36.3134V39.1602H80.9821C80.7857 40.751 80.2607 41.9204 79.4557 42.7355C78.4757 43.7198 76.9493 44.8125 74.2679 44.8125C70.136 44.8125 66.9004 41.4361 66.9004 37.2525C66.9004 33.0689 70.136 29.6925 74.2679 29.6925C76.5021 29.6925 78.1276 30.5765 79.3273 31.7223L81.3087 29.7161C79.6307 28.0939 77.3984 26.8477 74.2679 26.8477C68.6018 26.8477 63.8398 31.5156 63.8398 37.2525C63.8398 42.9894 68.6018 47.6573 74.2679 47.6573C77.3304 47.6573 79.6307 46.6415 81.439 44.7357C83.2921 42.8595 83.8696 40.2214 83.8696 38.0912C83.8696 37.4297 83.8151 36.8213 83.7179 36.3134H74.2679ZM144.746 38.5204C144.2 37.0222 142.514 34.26 139.08 34.26C135.677 34.26 132.844 36.9749 132.844 40.9597C132.844 44.7121 135.648 47.6573 139.407 47.6573C142.446 47.6573 144.2 45.7811 144.921 44.6885L142.666 43.1666C141.913 44.2809 140.888 45.0192 139.407 45.0192C137.935 45.0192 136.879 44.3361 136.202 42.9894L145.051 39.2823L144.746 38.5204ZM135.724 40.751C135.648 38.168 137.705 36.845 139.179 36.845C140.334 36.845 141.314 37.4297 141.641 38.2664L135.724 40.751ZM128.531 47.2498H131.44V27.5623H128.531V47.2498ZM123.768 35.7523H123.67C123.017 34.9688 121.771 34.26 120.192 34.26C116.878 34.26 113.849 37.2053 113.849 40.9813C113.849 44.7357 116.878 47.6573 120.192 47.6573C121.771 47.6573 123.017 46.9427 123.67 46.1355H123.768V47.0963C123.768 49.6576 122.416 51.0338 120.236 51.0338C118.459 51.0338 117.357 49.7344 116.902 48.6417L114.372 49.7108C115.101 51.4866 117.032 53.6719 120.236 53.6719C123.647 53.6719 126.525 51.6401 126.525 46.6966V34.6675H123.768V35.7523ZM120.441 45.0192C118.436 45.0192 116.758 43.3202 116.758 40.9813C116.758 38.6208 118.436 36.8981 120.441 36.8981C122.416 36.8981 123.974 38.6208 123.974 40.9813C123.974 43.3202 122.416 45.0192 120.441 45.0192ZM158.365 27.5623H151.408V47.2498H154.309V39.7902H158.365C161.587 39.7902 164.747 37.4297 164.747 33.6753C164.747 29.9228 161.579 27.5623 158.365 27.5623ZM158.441 37.0517H154.309V30.3008H158.441C160.607 30.3008 161.844 32.1219 161.844 33.6753C161.844 35.1991 160.607 37.0517 158.441 37.0517ZM176.375 34.2226C174.278 34.2226 172.099 35.1597 171.202 37.2368L173.777 38.3294C174.331 37.2368 175.35 36.8824 176.427 36.8824C177.932 36.8824 179.458 37.7978 179.482 39.4142V39.6209C178.957 39.3138 177.833 38.859 176.45 38.859C173.678 38.859 170.852 40.4045 170.852 43.2887C170.852 45.9268 173.123 47.6258 175.676 47.6258C177.629 47.6258 178.706 46.734 179.383 45.6965H179.482V47.2183H182.284V39.6662C182.284 36.1756 179.709 34.2226 176.375 34.2226ZM176.025 45.0113C175.076 45.0113 173.753 44.5349 173.753 43.3438C173.753 41.82 175.402 41.2353 176.83 41.2353C178.107 41.2353 178.706 41.5208 179.482 41.8968C179.254 43.7198 177.705 45.0113 176.025 45.0113ZM192.492 34.6538L189.157 43.1883H189.058L185.611 34.6538H182.482L187.662 46.5804L184.706 53.2171H187.738L195.72 34.6538H192.492ZM166.341 47.2498H169.25V27.5623H166.341V47.2498Z" fill="white"/>
<defs>
<linearGradient id="paint0_linear_2889_4472" x1="33.9115" y1="49.2798" x2="7.48128" y2="23.1759" gradientUnits="userSpaceOnUse">
<stop stop-color="#00A0FF"/>
<stop offset="0.0066" stop-color="#00A1FF"/>
<stop offset="0.2601" stop-color="#00BEFF"/>
<stop offset="0.5122" stop-color="#00D2FF"/>
<stop offset="0.7604" stop-color="#00DFFF"/>
<stop offset="1" stop-color="#00E3FF"/>
</linearGradient>
<linearGradient id="paint1_linear_2889_4472" x1="52.6321" y1="31.4951" x2="14.9925" y2="31.4951" gradientUnits="userSpaceOnUse">
<stop stop-color="#FFE000"/>
<stop offset="0.4087" stop-color="#FFBD00"/>
<stop offset="0.7754" stop-color="#FFA500"/>
<stop offset="1" stop-color="#FF9C00"/>
</linearGradient>
<linearGradient id="paint2_linear_2889_4472" x1="38.62" y1="27.8829" x2="2.77842" y2="-7.51616" gradientUnits="userSpaceOnUse">
<stop stop-color="#FF3A44"/>
<stop offset="1" stop-color="#C31162"/>
</linearGradient>
<linearGradient id="paint3_linear_2889_4472" x1="11.3516" y1="62.7225" x2="27.3564" y2="46.9154" gradientUnits="userSpaceOnUse">
<stop stop-color="#32A071"/>
<stop offset="0.0685" stop-color="#2DA771"/>
<stop offset="0.4762" stop-color="#15CF74"/>
<stop offset="0.8009" stop-color="#06E775"/>
<stop offset="1" stop-color="#00F076"/>
</linearGradient>
</defs>
</svg>
