<svg width="26" height="26" viewBox="0 0 26 26" fill="none" xmlns="http://www.w3.org/2000/svg">
<circle cx="13.25" cy="13.0005" r="12.5" fill="url(#paint0_linear_1050_6)"/>
<path d="M13.25 18.6255C13.0223 18.6255 12.8316 18.5483 12.6779 18.3941C12.5236 18.2403 12.4464 18.0496 12.4464 17.8219V13.8041H8.42857C8.20089 13.8041 8.00991 13.7269 7.85563 13.5726C7.70188 13.4189 7.625 13.2282 7.625 13.0005C7.625 12.7728 7.70188 12.5818 7.85563 12.4275C8.00991 12.2738 8.20089 12.1969 8.42857 12.1969H12.4464V8.17906C12.4464 7.95138 12.5236 7.7604 12.6779 7.60611C12.8316 7.45236 13.0223 7.37549 13.25 7.37549C13.4777 7.37549 13.6687 7.45236 13.8229 7.60611C13.9767 7.7604 14.0536 7.95138 14.0536 8.17906V12.1969H18.0714C18.2991 12.1969 18.4898 12.2738 18.6436 12.4275C18.7979 12.5818 18.875 12.7728 18.875 13.0005C18.875 13.2282 18.7979 13.4189 18.6436 13.5726C18.4898 13.7269 18.2991 13.8041 18.0714 13.8041H14.0536V17.8219C14.0536 18.0496 13.9767 18.2403 13.8229 18.3941C13.6687 18.5483 13.4777 18.6255 13.25 18.6255Z" fill="white"/>
<defs>
<linearGradient id="paint0_linear_1050_6" x1="11.6781" y1="-5.61063" x2="27.5379" y2="-4.45805" gradientUnits="userSpaceOnUse">
<stop stop-color="#2E3192"/>
<stop offset="1" stop-color="#1AC1B0"/>
</linearGradient>
</defs>
</svg>
