<svg width="17" height="22" viewBox="0 0 17 22" fill="none" xmlns="http://www.w3.org/2000/svg">
<g clip-path="url(#clip0_2_9298)">
<path d="M14.4728 12.3683H12.8216V6.4622C12.8216 3.88477 10.8831 1.78635 8.49948 1.78635C6.11585 1.78635 4.17856 3.88349 4.17856 6.4622V12.3683H2.52734V6.4622C2.52734 2.89849 5.20656 0 8.50067 0C11.7948 0 14.474 2.89849 14.474 6.4622V12.3683H14.4728Z" fill="white"/>
<path d="M17 21.3078C17 21.6905 16.7139 22 16.3602 22H0.63983C0.286083 22 0 21.6905 0 21.3078V10.2584C0 9.87566 0.286083 9.56616 0.63983 9.56616H16.3602C16.7139 9.56616 17 9.87566 17 10.2584V21.3078Z" fill="white"/>
<path d="M17 21.3078V14.5374C11.8221 19.2774 4.35421 21.0587 0.122314 21.7123C0.238647 21.8857 0.426204 22 0.639876 22H16.3602C16.714 22 17 21.6905 17 21.3078Z" fill="white"/>
<path d="M9.90479 13.9107C9.90479 13.0708 9.27565 12.3914 8.50049 12.3914C7.72415 12.3914 7.09619 13.0721 7.09619 13.9107C7.09619 14.4115 7.32055 14.8533 7.66598 15.1307L7.21846 18.5673H9.78371L9.33619 15.1307C9.68044 14.8533 9.90479 14.4102 9.90479 13.9107Z" fill="#8E90DE"/>
<path d="M0.536621 10.8761V13.2557C0.594787 12.2451 1.04469 10.0465 3.85566 10.0465H1.30347C0.880871 10.0465 0.536621 10.4189 0.536621 10.8761Z" fill="white"/>
<path d="M7.21729 18.5673C7.21729 18.5673 9.12134 17.9855 9.33501 15.1307L9.78254 18.5673H7.21729Z" fill="#4E51AF"/>
</g>
<defs>
<clipPath id="clip0_2_9298">
<rect width="17" height="22" fill="white"/>
</clipPath>
</defs>
</svg>
