<svg width="23" height="21" viewBox="0 0 23 21" fill="none" xmlns="http://www.w3.org/2000/svg">
<path opacity="0.2" d="M11.1172 10.5114V10.5223M6.67623 10.5114V10.5223M15.5582 10.5114V10.5223M1.125 19.2499L2.56832 14.9899C1.3209 13.1747 0.869636 11.0252 1.29844 8.94097C1.72725 6.85672 3.00694 4.97956 4.89958 3.65853C6.79222 2.33749 9.16903 1.66246 11.5881 1.75896C14.0071 1.85546 16.3038 2.71691 18.051 4.18315C19.7983 5.64938 20.8773 7.62063 21.0873 9.73037C21.2974 11.8401 20.6242 13.9448 19.193 15.653C17.7618 17.3613 15.67 18.5569 13.3064 19.0176C10.9428 19.4783 8.4684 19.1726 6.34316 18.1576L1.125 19.2499Z" stroke="black" stroke-width="1.8" stroke-linecap="round" stroke-linejoin="round"/>
</svg>
