<svg width="111" height="82" viewBox="0 0 111 82" fill="none" xmlns="http://www.w3.org/2000/svg">
<g clip-path="url(#clip0_590_363)">
<path d="M106.59 64.9297H100.465H89.2726C87.1089 64.9297 85.1998 63.0713 85.1917 60.9031C85.2025 58.7349 87.1116 57.0504 89.2726 57.0504H100.465H100.481C102.644 57.0504 104.383 55.1919 104.391 53.0237C104.383 50.8556 102.642 49.171 100.481 49.171H100.465H97.1284C94.9647 49.171 93.0556 47.3125 93.0475 45.1444C93.0583 42.9762 94.9674 41.2916 97.1284 41.2916H100.465H105.136C107.299 41.2916 109.181 39.4332 109.192 37.265C109.181 35.0968 107.299 33.4122 105.136 33.4122H97.5725C96.1318 25.647 92.4219 18.2241 86.4346 12.2167C71.7033 -2.56391 48.4203 -3.53117 32.5706 9.31221L19.3124 9.09757C17.1434 9.07311 15.3642 10.8147 15.3399 12.9911C15.3345 13.4611 15.413 13.9149 15.5565 14.336C16.0846 15.8575 17.5198 16.9579 19.2204 16.9797L26.0742 17.1264C28.2433 17.1508 29.9818 18.9359 29.9547 21.1123C29.9304 23.2886 28.1512 25.0329 25.9821 25.0058L15.4346 24.8672L4.47825 24.7232C2.30646 24.6906 0.527333 26.4349 0.500254 28.6113C0.475882 30.7876 2.21168 32.5727 4.38076 32.5971L15.3372 32.7493L18.0316 32.7873C20.2007 32.8118 21.9392 34.5969 21.9121 36.7732C21.8877 38.9495 20.1086 40.6939 17.9395 40.6667L15.2451 40.6069L13.7828 40.5743C11.6137 40.5499 9.83459 42.2915 9.81022 44.4678C9.78584 46.6442 11.5216 48.4292 13.6907 48.4537L18.2536 48.5243C19.7241 56.2054 23.4204 63.5414 29.3481 69.4862C43.917 84.1038 66.848 85.2096 82.6868 72.8118H106.59C108.754 72.8118 110.492 70.9534 110.5 68.7852C110.492 66.617 108.754 64.9297 106.59 64.9297Z" fill="#DFE4E8"/>
<path d="M47.2269 4.94571H41.9897C41.7487 4.94571 41.5537 4.75009 41.5537 4.50827C41.5537 4.26646 41.7487 4.07083 41.9897 4.07083H47.2269C47.4679 4.07083 47.6629 4.26646 47.6629 4.50827C47.6629 4.75009 47.4679 4.94571 47.2269 4.94571Z" fill="black"/>
<path d="M39.3707 4.94571H29.7709C29.5299 4.94571 29.335 4.75009 29.335 4.50827C29.335 4.26646 29.5299 4.07083 29.7709 4.07083H39.3707C39.6117 4.07083 39.8066 4.26646 39.8066 4.50827C39.8066 4.75009 39.6117 4.94571 39.3707 4.94571Z" fill="black"/>
<path d="M59.0085 2.31836H37.6264C37.3854 2.31836 37.1904 2.12274 37.1904 1.88092C37.1904 1.63911 37.3854 1.44348 37.6264 1.44348H59.0085C59.2495 1.44348 59.4444 1.63911 59.4444 1.88092C59.4444 2.12274 59.2495 2.31836 59.0085 2.31836Z" fill="black"/>
<path d="M34.1338 2.31836H32.3872C32.1461 2.31836 31.9512 2.12274 31.9512 1.88092C31.9512 1.63911 32.1461 1.44348 32.3872 1.44348H34.1338C34.3748 1.44348 34.5698 1.63911 34.5698 1.88092C34.5698 2.12274 34.3748 2.31836 34.1338 2.31836Z" fill="black"/>
<path d="M93.0447 17.205H91.7368C91.4958 17.205 91.3008 17.0093 91.3008 16.7675C91.3008 16.5257 91.4958 16.3301 91.7368 16.3301H93.0447C93.2857 16.3301 93.4807 16.5257 93.4807 16.7675C93.4807 17.0093 93.2857 17.205 93.0447 17.205Z" fill="black"/>
<path d="M86.4998 17.205H85.1918C84.9508 17.205 84.7559 17.0093 84.7559 16.7675C84.7559 16.5257 84.9508 16.3301 85.1918 16.3301H86.4998C86.7408 16.3301 86.9358 16.5257 86.9358 16.7675C86.9358 17.0093 86.7408 17.205 86.4998 17.205Z" fill="black"/>
<path d="M91.9106 19.9573C91.7996 19.9573 91.6886 19.9138 91.6019 19.8296L90.6758 18.9004C90.5052 18.7292 90.5052 18.4521 90.6758 18.2809C90.8464 18.1097 91.1226 18.1097 91.2932 18.2809L92.2193 19.2101C92.3899 19.3813 92.3899 19.6584 92.2193 19.8296C92.1354 19.9138 92.0217 19.9573 91.9106 19.9573Z" fill="black"/>
<path d="M87.2827 15.3112C87.1717 15.3112 87.0606 15.2677 86.974 15.1835L86.0479 14.2543C85.8773 14.0831 85.8773 13.806 86.0479 13.6348C86.2185 13.4636 86.4947 13.4636 86.6653 13.6348L87.5914 14.564C87.762 14.7352 87.762 15.0123 87.5914 15.1835C87.5047 15.2704 87.3937 15.3112 87.2827 15.3112Z" fill="black"/>
<path d="M89.1186 21.1446C88.8776 21.1446 88.6826 20.949 88.6826 20.7072V19.3949C88.6826 19.1531 88.8776 18.9574 89.1186 18.9574C89.3596 18.9574 89.5546 19.1531 89.5546 19.3949V20.7072C89.5546 20.949 89.3596 21.1446 89.1186 21.1446Z" fill="black"/>
<path d="M89.1186 14.5776C88.8776 14.5776 88.6826 14.382 88.6826 14.1401V12.8278C88.6826 12.586 88.8776 12.3904 89.1186 12.3904C89.3596 12.3904 89.5546 12.586 89.5546 12.8278V14.1401C89.5546 14.382 89.3596 14.5776 89.1186 14.5776Z" fill="black"/>
<path d="M86.3566 19.9573C86.2455 19.9573 86.1345 19.9138 86.0479 19.8296C85.8773 19.6584 85.8773 19.3813 86.0479 19.2101L86.974 18.2809C87.1446 18.1097 87.4208 18.1097 87.5914 18.2809C87.762 18.4521 87.762 18.7292 87.5914 18.9004L86.6653 19.8296C86.5813 19.9138 86.4676 19.9573 86.3566 19.9573Z" fill="black"/>
<path d="M90.9845 15.3112C90.8735 15.3112 90.7625 15.2677 90.6758 15.1835C90.5052 15.0123 90.5052 14.7352 90.6758 14.564L91.6019 13.6348C91.7725 13.4636 92.0487 13.4636 92.2193 13.6348C92.3899 13.806 92.3899 14.0831 92.2193 14.2543L91.2932 15.1835C91.2093 15.2704 91.0982 15.3112 90.9845 15.3112Z" fill="black"/>
<path d="M102.333 44.6442C102.173 44.6442 102.027 44.5573 101.951 44.416L101.418 43.4379C101.177 42.995 100.817 42.6336 100.375 42.3918L99.4003 41.8565C99.2595 41.7805 99.1729 41.6337 99.1729 41.4734C99.1729 41.3131 99.2595 41.1664 99.4003 41.0903L100.375 40.5551C100.817 40.3133 101.177 39.9519 101.42 39.509L101.954 38.5309C102.03 38.3896 102.176 38.3027 102.336 38.3027C102.496 38.3027 102.642 38.3896 102.718 38.5309L103.251 39.509C103.492 39.9519 103.855 40.3133 104.296 40.5551L105.271 41.0903C105.412 41.1664 105.499 41.3131 105.499 41.4734C105.499 41.6337 105.412 41.7805 105.271 41.8565L104.296 42.3918C103.855 42.6336 103.495 42.995 103.251 43.4379L102.718 44.416C102.642 44.5573 102.493 44.6442 102.333 44.6442ZM100.792 41.6229C101.38 41.9462 101.862 42.4271 102.184 43.0194L102.336 43.2966L102.487 43.0194C102.81 42.4298 103.289 41.9462 103.879 41.6229L104.155 41.4707L103.879 41.3186C103.292 40.9952 102.81 40.5143 102.487 39.922L102.336 39.6449L102.184 39.922C101.862 40.5116 101.383 40.9952 100.792 41.3186L100.516 41.4707L100.792 41.6229Z" fill="black"/>
<path d="M17.1248 12.6567C16.965 12.6567 16.8188 12.5697 16.743 12.4284L16.2068 11.4503C15.9658 11.0074 15.6056 10.6461 15.1642 10.4042L14.1894 9.869C14.0486 9.79292 13.9619 9.6462 13.9619 9.4859C13.9619 9.32559 14.0486 9.17887 14.1894 9.10279L15.1642 8.56754C15.6056 8.32572 15.9658 7.96436 16.2068 7.52148L16.7403 6.54335C16.8161 6.40207 16.9623 6.31512 17.1221 6.31512C17.2819 6.31512 17.4281 6.40207 17.5039 6.54335L18.0374 7.52148C18.2784 7.96436 18.6413 8.32572 19.08 8.56754L20.0548 9.10279C20.1956 9.17887 20.2823 9.32559 20.2823 9.4859C20.2823 9.6462 20.1956 9.79292 20.0548 9.869L19.0854 10.4015C18.644 10.6433 18.2838 11.0047 18.0428 11.4476L17.5093 12.4257C17.4308 12.5697 17.2846 12.6567 17.1248 12.6567ZM15.5813 9.63533C16.1689 9.95866 16.6509 10.4396 16.9732 11.0319L17.1248 11.309L17.2765 11.0319C17.5987 10.4423 18.078 9.95866 18.6683 9.63533L18.9446 9.48318L18.6683 9.33102C18.0807 9.0077 17.5987 8.52678 17.2765 7.93447L17.1248 7.65734L16.9732 7.93447C16.6509 8.52407 16.1716 9.0077 15.5813 9.33102L15.3051 9.48318L15.5813 9.63533Z" fill="black"/>
<path d="M21.9154 59.6748H21.0434C20.8024 59.6748 20.6074 59.4792 20.6074 59.2374C20.6074 58.9955 20.8024 58.7999 21.0434 58.7999H21.9154C22.1564 58.7999 22.3513 58.9955 22.3513 59.2374C22.3513 59.4792 22.1564 59.6748 21.9154 59.6748Z" fill="black"/>
<path d="M17.5501 59.6748H16.6782C16.4372 59.6748 16.2422 59.4792 16.2422 59.2374C16.2422 58.9955 16.4372 58.7999 16.6782 58.7999H17.5501C17.7911 58.7999 17.9861 58.9955 17.9861 59.2374C17.9861 59.4792 17.7911 59.6748 17.5501 59.6748Z" fill="black"/>
<path d="M19.2963 62.3022C19.0553 62.3022 18.8604 62.1065 18.8604 61.8647V60.9898C18.8604 60.748 19.0553 60.5524 19.2963 60.5524C19.5373 60.5524 19.7323 60.748 19.7323 60.9898V61.8647C19.7323 62.1065 19.5373 62.3022 19.2963 62.3022Z" fill="black"/>
<path d="M19.2963 57.925C19.0553 57.925 18.8604 57.7294 18.8604 57.4876V56.6127C18.8604 56.3709 19.0553 56.1753 19.2963 56.1753C19.5373 56.1753 19.7323 56.3709 19.7323 56.6127V57.4876C19.7323 57.7294 19.5373 57.925 19.2963 57.925Z" fill="black"/>
<path d="M46.3513 73.2491H23.6586C23.4176 73.2491 23.2227 73.0534 23.2227 72.8116C23.2227 72.5698 23.4176 72.3742 23.6586 72.3742H46.3513C46.5923 72.3742 46.7873 72.5698 46.7873 72.8116C46.7873 73.0534 46.5923 73.2491 46.3513 73.2491Z" fill="black"/>
<path d="M41.989 76.3139H34.1332C33.8922 76.3139 33.6973 76.1183 33.6973 75.8764C33.6973 75.6346 33.8922 75.439 34.1332 75.439H41.989C42.23 75.439 42.425 75.6346 42.425 75.8764C42.425 76.1183 42.23 76.3139 41.989 76.3139Z" fill="black"/>
<path d="M29.7714 76.3139H27.1528C26.9118 76.3139 26.7168 76.1183 26.7168 75.8764C26.7168 75.6346 26.9118 75.439 27.1528 75.439H29.7714C30.0124 75.439 30.2074 75.6346 30.2074 75.8764C30.2074 76.1183 30.0124 76.3139 29.7714 76.3139Z" fill="black"/>
<path d="M66.293 19.8024H63.1734V16.4822C63.1734 16.1073 62.8566 15.7894 62.4856 15.7894H54.3455C53.9718 15.7894 53.6577 16.1073 53.6577 16.4822V19.8024H50.5381V16.4822C50.5381 14.3738 52.2468 12.6594 54.3482 12.6594H62.4883C64.5897 12.6594 66.2984 14.3738 66.2984 16.4822V19.8024H66.293Z" fill="#FF1F00"/>
<path d="M43.6895 20.1393H73.1386C76.2202 20.1393 78.717 22.6444 78.717 25.7364V29.1082L79.0149 29.2767C71.2511 30.2358 45.5716 30.2358 37.8105 29.2767L38.1084 29.1082V25.7364C38.1111 22.6444 40.6106 20.1393 43.6895 20.1393Z" fill="#FF1F00"/>
<path d="M76.7082 21.7152C76.5214 21.9489 76.321 22.2206 76.1071 22.4352C74.485 24.0627 67.7936 23.772 65.3267 23.772H51.5107C48.7215 23.772 41.7674 23.9242 40.1318 21.9054C41.0932 21.0957 42.3415 20.7072 43.6928 20.7072H73.1446C74.4958 20.7072 75.7388 20.911 76.7082 21.7152Z" fill="#FF1E10"/>
<path d="M36.3291 31.0781C36.3291 31.991 37.0169 32.7545 37.9241 32.8496L37.8158 32.855C45.5795 33.8141 71.2591 33.8141 79.0201 32.855L78.9118 32.8496C79.8162 32.7572 80.5068 31.991 80.5068 31.0781C80.5068 30.0239 79.5996 29.2006 78.5543 29.3066L79.0228 29.2767C71.2591 30.2358 45.5795 30.2358 37.8185 29.2767L38.287 29.3066C37.2363 29.2033 36.3291 30.0266 36.3291 31.0781Z" fill="#EFA29D"/>
<path d="M72.4802 67.2417C65.3502 68.7171 52.2084 68.7959 45.0513 67.4699L44.7155 67.2417L38.5576 33.1322L38.7038 32.855C46.4676 33.8141 70.3626 33.8141 78.1263 32.855L78.2726 33.1322L72.4802 67.2417Z" fill="#FF1F00"/>
<path d="M45.0005 67.4699L44.6674 67.2417L38.5068 33.1349L38.6531 32.8577C39.7362 32.9909 39.349 33.1077 40.9711 33.2028L47.1181 67.2417C47.1181 67.2417 48.881 68.19 45.0005 67.4699Z" fill="#D89191"/>
<path d="M78.4494 33.1349L72.6544 67.2417C71.7472 67.4183 71.2895 67.4645 69.7568 67.69L74.1031 33.575C75.7252 33.4799 77.2173 32.9909 78.3004 32.8577L78.4494 33.1349Z" fill="#D89191"/>
<path d="M57.9282 69.2876C53.1108 69.2876 48.3529 68.9725 44.8921 68.3312C44.773 68.3095 44.6619 68.2633 44.5617 68.1954L44.226 67.9672C44.031 67.834 43.8983 67.6303 43.855 67.3966L41.5992 54.9037C41.5126 54.4282 41.8294 53.9718 42.3033 53.8848C42.7772 53.7979 43.2321 54.1158 43.3188 54.5912L45.496 66.6576C52.534 67.8992 64.709 67.8177 71.7199 66.4973L72.0936 64.3019C72.1748 63.8264 72.6243 63.5058 73.1009 63.5846C73.5748 63.6661 73.8944 64.1171 73.8158 64.5953L73.3419 67.3857C73.2824 67.7416 73.0089 68.0242 72.6568 68.0949C68.8576 68.8855 63.355 69.2876 57.9282 69.2876Z" fill="black"/>
<path d="M73.3798 62.8265C73.1496 62.8265 72.9248 62.7342 72.7624 62.5684C72.5999 62.4054 72.5078 62.1799 72.5078 61.9489C72.5078 61.718 72.5999 61.4925 72.7624 61.3295C72.9248 61.1664 73.1496 61.0714 73.3798 61.0714C73.61 61.0714 73.8347 61.1637 73.9972 61.3295C74.1597 61.4925 74.2544 61.718 74.2544 61.9489C74.2544 62.1799 74.1624 62.4054 73.9972 62.5684C73.832 62.7342 73.61 62.8265 73.3798 62.8265Z" fill="black"/>
<path d="M73.8347 60.1421C73.786 60.1421 73.7373 60.1367 73.6858 60.1285C73.2119 60.047 72.8924 59.596 72.9709 59.1178L77.2657 33.8277C68.9767 34.6456 47.8654 34.6456 39.5655 33.8277L42.8232 51.8715C42.9098 52.347 42.593 52.8034 42.1191 52.8904C41.6452 52.9773 41.1903 52.6594 41.1036 52.184L37.6916 33.2843C37.6564 33.0914 37.6889 32.8904 37.781 32.7165L37.9272 32.4393C38.0978 32.1187 38.4471 31.9367 38.8046 31.9802C46.5006 32.9311 70.3198 32.9311 78.0131 31.9802C78.3733 31.9367 78.7199 32.1187 78.8905 32.4393L79.0367 32.7165C79.1261 32.8876 79.1586 33.0833 79.1261 33.2735L74.6877 59.4058C74.6227 59.8405 74.2545 60.1421 73.8347 60.1421Z" fill="black"/>
<path d="M78.7198 29.9859C78.2377 29.9859 77.8478 29.5946 77.8478 29.111V25.7364C77.8478 23.1335 75.7356 21.0142 73.1414 21.0142H43.6896C41.6315 21.0142 39.828 22.3347 39.2052 24.3018C39.059 24.7637 38.5688 25.0164 38.1085 24.8697C37.6481 24.723 37.3963 24.2312 37.5425 23.7693C38.3982 21.074 40.8706 19.2617 43.6923 19.2617H73.1414C76.6996 19.2617 79.5944 22.1663 79.5944 25.7364V29.1083C79.5917 29.5919 79.2018 29.9859 78.7198 29.9859Z" fill="black"/>
<path d="M38.1112 29.9858C37.6292 29.9858 37.2393 29.5946 37.2393 29.111V26.2119C37.2393 25.7283 37.6292 25.337 38.1112 25.337C38.5932 25.337 38.9832 25.7283 38.9832 26.2119V29.1082C38.9832 29.5919 38.5932 29.9858 38.1112 29.9858Z" fill="black"/>
<path d="M58.411 34.4466C49.9919 34.4466 41.5729 34.2075 37.7005 33.7293C37.6111 33.7185 37.5245 33.694 37.446 33.6587C36.2842 33.3652 35.4502 32.3192 35.4502 31.0829C35.4502 30.333 35.767 29.6158 36.3222 29.1131C36.62 28.8441 36.9721 28.6485 37.3512 28.5371C37.5001 28.4447 37.6761 28.3985 37.863 28.4094L38.1879 28.4311C38.2475 28.4338 38.3071 28.4366 38.364 28.442C38.4344 28.4501 38.5048 28.4637 38.5698 28.4882C44.4162 29.1022 57.5119 29.249 67.2606 29.0316C67.7426 29.0207 68.1407 29.4038 68.1515 29.8875C68.1623 30.3711 67.7805 30.7705 67.2985 30.7814C57.2763 31.0042 43.7095 30.8411 37.9876 30.1836C37.8061 30.2053 37.6355 30.2841 37.4947 30.4118C37.3024 30.5857 37.1968 30.8248 37.1968 31.0829C37.1968 31.5476 37.5434 31.9361 38.0065 31.9823C38.0742 31.9904 38.1392 32.004 38.1988 32.0258C46.0952 32.9278 70.7268 32.9278 78.6205 32.0258C78.6828 32.004 78.7477 31.9904 78.8127 31.9823C79.2731 31.9361 79.6224 31.5476 79.6224 31.0829C79.6224 30.8248 79.5168 30.5857 79.3246 30.4118C79.1837 30.2841 79.0131 30.2053 78.8317 30.1836C77.3748 30.3493 75.3411 30.4934 72.7767 30.6047C72.292 30.6265 71.8885 30.2515 71.8668 29.7679C71.8452 29.2843 72.2189 28.8767 72.7009 28.855C75.0027 28.7545 76.8657 28.6295 78.2495 28.4855C78.3145 28.4637 78.3822 28.4474 78.4526 28.4393C78.5122 28.4338 78.5717 28.4284 78.6286 28.4284L78.9536 28.4067C79.1404 28.3931 79.3191 28.442 79.4654 28.5344C79.8418 28.6458 80.1965 28.8414 80.4944 29.1104C81.0495 29.613 81.3664 30.3303 81.3664 31.0802C81.3664 32.3165 80.5323 33.3625 79.3706 33.656C79.2921 33.6913 79.2081 33.7157 79.116 33.7266C75.2491 34.2075 66.83 34.4466 58.411 34.4466Z" fill="black"/>
<path d="M70.1007 30.7031C69.3804 30.695 69.1989 30.0945 69.1908 29.8581C69.18 29.5158 69.3966 29.005 70.0411 28.9534H70.0763C70.0844 28.9534 70.0899 28.9534 70.098 28.9534H70.1007C70.1088 28.9534 70.1142 28.9534 70.1224 28.9534H70.1603C70.8806 28.9615 71.0593 29.562 71.0674 29.7984C71.0783 30.1407 70.8589 30.6515 70.2171 30.7004H70.1819C70.1738 30.7004 70.1657 30.7004 70.1603 30.7004C70.1521 30.7004 70.144 30.7004 70.1359 30.7004L70.1007 30.7031Z" fill="black"/>
<path d="M66.2929 20.6773H63.1733C62.6913 20.6773 62.3014 20.2861 62.3014 19.8024V16.6643H54.5295V19.8024C54.5295 20.2861 54.1396 20.6773 53.6575 20.6773H50.538C50.056 20.6773 49.666 20.2861 49.666 19.8024V16.4822C49.666 13.8929 51.7674 11.7845 54.3481 11.7845H62.4882C65.0689 11.7845 67.1703 13.8929 67.1703 16.4822V19.8024C67.1676 20.2861 66.7749 20.6773 66.2929 20.6773ZM64.048 18.9275H65.4236V16.4822C65.4236 14.8574 64.1076 13.537 62.4882 13.537H54.3481C52.7287 13.537 51.4126 14.8574 51.4126 16.4822V18.9275H52.7883V16.4822C52.7883 15.6182 53.4897 14.9145 54.3508 14.9145H62.4909C63.352 14.9145 64.0534 15.6182 64.0534 16.4822V18.9275H64.048Z" fill="black"/>
<path d="M79.776 42.3211C79.7489 42.3211 79.7218 42.3212 79.6947 42.3184L77.4552 42.1826C76.9732 42.1527 76.6077 41.7397 76.6374 41.2561C76.6672 40.7724 77.0788 40.4084 77.5609 40.4355L79.3969 40.5469L79.6812 35.8166L78.6928 35.7079C78.2135 35.6536 77.8669 35.2216 77.921 34.7406C77.9752 34.2597 78.4057 33.9147 78.885 33.9663L80.2174 34.113C80.5613 34.1402 80.8781 34.3005 81.111 34.564C81.3493 34.833 81.4684 35.1781 81.4468 35.534L81.1137 41.0577C81.0704 41.7723 80.4773 42.3211 79.776 42.3211Z" fill="black"/>
<path d="M37.1794 42.3211C36.8544 42.3211 36.5403 42.2016 36.2939 41.9815C36.0258 41.7424 35.8633 41.4137 35.8444 41.0577L35.5113 35.534C35.4896 35.1781 35.6088 34.833 35.8471 34.564C36.08 34.3005 36.3968 34.1429 36.7407 34.113L38.073 33.9663C38.5523 33.9147 38.9829 34.2597 39.0371 34.7406C39.0912 35.2216 38.7446 35.6536 38.2653 35.7079L37.2769 35.8166L37.5612 40.5469L39.3972 40.4355C39.8765 40.4084 40.2908 40.7752 40.3206 41.2561C40.3504 41.7397 39.9821 42.1527 39.5028 42.1826L37.2633 42.3184C37.2336 42.3212 37.2065 42.3211 37.1794 42.3211Z" fill="black"/>
<path d="M58.5699 63.6661C57.5842 63.6661 56.8232 62.8646 56.8232 61.8783V39.0716C56.8232 38.0826 57.5842 37.2838 58.5699 37.2838C59.5556 37.2838 60.3165 38.0853 60.3165 39.0716V61.8783C60.3165 62.8646 59.5556 63.6661 58.5699 63.6661Z" fill="#EFA29D"/>
<path d="M58.8163 63.6525C58.7459 63.6607 58.6755 63.6661 58.5997 63.6661C57.614 63.6661 56.8232 62.8646 56.8232 61.8783V39.0716C56.8232 38.0826 57.6113 37.2838 58.597 37.2838C58.6728 37.2838 58.7486 37.2892 58.819 37.2974C57.9416 37.4088 57.2592 38.1614 57.2592 39.0716V61.8783C57.2619 62.7885 57.9389 63.5384 58.8163 63.6525Z" fill="#F58E8F"/>
<path d="M51.0447 63.5384C50.0698 63.6743 49.1681 62.9923 49.0327 62.0142L45.8941 39.4275C45.7587 38.4494 46.4384 37.5446 47.4133 37.4088C48.3882 37.2729 49.2899 37.9549 49.4253 38.933L52.5638 61.5197C52.7019 62.4978 52.0195 63.4026 51.0447 63.5384Z" fill="#EFA29D"/>
<path d="M51.264 63.495C51.1936 63.514 51.1205 63.5276 51.0447 63.5385C50.0698 63.6743 49.1681 62.9923 49.0327 62.0142L45.8941 39.4276C45.7587 38.4494 46.4384 37.5447 47.4133 37.4088C47.4891 37.3979 47.5649 37.3925 47.6353 37.3925C46.7823 37.6262 46.2083 38.463 46.3355 39.3678L49.4741 61.9544C49.6013 62.8565 50.3785 63.5058 51.264 63.495Z" fill="#F58E8F"/>
<path d="M66.1789 63.5439C67.1538 63.677 68.0528 62.9896 68.1855 62.0114L71.2428 39.4112C71.3755 38.4331 70.6904 37.531 69.7155 37.3979C68.7406 37.2648 67.8416 37.9522 67.7089 38.9303L64.6516 61.5305C64.5216 62.5114 65.204 63.4107 66.1789 63.5439Z" fill="#EFA29D"/>
<path d="M67.7115 38.9331L64.6542 61.5334C64.5215 62.5115 65.2039 63.4135 66.1815 63.5467C66.2573 63.5575 66.3331 63.563 66.4035 63.563C65.5478 63.3347 64.9737 62.4979 65.0956 61.5931L68.1529 38.9929C68.2747 38.0881 69.0519 37.436 69.9374 37.4442C69.867 37.4252 69.7939 37.4116 69.7181 37.4007C68.7405 37.2676 67.8442 37.9523 67.7115 38.9331Z" fill="#F58E8F"/>
</g>
<defs>
<clipPath id="clip0_590_363">
<rect width="110" height="81" fill="white" transform="translate(0.5 0.348511)"/>
</clipPath>
</defs>
</svg>
