<svg width="19" height="20" viewBox="0 0 19 20" fill="none" xmlns="http://www.w3.org/2000/svg">
<path d="M17.0682 7.58286C17.0682 7.3646 16.985 7.17572 16.8185 7.01623C16.6521 6.85673 16.455 6.77699 16.2273 6.77699C15.9995 6.77699 15.8024 6.85673 15.636 7.01623C15.4696 7.17572 15.3864 7.3646 15.3864 7.58286C15.3864 7.80111 15.4696 7.98999 15.636 8.14949C15.8024 8.30898 15.9995 8.38873 16.2273 8.38873C16.455 8.38873 16.6521 8.30898 16.8185 8.14949C16.985 7.98999 17.0682 7.80111 17.0682 7.58286ZM18.75 7.58286C18.75 8.10332 18.5945 8.56921 18.2836 8.98054C17.9726 9.39187 17.5675 9.68568 17.0682 9.86196V14.8357C17.0682 16.1704 16.4922 17.31 15.3404 18.2544C14.1885 19.1987 12.8023 19.6709 11.1818 19.6709C9.56132 19.6709 8.17513 19.1987 7.02326 18.2544C5.87139 17.31 5.29545 16.1704 5.29545 14.8357V13.1736C3.8589 13.0057 2.65885 12.4685 1.69531 11.5618C0.731771 10.6552 0.25 9.59754 0.25 8.38873V1.94176C0.25 1.7235 0.333215 1.53463 0.499645 1.37513C0.666075 1.21564 0.863163 1.13589 1.09091 1.13589C1.14347 1.13589 1.21354 1.14428 1.30114 1.16107C1.45005 0.909237 1.65589 0.707769 1.91868 0.556668C2.18146 0.405568 2.46615 0.330017 2.77273 0.330017C3.23698 0.330017 3.63335 0.487414 3.96183 0.802207C4.29031 1.117 4.45455 1.49685 4.45455 1.94176C4.45455 2.38667 4.29031 2.76652 3.96183 3.08131C3.63335 3.39611 3.23698 3.5535 2.77273 3.5535C2.48366 3.5535 2.20336 3.47795 1.93182 3.32685V8.38873C1.93182 9.27855 2.34351 10.0382 3.1669 10.6678C3.99029 11.2974 4.98011 11.6122 6.13636 11.6122C7.29261 11.6122 8.28243 11.2974 9.10582 10.6678C9.92921 10.0382 10.3409 9.27855 10.3409 8.38873V3.32685C10.0694 3.47795 9.78906 3.5535 9.5 3.5535C9.03575 3.5535 8.63938 3.39611 8.3109 3.08131C7.98242 2.76652 7.81818 2.38667 7.81818 1.94176C7.81818 1.49685 7.98242 1.117 8.3109 0.802207C8.63938 0.487414 9.03575 0.330017 9.5 0.330017C9.80658 0.330017 10.0913 0.405568 10.354 0.556668C10.6168 0.707769 10.8227 0.909237 10.9716 1.16107C11.0592 1.14428 11.1293 1.13589 11.1818 1.13589C11.4096 1.13589 11.6067 1.21564 11.7731 1.37513C11.9395 1.53463 12.0227 1.7235 12.0227 1.94176V8.38873C12.0227 9.59754 11.541 10.6552 10.5774 11.5618C9.61387 12.4685 8.41383 13.0057 6.97727 13.1736V14.8357C6.97727 15.7255 7.38897 16.4852 8.21236 17.1148C9.03575 17.7444 10.0256 18.0592 11.1818 18.0592C12.3381 18.0592 13.3279 17.7444 14.1513 17.1148C14.9747 16.4852 15.3864 15.7255 15.3864 14.8357V9.86196C14.8871 9.68568 14.4819 9.39187 14.171 8.98054C13.86 8.56921 13.7045 8.10332 13.7045 7.58286C13.7045 6.9113 13.9498 6.34047 14.4403 5.87038C14.9309 5.40029 15.5265 5.16524 16.2273 5.16524C16.928 5.16524 17.5237 5.40029 18.0142 5.87038C18.5047 6.34047 18.75 6.9113 18.75 7.58286Z" fill="white"/>
</svg>
