<svg width="114" height="114" viewBox="0 0 114 114" fill="none" xmlns="http://www.w3.org/2000/svg">
<circle cx="57" cy="57" r="57" fill="#F8F9FA"/>
<g clip-path="url(#clip0_1014_22)">
<path d="M71.9049 59.5477H67.9225V46.3931C67.9225 40.6524 63.2474 35.9787 57.4986 35.9787C51.7498 35.9787 47.0775 40.6496 47.0775 46.3931V59.5477H43.0952V46.3931C43.0952 38.4557 49.5568 32 57.5015 32C65.4461 32 71.9077 38.4557 71.9077 46.3931V59.5477H71.9049Z" fill="#2E3192"/>
<path d="M78 79.4583C78 80.3107 77.31 81 76.4569 81H38.5431C37.69 81 37 80.3107 37 79.4583V54.8482C37 53.9958 37.69 53.3065 38.5431 53.3065H76.4569C77.31 53.3065 78 53.9958 78 54.8482V79.4583Z" fill="#2E3192"/>
<path d="M78 79.4583V64.3787C65.5119 74.9361 47.5013 78.9034 37.2949 80.3593C37.5755 80.7454 38.0278 81 38.5432 81H76.4569C77.3101 81 78 80.3107 78 79.4583Z" fill="#3B3E95"/>
<path d="M60.8884 62.9829C60.8884 61.1123 59.3711 59.5992 57.5016 59.5992C55.6292 59.5992 54.1147 61.1151 54.1147 62.9829C54.1147 64.0984 54.6558 65.0824 55.489 65.7002L54.4096 73.3544H60.5964L59.5171 65.7002C60.3473 65.0824 60.8884 64.0956 60.8884 62.9829Z" fill="#8E90DE"/>
<path d="M38.2939 56.224V61.5241C38.4342 59.2731 39.5193 54.3762 46.2987 54.3762H40.1434C39.1242 54.3762 38.2939 55.2057 38.2939 56.224Z" fill="#3B3E95"/>
<path d="M54.4067 73.3544C54.4067 73.3544 58.9989 72.0587 59.5142 65.7002L60.5935 73.3544H54.4067Z" fill="#4E51AF"/>
</g>
<defs>
<clipPath id="clip0_1014_22">
<rect width="41" height="49" fill="white" transform="translate(37 32)"/>
</clipPath>
</defs>
</svg>
