<svg width="21" height="21" viewBox="0 0 21 21" fill="none" xmlns="http://www.w3.org/2000/svg">
<path d="M1.75 1.75049H8.3125V8.31299H1.75V1.75049ZM12.6875 1.75049H19.25V8.31299H12.6875V1.75049ZM1.75 12.688H8.3125V19.2505H1.75V12.688ZM12.6875 15.9692C12.6875 16.8395 13.0332 17.6741 13.6486 18.2894C14.2639 18.9048 15.0985 19.2505 15.9688 19.2505C16.839 19.2505 17.6736 18.9048 18.2889 18.2894C18.9043 17.6741 19.25 16.8395 19.25 15.9692C19.25 15.099 18.9043 14.2644 18.2889 13.649C17.6736 13.0337 16.839 12.688 15.9688 12.688C15.0985 12.688 14.2639 13.0337 13.6486 13.649C13.0332 14.2644 12.6875 15.099 12.6875 15.9692Z" stroke="white" stroke-width="1.8" stroke-linecap="round" stroke-linejoin="round"/>
<rect x="1.75" y="1.75049" width="6.5" height="6.50018" fill="white"/>
<rect x="12.75" y="1.75049" width="6.5" height="6.50018" fill="white"/>
<rect x="1.75" y="12.7503" width="6.5" height="6.50018" fill="white"/>
<circle cx="16" cy="16.0004" r="3.53125" fill="white"/>
</svg>
