<svg width="20" height="21" viewBox="0 0 20 21" fill="none" xmlns="http://www.w3.org/2000/svg">
<path opacity="0.2" d="M1.25 1.74988H7.8125V8.31238H1.25V1.74988ZM12.1875 1.74988H18.75V8.31238H12.1875V1.74988ZM1.25 12.6874H7.8125V19.2499H1.25V12.6874ZM12.1875 15.9686C12.1875 16.8389 12.5332 17.6735 13.1486 18.2888C13.7639 18.9042 14.5985 19.2499 15.4688 19.2499C16.339 19.2499 17.1736 18.9042 17.7889 18.2888C18.4043 17.6735 18.75 16.8389 18.75 15.9686C18.75 15.0984 18.4043 14.2638 17.7889 13.6484C17.1736 13.0331 16.339 12.6874 15.4688 12.6874C14.5985 12.6874 13.7639 13.0331 13.1486 13.6484C12.5332 14.2638 12.1875 15.0984 12.1875 15.9686Z" stroke="black" stroke-width="1.8" stroke-linecap="round" stroke-linejoin="round"/>
</svg>
