<svg width="47" height="47" viewBox="0 0 47 47" fill="none" xmlns="http://www.w3.org/2000/svg">
<circle cx="23.5" cy="23.5005" r="23.5" fill="white"/>
<path d="M28.3243 22.776V19.5951L26.6796 21.2739V22.776C26.6774 23.8959 25.7706 24.8104 24.6453 24.8082C24.2319 24.8104 23.8489 24.6889 23.5199 24.4768L22.3513 25.6918C22.9811 26.1866 23.7775 26.487 24.6453 26.487C26.6752 26.487 28.3243 24.8281 28.3243 22.776Z" fill="black"/>
<path d="M31.657 22.4824H30.3345C30.2375 22.4824 30.1582 22.562 30.1582 22.6592C30.1582 25.7588 27.6521 28.2708 24.5597 28.2708C23.1712 28.2708 21.8994 27.7627 20.923 26.9232L19.7328 28.1162C20.8106 29.0706 22.1749 29.7135 23.6781 29.9057V32.1593H20.4822C20.1758 32.1593 19.9333 32.4752 19.9311 32.8662V33.6616C19.9333 33.7588 19.995 33.8383 20.0634 33.8383H29.0561C29.1266 33.8383 29.1884 33.7588 29.1884 33.6616V32.8662C29.1884 32.4752 28.9459 32.1593 28.6373 32.1593H25.3532V29.9057C28.9966 29.5103 31.8333 26.4172 31.8333 22.6592C31.8333 22.562 31.7539 22.4824 31.657 22.4824ZM31.9457 14.1378L30.9869 13.2121C30.9186 13.1458 30.8084 13.1458 30.7401 13.2143L27.8968 16.0643C27.2774 14.8647 26.0145 14.0428 24.5597 14.0428C22.4901 14.0428 20.8128 15.7064 20.8128 17.7545V22.7033C20.8128 22.8514 20.8216 22.9972 20.8392 23.1408L19.3404 24.6431C19.109 24.0267 18.9812 23.3573 18.9834 22.6592C18.979 22.562 18.8996 22.4824 18.807 22.4824H17.4846C17.3876 22.4824 17.3082 22.562 17.3082 22.6592C17.3082 23.8301 17.5838 24.9348 18.0709 25.9157L15.0512 28.9425C14.9829 29.011 14.9829 29.1236 15.0512 29.1921L15.9924 30.1355C16.0607 30.204 16.1731 30.204 16.2415 30.1355L31.9479 14.3919L31.9501 14.3897C32.0184 14.319 32.0162 14.2063 31.9457 14.1378ZM22.4879 21.4882V17.7545C22.4879 16.6365 23.4114 15.7219 24.5597 15.7219C25.5736 15.7219 26.4134 16.4355 26.5941 17.3723L22.4879 21.4882Z" fill="black"/>
</svg>
