<svg width="30" height="30" viewBox="0 0 30 30" fill="none" xmlns="http://www.w3.org/2000/svg">
<path fill-rule="evenodd" clip-rule="evenodd" d="M10.3125 26.25C10.3125 25.7322 10.7322 25.3125 11.25 25.3125H18.75C19.2678 25.3125 19.6875 25.7322 19.6875 26.25C19.6875 26.7678 19.2678 27.1875 18.75 27.1875H11.25C10.7322 27.1875 10.3125 26.7678 10.3125 26.25Z" fill="#2E3192"/>
<path fill-rule="evenodd" clip-rule="evenodd" d="M7.5 11.25C8.01777 11.25 8.4375 11.6697 8.4375 12.1875V14.0625C8.4375 17.6697 11.3928 20.625 15 20.625C18.6072 20.625 21.5625 17.6697 21.5625 14.0625V12.1875C21.5625 11.6697 21.9822 11.25 22.5 11.25C23.0178 11.25 23.4375 11.6697 23.4375 12.1875V14.0625C23.4375 18.7053 19.6428 22.5 15 22.5C10.3572 22.5 6.5625 18.7053 6.5625 14.0625V12.1875C6.5625 11.6697 6.98223 11.25 7.5 11.25Z" fill="#2E3192"/>
<path fill-rule="evenodd" clip-rule="evenodd" d="M15 20.625C15.5178 20.625 15.9375 21.0447 15.9375 21.5625V26.25C15.9375 26.7678 15.5178 27.1875 15 27.1875C14.4822 27.1875 14.0625 26.7678 14.0625 26.25V21.5625C14.0625 21.0447 14.4822 20.625 15 20.625Z" fill="#2E3192"/>
<path d="M15 18.75C14.3813 18.7486 13.7692 18.6228 13.2 18.3803C12.6308 18.1377 12.1161 17.7832 11.6866 17.3379C10.8072 16.451 10.3134 15.2529 10.3125 14.0039V7.50004C10.3101 6.88379 10.4297 6.27317 10.6645 5.70337C10.8992 5.13357 11.2444 4.61587 11.6801 4.18012C12.1159 3.74436 12.6336 3.39918 13.2034 3.16446C13.7732 2.92974 14.3838 2.81013 15 2.81254C17.6286 2.81254 19.6875 4.87152 19.6875 7.50004V14.0039C19.6875 16.6207 17.5846 18.75 15 18.75Z" fill="#2E3192"/>
</svg>
