<svg width="9" height="16" viewBox="0 0 9 16" fill="none" xmlns="http://www.w3.org/2000/svg">
<path d="M1.78341 15.6839L8.77188 8.59152C8.85483 8.50708 8.91372 8.41562 8.94856 8.31711C8.9834 8.21861 9.00054 8.11306 8.99999 8.00049C8.99999 7.88791 8.98257 7.78237 8.94773 7.68387C8.91289 7.58536 8.85427 7.49389 8.77188 7.40946L1.78341 0.296003C1.58986 0.098993 1.34792 0.000488281 1.0576 0.000488281C0.76728 0.000488281 0.518432 0.106029 0.311059 0.317111C0.103686 0.528193 0 0.774455 0 1.0559C0 1.33734 0.103686 1.5836 0.311059 1.79468L6.40782 8.00049L0.311059 14.2063C0.117511 14.4033 0.0207367 14.6462 0.0207367 14.9349C0.0207367 15.2237 0.124423 15.4733 0.331797 15.6839C0.539169 15.8949 0.781104 16.0005 1.0576 16.0005C1.3341 16.0005 1.57603 15.8949 1.78341 15.6839Z" fill="#2E3192"/>
</svg>
