<svg width="26" height="20" viewBox="0 0 26 20" fill="none" xmlns="http://www.w3.org/2000/svg">
<path opacity="0.2" d="M24.0195 19.1076C24.0195 19.1076 25.5938 19.1076 25.5938 17.5153C25.5938 15.923 24.0195 11.1461 17.7227 11.1461C11.4258 11.1461 9.85156 15.923 9.85156 17.5153C9.85156 19.1076 11.4258 19.1076 11.4258 19.1076H24.0195ZM11.4604 17.5153C11.4488 17.5137 11.4372 17.5116 11.4258 17.509C11.4274 17.0886 11.6887 15.8689 12.6222 14.7702C13.4912 13.7399 15.0181 12.7384 17.7227 12.7384C20.4256 12.7384 21.9526 13.7415 22.8231 14.7702C23.7566 15.8689 24.0164 17.0902 24.0195 17.509L24.0069 17.5121C23.9996 17.5134 23.9923 17.5145 23.9849 17.5153H11.4604ZM17.7227 7.96144C18.5577 7.96144 19.3585 7.62592 19.9489 7.02869C20.5394 6.43146 20.8711 5.62143 20.8711 4.77682C20.8711 3.9322 20.5394 3.12218 19.9489 2.52495C19.3585 1.92771 18.5577 1.59219 17.7227 1.59219C16.8876 1.59219 16.0868 1.92771 15.4964 2.52495C14.9059 3.12218 14.5742 3.9322 14.5742 4.77682C14.5742 5.62143 14.9059 6.43146 15.4964 7.02869C16.0868 7.62592 16.8876 7.96144 17.7227 7.96144ZM22.4453 4.77682C22.4453 5.40413 22.3232 6.02531 22.0858 6.60487C21.8485 7.18444 21.5006 7.71104 21.0621 8.15462C20.6235 8.5982 20.1029 8.95007 19.5299 9.19013C18.957 9.4302 18.3428 9.55376 17.7227 9.55376C17.1025 9.55376 16.4884 9.4302 15.9154 9.19013C15.3424 8.95007 14.8218 8.5982 14.3832 8.15462C13.9447 7.71104 13.5968 7.18444 13.3595 6.60487C13.1222 6.02531 13 5.40413 13 4.77682C13 3.50989 13.4976 2.29486 14.3832 1.39901C15.2689 0.503161 16.4701 -0.00012207 17.7227 -0.00012207C18.9752 -0.00012207 20.1764 0.503161 21.0621 1.39901C21.9477 2.29486 22.4453 3.50989 22.4453 4.77682ZM11.325 11.5919C10.6953 11.3913 10.0462 11.2595 9.38874 11.1986C9.01932 11.1631 8.64843 11.1455 8.27734 11.1461C1.98047 11.1461 0.40625 15.923 0.40625 17.5153C0.40625 18.5774 0.930465 19.1076 1.98047 19.1076H8.61738C8.38401 18.6105 8.26762 18.0655 8.27734 17.5153C8.27734 15.9071 8.87082 14.2638 9.99324 12.8912C10.3758 12.4231 10.8213 11.9852 11.325 11.5919ZM8.15141 12.7384C7.21971 14.1544 6.71641 15.8144 6.70312 17.5153H1.98047C1.98047 17.1013 2.23864 15.8752 3.17687 14.7702C4.03482 13.7575 5.52561 12.7702 8.15141 12.74V12.7384ZM2.76758 5.57297C2.76758 4.30605 3.26514 3.09102 4.15081 2.19517C5.03648 1.29932 6.23771 0.796035 7.49023 0.796035C8.74276 0.796035 9.94399 1.29932 10.8297 2.19517C11.7153 3.09102 12.2129 4.30605 12.2129 5.57297C12.2129 6.8399 11.7153 8.05493 10.8297 8.95078C9.94399 9.84663 8.74276 10.3499 7.49023 10.3499C6.23771 10.3499 5.03648 9.84663 4.15081 8.95078C3.26514 8.05493 2.76758 6.8399 2.76758 5.57297ZM7.49023 2.38835C6.65522 2.38835 5.8544 2.72387 5.26395 3.3211C4.67351 3.91834 4.3418 4.72836 4.3418 5.57297C4.3418 6.41759 4.67351 7.22761 5.26395 7.82484C5.8544 8.42208 6.65522 8.7576 7.49023 8.7576C8.32525 8.7576 9.12607 8.42208 9.71652 7.82484C10.307 7.22761 10.6387 6.41759 10.6387 5.57297C10.6387 4.72836 10.307 3.91834 9.71652 3.3211C9.12607 2.72387 8.32525 2.38835 7.49023 2.38835Z" fill="black"/>
</svg>
