<svg width="44" height="44" viewBox="0 0 44 44" fill="none" xmlns="http://www.w3.org/2000/svg">
<circle opacity="0.1" cx="22" cy="22.0005" r="22" fill="#00C84F"/>
<path d="M23.4239 26.2031L23.4241 26.203C24.227 26.0155 25.0282 25.8297 25.8312 25.6456L25.8319 25.6455C25.9008 25.6302 25.974 25.6304 26.0332 25.6307C26.0401 25.6307 26.0469 25.6307 26.0534 25.6307V25.7307M23.4239 26.2031L31.0185 24.9637C31.0185 24.9637 31.0184 24.9637 31.0184 24.9637M23.4239 26.2031C23.2812 26.2367 23.1388 26.2707 22.9965 26.3047C22.6066 26.3978 22.2175 26.4906 21.827 26.576M23.4239 26.2031L27.7634 25.7307C27.194 25.7289 26.6228 25.7289 26.0534 25.7307M26.0534 25.7307L26.0531 25.6307C26.6227 25.6289 27.1941 25.6289 27.7637 25.6307C28.5195 25.6325 29.2217 25.8323 29.8684 26.2256L29.8685 26.2257C29.8987 26.2441 29.9266 26.2608 29.9552 26.2779C29.9565 26.2432 29.9572 26.2086 29.958 26.1732C29.9587 26.137 29.9595 26.0999 29.961 26.0607C29.9646 25.9638 29.9724 25.8621 29.9968 25.7621C30.1071 25.2997 30.5482 24.9657 31.0184 24.9637M26.0534 25.7307C26.0467 25.7307 26.0399 25.7307 26.0332 25.7307C25.9725 25.7305 25.9109 25.7304 25.8536 25.7431C25.0507 25.9271 24.2497 26.1129 23.4468 26.3004C23.3048 26.3339 23.1627 26.3678 23.0206 26.4018C22.6303 26.4949 22.2397 26.5881 21.8483 26.6737M31.0184 24.9637C31.694 24.9602 32.37 24.9584 33.0462 24.9637L31.0184 24.9637ZM29.9637 32.1882C30.0707 32.7433 30.5599 33.113 31.1255 33.1005L31.1256 33.1005C31.5499 33.0906 31.9734 33.0928 32.3986 33.095C32.5814 33.096 32.7645 33.0969 32.9482 33.0969C33.6148 33.0969 34.1003 32.6138 34.1003 31.9496V31.9382V31.9269V31.9156V31.9042V31.8929V31.8816V31.8702V31.8589V31.8476V31.8363V31.8249V31.8136V31.8023V31.7909V31.7796V31.7683V31.7569V31.7456V31.7343V31.7229V31.7116V31.7003V31.689V31.6776V31.6663V31.655V31.6436V31.6323V31.621V31.6096V31.5983V31.587V31.5756V31.5643V31.553V31.5417V31.5303V31.519V31.5077V31.4963V31.485V31.4737V31.4623V31.451V31.4397V31.4283V31.417V31.4057V31.3944V31.383V31.3717V31.3604V31.349V31.3377V31.3264V31.315V31.3037V31.2924V31.281V31.2697V31.2584V31.2471V31.2357V31.2244V31.2131V31.2017V31.1904V31.1791V31.1677V31.1564V31.1451V31.1338V31.1224V31.1111V31.0998V31.0884V31.0771V31.0658V31.0544V31.0431V31.0318V31.0204V31.0091V30.9978V30.9865V30.9751V30.9638V30.9525V30.9411V30.9298V30.9185V30.9071V30.8958V30.8845V30.8731V30.8618V30.8505V30.8392V30.8278V30.8165V30.8052V30.7938V30.7825V30.7712V30.7598V30.7485V30.7372V30.7258V30.7145V30.7032V30.6919V30.6805V30.6692V30.6579V30.6465V30.6352V30.6239V30.6125V30.6012V30.5899V30.5785V30.5672V30.5559V30.5446V30.5332V30.5219V30.5106V30.4992V30.4879V30.4766V30.4652V30.4539V30.4426V30.4312V30.4199V30.4086V30.3973V30.3859V30.3746V30.3633V30.3519V30.3406V30.3293V30.3179V30.3066V30.2953V30.2839V30.2726V30.2613V30.25V30.2386V30.2273V30.216V30.2046V30.1933V30.182V30.1706V30.1593V30.148V30.1367V30.1253V30.114V30.1027V30.0913V30.08V30.0687V30.0573V30.046V30.0347V30.0233V30.012V30.0007V29.9894V29.978V29.9667V29.9554V29.944V29.9327V29.9214V29.91V29.8987V29.8874V29.876V29.8647V29.8534V29.8421V29.8307V29.8194V29.8081V29.7967V29.7854V29.7741V29.7627V29.7514V29.7401V29.7287V29.7174V29.7061V29.6948V29.6834V29.6721V29.6608V29.6494V29.6381V29.6268V29.6154V29.6041V29.5928V29.5814V29.5701V29.5588V29.5475V29.5361V29.5248V29.5135V29.5021V29.4908V29.4795V29.4681V29.4568V29.4455V29.4341V29.4228V29.4115V29.4002V29.3888V29.3775V29.3662V29.3548V29.3435V29.3322V29.3208V29.3095V29.2982V29.2868V29.2755V29.2642V29.2529V29.2415V29.2302V29.2189V29.2075V29.1962V29.1849V29.1735V29.1622V29.1509V29.1396V29.1282V29.1169V29.1056V29.0942V29.0829V29.0716V29.0602V29.0489V29.0376V29.0262V29.0149V29.0036V28.9923V28.9809V28.9696V28.9583V28.9469V28.9356V28.9243V28.9129V28.9016V28.8903V28.8789V28.8676V28.8563V28.845V28.8336V28.8223V28.811V28.7996V28.7883V28.777V28.7656V28.7543V28.743V28.7316V28.7203V28.709V28.6977V28.6863V28.675V28.6637V28.6523V28.641V28.6297V28.6183V28.607V28.5957V28.5843V28.573V28.5617V28.5504V28.539V28.5277V28.5164V28.505V28.4937V28.4824V28.471V28.4597V28.4484V28.437V28.4257V28.4144V28.4031V28.3917V28.3804V28.3691V28.3577V28.3464V28.3351V28.3237V28.3124V28.3011V28.2898V28.2784V28.2671V28.2558V28.2444V28.2331V28.2218V28.2104V28.1991V28.1878V28.1764V28.1651V28.1538V28.1425V28.1311V28.1198V28.1085V28.0971V28.0858V28.0745V28.0631V28.0518V28.0405V28.0291V28.0178V28.0065V27.9952V27.9838V27.9725V27.9612V27.9498V27.9385V27.9272V27.9158V27.9045V27.8932V27.8818V27.8705V27.8592V27.8479V27.8365V27.8252V27.8139V27.8025V27.7912V27.7799V27.7685V27.7572V27.7459V27.7345V27.7232V27.7119V27.7006V27.6892V27.6779V27.6666V27.6552V27.6439V27.6326V27.6212V27.6099V27.5986V27.5872V27.5759V27.5646V27.5533V27.5419V27.5306V27.5193V27.5079V27.4966V27.4853V27.4739V27.4626V27.4513V27.4399V27.4286V27.4173V27.406V27.3946V27.3833V27.372V27.3606V27.3493V27.338V27.3266V27.3153V27.304V27.2927V27.2813V27.27V27.2587V27.2473V27.236V27.2247V27.2133V27.202V27.1907V27.1793V27.168V27.1567V27.1454V27.134V27.1227V27.1114V27.1V27.0887V27.0774V27.066V27.0547V27.0434V27.032V27.0207V27.0094V26.9981V26.9867V26.9754V26.9641V26.9527V26.9414V26.9301V26.9187V26.9074V26.8961V26.8847V26.8734V26.8621V26.8508V26.8394V26.8281V26.8168V26.8054V26.7941V26.7828V26.7714V26.7601V26.7488V26.7374V26.7261V26.7148V26.7035V26.6921V26.6808V26.6695V26.6581V26.6468V26.6355V26.6241V26.6128V26.6015V26.5901V26.5788V26.5675V26.5562V26.5448V26.5335V26.5222V26.5108V26.4995V26.4882V26.4768V26.4655V26.4542V26.4428V26.4315V26.4202V26.4089V26.3975V26.3862V26.3749V26.3635V26.3522V26.3409V26.3295V26.3182V26.3069V26.2956V26.2842V26.2729V26.2616V26.2502V26.2389V26.2276V26.2162V26.2049V26.1936V26.1822V26.1709V26.1596V26.1483C34.1003 26.0661 34.0947 25.9821 34.0836 25.8999C34.019 25.3925 33.5597 24.9677 33.0462 24.9637L29.9637 32.1882ZM29.9637 32.1882C29.9225 32.2012 29.881 32.2144 29.8395 32.2277C29.6724 32.2809 29.5029 32.335 29.334 32.382C28.769 32.5407 28.191 32.6578 27.5981 32.6741M29.9637 32.1882L27.5981 32.6741M27.5981 32.6741C26.7003 32.6989 25.8011 32.7059 24.9044 32.7095M27.5981 32.6741L24.9044 32.7095M24.9044 32.7095C24.3389 32.713 23.7738 32.7042 23.2095 32.6918L24.9044 32.7095ZM21.8483 26.6737L21.8271 26.576C21.8271 26.576 21.827 26.576 21.827 26.576M21.8483 26.6737C21.2526 26.8026 20.8817 27.158 20.6908 27.7205L21.8483 26.6737ZM21.827 26.576C21.4964 26.6475 21.2267 26.7869 21.0157 26.9935C20.8321 27.1732 20.6968 27.4001 20.6029 27.6686M21.827 26.576L20.6029 27.6686M20.6029 27.6686C20.363 27.5272 20.1224 27.3858 19.8789 27.2471C19.5263 27.0396 19.1735 26.8331 18.8208 26.6266C18.2495 26.2922 17.6783 25.9579 17.1089 25.62C16.7503 25.4062 16.3651 25.3141 15.9501 25.3918L15.95 25.3918C14.936 25.5826 14.3441 26.7113 14.8286 27.6809L14.8289 27.6813C14.9837 27.9872 15.2287 28.1957 15.504 28.3653C16.0965 28.7308 16.6863 29.0995 17.2762 29.4683C17.5399 29.6332 17.8036 29.798 18.0676 29.9626L20.6029 27.6686ZM22.4677 32.6382L22.4676 32.6382C22.381 32.6293 22.293 32.5949 22.2237 32.5541L22.2218 32.553L22.2218 32.553C21.9622 32.3924 21.7022 32.2289 21.4424 32.0657C21.2391 31.9379 21.036 31.8102 20.8334 31.6841L20.8333 31.6841C20.3728 31.3967 19.9118 31.1101 19.4507 30.8235L19.4506 30.8235C18.9896 30.5369 18.5284 30.2502 18.0677 29.9626L22.4677 32.6382ZM22.4677 32.6382C22.7118 32.663 22.9611 32.6864 23.2095 32.6918L22.4677 32.6382ZM21.3513 27.4734C21.5246 27.2646 21.7581 27.1726 22.0145 27.1143C22.6027 26.9798 23.1905 26.8432 23.7784 26.7065L21.3513 27.4734ZM21.3513 27.4734C21.1745 27.6857 21.0737 27.9281 21.1356 28.2023L21.3513 27.4734ZM25.9144 26.3166C25.2087 26.4767 24.5053 26.6402 23.8017 26.8038C23.2139 26.9404 22.6261 27.077 22.0368 27.2117L22.0367 27.2118C21.7887 27.2682 21.5809 27.3535 21.4283 27.5373L21.4282 27.5374C21.2632 27.7355 21.1805 27.9468 21.2331 28.1801C21.3356 28.6243 21.8453 28.9383 22.289 28.8356L22.2893 28.8355C22.9126 28.6929 23.5358 28.5471 24.1593 28.4013C24.4712 28.3283 24.7831 28.2554 25.0952 28.1828C25.0952 28.1828 25.0953 28.1828 25.0953 28.1828L25.7415 28.0315L26.3878 27.8803L26.3881 27.8802C26.4857 27.8577 26.582 27.8637 26.6627 27.9078C26.745 27.9526 26.7985 28.0301 26.8209 28.1244M25.9144 26.3166L26.8209 28.1244M25.9144 26.3166C26.015 26.2939 26.121 26.2954 26.2395 26.2969C26.2709 26.2974 26.3031 26.2978 26.3363 26.2978L26.3367 26.2978C26.5713 26.2969 26.8061 26.2982 27.0413 26.2996L27.0416 26.2996C27.2766 26.3009 27.5122 26.3022 27.7478 26.3013L27.7475 26.2013M25.9144 26.3166L22.7538 29.4213M26.8209 28.1244C26.8433 28.218 26.8303 28.3104 26.7768 28.387C26.7245 28.4619 26.6415 28.5101 26.5447 28.5346L26.5436 28.5349C26.3393 28.584 26.1339 28.6317 25.9291 28.6793C25.8164 28.7054 25.7038 28.7316 25.5917 28.7579L25.5916 28.7579L22.7538 29.4213M26.8209 28.1244L22.7538 29.4213M22.7538 29.4213L22.7534 29.4214L22.7446 29.4235C22.4608 29.491 22.1517 29.5646 21.8287 29.4943L21.8287 29.4943C21.2557 29.3691 20.8397 29.0418 20.6233 28.4826L20.6229 28.4816L20.6229 28.4816C20.6167 28.4651 20.5959 28.4406 20.5719 28.4264L20.5718 28.4263C20.3499 28.2948 20.1281 28.1654 19.9061 28.0359C19.7457 27.9424 19.5853 27.8488 19.4245 27.7543C18.5208 27.2252 17.6172 26.6944 16.7136 26.1637L16.7135 26.1636C16.5318 26.0565 16.3402 26.0101 16.1409 26.0368L16.1407 26.0369C15.8504 26.0752 15.6283 26.2249 15.4698 26.479L15.4697 26.4791C15.1865 26.9311 15.3608 27.4758 15.7475 27.7177L15.7475 27.7177C16.2521 28.0336 16.7573 28.348 17.2624 28.6623C17.575 28.8569 17.8876 29.0514 18.2 29.2462L18.2001 29.2463L19.7819 30.2344L21.3636 31.2225C21.7526 31.4649 22.1415 31.7072 22.5304 31.9477L22.5323 31.9489L22.5323 31.9489C22.567 31.9715 22.5894 31.9801 22.6006 31.9806L22.6012 31.9806C22.7016 31.9856 22.8014 31.9911 22.9008 31.9965C23.1949 32.0127 23.4855 32.0287 23.778 32.03L23.7783 32.03C24.4926 32.0353 25.2069 32.0347 25.9216 32.034C26.16 32.0338 26.3984 32.0336 26.6369 32.0336C27.146 32.0336 27.6515 32.0159 28.1521 31.9426L28.1521 31.9426C28.751 31.8553 29.3332 31.6997 29.9041 31.4912L29.9046 31.491C29.9128 31.4881 29.9179 31.4856 29.9209 31.484C29.9215 31.4798 29.9219 31.4729 29.9216 31.4621L29.9215 31.46C29.918 30.7308 29.918 29.9998 29.918 29.2674C29.918 29.0853 29.9179 28.9033 29.9178 28.7213C29.9175 28.1752 29.9171 27.6292 29.9198 27.0823C29.9198 27.0539 29.9155 27.0443 29.9138 27.0412C29.9125 27.0389 29.9083 27.0318 29.8877 27.0202C29.8004 26.9755 29.7175 26.9223 29.64 26.8724C29.63 26.866 29.6202 26.8597 29.6104 26.8535L29.6643 26.7693M29.6643 26.7693L29.6106 26.8536C29.0404 26.4899 28.4241 26.2996 27.7477 26.3013L27.7475 26.2013M29.6643 26.7693C29.079 26.3959 28.4442 26.1996 27.7475 26.2013M29.6643 26.7693C29.6742 26.7756 29.6841 26.782 29.6941 26.7883C29.7726 26.8388 29.8517 26.8896 29.9349 26.932L26.3363 26.1978C26.5715 26.1969 26.8067 26.1982 27.0419 26.1996C27.2771 26.2009 27.5123 26.2022 27.7475 26.2013M33.4282 26.321L33.5282 26.3216C33.5299 25.8493 33.1374 25.5219 32.7448 25.5308C32.4312 25.5377 32.117 25.5364 31.8029 25.5351C31.6316 25.5344 31.4604 25.5337 31.2895 25.5343C31.2364 25.5343 31.1834 25.5361 31.1321 25.5467M33.4282 26.321C33.4296 25.908 33.0864 25.6231 32.7471 25.6308L32.747 25.6308C32.4323 25.6377 32.1155 25.6364 31.8005 25.6351C31.6295 25.6344 31.4591 25.6337 31.2898 25.6343L31.2895 25.6343C31.2381 25.6343 31.1938 25.6362 31.1532 25.6445M33.4282 26.321C33.4244 26.9672 33.4251 27.6136 33.4258 28.2596C33.4261 28.5177 33.4264 28.7759 33.4264 29.0339C33.4264 29.484 33.4269 29.9346 33.4273 30.3854V30.3859C33.4277 30.8368 33.4282 31.2879 33.4282 31.739C33.4282 32.1248 33.1364 32.4214 32.7477 32.4246M33.4282 26.321L31.1321 25.5467M31.1532 25.6445C31.1535 25.6444 31.1538 25.6443 31.1541 25.6443L31.1321 25.5467M31.1532 25.6445C31.1529 25.6445 31.1526 25.6446 31.1523 25.6446L31.1321 25.5467M31.1532 25.6445C30.8247 25.7189 30.6185 25.9809 30.6185 26.334V26.3414V26.3488V26.3561V26.3635V26.3709V26.3782V26.3856V26.393V26.4004V26.4077V26.4151V26.4225V26.4298V26.4372V26.4446V26.452V26.4593V26.4667V26.4741V26.4814V26.4888V26.4962V26.5035V26.5109V26.5183V26.5257V26.533V26.5404V26.5478V26.5551V26.5625V26.5699V26.5773V26.5846V26.592V26.5994V26.6067V26.6141V26.6215V26.6288V26.6362V26.6436V26.651V26.6583V26.6657V26.6731V26.6804V26.6878V26.6952V26.7026V26.7099V26.7173V26.7247V26.732V26.7394V26.7468V26.7541V26.7615V26.7689V26.7763V26.7836V26.791V26.7984V26.8057V26.8131V26.8205V26.8279V26.8352V26.8426V26.85V26.8573V26.8647V26.8721V26.8794V26.8868V26.8942V26.9016V26.9089V26.9163V26.9237V26.931V26.9384V26.9458V26.9532V26.9605V26.9679V26.9753V26.9826V26.99V26.9974V27.0047V27.0121V27.0195V27.0269V27.0342V27.0416V27.049V27.0563V27.0637V27.0711V27.0785V27.0858V27.0932V27.1006V27.1079V27.1153V27.1227V27.1301V27.1374V27.1448V27.1522V27.1595V27.1669V27.1743V27.1816V27.189V27.1964V27.2038V27.2111V27.2185V27.2259V27.2332V27.2406V27.248V27.2554V27.2627V27.2701V27.2775V27.2848V27.2922V27.2996V27.3069V27.3143V27.3217V27.3291V27.3364V27.3438V27.3512V27.3585V27.3659V27.3733V27.3807V27.388V27.3954V27.4028V27.4101V27.4175V27.4249V27.4322V27.4396V27.447V27.4544V27.4617V27.4691V27.4765V27.4838V27.4912V27.4986V27.506V27.5133V27.5207V27.5281V27.5354V27.5428V27.5502V27.5575V27.5649V27.5723V27.5797V27.587V27.5944V27.6018V27.6091V27.6165V27.6239V27.6313V27.6386V27.646V27.6534V27.6607V27.6681V27.6755V27.6828V27.6902V27.6976V27.705V27.7123V27.7197V27.7271V27.7344V27.7418V27.7492V27.7566V27.7639V27.7713V27.7787V27.786V27.7934V27.8008V27.8082V27.8155V27.8229V27.8303V27.8376V27.845V27.8524V27.8597V27.8671V27.8745V27.8819V27.8892V27.8966V27.904V27.9113V27.9187V27.9261V27.9335V27.9408V27.9482V27.9556V27.9629V27.9703V27.9777V27.985V27.9924V27.9998V28.0072V28.0145V28.0219V28.0293V28.0366V28.044V28.0514V28.0588V28.0661V28.0735V28.0809V28.0882V28.0956V28.103V28.1103V28.1177V28.1251V28.1325V28.1398V28.1472V28.1546V28.1619V28.1693V28.1767V28.1841V28.1914V28.1988V28.2062V28.2135V28.2209V28.2283V28.2356V28.243V28.2504V28.2578V28.2651V28.2725V28.2799V28.2872V28.2946V28.302V28.3094V28.3167V28.3241V28.3315V28.3388V28.3462V28.3536V28.3609V28.3683V28.3757V28.3831V28.3904V28.3978V28.4052V28.4125V28.4199V28.4273V28.4347V28.442V28.4494V28.4568V28.4641V28.4715V28.4789V28.4862V28.4936V28.501V28.5084V28.5157V28.5231V28.5305V28.5378V28.5452V28.5526V28.56V28.5673V28.5747V28.5821V28.5894V28.5968V28.6042V28.6116V28.6189V28.6263V28.6337V28.641V28.6484V28.6558V28.6631V28.6705V28.6779V28.6853V28.6926V28.7V28.7074V28.7147V28.7221V28.7295V28.7369V28.7442V28.7516V28.759V28.7663V28.7737V28.7811V28.7884V28.7958V28.8032V28.8106V28.8179V28.8253V28.8327V28.84V28.8474V28.8548V28.8622V28.8695V28.8769V28.8843V28.8916V28.899V28.9064V28.9137V28.9211V28.9285V28.9359V28.9432V28.9506V28.958V28.9653V28.9727V28.9801V28.9875V28.9948V29.0022V29.0096V29.0169V29.0243V29.0317V29.039V29.0464V29.0538V29.0612V29.0685V29.0759V29.0833V29.0906V29.098V29.1054V29.1128V29.1201V29.1275V29.1349V29.1422V29.1496V29.157V29.1643V29.1717V29.1791V29.1865V29.1938V29.2012V29.2086V29.2159V29.2233V29.2307V29.2381V29.2454V29.2528V29.2602V29.2675V29.2749V29.2823V29.2896V29.297V29.3044V29.3118V29.3191V29.3265V29.3339V29.3412V29.3486V29.356V29.3634V29.3707V29.3781V29.3855V29.3928V29.4002V29.4076V29.415V29.4223V29.4297V29.4371V29.4444V29.4518V29.4592V29.4665V29.4739V29.4813V29.4887V29.496V29.5034V29.5108V29.5181V29.5255V29.5329V29.5403V29.5476V29.555V29.5624V29.5697V29.5771V29.5845V29.5918V29.5992V29.6066V29.614V29.6213V29.6287V29.6361V29.6434V29.6508V29.6582V29.6656V29.6729V29.6803V29.6877V29.695V29.7024V29.7098V29.7171V29.7245V29.7319V29.7393V29.7466V29.754V29.7614V29.7687V29.7761V29.7835V29.7909V29.7982V29.8056V29.813V29.8203V29.8277V29.8351V29.8424V29.8498V29.8572V29.8646V29.8719V29.8793V29.8867V29.894V29.9014V29.9088V29.9162V29.9235V29.9309V29.9383V29.9456V29.953V29.9604V29.9677V29.9751V29.9825V29.9899V29.9972V30.0046V30.012V30.0193V30.0267V30.0341V30.0415V30.0488V30.0562V30.0636V30.0709V30.0783V30.0857V30.093V30.1004V30.1078C30.6185 30.2856 30.6183 30.4632 30.6181 30.6408C30.6177 30.9956 30.6173 31.3503 30.6185 31.705C30.6193 31.9295 30.6932 32.1077 30.8147 32.2295C30.9362 32.3512 31.1132 32.4246 31.3354 32.4246C31.4924 32.4246 31.6493 32.4248 31.8061 32.425C32.1197 32.4253 32.4332 32.4257 32.7477 32.4246M32.7477 32.4246C32.7478 32.4246 32.7479 32.4246 32.748 32.4246L32.7483 32.5246M32.7477 32.4246C32.7477 32.4246 32.7476 32.4246 32.7475 32.4246L32.7483 32.5246M32.7483 32.5246C32.4335 32.5257 32.1195 32.5253 31.8057 32.525C31.6489 32.5248 31.4922 32.5246 31.3354 32.5246C30.8456 32.5246 30.5202 32.199 30.5185 31.7054L33.5258 28.2591C33.5261 28.5173 33.5264 28.7756 33.5264 29.0339C33.5264 29.4839 33.5269 29.9344 33.5273 30.3851C33.5277 30.8363 33.5282 31.2876 33.5282 31.739C33.5282 32.1796 33.1922 32.521 32.7483 32.5246ZM15.3849 26.426C15.0702 26.9285 15.2647 27.5336 15.6944 27.8025C16.1991 28.1184 16.7045 28.4329 17.2098 28.7473L15.3849 26.426Z" fill="#00AE6C" stroke="#00AE6C" stroke-width="0.2"/>
<mask id="path-3-outside-1_1014_16" maskUnits="userSpaceOnUse" x="9" y="9.00049" width="24" height="15" fill="black">
<rect fill="white" x="9" y="9.00049" width="24" height="15"/>
<path d="M13.954 11.0815C14.1645 10.9576 14.3696 10.8462 14.5659 10.7223C14.8842 10.5189 15.2272 10.4198 15.6074 10.4198C17.3492 10.4233 19.0911 10.418 20.8329 10.4145C21.2414 10.4145 21.6481 10.4286 22.0424 10.5596C22.4739 10.7029 22.8576 10.9205 23.1901 11.2283C23.9629 11.9431 24.7356 12.6579 25.5013 13.3779C25.8232 13.6805 26.1291 13.999 26.4403 14.3121C26.504 14.3758 26.5694 14.4059 26.6631 14.4059C28.3324 14.4023 30.0018 14.4041 31.6729 14.4041C31.8497 14.4041 31.9346 14.489 31.9346 14.6677C31.9346 15.0853 31.931 15.5046 31.931 15.9221C31.931 17.288 31.9346 18.6538 31.9346 20.0196C31.9346 20.9113 31.9363 21.803 31.9328 22.6947C31.9328 22.762 31.9204 22.8363 31.8886 22.8946C31.8444 22.976 31.7595 22.992 31.6693 22.992C30.145 22.9902 28.6225 22.9902 27.0981 22.9902C23.7347 22.9902 20.3731 22.9884 17.0097 22.9937C16.817 22.9937 16.7162 22.8911 16.7162 22.7053C16.7215 21.0493 16.7179 19.3933 16.7179 17.7373C16.7179 17.686 16.7179 17.6329 16.7179 17.5693C16.2334 17.5887 15.756 17.5976 15.2856 17.4808C14.817 17.364 14.4014 17.1252 13.9558 16.9394C13.9469 17.0084 13.9416 17.0739 13.9293 17.1376C13.8373 17.594 13.4377 17.9319 12.9726 17.9355C12.3059 17.9408 11.6393 17.9408 10.9726 17.9355C10.4881 17.9319 10.0584 17.5498 10.0195 17.0686C9.99116 16.72 10.0071 16.3679 10.0035 16.0176C10 15.7699 10 15.5258 10 15.2799C10 13.9459 10 12.6119 10.0018 11.2779C10.0018 11.1116 10 10.9417 10.0336 10.7807C10.122 10.3632 10.4474 10.073 10.8683 10.0199C11.0009 10.004 11.1353 10.0023 11.2697 10.0005C11.8196 10.0005 12.3696 10.0005 12.9195 10.0005C13.4341 10.0005 13.8391 10.3331 13.9363 10.8373C13.9505 10.9116 13.9469 10.9895 13.954 11.0815ZM25.8621 14.4059C25.8338 14.374 25.8196 14.3599 25.8055 14.3457C25.4607 14.0113 25.1211 13.6734 24.7728 13.3461C24.1185 12.7322 23.466 12.1165 22.7975 11.5167C22.3678 11.131 21.8515 10.9258 21.2714 10.8975C21.0363 10.8851 20.7993 10.8904 20.5623 10.8886C19.7241 10.8869 18.8859 10.8851 18.046 10.8851C17.2184 10.8833 16.3926 10.8816 15.565 10.8798C15.3475 10.8798 15.1441 10.9346 14.9567 11.0426C14.6454 11.2213 14.3378 11.4053 14.0265 11.5839C13.9699 11.6158 13.9469 11.6512 13.9469 11.7202C13.9487 12.8083 13.9487 13.8963 13.9487 14.9844C13.9487 15.432 13.9487 15.8796 13.9505 16.3273C13.9505 16.3609 13.9664 16.4157 13.9894 16.4263C14.3784 16.605 14.7657 16.789 15.1636 16.9483C15.6233 17.1323 16.1114 17.1199 16.5977 17.104C16.6366 17.1022 16.6773 17.0986 16.7162 17.0969C16.7162 16.7023 16.7162 16.3166 16.7162 15.9274C16.2776 15.9345 15.8568 15.869 15.4465 15.6921C15.519 15.5488 15.588 15.4143 15.6569 15.2781C15.6799 15.2834 15.6958 15.287 15.7118 15.294C15.9947 15.4073 16.29 15.4568 16.5924 15.4568C17.1936 15.4568 17.7489 15.287 18.2582 14.9703C18.5818 14.7686 18.8453 14.5138 18.9531 14.1263C18.9973 13.9671 19.2166 13.9317 19.3351 14.052C19.3828 14.0998 19.4253 14.1511 19.4695 14.2024C20.0531 14.8676 20.6348 15.5346 21.2184 16.1999C21.5367 16.5626 21.8568 16.9235 22.1751 17.2844C22.3006 17.4277 22.4474 17.5392 22.626 17.6099C23.0628 17.7833 23.5279 17.6259 23.7347 17.2313C23.9151 16.8881 23.8179 16.3839 23.5261 16.1008C23.4023 15.9805 23.2962 15.8443 23.183 15.7151C22.3395 14.7597 21.496 13.8061 20.6508 12.8507C20.5429 12.7286 20.4315 12.6066 20.3254 12.4827C20.2458 12.3889 20.2458 12.2775 20.3165 12.1855C20.3837 12.097 20.5004 12.0563 20.5959 12.1147C20.6667 12.1572 20.725 12.2244 20.7798 12.2863C21.3846 12.9693 21.9894 13.6522 22.5906 14.3369C22.6348 14.3882 22.6808 14.4059 22.748 14.4059C23.5172 14.4041 24.2865 14.4041 25.0557 14.4059C25.3156 14.4059 25.5774 14.4059 25.8621 14.4059ZM17.1901 22.5143C21.9558 22.5143 26.7073 22.5143 31.4642 22.5143C31.4642 19.9648 31.4642 17.4224 31.4642 14.873C28.6649 14.873 25.8744 14.873 23.0663 14.873C23.2962 15.1313 23.5119 15.3754 23.7312 15.6178C23.756 15.6461 23.8037 15.6673 23.8408 15.6673C24.0548 15.6726 24.267 15.6691 24.481 15.6691C25.6039 15.6691 26.7268 15.6691 27.8497 15.6691C28.1786 15.6691 28.3979 15.9345 28.3607 16.26C28.3448 16.3963 28.3501 16.5431 28.3802 16.6776C28.5146 17.3039 29.0274 17.7179 29.6676 17.7338C30.092 17.7426 30.405 18.0416 30.4103 18.4486C30.4138 18.691 30.4138 18.9351 30.4103 19.1775C30.405 19.5136 30.1804 19.802 29.8532 19.8746C29.7241 19.9029 29.5862 19.8976 29.4536 19.917C28.8347 20.0108 28.3537 20.5663 28.3501 21.1909C28.3484 21.5164 28.1362 21.7269 27.809 21.7269C25.5332 21.7269 23.2591 21.7234 20.9832 21.7305C20.6578 21.7305 20.4297 21.4704 20.4315 21.182C20.4368 20.7238 20.2317 20.3611 19.8603 20.0975C19.6004 19.9117 19.305 19.8586 18.9885 19.8657C18.5977 19.8746 18.2546 19.5437 18.244 19.1527C18.237 18.928 18.2387 18.7016 18.2423 18.4769C18.2511 18.0788 18.5553 17.7621 18.9549 17.7409C19.1706 17.7303 19.3775 17.6896 19.5632 17.5746C20.046 17.2756 20.3413 16.8439 20.4492 16.2883C20.4686 16.1875 20.4987 16.0796 20.4032 15.9769C20.1786 15.7381 19.9682 15.4886 19.7507 15.2427C19.5809 15.0499 19.4111 14.857 19.2396 14.6624C19.1919 14.7279 19.153 14.788 19.107 14.8464C19.0592 14.9066 19.0115 14.965 18.9567 15.018C18.4828 15.4798 17.901 15.724 17.2661 15.8619C17.2007 15.8761 17.1883 15.9009 17.1883 15.9593C17.1901 16.3573 17.1901 16.7554 17.1901 17.1517C17.1883 17.9744 17.1848 18.7953 17.1848 19.618C17.1848 20.4637 17.1883 21.3094 17.1901 22.1533C17.1901 22.2701 17.1901 22.3904 17.1901 22.5143ZM20.9036 16.5537C20.8064 16.7607 20.7286 16.973 20.6136 17.1641C20.3413 17.6223 19.9664 17.9709 19.4483 18.1336C19.2927 18.1832 19.1229 18.1867 18.9584 18.2133C18.8152 18.2363 18.7179 18.3353 18.7144 18.4804C18.7073 18.691 18.7056 18.9015 18.7126 19.112C18.7179 19.2854 18.8417 19.3916 19.015 19.3951C19.1459 19.3986 19.2803 19.3951 19.4076 19.4181C20.3183 19.5756 20.87 20.3434 20.8966 21.0546C20.9036 21.2563 20.9142 21.2546 21.1176 21.2546C22.6295 21.2546 24.1415 21.2546 25.6534 21.2546C25.756 21.2546 25.8585 21.2581 25.9593 21.2581C26.2511 21.2581 26.5429 21.2563 26.8347 21.2546C27.1583 21.2546 27.4836 21.2528 27.8072 21.2546C27.8568 21.2546 27.8727 21.2386 27.8744 21.1891C27.8762 21.1042 27.8798 21.0193 27.8939 20.9361C28.0301 20.0763 28.7781 19.434 29.6463 19.4287C29.8249 19.427 29.9363 19.3208 29.9381 19.1403C29.9399 18.9263 29.9416 18.714 29.9381 18.4999C29.9363 18.3176 29.8338 18.2133 29.6516 18.2044C29.5791 18.2009 29.5049 18.2044 29.4324 18.1938C28.962 18.1266 28.5729 17.909 28.2723 17.5392C27.9717 17.1712 27.8479 16.7466 27.8762 16.2759C27.8851 16.145 27.8904 16.145 27.7577 16.145C27.1052 16.145 26.4545 16.145 25.8019 16.145C25.2732 16.145 24.7427 16.145 24.214 16.145C24.1874 16.145 24.1592 16.1468 24.1538 16.1486C24.2104 16.3856 24.2653 16.6192 24.3218 16.8563C25.4447 16.8315 26.3148 17.9036 26.1344 18.997C25.9841 19.9064 25.1636 20.623 24.145 20.531C23.6375 20.485 23.2113 20.2585 22.8912 19.8586C22.4721 19.3332 22.389 18.7405 22.5747 18.0965C22.2989 18.0151 22.0672 17.8736 21.8762 17.6683C21.6852 17.4631 21.5049 17.2473 21.3192 17.0367C21.183 16.8722 21.038 16.7076 20.9036 16.5537ZM13.4819 13.9441C13.4819 13.5 13.4819 13.0559 13.4819 12.6101C13.4819 12.1625 13.4872 11.7149 13.4801 11.2673C13.473 10.7949 13.1441 10.4729 12.6755 10.4729C12.2087 10.4729 11.7401 10.4711 11.2732 10.4729C10.8064 10.4746 10.4704 10.8108 10.4704 11.2743C10.4704 11.637 10.4704 11.9997 10.4704 12.3624C10.4704 13.8061 10.4704 15.2516 10.4704 16.6953C10.4704 17.0969 10.7816 17.4454 11.1777 17.4578C11.6941 17.4737 12.2122 17.4773 12.7286 17.4613C13.1883 17.4472 13.4801 17.1146 13.4801 16.6528C13.4801 15.7505 13.4819 14.8482 13.4819 13.9441ZM25.6923 18.6768C25.6852 18.6166 25.6799 18.5282 25.6658 18.4433C25.5579 17.7957 24.9142 17.288 24.2617 17.334C24.2175 17.3375 24.1998 17.3534 24.1804 17.3923C23.9717 17.8187 23.6322 18.0753 23.1618 18.1407C23.0858 18.1513 23.0575 18.1814 23.0363 18.2433C22.962 18.445 22.9425 18.6556 22.9691 18.8643C23.0628 19.6233 23.7683 20.1736 24.5482 20.0444C25.1936 19.9365 25.6923 19.3615 25.6923 18.6768Z"/>
</mask>
<path d="M13.954 11.0815C14.1645 10.9576 14.3696 10.8462 14.5659 10.7223C14.8842 10.5189 15.2272 10.4198 15.6074 10.4198C17.3492 10.4233 19.0911 10.418 20.8329 10.4145C21.2414 10.4145 21.6481 10.4286 22.0424 10.5596C22.4739 10.7029 22.8576 10.9205 23.1901 11.2283C23.9629 11.9431 24.7356 12.6579 25.5013 13.3779C25.8232 13.6805 26.1291 13.999 26.4403 14.3121C26.504 14.3758 26.5694 14.4059 26.6631 14.4059C28.3324 14.4023 30.0018 14.4041 31.6729 14.4041C31.8497 14.4041 31.9346 14.489 31.9346 14.6677C31.9346 15.0853 31.931 15.5046 31.931 15.9221C31.931 17.288 31.9346 18.6538 31.9346 20.0196C31.9346 20.9113 31.9363 21.803 31.9328 22.6947C31.9328 22.762 31.9204 22.8363 31.8886 22.8946C31.8444 22.976 31.7595 22.992 31.6693 22.992C30.145 22.9902 28.6225 22.9902 27.0981 22.9902C23.7347 22.9902 20.3731 22.9884 17.0097 22.9937C16.817 22.9937 16.7162 22.8911 16.7162 22.7053C16.7215 21.0493 16.7179 19.3933 16.7179 17.7373C16.7179 17.686 16.7179 17.6329 16.7179 17.5693C16.2334 17.5887 15.756 17.5976 15.2856 17.4808C14.817 17.364 14.4014 17.1252 13.9558 16.9394C13.9469 17.0084 13.9416 17.0739 13.9293 17.1376C13.8373 17.594 13.4377 17.9319 12.9726 17.9355C12.3059 17.9408 11.6393 17.9408 10.9726 17.9355C10.4881 17.9319 10.0584 17.5498 10.0195 17.0686C9.99116 16.72 10.0071 16.3679 10.0035 16.0176C10 15.7699 10 15.5258 10 15.2799C10 13.9459 10 12.6119 10.0018 11.2779C10.0018 11.1116 10 10.9417 10.0336 10.7807C10.122 10.3632 10.4474 10.073 10.8683 10.0199C11.0009 10.004 11.1353 10.0023 11.2697 10.0005C11.8196 10.0005 12.3696 10.0005 12.9195 10.0005C13.4341 10.0005 13.8391 10.3331 13.9363 10.8373C13.9505 10.9116 13.9469 10.9895 13.954 11.0815ZM25.8621 14.4059C25.8338 14.374 25.8196 14.3599 25.8055 14.3457C25.4607 14.0113 25.1211 13.6734 24.7728 13.3461C24.1185 12.7322 23.466 12.1165 22.7975 11.5167C22.3678 11.131 21.8515 10.9258 21.2714 10.8975C21.0363 10.8851 20.7993 10.8904 20.5623 10.8886C19.7241 10.8869 18.8859 10.8851 18.046 10.8851C17.2184 10.8833 16.3926 10.8816 15.565 10.8798C15.3475 10.8798 15.1441 10.9346 14.9567 11.0426C14.6454 11.2213 14.3378 11.4053 14.0265 11.5839C13.9699 11.6158 13.9469 11.6512 13.9469 11.7202C13.9487 12.8083 13.9487 13.8963 13.9487 14.9844C13.9487 15.432 13.9487 15.8796 13.9505 16.3273C13.9505 16.3609 13.9664 16.4157 13.9894 16.4263C14.3784 16.605 14.7657 16.789 15.1636 16.9483C15.6233 17.1323 16.1114 17.1199 16.5977 17.104C16.6366 17.1022 16.6773 17.0986 16.7162 17.0969C16.7162 16.7023 16.7162 16.3166 16.7162 15.9274C16.2776 15.9345 15.8568 15.869 15.4465 15.6921C15.519 15.5488 15.588 15.4143 15.6569 15.2781C15.6799 15.2834 15.6958 15.287 15.7118 15.294C15.9947 15.4073 16.29 15.4568 16.5924 15.4568C17.1936 15.4568 17.7489 15.287 18.2582 14.9703C18.5818 14.7686 18.8453 14.5138 18.9531 14.1263C18.9973 13.9671 19.2166 13.9317 19.3351 14.052C19.3828 14.0998 19.4253 14.1511 19.4695 14.2024C20.0531 14.8676 20.6348 15.5346 21.2184 16.1999C21.5367 16.5626 21.8568 16.9235 22.1751 17.2844C22.3006 17.4277 22.4474 17.5392 22.626 17.6099C23.0628 17.7833 23.5279 17.6259 23.7347 17.2313C23.9151 16.8881 23.8179 16.3839 23.5261 16.1008C23.4023 15.9805 23.2962 15.8443 23.183 15.7151C22.3395 14.7597 21.496 13.8061 20.6508 12.8507C20.5429 12.7286 20.4315 12.6066 20.3254 12.4827C20.2458 12.3889 20.2458 12.2775 20.3165 12.1855C20.3837 12.097 20.5004 12.0563 20.5959 12.1147C20.6667 12.1572 20.725 12.2244 20.7798 12.2863C21.3846 12.9693 21.9894 13.6522 22.5906 14.3369C22.6348 14.3882 22.6808 14.4059 22.748 14.4059C23.5172 14.4041 24.2865 14.4041 25.0557 14.4059C25.3156 14.4059 25.5774 14.4059 25.8621 14.4059ZM17.1901 22.5143C21.9558 22.5143 26.7073 22.5143 31.4642 22.5143C31.4642 19.9648 31.4642 17.4224 31.4642 14.873C28.6649 14.873 25.8744 14.873 23.0663 14.873C23.2962 15.1313 23.5119 15.3754 23.7312 15.6178C23.756 15.6461 23.8037 15.6673 23.8408 15.6673C24.0548 15.6726 24.267 15.6691 24.481 15.6691C25.6039 15.6691 26.7268 15.6691 27.8497 15.6691C28.1786 15.6691 28.3979 15.9345 28.3607 16.26C28.3448 16.3963 28.3501 16.5431 28.3802 16.6776C28.5146 17.3039 29.0274 17.7179 29.6676 17.7338C30.092 17.7426 30.405 18.0416 30.4103 18.4486C30.4138 18.691 30.4138 18.9351 30.4103 19.1775C30.405 19.5136 30.1804 19.802 29.8532 19.8746C29.7241 19.9029 29.5862 19.8976 29.4536 19.917C28.8347 20.0108 28.3537 20.5663 28.3501 21.1909C28.3484 21.5164 28.1362 21.7269 27.809 21.7269C25.5332 21.7269 23.2591 21.7234 20.9832 21.7305C20.6578 21.7305 20.4297 21.4704 20.4315 21.182C20.4368 20.7238 20.2317 20.3611 19.8603 20.0975C19.6004 19.9117 19.305 19.8586 18.9885 19.8657C18.5977 19.8746 18.2546 19.5437 18.244 19.1527C18.237 18.928 18.2387 18.7016 18.2423 18.4769C18.2511 18.0788 18.5553 17.7621 18.9549 17.7409C19.1706 17.7303 19.3775 17.6896 19.5632 17.5746C20.046 17.2756 20.3413 16.8439 20.4492 16.2883C20.4686 16.1875 20.4987 16.0796 20.4032 15.9769C20.1786 15.7381 19.9682 15.4886 19.7507 15.2427C19.5809 15.0499 19.4111 14.857 19.2396 14.6624C19.1919 14.7279 19.153 14.788 19.107 14.8464C19.0592 14.9066 19.0115 14.965 18.9567 15.018C18.4828 15.4798 17.901 15.724 17.2661 15.8619C17.2007 15.8761 17.1883 15.9009 17.1883 15.9593C17.1901 16.3573 17.1901 16.7554 17.1901 17.1517C17.1883 17.9744 17.1848 18.7953 17.1848 19.618C17.1848 20.4637 17.1883 21.3094 17.1901 22.1533C17.1901 22.2701 17.1901 22.3904 17.1901 22.5143ZM20.9036 16.5537C20.8064 16.7607 20.7286 16.973 20.6136 17.1641C20.3413 17.6223 19.9664 17.9709 19.4483 18.1336C19.2927 18.1832 19.1229 18.1867 18.9584 18.2133C18.8152 18.2363 18.7179 18.3353 18.7144 18.4804C18.7073 18.691 18.7056 18.9015 18.7126 19.112C18.7179 19.2854 18.8417 19.3916 19.015 19.3951C19.1459 19.3986 19.2803 19.3951 19.4076 19.4181C20.3183 19.5756 20.87 20.3434 20.8966 21.0546C20.9036 21.2563 20.9142 21.2546 21.1176 21.2546C22.6295 21.2546 24.1415 21.2546 25.6534 21.2546C25.756 21.2546 25.8585 21.2581 25.9593 21.2581C26.2511 21.2581 26.5429 21.2563 26.8347 21.2546C27.1583 21.2546 27.4836 21.2528 27.8072 21.2546C27.8568 21.2546 27.8727 21.2386 27.8744 21.1891C27.8762 21.1042 27.8798 21.0193 27.8939 20.9361C28.0301 20.0763 28.7781 19.434 29.6463 19.4287C29.8249 19.427 29.9363 19.3208 29.9381 19.1403C29.9399 18.9263 29.9416 18.714 29.9381 18.4999C29.9363 18.3176 29.8338 18.2133 29.6516 18.2044C29.5791 18.2009 29.5049 18.2044 29.4324 18.1938C28.962 18.1266 28.5729 17.909 28.2723 17.5392C27.9717 17.1712 27.8479 16.7466 27.8762 16.2759C27.8851 16.145 27.8904 16.145 27.7577 16.145C27.1052 16.145 26.4545 16.145 25.8019 16.145C25.2732 16.145 24.7427 16.145 24.214 16.145C24.1874 16.145 24.1592 16.1468 24.1538 16.1486C24.2104 16.3856 24.2653 16.6192 24.3218 16.8563C25.4447 16.8315 26.3148 17.9036 26.1344 18.997C25.9841 19.9064 25.1636 20.623 24.145 20.531C23.6375 20.485 23.2113 20.2585 22.8912 19.8586C22.4721 19.3332 22.389 18.7405 22.5747 18.0965C22.2989 18.0151 22.0672 17.8736 21.8762 17.6683C21.6852 17.4631 21.5049 17.2473 21.3192 17.0367C21.183 16.8722 21.038 16.7076 20.9036 16.5537ZM13.4819 13.9441C13.4819 13.5 13.4819 13.0559 13.4819 12.6101C13.4819 12.1625 13.4872 11.7149 13.4801 11.2673C13.473 10.7949 13.1441 10.4729 12.6755 10.4729C12.2087 10.4729 11.7401 10.4711 11.2732 10.4729C10.8064 10.4746 10.4704 10.8108 10.4704 11.2743C10.4704 11.637 10.4704 11.9997 10.4704 12.3624C10.4704 13.8061 10.4704 15.2516 10.4704 16.6953C10.4704 17.0969 10.7816 17.4454 11.1777 17.4578C11.6941 17.4737 12.2122 17.4773 12.7286 17.4613C13.1883 17.4472 13.4801 17.1146 13.4801 16.6528C13.4801 15.7505 13.4819 14.8482 13.4819 13.9441ZM25.6923 18.6768C25.6852 18.6166 25.6799 18.5282 25.6658 18.4433C25.5579 17.7957 24.9142 17.288 24.2617 17.334C24.2175 17.3375 24.1998 17.3534 24.1804 17.3923C23.9717 17.8187 23.6322 18.0753 23.1618 18.1407C23.0858 18.1513 23.0575 18.1814 23.0363 18.2433C22.962 18.445 22.9425 18.6556 22.9691 18.8643C23.0628 19.6233 23.7683 20.1736 24.5482 20.0444C25.1936 19.9365 25.6923 19.3615 25.6923 18.6768Z" fill="#00AE6C"/>
<path d="M13.954 11.0815C14.1645 10.9576 14.3696 10.8462 14.5659 10.7223C14.8842 10.5189 15.2272 10.4198 15.6074 10.4198C17.3492 10.4233 19.0911 10.418 20.8329 10.4145C21.2414 10.4145 21.6481 10.4286 22.0424 10.5596C22.4739 10.7029 22.8576 10.9205 23.1901 11.2283C23.9629 11.9431 24.7356 12.6579 25.5013 13.3779C25.8232 13.6805 26.1291 13.999 26.4403 14.3121C26.504 14.3758 26.5694 14.4059 26.6631 14.4059C28.3324 14.4023 30.0018 14.4041 31.6729 14.4041C31.8497 14.4041 31.9346 14.489 31.9346 14.6677C31.9346 15.0853 31.931 15.5046 31.931 15.9221C31.931 17.288 31.9346 18.6538 31.9346 20.0196C31.9346 20.9113 31.9363 21.803 31.9328 22.6947C31.9328 22.762 31.9204 22.8363 31.8886 22.8946C31.8444 22.976 31.7595 22.992 31.6693 22.992C30.145 22.9902 28.6225 22.9902 27.0981 22.9902C23.7347 22.9902 20.3731 22.9884 17.0097 22.9937C16.817 22.9937 16.7162 22.8911 16.7162 22.7053C16.7215 21.0493 16.7179 19.3933 16.7179 17.7373C16.7179 17.686 16.7179 17.6329 16.7179 17.5693C16.2334 17.5887 15.756 17.5976 15.2856 17.4808C14.817 17.364 14.4014 17.1252 13.9558 16.9394C13.9469 17.0084 13.9416 17.0739 13.9293 17.1376C13.8373 17.594 13.4377 17.9319 12.9726 17.9355C12.3059 17.9408 11.6393 17.9408 10.9726 17.9355C10.4881 17.9319 10.0584 17.5498 10.0195 17.0686C9.99116 16.72 10.0071 16.3679 10.0035 16.0176C10 15.7699 10 15.5258 10 15.2799C10 13.9459 10 12.6119 10.0018 11.2779C10.0018 11.1116 10 10.9417 10.0336 10.7807C10.122 10.3632 10.4474 10.073 10.8683 10.0199C11.0009 10.004 11.1353 10.0023 11.2697 10.0005C11.8196 10.0005 12.3696 10.0005 12.9195 10.0005C13.4341 10.0005 13.8391 10.3331 13.9363 10.8373C13.9505 10.9116 13.9469 10.9895 13.954 11.0815ZM25.8621 14.4059C25.8338 14.374 25.8196 14.3599 25.8055 14.3457C25.4607 14.0113 25.1211 13.6734 24.7728 13.3461C24.1185 12.7322 23.466 12.1165 22.7975 11.5167C22.3678 11.131 21.8515 10.9258 21.2714 10.8975C21.0363 10.8851 20.7993 10.8904 20.5623 10.8886C19.7241 10.8869 18.8859 10.8851 18.046 10.8851C17.2184 10.8833 16.3926 10.8816 15.565 10.8798C15.3475 10.8798 15.1441 10.9346 14.9567 11.0426C14.6454 11.2213 14.3378 11.4053 14.0265 11.5839C13.9699 11.6158 13.9469 11.6512 13.9469 11.7202C13.9487 12.8083 13.9487 13.8963 13.9487 14.9844C13.9487 15.432 13.9487 15.8796 13.9505 16.3273C13.9505 16.3609 13.9664 16.4157 13.9894 16.4263C14.3784 16.605 14.7657 16.789 15.1636 16.9483C15.6233 17.1323 16.1114 17.1199 16.5977 17.104C16.6366 17.1022 16.6773 17.0986 16.7162 17.0969C16.7162 16.7023 16.7162 16.3166 16.7162 15.9274C16.2776 15.9345 15.8568 15.869 15.4465 15.6921C15.519 15.5488 15.588 15.4143 15.6569 15.2781C15.6799 15.2834 15.6958 15.287 15.7118 15.294C15.9947 15.4073 16.29 15.4568 16.5924 15.4568C17.1936 15.4568 17.7489 15.287 18.2582 14.9703C18.5818 14.7686 18.8453 14.5138 18.9531 14.1263C18.9973 13.9671 19.2166 13.9317 19.3351 14.052C19.3828 14.0998 19.4253 14.1511 19.4695 14.2024C20.0531 14.8676 20.6348 15.5346 21.2184 16.1999C21.5367 16.5626 21.8568 16.9235 22.1751 17.2844C22.3006 17.4277 22.4474 17.5392 22.626 17.6099C23.0628 17.7833 23.5279 17.6259 23.7347 17.2313C23.9151 16.8881 23.8179 16.3839 23.5261 16.1008C23.4023 15.9805 23.2962 15.8443 23.183 15.7151C22.3395 14.7597 21.496 13.8061 20.6508 12.8507C20.5429 12.7286 20.4315 12.6066 20.3254 12.4827C20.2458 12.3889 20.2458 12.2775 20.3165 12.1855C20.3837 12.097 20.5004 12.0563 20.5959 12.1147C20.6667 12.1572 20.725 12.2244 20.7798 12.2863C21.3846 12.9693 21.9894 13.6522 22.5906 14.3369C22.6348 14.3882 22.6808 14.4059 22.748 14.4059C23.5172 14.4041 24.2865 14.4041 25.0557 14.4059C25.3156 14.4059 25.5774 14.4059 25.8621 14.4059ZM17.1901 22.5143C21.9558 22.5143 26.7073 22.5143 31.4642 22.5143C31.4642 19.9648 31.4642 17.4224 31.4642 14.873C28.6649 14.873 25.8744 14.873 23.0663 14.873C23.2962 15.1313 23.5119 15.3754 23.7312 15.6178C23.756 15.6461 23.8037 15.6673 23.8408 15.6673C24.0548 15.6726 24.267 15.6691 24.481 15.6691C25.6039 15.6691 26.7268 15.6691 27.8497 15.6691C28.1786 15.6691 28.3979 15.9345 28.3607 16.26C28.3448 16.3963 28.3501 16.5431 28.3802 16.6776C28.5146 17.3039 29.0274 17.7179 29.6676 17.7338C30.092 17.7426 30.405 18.0416 30.4103 18.4486C30.4138 18.691 30.4138 18.9351 30.4103 19.1775C30.405 19.5136 30.1804 19.802 29.8532 19.8746C29.7241 19.9029 29.5862 19.8976 29.4536 19.917C28.8347 20.0108 28.3537 20.5663 28.3501 21.1909C28.3484 21.5164 28.1362 21.7269 27.809 21.7269C25.5332 21.7269 23.2591 21.7234 20.9832 21.7305C20.6578 21.7305 20.4297 21.4704 20.4315 21.182C20.4368 20.7238 20.2317 20.3611 19.8603 20.0975C19.6004 19.9117 19.305 19.8586 18.9885 19.8657C18.5977 19.8746 18.2546 19.5437 18.244 19.1527C18.237 18.928 18.2387 18.7016 18.2423 18.4769C18.2511 18.0788 18.5553 17.7621 18.9549 17.7409C19.1706 17.7303 19.3775 17.6896 19.5632 17.5746C20.046 17.2756 20.3413 16.8439 20.4492 16.2883C20.4686 16.1875 20.4987 16.0796 20.4032 15.9769C20.1786 15.7381 19.9682 15.4886 19.7507 15.2427C19.5809 15.0499 19.4111 14.857 19.2396 14.6624C19.1919 14.7279 19.153 14.788 19.107 14.8464C19.0592 14.9066 19.0115 14.965 18.9567 15.018C18.4828 15.4798 17.901 15.724 17.2661 15.8619C17.2007 15.8761 17.1883 15.9009 17.1883 15.9593C17.1901 16.3573 17.1901 16.7554 17.1901 17.1517C17.1883 17.9744 17.1848 18.7953 17.1848 19.618C17.1848 20.4637 17.1883 21.3094 17.1901 22.1533C17.1901 22.2701 17.1901 22.3904 17.1901 22.5143ZM20.9036 16.5537C20.8064 16.7607 20.7286 16.973 20.6136 17.1641C20.3413 17.6223 19.9664 17.9709 19.4483 18.1336C19.2927 18.1832 19.1229 18.1867 18.9584 18.2133C18.8152 18.2363 18.7179 18.3353 18.7144 18.4804C18.7073 18.691 18.7056 18.9015 18.7126 19.112C18.7179 19.2854 18.8417 19.3916 19.015 19.3951C19.1459 19.3986 19.2803 19.3951 19.4076 19.4181C20.3183 19.5756 20.87 20.3434 20.8966 21.0546C20.9036 21.2563 20.9142 21.2546 21.1176 21.2546C22.6295 21.2546 24.1415 21.2546 25.6534 21.2546C25.756 21.2546 25.8585 21.2581 25.9593 21.2581C26.2511 21.2581 26.5429 21.2563 26.8347 21.2546C27.1583 21.2546 27.4836 21.2528 27.8072 21.2546C27.8568 21.2546 27.8727 21.2386 27.8744 21.1891C27.8762 21.1042 27.8798 21.0193 27.8939 20.9361C28.0301 20.0763 28.7781 19.434 29.6463 19.4287C29.8249 19.427 29.9363 19.3208 29.9381 19.1403C29.9399 18.9263 29.9416 18.714 29.9381 18.4999C29.9363 18.3176 29.8338 18.2133 29.6516 18.2044C29.5791 18.2009 29.5049 18.2044 29.4324 18.1938C28.962 18.1266 28.5729 17.909 28.2723 17.5392C27.9717 17.1712 27.8479 16.7466 27.8762 16.2759C27.8851 16.145 27.8904 16.145 27.7577 16.145C27.1052 16.145 26.4545 16.145 25.8019 16.145C25.2732 16.145 24.7427 16.145 24.214 16.145C24.1874 16.145 24.1592 16.1468 24.1538 16.1486C24.2104 16.3856 24.2653 16.6192 24.3218 16.8563C25.4447 16.8315 26.3148 17.9036 26.1344 18.997C25.9841 19.9064 25.1636 20.623 24.145 20.531C23.6375 20.485 23.2113 20.2585 22.8912 19.8586C22.4721 19.3332 22.389 18.7405 22.5747 18.0965C22.2989 18.0151 22.0672 17.8736 21.8762 17.6683C21.6852 17.4631 21.5049 17.2473 21.3192 17.0367C21.183 16.8722 21.038 16.7076 20.9036 16.5537ZM13.4819 13.9441C13.4819 13.5 13.4819 13.0559 13.4819 12.6101C13.4819 12.1625 13.4872 11.7149 13.4801 11.2673C13.473 10.7949 13.1441 10.4729 12.6755 10.4729C12.2087 10.4729 11.7401 10.4711 11.2732 10.4729C10.8064 10.4746 10.4704 10.8108 10.4704 11.2743C10.4704 11.637 10.4704 11.9997 10.4704 12.3624C10.4704 13.8061 10.4704 15.2516 10.4704 16.6953C10.4704 17.0969 10.7816 17.4454 11.1777 17.4578C11.6941 17.4737 12.2122 17.4773 12.7286 17.4613C13.1883 17.4472 13.4801 17.1146 13.4801 16.6528C13.4801 15.7505 13.4819 14.8482 13.4819 13.9441ZM25.6923 18.6768C25.6852 18.6166 25.6799 18.5282 25.6658 18.4433C25.5579 17.7957 24.9142 17.288 24.2617 17.334C24.2175 17.3375 24.1998 17.3534 24.1804 17.3923C23.9717 17.8187 23.6322 18.0753 23.1618 18.1407C23.0858 18.1513 23.0575 18.1814 23.0363 18.2433C22.962 18.445 22.9425 18.6556 22.9691 18.8643C23.0628 19.6233 23.7683 20.1736 24.5482 20.0444C25.1936 19.9365 25.6923 19.3615 25.6923 18.6768Z" stroke="#00AE6C" stroke-width="0.4" mask="url(#path-3-outside-1_1014_16)"/>
<path d="M10.96 16.0849C10.9565 15.4939 11.4428 15.0198 12.044 15.0552C12.5586 15.087 13.0255 15.5276 12.9972 16.1273C12.9724 16.6652 12.5091 17.1163 11.9291 17.0951C11.4021 17.0774 10.953 16.6192 10.96 16.0849ZM11.9786 16.6209C12.2881 16.6209 12.525 16.3803 12.525 16.0707C12.525 15.7682 12.281 15.5276 11.9786 15.5276C11.6745 15.5293 11.4216 15.7735 11.4251 16.0654C11.4304 16.3856 11.6674 16.6227 11.9786 16.6209Z" fill="#00AE6C"/>
</svg>
