<svg width="110" height="90" viewBox="0 0 110 90" fill="none" xmlns="http://www.w3.org/2000/svg">
<circle cx="51.7164" cy="42.6866" r="42.6866" fill="#F8F9FA"/>
<circle cx="98.5075" cy="10.6716" r="7.38806" fill="#FFD6D6"/>
<circle cx="15.597" cy="68.9552" r="7.38806" fill="#BAEEBA"/>
<circle cx="105.896" cy="28.7313" r="4.10448" fill="#F9FABF"/>
<circle cx="4.10448" cy="24.6269" r="4.10448" fill="#F9FABF"/>
<circle cx="27.0896" cy="85.3731" r="4.10448" fill="#F9FABF"/>
<g clip-path="url(#clip0_1_2)">
<path d="M76.5541 29.9055L75.9158 30.2797L75.5933 30.4634C75.4857 30.5247 75.3849 30.5927 75.2774 30.6607L74.0209 31.4568C70.7015 33.6273 67.5635 36.1312 64.6137 38.8664C63.1422 40.234 61.7109 41.656 60.32 43.1257C58.9358 44.6022 57.5986 46.1126 56.3018 47.6708C55.0049 49.2289 53.7551 50.821 52.5591 52.4472L52.1156 53.0595L51.8938 53.3657L51.5175 53.9032L51.1211 54.468L50.9262 54.7469C50.859 54.8422 50.7986 54.9306 50.7179 55.0463L49.8377 56.3731C49.7638 56.482 49.6899 56.5976 49.6159 56.7133L49.4009 57.0671L48.9642 57.7679L48.0906 59.1968C47.5195 60.1289 46.9483 61.0679 46.3772 62C45.7792 60.4011 45.1811 58.7953 44.5831 57.1964L44.3614 56.5976C44.3278 56.4888 44.2874 56.4139 44.2471 56.3255L44.1329 56.0669L43.8977 55.543L43.7835 55.2844L43.723 55.1552L43.6961 55.0871L43.6625 55.0327L43.125 54.1278C43.0376 53.9781 42.9503 53.8284 42.8495 53.6855L42.6546 53.3997C41.9692 52.3995 41.1696 51.4266 40.3297 50.474C38.6364 48.5757 36.7281 46.7794 34.7593 45.1193C34.5376 44.9219 34.3696 44.7655 34.2486 44.643C34.1277 44.5205 34.0538 44.4253 34.0336 44.3708C33.9933 44.3028 34 44.262 34.0336 44.2415C34.0538 44.2347 34.0806 44.2279 34.1142 44.2347C34.1344 44.2415 34.1411 44.2347 34.1613 44.2347C34.1814 44.2347 34.2016 44.2415 34.2285 44.2483C34.6047 44.3232 35.4312 44.7382 36.2241 45.1941C35.6933 44.8947 35.9016 44.6362 35.364 44.3368C35.4648 44.2075 35.8411 44.2211 36.4324 44.4661C37.0237 44.711 37.8301 45.1805 38.7708 45.9766C38.3206 45.5615 37.8637 45.1465 37.3933 44.745C36.9969 44.2552 37.6083 44.4933 37.7494 44.3232C38.2198 44.7314 38.6767 45.1465 38.7506 45.0648C38.8245 44.9832 38.9724 44.8131 39.0463 44.7314C38.5826 44.3096 37.6352 43.4863 37.1514 43.0917C37.6352 43.4931 38.1056 43.9013 38.1795 43.8197C38.2534 43.738 38.3945 43.5679 38.4684 43.4795C38.9858 43.8537 39.557 44.398 40.1147 44.9628C40.6724 45.5207 41.2234 46.099 41.7072 46.5141L41.9424 46.2759C41.5325 45.7792 40.9613 45.2213 40.37 44.6838C39.7787 44.1463 39.1672 43.6428 38.6834 43.2277C39.2344 43.5611 39.3083 43.4795 39.4495 43.3094C40.2088 43.9081 40.874 44.6022 41.5459 45.2962C42.2179 45.9902 42.8898 46.6842 43.6693 47.2897C43.2325 46.8067 42.7823 46.3372 42.3321 45.8745C42.9839 46.1399 43.7969 46.9427 44.5831 47.9021C44.778 48.1402 44.9795 48.3852 45.1677 48.6369C45.2618 48.7594 45.3558 48.8887 45.4499 49.0112C45.544 49.1404 45.6313 49.2629 45.7254 49.3854C45.9068 49.6303 46.0815 49.8821 46.2495 50.1134C46.3369 50.2291 46.4175 50.3447 46.4981 50.4536C46.5385 50.508 46.5788 50.5625 46.6191 50.6169C46.6392 50.6441 46.6594 50.6713 46.6796 50.6985L46.693 50.719C46.6997 50.7258 46.7064 50.7326 46.7064 50.7326C46.9349 50.9435 47.0894 51.134 47.1902 51.3585L47.2104 51.3994C47.2104 51.413 47.2171 51.3994 47.2238 51.3926L47.2373 51.3653L47.291 51.2701C47.3246 51.2088 47.3649 51.1476 47.4053 51.0932C47.4456 51.0387 47.4792 50.9775 47.5195 50.9231L47.6472 50.7462C47.9428 50.3447 48.2385 49.9501 48.5408 49.5487C48.9642 48.9907 49.3942 48.4328 49.8242 47.8817C51.5511 45.6772 53.3318 43.5748 54.9445 41.5948C56.1539 40.1047 57.4441 38.6282 58.8283 37.2062C59.003 37.0293 59.171 36.8456 59.3457 36.6687L59.8765 36.1448C60.2326 35.7978 60.5888 35.444 60.9516 35.097C61.3212 34.7568 61.684 34.4166 62.0536 34.0764L62.3291 33.8178L62.6113 33.5661L63.1757 33.0694C63.9283 32.4026 64.7145 31.7698 65.4872 31.1302C65.877 30.8172 66.2801 30.5179 66.6766 30.2049C66.8782 30.0552 67.073 29.8987 67.2746 29.749C67.4762 29.5993 67.6778 29.4564 67.8861 29.3067C68.296 29.0142 68.6991 28.7284 69.1023 28.4358C69.5189 28.1569 69.9288 27.8847 70.3387 27.6057C70.547 27.4697 70.7485 27.3336 70.9568 27.1975C71.1651 27.0614 71.3734 26.939 71.5818 26.8097C71.9984 26.5511 72.415 26.2926 72.8316 26.0408C72.9391 26.2313 72.5628 26.8573 73.1675 26.6124C74.3636 26.1089 75.0154 25.9728 75.3917 26C75.768 26.0272 75.8755 26.2313 75.9763 26.4218C76.0703 26.6056 74.33 27.8371 74.9818 27.7146C74.9818 27.7146 75.4992 27.5173 75.8486 27.5037C76.5407 27.4901 75.6336 28.395 76.3257 28.3814C76.4601 28.3066 76.6213 28.2045 76.8095 28.1092C76.9976 28.014 77.1992 27.9051 77.4008 27.8031C77.8039 27.5921 78.2138 27.3812 78.4826 27.2383C79.1142 27.1635 78.4692 28.8101 79.0067 28.5311L76.5541 29.9055Z" fill="#2E3192"/>
</g>
<defs>
<clipPath id="clip0_1_2">
<rect width="45" height="36" fill="white" transform="translate(34 26)"/>
</clipPath>
</defs>
</svg>
