<svg width="148" height="93" viewBox="0 0 148 93" fill="none" xmlns="http://www.w3.org/2000/svg">
<path d="M119.891 92.1156C119.891 92.1156 127.865 92.1156 127.865 84.513C127.865 76.9105 119.891 54.103 87.998 54.103C56.1045 54.103 48.1312 76.9105 48.1312 84.513C48.1312 92.1156 56.1045 92.1156 56.1045 92.1156H119.891ZM56.2799 84.513C56.221 84.5053 56.1625 84.4952 56.1045 84.4826C56.1125 82.4756 57.4361 76.652 62.1643 71.4063C66.5656 66.4875 74.2997 61.7055 87.998 61.7055C101.688 61.7055 109.422 66.4951 113.832 71.4063C118.56 76.652 119.876 82.4832 119.891 84.4826L119.828 84.4978C119.791 84.5038 119.753 84.5089 119.716 84.513H56.2799ZM87.998 38.898C92.2273 38.898 96.2834 37.296 99.274 34.4445C102.265 31.593 103.945 27.7256 103.945 23.6929C103.945 19.6603 102.265 15.7929 99.274 12.9414C96.2834 10.0899 92.2273 8.48792 87.998 8.48792C83.7687 8.48792 79.7125 10.0899 76.7219 12.9414C73.7314 15.7929 72.0513 19.6603 72.0513 23.6929C72.0513 27.7256 73.7314 31.593 76.7219 34.4445C79.7125 37.296 83.7687 38.898 87.998 38.898ZM111.918 23.6929C111.918 26.6881 111.299 29.6539 110.097 32.421C108.895 35.1881 107.133 37.7024 104.912 39.8203C102.691 41.9382 100.054 43.6182 97.1518 44.7644C94.2497 45.9105 91.1392 46.5005 87.998 46.5005C84.8568 46.5005 81.7463 45.9105 78.8442 44.7644C75.942 43.6182 73.3051 41.9382 71.0839 39.8203C68.8627 37.7024 67.1008 35.1881 65.8987 32.421C64.6966 29.6539 64.0779 26.6881 64.0779 23.6929C64.0779 17.644 66.598 11.8428 71.0839 7.56558C75.5698 3.28834 81.654 0.885406 87.998 0.885406C94.342 0.885406 100.426 3.28834 104.912 7.56558C109.398 11.8428 111.918 17.644 111.918 23.6929ZM55.5942 56.2317C52.4047 55.2741 49.1169 54.6446 45.787 54.3539C43.9159 54.1842 42.0373 54.1005 40.1578 54.103C8.26432 54.103 0.290955 76.9105 0.290955 84.513C0.290955 89.5839 2.94609 92.1156 8.26432 92.1156H41.88C40.698 89.7422 40.1085 87.14 40.1578 84.513C40.1578 76.8345 43.1637 68.9887 48.8488 62.4353C50.7863 60.2002 53.0427 58.1095 55.5942 56.2317ZM39.5199 61.7055C34.8009 68.4662 32.2517 76.3922 32.1844 84.513H8.26432C8.26432 82.5364 9.57195 76.6825 14.3241 71.4063C18.6696 66.5711 26.2203 61.8576 39.5199 61.7131V61.7055ZM12.251 27.4942C12.251 21.4453 14.7712 15.6441 19.257 11.3668C23.7429 7.08959 29.8271 4.68666 36.1711 4.68666C42.5151 4.68666 48.5993 7.08959 53.0852 11.3668C57.5711 15.6441 60.0912 21.4453 60.0912 27.4942C60.0912 33.5431 57.5711 39.3443 53.0852 43.6216C48.5993 47.8988 42.5151 50.3017 36.1711 50.3017C29.8271 50.3017 23.7429 47.8988 19.257 43.6216C14.7712 39.3443 12.251 33.5431 12.251 27.4942ZM36.1711 12.2892C31.9418 12.2892 27.8857 13.8911 24.8951 16.7426C21.9045 19.5941 20.2244 23.4616 20.2244 27.4942C20.2244 31.5268 21.9045 35.3943 24.8951 38.2458C27.8857 41.0973 31.9418 42.6992 36.1711 42.6992C40.4004 42.6992 44.4566 41.0973 47.4471 38.2458C50.4377 35.3943 52.1178 31.5268 52.1178 27.4942C52.1178 23.4616 50.4377 19.5941 47.4471 16.7426C44.4566 13.8911 40.4004 12.2892 36.1711 12.2892Z" fill="url(#paint0_linear_1012_5)"/>
<path d="M114.549 62.6419L127.88 49.4377L141.295 62.5556C141.914 63.1608 142.699 63.4528 143.61 63.4498C144.52 63.4469 145.303 63.1498 145.918 62.5407C146.533 61.931 146.833 61.1545 146.83 60.2519C146.827 59.3494 146.523 58.5748 145.903 57.9691L132.499 44.8623L145.818 31.6694C146.434 31.0597 146.733 30.2831 146.731 29.3806C146.728 28.478 146.423 27.7034 145.804 27.0977C145.185 26.4926 144.4 26.2006 143.489 26.2035C142.579 26.2065 141.796 26.5035 141.181 27.1126L127.85 40.3168L114.434 27.1989C113.815 26.5937 113.03 26.3017 112.12 26.3047C111.21 26.3076 110.427 26.6046 109.812 27.2138C109.196 27.8235 108.897 28.6 108.9 29.5026C108.903 30.4051 109.207 31.1797 109.826 31.7854L123.231 44.8922L109.911 58.0851C109.296 58.6948 108.996 59.4714 108.999 60.3739C109.002 61.2764 109.307 62.0511 109.926 62.6568C110.545 63.2619 111.33 63.5539 112.24 63.551C113.15 63.548 113.934 63.251 114.549 62.6419Z" fill="url(#paint1_linear_1012_5)" stroke="white"/>
<defs>
<linearGradient id="paint0_linear_1012_5" x1="64.0779" y1="0.885406" x2="64.0779" y2="92.1156" gradientUnits="userSpaceOnUse">
<stop stop-color="#2E3192"/>
<stop offset="1" stop-color="#1AC1B0"/>
</linearGradient>
<linearGradient id="paint1_linear_1012_5" x1="113.016" y1="63.0485" x2="155.915" y2="41.2791" gradientUnits="userSpaceOnUse">
<stop stop-color="#2E3192"/>
<stop offset="1" stop-color="#1AC1B0"/>
</linearGradient>
</defs>
</svg>
