<svg width="14" height="17" viewBox="0 0 19 23" fill="none" xmlns="http://www.w3.org/2000/svg">
<path d="M9.08329 9.08322C11.5925 9.08322 13.6249 7.05085 13.6249 4.54161C13.6249 2.03237 11.5925 0 9.08329 0C6.57405 0 4.54168 2.03237 4.54168 4.54161C4.54168 7.05085 6.57405 9.08322 9.08329 9.08322ZM9.08329 2.2708C10.3322 2.2708 11.3541 3.29267 11.3541 4.54161C11.3541 5.79055 10.3322 6.81241 9.08329 6.81241C7.83435 6.81241 6.81248 5.79055 6.81248 4.54161C6.81248 3.29267 7.83435 2.2708 9.08329 2.2708ZM16.3385 11.9898C14.431 11.0134 11.9559 10.2186 9.08329 10.2186C6.21072 10.2186 3.73555 11.0134 1.82807 11.9898C1.27406 12.2752 0.809957 12.7085 0.487274 13.2416C0.164591 13.7747 -0.00404812 14.3869 7.37901e-05 15.01V22.708H2.27088V15.01C2.27088 14.5786 2.49796 14.1925 2.83858 14.0109C4.21241 13.3183 6.39239 12.4894 9.08329 12.4894C9.94619 12.4894 10.7523 12.5689 11.5017 12.7165L9.74182 16.4633H6.52863C4.80282 16.4633 3.40628 17.8599 3.40628 19.5857C3.40628 21.3115 4.80282 22.708 6.52863 22.708H15.8957C17.1446 22.708 18.1665 21.6862 18.1665 20.4372V15.01C18.1665 13.7384 17.4739 12.5689 16.3385 11.9898ZM7.87976 20.4372H6.52863C6.06312 20.4372 5.67708 20.0512 5.67708 19.5857C5.67708 19.1202 6.06312 18.7341 6.52863 18.7341H8.67454L7.87976 20.4372ZM15.8957 20.4372H10.389L13.7271 13.3183C14.3402 13.5453 14.8738 13.7838 15.328 14.0109C15.6686 14.1925 15.8957 14.5786 15.8957 15.01V20.4372Z" fill="black"/>
</svg>
