<svg width="13" height="12" viewBox="0 0 13 12" fill="none" xmlns="http://www.w3.org/2000/svg">
<path d="M12.3348 5.85023C12.3311 5.75244 12.301 5.65768 12.2481 5.57707C12.1952 5.49646 12.1217 5.43337 12.0363 5.3952L1.54431 0.670161C1.45284 0.630526 1.35227 0.621172 1.25596 0.643341C1.15964 0.665509 1.07213 0.718151 1.00506 0.794275C0.937994 0.870399 0.894533 0.966402 0.880453 1.06953C0.866373 1.17266 0.88234 1.27804 0.926234 1.37167L2.30682 4.44923C2.64044 5.19293 3.36056 5.65671 4.13763 5.62834L6.73619 5.53345C7.00361 5.52368 7.22872 5.74495 7.23892 6.02761V6.02761C7.24912 6.31043 7.04029 6.54745 6.77268 6.55678L4.16269 6.64774C3.38454 6.67486 2.6986 7.19011 2.4195 7.95717L1.2676 11.123C1.23254 11.2188 1.22557 11.3237 1.24759 11.4241C1.26961 11.5244 1.31961 11.6157 1.39112 11.6859C1.46458 11.7553 1.5561 11.7997 1.65363 11.8132C1.75116 11.8267 1.85011 11.8086 1.93745 11.7614L12.0627 6.31788C12.1454 6.27543 12.215 6.20894 12.2632 6.12614C12.3114 6.04334 12.3362 5.94765 12.3348 5.85023Z" fill="white"/>
</svg>
