<svg width="47" height="47" viewBox="0 0 47 47" fill="none" xmlns="http://www.w3.org/2000/svg">
<circle cx="23.5" cy="23.5005" r="23.5" fill="white"/>
<path d="M22.8996 15.5922C23.0788 15.672 23.2306 15.8 23.3372 15.9609C23.4437 16.1219 23.5003 16.3091 23.5005 16.5003V30.5013C23.5 30.6924 23.4432 30.8794 23.3368 31.0401C23.2303 31.2009 23.0787 31.3288 22.8997 31.4087C22.7207 31.4886 22.5219 31.5172 22.3267 31.4911C22.1316 31.465 21.9481 31.3853 21.7982 31.2614L17.2742 27.5011H14.9064C14.2682 27.5011 13.6561 27.2553 13.2048 26.8176C12.7535 26.38 12.5 25.7865 12.5 25.1676V21.834C12.5 20.5459 13.578 19.5005 14.9064 19.5005H17.2756L21.7982 15.7402C21.948 15.6161 22.1313 15.5362 22.3265 15.51C22.5217 15.4837 22.7206 15.5123 22.8996 15.5922ZM21.4379 18.6738L18.3275 21.2593C18.1408 21.4151 17.9027 21.5007 17.6565 21.5007H14.9064C14.8152 21.5007 14.7277 21.5358 14.6633 21.5983C14.5988 21.6608 14.5626 21.7456 14.5626 21.834V25.1676C14.5626 25.3516 14.7166 25.501 14.9064 25.501H17.6565C17.9026 25.501 18.1405 25.5863 18.3275 25.741L21.4379 28.3278V18.6738ZM29.8203 15.9563C30.0136 15.769 30.2758 15.6638 30.549 15.6638C30.8223 15.6638 31.0845 15.769 31.2778 15.9563C32.2994 16.9468 33.1097 18.1228 33.6626 19.4171C34.2154 20.7114 34.5 22.0986 34.5 23.4995C34.5 24.9004 34.2154 26.2876 33.6626 27.5819C33.1097 28.8761 32.2994 30.0521 31.2778 31.0427C31.0822 31.2193 30.8236 31.3154 30.5564 31.3109C30.2892 31.3065 30.0342 31.2017 29.845 31.0187C29.6563 30.8352 29.5483 30.5879 29.5437 30.3288C29.5391 30.0697 29.6382 29.819 29.8203 29.6293C30.6504 28.8244 31.3088 27.8689 31.7581 26.8173C32.2073 25.7656 32.4385 24.6385 32.4385 23.5001C32.4385 22.3618 32.2073 21.2347 31.7581 20.183C31.3088 19.1314 30.6504 18.1759 29.8203 17.371C29.6271 17.1835 29.5187 16.9293 29.5187 16.6643C29.5187 16.3993 29.6271 16.1438 29.8203 15.9563ZM28.3627 18.7845L28.3613 18.7858C29.6502 20.0361 30.3743 21.7316 30.3743 23.4995C30.3743 25.2674 29.6502 26.9629 28.3613 28.2132C28.2353 28.3448 28.0749 28.441 27.8972 28.4917C27.7195 28.5424 27.531 28.5457 27.3515 28.5012C27.172 28.4567 27.0082 28.3661 26.8774 28.2389C26.7466 28.1117 26.6535 27.9526 26.6081 27.7785C26.5622 27.6046 26.5654 27.422 26.6174 27.2497C26.6694 27.0775 26.7683 26.9221 26.9038 26.7997C27.3507 26.3663 27.7053 25.8518 27.9472 25.2856C28.189 24.7193 28.3135 24.1124 28.3135 23.4995C28.3135 22.8866 28.189 22.2796 27.9472 21.7134C27.7053 21.1471 27.3507 20.6326 26.9038 20.1992C26.7103 20.0116 26.6016 19.7572 26.6016 19.4919C26.6016 19.2265 26.7103 18.9721 26.9038 18.7845C27.0972 18.5969 27.3596 18.4915 27.6332 18.4915C27.9068 18.4915 28.1692 18.5969 28.3627 18.7845Z" fill="black"/>
</svg>
