<svg width="9" height="5" viewBox="0 0 9 5" fill="none" xmlns="http://www.w3.org/2000/svg">
<path d="M8.34169 1.29263L4.79551 4.39862C4.7533 4.43548 4.70756 4.46154 4.65831 4.47677C4.60906 4.49226 4.55629 4.5 4.5 4.5C4.44371 4.5 4.39094 4.49226 4.34169 4.47677C4.29244 4.46154 4.2467 4.43548 4.20449 4.39862L0.647757 1.29263C0.549252 1.20661 0.5 1.09908 0.5 0.970046C0.5 0.841014 0.55277 0.730415 0.658311 0.638249C0.763852 0.546083 0.886983 0.5 1.0277 0.5C1.16843 0.5 1.29156 0.546083 1.3971 0.638249L4.5 3.34793L7.6029 0.638249C7.70141 0.552227 7.82271 0.509217 7.96681 0.509217C8.11119 0.509217 8.23615 0.5553 8.34169 0.647465C8.44723 0.739631 8.5 0.847158 8.5 0.970046C8.5 1.09293 8.44723 1.20046 8.34169 1.29263Z" fill="white" stroke="white" stroke-width="0.5"/>
</svg>
