<svg width="23" height="20" viewBox="0 0 23 20" fill="none" xmlns="http://www.w3.org/2000/svg">
<path opacity="0.2" d="M19.9898 2.87104C19.2045 2.03537 17.7879 1.98412 16.844 2.90558L7.59813 11.9308C7.35842 12.1647 7.35842 12.4611 7.59813 12.6951C7.83784 12.9291 8.14146 12.9291 8.38117 12.6951L16.029 5.22984C16.2442 5.02688 16.5326 4.91457 16.8319 4.91711C17.1311 4.91965 17.4174 5.03683 17.6291 5.24341C17.8407 5.45 17.9608 5.72946 17.9634 6.0216C17.966 6.31375 17.8509 6.5952 17.643 6.80535L9.9952 14.2706C9.73456 14.5324 9.42278 14.7405 9.07829 14.8826C8.73381 15.0247 8.36363 15.098 7.98965 15.098C7.61567 15.098 7.24549 15.0247 6.90101 14.8826C6.55652 14.7405 6.24474 14.5324 5.9841 14.2706C5.71591 14.0162 5.50271 13.7119 5.35713 13.3756C5.21155 13.0393 5.13653 12.678 5.13653 12.3129C5.13653 11.9479 5.21155 11.5865 5.35713 11.2503C5.50271 10.914 5.71591 10.6097 5.9841 10.3552L15.2299 1.33007C17.0186 -0.417023 19.927 -0.473848 21.6564 1.34679C23.4279 3.095 23.4793 5.91954 21.6221 7.6009L10.7942 18.1704C8.29442 20.6105 4.37465 20.6105 1.87485 18.1704C-0.624949 15.7302 -0.624949 11.904 1.87485 9.46387L11.1207 0.438697C11.336 0.235733 11.6243 0.123426 11.9236 0.125965C12.2229 0.128503 12.5092 0.245685 12.7208 0.45227C12.9324 0.658855 13.0525 0.938315 13.0551 1.23046C13.0577 1.5226 12.9426 1.80406 12.7347 2.0142L3.48887 11.0394C1.87941 12.6104 1.87941 15.0238 3.48887 16.5949C5.09833 18.1659 7.57073 18.1659 9.18019 16.5949L20.0241 6.00979L20.0594 5.97637C20.9155 5.2109 20.9681 3.82704 20.0241 2.90558C20.0124 2.89429 20.001 2.88278 19.9898 2.87104Z" fill="black"/>
</svg>
