<svg width="375" height="288" viewBox="0 0 375 288" fill="none" xmlns="http://www.w3.org/2000/svg">
<g opacity="0.2">
<g clip-path="url(#clip0_22_1182)">
<path d="M-48.9487 42.9059C-46.9976 40.6651 -44.8767 38.6098 -42.7328 36.5864L-41.1089 35.0861C-40.5659 34.5877 -40.0104 34.1053 -39.4638 33.6123C-38.3707 32.6262 -37.2527 31.6684 -36.1383 30.707C-31.6718 26.874 -27.1027 23.17 -22.4929 19.5172C-17.8832 15.868 -13.2274 12.2753 -8.55217 8.71265C-3.87163 5.15531 0.833664 1.63155 5.55134 -1.87631C0.88496 1.6987 -3.76904 5.28961 -8.3965 8.91234C-13.0204 12.5404 -17.6214 16.1984 -22.1745 19.9113C-26.7277 23.6259 -31.2384 27.3918 -35.6377 31.2796C-36.7344 32.2533 -37.8347 33.2252 -38.9102 34.2219C-39.4497 34.7185 -39.9963 35.208 -40.527 35.7117L-42.119 37.2261C-44.2187 39.2655 -46.2954 41.3366 -48.1739 43.558L-48.9487 42.9059Z" fill="white"/>
<path d="M-48.9258 50.5454C-44.2346 45.3499 -39.0128 40.7358 -33.7255 36.2224C-28.4259 31.7214 -22.9989 27.3794 -17.5223 23.1046C-12.0423 18.8333 -6.50912 14.6327 -0.944134 10.4763C4.62439 6.32519 10.223 2.21295 15.8393 -1.87454C10.2743 2.2801 4.72699 6.45949 -0.790241 10.6778C-6.30393 14.9013 -11.784 19.1673 -17.2075 23.5022C-22.6292 27.8389 -27.9961 32.2445 -33.2303 36.7985C-38.4468 41.3614 -43.6014 46.0338 -48.1616 51.2116L-48.9258 50.5454Z" fill="white"/>
<path d="M-47.9229 57.1016L-45.855 54.9545L-45.3385 54.4173L-44.806 53.8977L-43.7412 52.8586L-42.6763 51.8195C-42.3243 51.4696 -41.9528 51.1427 -41.5902 50.8016L-39.4091 48.78C-38.675 48.1138 -37.9303 47.4617 -37.1909 46.8007C-36.4479 46.1451 -35.7156 45.4789 -34.9585 44.8392C-33.4514 43.5527 -31.9602 42.2485 -30.4301 40.992C-24.3486 35.9167 -18.1256 31.0198 -11.8424 26.206C-5.55572 21.3957 0.791122 16.6667 7.18219 11.9996C13.5733 7.33248 19.9997 2.71306 26.4474 -1.87631C20.0492 2.78198 13.6741 7.46855 7.33432 12.2028C0.994549 16.9371 -5.29923 21.7333 -11.5311 26.6071C-17.7594 31.4846 -23.9241 36.4433 -29.9384 41.5734C-31.4525 42.844 -32.926 44.1606 -34.4155 45.4594C-35.1637 46.1045 -35.8872 46.776 -36.6195 47.4387C-37.3483 48.1049 -38.086 48.7623 -38.8094 49.4338L-40.9587 51.4696C-41.3142 51.8107 -41.6804 52.1429 -42.0271 52.4928L-43.0743 53.5372L-44.1215 54.5816L-44.6451 55.103L-45.151 55.6402L-47.1764 57.7891L-47.9229 57.1016Z" fill="white"/>
<path d="M-48.8938 65.8439L-46.5323 63.3345L-45.9415 62.7072L-45.3312 62.101L-44.1089 60.8905L-42.8866 59.68L-42.5806 59.3778L-42.2675 59.0844L-41.6395 58.4977L-39.1259 56.1509C-38.2821 55.3751 -37.4189 54.6241 -36.5663 53.8589C-35.7066 53.1007 -34.8646 52.325 -33.9872 51.588L-31.3763 49.3561C-30.9394 48.985 -30.5095 48.6086 -30.0691 48.2428L-28.7459 47.1489C-21.7021 41.2977 -14.4726 35.6799 -7.16879 30.1698C0.140343 24.6632 7.52554 19.2592 14.9673 13.9382C22.4091 8.61369 29.8934 3.35102 37.4024 -1.87454C29.9411 3.41994 22.5082 8.75153 15.1195 14.145C7.7272 19.5349 0.396835 25.0043 -6.85746 30.5745C-14.1064 36.1499 -21.2758 41.8297 -28.2524 47.7338L-29.5632 48.8383C-30.0001 49.2059 -30.4264 49.5876 -30.858 49.9605L-33.4406 52.2118C-34.3091 52.9541 -35.1405 53.7352 -35.9896 54.4986C-36.8316 55.2691 -37.6878 56.0254 -38.5191 56.8065L-41.0009 59.1622L-41.62 59.7524L-41.9296 60.0475L-42.2303 60.3515L-43.4349 61.5656L-44.6396 62.7796L-45.241 63.3875L-45.8194 64.0149L-48.1367 66.5225L-48.8938 65.8439Z" fill="white"/>
<path d="M-48.9204 73.5364C-41.9049 65.9411 -34.1483 59.1215 -26.1917 52.5847C-18.2298 46.0497 -10.0504 39.7921 -1.78077 33.6635C6.49242 27.5384 14.8629 21.5477 23.2953 15.6453C31.7259 9.74115 40.206 3.91121 48.7163 -1.87631C40.2538 3.98013 31.8214 9.87899 23.4421 15.8521C15.061 21.8216 6.74183 27.8795 -1.47652 34.0682C-9.69133 40.2604 -17.8124 46.5798 -25.7053 53.1679C-33.591 59.7542 -41.2716 66.6268 -48.1651 74.2115L-48.9204 73.5364Z" fill="white"/>
<path d="M-48.9204 81.1954C-46.9339 79.119 -44.997 76.9931 -42.9079 75.0209L-41.3672 73.517L-40.5977 72.7642C-40.3377 72.5168 -40.0706 72.2782 -39.807 72.0343L-36.6353 69.1238C-35.5899 68.1412 -34.4914 67.217 -33.4142 66.2716L-30.1682 63.4494L-26.8639 60.6961L-25.2117 59.3195C-24.9358 59.0915 -24.6634 58.8582 -24.3839 58.6338L-23.5454 57.9605C-14.639 50.738 -5.47779 43.8442 3.78952 37.106C6.11563 35.4325 8.42937 33.7448 10.7643 32.0836L17.7763 27.1161L24.8254 22.2016C27.1763 20.5669 29.5448 18.9517 31.9028 17.3277C41.3558 10.8527 50.869 4.46434 60.4123 -1.87454C50.9168 4.53503 41.4514 10.9923 32.0496 17.5362C29.704 19.1797 27.3496 20.809 25.0094 22.4613L17.9974 27.4271L11.0244 32.4441C8.70355 34.1212 6.4022 35.8265 4.09024 37.5142C-5.12224 44.3178 -14.225 51.2735 -23.0625 58.5472L-23.8939 59.2258C-24.1698 59.452 -24.4405 59.687 -24.7147 59.9168L-26.3527 61.3022L-29.6305 64.075L-32.8463 66.913C-33.9148 67.8638 -35.0009 68.7933 -36.0357 69.7794L-39.1737 72.7006C-39.4338 72.9444 -39.6991 73.1848 -39.9556 73.434L-40.7162 74.1885L-42.2375 75.6959C-44.3018 77.6734 -46.2069 79.7976 -48.1651 81.874L-48.9204 81.1954Z" fill="white"/>
<path d="M-48.9399 88.8721C-46.8013 86.5464 -44.6026 84.2792 -42.3437 82.0755C-40.0759 79.8806 -37.7781 77.7194 -35.4237 75.6217C-30.729 71.4105 -25.8981 67.3584 -20.9823 63.4158C-11.149 55.5306 -1.01844 48.0342 9.23592 40.7199C19.4938 33.4073 29.8897 26.2961 40.351 19.2822C50.8123 12.27 61.3462 5.36915 71.9101 -1.48752C61.3922 5.43984 50.9043 12.4114 40.4943 19.496C30.0825 26.5789 19.7362 33.7589 9.5331 41.1352C-0.666428 48.5131 -10.7386 56.0732 -20.503 64.0096C-25.3852 67.9769 -30.1771 72.0538 -34.8276 76.2827C-37.1608 78.3891 -39.4356 80.5557 -41.6768 82.7558C-43.9092 84.9631 -46.0796 87.2303 -48.1864 89.5524L-48.9399 88.8721Z" fill="white"/>
<path d="M-48.938 96.5222C-44.2274 91.3991 -39.2125 86.5712 -34.0172 81.9624C-28.8255 77.3465 -23.4799 72.9091 -18.0387 68.5989C-7.14753 59.9857 4.08681 51.8266 15.4627 43.8814C26.8421 35.9396 38.3824 28.2312 49.99 20.6288C61.5976 13.0281 73.2883 5.55469 85.0055 -1.87631C73.3343 5.62715 61.6896 13.1712 50.1297 20.8408C38.5717 28.5122 27.0809 36.2895 15.7545 44.2966C4.43352 52.3073 -6.74421 60.53 -17.5646 69.1945C-22.9704 73.5311 -28.2771 77.9915 -33.4247 82.6233C-38.5775 87.2498 -43.5393 92.0866 -48.1862 97.2026L-48.938 96.5222Z" fill="white"/>
<path d="M-48.8816 104.109C-43.7394 98.5368 -38.2717 93.283 -32.5882 88.2836C-26.9117 83.2754 -21.0584 78.4757 -15.1007 73.8157C-9.14306 69.1538 -3.07394 64.6387 3.05533 60.2119C9.18813 55.7869 15.3846 51.4537 21.6271 47.1878C34.1156 38.6611 46.7757 30.3924 59.5136 22.2457C72.2515 14.1008 85.0761 6.09369 97.9254 -1.87277C85.1221 6.16438 72.3435 14.2439 59.6533 22.4578C46.9632 30.6734 34.3526 39.0128 21.9172 47.6048C15.7013 51.9026 9.53307 56.2675 3.43034 60.7244C-2.67063 65.1812 -8.70614 69.7264 -14.6284 74.413C-20.5508 79.0995 -26.3652 83.9222 -31.9956 88.9463C-37.6349 93.9616 -43.0513 99.2242 -48.128 104.789L-48.8816 104.109Z" fill="white"/>
<path d="M-48.9187 111.796L-46.8102 109.548C-46.4564 109.175 -46.1097 108.795 -45.7524 108.428L-44.6716 107.33C-43.9498 106.6 -43.2334 105.864 -42.5064 105.139L-40.297 102.992L-39.1897 101.921L-38.0647 100.871L-35.8129 98.77L-33.5239 96.7095C-32.7597 96.0238 -32.0026 95.3329 -31.2225 94.6649C-25.0455 89.2573 -18.6704 84.0865 -12.1767 79.073C0.819466 69.0549 14.2702 59.6517 27.8979 50.5312C41.5327 41.4161 55.3585 32.5961 69.2656 23.9086C83.1763 15.2247 97.1737 6.68391 111.191 -1.8233C97.2179 6.75637 83.2665 15.3696 69.4018 24.1225C55.5424 32.8806 41.7644 41.7696 28.1827 50.9501C14.6081 60.1377 1.2157 69.6027 -11.7079 79.6721C-18.1662 84.7103 -24.5025 89.9041 -30.6335 95.3276C-31.4083 95.9973 -32.1601 96.6901 -32.9172 97.3775L-35.1867 99.4416L-37.419 101.546L-38.5352 102.598L-39.6319 103.67L-41.8201 105.819C-42.5418 106.544 -43.2493 107.281 -43.964 108.011L-45.0342 109.108C-45.388 109.476 -45.7311 109.856 -46.0796 110.228L-48.1669 112.478L-48.9187 111.796Z" fill="white"/>
<path d="M-48.9963 119.524L-46.7162 117.094L-45.5735 115.882L-44.4025 114.696L-42.0604 112.328L-39.6671 110.013L-38.4696 108.855L-37.2508 107.723L-34.8097 105.459C-33.9942 104.708 -33.1558 103.978 -32.3314 103.238L-31.0897 102.13C-30.6775 101.758 -30.2618 101.391 -29.8391 101.032C-23.1402 95.211 -16.2167 89.6568 -9.16052 84.2845C4.96244 73.5489 19.5984 63.5166 34.4289 53.8041C49.2665 44.0988 64.3182 34.7256 79.4512 25.4939C94.5913 16.271 109.814 7.1894 125.05 -1.87448C109.859 7.26185 94.6779 16.4159 79.5856 25.713C64.4986 35.0172 49.4947 44.4593 34.7102 54.2318C19.9327 64.0114 5.35514 74.1055 -8.69529 84.8924C-15.7161 90.2894 -22.5989 95.8649 -29.2518 101.702C-29.671 102.062 -30.0832 102.432 -30.4936 102.803L-31.7265 103.913C-32.5455 104.655 -33.3769 105.386 -34.187 106.139L-36.6087 108.407L-37.8186 109.541L-39.0055 110.699L-41.3794 113.015L-43.6985 115.383L-44.8571 116.567L-45.9874 117.78L-48.2446 120.206L-48.9963 119.524Z" fill="white"/>
<path d="M-48.9187 127.08C-42.4357 120.061 -35.4909 113.492 -28.2755 107.251C-21.046 101.023 -13.5671 95.0961 -5.93776 89.3757C1.69331 83.6553 9.47297 78.1417 17.3481 72.7677C25.2233 67.3955 33.1923 62.1629 41.2213 57.0257C57.2813 46.7548 73.5729 36.8533 89.9459 27.0966C106.324 17.3471 122.787 7.7407 139.242 -1.87631C122.828 7.81315 106.409 17.492 90.075 27.314C73.7463 37.1413 57.5024 47.1135 41.4938 57.4515C33.4912 62.6223 25.5506 67.8868 17.7055 73.2908C9.86213 78.6948 2.11254 84.2367 -5.47962 89.9818C-13.0718 95.7287 -20.5118 101.675 -27.6936 107.919C-34.8612 114.175 -41.7511 120.752 -48.1687 127.761L-48.9187 127.08Z" fill="white"/>
<path d="M-48.793 134.582C-41.8447 127.07 -34.3781 120.061 -26.6285 113.402C-18.8595 106.761 -10.8039 100.468 -2.58908 94.3998C5.62927 88.3348 14.0139 82.4996 22.5011 76.8234C30.9901 71.1472 39.5817 65.6283 48.237 60.2154C65.5528 49.3914 83.1163 38.9757 100.761 28.7066C118.408 18.4392 136.136 8.30974 153.83 -1.87277C136.178 8.38396 118.493 18.5859 100.89 28.9257C83.2897 39.269 65.7722 49.7555 48.5076 60.6466C39.8771 66.0931 31.3138 71.6456 22.8549 77.3518C14.3978 83.0598 6.04496 88.9233 -2.13624 95.013C-10.3157 101.106 -18.3288 107.422 -26.0501 114.077C-33.7502 120.749 -41.1619 127.766 -48.043 135.268L-48.793 134.582Z" fill="white"/>
<path d="M-48.9187 142.358C-41.5087 134.335 -33.5292 126.865 -25.2312 119.785C-24.72 119.335 -24.1894 118.905 -23.6675 118.469L-22.095 117.163C-21.0442 116.293 -20.0024 115.415 -18.9445 114.555L-15.7499 112.001C-14.6832 111.153 -13.6272 110.289 -12.5429 109.465C-8.23734 106.12 -3.88759 102.831 0.525837 99.6324C9.34208 93.2176 18.3423 87.0642 27.4557 81.0858C36.5709 75.1092 45.7975 69.3076 55.0949 63.6226C73.6932 52.2578 92.5586 41.3401 111.497 30.5586C130.438 19.777 149.448 9.1244 168.393 -1.64658C149.491 9.19686 130.521 19.9237 111.626 30.7777C92.7302 41.6317 73.9108 52.6201 55.3638 64.0537C46.0929 69.7723 36.8928 75.6058 27.8077 81.6142C18.7244 87.6227 9.756 93.806 0.978676 100.246C-3.41529 103.458 -7.74559 106.758 -12.0299 110.114C-13.1107 110.941 -14.1596 111.807 -15.221 112.657L-18.398 115.217C-19.4505 116.08 -20.487 116.96 -21.5307 117.831L-23.0944 119.14C-23.6145 119.579 -24.1416 120.008 -24.6493 120.46C-32.9012 127.552 -40.8242 135.029 -48.1687 143.04L-48.9187 142.358Z" fill="white"/>
<path d="M-49 150.082C-41.0947 141.515 -32.5598 133.555 -23.6728 126.036L-22.8431 125.326C-22.5654 125.091 -22.2824 124.863 -22.0011 124.631L-20.3136 123.246L-16.9385 120.476L-13.5122 117.771L-11.7981 116.419C-11.225 115.97 -10.6589 115.512 -10.0769 115.078L-6.60103 112.438C-5.44062 111.559 -4.29083 110.669 -3.11097 109.815L0.407387 107.231L2.16568 105.94L3.94343 104.674C13.4053 97.8972 23.0724 91.4134 32.8616 85.124C42.6525 78.8364 52.5654 72.7449 62.5545 66.7806C82.5325 54.8539 102.801 43.4255 123.12 32.0997C143.441 20.7738 163.821 9.55572 184.084 -1.87265C163.862 9.62818 143.521 20.9205 123.242 32.3188C102.965 43.7171 82.7412 55.218 62.8127 67.2136C52.8502 73.2132 42.9638 79.3365 33.2029 85.6542C23.4439 91.9736 13.8104 98.4874 4.38566 105.289L2.61499 106.56L0.86377 107.855L-2.64045 110.448C-3.815 111.303 -4.95948 112.197 -6.11458 113.077L-9.57456 115.726C-10.1548 116.163 -10.7173 116.622 -11.2886 117.071L-12.9939 118.427L-16.4025 121.139L-19.7599 123.915L-21.4386 125.303C-21.7181 125.536 -22.0011 125.762 -22.2753 125.999L-23.0996 126.711C-31.9371 134.245 -40.4137 142.209 -48.2518 150.764L-49 150.082Z" fill="white"/>
<path d="M-48.9167 157.628C-40.5197 148.539 -31.4364 140.112 -21.9674 132.172C-21.3748 131.675 -20.7946 131.166 -20.1932 130.68L-18.3925 129.222L-14.791 126.305C-14.1948 125.813 -13.581 125.343 -12.9725 124.87L-11.1435 123.449L-7.4836 120.605L-3.77243 117.831L-1.91684 116.444C-1.29773 115.982 -0.683914 115.514 -0.054184 115.067L3.70475 112.358C4.96067 111.458 6.20244 110.539 7.47606 109.665C17.5765 102.547 27.8999 95.7552 38.3541 89.1796C48.8119 82.6039 59.4024 76.2473 70.0707 70.0251C91.409 57.5823 113.055 45.6839 134.726 33.8402C156.399 21.9983 178.11 10.2271 199.64 -1.87277C178.153 10.3013 156.48 22.1468 134.848 34.0611C113.22 45.979 91.616 57.9499 70.3272 70.4615C59.6836 76.7174 49.1197 83.1093 38.6938 89.715C28.2678 96.3225 17.9781 103.144 7.91652 110.285C6.64821 111.162 5.41174 112.086 4.16113 112.987L0.418114 115.705C-0.20985 116.154 -0.820122 116.624 -1.43747 117.085L-3.28598 118.476L-6.98123 121.257L-10.6252 124.108L-12.4472 125.532C-13.0539 126.008 -13.6642 126.479 -14.2568 126.971L-17.8406 129.894L-19.6325 131.355C-20.2304 131.841 -20.8088 132.352 -21.3978 132.848C-30.8155 140.804 -39.8387 149.235 -48.1685 158.312L-48.9167 157.628Z" fill="white"/>
<path d="M-48.9167 165.26C-40.0244 155.634 -30.3839 146.731 -20.3206 138.362L-18.4402 136.786L-16.5245 135.25L-12.6913 132.184C-11.423 131.15 -10.1104 130.173 -8.81559 129.174L-4.91869 126.191C-4.27304 125.688 -3.60793 125.214 -2.94989 124.726L-0.972252 123.274L2.98125 120.367C5.65231 118.479 8.31629 116.578 10.9962 114.703C21.7494 107.245 32.7467 100.15 43.8855 93.2918C55.0261 86.4351 66.31 79.817 77.6752 73.3438C100.409 60.401 123.462 48.0378 146.507 35.6675C169.554 23.3025 192.614 10.9552 215.406 -1.87454C192.656 11.0294 169.635 23.451 146.627 35.8902C123.623 48.3347 100.611 60.7703 77.9264 73.7839C66.5859 80.2924 55.3286 86.9441 44.2181 93.8308C33.1093 100.719 22.1456 107.845 11.4313 115.327C8.76028 117.209 6.10869 119.116 3.44648 121.008L-0.491108 123.922L-2.4599 125.38C-3.1144 125.868 -3.77774 126.345 -4.41985 126.849L-8.29907 129.839C-9.58861 130.839 -10.8958 131.82 -12.1588 132.855L-15.9744 135.927L-17.8795 137.464L-19.751 139.044C-29.7648 147.424 -39.3452 156.332 -48.1685 165.944L-48.9167 165.26Z" fill="white"/>
<path d="M-48.9167 172.893C-39.5256 162.728 -29.3243 153.344 -18.6596 144.551C-7.98951 135.757 3.14931 127.552 14.557 119.752C25.9682 111.955 37.6519 104.57 49.4841 97.4394C61.3199 90.3106 73.306 83.4415 85.3788 76.7297C109.53 63.3098 133.999 50.4871 158.426 37.5919C182.855 24.6986 207.258 11.7522 231.289 -1.87277C207.301 11.8247 182.934 24.847 158.544 37.8164C134.156 50.7875 109.726 63.6844 85.6247 77.1733C73.5766 83.9204 61.6153 90.823 49.8096 97.9837C38.0074 105.146 26.3556 112.559 14.9851 120.381C3.61807 128.204 -7.47829 136.432 -18.0953 145.236C-28.707 154.039 -38.8464 163.426 -48.1685 173.577L-48.9167 172.893Z" fill="white"/>
<path d="M-48.9167 180.523C-43.9797 175.164 -38.8198 170.016 -33.4883 165.055C-28.1551 160.095 -22.6538 155.32 -17.0092 150.72C-5.72531 141.513 6.06446 132.947 18.1408 124.825C30.2207 116.705 42.5942 109.03 55.1287 101.64C67.6649 94.2514 80.3657 87.1473 93.1496 80.2023C118.723 66.3175 144.623 53.0566 170.433 39.6295C196.242 26.2025 221.981 12.6252 247.209 -1.87277C222.025 12.6976 196.321 26.3509 170.552 39.8539C144.781 53.357 118.919 66.6922 93.3937 80.6476C80.6328 87.628 67.9586 94.7656 55.4524 102.186C42.948 109.608 30.6098 117.313 18.5689 125.456C6.53146 133.601 -5.2141 142.19 -16.4449 151.407C-22.0612 156.013 -27.536 160.791 -32.8374 165.752C-38.1388 170.712 -43.2651 175.858 -48.1667 181.209L-48.9167 180.523Z" fill="white"/>
<path d="M-49 188.244C-38.6289 176.98 -27.3132 166.619 -15.435 156.983C-3.54435 147.355 8.89638 138.426 21.6467 129.987C34.4005 121.549 47.4692 113.598 60.7095 105.957C73.9515 98.3177 87.3687 90.9856 100.869 83.8179C127.875 69.4878 155.212 55.8045 182.396 41.8297C209.577 27.8548 236.636 13.6113 263.014 -1.8392C236.679 13.6837 209.657 28.0032 182.513 42.0541C155.366 56.105 128.066 69.8625 101.108 84.265C87.6305 91.468 74.2399 98.8337 61.0279 106.505C47.8177 114.178 34.7826 122.157 22.0677 130.62C9.3563 139.083 -3.03668 148.032 -14.8742 157.67C-26.6994 167.317 -37.9532 177.678 -48.2518 188.928L-49 188.244Z" fill="white"/>
<path d="M-48.9167 195.781C-38.0486 183.985 -26.165 173.161 -13.6836 163.113C-1.18983 153.072 11.9054 143.805 25.3279 135.066C38.7557 126.329 52.5196 118.122 66.4639 110.248C80.4099 102.375 94.54 94.8345 108.753 87.4601C137.183 72.7147 165.942 58.6285 194.474 44.0969C223.002 29.5636 251.341 14.6133 278.795 -1.87631C251.386 14.6857 223.081 29.7138 194.591 44.3231C166.094 58.9307 137.371 73.0929 108.988 87.9107C94.7982 95.3205 80.6947 102.896 66.777 110.801C52.8627 118.707 39.1307 126.942 25.7436 135.704C12.3618 144.468 -0.687454 153.754 -13.1264 163.806C-25.553 173.863 -37.3729 184.687 -48.1685 196.467L-48.9167 195.781Z" fill="white"/>
<path d="M-48.9167 203.41C-37.571 191.095 -25.1444 179.813 -12.0757 169.373C-5.54134 164.151 1.16105 159.139 7.99081 154.309C14.8188 149.478 21.7671 144.821 28.8091 140.309C42.8931 131.288 57.3363 122.844 71.9687 114.754C86.6029 106.666 101.43 98.9344 116.336 91.3691C146.155 76.242 176.297 61.7776 206.13 46.6912C221.045 39.1488 235.886 31.4545 250.559 23.451C265.231 15.4456 279.738 7.13279 293.953 -1.66248C279.761 7.16814 265.273 15.5198 250.62 23.5623C235.964 31.6047 221.143 39.3362 206.243 46.9174C176.446 62.0816 146.337 76.6219 116.565 91.8215C101.679 99.4221 86.8788 107.189 72.2747 115.309C57.6724 123.429 43.2628 131.903 29.2195 140.949C22.1987 145.473 15.2716 150.139 8.46841 154.981C1.66342 159.819 -5.01244 164.838 -11.5203 170.065C-24.5341 180.515 -36.8952 191.796 -48.1685 204.096L-48.9167 203.41Z" fill="white"/>
<path d="M-48.9167 211.037C-37.0774 198.185 -24.0883 186.431 -10.4058 175.589C-3.5637 170.168 3.45533 164.969 10.6053 159.964C17.7587 154.963 25.0449 150.153 32.4265 145.5C47.1934 136.194 62.3441 127.513 77.6911 119.213C93.0399 110.912 108.589 102.992 124.215 95.2339C155.472 79.7251 187.043 64.8667 218.199 49.1688C233.778 41.3207 249.254 33.2677 264.516 24.8241C279.778 16.3805 294.828 7.54454 309.51 -1.87454C294.851 7.57989 279.821 16.4529 264.578 24.9354C249.334 33.4179 233.873 41.5098 218.314 49.395C187.192 65.1706 155.654 80.1051 124.442 95.6881C108.838 103.481 93.3123 111.437 77.9936 119.769C62.6766 128.104 47.5595 136.812 32.8334 146.143C25.4712 150.808 18.208 155.629 11.0793 160.639C3.9524 165.654 -3.03833 170.859 -9.85217 176.286C-23.4781 187.136 -36.4017 198.89 -48.1667 211.725L-48.9167 211.037Z" fill="white"/>
<path d="M-48.9167 218.665C-36.6034 205.296 -23.073 193.088 -8.80144 181.863C5.47542 170.634 20.4899 160.369 35.9148 150.799C51.3432 141.228 67.1803 132.334 83.219 123.841C99.2612 115.35 115.509 107.26 131.83 99.3285C164.477 83.4733 197.423 68.2437 229.842 51.9362C246.051 43.7842 262.128 35.3635 277.94 26.4658C293.751 17.568 309.298 8.19133 324.394 -1.87631C309.323 8.22667 293.795 17.6405 278.002 26.5753C262.208 35.5102 246.148 43.9697 229.957 52.1606C197.572 68.5459 164.658 83.855 132.053 99.7827C115.753 107.749 99.5283 115.875 83.5161 124.4C67.5057 132.924 51.7041 141.849 36.3163 151.443C20.9321 161.037 5.96894 171.32 -8.25131 182.558C-22.4663 193.791 -35.9294 205.997 -48.1685 219.348L-48.9167 218.665Z" fill="white"/>
<path d="M-48.9167 226.29C-36.1382 212.414 -22.0753 199.761 -7.22181 188.161C7.63703 176.556 23.2813 165.99 39.3571 156.163C55.4365 146.334 71.9528 137.243 88.676 128.572C105.403 119.902 122.342 111.658 139.35 103.566C173.366 87.3841 207.663 71.794 241.306 54.8538C258.125 46.3855 274.779 37.5813 291.112 28.2047C307.441 18.828 323.449 8.877 338.911 -1.87454C323.472 8.91057 307.487 18.9005 291.175 28.3142C274.863 37.7298 258.224 46.5728 241.421 55.08C207.81 72.0997 173.543 87.7693 139.569 104.024C122.582 112.153 105.666 120.434 88.9697 129.136C72.2747 137.839 55.7938 146.959 39.7569 156.811C23.7235 166.662 8.12878 177.245 -6.67167 188.859C-21.4686 200.468 -35.4642 213.119 -48.1685 226.976L-48.9167 226.29Z" fill="white"/>
<path d="M-48.9167 233.915C-35.68 219.541 -21.0954 206.45 -5.6687 194.486C9.76149 182.515 26.0284 171.657 42.7481 161.59C59.4731 151.522 76.6563 142.241 94.0553 133.407C111.458 124.574 129.08 116.189 146.762 107.942C182.126 91.4539 217.75 75.5086 252.576 57.911C269.986 49.114 287.194 39.907 304.012 30.0249C320.829 20.1446 337.259 9.5874 353.043 -1.87631C337.284 9.62275 320.875 20.217 304.076 30.1344C287.275 40.0536 270.083 49.3013 252.689 58.1372C217.893 75.8126 182.297 91.8374 146.974 108.399C129.313 116.684 111.714 125.105 94.3419 133.971C76.9747 142.84 59.8251 152.151 43.1426 162.242C26.4635 172.333 10.2479 183.208 -5.12211 195.188C-20.4904 207.158 -35.0078 220.246 -48.1685 234.601L-48.9167 233.915Z" fill="white"/>
<path d="M-48.9167 241.541C-35.2325 226.679 -20.1348 213.158 -4.14391 200.837C11.8506 188.511 28.7295 177.369 46.0878 167.077C63.4496 156.781 81.2944 147.327 99.3602 138.343C117.428 129.358 135.722 120.844 154.067 112.452C190.756 95.6757 227.684 79.3823 263.653 61.1026C281.632 51.9644 299.369 42.3333 316.646 31.9246C333.919 21.5177 350.735 10.3261 366.798 -1.87454C350.759 10.3597 333.967 21.5883 316.713 32.0342C299.456 42.4817 281.735 52.1535 263.77 61.3305C227.831 79.6898 190.931 96.0627 154.281 112.915C135.955 121.342 117.684 129.895 99.645 138.912C81.6093 147.93 63.7981 157.414 46.4787 167.731C29.1646 178.048 12.337 189.206 -3.59731 201.541C-19.5281 213.867 -34.5567 227.384 -48.165 242.226L-48.9167 241.541Z" fill="white"/>
<path d="M-48.9167 249.164C-34.792 233.822 -19.192 219.879 -2.64564 207.213C13.9043 194.539 31.3864 183.125 49.3744 172.617C67.366 162.108 85.8635 152.494 104.586 143.37C123.311 134.248 142.267 125.614 161.265 117.087C180.265 108.56 199.311 100.141 218.243 91.4769C237.176 82.8124 256.001 73.9023 274.532 64.4107C293.061 54.9209 311.302 44.8462 329.003 33.8862C346.703 22.9296 363.865 11.0789 380.167 -1.87277C363.89 11.1125 346.751 22.9986 329.069 33.994C311.385 44.9929 293.16 55.1065 274.647 64.6369C256.13 74.1691 237.319 83.1199 218.401 91.8233C199.482 100.528 180.451 108.986 161.472 117.55C142.493 126.115 123.559 134.785 104.862 143.941C86.1677 153.097 67.7038 162.74 49.7565 173.274C31.8127 183.805 14.3819 195.237 -2.10612 207.918C-18.5906 220.591 -34.1216 234.529 -48.1703 249.852L-48.9167 249.164Z" fill="white"/>
<path d="M-48.9167 256.788C-34.3604 240.973 -18.2651 226.615 -1.17213 213.61C15.9244 200.597 34.0044 188.919 52.6115 178.208C71.224 167.494 90.3671 157.734 109.738 148.483C129.113 139.233 148.722 130.493 168.364 121.837C188.006 113.183 207.685 104.614 227.224 95.7358C246.763 86.861 266.167 77.6769 285.228 67.8178C304.288 57.9605 323.007 47.4246 341.106 35.8919C359.204 24.3664 376.677 11.837 393.185 -1.87631C376.704 11.8706 359.254 24.4353 341.175 35.9997C323.095 47.5695 304.391 58.146 285.347 68.0423C266.299 77.942 246.908 87.1667 227.383 96.0822C207.858 104.999 188.193 113.607 168.571 122.3C148.948 130.995 129.361 139.772 110.014 149.053C90.6714 158.336 71.5636 168.127 52.9936 178.866C34.4289 189.601 16.402 201.295 -0.632618 214.314C-17.6637 227.327 -33.6882 241.68 -48.1685 257.474L-48.9167 256.788Z" fill="white"/>
<path d="M-48.9167 264.412C-33.9359 248.134 -17.3541 233.366 0.278362 220.031C17.9126 206.685 36.5835 194.755 55.8062 183.849C75.0342 172.94 94.8141 163.044 114.828 153.678C134.845 144.312 155.097 135.474 175.372 126.697C195.647 117.919 215.947 109.203 236.081 100.111C256.213 91.0209 276.182 81.5559 295.753 71.3151C315.323 61.0778 334.498 50.0594 352.965 37.9401C371.431 25.826 389.184 12.6022 405.866 -1.87631C389.21 12.634 371.482 25.895 353.034 38.0461C334.586 50.2043 315.427 61.2634 295.872 71.5413C276.313 81.8228 256.356 91.3284 236.238 100.459C216.119 109.59 195.831 118.347 175.575 127.163C155.32 135.98 135.087 144.855 115.1 154.254C95.1149 163.654 75.3703 173.58 56.1865 184.512C37.008 195.44 18.392 207.388 0.819656 220.739C-16.7545 234.078 -33.2637 248.839 -48.1685 265.097L-48.9167 264.412Z" fill="white"/>
<path d="M-48.9238 273.765C-41.4237 265.253 -33.4848 257.129 -25.178 249.405C-16.8712 241.679 -8.19825 234.352 0.766582 227.405C18.698 213.504 37.7775 201.138 57.4619 189.891C77.1534 178.641 97.4498 168.494 117.996 158.921C138.547 149.35 159.353 140.35 180.176 131.408C201.002 122.468 221.852 113.584 242.516 104.28C263.177 94.9777 283.658 85.2529 303.69 74.6639C323.721 64.0785 343.307 52.6218 362.089 39.9458C380.871 27.2787 398.84 13.3815 415.597 -1.87454C398.868 13.4116 380.923 27.3441 362.16 40.0501C343.397 52.7632 323.826 64.2605 303.809 74.8883C283.788 85.5179 263.32 95.2852 242.672 104.628C222.022 113.973 201.184 122.896 180.376 131.875C159.569 140.855 138.784 149.893 118.263 159.497C97.7452 169.102 77.4841 179.279 57.8386 190.552C38.2002 201.822 19.1774 214.202 1.30964 228.107C-7.62158 235.055 -16.2609 242.38 -24.5306 250.101C-32.8002 257.82 -40.7002 265.937 -48.1632 274.435L-48.9238 273.765Z" fill="white"/>
<path d="M-48.9309 283.37C-41.4484 274.47 -33.4866 265.974 -25.1161 257.905C-16.7474 249.834 -7.97184 242.188 1.12389 234.951C19.3207 220.471 38.7893 207.65 58.9212 196.05C79.062 184.445 99.8679 174.045 120.941 164.269C142.019 154.493 163.375 145.337 184.745 136.24C206.117 127.142 227.516 118.103 248.706 108.592C269.894 99.0846 290.878 89.1036 311.366 78.1647C331.85 67.2294 351.835 55.3256 370.911 42.0788C389.985 28.8408 408.139 14.2475 424.921 -1.80563C408.167 14.2793 390.038 28.908 370.983 42.1831C351.927 55.4688 331.956 67.4131 311.486 78.3891C291.013 89.3686 270.037 99.3903 248.861 108.94C227.684 118.49 206.3 127.572 184.945 136.706C163.591 145.842 142.258 155.035 121.208 164.845C100.163 174.655 79.3946 185.085 59.3015 196.711C39.2156 208.332 19.8053 221.167 1.67756 235.647C-7.38633 242.884 -16.1247 250.527 -24.4563 258.591C-32.7878 266.654 -40.7108 275.138 -48.1544 284.024L-48.9309 283.37Z" fill="white"/>
<path d="M-43.458 287.369C-35.926 278.387 -27.9005 269.821 -19.4539 261.69C-11.0074 253.559 -2.14338 245.865 7.05141 238.59C25.4445 224.032 45.1413 211.175 65.5103 199.558C85.8863 187.935 106.936 177.533 128.25 167.747C149.567 157.96 171.157 148.787 192.75 139.636C214.343 130.487 235.948 121.362 257.317 111.711C278.681 102.061 299.818 91.8798 320.398 80.6582C340.972 69.4419 360.989 57.1706 379.994 43.4696C398.999 29.7792 416.975 14.6433 433.447 -2L434.168 -1.28606C417.622 15.3714 399.578 30.5091 380.512 44.1906C361.447 57.8828 341.377 70.1346 320.76 81.3262C300.138 92.5231 278.97 102.674 257.577 112.289C236.182 121.906 214.557 130.995 192.946 140.104C171.337 149.216 149.735 158.349 128.407 168.095C107.083 177.839 86.0243 188.2 65.6359 199.78C45.2545 211.355 25.5436 224.171 7.13101 238.69C-2.07439 245.946 -10.949 253.623 -19.4079 261.738C-27.8686 269.849 -35.9101 278.401 -43.458 287.369Z" fill="white"/>
<path d="M-35.2378 287.369C-27.6633 278.618 -19.6095 270.282 -11.1523 262.378C-2.69695 254.471 6.15997 246.996 15.3318 239.931C33.6771 225.793 53.2625 213.317 73.4793 202.03C93.7033 190.74 114.56 180.621 135.66 171.081C156.765 161.542 178.123 152.579 199.473 143.618C220.824 134.656 242.178 125.697 263.289 116.195C284.397 106.694 305.27 96.6477 325.579 85.548C345.882 74.4536 365.623 62.2954 384.337 48.6969C403.05 35.1091 420.72 20.0668 436.866 3.51715L437.593 4.22579C421.374 20.7914 403.634 35.8354 384.858 49.4144C366.083 63.0058 346.291 75.1464 325.943 86.216C305.592 97.2909 284.683 107.306 263.549 116.772C242.41 126.241 221.036 135.163 199.668 144.086C178.301 153.01 156.931 161.933 135.816 171.43C114.704 180.926 93.8377 191.003 73.6014 202.253C53.3721 213.497 33.7744 225.933 15.4078 240.032C6.22719 247.077 -2.64212 254.535 -11.1099 262.424C-19.5794 270.311 -27.6474 278.632 -35.2378 287.369Z" fill="white"/>
<path d="M-26.9133 287.369C-19.3654 278.929 -11.3629 270.895 -2.98177 263.279C5.39932 255.662 14.1572 248.461 23.2087 241.654C41.317 228.034 60.584 216.005 80.4417 205.107C100.307 194.205 120.764 184.418 141.448 175.18C162.137 165.942 183.061 157.25 203.981 148.553C224.9 139.859 245.817 131.163 266.504 121.941C287.188 112.722 307.647 102.976 327.564 92.2085C347.476 81.4464 366.847 69.6504 385.228 56.4478C403.609 43.2575 420.981 28.6447 436.866 12.5421L437.59 13.2543C421.631 29.371 404.187 43.9874 385.746 57.1688C367.304 70.3626 347.881 82.1391 327.926 92.8765C307.966 103.619 287.473 113.335 266.763 122.519C246.049 131.705 225.11 140.364 204.175 149.02C183.242 157.676 162.303 166.328 141.604 175.524C120.907 184.721 100.441 194.467 80.5638 205.326C60.6936 216.182 41.4125 228.17 23.2848 241.751C14.2226 248.539 5.45416 255.721 -2.93931 263.321C-11.3328 270.924 -19.3495 278.941 -26.9133 287.369Z" fill="white"/>
<path d="M-18.4739 287.367C-10.9578 279.24 -3.01361 271.512 5.2861 264.185C13.5858 256.859 22.2393 249.933 31.167 243.386C49.0259 230.284 67.9674 218.703 87.459 208.194C106.956 197.681 127.006 188.227 147.269 179.292C167.536 170.357 188.023 161.936 208.504 153.51C228.984 145.084 249.461 136.655 269.718 127.718C289.972 118.783 310.011 109.338 329.532 98.9061C349.049 88.478 368.047 77.0496 386.09 64.2499C404.132 51.4608 421.204 37.2827 436.825 21.6343L437.544 22.3518C421.848 38.0143 404.706 52.1942 386.603 64.9745C368.498 77.7653 349.448 89.1743 329.89 99.5777C310.327 109.985 290.254 119.398 269.973 128.3C249.689 137.201 229.191 145.595 208.695 153.98C188.2 162.367 167.7 170.747 147.421 179.642C127.148 188.536 107.087 197.95 87.5775 208.42C68.0753 218.887 49.1197 230.427 31.2413 243.49C22.303 250.02 13.6389 256.926 5.32856 264.235C-2.98531 271.542 -10.9436 279.256 -18.4739 287.367Z" fill="white"/>
<path d="M-9.91431 287.367C-2.42652 279.546 5.46635 272.113 13.6918 265.067C21.9172 258.022 30.4734 251.365 39.2861 245.068C56.9151 232.47 75.5523 221.326 94.6989 211.198C113.853 201.067 133.521 191.938 153.386 183.296C173.256 174.655 193.33 166.501 213.395 158.333C233.459 150.167 253.52 141.99 273.368 133.32C293.213 124.65 312.85 115.488 331.987 105.362C351.12 95.2392 369.754 84.1449 387.464 71.7057C405.171 59.2771 421.938 45.4877 437.284 30.2458L437.998 30.965C422.579 46.2211 405.742 60.0122 387.973 72.432C370.205 84.8623 351.518 95.9373 332.343 106.033C313.163 116.134 293.492 125.265 273.622 133.902C253.749 142.538 233.666 150.676 213.587 158.803C193.507 166.93 173.421 175.045 153.54 183.644C133.663 192.243 113.985 201.332 94.8192 211.421C75.6602 221.508 57.0088 232.611 39.3604 245.171C30.5389 251.448 21.9703 258.087 13.7342 265.115C5.49642 272.143 -2.4106 279.562 -9.91431 287.367Z" fill="white"/>
<path d="M-1.21997 287.369C13.6548 272.369 30.0455 258.909 47.3843 246.848C64.7267 234.776 83.0013 224.085 101.75 214.351C120.504 204.614 139.736 195.824 159.149 187.491C178.567 179.159 198.175 171.286 217.773 163.399C237.37 155.513 256.965 147.615 276.357 139.244C295.746 130.874 314.939 122.031 333.659 112.264C352.374 102.501 370.615 91.8003 387.974 79.7976C405.33 67.8037 421.788 54.4898 436.871 39.7462L437.581 40.4725C422.423 55.2302 405.894 68.5442 388.478 80.5274C371.059 92.5213 352.765 103.2 334.009 112.938C315.248 122.68 296.022 131.491 276.607 139.825C257.188 148.161 237.574 156.021 217.96 163.87C198.347 171.718 178.726 179.55 159.296 187.841C139.87 196.131 120.63 204.881 101.863 214.577C83.1021 224.27 64.8134 234.921 47.4533 246.954C30.0986 258.972 13.6849 272.399 -1.21997 287.369Z" fill="white"/>
<path d="M7.74829 287.242C22.5293 272.892 38.7201 260.031 55.783 248.495C72.8494 236.95 90.7756 226.711 109.137 217.371C127.503 208.03 146.31 199.575 165.286 191.552C184.264 183.529 203.418 175.934 222.561 168.321C241.704 160.71 260.842 153.081 279.785 145C298.727 136.918 317.482 128.379 335.785 118.95C354.085 109.522 371.933 99.1924 388.934 87.5962C405.933 76.007 422.071 63.1366 436.873 48.8578L437.577 49.5876C422.699 63.8806 406.492 76.751 389.433 88.3296C372.372 99.917 354.472 110.225 336.132 119.626C317.787 129.03 299.001 137.537 280.033 145.585C261.063 153.632 241.906 161.222 222.747 168.795C203.588 176.367 184.422 183.922 165.432 191.904C146.447 199.886 127.629 208.298 109.252 217.599C90.8782 226.898 72.9379 237.095 55.8538 248.602C38.7732 260.096 22.5594 272.924 7.74829 287.242Z" fill="white"/>
<path d="M16.614 287.369C31.2995 273.631 47.2993 261.328 64.1004 250.283C80.9068 239.231 98.5056 229.418 116.508 220.451C134.514 211.483 152.924 203.35 171.493 195.621C190.063 187.891 208.795 180.562 227.514 173.211C246.233 165.859 264.946 158.488 283.472 150.676C301.996 142.863 320.339 134.607 338.251 125.486C356.158 116.368 373.635 106.378 390.294 95.1491C406.952 83.9293 422.775 71.4512 437.298 57.5894L437.998 58.3228C423.399 72.1987 407.506 84.6768 390.789 95.886C374.07 107.104 356.543 117.075 338.596 126.165C320.643 135.259 302.266 143.483 283.717 151.261C265.165 159.038 246.432 166.372 227.698 173.683C208.963 180.994 190.218 188.283 171.638 195.97C153.059 203.659 134.637 211.75 116.619 220.677C98.6065 229.603 80.9934 239.374 64.1694 250.389C47.3506 261.395 31.3278 273.661 16.614 287.369Z" fill="white"/>
<path d="M25.7788 287.371C40.321 274.292 56.0749 262.588 72.5576 252.064C89.0456 241.535 106.259 232.171 123.84 223.599C141.425 215.024 159.383 207.231 177.482 199.812C195.585 192.394 213.837 185.351 232.074 178.283C250.313 171.216 268.542 164.124 286.599 156.613C304.653 149.101 322.536 141.168 340.011 132.408C357.483 123.65 374.549 114.056 390.841 103.269C407.129 92.4895 422.633 80.5009 436.878 67.1463L437.572 67.8868C423.251 81.2538 407.677 93.2406 391.329 104.01C374.979 114.786 357.861 124.357 340.349 133.089C322.832 141.822 304.916 149.723 286.838 157.2C268.756 164.677 250.508 171.73 232.253 178.758C214 185.786 195.736 192.789 177.622 200.166C159.51 207.542 141.543 215.293 123.946 223.827C106.354 232.358 89.127 241.682 72.6213 252.172C56.1244 262.657 40.3493 274.324 25.7788 287.371Z" fill="white"/>
<path d="M34.8391 287.625C49.238 275.165 64.7531 264.019 80.9351 253.987C97.1224 243.948 113.973 235.007 131.16 226.806C148.352 218.603 165.883 211.135 183.546 204.013C201.212 196.893 219.014 190.123 236.804 183.324C254.592 176.526 272.372 169.703 289.986 162.475C307.598 155.247 325.05 147.615 342.114 139.187C359.176 130.761 375.853 121.535 391.791 111.149C407.725 100.771 422.911 89.2202 436.884 76.3286L437.572 77.0744C423.525 89.9766 408.268 101.527 392.275 111.891C376.279 122.265 359.552 131.47 342.452 139.868C325.347 148.267 307.865 155.866 290.227 163.058C272.587 170.251 254.789 177.037 236.985 183.795C219.181 190.552 201.366 197.282 183.689 204.361C166.014 211.44 148.472 218.868 131.269 227.03C114.07 235.191 97.2073 244.091 81.0023 254.09C64.8027 264.088 49.2663 275.197 34.8391 287.625Z" fill="white"/>
<path d="M44.7026 287.369C58.9459 275.587 74.1992 265.053 90.0539 255.553C105.912 246.049 122.368 237.566 139.129 229.766C155.893 221.966 172.963 214.842 190.153 208.04C207.345 201.238 224.659 194.756 241.959 188.241C259.257 181.725 276.546 175.181 293.678 168.249C310.808 161.316 327.786 153.996 344.398 145.915C361.006 137.835 377.254 128.987 392.801 119.024C408.342 109.067 423.177 97.9784 436.845 85.5816L437.526 86.3326C423.781 98.74 408.88 109.826 393.28 119.769C377.677 129.72 361.38 138.546 344.733 146.597C328.08 154.65 311.07 161.938 293.917 168.835C276.76 175.733 259.453 182.239 242.139 188.714C224.825 195.189 207.499 201.632 190.294 208.392C173.094 215.151 156.013 222.234 139.237 229.994C122.466 237.752 105.995 246.194 90.1211 255.659C74.2469 265.122 58.9724 275.619 44.7026 287.369Z" fill="white"/>
<path d="M53.6992 288C67.7656 276.796 82.7588 266.781 98.3005 257.737C113.846 248.689 129.937 240.602 146.307 233.152C162.68 225.703 179.334 218.889 196.098 212.373C212.862 205.858 229.739 199.639 246.602 193.387C263.463 187.135 280.314 180.852 297.018 174.199C313.718 167.545 330.277 160.521 346.492 152.766C362.703 145.012 378.572 136.522 393.772 126.951C408.969 117.386 423.491 106.726 436.891 94.7798L437.566 95.5379C424.091 107.495 409.499 118.151 394.244 127.704C378.986 137.261 363.069 145.729 346.82 153.454C330.567 161.18 313.978 168.171 297.253 174.789C280.525 181.405 263.656 187.651 246.779 193.862C229.902 200.074 213.012 206.252 196.236 212.727C179.462 219.202 162.797 225.975 146.413 233.382C130.033 240.79 113.929 248.836 98.3659 257.845C82.8066 266.852 67.7921 276.83 53.6992 288Z" fill="white"/>
<path d="M64.5461 287.369C78.4179 276.89 93.1105 267.517 108.286 259.034C123.465 250.548 139.125 242.944 155.029 235.918C170.937 228.891 187.093 222.441 203.344 216.256C219.596 210.071 235.946 204.152 252.28 198.195C268.614 192.238 284.934 186.242 301.116 179.893C317.295 173.541 333.339 166.837 349.061 159.436C364.778 152.035 380.174 143.932 394.941 134.794C409.704 125.661 423.834 115.479 436.894 104.05L437.563 104.814C424.427 116.253 410.23 126.43 395.41 135.549C380.585 144.673 365.14 152.752 349.386 160.123C333.627 167.496 317.553 174.167 301.35 180.483C285.145 186.797 268.806 192.754 252.457 198.672C236.107 204.591 219.745 210.468 203.482 216.611C187.22 222.756 171.054 229.163 155.134 236.149C139.217 243.135 123.545 250.698 108.35 259.144C93.1565 267.587 78.4445 276.923 64.5461 287.369Z" fill="white"/>
<path d="M74.8821 287.369C88.5363 277.544 102.919 268.752 117.73 260.777C132.545 252.799 147.784 245.632 163.243 238.992C178.703 232.353 194.384 226.239 210.151 220.366C225.917 214.492 241.772 208.86 257.607 203.184C273.442 197.508 289.263 191.791 304.953 185.735C320.642 179.679 336.203 173.283 351.462 166.225C366.717 159.167 381.671 151.441 396.033 142.72C410.391 134.004 424.153 124.283 436.895 113.349L437.556 114.12C424.739 125.062 410.907 134.778 396.493 143.48C382.072 152.185 367.072 159.886 351.78 166.916C336.484 173.946 320.893 180.306 305.18 186.327C289.465 192.346 273.626 198.026 257.775 203.661C241.924 209.297 226.058 214.89 210.28 220.722C194.503 226.555 178.813 232.627 163.34 239.226C147.871 245.824 132.617 252.951 117.787 260.888C102.963 268.823 88.561 277.577 74.8821 287.369Z" fill="white"/>
<path d="M85.5396 287.369C98.9514 278.197 113.005 269.984 127.433 262.515C141.863 255.046 156.669 248.314 171.668 242.06C201.675 229.556 232.423 218.956 263.071 208.173C278.397 202.781 293.708 197.344 308.896 191.584C324.082 185.823 339.15 179.741 353.934 173.027C368.715 166.314 383.217 158.964 397.161 150.665C411.102 142.37 424.484 133.114 436.9 122.68L437.552 123.458C425.062 133.898 411.613 143.149 397.616 151.429C383.615 159.711 369.067 167.036 354.249 173.72C339.427 180.403 324.33 186.452 309.121 192.178C293.908 197.902 278.581 203.299 263.239 208.652C232.561 219.356 201.794 229.872 171.765 242.295C156.756 248.507 141.938 255.198 127.491 262.629C113.048 270.058 98.9744 278.233 85.5396 287.369Z" fill="white"/>
<path d="M96.5601 287.369C109.703 278.853 123.403 271.215 137.431 264.251C151.46 257.286 165.815 250.99 180.337 245.125C209.392 233.394 239.093 223.378 268.7 213.167C283.504 208.06 298.292 202.907 312.965 197.444C327.636 191.982 342.196 186.212 356.494 179.845C370.787 173.478 384.821 166.508 398.334 158.633C411.843 150.762 424.832 141.972 436.907 132.05L437.551 132.834C425.4 142.766 412.346 151.547 398.78 159.402C385.211 167.261 371.132 174.204 356.802 180.541C342.468 186.878 327.88 192.615 313.186 198.04C298.49 203.465 283.684 208.581 268.864 213.648C239.23 223.779 209.508 233.71 180.433 245.36C165.9 251.184 151.532 257.438 137.489 264.364C123.446 271.288 109.726 278.888 96.5601 287.369Z" fill="white"/>
<path d="M107.996 287.369C120.84 279.505 134.163 272.442 147.766 265.981C161.371 259.518 175.257 253.658 189.286 248.18C217.352 237.224 245.98 227.797 274.512 218.163C288.78 213.344 303.029 208.473 317.173 203.311C331.313 198.148 345.352 192.694 359.145 186.673C372.936 180.654 386.486 174.066 399.553 166.619C412.614 159.174 425.193 150.86 436.914 141.453L437.549 142.245C425.754 151.658 413.11 159.964 399.991 167.392C386.87 174.821 373.276 181.382 359.45 187.373C345.62 193.362 331.554 198.782 317.39 203.909C303.225 209.033 288.957 213.865 274.675 218.645C246.112 228.2 217.468 237.543 189.38 248.419C175.34 253.856 161.443 259.676 147.823 266.098C134.202 272.516 120.861 279.542 107.996 287.369Z" fill="white"/>
<path d="M119.91 287.369C132.416 280.161 145.327 273.668 158.474 267.711C171.624 261.754 185.009 256.327 198.518 251.239C225.542 241.06 253.045 232.231 280.456 223.183C294.161 218.658 307.849 214.075 321.438 209.219C335.025 204.359 348.516 199.227 361.783 193.567C375.046 187.903 388.089 181.707 400.687 174.701C413.28 167.695 425.428 159.87 436.778 151.001L437.402 151.8C425.979 160.673 413.764 168.489 401.117 175.476C388.465 182.466 375.379 188.635 362.08 194.267C348.778 199.897 335.258 204.994 321.65 209.816C308.04 214.637 294.335 219.181 280.615 223.666C253.176 232.634 225.655 241.38 198.608 251.478C185.089 256.525 171.691 261.911 158.527 267.828C145.364 273.744 132.435 280.198 119.91 287.369Z" fill="white"/>
<path d="M132.377 287.369C144.52 280.806 157.002 274.877 169.679 269.415C182.359 263.954 195.237 258.958 208.217 254.256C234.181 244.847 260.547 236.616 286.822 228.147C299.96 223.911 313.076 219.614 326.102 215.056C339.127 210.497 352.061 205.678 364.792 200.364C377.521 195.051 390.043 189.234 402.156 182.653C414.265 176.074 425.964 168.72 436.921 160.374L437.536 161.182C426.506 169.532 414.741 176.872 402.579 183.434C390.413 189.996 377.848 195.787 365.085 201.067C352.321 206.349 339.358 211.133 326.313 215.655C313.265 220.176 300.129 224.434 286.978 228.631C260.674 237.02 234.289 245.171 208.304 254.496C195.313 259.158 182.424 264.111 169.731 269.533C157.037 274.953 144.54 280.841 132.377 287.369Z" fill="white"/>
<path d="M145.493 287.369C157.228 281.449 169.237 276.08 181.406 271.116C193.576 266.151 205.908 261.588 218.324 257.272C243.16 248.64 268.326 241.012 293.402 233.133C305.94 229.19 318.457 225.184 330.889 220.932C343.319 216.678 355.668 212.179 367.831 207.22C379.99 202.26 391.968 196.842 403.566 190.697C415.161 184.558 426.385 177.696 436.926 169.896L437.529 170.71C426.914 178.512 415.628 185.36 403.98 191.48C392.33 197.603 380.31 202.995 368.117 207.922C355.921 212.849 343.547 217.313 331.094 221.529C318.641 225.744 306.107 229.711 293.554 233.615C268.45 241.415 243.266 248.959 218.409 257.509C205.983 261.784 193.639 266.306 181.455 271.231C169.271 276.158 157.248 281.486 145.493 287.369Z" fill="white"/>
<path d="M159.385 287.369C181.966 276.794 205.385 268.109 229.037 260.25C252.698 252.388 276.626 245.368 300.462 238.075C312.379 234.428 324.275 230.71 336.093 226.762C347.909 222.812 359.65 218.629 371.222 214.02C382.789 209.406 394.195 204.379 405.254 198.669C416.31 192.963 427.029 186.585 437.126 179.327L437.719 180.151C427.549 187.41 416.768 193.772 405.661 199.459C394.55 205.149 383.102 210.147 371.503 214.729C359.899 219.306 348.132 223.452 336.295 227.364C324.455 231.277 312.542 234.954 300.611 238.563C276.746 245.777 252.801 252.715 229.118 260.494C205.445 268.268 182.004 276.87 159.385 287.369Z" fill="white"/>
<path d="M173.812 287.541C195.38 278.205 217.594 270.443 239.992 263.346C262.395 256.247 285.004 249.827 307.524 243.131C318.783 239.782 330.022 236.361 341.189 232.724C352.355 229.086 363.451 225.233 374.395 220.985C385.336 216.737 396.128 212.094 406.621 206.849C417.109 201.604 427.302 195.75 436.939 189.082L437.517 189.916C427.808 196.582 417.555 202.421 407.018 207.643C396.475 212.866 385.644 217.479 374.67 221.694C363.693 225.908 352.571 229.725 341.384 233.325C330.196 236.925 318.942 240.306 307.667 243.615C285.119 250.23 262.491 256.569 240.068 263.585C217.649 270.602 195.412 278.282 173.812 287.541Z" fill="white"/>
<path d="M190.181 287.369C210.575 279.304 231.441 272.491 252.44 266.186C273.442 259.877 294.595 254.088 315.66 248.009C326.193 244.967 336.702 241.85 347.147 238.533C357.591 235.214 367.972 231.694 378.218 227.819C388.462 223.941 398.573 219.705 408.42 214.925C418.264 210.145 427.848 204.817 436.946 198.75L437.51 199.593C428.342 205.655 418.699 210.967 408.808 215.722C398.912 220.478 388.762 224.684 378.487 228.527C368.209 232.371 357.803 235.854 347.34 239.136C336.873 242.416 326.348 245.492 315.802 248.495C294.71 254.494 273.537 260.202 252.514 266.428C231.494 272.652 210.605 279.381 190.181 287.369Z" fill="white"/>
<path d="M207.587 287.369C226.679 280.511 246.102 274.614 265.615 269.079C285.129 263.54 304.746 258.375 324.277 252.909C334.041 250.173 343.785 247.362 353.468 244.363C363.151 241.364 372.777 238.18 382.285 234.675C391.791 231.169 401.18 227.343 410.343 223.035C419.503 218.725 428.437 213.927 436.955 208.471L437.503 209.325C428.919 214.773 419.927 219.553 410.722 223.839C401.513 228.124 392.086 231.918 382.548 235.391C373.01 238.862 363.359 242.009 353.655 244.971C343.951 247.931 334.192 250.704 324.413 253.399C304.854 258.783 285.218 263.867 265.684 269.324C246.15 274.776 226.706 280.59 207.587 287.369Z" fill="white"/>
<path d="M226.822 287.369C244.439 281.675 262.271 276.674 280.157 271.899C298.044 267.121 315.991 262.581 333.855 257.73C342.787 255.304 351.695 252.794 360.552 250.119C369.409 247.443 378.213 244.594 386.916 241.467C395.617 238.337 404.215 234.923 412.623 231.088C421.027 227.253 429.242 222.994 437.107 218.163L437.639 219.027C429.709 223.849 421.441 228.087 412.991 231.897C404.539 235.706 395.903 239.088 387.172 242.184C378.441 245.28 369.612 248.09 360.736 250.728C351.859 253.367 342.935 255.836 333.99 258.223C316.099 262.993 298.131 267.451 280.224 272.147C262.317 276.837 244.465 281.755 226.822 287.369Z" fill="white"/>
<path d="M248.451 287.369C264.345 282.792 280.366 278.664 296.408 274.642C312.45 270.616 328.522 266.707 344.51 262.482C352.503 260.368 360.474 258.173 368.401 255.828C376.325 253.482 384.209 250.992 392.003 248.253C399.797 245.513 407.506 242.532 415.057 239.197C422.607 235.863 430.001 232.173 437.117 228.006L437.63 228.881C430.452 233.035 423.007 236.702 415.415 240.009C407.821 243.315 400.076 246.264 392.254 248.968C384.43 251.674 376.525 254.127 368.581 256.435C360.635 258.741 352.647 260.897 344.641 262.97C328.625 267.115 312.533 270.941 296.471 274.886C280.406 278.827 264.368 282.873 248.451 287.369Z" fill="white"/>
<path d="M275.538 286.793C289.226 283.333 302.969 280.094 316.708 276.847C330.447 273.597 344.186 270.349 357.845 266.792C371.5 263.228 385.087 259.372 398.415 254.761C405.077 252.45 411.67 249.945 418.146 247.166C424.618 244.386 430.974 241.332 437.126 237.915L437.62 238.802C431.411 242.203 425.007 245.232 418.494 247.982C411.979 250.732 405.353 253.204 398.663 255.48C385.278 260.022 371.655 263.798 357.971 267.283C344.283 270.761 330.523 273.928 316.764 277.095C303.006 280.26 289.245 283.416 275.538 286.793Z" fill="white"/>
<path d="M304.817 286.788C316.055 284.254 327.307 281.781 338.541 279.233C349.776 276.683 360.992 274.059 372.137 271.157C383.279 268.252 394.356 265.085 405.24 261.349C416.115 257.604 426.81 253.289 436.992 247.968L437.461 248.867C427.178 254.144 416.414 258.394 405.486 262.068C394.549 265.733 383.435 268.823 372.262 271.648C361.088 274.469 349.848 277.012 338.596 279.48C327.342 281.947 316.073 284.335 304.817 286.788Z" fill="white"/>
<path d="M339.573 286.66C347.893 284.902 356.207 283.11 364.496 281.21C372.784 279.309 381.048 277.301 389.254 275.084C397.458 272.862 405.606 270.431 413.626 267.637C421.643 264.841 429.536 261.681 437.151 257.951L437.595 258.863C429.897 262.54 421.94 265.633 413.874 268.356C405.804 271.077 397.619 273.431 389.385 275.573C381.149 277.713 372.862 279.639 364.553 281.458C356.243 283.275 347.911 284.985 339.573 286.66Z" fill="white"/>
</g>
</g>
<defs>
<clipPath id="clip0_22_1182">
<rect x="-49" y="-2" width="487" height="290" fill="white"/>
</clipPath>
</defs>
</svg>
