<svg width="38" height="36" viewBox="0 0 38 36" fill="none" xmlns="http://www.w3.org/2000/svg">
<path fill-rule="evenodd" clip-rule="evenodd" d="M10.1574 2.75061C10.4064 2.93585 10.686 3.18507 11.0077 3.48608C11.6969 4.1287 12.4964 5.15827 13.1825 6.14667C13.8763 7.14614 14.5192 8.1983 14.8795 8.93062L14.8798 8.93109L14.88 8.93155C15.0842 9.34765 15.2683 9.72471 15.3977 10.0552C15.5291 10.3908 15.6383 10.7599 15.639 11.1627C15.6405 12.006 15.1574 12.6568 14.692 13.257C14.5583 13.4295 14.4447 13.5708 14.3468 13.6926C14.1358 13.9551 13.9975 14.1272 13.8867 14.3262C13.7787 14.5204 13.7472 14.6605 13.7983 14.8862C13.872 15.2116 14.1926 15.9238 14.815 16.8556C15.417 17.7567 16.2411 18.7731 17.2259 19.7031C18.2104 20.6328 19.2662 21.393 20.1984 21.9431C21.159 22.5099 21.8987 22.8009 22.2521 22.8723C22.498 22.922 22.6515 22.8909 22.8569 22.7896C23.0735 22.6828 23.2662 22.5434 23.5659 22.3267C23.6837 22.2415 23.818 22.1444 23.9767 22.0326L23.977 22.0324L23.989 22.024C24.6247 21.5765 25.3311 21.0793 26.2265 21.0802C26.6688 21.0806 27.0659 21.1989 27.4155 21.3341C27.7495 21.4633 28.1332 21.6465 28.5542 21.8473L28.5894 21.8642C29.3272 22.2166 30.4242 22.8137 31.4861 23.4646C32.5293 24.104 33.6301 24.8504 34.3155 25.5046L34.3165 25.5056C34.6351 25.8104 34.8989 26.0753 35.0949 26.3111C35.2846 26.5393 35.4929 26.8346 35.5807 27.2018C35.6797 27.6155 35.59 27.9596 35.498 28.1983C35.4566 28.3059 35.4077 28.4092 35.3726 28.4831C35.3671 28.4947 35.3617 28.5059 35.3565 28.5169C35.3239 28.5854 35.2954 28.6453 35.2652 28.7137L35.2645 28.7154L35.2638 28.717C34.9536 29.4139 34.5762 30.0823 34.1365 30.7135L34.1352 30.7154L34.1339 30.7173C33.2748 31.9401 32.4665 32.739 31.2102 33.2934C30.5573 33.5815 29.6245 33.8725 28.1749 33.7012C26.7805 33.5365 24.9665 32.9517 22.4906 31.638L22.49 31.6377C18.5281 29.5326 15.7791 27.7179 12.2329 24.3677C8.69711 21.0273 6.95919 18.8472 4.52463 14.6573C2.07372 10.4391 2.07723 7.83796 2.77715 6.42103C3.36482 5.23135 4.21661 4.46918 5.50303 3.6595L5.50556 3.6579L5.50811 3.65632C6.17518 3.24111 6.881 2.88464 7.6167 2.59139L7.61913 2.59042L7.62156 2.58946C7.69437 2.5608 7.75805 2.53376 7.83086 2.50284C7.84228 2.49799 7.85392 2.49304 7.86586 2.48798C7.94409 2.45481 8.0532 2.4087 8.16672 2.36964C8.41834 2.28305 8.78089 2.19847 9.21673 2.29157C9.60423 2.37435 9.91598 2.57098 10.1574 2.75061ZM8.53554 4.66619C7.93522 4.90563 7.35923 5.19651 6.81475 5.5352C5.728 6.2195 5.26212 6.69883 4.92826 7.37471C4.70638 7.82388 4.29576 9.59754 6.60524 13.5722C8.93107 17.5751 10.533 19.5842 13.9099 22.7745C17.2763 25.9547 19.8427 27.6514 23.6512 29.6749C25.9818 30.9115 27.4927 31.3532 28.4687 31.4685C29.3894 31.5773 29.8723 31.4017 30.2073 31.2539C30.9263 30.9366 31.4346 30.4983 32.1557 29.4723C32.5141 28.9574 32.8218 28.4123 33.0748 27.8441C33.109 27.7667 33.1424 27.6953 33.1707 27.6356C33.06 27.5111 32.8904 27.3389 32.6294 27.0892C32.1361 26.6185 31.2206 25.9816 30.196 25.3537C29.1901 24.7371 28.1677 24.1826 27.5205 23.8734C27.0533 23.6505 26.7541 23.5086 26.5179 23.4173C26.2881 23.3284 26.2213 23.3302 26.224 23.3302C26.2454 23.3302 26.1721 23.2904 25.3934 23.8385C25.3138 23.8945 25.2278 23.957 25.1368 24.0231C24.7898 24.2751 24.3697 24.5802 23.9535 24.7855C23.3314 25.0922 22.6174 25.2467 21.7567 25.0728C21.0034 24.9206 19.9875 24.4694 18.9427 23.8529C17.8696 23.2196 16.6702 22.3553 15.5492 21.2966C14.4283 20.2381 13.4957 19.0882 12.8081 18.0588C12.141 17.0602 11.6392 16.0779 11.4762 15.3585C11.2906 14.5393 11.4598 13.8628 11.7858 13.277C11.9958 12.8995 12.3098 12.5094 12.5683 12.1884C12.6443 12.094 12.7155 12.0055 12.7779 11.9251C13.2771 11.2811 13.2654 11.1785 13.2641 11.1673C13.264 11.1669 13.264 11.1667 13.264 11.1665C13.264 11.1448 13.2587 11.0617 13.171 10.8377C13.0813 10.6086 12.9416 10.3186 12.7266 9.88053C12.4329 9.2839 11.8573 8.33252 11.1982 7.38295C10.5314 6.42237 9.84365 5.55751 9.34111 5.08913L9.34026 5.08834L9.33941 5.08754C9.07424 4.8394 8.89186 4.67858 8.7602 4.57389C8.69622 4.60099 8.61913 4.63324 8.53554 4.66619Z" fill="#2E3192"/>
</svg>
