<svg width="28" height="21" viewBox="0 0 28 21" fill="none" xmlns="http://www.w3.org/2000/svg">
<path d="M2.125 19.2505L3.83302 14.9904C2.34779 13.1789 1.8131 11.03 2.31808 8.94371C2.82306 6.85737 4.35286 4.98341 6.59557 3.65914C8.83828 2.33488 11.6751 1.66025 14.5416 1.76019C17.423 1.86014 20.1409 2.72216 22.2203 4.18385C24.2996 5.64554 25.5769 7.61944 25.8294 9.73077C26.0819 11.8421 25.2799 13.9409 23.5718 15.6525C21.8787 17.364 19.3835 18.5509 16.5764 19.0131C13.7693 19.4754 10.8285 19.163 8.30359 18.1511L2.125 19.2505Z" fill="white" stroke="white" stroke-width="3" stroke-linecap="round" stroke-linejoin="round"/>
<path d="M14.3481 10.9426V10.9551" stroke="#1F98A7" stroke-width="3" stroke-linecap="round" stroke-linejoin="round"/>
<path d="M9.07544 10.9426V10.9551" stroke="#1F98A7" stroke-width="3" stroke-linecap="round" stroke-linejoin="round"/>
<path d="M19.6206 10.9426V10.9551" stroke="#1F98A7" stroke-width="3" stroke-linecap="round" stroke-linejoin="round"/>
</svg>
