<svg width="47" height="47" viewBox="0 0 47 47" fill="none" xmlns="http://www.w3.org/2000/svg">
<circle cx="23.5" cy="23.5005" r="23.5" fill="white"/>
<path d="M23.493 23.511V23.521M19.4961 23.511V23.521M27.4899 23.511V23.521M14.5 31.5005L15.799 27.6056C14.6763 25.9461 14.2702 23.9808 14.6561 22.0752C15.042 20.1696 16.1937 18.4533 17.8971 17.2455C19.6005 16.0377 21.7396 15.4206 23.9168 15.5088C26.0939 15.597 28.1609 16.3846 29.7334 17.7252C31.306 19.0658 32.277 20.868 32.4661 22.7969C32.6551 24.7258 32.0493 26.6501 30.7612 28.2119C29.4731 29.7738 27.5905 30.8669 25.4633 31.2881C23.3361 31.7093 21.1091 31.4299 19.1963 30.5018L14.5 31.5005Z" stroke="black" stroke-width="1.6" stroke-linecap="round" stroke-linejoin="round"/>
</svg>
