<svg width="27" height="27" viewBox="0 0 27 27" fill="none" xmlns="http://www.w3.org/2000/svg">
<path d="M13.5 0.000488281C6.05618 0.000488281 0 6.05667 0 13.5005C0 20.9443 6.05618 27.0005 13.5 27.0005C20.9438 27.0005 27 20.9443 27 13.5005C27 6.05667 20.9438 0.000488281 13.5 0.000488281ZM18.3879 16.9203C18.4884 17.0157 18.5688 17.1304 18.6243 17.2574C18.6797 17.3844 18.7092 17.5212 18.711 17.6598C18.7128 17.7984 18.6868 17.936 18.6346 18.0644C18.5824 18.1928 18.505 18.3094 18.4069 18.4074C18.3089 18.5054 18.1923 18.5828 18.0639 18.6351C17.9355 18.6873 17.798 18.7133 17.6594 18.7115C17.5208 18.7097 17.3839 18.6802 17.2569 18.6247C17.1299 18.5692 17.0153 18.4889 16.9198 18.3884L13.5 14.9693L10.0802 18.3884C9.88388 18.5749 9.62245 18.6774 9.35166 18.6739C9.08087 18.6704 8.82214 18.5613 8.63065 18.3698C8.43916 18.1783 8.33004 17.9196 8.32658 17.6488C8.32311 17.378 8.42556 17.1166 8.61209 16.9203L12.0312 13.5005L8.61209 10.0807C8.42556 9.88437 8.32311 9.62294 8.32658 9.35215C8.33004 9.08136 8.43916 8.82263 8.63065 8.63114C8.82214 8.43965 9.08087 8.33053 9.35166 8.32707C9.62245 8.3236 9.88388 8.42605 10.0802 8.61258L13.5 12.0317L16.9198 8.61258C17.1161 8.42605 17.3776 8.3236 17.6483 8.32707C17.9191 8.33053 18.1779 8.43965 18.3694 8.63114C18.5608 8.82263 18.67 9.08136 18.6734 9.35215C18.6769 9.62294 18.5744 9.88437 18.3879 10.0807L14.9688 13.5005L18.3879 16.9203Z" fill="#2E3192"/>
</svg>
