<svg width="16" height="18" viewBox="0 0 16 18" fill="none" xmlns="http://www.w3.org/2000/svg">
<path d="M3 18.0005C2.45 18.0005 1.97933 17.8048 1.588 17.4135C1.196 17.0215 1 16.5505 1 16.0005V3.00049C0.716667 3.00049 0.479 2.90482 0.287 2.71349C0.0956668 2.52149 0 2.28382 0 2.00049C0 1.71715 0.0956668 1.47949 0.287 1.28749C0.479 1.09616 0.716667 1.00049 1 1.00049H5C5 0.717155 5.096 0.479488 5.288 0.287488C5.47933 0.0961549 5.71667 0.000488281 6 0.000488281H10C10.2833 0.000488281 10.521 0.0961549 10.713 0.287488C10.9043 0.479488 11 0.717155 11 1.00049H15C15.2833 1.00049 15.5207 1.09616 15.712 1.28749C15.904 1.47949 16 1.71715 16 2.00049C16 2.28382 15.904 2.52149 15.712 2.71349C15.5207 2.90482 15.2833 3.00049 15 3.00049V16.0005C15 16.5505 14.8043 17.0215 14.413 17.4135C14.021 17.8048 13.55 18.0005 13 18.0005H3ZM3 3.00049V16.0005H13V3.00049H3ZM5 13.0005C5 13.2838 5.096 13.5212 5.288 13.7125C5.47933 13.9045 5.71667 14.0005 6 14.0005C6.28333 14.0005 6.521 13.9045 6.713 13.7125C6.90433 13.5212 7 13.2838 7 13.0005V6.00049C7 5.71715 6.90433 5.47949 6.713 5.28749C6.521 5.09615 6.28333 5.00049 6 5.00049C5.71667 5.00049 5.47933 5.09615 5.288 5.28749C5.096 5.47949 5 5.71715 5 6.00049V13.0005ZM9 13.0005C9 13.2838 9.096 13.5212 9.288 13.7125C9.47933 13.9045 9.71667 14.0005 10 14.0005C10.2833 14.0005 10.521 13.9045 10.713 13.7125C10.9043 13.5212 11 13.2838 11 13.0005V6.00049C11 5.71715 10.9043 5.47949 10.713 5.28749C10.521 5.09615 10.2833 5.00049 10 5.00049C9.71667 5.00049 9.47933 5.09615 9.288 5.28749C9.096 5.47949 9 5.71715 9 6.00049V13.0005Z" fill="#FC4C4C"/>
</svg>
