<svg width="30" height="30" viewBox="0 0 30 30" fill="none" xmlns="http://www.w3.org/2000/svg">
<g clip-path="url(#clip0_564_2937)">
<path fill-rule="evenodd" clip-rule="evenodd" d="M6.54427 2.43307C1.42915 5.95015 -1.17903 12.4511 0.51212 18.8082C2.65583 26.8609 10.8793 31.6362 18.8825 29.4792C25.4208 27.7177 29.7856 21.8699 29.9941 15.3989C29.0889 20.7135 25.2124 25.2731 19.6983 26.759C12.1477 28.7962 4.3827 24.2845 2.35809 16.6871C0.946816 11.3486 2.73324 5.90821 6.54427 2.43307Z" fill="#4F6466"/>
<path fill-rule="evenodd" clip-rule="evenodd" d="M23.3069 23.2599C27.6241 20.2941 29.8214 14.8118 28.3922 9.44328C26.5879 2.64879 19.6447 -1.38356 12.892 0.437889C7.37198 1.92381 3.69195 6.8609 3.51331 12.3193C4.27551 7.83753 7.54467 3.98492 12.2013 2.73268C18.5729 1.01308 25.1231 4.81776 26.8321 11.2348C28.029 15.7405 26.5224 20.33 23.3069 23.2599Z" fill="#22C7B8"/>
<path fill-rule="evenodd" clip-rule="evenodd" d="M17.3879 18.0353C18.3883 17.9034 19.3351 17.3762 20.1985 16.4475C20.3295 16.3157 20.3831 16.1299 20.3533 15.9741C21.4847 14.5961 22.1695 12.6967 22.1695 11.2408C22.1695 8.99392 21.0917 8.75425 19.3291 8.38277H19.3053C19.1981 8.17306 18.9897 8.01129 18.7277 8.01129C18.3347 8.01129 18.0429 8.30488 18.0429 8.67037C18.0429 9.01189 18.3347 9.28151 18.7277 9.28151C18.8587 9.28151 19.0195 9.22759 19.1207 9.1497C20.8535 9.52118 21.3299 9.62903 21.3299 11.2408C21.3299 12.511 20.6689 14.2306 19.6983 15.4708C19.5137 15.4708 19.3589 15.5487 19.2517 15.6806C18.7277 16.2078 17.9357 16.8729 16.9651 16.8729C16.0183 16.8729 15.2025 16.2138 14.7023 15.6806C14.5951 15.5487 14.4105 15.4948 14.2557 15.4708C13.285 14.2306 12.6241 12.511 12.6241 11.2408C12.6241 9.62903 13.0707 9.52118 14.8035 9.1497C14.9345 9.22759 15.0655 9.28151 15.2263 9.28151C15.5955 9.28151 15.9051 9.01788 15.9051 8.67037C15.9051 8.29889 15.5895 8.01129 15.2263 8.01129C14.9643 8.01129 14.7261 8.16707 14.6189 8.38277C12.8325 8.75425 11.7547 8.98792 11.7547 11.2408C11.7547 12.6967 12.4633 14.5961 13.5947 15.9981C13.5709 16.1299 13.6245 16.3157 13.7257 16.4475C14.5951 17.3702 15.5121 17.9034 16.4827 18.0353L16.4589 20.8633C16.4589 22.8226 14.7737 24.4043 12.7015 24.4043C10.6233 24.4043 8.92021 22.8166 8.92021 20.8633V18.3768C10.129 18.191 11.0461 17.2144 11.0461 16.0221C11.0461 14.7279 9.89083 13.6434 8.49742 13.6434C7.10401 13.6434 5.94879 14.7279 5.94879 16.0221C5.94879 17.2144 6.86582 18.191 8.07464 18.3768V20.8633C8.07464 23.2719 10.1528 25.2012 12.7015 25.2012C15.2501 25.2012 17.3283 23.2719 17.3283 20.8633V18.0353H17.3879Z" fill="#4F6466"/>
<path fill-rule="evenodd" clip-rule="evenodd" d="M8.50892 17.6398C9.43191 17.6398 10.1941 16.9268 10.1941 16.0281C10.1941 15.1593 9.43191 14.4403 8.50892 14.4403C7.56212 14.4403 6.82969 15.1533 6.82969 16.0281C6.82373 16.9268 7.56212 17.6398 8.50892 17.6398Z" fill="#22C7B8"/>
</g>
<defs>
<clipPath id="clip0_564_2937">
<rect width="30" height="30" fill="white" transform="translate(0 0.000488281)"/>
</clipPath>
</defs>
</svg>
