<svg width="20" height="20" viewBox="0 0 20 20" fill="none" xmlns="http://www.w3.org/2000/svg">
<path opacity="0.2" d="M17.5682 7.25272C17.5682 7.03446 17.485 6.84559 17.3185 6.68609C17.1521 6.5266 16.955 6.44685 16.7273 6.44685C16.4995 6.44685 16.3024 6.5266 16.136 6.68609C15.9696 6.84559 15.8864 7.03446 15.8864 7.25272C15.8864 7.47098 15.9696 7.65985 16.136 7.81935C16.3024 7.97884 16.4995 8.05859 16.7273 8.05859C16.955 8.05859 17.1521 7.97884 17.3185 7.81935C17.485 7.65985 17.5682 7.47098 17.5682 7.25272ZM19.25 7.25272C19.25 7.77318 19.0945 8.23907 18.7836 8.6504C18.4726 9.06173 18.0675 9.35554 17.5682 9.53182V14.5056C17.5682 15.8403 16.9922 16.9798 15.8404 17.9242C14.6885 18.8686 13.3023 19.3408 11.6818 19.3408C10.0613 19.3408 8.67513 18.8686 7.52326 17.9242C6.37139 16.9798 5.79545 15.8403 5.79545 14.5056V12.8434C4.3589 12.6756 3.15885 12.1383 2.19531 11.2317C1.23177 10.3251 0.75 9.2674 0.75 8.05859V1.61162C0.75 1.39336 0.833215 1.20449 0.999645 1.04499C1.16607 0.885497 1.36316 0.805749 1.59091 0.805749C1.64347 0.805749 1.71354 0.814144 1.80114 0.830933C1.95005 0.579098 2.15589 0.37763 2.41868 0.226529C2.68146 0.0754284 2.96615 -0.00012207 3.27273 -0.00012207C3.73698 -0.00012207 4.13335 0.157275 4.46183 0.472068C4.79031 0.786862 4.95455 1.16671 4.95455 1.61162C4.95455 2.05653 4.79031 2.43638 4.46183 2.75117C4.13335 3.06597 3.73698 3.22336 3.27273 3.22336C2.98366 3.22336 2.70336 3.14781 2.43182 2.99671V8.05859C2.43182 8.94841 2.84351 9.70811 3.6669 10.3377C4.49029 10.9673 5.48011 11.2821 6.63636 11.2821C7.79261 11.2821 8.78243 10.9673 9.60582 10.3377C10.4292 9.70811 10.8409 8.94841 10.8409 8.05859V2.99671C10.5694 3.14781 10.2891 3.22336 10 3.22336C9.53575 3.22336 9.13938 3.06597 8.8109 2.75117C8.48242 2.43638 8.31818 2.05653 8.31818 1.61162C8.31818 1.16671 8.48242 0.786862 8.8109 0.472068C9.13938 0.157275 9.53575 -0.00012207 10 -0.00012207C10.3066 -0.00012207 10.5913 0.0754284 10.854 0.226529C11.1168 0.37763 11.3227 0.579098 11.4716 0.830933C11.5592 0.814144 11.6293 0.805749 11.6818 0.805749C11.9096 0.805749 12.1067 0.885497 12.2731 1.04499C12.4395 1.20449 12.5227 1.39336 12.5227 1.61162V8.05859C12.5227 9.2674 12.041 10.3251 11.0774 11.2317C10.1139 12.1383 8.91383 12.6756 7.47727 12.8434V14.5056C7.47727 15.3954 7.88897 16.1551 8.71236 16.7847C9.53575 17.4143 10.5256 17.729 11.6818 17.729C12.8381 17.729 13.8279 17.4143 14.6513 16.7847C15.4747 16.1551 15.8864 15.3954 15.8864 14.5056V9.53182C15.3871 9.35554 14.9819 9.06173 14.671 8.6504C14.36 8.23907 14.2045 7.77318 14.2045 7.25272C14.2045 6.58116 14.4498 6.01033 14.9403 5.54024C15.4309 5.07015 16.0265 4.8351 16.7273 4.8351C17.428 4.8351 18.0237 5.07015 18.5142 5.54024C19.0047 6.01033 19.25 6.58116 19.25 7.25272Z" fill="black"/>
</svg>
