<svg width="15" height="15" viewBox="0 0 15 15" fill="none" xmlns="http://www.w3.org/2000/svg">
<path d="M1.6415 13.3567H2.79054L9.86948 6.26761L8.72043 5.11693L1.6415 12.206V13.3567ZM13.3782 5.07583L9.89 1.62378L11.039 0.473091C11.3537 0.158023 11.7402 0.000488281 12.1988 0.000488281C12.6573 0.000488281 13.0436 0.158023 13.3577 0.473091L14.5067 1.62378C14.8213 1.93884 14.9855 2.31912 14.9991 2.7646C15.0128 3.21008 14.8624 3.59008 14.5477 3.9046L13.3782 5.07583ZM0.820749 15.0005C0.588205 15.0005 0.39314 14.9216 0.235557 14.7638C0.0779737 14.606 -0.000544324 14.4109 2.83995e-06 14.1786V11.8567C2.83995e-06 11.7471 0.0205215 11.6408 0.0615589 11.5377C0.102596 11.4347 0.164152 11.3424 0.246227 11.2608L8.69992 2.79501L12.1881 6.28816L3.7344 14.7539C3.65232 14.8361 3.56013 14.8977 3.45781 14.9388C3.35549 14.9799 3.24934 15.0005 3.13936 15.0005H0.820749ZM9.29496 5.69227L8.72043 5.11693L9.86948 6.26761L9.29496 5.69227Z" fill="white"/>
</svg>
