<svg width="19" height="15" viewBox="0 0 19 15" fill="none" xmlns="http://www.w3.org/2000/svg">
<path opacity="0.4" d="M0.863636 1.05833L1.96909 0L16.4091 13.9333L15.3123 15L12.6523 12.4333C11.6591 12.75 10.6055 12.9167 9.5 12.9167C5.18182 12.9167 1.49409 10.325 0 6.66667C0.595909 5.2 1.54591 3.90833 2.755 2.88333L0.863636 1.05833ZM9.5 4.16667C10.1872 4.16667 10.8462 4.43006 11.3321 4.8989C11.8179 5.36774 12.0909 6.00363 12.0909 6.66667C12.0913 6.95047 12.0417 7.23228 11.9441 7.5L8.63636 4.30833C8.91382 4.21415 9.20587 4.16625 9.5 4.16667ZM9.5 0.416667C13.8182 0.416667 17.5059 3.00833 19 6.66667C18.2951 8.39434 17.0974 9.89393 15.5455 10.9917L14.3191 9.8C15.5134 9.00282 16.4766 7.92421 17.1173 6.66667C16.4191 5.29162 15.3351 4.13314 13.9886 3.32292C12.642 2.5127 11.0869 2.08323 9.5 2.08333C8.55864 2.08333 7.63455 2.23333 6.77091 2.5L5.44091 1.225C6.68455 0.708333 8.05773 0.416667 9.5 0.416667ZM1.88273 6.66667C2.58092 8.04172 3.6649 9.20019 5.01145 10.0104C6.358 10.8206 7.9131 11.2501 9.5 11.25C10.0959 11.25 10.6832 11.1917 11.2273 11.075L9.25818 9.16667C8.65723 9.10451 8.09644 8.84573 7.66907 8.43335C7.2417 8.02098 6.97351 7.47986 6.90909 6.9L3.97273 4.05833C3.11773 4.76667 2.40091 5.65 1.88273 6.66667Z" fill="black"/>
</svg>
