<svg width="44" height="44" viewBox="0 0 44 44" fill="none" xmlns="http://www.w3.org/2000/svg">
<circle cx="22" cy="22.0005" r="22" fill="#F8F9FA"/>
<g clip-path="url(#clip0_1014_15)">
<path d="M11.0698 13.4974C11.9043 13.7419 12.7321 13.9841 13.5777 14.2316C12.0918 15.2534 10.6186 16.2671 9.13347 17.289C8.42379 15.6328 7.71633 13.9811 7 12.31C7.13293 12.3473 7.25256 12.3801 7.37219 12.4151C8.12914 12.6358 8.88682 12.8556 9.64303 13.0807C9.7154 13.1024 9.74272 13.0822 9.77891 13.0271C10.6902 11.6206 11.7972 10.393 13.1043 9.35322C13.54 9.00663 14.0015 8.6906 14.4675 8.3865C15.7495 7.5517 17.1342 6.94573 18.6052 6.541C19.2677 6.35914 19.9397 6.22795 20.6206 6.13329C21.5104 6.01031 22.4033 5.97826 23.2983 6.01329C24.3964 6.05652 25.4776 6.22199 26.5417 6.50448C27.9441 6.87716 29.2667 7.43766 30.5118 8.18674C31.6852 8.89259 32.7442 9.74528 33.6917 10.7381C35.5276 12.6611 36.7867 14.9158 37.4801 17.491C37.6765 18.2222 37.8117 18.966 37.8966 19.7196C37.997 20.6125 38.0273 21.507 37.9742 22.4036C37.8457 24.548 37.308 26.5821 36.3443 28.5006C35.385 30.4109 34.0846 32.0455 32.4584 33.4177C31.062 34.5961 29.5023 35.4883 27.789 36.1062C26.8194 36.4558 25.8232 36.6995 24.8026 36.8463C23.9031 36.9753 23 37.0215 22.0938 36.9902C20.5777 36.938 19.0993 36.6667 17.6637 36.1673C15.8529 35.5375 14.212 34.6051 12.7491 33.3566C11.0373 31.8949 9.69398 30.1456 8.74208 28.0951C8.54638 27.674 8.38465 27.2357 8.21554 26.8027C7.90538 26.0104 7.70008 25.1868 7.54278 24.352C7.47927 24.0151 7.4357 23.6744 7.38106 23.3211C7.58192 23.3211 7.76285 23.3211 7.94378 23.3211C8.17566 23.3204 8.40755 23.3211 8.63943 23.3182C8.70146 23.3174 8.72509 23.3375 8.73322 23.4024C8.827 24.1552 8.98947 24.8931 9.2088 25.6183C9.71318 27.2849 10.496 28.8062 11.5564 30.1814C12.4234 31.3054 13.4329 32.2773 14.5879 33.0972C16.1262 34.1899 17.8158 34.9345 19.6509 35.3437C20.2521 35.4779 20.8606 35.5643 21.475 35.6165C22.209 35.6791 22.9431 35.6866 23.6764 35.6299C25.8534 35.4622 27.8865 34.8234 29.7674 33.7002C31.155 32.8714 32.3669 31.8331 33.4015 30.5846C34.6443 29.085 35.5445 27.4005 36.0991 25.5266C36.3281 24.7515 36.4891 23.9629 36.5829 23.1602C36.6759 22.3582 36.6973 21.5539 36.656 20.7467C36.5592 18.855 36.0977 17.0587 35.2868 15.3526C35.0217 14.7943 34.7263 14.2524 34.3866 13.7389C33.1799 11.9165 31.6594 10.4191 29.78 9.31148C29.2254 8.98427 28.6471 8.6906 28.0593 8.43047C27.0897 8.0019 26.0735 7.71792 25.0293 7.53829C24.0951 7.37804 23.1565 7.31021 22.209 7.34077C19.9604 7.41158 17.852 7.99519 15.881 9.08862C14.4424 9.8869 13.1804 10.9103 12.1014 12.158C11.7551 12.5582 11.4486 12.9928 11.1237 13.4124C11.103 13.4385 11.089 13.4668 11.0698 13.4974Z" fill="#2E3192"/>
</g>
<mask id="path-3-outside-1_1014_15" maskUnits="userSpaceOnUse" x="11" y="15.4401" width="23" height="14" fill="black">
<rect fill="white" x="11" y="15.4401" width="23" height="14"/>
<path d="M29.2144 27.4052C29.013 27.5238 28.8166 27.6305 28.6287 27.749C28.3239 27.9438 27.9955 28.0387 27.6315 28.0387C25.9639 28.0353 24.2963 28.0404 22.6287 28.0438C22.2376 28.0438 21.8482 28.0302 21.4706 27.9049C21.0576 27.7677 20.6902 27.5593 20.3719 27.2646C19.632 26.5803 18.8922 25.896 18.1591 25.2066C17.851 24.9169 17.5581 24.612 17.2601 24.3122C17.1992 24.2512 17.1366 24.2224 17.0468 24.2224C15.4486 24.2258 13.8504 24.2241 12.2505 24.2241C12.0812 24.2241 12 24.1428 12 23.9717C12 23.572 12.0034 23.1706 12.0034 22.7708C12.0034 21.4632 12 20.1555 12 18.8478C12 17.9941 11.9983 17.1404 12.0017 16.2867C12.0017 16.2224 12.0135 16.1512 12.044 16.0953C12.0863 16.0174 12.1676 16.0022 12.2539 16.0022C13.7133 16.0039 15.171 16.0039 16.6303 16.0039C19.8504 16.0039 23.0688 16.0056 26.2889 16.0005C26.4735 16.0005 26.57 16.0987 26.57 16.2766C26.5649 17.862 26.5683 19.4475 26.5683 21.0329C26.5683 21.082 26.5683 21.1329 26.5683 21.1938C27.0322 21.1752 27.4893 21.1667 27.9396 21.2785C28.3883 21.3903 28.7861 21.619 29.2128 21.7968C29.2212 21.7308 29.2263 21.6681 29.2381 21.6071C29.3262 21.1701 29.7088 20.8466 30.1541 20.8432C30.7923 20.8381 31.4306 20.8381 32.0688 20.8432C32.5327 20.8466 32.9441 21.2125 32.9814 21.6732C33.0085 22.0069 32.9932 22.344 32.9966 22.6793C33 22.9165 33 23.1502 33 23.3857C33 24.6628 33 25.94 32.9983 27.2172C32.9983 27.3764 33 27.539 32.9678 27.6931C32.8832 28.0929 32.5717 28.3707 32.1687 28.4215C32.0418 28.4367 31.9131 28.4384 31.7844 28.4401C31.2579 28.4401 30.7314 28.4401 30.2049 28.4401C29.7122 28.4401 29.3245 28.1217 29.2314 27.6389C29.2178 27.5678 29.2212 27.4933 29.2144 27.4052ZM17.8138 24.2224C17.8408 24.2529 17.8544 24.2665 17.8679 24.28C18.1981 24.6002 18.5231 24.9237 18.8566 25.2371C19.4831 25.8248 20.1078 26.4143 20.7477 26.9885C21.1591 27.3578 21.6535 27.5542 22.2088 27.5813C22.434 27.5932 22.6608 27.5881 22.8877 27.5898C23.6902 27.5915 24.4927 27.5932 25.2968 27.5932C26.0892 27.5949 26.8798 27.5966 27.6721 27.5983C27.8804 27.5983 28.0751 27.5458 28.2545 27.4424C28.5525 27.2714 28.8471 27.0952 29.145 26.9241C29.1992 26.8936 29.2212 26.8598 29.2212 26.7937C29.2195 25.752 29.2195 24.7103 29.2195 23.6685C29.2195 23.24 29.2195 22.8115 29.2178 22.3829C29.2178 22.3507 29.2026 22.2982 29.1806 22.2881C28.8081 22.117 28.4374 21.9408 28.0564 21.7884C27.6162 21.6122 27.149 21.6241 26.6834 21.6393C26.6462 21.641 26.6072 21.6444 26.57 21.6461C26.57 22.0238 26.57 22.3931 26.57 22.7657C26.9898 22.759 27.3928 22.8216 27.7855 22.991C27.7161 23.1282 27.6501 23.2569 27.5841 23.3874C27.5621 23.3823 27.5468 23.3789 27.5316 23.3721C27.2607 23.2637 26.978 23.2163 26.6885 23.2163C26.1129 23.2163 25.5813 23.3789 25.0937 23.6821C24.7839 23.8752 24.5316 24.1191 24.4283 24.4901C24.386 24.6425 24.1761 24.6764 24.0626 24.5612C24.0169 24.5155 23.9763 24.4664 23.934 24.4172C23.3753 23.7803 22.8183 23.1418 22.2596 22.5049C21.9548 22.1576 21.6484 21.8121 21.3437 21.4665C21.2235 21.3293 21.0829 21.2226 20.912 21.1549C20.4938 20.9889 20.0485 21.1396 19.8504 21.5174C19.6778 21.846 19.7709 22.3287 20.0502 22.5997C20.1687 22.7149 20.2703 22.8453 20.3787 22.969C21.1862 23.8837 21.9938 24.7967 22.803 25.7113C22.9063 25.8282 23.013 25.9451 23.1146 26.0637C23.1907 26.1534 23.1907 26.2601 23.123 26.3482C23.0587 26.4329 22.9469 26.4719 22.8555 26.416C22.7878 26.3753 22.7319 26.311 22.6794 26.2517C22.1004 25.5978 21.5214 24.944 20.9458 24.2885C20.9035 24.2394 20.8595 24.2224 20.7951 24.2224C20.0587 24.2241 19.3222 24.2241 18.5858 24.2224C18.3369 24.2224 18.0863 24.2224 17.8138 24.2224ZM26.1162 16.4595C21.5536 16.4595 17.0045 16.4595 12.4503 16.4595C12.4503 18.9004 12.4503 21.3344 12.4503 23.7753C15.1303 23.7753 17.8019 23.7753 20.4904 23.7753C20.2703 23.528 20.0638 23.2942 19.8538 23.0621C19.8301 23.035 19.7844 23.0147 19.7489 23.0147C19.544 23.0096 19.3408 23.013 19.136 23.013C18.0609 23.013 16.9859 23.013 15.9108 23.013C15.5959 23.013 15.386 22.7589 15.4215 22.4473C15.4368 22.3169 15.4317 22.1763 15.4029 22.0475C15.2743 21.4479 14.7833 21.0515 14.1704 21.0363C13.7641 21.0278 13.4644 20.7416 13.4594 20.352C13.456 20.1199 13.456 19.8862 13.4594 19.6541C13.4644 19.3323 13.6794 19.0562 13.9926 18.9867C14.1162 18.9596 14.2483 18.9647 14.3753 18.9461C14.9678 18.8563 15.4283 18.3244 15.4317 17.7265C15.4334 17.4149 15.6366 17.2133 15.9498 17.2133C18.1287 17.2133 20.3059 17.2167 22.4848 17.2099C22.7963 17.2099 23.0147 17.4589 23.013 17.735C23.0079 18.1737 23.2043 18.5209 23.5598 18.7733C23.8087 18.9512 24.0914 19.002 24.3945 18.9952C24.7686 18.9867 25.0971 19.3035 25.1072 19.6778C25.114 19.893 25.1123 20.1098 25.1089 20.3249C25.1004 20.706 24.8092 21.0092 24.4266 21.0295C24.2201 21.0397 24.022 21.0786 23.8442 21.1888C23.382 21.475 23.0993 21.8883 22.996 22.4202C22.9774 22.5167 22.9486 22.6201 23.0401 22.7183C23.2551 22.947 23.4565 23.1858 23.6648 23.4212C23.8273 23.6059 23.9898 23.7905 24.1541 23.9768C24.1998 23.9142 24.237 23.8566 24.281 23.8007C24.3267 23.7431 24.3725 23.6872 24.4249 23.6364C24.8787 23.1943 25.4357 22.9605 26.0434 22.8284C26.1061 22.8148 26.1179 22.7911 26.1179 22.7352C26.1162 22.3541 26.1162 21.973 26.1162 21.5936C26.1179 20.8059 26.1213 20.02 26.1213 19.2324C26.1213 18.4227 26.1179 17.613 26.1162 16.8051C26.1162 16.6933 26.1162 16.5781 26.1162 16.4595ZM22.5609 22.1661C22.6541 21.9679 22.7285 21.7647 22.8386 21.5817C23.0993 21.143 23.4582 20.8093 23.9543 20.6535C24.1033 20.6061 24.2658 20.6027 24.4232 20.5773C24.5604 20.5553 24.6535 20.4604 24.6569 20.3215C24.6636 20.1199 24.6653 19.9184 24.6586 19.7168C24.6535 19.5508 24.535 19.4492 24.3691 19.4458C24.2438 19.4424 24.1151 19.4458 23.9932 19.4238C23.1213 19.273 22.5931 18.5379 22.5677 17.8569C22.5609 17.6638 22.5508 17.6655 22.3561 17.6655C20.9086 17.6655 19.461 17.6655 18.0135 17.6655C17.9153 17.6655 17.8171 17.6622 17.7206 17.6622C17.4413 17.6622 17.162 17.6638 16.8826 17.6655C16.5728 17.6655 16.2613 17.6672 15.9515 17.6655C15.904 17.6655 15.8888 17.6808 15.8871 17.7282C15.8854 17.8095 15.882 17.8908 15.8685 17.9704C15.7381 18.7936 15.022 19.4085 14.1907 19.4136C14.0197 19.4153 13.9131 19.5169 13.9114 19.6897C13.9097 19.8946 13.908 20.0979 13.9114 20.3029C13.9131 20.4773 14.0113 20.5773 14.1856 20.5857C14.2551 20.5891 14.3262 20.5857 14.3956 20.5959C14.8459 20.6603 15.2184 20.8686 15.5062 21.2226C15.794 21.5749 15.9125 21.9815 15.8854 22.432C15.877 22.5574 15.8719 22.5574 15.9989 22.5574C16.6236 22.5574 17.2466 22.5574 17.8713 22.5574C18.3775 22.5574 18.8854 22.5574 19.3916 22.5574C19.417 22.5574 19.4441 22.5557 19.4492 22.554C19.395 22.327 19.3425 22.1034 19.2884 21.8765C18.2133 21.9002 17.3803 20.8737 17.553 19.8269C17.6969 18.9563 18.4825 18.2702 19.4577 18.3583C19.9436 18.4024 20.3516 18.6192 20.658 19.002C21.0592 19.5051 21.1388 20.0725 20.9611 20.6891C21.2252 20.767 21.4469 20.9025 21.6298 21.099C21.8126 21.2955 21.9853 21.5021 22.1631 21.7037C22.2934 21.8612 22.4323 22.0187 22.5609 22.1661ZM29.6665 24.6645C29.6665 25.0897 29.6665 25.5148 29.6665 25.9417C29.6665 26.3702 29.6614 26.7988 29.6682 27.2273C29.6749 27.6796 29.9898 27.9879 30.4385 27.9879C30.8854 27.9879 31.3341 27.9896 31.781 27.9879C32.228 27.9862 32.5497 27.6643 32.5497 27.2206C32.5497 26.8733 32.5497 26.5261 32.5497 26.1788C32.5497 24.7967 32.5497 23.4128 32.5497 22.0306C32.5497 21.6461 32.2517 21.3124 31.8725 21.3005C31.3781 21.2853 30.8821 21.2819 30.3877 21.2972C29.9475 21.3107 29.6682 21.6292 29.6682 22.0712C29.6682 22.9351 29.6665 23.799 29.6665 24.6645ZM17.9763 20.1335C17.9831 20.1911 17.9881 20.2758 18.0017 20.3571C18.105 20.977 18.7212 21.4632 19.3459 21.4191C19.3882 21.4157 19.4052 21.4005 19.4238 21.3632C19.6236 20.955 19.9486 20.7094 20.399 20.6467C20.4718 20.6366 20.4989 20.6078 20.5192 20.5485C20.5903 20.3554 20.6089 20.1538 20.5835 19.9539C20.4938 19.2273 19.8183 18.7005 19.0717 18.8241C18.4537 18.9275 17.9763 19.478 17.9763 20.1335Z"/>
</mask>
<path d="M29.2144 27.4052C29.013 27.5238 28.8166 27.6305 28.6287 27.749C28.3239 27.9438 27.9955 28.0387 27.6315 28.0387C25.9639 28.0353 24.2963 28.0404 22.6287 28.0438C22.2376 28.0438 21.8482 28.0302 21.4706 27.9049C21.0576 27.7677 20.6902 27.5593 20.3719 27.2646C19.632 26.5803 18.8922 25.896 18.1591 25.2066C17.851 24.9169 17.5581 24.612 17.2601 24.3122C17.1992 24.2512 17.1366 24.2224 17.0468 24.2224C15.4486 24.2258 13.8504 24.2241 12.2505 24.2241C12.0812 24.2241 12 24.1428 12 23.9717C12 23.572 12.0034 23.1706 12.0034 22.7708C12.0034 21.4632 12 20.1555 12 18.8478C12 17.9941 11.9983 17.1404 12.0017 16.2867C12.0017 16.2224 12.0135 16.1512 12.044 16.0953C12.0863 16.0174 12.1676 16.0022 12.2539 16.0022C13.7133 16.0039 15.171 16.0039 16.6303 16.0039C19.8504 16.0039 23.0688 16.0056 26.2889 16.0005C26.4735 16.0005 26.57 16.0987 26.57 16.2766C26.5649 17.862 26.5683 19.4475 26.5683 21.0329C26.5683 21.082 26.5683 21.1329 26.5683 21.1938C27.0322 21.1752 27.4893 21.1667 27.9396 21.2785C28.3883 21.3903 28.7861 21.619 29.2128 21.7968C29.2212 21.7308 29.2263 21.6681 29.2381 21.6071C29.3262 21.1701 29.7088 20.8466 30.1541 20.8432C30.7923 20.8381 31.4306 20.8381 32.0688 20.8432C32.5327 20.8466 32.9441 21.2125 32.9814 21.6732C33.0085 22.0069 32.9932 22.344 32.9966 22.6793C33 22.9165 33 23.1502 33 23.3857C33 24.6628 33 25.94 32.9983 27.2172C32.9983 27.3764 33 27.539 32.9678 27.6931C32.8832 28.0929 32.5717 28.3707 32.1687 28.4215C32.0418 28.4367 31.9131 28.4384 31.7844 28.4401C31.2579 28.4401 30.7314 28.4401 30.2049 28.4401C29.7122 28.4401 29.3245 28.1217 29.2314 27.6389C29.2178 27.5678 29.2212 27.4933 29.2144 27.4052ZM17.8138 24.2224C17.8408 24.2529 17.8544 24.2665 17.8679 24.28C18.1981 24.6002 18.5231 24.9237 18.8566 25.2371C19.4831 25.8248 20.1078 26.4143 20.7477 26.9885C21.1591 27.3578 21.6535 27.5542 22.2088 27.5813C22.434 27.5932 22.6608 27.5881 22.8877 27.5898C23.6902 27.5915 24.4927 27.5932 25.2968 27.5932C26.0892 27.5949 26.8798 27.5966 27.6721 27.5983C27.8804 27.5983 28.0751 27.5458 28.2545 27.4424C28.5525 27.2714 28.8471 27.0952 29.145 26.9241C29.1992 26.8936 29.2212 26.8598 29.2212 26.7937C29.2195 25.752 29.2195 24.7103 29.2195 23.6685C29.2195 23.24 29.2195 22.8115 29.2178 22.3829C29.2178 22.3507 29.2026 22.2982 29.1806 22.2881C28.8081 22.117 28.4374 21.9408 28.0564 21.7884C27.6162 21.6122 27.149 21.6241 26.6834 21.6393C26.6462 21.641 26.6072 21.6444 26.57 21.6461C26.57 22.0238 26.57 22.3931 26.57 22.7657C26.9898 22.759 27.3928 22.8216 27.7855 22.991C27.7161 23.1282 27.6501 23.2569 27.5841 23.3874C27.5621 23.3823 27.5468 23.3789 27.5316 23.3721C27.2607 23.2637 26.978 23.2163 26.6885 23.2163C26.1129 23.2163 25.5813 23.3789 25.0937 23.6821C24.7839 23.8752 24.5316 24.1191 24.4283 24.4901C24.386 24.6425 24.1761 24.6764 24.0626 24.5612C24.0169 24.5155 23.9763 24.4664 23.934 24.4172C23.3753 23.7803 22.8183 23.1418 22.2596 22.5049C21.9548 22.1576 21.6484 21.8121 21.3437 21.4665C21.2235 21.3293 21.0829 21.2226 20.912 21.1549C20.4938 20.9889 20.0485 21.1396 19.8504 21.5174C19.6778 21.846 19.7709 22.3287 20.0502 22.5997C20.1687 22.7149 20.2703 22.8453 20.3787 22.969C21.1862 23.8837 21.9938 24.7967 22.803 25.7113C22.9063 25.8282 23.013 25.9451 23.1146 26.0637C23.1907 26.1534 23.1907 26.2601 23.123 26.3482C23.0587 26.4329 22.9469 26.4719 22.8555 26.416C22.7878 26.3753 22.7319 26.311 22.6794 26.2517C22.1004 25.5978 21.5214 24.944 20.9458 24.2885C20.9035 24.2394 20.8595 24.2224 20.7951 24.2224C20.0587 24.2241 19.3222 24.2241 18.5858 24.2224C18.3369 24.2224 18.0863 24.2224 17.8138 24.2224ZM26.1162 16.4595C21.5536 16.4595 17.0045 16.4595 12.4503 16.4595C12.4503 18.9004 12.4503 21.3344 12.4503 23.7753C15.1303 23.7753 17.8019 23.7753 20.4904 23.7753C20.2703 23.528 20.0638 23.2942 19.8538 23.0621C19.8301 23.035 19.7844 23.0147 19.7489 23.0147C19.544 23.0096 19.3408 23.013 19.136 23.013C18.0609 23.013 16.9859 23.013 15.9108 23.013C15.5959 23.013 15.386 22.7589 15.4215 22.4473C15.4368 22.3169 15.4317 22.1763 15.4029 22.0475C15.2743 21.4479 14.7833 21.0515 14.1704 21.0363C13.7641 21.0278 13.4644 20.7416 13.4594 20.352C13.456 20.1199 13.456 19.8862 13.4594 19.6541C13.4644 19.3323 13.6794 19.0562 13.9926 18.9867C14.1162 18.9596 14.2483 18.9647 14.3753 18.9461C14.9678 18.8563 15.4283 18.3244 15.4317 17.7265C15.4334 17.4149 15.6366 17.2133 15.9498 17.2133C18.1287 17.2133 20.3059 17.2167 22.4848 17.2099C22.7963 17.2099 23.0147 17.4589 23.013 17.735C23.0079 18.1737 23.2043 18.5209 23.5598 18.7733C23.8087 18.9512 24.0914 19.002 24.3945 18.9952C24.7686 18.9867 25.0971 19.3035 25.1072 19.6778C25.114 19.893 25.1123 20.1098 25.1089 20.3249C25.1004 20.706 24.8092 21.0092 24.4266 21.0295C24.2201 21.0397 24.022 21.0786 23.8442 21.1888C23.382 21.475 23.0993 21.8883 22.996 22.4202C22.9774 22.5167 22.9486 22.6201 23.0401 22.7183C23.2551 22.947 23.4565 23.1858 23.6648 23.4212C23.8273 23.6059 23.9898 23.7905 24.1541 23.9768C24.1998 23.9142 24.237 23.8566 24.281 23.8007C24.3267 23.7431 24.3725 23.6872 24.4249 23.6364C24.8787 23.1943 25.4357 22.9605 26.0434 22.8284C26.1061 22.8148 26.1179 22.7911 26.1179 22.7352C26.1162 22.3541 26.1162 21.973 26.1162 21.5936C26.1179 20.8059 26.1213 20.02 26.1213 19.2324C26.1213 18.4227 26.1179 17.613 26.1162 16.8051C26.1162 16.6933 26.1162 16.5781 26.1162 16.4595ZM22.5609 22.1661C22.6541 21.9679 22.7285 21.7647 22.8386 21.5817C23.0993 21.143 23.4582 20.8093 23.9543 20.6535C24.1033 20.6061 24.2658 20.6027 24.4232 20.5773C24.5604 20.5553 24.6535 20.4604 24.6569 20.3215C24.6636 20.1199 24.6653 19.9184 24.6586 19.7168C24.6535 19.5508 24.535 19.4492 24.3691 19.4458C24.2438 19.4424 24.1151 19.4458 23.9932 19.4238C23.1213 19.273 22.5931 18.5379 22.5677 17.8569C22.5609 17.6638 22.5508 17.6655 22.3561 17.6655C20.9086 17.6655 19.461 17.6655 18.0135 17.6655C17.9153 17.6655 17.8171 17.6622 17.7206 17.6622C17.4413 17.6622 17.162 17.6638 16.8826 17.6655C16.5728 17.6655 16.2613 17.6672 15.9515 17.6655C15.904 17.6655 15.8888 17.6808 15.8871 17.7282C15.8854 17.8095 15.882 17.8908 15.8685 17.9704C15.7381 18.7936 15.022 19.4085 14.1907 19.4136C14.0197 19.4153 13.9131 19.5169 13.9114 19.6897C13.9097 19.8946 13.908 20.0979 13.9114 20.3029C13.9131 20.4773 14.0113 20.5773 14.1856 20.5857C14.2551 20.5891 14.3262 20.5857 14.3956 20.5959C14.8459 20.6603 15.2184 20.8686 15.5062 21.2226C15.794 21.5749 15.9125 21.9815 15.8854 22.432C15.877 22.5574 15.8719 22.5574 15.9989 22.5574C16.6236 22.5574 17.2466 22.5574 17.8713 22.5574C18.3775 22.5574 18.8854 22.5574 19.3916 22.5574C19.417 22.5574 19.4441 22.5557 19.4492 22.554C19.395 22.327 19.3425 22.1034 19.2884 21.8765C18.2133 21.9002 17.3803 20.8737 17.553 19.8269C17.6969 18.9563 18.4825 18.2702 19.4577 18.3583C19.9436 18.4024 20.3516 18.6192 20.658 19.002C21.0592 19.5051 21.1388 20.0725 20.9611 20.6891C21.2252 20.767 21.4469 20.9025 21.6298 21.099C21.8126 21.2955 21.9853 21.5021 22.1631 21.7037C22.2934 21.8612 22.4323 22.0187 22.5609 22.1661ZM29.6665 24.6645C29.6665 25.0897 29.6665 25.5148 29.6665 25.9417C29.6665 26.3702 29.6614 26.7988 29.6682 27.2273C29.6749 27.6796 29.9898 27.9879 30.4385 27.9879C30.8854 27.9879 31.3341 27.9896 31.781 27.9879C32.228 27.9862 32.5497 27.6643 32.5497 27.2206C32.5497 26.8733 32.5497 26.5261 32.5497 26.1788C32.5497 24.7967 32.5497 23.4128 32.5497 22.0306C32.5497 21.6461 32.2517 21.3124 31.8725 21.3005C31.3781 21.2853 30.8821 21.2819 30.3877 21.2972C29.9475 21.3107 29.6682 21.6292 29.6682 22.0712C29.6682 22.9351 29.6665 23.799 29.6665 24.6645ZM17.9763 20.1335C17.9831 20.1911 17.9881 20.2758 18.0017 20.3571C18.105 20.977 18.7212 21.4632 19.3459 21.4191C19.3882 21.4157 19.4052 21.4005 19.4238 21.3632C19.6236 20.955 19.9486 20.7094 20.399 20.6467C20.4718 20.6366 20.4989 20.6078 20.5192 20.5485C20.5903 20.3554 20.6089 20.1538 20.5835 19.9539C20.4938 19.2273 19.8183 18.7005 19.0717 18.8241C18.4537 18.9275 17.9763 19.478 17.9763 20.1335Z" fill="#2E3192"/>
<path d="M29.2144 27.4052C29.013 27.5238 28.8166 27.6305 28.6287 27.749C28.3239 27.9438 27.9955 28.0387 27.6315 28.0387C25.9639 28.0353 24.2963 28.0404 22.6287 28.0438C22.2376 28.0438 21.8482 28.0302 21.4706 27.9049C21.0576 27.7677 20.6902 27.5593 20.3719 27.2646C19.632 26.5803 18.8922 25.896 18.1591 25.2066C17.851 24.9169 17.5581 24.612 17.2601 24.3122C17.1992 24.2512 17.1366 24.2224 17.0468 24.2224C15.4486 24.2258 13.8504 24.2241 12.2505 24.2241C12.0812 24.2241 12 24.1428 12 23.9717C12 23.572 12.0034 23.1706 12.0034 22.7708C12.0034 21.4632 12 20.1555 12 18.8478C12 17.9941 11.9983 17.1404 12.0017 16.2867C12.0017 16.2224 12.0135 16.1512 12.044 16.0953C12.0863 16.0174 12.1676 16.0022 12.2539 16.0022C13.7133 16.0039 15.171 16.0039 16.6303 16.0039C19.8504 16.0039 23.0688 16.0056 26.2889 16.0005C26.4735 16.0005 26.57 16.0987 26.57 16.2766C26.5649 17.862 26.5683 19.4475 26.5683 21.0329C26.5683 21.082 26.5683 21.1329 26.5683 21.1938C27.0322 21.1752 27.4893 21.1667 27.9396 21.2785C28.3883 21.3903 28.7861 21.619 29.2128 21.7968C29.2212 21.7308 29.2263 21.6681 29.2381 21.6071C29.3262 21.1701 29.7088 20.8466 30.1541 20.8432C30.7923 20.8381 31.4306 20.8381 32.0688 20.8432C32.5327 20.8466 32.9441 21.2125 32.9814 21.6732C33.0085 22.0069 32.9932 22.344 32.9966 22.6793C33 22.9165 33 23.1502 33 23.3857C33 24.6628 33 25.94 32.9983 27.2172C32.9983 27.3764 33 27.539 32.9678 27.6931C32.8832 28.0929 32.5717 28.3707 32.1687 28.4215C32.0418 28.4367 31.9131 28.4384 31.7844 28.4401C31.2579 28.4401 30.7314 28.4401 30.2049 28.4401C29.7122 28.4401 29.3245 28.1217 29.2314 27.6389C29.2178 27.5678 29.2212 27.4933 29.2144 27.4052ZM17.8138 24.2224C17.8408 24.2529 17.8544 24.2665 17.8679 24.28C18.1981 24.6002 18.5231 24.9237 18.8566 25.2371C19.4831 25.8248 20.1078 26.4143 20.7477 26.9885C21.1591 27.3578 21.6535 27.5542 22.2088 27.5813C22.434 27.5932 22.6608 27.5881 22.8877 27.5898C23.6902 27.5915 24.4927 27.5932 25.2968 27.5932C26.0892 27.5949 26.8798 27.5966 27.6721 27.5983C27.8804 27.5983 28.0751 27.5458 28.2545 27.4424C28.5525 27.2714 28.8471 27.0952 29.145 26.9241C29.1992 26.8936 29.2212 26.8598 29.2212 26.7937C29.2195 25.752 29.2195 24.7103 29.2195 23.6685C29.2195 23.24 29.2195 22.8115 29.2178 22.3829C29.2178 22.3507 29.2026 22.2982 29.1806 22.2881C28.8081 22.117 28.4374 21.9408 28.0564 21.7884C27.6162 21.6122 27.149 21.6241 26.6834 21.6393C26.6462 21.641 26.6072 21.6444 26.57 21.6461C26.57 22.0238 26.57 22.3931 26.57 22.7657C26.9898 22.759 27.3928 22.8216 27.7855 22.991C27.7161 23.1282 27.6501 23.2569 27.5841 23.3874C27.5621 23.3823 27.5468 23.3789 27.5316 23.3721C27.2607 23.2637 26.978 23.2163 26.6885 23.2163C26.1129 23.2163 25.5813 23.3789 25.0937 23.6821C24.7839 23.8752 24.5316 24.1191 24.4283 24.4901C24.386 24.6425 24.1761 24.6764 24.0626 24.5612C24.0169 24.5155 23.9763 24.4664 23.934 24.4172C23.3753 23.7803 22.8183 23.1418 22.2596 22.5049C21.9548 22.1576 21.6484 21.8121 21.3437 21.4665C21.2235 21.3293 21.0829 21.2226 20.912 21.1549C20.4938 20.9889 20.0485 21.1396 19.8504 21.5174C19.6778 21.846 19.7709 22.3287 20.0502 22.5997C20.1687 22.7149 20.2703 22.8453 20.3787 22.969C21.1862 23.8837 21.9938 24.7967 22.803 25.7113C22.9063 25.8282 23.013 25.9451 23.1146 26.0637C23.1907 26.1534 23.1907 26.2601 23.123 26.3482C23.0587 26.4329 22.9469 26.4719 22.8555 26.416C22.7878 26.3753 22.7319 26.311 22.6794 26.2517C22.1004 25.5978 21.5214 24.944 20.9458 24.2885C20.9035 24.2394 20.8595 24.2224 20.7951 24.2224C20.0587 24.2241 19.3222 24.2241 18.5858 24.2224C18.3369 24.2224 18.0863 24.2224 17.8138 24.2224ZM26.1162 16.4595C21.5536 16.4595 17.0045 16.4595 12.4503 16.4595C12.4503 18.9004 12.4503 21.3344 12.4503 23.7753C15.1303 23.7753 17.8019 23.7753 20.4904 23.7753C20.2703 23.528 20.0638 23.2942 19.8538 23.0621C19.8301 23.035 19.7844 23.0147 19.7489 23.0147C19.544 23.0096 19.3408 23.013 19.136 23.013C18.0609 23.013 16.9859 23.013 15.9108 23.013C15.5959 23.013 15.386 22.7589 15.4215 22.4473C15.4368 22.3169 15.4317 22.1763 15.4029 22.0475C15.2743 21.4479 14.7833 21.0515 14.1704 21.0363C13.7641 21.0278 13.4644 20.7416 13.4594 20.352C13.456 20.1199 13.456 19.8862 13.4594 19.6541C13.4644 19.3323 13.6794 19.0562 13.9926 18.9867C14.1162 18.9596 14.2483 18.9647 14.3753 18.9461C14.9678 18.8563 15.4283 18.3244 15.4317 17.7265C15.4334 17.4149 15.6366 17.2133 15.9498 17.2133C18.1287 17.2133 20.3059 17.2167 22.4848 17.2099C22.7963 17.2099 23.0147 17.4589 23.013 17.735C23.0079 18.1737 23.2043 18.5209 23.5598 18.7733C23.8087 18.9512 24.0914 19.002 24.3945 18.9952C24.7686 18.9867 25.0971 19.3035 25.1072 19.6778C25.114 19.893 25.1123 20.1098 25.1089 20.3249C25.1004 20.706 24.8092 21.0092 24.4266 21.0295C24.2201 21.0397 24.022 21.0786 23.8442 21.1888C23.382 21.475 23.0993 21.8883 22.996 22.4202C22.9774 22.5167 22.9486 22.6201 23.0401 22.7183C23.2551 22.947 23.4565 23.1858 23.6648 23.4212C23.8273 23.6059 23.9898 23.7905 24.1541 23.9768C24.1998 23.9142 24.237 23.8566 24.281 23.8007C24.3267 23.7431 24.3725 23.6872 24.4249 23.6364C24.8787 23.1943 25.4357 22.9605 26.0434 22.8284C26.1061 22.8148 26.1179 22.7911 26.1179 22.7352C26.1162 22.3541 26.1162 21.973 26.1162 21.5936C26.1179 20.8059 26.1213 20.02 26.1213 19.2324C26.1213 18.4227 26.1179 17.613 26.1162 16.8051C26.1162 16.6933 26.1162 16.5781 26.1162 16.4595ZM22.5609 22.1661C22.6541 21.9679 22.7285 21.7647 22.8386 21.5817C23.0993 21.143 23.4582 20.8093 23.9543 20.6535C24.1033 20.6061 24.2658 20.6027 24.4232 20.5773C24.5604 20.5553 24.6535 20.4604 24.6569 20.3215C24.6636 20.1199 24.6653 19.9184 24.6586 19.7168C24.6535 19.5508 24.535 19.4492 24.3691 19.4458C24.2438 19.4424 24.1151 19.4458 23.9932 19.4238C23.1213 19.273 22.5931 18.5379 22.5677 17.8569C22.5609 17.6638 22.5508 17.6655 22.3561 17.6655C20.9086 17.6655 19.461 17.6655 18.0135 17.6655C17.9153 17.6655 17.8171 17.6622 17.7206 17.6622C17.4413 17.6622 17.162 17.6638 16.8826 17.6655C16.5728 17.6655 16.2613 17.6672 15.9515 17.6655C15.904 17.6655 15.8888 17.6808 15.8871 17.7282C15.8854 17.8095 15.882 17.8908 15.8685 17.9704C15.7381 18.7936 15.022 19.4085 14.1907 19.4136C14.0197 19.4153 13.9131 19.5169 13.9114 19.6897C13.9097 19.8946 13.908 20.0979 13.9114 20.3029C13.9131 20.4773 14.0113 20.5773 14.1856 20.5857C14.2551 20.5891 14.3262 20.5857 14.3956 20.5959C14.8459 20.6603 15.2184 20.8686 15.5062 21.2226C15.794 21.5749 15.9125 21.9815 15.8854 22.432C15.877 22.5574 15.8719 22.5574 15.9989 22.5574C16.6236 22.5574 17.2466 22.5574 17.8713 22.5574C18.3775 22.5574 18.8854 22.5574 19.3916 22.5574C19.417 22.5574 19.4441 22.5557 19.4492 22.554C19.395 22.327 19.3425 22.1034 19.2884 21.8765C18.2133 21.9002 17.3803 20.8737 17.553 19.8269C17.6969 18.9563 18.4825 18.2702 19.4577 18.3583C19.9436 18.4024 20.3516 18.6192 20.658 19.002C21.0592 19.5051 21.1388 20.0725 20.9611 20.6891C21.2252 20.767 21.4469 20.9025 21.6298 21.099C21.8126 21.2955 21.9853 21.5021 22.1631 21.7037C22.2934 21.8612 22.4323 22.0187 22.5609 22.1661ZM29.6665 24.6645C29.6665 25.0897 29.6665 25.5148 29.6665 25.9417C29.6665 26.3702 29.6614 26.7988 29.6682 27.2273C29.6749 27.6796 29.9898 27.9879 30.4385 27.9879C30.8854 27.9879 31.3341 27.9896 31.781 27.9879C32.228 27.9862 32.5497 27.6643 32.5497 27.2206C32.5497 26.8733 32.5497 26.5261 32.5497 26.1788C32.5497 24.7967 32.5497 23.4128 32.5497 22.0306C32.5497 21.6461 32.2517 21.3124 31.8725 21.3005C31.3781 21.2853 30.8821 21.2819 30.3877 21.2972C29.9475 21.3107 29.6682 21.6292 29.6682 22.0712C29.6682 22.9351 29.6665 23.799 29.6665 24.6645ZM17.9763 20.1335C17.9831 20.1911 17.9881 20.2758 18.0017 20.3571C18.105 20.977 18.7212 21.4632 19.3459 21.4191C19.3882 21.4157 19.4052 21.4005 19.4238 21.3632C19.6236 20.955 19.9486 20.7094 20.399 20.6467C20.4718 20.6366 20.4989 20.6078 20.5192 20.5485C20.5903 20.3554 20.6089 20.1538 20.5835 19.9539C20.4938 19.2273 19.8183 18.7005 19.0717 18.8241C18.4537 18.9275 17.9763 19.478 17.9763 20.1335Z" stroke="#2E3192" stroke-width="0.4" mask="url(#path-3-outside-1_1014_15)"/>
<path d="M32.081 22.615C32.0844 23.1807 31.6188 23.6347 31.0432 23.6008C30.5505 23.5703 30.1035 23.1485 30.1306 22.5743C30.1543 22.0594 30.5979 21.6275 31.1532 21.6478C31.6577 21.6647 32.0877 22.1034 32.081 22.615ZM31.1058 22.1017C30.8095 22.1017 30.5827 22.3321 30.5827 22.6285C30.5827 22.9182 30.8163 23.1485 31.1058 23.1485C31.397 23.1468 31.6391 22.9131 31.6357 22.6336C31.6306 22.327 31.4038 22.1 31.1058 22.1017Z" fill="#2E3192"/>
<defs>
<clipPath id="clip0_1014_15">
<rect width="31" height="31" fill="white" transform="translate(7 6.00049)"/>
</clipPath>
</defs>
</svg>
