<svg width="24" height="24" viewBox="0 0 24 24" fill="none" xmlns="http://www.w3.org/2000/svg">
<path d="M7 21.0005C6.45 21.0005 5.97933 20.8048 5.588 20.4135C5.196 20.0215 5 19.5505 5 19.0005V6.00049C4.71667 6.00049 4.479 5.90482 4.287 5.71349C4.09567 5.52149 4 5.28382 4 5.00049C4 4.71715 4.09567 4.47949 4.287 4.28749C4.479 4.09616 4.71667 4.00049 5 4.00049H9C9 3.71715 9.096 3.47949 9.288 3.28749C9.47933 3.09615 9.71667 3.00049 10 3.00049H14C14.2833 3.00049 14.521 3.09615 14.713 3.28749C14.9043 3.47949 15 3.71715 15 4.00049H19C19.2833 4.00049 19.5207 4.09616 19.712 4.28749C19.904 4.47949 20 4.71715 20 5.00049C20 5.28382 19.904 5.52149 19.712 5.71349C19.5207 5.90482 19.2833 6.00049 19 6.00049V19.0005C19 19.5505 18.8043 20.0215 18.413 20.4135C18.021 20.8048 17.55 21.0005 17 21.0005H7ZM7 6.00049V19.0005H17V6.00049H7ZM9 16.0005C9 16.2838 9.096 16.5212 9.288 16.7125C9.47933 16.9045 9.71667 17.0005 10 17.0005C10.2833 17.0005 10.521 16.9045 10.713 16.7125C10.9043 16.5212 11 16.2838 11 16.0005V9.00049C11 8.71715 10.9043 8.47949 10.713 8.28749C10.521 8.09615 10.2833 8.00049 10 8.00049C9.71667 8.00049 9.47933 8.09615 9.288 8.28749C9.096 8.47949 9 8.71715 9 9.00049V16.0005ZM13 16.0005C13 16.2838 13.096 16.5212 13.288 16.7125C13.4793 16.9045 13.7167 17.0005 14 17.0005C14.2833 17.0005 14.521 16.9045 14.713 16.7125C14.9043 16.5212 15 16.2838 15 16.0005V9.00049C15 8.71715 14.9043 8.47949 14.713 8.28749C14.521 8.09615 14.2833 8.00049 14 8.00049C13.7167 8.00049 13.4793 8.09615 13.288 8.28749C13.096 8.47949 13 8.71715 13 9.00049V16.0005Z" fill="#FC4C4C"/>
</svg>
