<svg width="40" height="40" viewBox="0 0 40 40" fill="none" xmlns="http://www.w3.org/2000/svg">
<g clip-path="url(#clip0_292_2267)">
<path opacity="0.6" d="M32.0169 20.0672L29.4669 19.8838L28.9669 17.3838C28.5597 15.3046 27.4428 13.4314 25.8072 12.0847C24.1716 10.7379 22.1189 10.0012 20.0002 10.0005C16.5669 10.0005 13.4669 11.9005 11.8669 14.9338L11.0335 16.5172L9.25021 16.7005C7.61937 16.8814 6.11301 17.6589 5.0208 18.8834C3.92859 20.1079 3.32765 21.693 3.33354 23.3338C3.33354 27.0172 6.31687 30.0005 10.0002 30.0005H31.6669C34.4169 30.0005 36.6669 27.7505 36.6669 25.0005C36.6669 22.4172 34.6335 20.2338 32.0169 20.0672ZM22.4169 21.6672V26.6672H17.5669V21.6672H13.3335L20.0002 15.0005L26.6669 21.6672H22.4169Z" fill="#D7D7EE"/>
<path d="M32.25 16.7338C31.6902 13.8967 30.1627 11.3419 27.9284 9.50589C25.6942 7.66987 22.8918 6.66649 20 6.66715C15.1833 6.66715 11 9.40048 8.91667 13.4005C6.46706 13.6652 4.20168 14.8258 2.55581 16.6593C0.909952 18.4929 -0.00028617 20.8699 6.74879e-08 23.3338C6.74879e-08 28.8505 4.48333 33.3338 10 33.3338H31.6667C36.2667 33.3338 40 29.6005 40 25.0005C40 20.6005 36.5833 17.0338 32.25 16.7338ZM31.6667 30.0005H10C6.31667 30.0005 3.33333 27.0171 3.33333 23.3338C3.33333 19.9171 5.88333 17.0671 9.26667 16.7171L11.05 16.5338L11.8833 14.9505C12.6498 13.4584 13.8131 12.2068 15.2452 11.3335C16.6773 10.4601 18.3226 9.99884 20 10.0005C24.3667 10.0005 28.1333 13.1005 28.9833 17.3838L29.4833 19.8838L32.0333 20.0671C33.2862 20.1514 34.4607 20.7071 35.3204 21.6225C36.18 22.5378 36.6611 23.7448 36.6667 25.0005C36.6667 27.7505 34.4167 30.0005 31.6667 30.0005ZM13.3333 21.6671H17.5833V26.6671H22.4167V21.6671H26.6667L20 15.0005L13.3333 21.6671Z" fill="#2E3192"/>
</g>
<defs>
<clipPath id="clip0_292_2267">
<rect width="40" height="40" fill="white" transform="translate(0 0.000488281)"/>
</clipPath>
</defs>
</svg>
