<svg width="33" height="36" viewBox="0 0 33 36" fill="none" xmlns="http://www.w3.org/2000/svg">
<path fill-rule="evenodd" clip-rule="evenodd" d="M29.0684 9.16718C29.3824 9.01488 29.7263 8.95059 30.0689 8.98015C30.4115 9.00971 30.7419 9.13219 31.03 9.33646C31.3182 9.54072 31.555 9.8203 31.7189 10.1498C31.8829 10.4793 31.9687 10.8482 31.9688 11.2231V24.7766C31.9687 25.1515 31.8829 25.5204 31.7189 25.8499C31.555 26.1794 31.3182 26.459 31.03 26.6632C30.7419 26.8675 30.4115 26.99 30.0689 27.0195C29.7263 27.0491 29.3824 26.9848 29.0684 26.8325C29.0071 26.8028 28.9486 26.7666 28.8937 26.7245L23.5628 22.6309C23.2924 22.4233 23.0718 22.1478 22.9195 21.8277C22.7671 21.5075 22.6876 21.1522 22.6875 20.7915V15.2082C22.6876 14.8475 22.7671 14.4922 22.9195 14.172C23.0718 13.8519 23.2924 13.5764 23.5628 13.3688L28.8937 9.27522C28.9486 9.23309 29.0071 9.19691 29.0684 9.16718ZM29.9062 11.2492V24.7505L24.75 20.791L24.75 15.2087L29.9062 11.2492Z" fill="#2E3192"/>
<path fill-rule="evenodd" clip-rule="evenodd" d="M5.41258 7.875H17.306L17.3076 7.87501C18.4598 7.87889 19.5638 8.37995 20.3786 9.26879C21.1934 10.1576 21.6527 11.362 21.6562 12.619L21.6562 12.6208V23.3454L21.6562 23.347C21.6529 24.6131 21.1904 25.8263 20.3697 26.7215C19.5491 27.6168 18.437 28.1214 17.2764 28.125L17.2749 28.125H5.41258L5.4111 28.125C4.25052 28.1214 3.13842 27.6168 2.31776 26.7215C1.4971 25.8263 1.03459 24.6131 1.03125 23.347L1.03125 23.3454V12.6546L1.03125 12.653C1.03459 11.3869 1.4971 10.1737 2.31776 9.27847C3.13842 8.38321 4.25052 7.87864 5.4111 7.875L5.41258 7.875ZM5.41568 10.125C4.80054 10.1273 4.21117 10.3949 3.77617 10.8695C3.34117 11.344 3.09587 11.987 3.09375 12.658V23.342C3.09587 24.013 3.34117 24.656 3.77617 25.1305C4.21119 25.6051 4.8006 25.8727 5.41577 25.875H17.2717C17.8869 25.8727 18.4763 25.6051 18.9113 25.1305C19.3463 24.656 19.5917 24.013 19.5938 23.3419V12.6241C19.5914 11.9621 19.3493 11.3279 18.9202 10.8598C18.491 10.3916 17.9096 10.1275 17.3026 10.125H5.41568Z" fill="#2E3192"/>
</svg>
