<svg width="45" height="45" viewBox="0 0 45 45" fill="none" xmlns="http://www.w3.org/2000/svg">
<rect y="0.000488281" width="45" height="45" rx="8" fill="#2E3192"/>
<path d="M21.5 19.5005H23.5V17.5005H21.5M22.5 30.5005C18.09 30.5005 14.5 26.9105 14.5 22.5005C14.5 18.0905 18.09 14.5005 22.5 14.5005C26.91 14.5005 30.5 18.0905 30.5 22.5005C30.5 26.9105 26.91 30.5005 22.5 30.5005ZM22.5 12.5005C21.1868 12.5005 19.8864 12.7591 18.6732 13.2617C17.4599 13.7642 16.3575 14.5008 15.4289 15.4294C13.5536 17.3048 12.5 19.8483 12.5 22.5005C12.5 25.1527 13.5536 27.6962 15.4289 29.5716C16.3575 30.5001 17.4599 31.2367 18.6732 31.7393C19.8864 32.2418 21.1868 32.5005 22.5 32.5005C25.1522 32.5005 27.6957 31.4469 29.5711 29.5716C31.4464 27.6962 32.5 25.1527 32.5 22.5005C32.5 21.1873 32.2413 19.8869 31.7388 18.6737C31.2362 17.4604 30.4997 16.358 29.5711 15.4294C28.6425 14.5008 27.5401 13.7642 26.3268 13.2617C25.1136 12.7591 23.8132 12.5005 22.5 12.5005ZM21.5 27.5005H23.5V21.5005H21.5V27.5005Z" fill="white"/>
</svg>
