<svg width="21" height="21" viewBox="0 0 21 21" fill="none" xmlns="http://www.w3.org/2000/svg">
<path d="M9.5 7.50049H11.5V5.50049H9.5M10.5 18.5005C6.09 18.5005 2.5 14.9105 2.5 10.5005C2.5 6.09049 6.09 2.50049 10.5 2.50049C14.91 2.50049 18.5 6.09049 18.5 10.5005C18.5 14.9105 14.91 18.5005 10.5 18.5005ZM10.5 0.500488C9.18678 0.500488 7.88642 0.759146 6.67317 1.26169C5.45991 1.76424 4.35752 2.50083 3.42893 3.42942C1.55357 5.30478 0.5 7.84832 0.5 10.5005C0.5 13.1527 1.55357 15.6962 3.42893 17.5716C4.35752 18.5001 5.45991 19.2367 6.67317 19.7393C7.88642 20.2418 9.18678 20.5005 10.5 20.5005C13.1522 20.5005 15.6957 19.4469 17.5711 17.5716C19.4464 15.6962 20.5 13.1527 20.5 10.5005C20.5 9.18727 20.2413 7.88691 19.7388 6.67365C19.2362 5.4604 18.4997 4.35801 17.5711 3.42942C16.6425 2.50083 15.5401 1.76424 14.3268 1.26169C13.1136 0.759146 11.8132 0.500488 10.5 0.500488ZM9.5 15.5005H11.5V9.50049H9.5V15.5005Z" fill="white"/>
</svg>
