<svg id="Layer_1" data-name="Layer 1" xmlns="http://www.w3.org/2000/svg" xmlns:xlink="http://www.w3.org/1999/xlink" viewBox="0 0 25 25"><defs><style>.cls-1{fill:url(#linear-gradient);}.cls-2{fill:#fff;}</style><linearGradient id="linear-gradient" x1="10.09" y1="13.71" x2="25.95" y2="12.56" gradientTransform="matrix(1, 0, 0, -1, -0.5, 26)" gradientUnits="userSpaceOnUse"><stop offset="0" stop-color="#2e3192"/><stop offset="1" stop-color="#1ac1b0"/></linearGradient></defs><circle class="cls-1" cx="12.5" cy="12.5" r="12.5"/><path class="cls-2" d="M13,18.13a.75.75,0,0,1-.57-.24.74.74,0,0,1-.23-.57v-4h-4a.8.8,0,1,1,0-1.6h4v-4a.8.8,0,1,1,1.6,0v4h4a.8.8,0,1,1,0,1.6h-4v4a.74.74,0,0,1-.23.57A.75.75,0,0,1,13,18.13Z" transform="translate(-0.5 0)"/></svg>