<svg width="271" height="270" viewBox="0 0 271 270" fill="none" xmlns="http://www.w3.org/2000/svg">
<line x1="19.5" y1="89.0773" x2="19.5" y2="103.077" stroke="white"/>
<line x1="82.5" y1="72.0773" x2="82.5" y2="81.0773" stroke="white"/>
<line x1="89.5" y1="43.0773" x2="89.5" y2="52.0773" stroke="white"/>
<line x1="157.5" y1="64.0773" x2="157.5" y2="73.0773" stroke="white"/>
<line x1="251.5" y1="65.0773" x2="251.5" y2="98.0773" stroke="white"/>
<line x1="207.5" y1="44.0773" x2="207.5" y2="112.077" stroke="white"/>
<line x1="45.5" y1="47.0773" x2="45.5" y2="87.0773" stroke="white"/>
<line x1="82" y1="80.5773" x2="103" y2="80.5773" stroke="white"/>
<line x1="89" y1="51.5773" x2="110" y2="51.5773" stroke="white"/>
<line x1="157" y1="63.5773" x2="178" y2="63.5773" stroke="white"/>
<line x1="164" y1="97.5773" x2="252" y2="97.5773" stroke="white"/>
<line x1="164" y1="112.577" x2="208" y2="112.577" stroke="white"/>
<line x1="94" y1="103.577" x2="19" y2="103.577" stroke="white"/>
<line x1="121" y1="86.5773" x2="46" y2="86.5773" stroke="white"/>
<path d="M158.463 198.695L135.096 220.883L164.376 239.82L168.471 214.334L158.463 198.695Z" fill="#FFC0AF"/>
<path d="M99.9073 170.834L85.4663 157.167C85.4663 157.167 96.3783 161.555 100.557 158.652L99.9073 170.834Z" fill="#DEA798"/>
<path d="M79.7129 175.945L93.1743 187.442L97.1212 182.448L83.6576 171.996L79.7129 175.945Z" fill="#DEA798"/>
<path d="M194.082 266.026L146.651 219.757L148.305 171.591L100.557 151.68L99.9692 171.996L89.9328 192.668L81.2386 196.098L81.106 196.151C81.106 196.151 87.1402 203.12 88.9975 203.583C88.9975 203.583 106.174 241.703 144.82 251.372L161.948 269.19H193.125L195.132 267.051L194.082 266.026Z" fill="#FFC0AF"/>
<path d="M84.3254 195.803L81.106 196.153L86.5321 198.049L86.0678 196.239L84.3254 195.803Z" fill="#EEB3A3"/>
<path d="M161.733 269.192L144.822 251.375C106.174 241.706 88.9975 203.585 88.9975 203.585C87.1402 203.12 81.106 196.153 81.106 196.153L81.2386 196.1L87.0473 196.854C87.0473 196.854 91.2684 200.109 92.2988 201.7C92.2988 201.7 109.853 236.986 148.121 244.947L176.289 269.195H161.948H161.733V269.192Z" fill="#EEB3A3"/>
<path d="M88.416 180.506L105.594 182.999L98.4701 196.098L90.112 189.871L88.416 180.506Z" fill="#DEA798"/>
<path d="M84.3257 195.803C84.3257 195.803 92.2792 202.505 98.4704 196.098C98.4704 196.098 100.339 194.018 98.0923 190.96L84.3257 195.803Z" fill="#DEA798"/>
<path d="M179.904 269.192H246.051L217.481 246.474C215.707 245.062 213.876 243.723 211.986 242.471C173.665 217.095 176.769 194.916 176.769 194.916L166.695 207.205L164.375 239.82L188.988 261.61L183.38 265.46L179.904 269.192Z" fill="#FFC0AF"/>
<path d="M189.202 202.505C189.202 202.505 179.099 221.633 214.495 244.102L202.697 251.18C202.697 251.18 167.433 197.815 168.493 196.241C169.554 194.668 183.075 192.591 183.075 192.591L189.202 202.505Z" fill="#FFC0AF"/>
<path d="M187.568 191.81C187.568 191.81 190.323 202.994 189.202 207.667C189.202 207.667 188.492 217.679 193.39 225.16C193.39 225.16 185.164 213.637 185.164 212.544C185.164 211.449 184.667 197.421 184.667 196.923C184.667 196.425 187.568 191.81 187.568 191.81Z" fill="#FFC0AF"/>
<path d="M100.019 130.699C100.019 130.699 92.9513 126.624 87.9693 128.896C87.9693 128.896 84.2609 130.767 89.0112 134.974C89.0112 134.974 93.9932 139.116 97.1211 140.253L101.176 142.792L100.019 130.699Z" fill="#FFC0AF"/>
<rect x="93.3975" y="72.7851" width="70.0066" height="140.013" rx="6" fill="#1A1A1A"/>
<path d="M159.515 82.098V207.375C159.515 208.756 158.378 209.881 156.982 209.881H100.792C99.3958 209.881 98.2593 208.756 98.2593 207.375V82.098C98.2593 80.7163 99.3958 79.5913 100.792 79.5913H156.982C158.381 79.5913 159.515 80.7163 159.515 82.098Z" fill="#1F45B1"/>
<path d="M118.974 73.7685L118.264 80.6695V84.8115L119.27 88.1436L120.04 90.5531L125.004 84.9796L127.135 81.9838L127.308 77.2799L125.004 75.8505L122.315 77.4746L118.974 73.7685Z" fill="url(#paint0_linear_977_347)"/>
<path d="M122.607 80.9549L123.091 85.0039L120.04 89.5773L119.414 87.4046C119.414 87.4046 119.381 86.0748 120.04 84.3468C120.04 84.3468 120.707 81.216 120.267 79.2512L122.607 80.9549Z" fill="#203A55"/>
<path opacity="0.34" d="M125.177 79.3442C125.177 79.3442 123.003 80.4792 122.985 81.2271L123.094 85.0017L122.609 80.9527L123.527 78.968L125.006 78.4459L125.177 79.3442Z" fill="black"/>
<path d="M120.268 79.2491C120.268 79.2491 120.372 80.7514 122.607 80.955C122.607 80.955 124.188 78.7247 125.004 79.0986C125.004 79.0986 124.694 76.4789 122.315 76.012L121.406 75.7266L119.757 78.7313L120.268 79.2491Z" fill="#001E3D"/>
<path d="M106.355 85.9686C106.355 85.9686 102.662 89.9159 101.789 97.6643L100.794 102.019C100.297 104.198 100.044 106.431 100.044 108.67V114.506L107.456 119.429L106.355 85.9686Z" fill="#DDDDDD"/>
<path d="M118.917 73.2972C118.917 73.2972 119.518 75.4699 122.315 76.012L129.09 74.149L133.15 67.6396L132.891 67.1617L131.688 66.9227C131.688 66.9227 129.8 60.1301 129.99 57.8556L118.917 73.2972Z" fill="#ED9E8D"/>
<path d="M122.315 76.012C122.315 76.012 124.422 77.6781 125.004 79.0986C125.004 79.0986 125.663 80.1584 126.602 80.6717C126.602 80.6717 134.264 70.3611 134.938 70.277C134.938 70.277 133.941 66.3541 131.688 66.9272C131.688 66.9272 133.068 67.321 132.822 67.7414C132.825 67.7392 123.089 75.9457 122.315 76.012Z" fill="url(#paint1_linear_977_347)"/>
<path d="M119.759 93.622L114.932 136.283H106.501C106.306 134.504 106.083 131.809 105.92 129.683C105.787 127.979 105.793 126.266 105.973 124.567C106.472 119.775 105.749 112.037 105.749 112.037C106.198 108.614 104.566 95.0402 104.166 91.8143C104.091 91.2213 104.12 90.6195 104.257 90.0376C105.608 84.3358 113.015 80.6717 113.015 80.6717L117.592 78.3397L117.738 83.3644L118.7 91.6328L119.759 93.622Z" fill="#EEEEEE"/>
<path d="M122.315 76.012L118.972 73.7707C118.972 73.7707 117.955 79.55 119.843 82.4683C119.845 82.4661 120.281 75.3947 122.315 76.012Z" fill="url(#paint2_linear_977_347)"/>
<path d="M149.203 136.254H114.749L115.237 113.281C115.498 107.597 118.742 91.6041 118.742 91.6041L125.919 83.5968L134.983 70.2438L139.144 73.7375C140.603 74.9633 147.5 78.3087 147.5 78.3087L146.846 119.399L149.203 136.254Z" fill="white"/>
<path opacity="0.22" d="M130.324 79.6893L131.445 81.8156L118.85 92.1771L118.7 92.301L127.944 81.4284L128.84 78.5653L134.549 73.3834L137.426 72.3612L139.1 73.7662L136.088 79.2468C136.09 79.249 131.08 79.8309 130.324 79.6893Z" fill="black"/>
<path d="M139.1 73.7685L137.176 76.7289L136.398 77.9281L135.832 78.7977C135.832 78.7977 130.746 79.7712 129.802 79.2468L130.823 81.5169C130.823 81.5169 128.285 84.203 125.187 86.566C123.511 87.8449 120.296 90.9757 118.852 92.1794L118.702 92.3033C118.636 92.3564 118.585 92.3873 118.549 92.3962L118.704 91.6329C118.706 91.6306 118.706 91.6306 118.709 91.6284C118.709 91.6262 118.711 91.624 118.711 91.6218C119.118 90.989 132.166 70.7284 134.938 70.2792L135.511 70.7616L136.577 71.6555L137.426 72.3679L139.1 73.7685Z" fill="#DFDFDF"/>
<path d="M90.4414 127.539L112.854 123.315L103.558 114.493L92.2258 117.622L90.4414 127.539Z" fill="#DDDDDD"/>
<path d="M86.0059 122.516L87.5249 125.91C88.0401 127.061 89.2319 127.749 90.4436 127.539C91.2949 127.39 92.1639 126.802 92.6592 125.231C92.6592 125.231 93.8687 121.226 92.228 117.62L86.0059 122.516Z" fill="#EEEEEE"/>
<path d="M86.5146 121.998C86.5146 121.998 88.4914 125.408 90.2404 124.607C90.2404 124.607 92.9623 122.337 91.0829 119.067L86.5146 121.998Z" fill="#DDDDDD"/>
<path d="M111.074 111.343L109.97 110.851H103.888C103.408 110.851 102.939 110.995 102.537 111.267L100.675 112.522L102.506 114.493L103.567 113.745C103.808 113.575 104.106 113.515 104.392 113.579L107.832 114.354L111.074 111.343Z" fill="#EFA596"/>
<path d="M102.028 114.816H107.733L103.947 116.717L102.028 114.816Z" fill="#D97F6B"/>
<path d="M121.254 114.938L120.675 120.456V120.463L120.489 122.233C116.978 122.443 115.101 120.64 115.101 120.64L113.517 120.239L112.92 120.381L112.856 120.396L113.011 120.635C113.128 120.815 113.186 121.02 113.186 121.224C113.188 121.489 113.095 121.755 112.909 121.963L112.593 122.315C112.44 122.485 112.239 122.598 112.027 122.64C111.877 122.671 111.717 122.667 111.563 122.625C111.021 122.476 110.661 122.275 110.448 122.129C110.267 122.003 110.052 121.936 109.834 121.936H108.432L106.395 119.715L103.95 116.712L111.076 111.338L121.254 114.938Z" fill="#FFC0AF"/>
<path opacity="0.44" d="M114.103 118.912C113.897 119.153 113.805 119.472 113.847 119.79C113.747 119.819 113.652 119.894 113.559 119.976C113.466 120.06 113.378 120.151 113.287 120.213C113.137 120.317 113.044 120.219 112.918 120.385L112.854 120.401L113.009 120.64C113.126 120.819 113.183 121.025 113.183 121.228C111.609 120.385 114.957 117.909 114.957 117.909L114.103 118.912Z" fill="#BF5E55"/>
<path opacity="0.44" d="M110.479 121.589L112.022 122.644C111.872 122.675 111.713 122.671 111.558 122.629C111.034 122.485 110.678 122.293 110.466 122.149C110.269 122.016 110.039 121.941 109.804 121.941H109.647C109.647 121.941 108.717 120.191 109.36 119.633C109.36 119.633 110.921 118.091 113.566 115.821L109.734 119.912C109.734 119.912 109.274 120.516 110.479 121.589Z" fill="#BF5E55"/>
<path d="M113.847 119.73C114.041 119.675 114.238 119.646 114.428 119.635C115.052 119.6 115.662 119.806 116.18 120.164C118.143 121.523 120.673 120.456 120.673 120.456V120.463L120.487 122.233C116.976 122.443 115.098 120.64 115.098 120.64L113.515 120.239L112.854 120.396L113.847 119.73Z" fill="#E98773"/>
<path opacity="0.44" d="M107.087 118.496L112.476 113.721L110.581 114.938L106.824 117.954C106.159 118.312 106.391 119.717 106.391 119.717L108.427 121.939L109.283 122.233L107.879 120.773C107.51 120.443 107.22 120.027 107.05 119.553C106.76 118.737 107.087 118.496 107.087 118.496Z" fill="#BF5E55"/>
<path d="M110.309 123.866L107.81 123.662L92.1087 122.386C91.4962 122.337 90.9257 122.045 90.5144 121.573L77.7805 106.97C77.7805 106.97 76.2017 105.258 77.3957 105.207L95.6222 106.393C95.8433 106.408 96.0578 106.475 96.2457 106.59C96.2966 106.621 96.3452 106.654 96.3917 106.692C96.4757 106.758 96.5509 106.831 96.6194 106.915L110.309 123.866Z" fill="url(#paint3_linear_977_347)"/>
<path d="M96.3895 106.689L95.6112 106.993L78.1829 105.933C78.1829 105.933 77.5771 105.911 77.3936 105.207L95.62 106.393C95.8411 106.408 96.0556 106.475 96.2436 106.59C96.2944 106.621 96.3431 106.654 96.3895 106.689Z" fill="#588BD7"/>
<path d="M110.308 123.866L107.81 123.662L95.675 108.696C95.4141 108.375 95.2903 107.951 95.3655 107.539C95.507 106.767 96.2101 106.599 96.2455 106.59C96.3848 106.674 96.5131 106.785 96.6192 106.915L110.308 123.866Z" fill="#23539A"/>
<path d="M84.666 120.511L85.1348 121.476C85.4289 122.08 86.0546 122.434 86.7069 122.366L87.6511 122.266C88.2702 122.202 88.8561 121.941 89.3293 121.52L90.8218 120.193L84.666 120.511Z" fill="#EC9685"/>
<path d="M90.9896 119.848C90.9587 120.069 90.7906 120.268 90.5452 120.441L90.5408 120.443C90.3705 120.562 90.1649 120.671 89.9416 120.766C88.9886 121.18 87.7348 121.381 87.7348 121.381C86.7177 121.574 85.5547 121.346 84.8161 121.144C84.354 121.018 83.9803 120.669 83.8101 120.206L83.1158 118.321C83.0804 118.226 83.0539 118.129 83.0362 118.031C82.9787 117.744 82.9897 117.44 83.0693 117.155L83.0804 117.115L83.1534 116.85L83.3302 116.219L85.3114 118.394L90.9896 119.848Z" fill="#EFA596"/>
<path d="M88.9332 120.065L85.8 119.443C84.5397 119.153 84.1041 118.682 84.1041 118.682L83.0781 117.115L83.1511 116.85L83.5115 116.839L85.2848 118.733L88.9332 120.065Z" fill="#E98773"/>
<path d="M90.5408 120.443L89.9415 120.766C88.9885 121.18 87.7348 121.381 87.7348 121.381C86.7177 121.573 85.5546 121.346 84.8161 121.144C84.354 121.018 83.9803 120.669 83.81 120.206L83.1157 118.321C83.0804 118.226 83.0538 118.128 83.0361 118.031C83.0605 118.086 84.051 120.35 84.5176 120.514C84.5176 120.514 85.5391 121.151 87.454 121.02C87.4496 121.02 89.5789 120.841 90.5408 120.443Z" fill="#E98773"/>
<path d="M91.6532 119.733C91.4785 119.947 91.2065 120.087 90.897 120.089L89.9506 120.1C87.4564 119.673 86.0921 119.299 85.3647 119.044C84.9003 118.881 84.5023 118.582 84.2326 118.188L82.3796 115.478C82.1475 115.139 82.1519 114.699 82.3907 114.356L83.1513 113.261L85.6167 115.973L86.7444 117.212L88.3342 117.788L88.5465 117.865L91.0738 118.266C91.1822 118.281 91.2839 118.317 91.3746 118.365C91.463 118.412 91.5426 118.471 91.6112 118.54C91.7505 118.682 91.8389 118.865 91.8588 119.069C91.8831 119.317 91.8035 119.551 91.6532 119.733Z" fill="#F0AD9F"/>
<path d="M89.2649 117.98L86.9477 117.575L82.9963 115.5C82.4436 114.878 82.2954 114.58 82.2954 114.58L85.6165 115.976L86.7442 117.215L88.334 117.79L89.2649 117.98Z" fill="#E98773"/>
<path d="M88.531 117.031C88.3586 117.23 88.0866 117.301 87.8367 117.23C87.8146 117.224 87.7925 117.217 87.7726 117.213L86.9324 116.956C86.7201 116.892 83.1071 115.407 83.1071 115.407C82.8042 115.17 82.5322 114.894 82.2956 114.58C81.9396 114.108 81.9418 113.166 82.0281 112.573L82.1187 111.949L82.1209 111.953C82.1917 112.028 83.2663 113.252 83.2663 113.252L86.3442 114.757L87.9981 115.529L88.3895 115.712H88.3917C88.4868 115.785 88.5642 115.885 88.6062 116C88.7986 116.522 88.6947 116.841 88.531 117.031Z" fill="#FFC0AF"/>
<path d="M86.8857 115.956C86.7773 116.157 86.7663 116.429 87.109 116.732C87.1753 116.79 87.2527 116.83 87.3345 116.852L88.2522 117.097C88.2522 117.097 88.5463 116.648 88.2964 115.938L87.5335 115.692C87.2859 115.613 87.0139 115.712 86.8857 115.956Z" fill="#FFFBFA"/>
<path d="M88.2699 117.151L87.3191 116.896C87.2284 116.872 87.1444 116.828 87.0759 116.766C86.6956 116.431 86.7376 116.128 86.8415 115.931C86.9786 115.675 87.266 115.555 87.5446 115.644L88.3318 115.896L88.3384 115.918C88.5927 116.642 88.3009 117.1 88.2876 117.12L88.2699 117.151ZM86.9255 115.978C86.7973 116.219 86.8702 116.46 87.1378 116.697C87.1953 116.748 87.2682 116.785 87.3434 116.805L88.2257 117.042C88.281 116.936 88.449 116.542 88.2566 115.976L87.5159 115.737C87.2837 115.661 87.0405 115.761 86.9255 115.978Z" fill="#FFC0AF"/>
<path d="M91.6111 119.399C91.5846 119.644 91.4652 119.857 91.2949 120.003L90.521 119.945C90.2513 119.925 90.039 119.699 90.028 119.421C90.0213 119.264 90.0456 119.113 90.0766 118.989C90.1297 118.77 90.3088 118.611 90.5277 118.582C90.8837 118.538 91.317 118.606 91.317 118.606C91.3878 118.671 91.4475 118.746 91.4962 118.828C91.589 118.996 91.6332 119.195 91.6111 119.399Z" fill="#FFFBFA"/>
<path d="M87.9981 115.529L87.0937 115.299C86.9102 115.252 86.7311 115.186 86.5608 115.104L83.5736 113.666C83.2485 113.509 82.9721 113.265 82.7753 112.958L82.123 111.953C82.1938 112.028 83.2684 113.252 83.2684 113.252L86.3463 114.757L87.9981 115.529Z" fill="#E98773"/>
<path d="M141.658 111.752C141.603 111.639 139.288 113.228 138.244 112.929C138.244 112.929 135.932 113.303 136.192 113.261C136.453 113.219 133.975 113.526 133.106 113.155L120.354 113.79V113.987L127.237 116.142H135.372L137.311 114.799L140.371 113.947L142.348 112.67L143.429 111.997L141.658 111.752Z" fill="#DFDFDF"/>
<path d="M120.042 89.5752L118.702 91.6329C118.702 91.6329 117.649 88.4556 113.944 84.1897L116.993 81.3244L114.51 80.9173L113.638 80.7735L113.017 80.6717C113.278 80.5168 113.563 80.3022 113.86 80.0434C114.308 79.6517 114.786 79.1583 115.261 78.6251C117.13 76.5298 118.974 73.7707 118.974 73.7707C118.974 73.7707 117.904 83.8379 120.042 89.5752Z" fill="#CECECE"/>
<path d="M136.614 96.9674L135.726 100.089L135.257 101.735C135.188 101.977 135.146 102.224 135.129 102.47L134.892 106.039C134.888 106.112 134.881 106.185 134.87 106.26L134.459 109.495C134.423 109.763 134.41 110.03 134.414 110.296L134.43 111.309L134.454 112.732C134.456 112.874 134.377 113.011 134.253 113.082C134.251 113.082 134.251 113.084 134.249 113.084C133.24 113.65 128.884 116.119 127.447 117.248C127.131 117.496 126.711 117.522 126.403 117.312L121.172 113.756C120.984 113.628 120.88 113.405 120.893 113.168C120.895 113.135 120.9 113.102 120.906 113.066L121.234 111.389L121.344 110.823C121.419 110.433 121.453 110.037 121.439 109.648L121.362 107.371C121.353 107.11 121.373 106.844 121.422 106.581L122.067 103.152C122.125 102.846 122.151 102.536 122.145 102.231L122.118 100.862L122.233 100.249C122.291 99.9433 122.317 99.6335 122.311 99.3282L122.302 98.8392L122.262 96.8346L122.361 95.9784C122.361 95.9784 122.523 95.9053 122.837 95.85C123.509 95.7328 124.878 95.6974 126.848 96.6355C126.848 96.6355 127.409 96.9099 128.177 96.8966H128.179C128.36 96.8922 128.555 96.8722 128.754 96.828C128.864 96.8037 128.977 96.7727 129.09 96.7328C129.545 96.5735 129.917 96.6112 130.26 96.7284C130.609 96.8457 130.927 97.0426 131.27 97.1842C131.361 97.2218 131.454 97.255 131.549 97.2838C131.551 97.2838 131.553 97.286 131.555 97.286C131.558 97.286 131.56 97.2882 131.564 97.2882C131.679 97.3214 131.796 97.3457 131.92 97.3568C131.92 97.3568 132.024 97.3767 132.267 97.3656C132.484 97.3546 132.809 97.3192 133.271 97.2218C133.36 97.2041 133.453 97.182 133.55 97.1599C133.782 97.1046 134.019 97.0869 134.249 97.1156L135.232 97.2373C135.46 97.2639 135.695 97.244 135.922 97.1732L136.035 97.1377L136.614 96.9674Z" fill="#DFDFDF"/>
<path opacity="0.14" d="M126.487 98.6976L128.951 99.7685L129.251 99.9765L129.981 100.368L130.556 100.866L130.907 101.747L130.138 100.764C130.138 100.764 128.718 100.229 128.699 100.222C128.679 100.215 126.441 98.9189 126.441 98.9189L126.487 98.6976Z" fill="#403F41"/>
<path d="M135.987 97.37L135.925 97.3479C135.942 97.2992 135.962 97.2484 135.982 97.1975L135.933 97.213L135.914 97.151L136.09 97.0979L136.066 97.1599C136.037 97.2307 136.011 97.3015 135.987 97.37Z" fill="white"/>
<path d="M135.845 97.9541L135.783 97.9364L135.838 97.7439C135.816 97.7196 135.816 97.6731 135.869 97.5072L135.931 97.5271C135.9 97.6245 135.892 97.6687 135.889 97.6909L135.923 97.6842L135.845 97.9541Z" fill="white"/>
<path d="M133.897 112.006L133.89 111.562H133.954L133.961 112.006H133.897ZM133.881 111.115L133.875 110.67H133.939L133.946 111.115H133.881ZM133.932 110.223H133.868C133.868 110.072 133.875 109.922 133.886 109.776L133.95 109.78C133.939 109.926 133.932 110.075 133.932 110.223ZM133.999 109.338L133.935 109.329L133.99 108.887L134.054 108.895L133.999 109.338ZM134.111 108.455L134.047 108.446L134.103 108.004L134.167 108.013L134.111 108.455ZM134.224 107.57L134.16 107.561L134.215 107.119L134.279 107.128L134.224 107.57ZM134.337 106.687L134.273 106.678L134.328 106.236L134.392 106.245L134.337 106.687ZM134.43 105.8L134.366 105.796L134.394 105.351L134.459 105.355L134.43 105.8ZM134.487 104.911L134.423 104.906L134.452 104.461L134.516 104.466L134.487 104.911ZM134.547 104.021L134.483 104.017L134.512 103.572L134.576 103.576L134.547 104.021ZM134.607 103.132L134.543 103.127L134.571 102.682L134.635 102.687L134.607 103.132ZM134.673 102.244L134.609 102.236C134.629 102.087 134.655 101.939 134.689 101.793L134.753 101.809C134.717 101.952 134.691 102.101 134.673 102.244ZM134.87 101.381L134.808 101.364L134.93 100.935L134.991 100.952L134.87 101.381ZM135.113 100.525L135.051 100.508L135.173 100.078L135.235 100.096L135.113 100.525ZM135.356 99.6689L135.294 99.6512L135.416 99.222L135.478 99.2397L135.356 99.6689ZM135.602 98.8105L135.54 98.7928L135.661 98.3635L135.723 98.3812L135.602 98.8105Z" fill="white"/>
<path d="M133.758 112.818L133.727 112.761L133.906 112.659L133.904 112.451H133.968L133.972 112.697L133.758 112.818Z" fill="white"/>
<path d="M126.91 116.96C126.837 116.96 126.768 116.94 126.709 116.905L126.742 116.85C126.793 116.881 126.848 116.896 126.91 116.896H126.919C126.996 116.894 127.069 116.867 127.131 116.821L127.171 116.872C127.098 116.927 127.009 116.958 126.921 116.96H126.91ZM126.331 116.648L125.955 116.392L125.99 116.339L126.366 116.595L126.331 116.648ZM127.536 116.597L127.498 116.544C127.611 116.462 127.737 116.376 127.872 116.283L127.909 116.336C127.774 116.429 127.648 116.518 127.536 116.597ZM125.579 116.135L125.203 115.878L125.238 115.825L125.614 116.082L125.579 116.135ZM128.287 116.086L128.252 116.031C128.376 115.949 128.502 115.867 128.635 115.783L128.67 115.838C128.537 115.923 128.411 116.004 128.287 116.086ZM124.825 115.624L124.449 115.367L124.484 115.314L124.86 115.571L124.825 115.624ZM129.052 115.595L129.017 115.54C129.143 115.46 129.274 115.38 129.404 115.299L129.437 115.354C129.309 115.434 129.181 115.515 129.052 115.595ZM129.829 115.115L129.795 115.06C129.924 114.98 130.054 114.903 130.185 114.823L130.218 114.878C130.087 114.958 129.957 115.038 129.829 115.115ZM124.073 115.113L123.697 114.856L123.732 114.803L124.108 115.06L124.073 115.113ZM130.607 114.644L130.574 114.588C130.704 114.511 130.835 114.434 130.965 114.356L130.998 114.411C130.87 114.489 130.737 114.566 130.607 114.644ZM123.321 114.602L122.945 114.345L122.981 114.292L123.357 114.549L123.321 114.602ZM131.392 114.181L131.359 114.126C131.491 114.049 131.624 113.971 131.752 113.896L131.785 113.951C131.655 114.026 131.525 114.104 131.392 114.181ZM122.567 114.091L122.191 113.834L122.227 113.781L122.603 114.037L122.567 114.091ZM132.177 113.721L132.144 113.666C132.279 113.586 132.411 113.511 132.537 113.438L132.57 113.493C132.444 113.568 132.314 113.644 132.177 113.721ZM121.815 113.579L121.462 113.338C121.453 113.332 121.444 113.325 121.437 113.318L121.482 113.272C121.486 113.276 121.493 113.281 121.499 113.285L121.853 113.526L121.815 113.579ZM132.966 113.267L132.933 113.21C133.075 113.128 133.207 113.053 133.329 112.984L133.362 113.042C133.24 113.11 133.108 113.188 132.966 113.267ZM121.495 112.865L121.431 112.852L121.517 112.405L121.581 112.418L121.495 112.865ZM121.669 111.971L121.605 111.958L121.692 111.511L121.756 111.524L121.669 111.971ZM121.844 111.077L121.78 111.064L121.815 110.878C121.833 110.792 121.846 110.703 121.86 110.617L121.924 110.626C121.91 110.712 121.895 110.8 121.88 110.889L121.844 111.077ZM121.975 110.174L121.91 110.17C121.919 110.039 121.924 109.907 121.924 109.776V109.718H121.988V109.778C121.988 109.907 121.983 110.042 121.975 110.174ZM121.908 109.263L121.893 108.807L121.957 108.805L121.972 109.26L121.908 109.263ZM121.877 108.353L121.862 107.898L121.926 107.895L121.941 108.351L121.877 108.353ZM121.846 107.444L121.842 107.311C121.842 107.278 121.84 107.245 121.84 107.212C121.84 107.136 121.842 107.061 121.849 106.986L121.913 106.99C121.908 107.063 121.904 107.139 121.904 107.212C121.904 107.245 121.904 107.276 121.906 107.309L121.91 107.442L121.846 107.444ZM121.977 106.543L121.913 106.532L121.997 106.085L122.061 106.096L121.977 106.543ZM122.145 105.65L122.081 105.638L122.165 105.192L122.229 105.203L122.145 105.65ZM122.315 104.753L122.251 104.742L122.335 104.295L122.399 104.307L122.315 104.753ZM122.483 103.86L122.419 103.849L122.503 103.402L122.567 103.413L122.483 103.86ZM122.645 102.963L122.58 102.955C122.6 102.802 122.616 102.652 122.622 102.505L122.687 102.508C122.68 102.656 122.664 102.809 122.645 102.963ZM122.622 102.052L122.614 101.596L122.678 101.594L122.687 102.05L122.622 102.052ZM122.605 101.14L122.6 100.868L122.636 100.682L122.7 100.693L122.667 100.873L122.673 101.138L122.605 101.14ZM122.782 100.246L122.718 100.235C122.744 100.085 122.762 99.9345 122.775 99.7862L122.839 99.7906C122.826 99.9411 122.808 100.094 122.782 100.246ZM122.791 99.3349L122.782 98.8791L122.846 98.8768L122.855 99.3326L122.791 99.3349ZM122.775 98.4255L122.766 97.9697L122.83 97.9675L122.839 98.4233L122.775 98.4255ZM122.757 97.5161L122.749 97.0603L122.813 97.0581L122.821 97.5139L122.757 97.5161Z" fill="white"/>
<path d="M122.833 96.6156L122.769 96.6089L122.797 96.3589L122.822 96.3545C122.824 96.3523 122.842 96.3279 122.833 96.1731L122.897 96.1686C122.903 96.2881 122.897 96.3744 122.857 96.4054L122.833 96.6156Z" fill="white"/>
<path d="M122.826 96.0846C122.821 96.0182 122.813 95.9452 122.806 95.8721L122.804 95.8589L122.868 95.8522L122.87 95.8655C122.879 95.9407 122.886 96.0138 122.89 96.0801L122.826 96.0846Z" fill="white"/>
<path opacity="0.14" d="M134.125 97.109L134.253 100.255L134.133 100.627L132.309 103.944L131.414 105.541L131.082 106.01L132.25 103.43L133.742 100.328L133.837 96.901L134.125 97.109Z" fill="#403F41"/>
<path d="M131.942 100.583L131.94 100.519C132.066 100.516 132.196 100.503 132.322 100.481L132.334 100.545C132.205 100.567 132.073 100.581 131.942 100.583ZM131.549 100.563C131.418 100.545 131.288 100.519 131.162 100.483L131.179 100.421C131.301 100.457 131.429 100.483 131.555 100.501L131.549 100.563ZM132.716 100.448L132.698 100.386C132.785 100.362 132.919 100.324 133.079 100.288L133.092 100.353C132.935 100.388 132.8 100.423 132.716 100.448ZM134.622 100.368C134.388 100.362 134.268 100.304 134.242 100.288H134.24C134.237 100.288 134.237 100.286 134.237 100.286L134.242 100.277L134.246 100.258L134.259 100.227L134.271 100.231C134.271 100.231 134.381 100.297 134.624 100.304L134.622 100.368ZM130.795 100.342C130.622 100.262 130.507 100.182 130.452 100.142L130.489 100.089C130.543 100.127 130.655 100.202 130.821 100.282L130.795 100.342ZM135.018 100.337L135.007 100.273C135.124 100.253 135.25 100.222 135.381 100.182L135.4 100.244C135.266 100.284 135.137 100.315 135.018 100.337ZM133.474 100.286L133.466 100.222C133.605 100.204 133.738 100.193 133.859 100.191V100.255C133.74 100.258 133.609 100.269 133.474 100.286ZM130.151 99.9035C130.049 99.846 129.932 99.7973 129.8 99.7575L129.817 99.6955C129.954 99.7353 130.078 99.7862 130.184 99.8482L130.151 99.9035ZM127.011 99.8371C126.916 99.8371 126.815 99.8327 126.711 99.8238L126.717 99.7597C126.852 99.7708 126.98 99.7752 127.102 99.7707L127.104 99.8349C127.073 99.8371 127.042 99.8371 127.011 99.8371ZM127.496 99.7951L127.485 99.7309L127.491 99.7287C127.493 99.7287 127.641 99.6955 127.869 99.6601L127.878 99.7243C127.653 99.7575 127.507 99.7907 127.504 99.7907L127.496 99.7951ZM126.319 99.773C126.195 99.7508 126.065 99.7243 125.934 99.6933L125.95 99.6291C126.078 99.6601 126.206 99.6867 126.33 99.7088L126.319 99.773ZM129.421 99.68C129.302 99.6645 129.172 99.6535 129.037 99.6491L129.039 99.5849C129.176 99.5893 129.309 99.6004 129.43 99.6181L129.421 99.68ZM128.263 99.6756L128.256 99.6114C128.389 99.5982 128.522 99.5893 128.648 99.5849L128.65 99.6491C128.526 99.6535 128.395 99.6645 128.263 99.6756ZM125.559 99.5893C125.433 99.5517 125.307 99.5097 125.187 99.4654L125.209 99.4035C125.329 99.4477 125.452 99.4898 125.576 99.5274L125.559 99.5893ZM124.851 99.2552C124.754 99.1689 124.65 99.0937 124.544 99.0273L124.577 98.972C124.687 99.0406 124.794 99.118 124.893 99.2065L124.851 99.2552ZM122.31 98.8702L122.291 98.8083C122.417 98.7684 122.545 98.7353 122.671 98.7087L122.684 98.7729C122.56 98.7972 122.434 98.8304 122.31 98.8702ZM124.201 98.857C124.084 98.8105 123.96 98.7751 123.832 98.7508L123.845 98.6866C123.975 98.7131 124.104 98.7508 124.223 98.7972L124.201 98.857ZM123.064 98.7154L123.058 98.6512C123.19 98.6401 123.321 98.6357 123.451 98.6401L123.449 98.7043C123.323 98.6999 123.195 98.7021 123.064 98.7154Z" fill="white"/>
<path opacity="0.04" d="M133.742 100.328L130.826 104.751L131.038 100.574L131.182 98.514L131.272 97.1909L131.277 97.1422C131.365 97.1865 131.456 97.2374 131.551 97.2905C131.553 97.2905 131.555 97.2927 131.558 97.2927C131.56 97.2927 131.562 97.2949 131.566 97.2949C131.65 97.3126 132.157 97.4077 132.276 97.2728L132.27 97.3723C132.486 97.3613 132.811 97.3259 133.273 97.2285L133.742 100.328Z" fill="#403F41"/>
<path d="M127.445 89.0596C127.516 88.1149 128.084 87.221 128.935 86.7984C129.344 86.5948 129.842 86.4775 130.399 86.6059C130.399 86.6059 131.852 86.8271 132.276 88.168C132.276 88.168 132.659 89.2521 131.894 90.8231C131.894 90.8231 131.602 91.5267 131.973 92.113C131.973 92.113 132.522 92.9139 132.051 94.6176L126.981 95.1287C126.981 95.1287 125.813 95.2991 126.174 93.3985C126.174 93.3985 126.556 92.8719 126.191 92.4825C126.191 92.4825 125.594 91.7214 126.496 90.8031C126.496 90.8031 127.452 89.9624 127.438 89.1481C127.441 89.1503 127.441 89.1172 127.445 89.0596Z" fill="black"/>
<path d="M128.71 91.6948L128.971 91.9205L128.511 92.9737L128.294 92.2612L128.513 91.8032L128.71 91.6948Z" fill="#0C1C2B"/>
<path d="M130.799 91.7435C130.799 91.7435 130.527 91.4935 130.317 91.5599L130.496 92.7259L130.897 91.9758L130.799 91.7435Z" fill="#0C1C2B"/>
<path d="M124.573 96.7218C124.573 96.7218 124.575 97.5426 126.824 97.359L126.569 96.5315L125.948 96.162L125.192 96.3301L124.69 96.4297L124.573 96.7218Z" fill="#203A55"/>
<path d="M134.284 96.7284C134.284 96.7284 134.103 97.3037 132.239 97.5073L132.65 96.8501L133.455 96.3501L134.039 96.3346L134.255 96.5691L134.284 96.7284Z" fill="#203A55"/>
<path d="M131.073 102.309C131.071 102.342 131.047 102.375 131.012 102.384C130.998 102.386 130.987 102.388 130.974 102.388C130.91 102.388 130.855 102.351 130.832 102.289L130.691 101.888L130.373 101.419L130.377 101.519L130.662 101.99L130.852 102.567L130.905 102.729C130.921 102.778 130.886 102.833 130.835 102.84L130.804 102.844C130.801 102.844 130.801 102.844 130.799 102.844C130.744 102.848 130.695 102.82 130.675 102.769L130.408 102.118L130.034 101.674L130.37 102.198L130.58 102.729L130.64 102.882C130.649 102.902 130.644 102.928 130.631 102.946C130.605 102.983 130.58 103.006 130.556 103.021C130.479 103.07 130.419 103.019 130.419 103.019C130.251 102.946 130.061 102.329 130.061 102.329L129.802 101.935L129.627 101.784L129.879 102.255L129.986 102.55L130.019 102.645C130.032 102.683 130.012 102.727 129.972 102.74C129.95 102.747 129.928 102.747 129.906 102.742C129.851 102.731 129.804 102.687 129.784 102.663C129.776 102.654 129.769 102.643 129.764 102.629C129.521 102.072 129.34 101.908 129.34 101.908C129.002 101.618 128.807 101.081 128.807 101.081C128.666 100.742 128.168 100.673 128.168 100.673L125.221 99.7022C124.838 99.6115 124.818 99.3725 124.834 99.2574C124.84 99.2066 124.845 99.1535 124.845 99.1026C124.836 98.295 125.172 96.463 125.172 96.463L126.565 96.5338L126.09 98.5339C126.545 98.9587 128.462 99.669 128.933 99.8394C129.004 99.8637 129.066 99.9035 129.121 99.9522L129.179 100.003C129.221 100.041 129.269 100.074 129.322 100.098L129.813 100.324C129.873 100.35 129.928 100.388 129.979 100.43L130.395 100.784C130.437 100.82 130.472 100.864 130.496 100.915L130.897 101.727C130.901 101.733 130.903 101.74 130.905 101.747L131.016 102.109L131.069 102.282C131.073 102.291 131.076 102.3 131.073 102.309Z" fill="#FFC0AF"/>
<path d="M129.979 102.736C129.957 102.742 129.935 102.742 129.913 102.738L129.853 102.636L129.992 102.548L130.025 102.643C130.039 102.676 130.019 102.722 129.979 102.736Z" fill="white"/>
<path d="M130.635 102.941C130.609 102.979 130.585 103.001 130.56 103.017C130.459 102.961 130.445 102.835 130.445 102.835L130.585 102.725L130.644 102.877C130.651 102.897 130.649 102.921 130.635 102.941Z" fill="white"/>
<path d="M130.837 102.835L130.806 102.84C130.804 102.84 130.804 102.84 130.801 102.84L130.717 102.667L130.854 102.563L130.907 102.725C130.925 102.773 130.89 102.829 130.837 102.835Z" fill="white"/>
<path d="M131.073 102.309C131.071 102.342 131.047 102.375 131.011 102.384C130.998 102.386 130.987 102.388 130.974 102.388L130.91 102.22L131.018 102.112L131.071 102.284C131.073 102.291 131.076 102.3 131.073 102.309Z" fill="white"/>
<path d="M131.148 105.643L131.177 105.63L131.011 105.922L131.148 105.643Z" fill="#FFE0AE"/>
<path d="M134.158 100.149C134.165 100.304 134.127 100.461 134.05 100.603L132.173 104.099L131.627 105.178L131.518 105.382C131.516 105.386 131.512 105.393 131.509 105.397L131.414 105.539L131.134 106.079C131.127 106.094 131.116 106.108 131.105 106.119L130.963 106.256L130.899 106.318C130.893 106.324 130.886 106.327 130.877 106.327C130.859 106.327 130.844 106.32 130.833 106.309C130.824 106.3 130.813 106.265 130.811 106.249C130.811 106.247 130.811 106.243 130.811 106.24L130.966 106.043L131.18 105.625L131.014 105.917L130.926 106.074L130.851 106.172L130.508 106.524L130.393 106.599C130.346 106.63 130.289 106.61 130.273 106.559L130.271 106.552L130.267 106.535C130.247 106.468 130.269 106.393 130.322 106.342L130.548 106.101L130.775 105.718L130.444 106.152L130.127 106.373L130.03 106.439C129.97 106.481 129.898 106.459 129.871 106.402C129.867 106.393 129.864 106.384 129.862 106.373C129.86 106.364 129.86 106.353 129.86 106.342C129.862 106.304 129.878 106.269 129.904 106.24L130.293 105.908L130.545 105.439L130.167 105.858L129.86 106.174L129.82 106.189L129.802 106.196L129.743 106.22C129.694 106.238 129.645 106.209 129.639 106.161C129.639 106.156 129.637 106.15 129.639 106.143L129.641 106.121C129.645 106.041 129.683 105.964 129.745 105.911L129.776 105.884L130.28 105.271L130.501 104.782L130.508 104.656L129.858 105.052C129.785 105.096 129.696 105.094 129.634 105.046L129.59 105.012C129.588 105.012 129.588 105.01 129.586 105.008C129.542 104.968 129.555 104.888 129.614 104.862C129.668 104.835 129.732 104.804 129.8 104.767C129.953 104.68 130.123 104.568 130.214 104.448C130.214 104.448 130.495 104.183 130.689 104.028C130.689 104.028 130.972 103.798 131.193 103.72C131.282 103.689 131.355 103.621 131.392 103.534L132.883 100.123L132.626 96.5912L134.028 96.62L134.158 100.149Z" fill="#FFC0AF"/>
<path d="M129.793 104.778L129.784 104.944L129.581 105.019C129.537 104.979 129.55 104.899 129.61 104.873C129.66 104.849 129.725 104.815 129.793 104.778Z" fill="white"/>
<path d="M129.8 106.207L129.74 106.231C129.692 106.249 129.643 106.22 129.636 106.172L129.745 106.119L129.8 106.207Z" fill="white"/>
<path d="M130.125 106.382L130.027 106.448C129.968 106.49 129.895 106.468 129.868 106.411L130.016 106.309C130.052 106.309 130.094 106.349 130.125 106.382Z" fill="white"/>
<path d="M130.503 106.528L130.388 106.603C130.341 106.634 130.284 106.614 130.268 106.563L130.266 106.557L130.372 106.457L130.503 106.528Z" fill="white"/>
<path d="M130.961 106.258L130.897 106.321C130.89 106.327 130.884 106.329 130.875 106.329C130.857 106.329 130.841 106.323 130.83 106.312L130.888 106.24L130.961 106.258Z" fill="white"/>
<path d="M134.284 96.7284C134.284 96.7284 134.18 96.6355 133.948 96.6289C133.895 96.6267 133.835 96.6311 133.766 96.6399C133.459 96.6842 133.004 96.8678 132.369 97.3944C132.325 97.4298 132.283 97.4674 132.236 97.5073L132.048 97.5095L131.113 97.5205L126.821 97.359L130.412 93.841L130.941 92.9383L131.29 92.3387C131.29 92.3387 131.334 92.352 131.407 92.3741C131.635 92.4427 132.152 92.5931 132.555 92.675C132.555 92.675 133.267 92.748 133.525 93.7127C133.525 93.7127 133.594 93.9738 133.691 94.3433C133.733 94.5026 133.78 94.6818 133.828 94.8677C134.043 95.6885 134.288 96.6576 134.284 96.7284Z" fill="url(#paint4_linear_977_347)"/>
<path opacity="0.28" d="M132.237 97.5051L132.049 97.5073C132.049 97.5073 132.277 96.4563 132.268 95.6863C132.31 96.3103 132.319 96.9763 132.237 97.5051Z" fill="#629282"/>
<path d="M129.601 94.5092L126.826 97.359C126.379 96.7926 125.648 96.6797 125.139 96.6775C125.084 96.6775 125.028 96.6775 124.98 96.6819C124.737 96.6908 124.575 96.724 124.575 96.724L125.289 94.9539C125.813 93.3719 126.315 93.2104 126.315 93.2104L128.122 92.4227L129.601 94.5092Z" fill="url(#paint5_linear_977_347)"/>
<path opacity="0.1" d="M127.014 94.7017C126.89 95.2084 126.751 95.6398 126.826 97.3568L128.515 97.5515C128.515 97.5515 126.981 97.5117 127.129 94.7106C127.131 94.6398 127.032 94.6309 127.014 94.7017Z" fill="#2A3C36"/>
<path opacity="0.1" d="M132.237 97.505L132.049 97.5072L131.113 97.5183C131.113 97.5183 132.066 96.8147 132.055 94.2238C132.055 94.1884 132.106 94.1773 132.111 94.2127C132.15 94.4871 132.197 94.8654 132.234 95.2902C132.245 95.4186 132.256 95.5513 132.265 95.6863C132.31 96.3102 132.318 96.9762 132.237 97.505Z" fill="#2A3C36"/>
<path opacity="0.1" d="M132.409 94.5136L132.298 96.3788L132.553 94.5092L132.409 94.5136Z" fill="#2A3C36"/>
<path opacity="0.1" d="M125.397 95.6288L125.139 96.6753C125.083 96.6753 125.028 96.6753 124.979 96.6798L125.397 95.6288Z" fill="#2A3C36"/>
<path opacity="0.1" d="M130.812 93.4759L130.943 92.936L131.292 92.3364C131.292 92.3364 131.337 92.3497 131.41 92.3718C131.41 92.3718 131.425 92.7214 130.812 93.4759Z" fill="#2A3C36"/>
<path d="M130.702 92.5998L129.413 94.7194L129.052 93.8477L128.595 92.7458L128.61 92.5577L128.78 90.3474L130.598 91.2766L130.571 91.9293V91.9647L130.549 92.5245L130.702 92.5998Z" fill="#FFC0AF"/>
<path d="M130.596 91.9515L130.569 91.9647L129.977 92.2834C129.694 92.436 129.475 92.6905 129.362 92.9958L129.05 93.8477L128.652 92.6418L128.606 92.5577L128.776 90.3474L130.569 91.9293L130.596 91.9515Z" fill="#EEB3A3"/>
<path d="M128.975 88.9512C128.975 88.9512 129.712 89.2101 130.976 88.0042C130.976 88.0042 131.242 88.4158 131.54 88.606C131.54 88.606 131.795 91.5842 130.309 91.9603C130.309 91.9603 128.799 92.0798 128.781 90.3495C128.781 90.3495 128.319 90.2301 128.469 89.8407C128.469 89.8407 128.489 89.4955 128.792 89.5796L128.975 88.9512Z" fill="#FFC0AF"/>
<path d="M128.71 91.6948C128.71 91.6948 128.345 91.8077 128.657 92.6418C128.657 92.6418 129.134 93.934 129.499 94.1707L129.415 94.7172L128.966 94.9363C128.966 94.9363 127.949 93.5423 128.064 92.5533C128.062 92.5555 128.367 91.7457 128.71 91.6948Z" fill="#203A55"/>
<path d="M130.8 91.7435C130.8 91.7435 131.065 92.7148 126.826 97.359L127.695 97.5648L127.972 97.1422C127.972 97.1422 131.193 93.5733 131.293 92.3387L130.8 91.7435Z" fill="#001E3D"/>
<path d="M132.272 97.2705L132.19 98.6932L131.177 98.5118L126.744 97.7197L126.777 97.5028L126.804 97.328V96.7151C126.804 96.7151 127.164 96.9696 128.175 96.8966H128.177C128.349 96.8833 128.542 96.8634 128.752 96.828C128.96 96.7948 129.19 96.7483 129.44 96.6886C129.643 96.6399 129.849 96.6333 130.045 96.6753C130.11 96.6886 130.18 96.7063 130.26 96.7284C130.519 96.7992 130.861 96.9253 131.275 97.1355C131.292 97.1444 131.308 97.1532 131.326 97.1621C131.399 97.1997 131.472 97.2417 131.549 97.2838C131.549 97.2838 131.551 97.2838 131.551 97.286H131.553C131.556 97.286 131.558 97.2882 131.562 97.2882C131.646 97.3103 132.153 97.4055 132.272 97.2705Z" fill="#DCDBDE"/>
<path opacity="0.14" d="M127.48 96.8988L127.6 97.8768L126.744 97.7241L126.463 98.7839L126.092 98.5317L126.366 97.3834L126.802 97.359V96.7196L127.113 96.8435C127.129 96.8501 127.144 96.8546 127.16 96.8568L127.48 96.8988Z" fill="#403F41"/>
<path opacity="0.04" d="M129.44 96.6931L129.207 98.1622L127.485 109.002L128.237 97.9874L128.312 96.89L129.44 96.6931Z" fill="#403F41"/>
<path d="M128.133 99.5318L128.964 99.846L128.794 101.034C128.794 101.034 128.703 100.866 128.436 100.744L128.004 100.612L128.133 99.5318Z" fill="#FFC0AF"/>
<path opacity="0.04" d="M132.272 97.2706L132.19 98.6932L131.177 98.5118L131.323 97.1666C131.396 97.2042 131.469 97.2462 131.547 97.2883C131.547 97.2883 131.549 97.2883 131.549 97.2905H131.551C131.553 97.2905 131.555 97.2927 131.56 97.2927C131.646 97.3104 132.152 97.4055 132.272 97.2706Z" fill="#403F41"/>
<path d="M109.8 49.8284C109.8 49.8284 109.605 54.1163 110.547 57.7826C110.547 57.7826 110.892 59.2451 110.998 60.285C111.098 61.2785 111.281 62.2608 111.569 63.2167C112.073 64.896 112.862 67.1064 113.725 67.9649C113.725 67.9649 117.083 71.2683 117.503 72.0316C117.503 72.0316 118.213 73.8238 120.356 74.1513C120.356 74.1513 122.41 74.2088 123.872 72.6312C123.872 72.6312 129.298 68.4915 129.422 66.3386C129.422 66.3386 129.965 60.6678 128.904 57.579L126.757 47.9432C126.757 47.9432 124.298 43.5999 124.135 43.5424C123.971 43.4871 120.973 43.2614 120.511 43.2614C120.048 43.2614 112.528 46.5183 112.528 46.5183L109.8 49.8284Z" fill="#FFC0AF"/>
<path d="M110.466 57.4462C110.466 57.4462 107.731 51.7931 108.221 49.9965C108.221 49.9965 107.187 47.806 107.786 46.0669C107.786 46.0669 108.44 44.0446 109.256 43.653L111.164 42.1927L114.165 39.9912C114.857 39.4823 115.671 39.1637 116.526 39.073C119.091 38.7986 124.484 38.7101 126.207 42.4715L127.405 42.5644C127.405 42.5644 130.076 42.7658 130.24 51.771L128.904 57.5768L128.146 56.9572C127.898 56.7559 127.739 56.4616 127.706 56.1364C127.602 55.1606 127.133 52.9547 125.011 51.771V49.3039C125.011 48.7795 124.794 48.2817 124.414 47.9343L122.322 46.0116C122.322 46.0116 113.948 49.4367 109.807 49.8305C109.8 49.8283 110.382 57.1121 110.466 57.4462Z" fill="black"/>
<path d="M121.254 62.4599L118.7 64.2012L116.122 63.4158L116.529 60.8337C117.208 57.6896 116.122 57.2958 116.122 57.2958C116.122 57.2958 113.581 55.8576 110.466 57.4484L111.437 58.0613C111.437 58.0613 114.616 56.694 115.861 58.0613C115.861 58.0613 116.695 58.5923 116.288 60.8049L115.861 63.5839L118.702 64.4535L121.254 62.4599Z" fill="#D97F6B"/>
<path d="M126.903 55.5883C126.839 56.4025 126.939 57.2189 127.195 57.9911L127.688 59.4669L127.934 60.2015C128.548 60.9759 129.256 60.3387 129.256 60.3387C129.395 60.0533 130.143 59.4824 130.536 59.197C130.585 59.1616 130.631 59.124 130.678 59.0841C130.819 58.9647 130.945 58.8297 131.056 58.6792C131.191 58.4956 131.308 58.3075 131.412 58.1172C131.807 57.3871 131.995 56.6304 132.077 56.0042C132.186 55.19 132.121 54.6037 132.121 54.6037C131.995 51.9331 130.043 51.6233 130.043 51.6233C129.03 51.3467 128.354 51.6145 127.903 52.0747C127.328 52.6588 127.199 53.6633 127.173 54.1921C127.16 54.4643 127.12 54.732 127.054 54.9953L126.903 55.5883Z" fill="#FFC0AF"/>
<path d="M127.668 58.0348C127.763 58.3225 127.903 58.4132 128.035 58.4198C128.219 58.4309 128.387 58.2804 128.387 58.2804C128.467 57.995 128.641 57.7804 128.811 57.6299C128.993 57.4706 129.216 57.3733 129.453 57.3334C129.607 57.3069 129.745 57.2516 129.86 57.1852C130.05 57.0768 130.182 56.9418 130.249 56.8644C130.28 56.8268 130.297 56.8046 130.297 56.8046C130.678 56.0966 130.368 55.7293 130.368 55.7293C130.032 55.1828 128.606 54.9483 128.057 54.8775C128.055 54.8775 128.055 54.8775 128.053 54.8775C127.938 54.862 127.832 54.9483 127.819 55.0678L127.653 56.5148L127.62 56.8046L127.615 56.8467L127.653 56.9396L127.874 57.4817L127.668 58.0348Z" fill="#F0AFA1"/>
<path opacity="0.27" d="M130.479 56.2714C130.479 56.2714 130.956 54.5699 129.121 55.0766L130.479 56.2714Z" fill="#E98773"/>
<path d="M128.117 54.8886C128.135 54.9306 128.15 54.9727 128.166 55.0103V55.0125C128.309 55.3709 128.373 55.5391 128.378 55.5524C128.349 55.4528 128.338 55.3709 128.338 55.3001C128.338 55.2824 128.338 55.2647 128.34 55.247C128.349 55.1231 128.38 55.0236 128.376 54.8864C128.338 54.1053 128.725 53.769 129.156 53.6341C129.242 53.6075 129.329 53.5876 129.415 53.5743C130.116 53.4681 130.77 54.4151 130.77 54.4151C130.934 54.9572 131.044 55.6298 131.095 55.975C131.131 56.2206 131.115 56.4706 131.042 56.7073C130.85 57.3224 130.392 57.5238 130.156 57.5879C130.027 57.6233 129.93 57.734 129.921 57.8711C129.912 57.9906 129.972 58.0592 130.047 58.0968C130.18 58.1654 130.344 58.1322 130.445 58.0194C130.456 58.0061 130.467 57.9951 130.478 57.9818C130.498 57.9597 130.516 57.9375 130.534 57.9176C130.609 57.8291 130.677 57.7428 130.737 57.6565C130.737 57.6565 130.737 57.6543 130.739 57.6543C131.051 57.2206 131.204 56.8157 131.279 56.4993C131.303 56.3954 131.319 56.3024 131.327 56.2206C131.336 56.1475 131.341 56.0834 131.343 56.0281C131.343 56.017 131.343 56.0059 131.343 55.9971C131.343 55.9905 131.343 55.9816 131.343 55.975C131.343 55.9661 131.343 55.9573 131.343 55.9484C131.343 55.9374 131.343 55.9285 131.343 55.9197C131.341 55.8378 131.343 55.7559 131.347 55.6741C131.363 55.32 131.319 54.9461 131.248 54.601C131.246 54.5899 131.243 54.5788 131.241 54.5678C131.239 54.5567 131.237 54.5456 131.235 54.5346C131.232 54.5235 131.23 54.5124 131.228 54.5014C131.226 54.4881 131.221 54.4748 131.219 54.4616C131.217 54.4483 131.213 54.4328 131.21 54.4195C131.208 54.4062 131.204 54.393 131.201 54.3797C131.179 54.289 131.157 54.2027 131.133 54.1186C131.131 54.1098 131.128 54.0987 131.124 54.0898C131.12 54.0744 131.115 54.0611 131.111 54.0456C131.089 53.9704 131.067 53.8974 131.044 53.831C131.042 53.8221 131.04 53.8133 131.036 53.8066C131.031 53.7889 131.025 53.7734 131.02 53.758C131.016 53.7447 131.011 53.7336 131.007 53.7203C131.007 53.7159 131.005 53.7137 131.002 53.7093C131 53.7004 130.996 53.6894 130.994 53.6805C130.991 53.6717 130.987 53.6606 130.985 53.6518C130.978 53.6341 130.971 53.6141 130.965 53.5964C130.958 53.5787 130.954 53.5633 130.947 53.5478C130.941 53.5301 130.934 53.5146 130.929 53.4969C130.81 53.1761 130.596 52.8995 130.31 52.7203C129.594 52.2689 128.767 52.5941 128.471 52.738C128.444 52.7512 128.418 52.7645 128.391 52.78C128.373 52.7911 128.356 52.8021 128.34 52.8132C128.327 52.822 128.316 52.8309 128.303 52.8397C128.303 52.8397 128.303 52.8397 128.3 52.8397C128.276 52.8574 128.254 52.8774 128.234 52.8973C128.214 52.9172 128.194 52.9349 128.177 52.957C128.073 53.0721 128 53.2004 127.953 53.3376C127.783 53.8288 127.929 54.4217 128.117 54.8886Z" fill="#E98773"/>
<path opacity="0.69" d="M127.688 59.4664L127.869 60.0084C127.94 60.2231 128.088 60.4023 128.285 60.5019C128.548 60.6346 128.8 60.5859 128.982 60.5085C129.116 60.451 129.234 60.3536 129.322 60.2363C129.554 59.9332 130.184 59.4531 130.536 59.1964C130.585 59.161 130.631 59.1234 130.677 59.0836C130.819 58.9641 130.945 58.8291 131.056 58.6787C131.19 58.495 131.308 58.307 131.412 58.1167C131.807 57.3865 131.995 56.6298 132.077 56.0037L131.936 55.913C131.936 55.913 131.936 55.9152 131.936 55.9174C131.936 55.9196 131.936 55.9218 131.936 55.924C131.936 55.9329 131.933 55.9484 131.931 55.9683C131.931 55.9727 131.931 55.9771 131.929 55.9793C131.883 56.3842 131.557 58.4862 129.85 59.2208C129.651 59.3071 129.475 59.4398 129.342 59.6146C129.329 59.6301 129.318 59.6478 129.304 59.6655C128.964 60.1456 128.276 60.1832 127.889 59.7429C127.823 59.6633 127.754 59.5726 127.688 59.4664Z" fill="#F0AFA1"/>
<path d="M128.559 57.953C128.568 57.9441 128.572 57.9375 128.572 57.9375C128.862 57.6122 129.329 57.5857 129.329 57.5857C129.572 57.5923 129.693 57.2826 129.859 57.1896C129.194 57.3135 128.462 56.6276 128.462 56.6276C128.34 56.3776 128.053 56.3754 128.053 56.3754C127.821 56.3511 127.703 56.4197 127.65 56.5192C127.599 56.6077 127.604 56.7228 127.617 56.8091C127.628 56.8843 127.648 56.9396 127.65 56.944L127.871 57.4861L127.721 57.891C127.832 58.7274 128.46 58.0636 128.559 57.953Z" fill="#E98773"/>
<path d="M128.013 54.5987C128.044 54.6983 128.08 54.7956 128.117 54.8885C128.21 54.8908 128.296 54.8908 128.376 54.8863C129.725 54.8266 129.338 53.9239 129.338 53.9239C129.285 53.8088 129.225 53.7137 129.157 53.634C128.796 53.2092 128.263 53.2623 127.951 53.342C127.92 53.4305 127.901 53.5212 127.89 53.6141C127.852 53.9371 127.914 54.2823 128.013 54.5987Z" fill="#D97F6B"/>
<path d="M128.013 54.5987C128.25 54.674 128.433 54.7005 128.575 54.6939C129.161 54.6673 129.01 54.0722 129.01 54.0722C128.873 53.5079 128.212 53.5544 127.889 53.6141C127.876 53.7181 127.874 53.8266 127.881 53.9328C127.896 54.1584 127.947 54.3863 128.013 54.5987Z" fill="#BF5E55"/>
<path d="M127.876 58.2671C127.956 58.3003 128.049 58.307 128.131 58.2782C128.206 58.2539 128.274 58.2052 128.323 58.1277C128.69 57.5613 128.206 56.8843 128.206 56.8843C127.996 56.559 127.794 56.6608 127.688 56.7604C127.637 56.8068 127.622 56.8798 127.649 56.944C127.684 57.0325 127.713 57.1254 127.73 57.2184C127.77 57.4241 127.768 57.6365 127.721 57.8401C127.721 57.8622 127.686 58.1543 127.876 58.2671Z" fill="#A5514A"/>
<path d="M130.37 53.9681C130.37 53.9681 130.786 54.2204 130.979 55.278L130.89 54.3244L130.355 53.6163L130.37 53.9681Z" fill="#E98773"/>
<path d="M128.117 54.8885C128.128 54.924 128.139 54.9638 128.153 55.008C128.157 55.0191 128.159 55.0324 128.164 55.0434C128.17 55.0633 128.177 55.0855 128.184 55.1054C128.287 55.4306 128.478 55.8599 128.836 55.8223C128.836 55.8223 128.975 55.7891 129.165 55.778C129.632 55.7515 130.412 55.851 130.249 56.8666C130.28 56.829 130.297 56.8069 130.297 56.8069C130.41 56.5989 130.461 56.4197 130.479 56.2714C130.521 55.9152 130.366 55.7338 130.366 55.7338C130.03 55.185 128.663 54.9594 128.117 54.8885Z" fill="#BF5E55"/>
<path d="M128.117 54.8885C128.135 54.9483 128.155 55.0235 128.181 55.1076C128.612 55.1209 130.461 55.2381 130.476 56.2714C130.518 55.9152 130.364 55.7338 130.364 55.7338C130.03 55.185 128.663 54.9594 128.117 54.8885Z" fill="#E98773"/>
<path d="M128.164 55.0456C128.17 55.0656 128.177 55.0877 128.183 55.1076C128.287 55.4328 128.478 55.8621 128.836 55.8245C128.836 55.8245 128.975 55.7913 129.167 55.7802C128.942 55.5656 129.052 55.2005 129.052 55.2005L128.232 55.0302L128.164 55.0456Z" fill="#B2584F"/>
<path opacity="0.63" d="M127.883 53.935C127.883 53.935 128.884 54.0677 128.573 54.6939H128.575C129.161 54.6673 129.01 54.0722 129.01 54.0722C128.873 53.5079 128.212 53.5544 127.889 53.6141C127.878 53.7203 127.876 53.8266 127.883 53.935Z" fill="#B2584F"/>
<path d="M131.962 54.6341C131.962 54.6341 132.006 55.174 131.935 55.913C131.935 55.913 131.935 55.9152 131.935 55.9174C131.935 55.9196 131.935 55.9218 131.935 55.924C131.933 55.9395 131.933 55.9528 131.931 55.9683C131.931 55.9727 131.931 55.9771 131.929 55.9794C131.851 56.7051 131.661 57.6078 131.212 58.3756L131.411 58.1145C131.807 57.3843 131.995 56.6276 132.077 56.0015C132.185 55.1872 132.121 54.6009 132.121 54.6009C131.995 51.9303 130.043 51.6206 130.043 51.6206C129.03 51.344 128.353 51.6117 127.902 52.0719C127.9 52.0697 131.628 50.7643 131.962 54.6341Z" fill="#FFD3C8"/>
<path opacity="0.44" d="M131.142 54.7293C131.182 54.8753 131.239 55.1253 131.264 55.4417C131.312 56.1099 131.208 57.0768 130.476 57.9862C130.496 57.964 130.514 57.9419 130.532 57.922C130.607 57.8335 130.675 57.745 130.737 57.6587C131.049 57.225 131.202 56.8201 131.277 56.5037C131.301 56.3998 131.317 56.3068 131.326 56.2227C131.341 56.0944 131.343 55.9904 131.341 55.9218C131.339 55.84 131.341 55.7581 131.345 55.6762C131.379 54.9726 131.166 54.196 131.003 53.7115C130.976 53.634 130.952 53.5632 130.928 53.5013C130.808 53.1804 130.594 52.9039 130.308 52.7247C129.592 52.2733 128.765 52.5985 128.469 52.7424C128.383 52.7844 128.303 52.8375 128.234 52.9039C128.234 52.9039 128.312 52.8906 128.442 52.8818C129.002 52.8441 130.532 52.9017 131.089 54.5545C131.091 54.5655 131.096 54.5766 131.098 54.5899C131.098 54.5899 131.109 54.6186 131.124 54.6695C131.129 54.6806 131.131 54.6939 131.135 54.7049C131.138 54.7116 131.14 54.7204 131.142 54.7293Z" fill="#BF5E55"/>
<path d="M128.152 55.0081C128.157 55.0191 128.159 55.0324 128.163 55.0435C128.17 55.0634 128.177 55.0855 128.183 55.1054C128.23 55.2492 128.294 55.4152 128.38 55.5501C128.471 55.6917 128.59 55.8024 128.743 55.8201C128.771 55.8245 128.802 55.8245 128.833 55.8201C128.833 55.8201 128.973 55.7869 129.163 55.7758C129.145 55.7736 128.712 55.6962 128.438 55.4174C128.402 55.382 128.369 55.3422 128.34 55.2979C128.289 55.2205 128.25 55.1297 128.23 55.028L128.168 55.0103L128.152 55.0081Z" fill="#A6524A"/>
<path d="M128.13 58.2805C128.206 58.2561 128.274 58.2074 128.323 58.13C128.61 57.6831 128.374 57.1697 128.259 56.9706C128.217 56.8998 128.142 56.8511 128.062 56.8533C127.993 56.8556 127.929 56.8887 127.945 57.0237C127.951 57.0746 127.956 57.1255 127.956 57.1764C127.958 57.4242 127.976 58.1035 128.13 58.2805Z" fill="#8F4640"/>
<path d="M127.617 56.8091C128.013 56.3334 128.298 56.7294 128.298 56.7294C129.068 57.5569 129.859 57.1896 129.859 57.1896C129.194 57.3135 128.462 56.6276 128.462 56.6276C128.34 56.3776 128.053 56.3754 128.053 56.3754C127.821 56.3511 127.703 56.4197 127.65 56.5192C127.599 56.6077 127.602 56.7206 127.617 56.8091Z" fill="#ED9D8C"/>
<path d="M128.254 58.0835C128.294 58.1101 128.345 58.0946 128.367 58.0525C128.584 57.6255 128.367 57.1586 128.259 56.9706C128.259 56.9706 128.095 56.8976 128.104 57.079L128.195 57.9817C128.199 58.0238 128.221 58.0614 128.254 58.0835Z" fill="#8F4640"/>
<path d="M127.954 53.342C128 53.2048 128.073 53.0765 128.177 52.9614C128.195 52.9415 128.215 52.9216 128.234 52.9017C128.257 52.8818 128.279 52.8618 128.301 52.8441C128.301 52.8441 128.301 52.8441 128.303 52.8441C128.316 52.8353 128.327 52.8264 128.341 52.8176C128.358 52.8065 128.374 52.7955 128.391 52.7844C128.418 52.7689 128.442 52.7556 128.471 52.7424C128.767 52.5985 129.597 52.2755 130.311 52.7247C130.596 52.9039 130.81 53.1805 130.93 53.5013C130.936 53.5168 130.941 53.5345 130.948 53.5522C130.954 53.5677 130.959 53.5854 130.965 53.6008C130.972 53.6185 130.978 53.6362 130.985 53.6562C130.987 53.665 130.992 53.6739 130.994 53.6849C130.996 53.6938 131.001 53.7048 131.003 53.7137C131.003 53.7181 131.005 53.7203 131.007 53.7248C131.012 53.738 131.016 53.7491 131.02 53.7624C131.025 53.7779 131.032 53.7956 131.036 53.811C131.038 53.8199 131.04 53.8287 131.045 53.8354C131.067 53.904 131.089 53.9748 131.111 54.05C131.116 54.0655 131.12 54.0788 131.124 54.0943C131.127 54.1031 131.129 54.1142 131.133 54.123C131.158 54.2071 131.18 54.2934 131.202 54.3841C131.204 54.3974 131.208 54.4107 131.211 54.4239C131.215 54.4372 131.217 54.4527 131.219 54.466C131.222 54.4792 131.226 54.4925 131.228 54.5058C131.231 54.5169 131.233 54.5279 131.235 54.539C131.237 54.55 131.239 54.5611 131.242 54.5722C131.244 54.5832 131.246 54.5943 131.248 54.6054C131.319 54.9505 131.363 55.3222 131.348 55.6785C131.343 55.7603 131.341 55.8422 131.343 55.9241C131.343 55.9329 131.343 55.9418 131.343 55.9528C131.343 55.9617 131.343 55.9705 131.343 55.9794C131.343 55.986 131.343 55.9926 131.343 56.0015C131.343 56.0126 131.343 56.0214 131.343 56.0325C131.341 56.0878 131.337 56.152 131.328 56.225C131.31 56.3201 131.295 56.413 131.279 56.5038C131.206 56.8224 131.051 57.2251 130.74 57.6587C131.43 56.6564 131.264 55.4417 131.264 55.4417C131.142 53.1451 130.236 52.7424 130.236 52.7424C129.375 52.4038 128.774 52.6229 128.44 52.8618C128.418 52.8641 128.409 52.8862 128.4 52.8862C128.4 52.8862 127.644 53.3575 128.232 55.0324L128.17 55.0125C128.155 54.9749 128.139 54.9328 128.122 54.8908C127.929 54.4217 127.783 53.8287 127.954 53.342Z" fill="#D97F6B"/>
<path d="M147.458 78.3397C147.458 78.3397 137.851 90.739 139.684 103.036C139.684 103.036 141.49 108.51 142.05 112.259V113.256L145.576 110.294C145.576 110.294 146.22 97.4232 146.388 95.7947C146.556 94.164 147.898 81.663 147.898 81.663L147.458 78.3397Z" fill="#DFDFDF"/>
<path d="M153.924 127.083L151.741 127.39L150.448 127.572L146.594 128.114C146.154 128.176 145.709 128.207 145.265 128.207H138.932C137.842 128.207 136.763 128.01 135.741 127.625L133.908 126.935L128.975 125.492C128.511 125.357 128.038 125.26 127.558 125.209L120.358 124.412V113.984L132.066 113.489C132.526 113.469 132.986 113.495 133.442 113.568C134.439 113.728 136.248 113.978 136.559 113.781C136.723 113.677 137.05 113.65 137.395 113.657C137.437 113.657 137.479 113.657 137.524 113.657C138.35 113.657 139.164 113.464 139.894 113.06C140.137 112.927 140.396 112.825 140.666 112.759L142.737 112.256C142.808 111.845 142.711 111.068 142.523 110.128C142.507 110.05 142.492 109.973 142.474 109.893C142.353 109.309 142.2 108.67 142.034 108.019C141.344 105.331 140.411 102.45 140.411 102.45C139.029 89.8739 147.458 78.3353 147.458 78.3353C156.999 81.0855 157.05 94.0512 157.05 94.0512L157.532 96.047L157.632 99.9809L159.014 114.13C159.155 125.361 153.924 127.083 153.924 127.083Z" fill="#EEEEEE"/>
<path d="M154.257 142.071L152.688 140.5V139.363H129.731V144.505H152.688V143.642L154.257 142.071Z" fill="#B5DAE5"/>
<path d="M154.257 173.66L152.688 172.089V171.007H129.731V176.151H152.688V175.231L154.257 173.66Z" fill="#B5DAE5"/>
<path d="M154.257 192.998L152.688 191.429V190.427H138.682V195.571H152.688V194.569L154.257 192.998Z" fill="#B5DAE5"/>
<path d="M107.093 183.482V184.473L105.515 186.053L107.093 187.63V188.624H134.074V183.482H107.093Z" fill="white"/>
<path d="M104.949 150.594V151.587L103.372 153.165L104.949 154.744V155.738H127.905V150.594H104.949Z" fill="white"/>
<path d="M105.064 158.732V159.506L103.487 161.084L105.064 162.663V163.874H136.741V158.732H105.064Z" fill="white"/>
<path d="M160.536 199.703V207.967C160.536 209.409 159.364 210.584 157.921 210.584H99.9024C98.4607 210.584 97.2866 209.412 97.2866 207.967V199.703H160.536Z" fill="#1A1A1A"/>
<path d="M152.179 122.813C150.105 117.195 142.735 112.261 142.735 112.261C142.81 111.816 142.691 110.944 142.474 109.898C149.663 113.475 152.104 122.532 152.179 122.813Z" fill="#DFDFDF"/>
<path d="M151.741 127.39L150.448 127.572C149.762 123.967 146.425 119.527 145.968 118.929C149.161 123.012 150.976 126.023 151.741 127.39Z" fill="#DFDFDF"/>
<path d="M142.032 108.024C142.372 102.205 144.809 97.9962 146.602 95.6464C143.52 100.22 142.704 107.78 142.52 110.13C142.505 110.053 142.489 109.975 142.472 109.895C142.35 109.314 142.198 108.674 142.032 108.024Z" fill="#DFDFDF"/>
<path d="M148.535 93.4848C148.433 93.5733 147.622 94.3101 146.6 95.6487C147.166 94.8079 147.807 94.0711 148.535 93.4848Z" fill="white"/>
<path d="M119.792 94.8721C119.792 95.2195 119.511 95.5005 119.164 95.5005C118.817 95.5005 118.536 95.2195 118.536 94.8721C118.536 94.5247 118.817 94.2437 119.164 94.2437C119.509 94.2437 119.792 94.5247 119.792 94.8721Z" fill="#B3B3B3"/>
<path d="M119.113 95.4496C119.46 95.4496 119.741 95.1682 119.741 94.8212C119.741 94.4741 119.46 94.1928 119.113 94.1928C118.767 94.1928 118.485 94.4741 118.485 94.8212C118.485 95.1682 118.767 95.4496 119.113 95.4496Z" fill="#E6E6E6"/>
<path d="M118.928 94.715C118.861 94.715 118.808 94.6619 118.808 94.5955C118.808 94.5291 118.861 94.476 118.928 94.476C118.994 94.476 119.047 94.5291 119.047 94.5955C119.047 94.6619 118.994 94.715 118.928 94.715Z" fill="#999999"/>
<path d="M118.928 95.1862C118.861 95.1862 118.808 95.1331 118.808 95.0667C118.808 95.0004 118.861 94.9473 118.928 94.9473C118.994 94.9473 119.047 95.0004 119.047 95.0667C119.047 95.1331 118.994 95.1862 118.928 95.1862Z" fill="#999999"/>
<path d="M119.312 94.715C119.246 94.715 119.193 94.6619 119.193 94.5955C119.193 94.5291 119.246 94.476 119.312 94.476C119.379 94.476 119.432 94.5291 119.432 94.5955C119.432 94.6619 119.379 94.715 119.312 94.715Z" fill="#999999"/>
<path d="M119.312 95.1862C119.246 95.1862 119.193 95.1331 119.193 95.0667C119.193 95.0004 119.246 94.9473 119.312 94.9473C119.379 94.9473 119.432 95.0004 119.432 95.0667C119.432 95.1331 119.379 95.1862 119.312 95.1862Z" fill="#999999"/>
<path d="M118.921 94.7039C118.855 94.7039 118.802 94.6508 118.802 94.5844C118.802 94.5181 118.855 94.465 118.921 94.465C118.987 94.465 119.041 94.5181 119.041 94.5844C119.041 94.6508 118.987 94.7039 118.921 94.7039Z" fill="#F2F2F2"/>
<path d="M118.921 95.1752C118.855 95.1752 118.802 95.1221 118.802 95.0558C118.802 94.9894 118.855 94.9363 118.921 94.9363C118.987 94.9363 119.041 94.9894 119.041 95.0558C119.041 95.1221 118.987 95.1752 118.921 95.1752Z" fill="#F2F2F2"/>
<path d="M119.303 94.7039C119.237 94.7039 119.184 94.6508 119.184 94.5844C119.184 94.5181 119.237 94.465 119.303 94.465C119.37 94.465 119.423 94.5181 119.423 94.5844C119.423 94.6508 119.37 94.7039 119.303 94.7039Z" fill="#F2F2F2"/>
<path d="M119.303 95.1752C119.237 95.1752 119.184 95.1221 119.184 95.0558C119.184 94.9894 119.237 94.9363 119.303 94.9363C119.37 94.9363 119.423 94.9894 119.423 95.0558C119.423 95.1221 119.37 95.1752 119.303 95.1752Z" fill="#F2F2F2"/>
<path d="M117.207 109.422C117.554 109.422 117.835 109.141 117.835 108.794C117.835 108.447 117.554 108.165 117.207 108.165C116.86 108.165 116.579 108.447 116.579 108.794C116.579 109.141 116.86 109.422 117.207 109.422Z" fill="#B3B3B3"/>
<path d="M117.784 108.743C117.784 109.09 117.503 109.371 117.156 109.371C116.809 109.371 116.528 109.09 116.528 108.743C116.528 108.395 116.809 108.114 117.156 108.114C117.503 108.114 117.784 108.395 117.784 108.743Z" fill="#E6E6E6"/>
<path d="M116.973 108.637C116.907 108.637 116.854 108.583 116.854 108.517C116.854 108.451 116.907 108.398 116.973 108.398C117.039 108.398 117.092 108.451 117.092 108.517C117.092 108.583 117.039 108.637 116.973 108.637Z" fill="#999999"/>
<path d="M116.973 109.108C116.907 109.108 116.854 109.055 116.854 108.988C116.854 108.922 116.907 108.869 116.973 108.869C117.039 108.869 117.092 108.922 117.092 108.988C117.092 109.055 117.039 109.108 116.973 109.108Z" fill="#999999"/>
<path d="M117.355 108.637C117.289 108.637 117.236 108.583 117.236 108.517C117.236 108.451 117.289 108.398 117.355 108.398C117.422 108.398 117.475 108.451 117.475 108.517C117.475 108.583 117.422 108.637 117.355 108.637Z" fill="#999999"/>
<path d="M117.355 109.108C117.289 109.108 117.236 109.055 117.236 108.988C117.236 108.922 117.289 108.869 117.355 108.869C117.422 108.869 117.475 108.922 117.475 108.988C117.475 109.055 117.422 109.108 117.355 109.108Z" fill="#999999"/>
<path d="M116.964 108.625C116.898 108.625 116.845 108.572 116.845 108.506C116.845 108.44 116.898 108.387 116.964 108.387C117.03 108.387 117.084 108.44 117.084 108.506C117.084 108.572 117.03 108.625 116.964 108.625Z" fill="#F2F2F2"/>
<path d="M116.964 109.097C116.898 109.097 116.845 109.044 116.845 108.977C116.845 108.911 116.898 108.858 116.964 108.858C117.03 108.858 117.084 108.911 117.084 108.977C117.084 109.044 117.03 109.097 116.964 109.097Z" fill="#F2F2F2"/>
<path d="M117.349 108.625C117.283 108.625 117.229 108.572 117.229 108.506C117.229 108.44 117.283 108.387 117.349 108.387C117.415 108.387 117.468 108.44 117.468 108.506C117.466 108.572 117.413 108.625 117.349 108.625Z" fill="#F2F2F2"/>
<path d="M117.349 109.097C117.283 109.097 117.229 109.044 117.229 108.977C117.229 108.911 117.283 108.858 117.349 108.858C117.415 108.858 117.468 108.911 117.468 108.977C117.466 109.044 117.413 109.097 117.349 109.097Z" fill="#F2F2F2"/>
<path d="M115.637 127.877C115.984 127.877 116.265 127.596 116.265 127.249C116.265 126.902 115.984 126.62 115.637 126.62C115.29 126.62 115.009 126.902 115.009 127.249C115.009 127.596 115.29 127.877 115.637 127.877Z" fill="#B3B3B3"/>
<path d="M116.214 127.198C116.214 127.545 115.934 127.826 115.586 127.826C115.239 127.826 114.958 127.545 114.958 127.198C114.958 126.851 115.239 126.57 115.586 126.57C115.931 126.57 116.214 126.851 116.214 127.198Z" fill="#E6E6E6"/>
<path d="M115.403 127.092C115.337 127.092 115.284 127.039 115.284 126.972C115.284 126.906 115.337 126.853 115.403 126.853C115.469 126.853 115.522 126.906 115.522 126.972C115.52 127.039 115.467 127.092 115.403 127.092Z" fill="#999999"/>
<path d="M115.403 127.563C115.337 127.563 115.284 127.51 115.284 127.444C115.284 127.377 115.337 127.324 115.403 127.324C115.469 127.324 115.522 127.377 115.522 127.444C115.52 127.51 115.467 127.563 115.403 127.563Z" fill="#999999"/>
<path d="M115.785 127.092C115.719 127.092 115.666 127.039 115.666 126.972C115.666 126.906 115.719 126.853 115.785 126.853C115.852 126.853 115.905 126.906 115.905 126.972C115.905 127.039 115.852 127.092 115.785 127.092Z" fill="#999999"/>
<path d="M115.785 127.563C115.719 127.563 115.666 127.51 115.666 127.444C115.666 127.377 115.719 127.324 115.785 127.324C115.852 127.324 115.905 127.377 115.905 127.444C115.905 127.51 115.852 127.563 115.785 127.563Z" fill="#999999"/>
<path d="M115.394 127.081C115.328 127.081 115.275 127.028 115.275 126.961C115.275 126.895 115.328 126.842 115.394 126.842C115.461 126.842 115.514 126.895 115.514 126.961C115.514 127.028 115.461 127.081 115.394 127.081Z" fill="#F2F2F2"/>
<path d="M115.394 127.552C115.328 127.552 115.275 127.499 115.275 127.432C115.275 127.366 115.328 127.313 115.394 127.313C115.461 127.313 115.514 127.366 115.514 127.432C115.514 127.499 115.461 127.552 115.394 127.552Z" fill="#F2F2F2"/>
<path d="M115.777 127.081C115.71 127.081 115.657 127.028 115.657 126.961C115.657 126.895 115.71 126.842 115.777 126.842C115.843 126.842 115.896 126.895 115.896 126.961C115.896 127.028 115.843 127.081 115.777 127.081Z" fill="#F2F2F2"/>
<path d="M115.777 127.552C115.71 127.552 115.657 127.499 115.657 127.432C115.657 127.366 115.71 127.313 115.777 127.313C115.843 127.313 115.896 127.366 115.896 127.432C115.896 127.499 115.843 127.552 115.777 127.552Z" fill="#F2F2F2"/>
<path d="M108.59 106.509C108.544 106.509 108.5 106.504 108.456 106.493C108.241 106.44 108.133 106.278 108.1 106.221C107.29 105.017 105.762 96.7821 105.698 96.4325L106.114 96.355C106.552 98.7291 107.825 105.086 108.453 105.991L108.471 106.022C108.471 106.022 108.5 106.073 108.557 106.084C108.635 106.101 108.756 106.048 108.893 105.944L109.152 106.278C108.953 106.431 108.765 106.509 108.59 106.509Z" fill="#A39D9D"/>
<path d="M117.081 106.508C116.906 106.508 116.719 106.431 116.52 106.276L116.778 105.942C116.913 106.048 117.037 106.099 117.114 106.081C117.172 106.068 117.201 106.017 117.203 106.015L117.218 105.988C117.846 105.085 119.12 98.7264 119.558 96.3523L119.973 96.4297C119.909 96.7815 118.384 105.015 117.572 106.218C117.539 106.278 117.431 106.439 117.216 106.49C117.17 106.501 117.125 106.508 117.081 106.508Z" fill="#A39D9D"/>
<path d="M109.776 105.964L109.05 106.446L108.668 105.869L109.393 105.386C109.552 105.28 109.767 105.324 109.873 105.484C109.979 105.643 109.935 105.858 109.776 105.964Z" fill="url(#paint6_linear_977_347)"/>
<path d="M116.193 105.439L116.96 105.851L116.633 106.462L115.865 106.05C115.697 105.959 115.633 105.749 115.724 105.581C115.814 105.413 116.025 105.349 116.193 105.439Z" fill="url(#paint7_linear_977_347)"/>
<path d="M137.285 102.247C138.406 102.247 139.315 100.838 139.315 99.1003C139.315 97.3627 138.406 95.954 137.285 95.954C136.164 95.954 135.255 97.3627 135.255 99.1003C135.255 100.838 136.164 102.247 137.285 102.247Z" fill="url(#paint8_linear_977_347)"/>
<path d="M137.006 102.247C138.127 102.247 139.036 100.838 139.036 99.1003C139.036 97.3627 138.127 95.954 137.006 95.954C135.885 95.954 134.976 97.3627 134.976 99.1003C134.976 100.838 135.885 102.247 137.006 102.247Z" fill="#BDCFED"/>
<path d="M137.176 76.7311C137.046 74.9234 136.853 73.1976 136.579 71.651C136.579 71.651 136.462 70.1597 135.21 70.5026C135.21 70.5026 135.498 70.7283 135.549 70.9341C135.973 72.952 136.239 75.3725 136.396 77.9281C136.962 87.1501 136.11 98.14 136.097 98.2949L136.82 98.255C136.869 97.5979 137.851 86.0593 137.176 76.7311Z" fill="url(#paint9_linear_977_347)"/>
<path d="M113.386 85.2319C113.641 84.0548 114.019 82.5303 114.508 80.9173C114.684 80.3354 114.875 79.7424 115.076 79.1495C115.193 78.8087 115.372 78.4945 115.609 78.2224L115.741 78.0697C115.651 78.0675 115.564 78.0697 115.48 78.0764C114.782 78.1361 114.205 78.6472 114.034 79.3287L113.857 80.0434C113.78 80.2912 113.707 80.5346 113.636 80.7735C113.072 82.6697 112.688 84.3313 112.498 85.2142C108.518 85.3668 105.338 88.6414 105.338 92.6617V96.8877H106.578V92.6617C106.578 89.23 109.358 86.4488 112.787 86.4488C116.217 86.4488 118.996 89.23 118.996 92.6617V96.8877H120.237V92.6617C120.237 88.7454 117.221 85.5372 113.386 85.2319Z" fill="url(#paint10_linear_977_347)"/>
<path d="M137.003 100.269C137.438 100.269 137.791 99.7217 137.791 99.0472C137.791 98.3727 137.438 97.8259 137.003 97.8259C136.569 97.8259 136.216 98.3727 136.216 99.0472C136.216 99.7217 136.569 100.269 137.003 100.269Z" fill="url(#paint11_linear_977_347)"/>
<path d="M135.852 100.985C136.542 100.985 137.101 100.118 137.101 99.0472C137.101 97.9768 136.542 97.109 135.852 97.109C135.162 97.109 134.603 97.9768 134.603 99.0472C134.603 100.118 135.162 100.985 135.852 100.985Z" fill="black"/>
<path d="M135.681 100.985C136.371 100.985 136.931 100.118 136.931 99.0472C136.931 97.9768 136.371 97.109 135.681 97.109C134.991 97.109 134.432 97.9768 134.432 99.0472C134.432 100.118 134.991 100.985 135.681 100.985Z" fill="url(#paint12_linear_977_347)"/>
<path d="M135.681 100.764C136.25 100.764 136.712 99.9955 136.712 99.0472C136.712 98.099 136.25 97.3303 135.681 97.3303C135.112 97.3303 134.651 98.099 134.651 99.0472C134.651 99.9955 135.112 100.764 135.681 100.764Z" fill="url(#paint13_radial_977_347)"/>
<path d="M84.8186 147.144C84.8186 147.144 88.1839 143.892 92.478 145.171C92.478 145.171 100.951 149.585 101.066 153.3C101.066 153.3 102.999 161.725 94.6626 161.577C94.6626 161.575 76.5799 157.015 84.8186 147.144Z" fill="#FFC0AF"/>
<path d="M95.6133 158.176L100.557 151.68C100.557 151.68 94.6846 147.607 92.5973 149.583C92.5951 149.583 87.6045 153.647 95.6133 158.176Z" fill="white"/>
<path d="M79.7129 167.699C79.7129 167.699 82.9632 162.126 87.6044 164.332L95.8078 168.281C95.8078 168.281 109.656 175.366 105.013 181.636C105.013 181.636 101.081 190.347 89.9328 179.663C89.9328 179.663 82.3242 178.036 79.7129 175.945C79.7129 175.945 77.2762 171.038 79.7129 167.699Z" fill="#FFC0AF"/>
<path d="M95.8081 179.342C95.8081 179.342 93.3626 177.554 95.8081 174.399C95.8081 174.399 97.8114 172.2 100.558 173.943L105.219 177.95L101.263 183.001L95.8081 179.342Z" fill="white"/>
<path d="M78.1454 185.612C78.1454 185.612 80.843 179.775 86.3267 182.127C86.3267 182.127 101.995 188.486 97.6433 194.843C97.6433 194.843 94.5963 200.417 84.3256 195.801L81.1039 196.149C81.1062 196.153 75.4478 193.104 78.1454 185.612Z" fill="#FFC0AF"/>
<path d="M88.4162 189.602C88.4162 189.602 91.1137 186.745 97.1214 192.057L94.1629 196.239C94.1629 196.239 86.3288 192.98 88.4162 189.602Z" fill="white"/>
<path d="M189.202 202.506C189.202 202.506 185.656 201.052 181.154 198.488L170.584 218.622C168.568 217.412 167.042 215.582 165.908 213.365C165.906 213.363 165.906 213.363 165.906 213.361L165.897 213.347C165.817 213.19 165.738 213.031 165.66 212.869C165.66 212.867 165.658 212.865 165.658 212.865C161.344 203.785 163.069 188.808 164.013 182.763C163.489 181.661 164.438 180.083 164.473 180.101C162.315 178.539 156.546 172.733 156.546 172.733C149.585 170.649 145.479 164.31 145.479 164.31C140.889 157.672 139.739 151.603 139.739 151.603C139.396 149.293 139.536 147.709 139.945 146.636C140.59 144.945 141.906 144.523 143.058 144.523C143.383 144.523 143.695 144.556 143.976 144.605C144.279 144.656 144.544 144.726 144.749 144.788L151.58 150.404C152.367 151.497 152.959 151.913 154.025 152.415C155.575 153.148 157.596 153.74 157.596 153.74C165.074 153.911 169.738 159.706 169.738 159.706L179.223 169.602C185.348 173.399 185.454 179.712 185.454 179.712L188.413 196.684C188.521 197.784 188.501 198.89 188.468 199.999C188.439 201.088 188.756 201.902 189.202 202.506Z" fill="#FFC0AF"/>
<path d="M154.03 152.415L151.861 154.229L149.7 152.974C146.485 151.111 144.111 148.085 143.062 144.52C143.388 144.52 143.699 144.553 143.98 144.602C144.283 144.653 144.548 144.724 144.754 144.786L151.584 150.401L154.03 152.415Z" fill="white"/>
<path d="M95.3982 40.7688C99.3465 36.818 99.3465 30.4124 95.3982 26.4615C91.4499 22.5107 85.0485 22.5107 81.1002 26.4615C77.1519 30.4124 77.1519 36.818 81.1002 40.7688C85.0485 44.7197 91.4499 44.7197 95.3982 40.7688Z" fill="white"/>
<path d="M84.8657 36.9724C84.3006 36.407 84.3006 35.4914 84.8657 34.926L89.0008 30.7881L91.0459 32.8345L86.9107 36.9724C86.3457 37.5378 85.4307 37.5378 84.8657 36.9724Z" fill="#2E3192"/>
<path d="M91.4562 33.2349L88.6636 30.438L89.2586 29.8426L92.0537 32.637L91.4562 33.2349Z" fill="#2E3192"/>
<path d="M84.8435 37.7129L84.126 36.9949L84.506 36.6122L85.226 37.3302L84.8435 37.7129Z" fill="#2E3192"/>
<path d="M81.9607 40.1796L81.6606 39.8794L84.3482 37.1901L84.6482 37.4903L81.9607 40.1796Z" fill="#2E3192"/>
<path d="M93.7108 29.1771L92.7183 28.1814L90.1582 30.7431L91.1532 31.7363L93.7108 29.1771Z" fill="#2E3192"/>
<path d="M94.3812 29.8576L92.0386 27.511L92.4261 27.1232L94.7687 29.4673L94.3812 29.8576Z" fill="#2E3192"/>
<path d="M89.499 32.039L89.3594 32.1788L90.5314 33.3516L90.6711 33.2118L89.499 32.039Z" fill="white"/>
<path d="M88.8726 32.6612L88.7329 32.801L89.905 33.9738L90.0446 33.834L88.8726 32.6612Z" fill="white"/>
<path d="M88.2471 33.2863L88.1074 33.426L89.2795 34.5988L89.4191 34.4591L88.2471 33.2863Z" fill="white"/>
<path d="M87.6221 33.9119L87.4824 34.0517L88.6545 35.2245L88.7941 35.0848L87.6221 33.9119Z" fill="white"/>
<path d="M86.9971 34.537L86.8574 34.6768L88.0295 35.8496L88.1691 35.7098L86.9971 34.537Z" fill="white"/>
<path d="M86.3721 35.1624L86.2324 35.3021L87.4045 36.4749L87.5441 36.3352L86.3721 35.1624Z" fill="white"/>
<path d="M85.7471 35.7879L85.6074 35.9276L86.7795 37.1004L86.9191 36.9607L85.7471 35.7879Z" fill="white"/>
<path d="M179.565 69.5257C187.082 69.5257 193.176 63.4279 193.176 55.9058C193.176 48.3838 187.082 42.286 179.565 42.286C172.048 42.286 165.954 48.3838 165.954 55.9058C165.954 63.4279 172.048 69.5257 179.565 69.5257Z" fill="white"/>
<path d="M189.21 58.1763H182.782V59.0597H189.21V58.1763Z" fill="#2E3192"/>
<path d="M191.884 56.8513H185.457V57.293H191.884V56.8513Z" fill="#2E3192"/>
<path d="M188.054 54.8326H184.267V55.3546H188.054V54.8326Z" fill="#2E3192"/>
<path d="M186.744 52.9963H180.386V53.533H186.744V52.9963Z" fill="#2E3192"/>
<path d="M173.866 51.2478V51.8538H172.261V51.2478C172.261 50.8061 172.619 50.4447 173.064 50.4447C173.286 50.4447 173.487 50.536 173.633 50.6783C173.779 50.8243 173.866 51.0251 173.866 51.2478Z" fill="#2E3192"/>
<path d="M173.866 52.3247H172.261V53.2629H173.866V52.3247Z" fill="#2E3192"/>
<path d="M182.516 59.7643H170.306C169.398 59.7643 168.661 59.0269 168.661 58.1179V56.1321C168.661 55.8948 168.712 55.6575 168.814 55.4422L169.642 53.6534C169.948 52.989 170.616 52.562 171.349 52.562H182.512C183.246 52.562 183.844 53.157 183.844 53.8944V58.4355C183.844 59.1693 183.249 59.7643 182.516 59.7643Z" fill="#2E3192"/>
<path d="M172.108 61.3705C172.995 61.3705 173.713 60.6514 173.713 59.7643C173.713 58.8773 172.995 58.1581 172.108 58.1581C171.222 58.1581 170.503 58.8773 170.503 59.7643C170.503 60.6514 171.222 61.3705 172.108 61.3705Z" fill="white"/>
<path d="M172.108 60.9106C171.477 60.9106 170.962 60.3959 170.962 59.7643C170.962 59.1328 171.477 58.6181 172.108 58.6181C172.739 58.6181 173.253 59.1328 173.253 59.7643C173.25 60.3959 172.739 60.9106 172.108 60.9106Z" fill="#2E3192"/>
<path d="M180.283 61.3705C181.17 61.3705 181.889 60.6514 181.889 59.7643C181.889 58.8773 181.17 58.1581 180.283 58.1581C179.397 58.1581 178.678 58.8773 178.678 59.7643C178.678 60.6514 179.397 61.3705 180.283 61.3705Z" fill="white"/>
<path d="M180.284 60.9106C179.653 60.9106 179.138 60.3959 179.138 59.7643C179.138 59.1328 179.653 58.6181 180.284 58.6181C180.915 58.6181 181.429 59.1328 181.429 59.7643C181.429 60.3959 180.915 60.9106 180.284 60.9106Z" fill="#2E3192"/>
<path d="M182.691 54.5624H181.593V53.4636H180.779V54.5624H179.678V55.3765H180.779V56.4789H181.593V55.3765H182.691V54.5624Z" fill="white"/>
<path d="M173.889 55.4312H169.781L170.507 53.8835C170.685 53.5038 171.065 53.2629 171.481 53.2629H173.889V55.4312Z" fill="white"/>
<path d="M178.956 53.4636H175.198V55.3765H178.956V53.4636Z" fill="white"/>
<path d="M91.2326 64.3655C92.4913 59.0314 89.1904 53.6862 83.8597 52.4266C78.529 51.1671 73.1873 54.4702 71.9285 59.8043C70.6698 65.1385 73.9708 70.4837 79.3014 71.7432C84.6321 73.0028 89.9739 69.6997 91.2326 64.3655Z" fill="white"/>
<path d="M207.675 43.7014C218.163 43.7014 226.665 35.1935 226.665 24.6984C226.665 14.2034 218.163 5.69543 207.675 5.69543C197.186 5.69543 188.684 14.2034 188.684 24.6984C188.684 35.1935 197.186 43.7014 207.675 43.7014Z" fill="white"/>
<path d="M215.795 17.7355H211.716V16.9698C211.716 15.9263 210.871 15.0773 209.825 15.0773H204.953C203.91 15.0773 203.062 15.9232 203.062 16.9698V17.7355H198.983C196.783 17.7355 195 19.5199 195 21.7212V30.2206C195 32.4219 196.783 34.2064 198.983 34.2064H215.792C217.992 34.2064 219.775 32.4219 219.775 30.2206V21.7212C219.778 19.5199 217.995 17.7355 215.795 17.7355Z" fill="#2E3192"/>
<path d="M212.802 23.4841H208.545V19.2267H206.234V23.4841H201.979V25.7965H206.234V30.0571H208.545V25.7965H212.802V23.4841Z" fill="white"/>
<path d="M142.52 29.4617C150.521 29.4617 157.008 22.9709 157.008 14.9643C157.008 6.95756 150.521 0.466858 142.52 0.466858C134.518 0.466858 128.032 6.95756 128.032 14.9643C128.032 22.9709 134.518 29.4617 142.52 29.4617Z" fill="white"/>
<path d="M148.35 9.53117C147.38 8.56013 146.11 8.07727 144.84 8.07727C143.769 8.07727 142.7 8.42217 141.809 9.10932C140.918 8.41952 139.847 8.07727 138.776 8.07727C137.506 8.07727 136.236 8.56279 135.266 9.53117C133.479 11.3193 133.338 14.129 134.844 16.0763C134.974 16.2435 135.112 16.4027 135.266 16.5539L141.329 22.6189C141.481 22.7701 141.642 22.9134 141.809 23.0407C141.976 22.9107 142.135 22.7701 142.287 22.6189L148.348 16.5539C148.499 16.4027 148.639 16.2408 148.769 16.0763C150.275 14.1263 150.135 11.3167 148.35 9.53117Z" fill="#2E3192"/>
<path d="M140.68 18.5251L138.455 12.683L136.573 14.8559H130V14.251H136.297L138.659 11.521L140.682 16.8298L142.708 11.5714V14.2828L145.33 9.83093L146.081 13.5002L146.486 12.484L147.369 14.251H153.616V14.8559H146.993L146.547 13.9645L145.892 15.6067L145.052 11.4971L142.101 16.5088V14.832L140.68 18.5251Z" fill="white"/>
<path d="M260.807 61.3067C266.029 56.0809 266.029 47.6082 260.807 42.3824C255.584 37.1566 247.117 37.1566 241.894 42.3824C236.672 47.6082 236.672 56.0809 241.894 61.3067C247.117 66.5325 255.584 66.5325 260.807 61.3067Z" fill="white"/>
<path d="M255.953 52.8761L252.808 49.7292C251.895 48.816 251.895 47.3307 252.808 46.4176C253.72 45.5044 255.205 45.5044 256.117 46.4176L259.262 49.5646L255.953 52.8761ZM254.465 45.9316C253.916 45.9316 253.364 46.1393 252.949 46.5587C252.111 47.3973 252.111 48.7572 252.949 49.5959L255.957 52.6057L258.992 49.5685L255.984 46.5587C255.565 46.1393 255.013 45.9316 254.465 45.9316Z" fill="#2E3192"/>
<path d="M262.858 54.2282C262.858 54.8043 262.639 55.3764 262.2 55.8154C261.44 56.5757 260.265 56.6775 259.396 56.1132C259.56 55.835 259.658 55.5097 259.658 55.1609C259.658 54.1302 258.82 53.2915 257.79 53.2915H256.505L255.953 52.7389L259.125 49.5645L262.2 52.6409C262.639 53.0838 262.858 53.656 262.858 54.2282Z" fill="#2E3192"/>
<path d="M260.61 56.5678C260.171 56.5678 259.728 56.4464 259.345 56.1955L259.266 56.1446L259.313 56.0623C259.474 55.7919 259.56 55.4784 259.56 55.1609C259.56 54.1851 258.765 53.3895 257.79 53.3895H256.466L255.816 52.7389L259.125 49.4274L262.266 52.5743C262.709 53.0172 262.952 53.6051 262.952 54.2282C262.952 54.8552 262.709 55.4431 262.266 55.8859C261.82 56.3366 261.217 56.5678 260.61 56.5678ZM259.525 56.0819C260.359 56.5718 261.44 56.4385 262.129 55.7488C262.533 55.3451 262.76 54.8043 262.76 54.2321C262.76 53.6599 262.537 53.1191 262.129 52.7154L259.125 49.7056L256.09 52.7429L256.544 53.1975H257.79C258.875 53.1975 259.756 54.0793 259.756 55.1648C259.756 55.4862 259.678 55.7997 259.525 56.0819Z" fill="#2E3192"/>
<path d="M256.486 48.4359L256.039 47.9852L255.432 48.5926L254.825 47.9852L254.375 48.4359L254.982 49.0433L254.375 49.6508L254.825 50.1014L255.432 49.494L256.039 50.1014L256.486 49.6508L255.878 49.0433L256.486 48.4359Z" fill="#2E3192"/>
<path d="M257.79 56.4346H255.42V53.8912H257.79C258.491 53.8912 259.059 54.4594 259.059 55.1609C259.059 55.8624 258.491 56.4346 257.79 56.4346ZM255.612 56.2387H257.79C258.381 56.2387 258.867 55.7566 258.867 55.1609C258.867 54.5692 258.385 54.0832 257.79 54.0832H255.612V56.2387Z" fill="#2E3192"/>
<path d="M253.243 56.3367H255.518V53.9892H253.243C252.597 53.9892 252.072 54.5143 252.072 55.1649C252.068 55.8115 252.593 56.3367 253.243 56.3367Z" fill="#2E3192"/>
<path d="M255.613 56.4356H253.243C252.542 56.4356 251.974 55.8673 251.974 55.1658C251.974 54.4643 252.542 53.8961 253.243 53.8961H255.613V56.4356ZM253.243 54.0881C252.652 54.0881 252.166 54.5701 252.166 55.1658C252.166 55.7576 252.648 56.2436 253.243 56.2436H255.421V54.092H253.243V54.0881Z" fill="#2E3192"/>
<path d="M257.692 54.9963H257.242V54.5496H256.909V54.9963H256.458V55.3294H256.909V55.7801H257.242V55.3294H257.692V54.9963Z" fill="#2E3192"/>
<path d="M247.313 57.2341H244.756C242.684 57.2341 241 55.5528 241 53.4757V52.4372C241 50.364 242.68 48.6788 244.756 48.6788H247.313C249.385 48.6788 251.069 50.3601 251.069 52.4372V53.4757C251.069 55.5528 249.389 57.2341 247.313 57.2341Z" fill="#2E3192"/>
<path d="M248.653 47.2759H243.42V48.7103H248.653V47.2759Z" fill="white"/>
<path d="M248.018 47.4522H244.051C243.393 47.4522 242.864 46.9192 242.864 46.2647C242.864 45.6063 243.397 45.0773 244.051 45.0773H248.018C248.676 45.0773 249.205 45.6103 249.205 46.2647C249.209 46.9192 248.676 47.4522 248.018 47.4522Z" fill="#2E3192"/>
<path d="M246.632 50.7521H245.441V55.1649H246.632V50.7521Z" fill="white"/>
<path d="M248.239 53.5546V52.3632H243.829V53.5546H248.239Z" fill="white"/>
<path d="M32.4542 77.4588C34.3469 69.438 29.3833 61.4005 21.3677 59.5066C13.3521 57.6126 5.31977 62.5794 3.42706 70.6002C1.53435 78.6211 6.49794 86.6586 14.5136 88.5525C22.5292 90.4465 30.5615 85.4796 32.4542 77.4588Z" fill="white"/>
<path d="M12.3491 79.159C12.3491 76.0691 17.9409 66.5043 17.9409 66.5043C17.9409 66.5043 23.5326 76.0691 23.5326 79.159C23.5326 82.2489 21.0287 84.7544 17.9409 84.7544C14.853 84.7602 12.3491 82.2547 12.3491 79.159Z" fill="#2E3192"/>
<path d="M20.6646 66.354C20.6646 65.6075 22.0119 63.3046 22.0119 63.3046C22.0119 63.3046 23.3592 65.6075 23.3592 66.354C23.3592 67.1004 22.7578 67.7022 22.0119 67.7022C21.2659 67.7022 20.6646 67.1004 20.6646 66.354Z" fill="#2E3192"/>
<path d="M22.9081 79.159C22.9081 80.4841 22.3934 81.7339 21.4566 82.6713C20.5199 83.6087 19.2708 84.1237 17.9466 84.1237C16.8075 84.1237 15.7203 83.7418 14.8472 83.0358C15.3849 83.3367 15.9806 83.5392 16.6109 83.6203C17.9235 83.7938 19.2303 83.4467 20.2828 82.6424C21.3352 81.8381 22.0118 80.6692 22.191 79.3557C22.2488 78.9275 22.2199 78.0422 21.7747 76.2253C21.5954 75.5078 21.3699 74.7035 21.0866 73.8124C21.4798 74.6572 21.8152 75.4268 22.0869 76.1096C22.7635 77.8513 22.9081 78.7308 22.9081 79.159Z" fill="white"/>
<path d="M43.9632 50.7527C53.7141 50.7527 61.6188 42.8429 61.6188 33.0856C61.6188 23.3284 53.7141 15.4186 43.9632 15.4186C34.2123 15.4186 26.3076 23.3284 26.3076 33.0856C26.3076 42.8429 34.2123 50.7527 43.9632 50.7527Z" fill="white"/>
<path d="M39.4128 25.548H37.2827V23.399H39.4128C40.0053 23.399 40.4853 23.8794 40.4853 24.4723C40.4853 25.0677 40.0053 25.548 39.4128 25.548Z" fill="#2E3192"/>
<path d="M41.8553 25.548H43.9853V23.399H41.8553C41.2627 23.399 40.7827 23.8794 40.7827 24.4723C40.7802 25.0677 41.2627 25.548 41.8553 25.548Z" fill="#2E3192"/>
<path d="M49.0557 32.8305V37.8014C49.0557 40.0779 47.2107 41.9242 44.9356 41.9242C43.7981 41.9242 42.768 41.4614 42.0205 40.7159C41.2755 39.9704 40.813 38.9397 40.813 37.7989V33.9513C43.2156 33.8562 45.1356 31.8798 45.1356 29.4532V23.3965H44.2881V29.1355C44.2881 31.1543 42.653 32.793 40.633 32.793C39.6229 32.793 38.7104 32.3827 38.0504 31.7222C37.3904 31.0618 36.9803 30.1462 36.9803 29.138V23.399H36.1328V29.4557C36.1328 31.7147 37.7979 33.586 39.9654 33.9087V37.8014C39.9654 40.5458 42.1905 42.7723 44.9331 42.7723C47.6757 42.7723 49.9008 40.5458 49.9008 37.8014V32.8305H49.0557Z" fill="#2E3192"/>
<path d="M49.5006 35.3798C50.7667 35.3798 51.7932 34.3527 51.7932 33.0857C51.7932 31.8187 50.7667 30.7916 49.5006 30.7916C48.2344 30.7916 47.208 31.8187 47.208 33.0857C47.208 34.3527 48.2344 35.3798 49.5006 35.3798Z" fill="#2E3192"/>
<path d="M49.5008 34.5341C50.3002 34.5341 50.9483 33.8856 50.9483 33.0856C50.9483 32.2857 50.3002 31.6371 49.5008 31.6371C48.7013 31.6371 48.0532 32.2857 48.0532 33.0856C48.0532 33.8856 48.7013 34.5341 49.5008 34.5341Z" fill="#2E3192"/>
<path d="M73.79 136.02C70.6125 135.088 67.2848 131.714 65.3146 129.424C67.9547 127.229 69.5711 124.291 69.5711 121.063C69.5711 114.268 62.4202 108.761 53.6 108.761C44.7797 108.761 37.6289 114.27 37.6289 121.063C37.6289 127.857 44.7797 133.365 53.6 133.365C56.2556 133.365 58.7608 132.865 60.9653 131.98C66.2079 134.655 73.79 136.02 73.79 136.02Z" fill="#ADEED8"/>
<path d="M53.0448 142.359C52.859 142.325 47.3754 141.317 43.5656 139.374C41.936 140.027 40.083 140.398 38.1195 140.398C31.5945 140.398 26.3076 136.325 26.3076 131.3C26.3076 127.076 30.0467 123.523 35.1168 122.499C35.5303 126.059 37.4849 129.327 40.7243 131.822C42.9752 133.557 45.6927 134.785 48.6446 135.433C48.1471 136.183 47.5191 136.871 46.7828 137.484C48.2377 139.177 50.6965 141.668 53.0448 142.359Z" fill="#ADEED8"/>
<path d="M47.3564 120.84C47.5313 119.761 46.7995 118.745 45.7218 118.57C44.6442 118.395 43.6288 119.128 43.4539 120.206C43.279 121.284 44.0108 122.3 45.0885 122.475C46.1661 122.65 47.1815 121.918 47.3564 120.84Z" fill="white"/>
<path d="M55.6539 120.982C55.9048 119.919 55.2468 118.853 54.1844 118.602C53.1219 118.351 52.0572 119.01 51.8063 120.073C51.5554 121.136 52.2134 122.201 53.2758 122.452C54.3383 122.703 55.403 122.045 55.6539 120.982Z" fill="white"/>
<path d="M63.4609 121.918C64.2328 121.146 64.2328 119.893 63.4609 119.121C62.6889 118.348 61.4373 118.348 60.6653 119.121C59.8934 119.893 59.8934 121.146 60.6653 121.918C61.4373 122.691 62.6889 122.691 63.4609 121.918Z" fill="white"/>
<path d="M178.961 142.434C181.413 141.714 183.98 139.112 185.499 137.345C183.461 135.652 182.216 133.384 182.216 130.893C182.216 125.651 187.733 121.401 194.538 121.401C201.344 121.401 206.861 125.651 206.861 130.893C206.861 136.134 201.344 140.385 194.538 140.385C192.489 140.385 190.556 140 188.856 139.316C184.812 141.38 178.961 142.434 178.961 142.434Z" fill="#1AC1B0"/>
<path d="M188.321 132.738C189.202 132.738 189.917 132.023 189.917 131.141C189.917 130.258 189.202 129.543 188.321 129.543C187.439 129.543 186.724 130.258 186.724 131.141C186.724 132.023 187.439 132.738 188.321 132.738Z" fill="white"/>
<path d="M195.053 132.738C195.935 132.738 196.65 132.023 196.65 131.141C196.65 130.258 195.935 129.543 195.053 129.543C194.172 129.543 193.457 130.258 193.457 131.141C193.457 132.023 194.172 132.738 195.053 132.738Z" fill="white"/>
<path d="M201.786 132.738C202.668 132.738 203.383 132.023 203.383 131.141C203.383 130.258 202.668 129.543 201.786 129.543C200.905 129.543 200.19 130.258 200.19 131.141C200.19 132.023 200.905 132.738 201.786 132.738Z" fill="white"/>
<circle cx="129.373" cy="205.02" r="3.88925" fill="#272727"/>
<g clip-path="url(#clip0_977_347)">
<path d="M85.1667 58.0147H83.8125V57.3897C83.8126 57.3069 83.7797 57.2273 83.7211 57.1687C83.6626 57.1101 83.5831 57.0771 83.5002 57.077C83.4173 57.077 83.3378 57.1098 83.2792 57.1684C83.2205 57.227 83.1876 57.3064 83.1875 57.3893V58.0147H81.3125V57.3897C81.3125 57.3487 81.3045 57.3081 81.2888 57.2701C81.2731 57.2322 81.2501 57.1977 81.2211 57.1687C81.1921 57.1397 81.1577 57.1166 81.1198 57.1009C81.0819 57.0852 81.0412 57.0771 81.0002 57.077C80.9173 57.077 80.8378 57.1098 80.7792 57.1684C80.7205 57.227 80.6876 57.3064 80.6875 57.3893V58.0147H78.8125V57.3897C78.8125 57.3487 78.8045 57.3081 78.7888 57.2701C78.7731 57.2322 78.7501 57.1977 78.7211 57.1687C78.6921 57.1397 78.6577 57.1166 78.6198 57.1009C78.5819 57.0852 78.5412 57.0771 78.5002 57.077C78.4173 57.077 78.3378 57.1098 78.2792 57.1684C78.2205 57.227 78.1876 57.3064 78.1875 57.3893V58.0147H76.8333C76.6124 58.0147 76.4005 58.1025 76.2442 58.2587C76.088 58.4149 76.0001 58.6267 76 58.8477V66.2435C76 66.4645 76.0878 66.6765 76.2441 66.8327C76.4004 66.989 76.6123 67.0768 76.8333 67.0768H85.1667C85.3877 67.0768 85.5996 66.989 85.7559 66.8327C85.9122 66.6765 86 66.4645 86 66.2435V58.8477C85.9999 58.6267 85.912 58.4149 85.7558 58.2587C85.5995 58.1025 85.3876 58.0147 85.1667 58.0147ZM85.375 66.2439C85.375 66.2991 85.3531 66.352 85.3141 66.3911C85.2751 66.4301 85.2223 66.4521 85.1671 66.4522H76.8333C76.7781 66.4522 76.7251 66.4303 76.686 66.3912C76.6469 66.3521 76.625 66.2992 76.625 66.2439V58.8481C76.6251 58.7929 76.6471 58.74 76.6862 58.701C76.7252 58.662 76.7782 58.6402 76.8333 58.6402H78.1875V59.2652C78.1874 59.348 78.2203 59.4275 78.2789 59.4862C78.3374 59.5448 78.4169 59.5778 78.4998 59.5779C78.5827 59.5779 78.6622 59.545 78.7208 59.4865C78.7795 59.4279 78.8124 59.3484 78.8125 59.2656V58.6402H80.6875V59.2652C80.6874 59.348 80.7203 59.4275 80.7789 59.4862C80.8374 59.5448 80.9169 59.5778 80.9998 59.5779C81.0827 59.5779 81.1622 59.545 81.2208 59.4865C81.2795 59.4279 81.3124 59.3484 81.3125 59.2656V58.6402H83.1875V59.2652C83.1874 59.348 83.2203 59.4275 83.2789 59.4862C83.3374 59.5448 83.4169 59.5778 83.4998 59.5779C83.5827 59.5779 83.6622 59.545 83.7208 59.4865C83.7795 59.4279 83.8124 59.3484 83.8125 59.2656V58.6402H85.1667C85.2218 58.6403 85.2746 58.6622 85.3136 58.7012C85.3525 58.7401 85.3745 58.793 85.3746 58.8481L85.375 66.2439Z" fill="#2E3192"/>
<path d="M78.1875 60.8273H79.4375V61.7648H78.1875V60.8273ZM78.1875 62.3898H79.4375V63.3273H78.1875V62.3898ZM78.1875 63.9523H79.4375V64.8898H78.1875V63.9523ZM80.375 63.9523H81.625V64.8898H80.375V63.9523ZM80.375 62.3898H81.625V63.3273H80.375V62.3898ZM80.375 60.8273H81.625V61.7648H80.375V60.8273ZM82.5625 63.9523H83.8125V64.8898H82.5625V63.9523ZM82.5625 62.3898H83.8125V63.3273H82.5625V62.3898ZM82.5625 60.8273H83.8125V61.7648H82.5625V60.8273Z" fill="#2E3192"/>
</g>
<defs>
<linearGradient id="paint0_linear_977_347" x1="118.263" y1="82.1608" x2="127.309" y2="82.1608" gradientUnits="userSpaceOnUse">
<stop stop-color="#3D94E7"/>
<stop offset="1" stop-color="#2D51B6"/>
</linearGradient>
<linearGradient id="paint1_linear_977_347" x1="122.316" y1="73.7688" x2="134.939" y2="73.7688" gradientUnits="userSpaceOnUse">
<stop stop-color="#285EC2"/>
<stop offset="1" stop-color="#142F61"/>
</linearGradient>
<linearGradient id="paint2_linear_977_347" x1="118.7" y1="78.118" x2="122.316" y2="78.118" gradientUnits="userSpaceOnUse">
<stop stop-color="#285EC2"/>
<stop offset="1" stop-color="#122954"/>
</linearGradient>
<linearGradient id="paint3_linear_977_347" x1="76.9475" y1="114.536" x2="110.308" y2="114.536" gradientUnits="userSpaceOnUse">
<stop stop-color="#3D94E7"/>
<stop offset="1" stop-color="#1F45B1"/>
</linearGradient>
<linearGradient id="paint4_linear_977_347" x1="126.981" y1="94.6904" x2="134.378" y2="95.1245" gradientUnits="userSpaceOnUse">
<stop stop-color="#3D94E7"/>
<stop offset="1" stop-color="#1F45B1"/>
</linearGradient>
<linearGradient id="paint5_linear_977_347" x1="124.694" y1="94.6791" x2="129.573" y2="94.9655" gradientUnits="userSpaceOnUse">
<stop stop-color="#3D94E7"/>
<stop offset="1" stop-color="#1F45B1"/>
</linearGradient>
<linearGradient id="paint6_linear_977_347" x1="108.668" y1="105.887" x2="109.931" y2="105.887" gradientUnits="userSpaceOnUse">
<stop stop-color="#3D94E7"/>
<stop offset="1" stop-color="#1F45B1"/>
</linearGradient>
<linearGradient id="paint7_linear_977_347" x1="115.683" y1="105.93" x2="116.96" y2="105.93" gradientUnits="userSpaceOnUse">
<stop stop-color="#1F45B1"/>
<stop offset="1" stop-color="#3D94E7"/>
</linearGradient>
<linearGradient id="paint8_linear_977_347" x1="135.256" y1="99.1009" x2="139.314" y2="99.1009" gradientUnits="userSpaceOnUse">
<stop stop-color="#3D94E7"/>
<stop offset="1" stop-color="#1F45B1"/>
</linearGradient>
<linearGradient id="paint9_linear_977_347" x1="135.211" y1="84.3742" x2="137.412" y2="84.3742" gradientUnits="userSpaceOnUse">
<stop stop-color="#285EC2"/>
<stop offset="1" stop-color="#142F61"/>
</linearGradient>
<linearGradient id="paint10_linear_977_347" x1="105.338" y1="87.4771" x2="120.237" y2="87.4771" gradientUnits="userSpaceOnUse">
<stop stop-color="#285EC2"/>
<stop offset="1" stop-color="#142F61"/>
</linearGradient>
<linearGradient id="paint11_linear_977_347" x1="136.217" y1="99.0466" x2="137.792" y2="99.0466" gradientUnits="userSpaceOnUse">
<stop stop-color="#3D94E7"/>
<stop offset="1" stop-color="#1F45B1"/>
</linearGradient>
<linearGradient id="paint12_linear_977_347" x1="134.432" y1="99.0467" x2="136.93" y2="99.0467" gradientUnits="userSpaceOnUse">
<stop stop-color="#3D94E7"/>
<stop offset="1" stop-color="#1F45B1"/>
</linearGradient>
<radialGradient id="paint13_radial_977_347" cx="0" cy="0" r="1" gradientUnits="userSpaceOnUse" gradientTransform="translate(135.681 99.0466) scale(1.41577 1.41669)">
<stop stop-color="#CAD8F1"/>
<stop offset="1" stop-color="#608BD4"/>
</radialGradient>
<clipPath id="clip0_977_347">
<rect width="10" height="10" fill="white" transform="translate(76 57.0773)"/>
</clipPath>
</defs>
</svg>
