<svg id="Layer_1" data-name="Layer 1" xmlns="http://www.w3.org/2000/svg" viewBox="0 0 483.37 483.37"><defs><style>.cls-1{fill:#d9d9d9;opacity:0.2;isolation:isolate;}.cls-2{fill:#fff;}.cls-3{fill:#fbfbfb;stroke:#fbfbfb;}.cls-3,.cls-4,.cls-5,.cls-6{fill-rule:evenodd;}.cls-4{fill:#04eccc;stroke:#04eccc;}.cls-5{fill:#fb4c4c;stroke:#fb4c4c;}.cls-6,.cls-7{fill:#c4044c;stroke:#c4044c;}</style></defs><circle class="cls-1" cx="241.69" cy="241.69" r="241.69"/><rect class="cls-2" x="114.18" y="186.72" width="92.52" height="110.19"/><path class="cls-3" d="M112.82,134.67v27.77h18.31v45.78h46.39v26.84l-23,.16-23,.16-.17,9.31L131.1,254h46.42v64.08H131.05l.25,31.28c.2,26.66.39,31.85,1.25,35.1a47.78,47.78,0,0,0,30.63,32.92c7.29,2.55,21.39,2.55,28.68,0,15.17-5.31,26.06-17,30.59-32.77,1.08-3.79,1.14-8.75,1.31-113.07l.17-109.1h18.29V106.9H112.82v27.77m189.82,53.77c-15.27,24-29.33,46.29-31.25,49.5-14,23.47-18.18,53.51-10.55,76.25,15.5,46.18,70.59,64.75,111.24,37.49,33-22.14,41.87-67.13,21.21-107.62-3.26-6.38-61.8-99.28-62.57-99.28-.17,0-12.8,19.65-28.08,43.66m18.93,81.12V279H303.25v17.7h18.32V315h9.15V260.1h-9.15v9.46m-190.3,12.06.17,9.3,18.46.16,18.47.17V272.31H131.1l.17,9.31" transform="translate(-16.91 -21.47)"/><path class="cls-4" d="M113,134.52l.16,27.62,9.31.17,9.3.16v45.72l23,.17c12.67.09,33.34,0,45.92-.14l22.89-.31.16-22.71.16-22.72,9-.17,9-.17.16-27.62.16-27.62H112.81l.16,27.62M300.49,192.2c-38.69,60.8-40.92,65.52-43.06,90.91-5.29,62.82,62.82,103.41,114.73,68.38,32.71-22.07,41.6-66.44,21.39-106.72-3.13-6.24-62-99.42-62.83-99.42-.23,0-13.83,21.08-30.23,46.85M131.74,244.84V254h54.94V235.69H131.74v9.15m189.83,24.42v9.15H303.25v18.31h18.32V315h18.31V296.72h18.31V278.41H339.88V260.1H321.57v9.16m-189.83,12.2v9.16h36.63V272.31H131.74v9.15m22.74,36.48-22.74.16v31c0,34.73.11,35.77,4.47,44.43,17.35,34.44,65.23,34.5,82.49.1,4.79-9.52,4.9-10.6,4.9-45V318.39l-23.19-.31c-12.76-.16-33.42-.23-45.93-.14" transform="translate(-16.91 -21.47)"/><path class="cls-5" d="M113.43,134.37v27.46h18.31v45.78h11.45c6.29,0,26.89.18,45.77.41l34.32.4.16-23.14.16-23.14,9-.17,9-.17V106.9H113.43v27.47M329.64,147c-4.81,6.82-58.79,92.45-60.88,96.6-20.32,40.27-12.95,82.8,18.34,106,40.18,29.76,98,11.38,113.39-36.07,6.56-20.17,3.8-46.86-7.1-68.74-2.29-4.59-54.48-87.72-61.78-98.39-.7-1-.83-1-2,.61M178.13,244.54v8.85h8.55v-17.7h-8.55v8.85m143.44,24.72v9.15H303.25v18.28l9,.17,9,.17.17,9.3.17,9.31h2.27c1.25,0,5.36-.18,9.14-.4l6.87-.39V296.72h18.31V278.41H339.88V260.1H321.57v9.16M154.79,318.54l-23,.17v29.75c0,31.74.21,34.28,3.16,41.65,3.88,9.66,12.22,19,21,23.66,25.72,13.48,56,1.17,65.44-26.61l1.59-4.68.19-32.2.19-32.2-22.77.15-45.8.31" transform="translate(-16.91 -21.47)"/><path class="cls-6" d="M177.52,157.26v50.35H223.3V161.83h18.31V106.9H177.52v50.36m153.2,45.65V260.1h9.16v18.31h18.31v18.92H339.88v18.31h-9.16v48.41l5.95-.37c29.41-1.82,56-23.66,64.44-52.92,5.66-19.62,2.54-45.11-8.1-66.22-2.69-5.33-59.67-96-61.76-98.24-.3-.33-.53,23.89-.53,56.61M177.52,369.05v50.36l3.51-.36c18-1.89,32.38-12.55,39-28.95,3-7.46,3.26-10.66,3.26-42.16V318.69H177.52v50.36" transform="translate(-16.91 -21.47)"/><rect class="cls-7" x="160.1" y="213.6" width="11.5" height="19.12"/></svg>