<svg id="Layer_1" data-name="Layer 1" xmlns="http://www.w3.org/2000/svg" viewBox="0 0 483.4 483.4"><circle cx="241.7" cy="241.7" r="241.7" fill="#d9d9d9" opacity="0.2" style="isolation:isolate"/><rect x="114.2" y="186.7" width="92.5" height="110.19" fill="#fff"/><path d="M95.9,113.2V141h18.3v45.8h46.4v26.8l-23,.2h-23l-.2,9.3-.2,9.3h46.4v64.1H114.1l.3,31.3c.2,26.7.4,31.8,1.2,35.1a47.8,47.8,0,0,0,30.7,32.9c7.3,2.6,21.4,2.6,28.7,0,15.1-5.3,26-17,30.5-32.8,1.1-3.7,1.2-8.7,1.4-113V141h18.3V85.4H95.9v27.8M285.7,167c-15.2,24-29.3,46.3-31.2,49.5-14,23.4-18.2,53.5-10.6,76.2,15.5,46.2,70.6,64.8,111.3,37.5,33-22.1,41.8-67.1,21.2-107.6-3.3-6.4-61.8-99.3-62.6-99.3S301,143,285.7,167m19,81.1v9.4H286.3v17.7h18.4v18.3h9.1V238.6h-9.1v9.5m-190.3,12v9.3l18.5.2,18.5.2v-19H114.2l.2,9.3" fill="#fbfbfb" stroke="#fbfbfb" fill-rule="evenodd"/><path d="M96.1,113.1l.2,27.6h9.3l9.3.2v45.7l23,.2c12.6.1,33.3,0,45.9-.1l22.9-.4V163.7L207,141l9-.2h9l.2-27.6V85.4H95.9l.2,27.7m187.5,57.6c-38.7,60.8-40.9,65.6-43.1,90.9C235.2,324.5,303.3,365,355.3,330c32.7-22.1,41.6-66.4,21.3-106.7-3.1-6.2-62-99.4-62.8-99.4S300,145,283.6,170.7M114.8,223.4v9.1h55V214.2h-55v9.2m189.9,24.4v9.1H286.3v18.4h18.4v18.2H323V275.3h18.3V256.9H323V238.6H304.7v9.2M114.8,260v9.2h36.7V250.8H114.8V260m22.8,36.5H114.8v31c0,34.8.1,35.8,4.5,44.5,17.4,34.4,65.2,34.5,82.5.1,4.8-9.6,4.9-10.6,4.9-45V296.9l-23.2-.3c-12.8-.1-33.4-.2-45.9-.1" fill="#04eccc" stroke="#04eccc" fill-rule="evenodd"/><path d="M96.5,112.9v27.5h18.3v45.7h11.5l45.8.4,34.3.4V163.8l.2-23.1,9-.2,9-.2V85.4H96.5v27.5m216.2,12.6c-4.8,6.9-58.8,92.5-60.8,96.6-20.4,40.3-13,82.8,18.3,106,40.2,29.8,98,11.4,113.4-36,6.5-20.2,3.8-46.9-7.1-68.8-2.3-4.6-54.5-87.7-61.8-98.4-.7-1-.8-1-2,.6M161.2,223.1v8.8h8.6V214.2h-8.6v8.9m143.5,24.7v9.1H286.3v18.3l9,.2,9,.2.2,9.3.2,9.3H307l9.1-.4,6.9-.4V275.3h18.3V256.9H323V238.6H304.7v9.2M137.9,297.1h-23V327c0,31.7.2,34.3,3.1,41.6a49.7,49.7,0,0,0,21,23.7c25.8,13.5,56,1.2,65.5-26.6l1.6-4.7.2-32.2.2-32.2-22.8.2-45.8.3" fill="#fb4c4c" stroke="#fb4c4c" fill-rule="evenodd"/><path d="M160.6,135.8v50.3h45.8V140.4h18.3v-55H160.6v50.4m153.2,45.6v57.2H323v18.3h18.3v19H323v18.3h-9.2v48.4l6-.4c29.4-1.8,56-23.6,64.4-52.9,5.7-19.6,2.5-45.1-8.1-66.2-2.7-5.4-59.7-96-61.8-98.3-.3-.3-.5,23.9-.5,56.6M160.6,347.6v50.3l3.5-.3c18-1.9,32.4-12.6,39-29,3-7.4,3.3-10.6,3.3-42.1V297.2H160.6v50.4" fill="#c4044c" stroke="#c4044c" fill-rule="evenodd"/><rect x="160.1" y="213.6" width="11.5" height="19.12" fill="#c4044c" stroke="#c4044c"/></svg>