<svg width="397" height="107" viewBox="0 0 397 107" fill="none" xmlns="http://www.w3.org/2000/svg">
<path d="M27.7615 57.884C25.9739 59.7412 24.9013 62.2783 24.9013 65.0488C24.9013 70.8334 29.6206 75.5321 35.4431 75.5321C40.2134 75.5321 44.2278 72.3962 45.5456 68.0832C45.8418 67.1191 45.995 66.1042 45.995 65.0386C45.995 59.254 41.2655 54.5655 35.4431 54.5655C32.4092 54.5655 29.6717 55.834 27.7615 57.884Z" fill="white"/>
<path d="M35.443 82.6157C30.1721 82.6157 25.4427 80.3221 22.2045 76.6687C19.4363 73.5734 17.7713 69.5039 17.7713 65.0386C17.7713 61.7607 18.66 58.706 20.2433 56.0877C23.318 50.9425 28.977 47.4717 35.4532 47.4717C38.1193 47.4717 40.6322 48.0502 42.8999 49.1158C51.4702 43.4022 57.548 35.6996 60.3162 28.2304C63.5544 19.5433 62.3184 11.2014 55.311 6.74622C55.3007 6.73607 55.2701 6.71577 55.2599 6.70562C47.946 2.97101 39.6516 0.850006 30.8668 0.850006H0.119995V54.8902V106.85H2.62264H30.8668C43.3391 106.85 54.8104 102.598 63.8915 95.4635C65.536 94.1848 67.0989 92.7945 68.5801 91.3128C75.8326 84.1074 81.0116 74.8318 83.1261 64.4602C83.8207 61.03 84.1986 57.4781 84.1986 53.8449C84.1986 44.1431 81.5734 35.0501 77.0073 27.2358C75.9654 25.4396 74.8009 23.694 73.5445 22.0398C73.5445 25.7745 72.9725 32.4217 67.3032 41.0681C64.0345 46.0408 59.07 51.6732 51.5519 57.8028C52.5734 60.0152 53.125 62.4508 53.125 65.0285C53.1352 74.7506 45.2187 82.6157 35.443 82.6157Z" fill="white"/>
<path d="M120.86 39.5256C110.195 39.5256 101.983 42.5599 96.4667 48.5576C91.1652 54.3016 88.4786 62.6132 88.4786 73.2487C88.4786 95.4737 99.0613 106.738 119.93 106.738C141.443 106.738 152.352 95.4838 152.352 73.2893C152.362 50.8816 141.77 39.5256 120.86 39.5256ZM136.601 86.5126C134.006 92.0841 128.787 94.7836 120.635 94.7836C108.152 94.7836 102.085 87.6797 102.085 73.0558C102.085 58.4726 108.193 51.3789 120.768 51.3789C127.857 51.3789 132.699 53.5811 135.579 58.1276C137.694 61.4461 138.766 66.6421 138.766 73.5633C138.766 79.0637 138.041 83.4174 136.601 86.5126Z" fill="white"/>
<path d="M262.275 87.8421L232.447 41.3522H218.218V106.738H230.894V60.3399L261.059 106.738H274.951V41.3522H262.275V87.8421Z" fill="white"/>
<path d="M293.461 43.798C291.06 45.026 289.385 46.2032 288.384 47.3703C287.086 48.8316 286.075 50.9425 285.309 53.7942C284.41 57.0924 283.971 63.4961 283.971 73.3704C283.971 86.2792 284.022 87.8015 284.073 88.1668C284.4 91.8304 285.401 95.2707 287.035 98.4066C289.078 102.283 291.693 104.83 294.829 105.957C295.994 106.373 297.485 106.627 299.395 106.728C299.978 106.759 300.723 106.779 301.632 106.779C302.521 106.779 303.563 106.759 304.779 106.728H333.748V94.9561H312.062C305.187 94.9561 303.716 94.9054 303.461 94.8749C300.642 94.4791 298.752 93.2917 297.689 91.2519C297.189 90.2878 296.831 89.344 296.617 88.4205C296.249 86.878 296.086 83.9349 296.127 79.6625H333.748V67.87L332.318 67.8497C326.546 67.7584 320.458 67.7077 314.227 67.7077C308.476 67.7077 302.409 67.7584 296.167 67.8599C296.229 64.6124 296.239 62.3594 296.188 61.0097C296.699 58.3914 297.066 57.4781 297.26 57.1432C297.526 56.656 298.21 55.8036 299.978 54.4843C301.285 53.8449 304.707 53.094 313.492 53.094H333.748V41.3218H313.165C303.062 41.3523 296.607 42.154 293.461 43.798Z" fill="white"/>
<path d="M339.57 41.3522V53.165H361.369V106.738H374.321V53.165H396.12V41.3522H339.57Z" fill="white"/>
<path d="M192.16 53.0432H207.86V41.332H191.598C184.917 41.332 179.616 42.1032 175.867 43.6356C170.31 45.8987 166.03 50.2625 163.16 56.6053C160.739 61.9129 159.513 67.9411 159.513 74.4969C159.513 80.8803 160.698 86.6648 163.017 91.6984C166.316 98.8226 171.474 103.42 178.349 105.358C181.73 106.312 186.368 106.789 192.149 106.789H207.85V95.5853H192.997C189.279 95.5853 186.429 95.362 184.529 94.9155C181.751 94.2559 179.432 92.9163 177.644 90.9475C174.059 86.9389 172.23 81.5095 172.23 74.8217C172.23 67.4032 174.008 61.5374 177.522 57.3766C179.963 54.5046 184.887 53.0432 192.16 53.0432Z" fill="white"/>
</svg>
