<svg width="18" height="23" viewBox="0 0 18 23" fill="none" xmlns="http://www.w3.org/2000/svg">
<path d="M17.25 0.000488281H14.25C13.982 0.000488281 13.7344 0.143455 13.6005 0.375488C13.4665 0.607521 13.4665 0.89346 13.6005 1.12549C13.7344 1.35752 13.982 1.50049 14.25 1.50049H16.5V21.0005H1.5V1.50049H3.75C4.01802 1.50049 4.26561 1.35752 4.39954 1.12549C4.53347 0.893455 4.53347 0.607517 4.39954 0.375488C4.26561 0.14346 4.01802 0.000488281 3.75 0.000488281H0.75C0.551117 0.000488281 0.360266 0.0795083 0.219643 0.220131C0.07902 0.360754 0 0.551605 0 0.750488V21.7505C0 21.9494 0.07902 22.1402 0.219643 22.2808C0.360266 22.4215 0.551117 22.5005 0.75 22.5005H17.25C17.4489 22.5005 17.6397 22.4215 17.7804 22.2808C17.921 22.1402 18 21.9494 18 21.7505V0.750488C18 0.551605 17.921 0.360754 17.7804 0.220131C17.6397 0.0795083 17.4489 0.000488281 17.25 0.000488281Z" fill="white"/>
<path d="M5.99951 4.50049H11.9995C12.1984 4.50049 12.3892 4.42147 12.5299 4.28085C12.6705 4.14022 12.7495 3.94937 12.7495 3.75049V0.750488C12.7495 0.551605 12.6705 0.360754 12.5299 0.220131C12.3892 0.0795083 12.1984 0.000488281 11.9995 0.000488281H5.99951C5.80063 0.000488281 5.60978 0.0795083 5.46915 0.220131C5.32853 0.360754 5.24951 0.551605 5.24951 0.750488V3.75049C5.24951 3.94937 5.32853 4.14022 5.46915 4.28085C5.60978 4.42147 5.80063 4.50049 5.99951 4.50049ZM6.74951 1.50049H11.2495V3.00049H6.74951V1.50049Z" fill="white"/>
<path d="M5.99952 16.5005C6.1984 16.5005 6.38925 16.4215 6.52987 16.2808C6.6705 16.1402 6.74952 15.9494 6.74952 15.7505V13.058L9.06697 15.3755L7.71697 16.7179C7.57501 16.8587 7.49515 17.0504 7.49515 17.2505C7.49515 17.4505 7.57501 17.6422 7.71697 17.783C7.85777 17.925 8.04945 18.0048 8.24952 18.0048C8.44958 18.0048 8.64126 17.925 8.78206 17.783L10.1245 16.433L11.467 17.783C11.6078 17.925 11.7995 18.0048 11.9995 18.0048C12.1996 18.0048 12.3913 17.925 12.5321 17.783C12.674 17.6422 12.7539 17.4505 12.7539 17.2505C12.7539 17.0504 12.674 16.8587 12.5321 16.7179L11.1821 15.3755L12.5321 14.033C12.7222 13.8427 12.7966 13.5654 12.7269 13.3056C12.6573 13.0456 12.4544 12.8427 12.1944 12.7731C11.9346 12.7034 11.6573 12.7778 11.467 12.9679L10.1245 14.3179L7.80705 12.0005H8.24951C9.32128 12.0005 10.3117 11.4286 10.8476 10.5005C11.3834 9.57236 11.3834 8.42859 10.8476 7.50047C10.3117 6.57236 9.32128 6.00047 8.24951 6.00047H5.99951C5.80063 6.00047 5.60978 6.07949 5.46915 6.22012C5.32853 6.36074 5.24951 6.55159 5.24951 6.75047V15.7505C5.24951 15.9494 5.32853 16.1402 5.46915 16.2808C5.60978 16.4215 5.80063 16.5005 5.99952 16.5005ZM6.74952 7.50048H8.24952C8.7854 7.50048 9.28062 7.78642 9.5486 8.25048C9.81646 8.71453 9.81646 9.28642 9.5486 9.75048C9.28058 10.2145 8.78536 10.5005 8.24952 10.5005H6.74952V7.50048Z" fill="white"/>
</svg>
