<svg width="24" height="24" viewBox="0 0 24 24" fill="none" xmlns="http://www.w3.org/2000/svg">
<path d="M21.9378 5.07013C21.5197 4.65061 21.023 4.31774 20.476 4.09062C19.929 3.8635 19.3426 3.74658 18.7503 3.74658C18.158 3.74658 17.5716 3.8635 17.0246 4.09062C16.4776 4.31774 15.9809 4.65061 15.5628 5.07013L16.6278 6.13513C16.907 5.85591 17.2385 5.63442 17.6033 5.4833C17.9682 5.33219 18.3592 5.25441 18.7541 5.25441C19.1489 5.25441 19.54 5.33219 19.9048 5.4833C20.2696 5.63442 20.6011 5.85591 20.8803 6.13513C21.1595 6.41435 21.381 6.74584 21.5321 7.11066C21.6833 7.47548 21.761 7.8665 21.761 8.26138C21.761 8.65626 21.6833 9.04728 21.5321 9.4121C21.381 9.77692 21.1595 10.1084 20.8803 10.3876L14.8803 16.3876C14.3174 16.9515 13.5535 17.2687 12.7567 17.2695C11.9599 17.2702 11.1955 16.9543 10.6316 16.3914C10.0676 15.8285 9.75044 15.0646 9.74974 14.2678C9.74903 13.471 10.0649 12.7065 10.6278 12.1426L11.6853 11.0776L10.6278 10.0126L9.56281 11.0776C9.14329 11.4957 8.81042 11.9925 8.5833 12.5394C8.35617 13.0864 8.23926 13.6729 8.23926 14.2651C8.23926 14.8574 8.35617 15.4438 8.5833 15.9908C8.81042 16.5378 9.14329 17.0346 9.56281 17.4526C10.4114 18.2904 11.5579 18.757 12.7503 18.7501C13.3448 18.7526 13.934 18.6372 14.4837 18.4106C15.0333 18.184 15.5327 17.8508 15.9528 17.4301L21.9528 11.4301C22.7935 10.5844 23.2642 9.43953 23.2614 8.24703C23.2585 7.05452 22.7825 5.91189 21.9378 5.07013Z" fill="white"/>
<path d="M3.14236 18.6149C2.8623 18.3361 2.64007 18.0048 2.48843 17.6399C2.3368 17.275 2.25873 16.8838 2.25873 16.4886C2.25873 16.0935 2.3368 15.7022 2.48843 15.3373C2.64007 14.9725 2.8623 14.6411 3.14236 14.3624L9.14235 8.36237C9.42111 8.08231 9.75245 7.86008 10.1173 7.70844C10.4822 7.55681 10.8735 7.47875 11.2686 7.47875C11.6637 7.47875 12.055 7.55681 12.4199 7.70844C12.7848 7.86008 13.1161 8.08231 13.3949 8.36237C13.6731 8.64332 13.8922 8.97727 14.0391 9.34443C14.1859 9.71159 14.2576 10.1045 14.2499 10.4999C14.2521 10.8965 14.1758 11.2896 14.0251 11.6565C13.8745 12.0234 13.6527 12.3568 13.3724 12.6374L11.7824 14.2499L12.8474 15.3149L14.4374 13.7249C15.2837 12.8785 15.7592 11.7306 15.7592 10.5336C15.7592 9.33667 15.2837 8.18874 14.4374 7.34237C13.591 6.49599 12.4431 6.02051 11.2461 6.02051C10.0492 6.02051 8.90123 6.49599 8.05485 7.34237L2.05486 13.3424C1.63421 13.7606 1.30039 14.2578 1.0726 14.8055C0.844807 15.3532 0.727539 15.9405 0.727539 16.5336C0.727539 17.1268 0.844807 17.7141 1.0726 18.2618C1.30039 18.8094 1.63421 19.3067 2.05486 19.7249C2.90897 20.5562 4.05803 21.0148 5.24986 20.9999C6.45218 21.001 7.60614 20.5265 8.45985 19.6799L7.39485 18.6149C7.1161 18.8949 6.78476 19.1172 6.41988 19.2688C6.05499 19.4204 5.66375 19.4985 5.26861 19.4985C4.87346 19.4985 4.48222 19.4204 4.11733 19.2688C3.75245 19.1172 3.42111 18.8949 3.14236 18.6149Z" fill="white"/>
</svg>
