<svg width="271" height="275" viewBox="0 0 271 275" fill="none" xmlns="http://www.w3.org/2000/svg">
<line x1="19.5" y1="94.0773" x2="19.5" y2="108.077" stroke="white"/>
<line x1="82.5" y1="77.0773" x2="82.5" y2="86.0773" stroke="white"/>
<line x1="89.5" y1="48.0773" x2="89.5" y2="57.0773" stroke="white"/>
<line x1="157.5" y1="69.0773" x2="157.5" y2="78.0773" stroke="white"/>
<line x1="251.5" y1="70.0773" x2="251.5" y2="103.077" stroke="white"/>
<line x1="207.5" y1="49.0773" x2="207.5" y2="117.077" stroke="white"/>
<line x1="45.5" y1="52.0773" x2="45.5" y2="92.0773" stroke="white"/>
<line x1="82" y1="85.5773" x2="103" y2="85.5773" stroke="white"/>
<line x1="89" y1="56.5773" x2="110" y2="56.5773" stroke="white"/>
<line x1="157" y1="68.5773" x2="178" y2="68.5773" stroke="white"/>
<line x1="164" y1="102.577" x2="252" y2="102.577" stroke="white"/>
<line x1="164" y1="117.577" x2="208" y2="117.577" stroke="white"/>
<line x1="94" y1="108.577" x2="19" y2="108.577" stroke="white"/>
<line x1="121" y1="91.5773" x2="46" y2="91.5773" stroke="white"/>
<path d="M158.463 203.695L135.096 225.883L164.376 244.82L168.471 219.334L158.463 203.695Z" fill="#FFC0AF"/>
<path d="M99.9073 175.834L85.4663 162.167C85.4663 162.167 96.3783 166.555 100.557 163.652L99.9073 175.834Z" fill="#DEA798"/>
<path d="M79.7129 180.945L93.1743 192.442L97.1212 187.448L83.6576 176.996L79.7129 180.945Z" fill="#DEA798"/>
<path d="M194.082 271.026L146.651 224.757L148.305 176.591L100.557 156.68L99.9692 176.996L89.9328 197.668L81.2386 201.098L81.106 201.151C81.106 201.151 87.1402 208.12 88.9975 208.583C88.9975 208.583 106.174 246.703 144.82 256.372L161.948 274.19H193.125L195.132 272.051L194.082 271.026Z" fill="#FFC0AF"/>
<path d="M84.3254 200.803L81.106 201.153L86.5321 203.049L86.0678 201.239L84.3254 200.803Z" fill="#EEB3A3"/>
<path d="M161.733 274.192L144.822 256.375C106.174 246.706 88.9975 208.585 88.9975 208.585C87.1402 208.12 81.106 201.153 81.106 201.153L81.2386 201.1L87.0473 201.854C87.0473 201.854 91.2684 205.109 92.2988 206.7C92.2988 206.7 109.853 241.986 148.121 249.947L176.289 274.195H161.948H161.733V274.192Z" fill="#EEB3A3"/>
<path d="M88.416 185.506L105.594 187.999L98.4701 201.098L90.112 194.871L88.416 185.506Z" fill="#DEA798"/>
<path d="M84.3257 200.803C84.3257 200.803 92.2792 207.505 98.4704 201.098C98.4704 201.098 100.339 199.018 98.0923 195.96L84.3257 200.803Z" fill="#DEA798"/>
<path d="M179.904 274.192H246.051L217.481 251.474C215.707 250.062 213.876 248.723 211.986 247.471C173.665 222.095 176.769 199.916 176.769 199.916L166.695 212.205L164.375 244.82L188.988 266.61L183.38 270.46L179.904 274.192Z" fill="#FFC0AF"/>
<path d="M189.202 207.505C189.202 207.505 179.099 226.633 214.495 249.102L202.697 256.18C202.697 256.18 167.433 202.815 168.493 201.241C169.554 199.668 183.075 197.591 183.075 197.591L189.202 207.505Z" fill="#FFC0AF"/>
<path d="M187.568 196.81C187.568 196.81 190.323 207.994 189.202 212.667C189.202 212.667 188.492 222.679 193.39 230.16C193.39 230.16 185.164 218.637 185.164 217.544C185.164 216.449 184.667 202.421 184.667 201.923C184.667 201.425 187.568 196.81 187.568 196.81Z" fill="#FFC0AF"/>
<path d="M100.019 135.699C100.019 135.699 92.9513 131.624 87.9693 133.896C87.9693 133.896 84.2609 135.767 89.0112 139.974C89.0112 139.974 93.9932 144.116 97.1211 145.253L101.176 147.792L100.019 135.699Z" fill="#FFC0AF"/>
<rect x="93.3975" y="77.7851" width="70.0066" height="140.013" rx="6" fill="#1A1A1A"/>
<path d="M159.515 87.098V212.375C159.515 213.756 158.378 214.881 156.982 214.881H100.792C99.3958 214.881 98.2593 213.756 98.2593 212.375V87.098C98.2593 85.7163 99.3958 84.5913 100.792 84.5913H156.982C158.381 84.5913 159.515 85.7163 159.515 87.098Z" fill="url(#paint0_linear_938_3)"/>
<path d="M118.974 78.7685L118.264 85.6695V89.8115L119.27 93.1436L120.04 95.5531L125.004 89.9796L127.135 86.9838L127.308 82.2799L125.004 80.8505L122.315 82.4746L118.974 78.7685Z" fill="url(#paint1_linear_938_3)"/>
<path d="M122.607 85.9549L123.091 90.0039L120.04 94.5773L119.414 92.4046C119.414 92.4046 119.381 91.0748 120.04 89.3468C120.04 89.3468 120.707 86.216 120.267 84.2512L122.607 85.9549Z" fill="#203A55"/>
<path opacity="0.34" d="M125.177 84.3442C125.177 84.3442 123.003 85.4792 122.985 86.2271L123.094 90.0017L122.609 85.9527L123.527 83.968L125.006 83.4459L125.177 84.3442Z" fill="black"/>
<path d="M120.268 84.2491C120.268 84.2491 120.372 85.7514 122.607 85.955C122.607 85.955 124.188 83.7247 125.004 84.0986C125.004 84.0986 124.694 81.4789 122.315 81.012L121.406 80.7266L119.757 83.7313L120.268 84.2491Z" fill="#001E3D"/>
<path d="M106.355 90.9686C106.355 90.9686 102.662 94.9159 101.789 102.664L100.794 107.019C100.297 109.198 100.044 111.431 100.044 113.67V119.506L107.456 124.429L106.355 90.9686Z" fill="#DDDDDD"/>
<path d="M118.917 78.2972C118.917 78.2972 119.518 80.4699 122.315 81.012L129.09 79.149L133.15 72.6396L132.891 72.1617L131.688 71.9227C131.688 71.9227 129.8 65.1301 129.99 62.8556L118.917 78.2972Z" fill="#ED9E8D"/>
<path d="M122.315 81.012C122.315 81.012 124.422 82.6781 125.004 84.0986C125.004 84.0986 125.663 85.1584 126.602 85.6717C126.602 85.6717 134.264 75.3611 134.938 75.277C134.938 75.277 133.941 71.3541 131.688 71.9272C131.688 71.9272 133.068 72.321 132.822 72.7414C132.825 72.7392 123.089 80.9457 122.315 81.012Z" fill="url(#paint2_linear_938_3)"/>
<path d="M119.759 98.622L114.932 141.283H106.501C106.306 139.504 106.083 136.809 105.92 134.683C105.787 132.979 105.793 131.266 105.973 129.567C106.472 124.775 105.749 117.037 105.749 117.037C106.198 113.614 104.566 100.04 104.166 96.8143C104.091 96.2213 104.12 95.6195 104.257 95.0376C105.608 89.3358 113.015 85.6717 113.015 85.6717L117.592 83.3397L117.738 88.3644L118.7 96.6328L119.759 98.622Z" fill="#EEEEEE"/>
<path d="M122.315 81.012L118.972 78.7707C118.972 78.7707 117.955 84.55 119.843 87.4683C119.845 87.4661 120.281 80.3947 122.315 81.012Z" fill="url(#paint3_linear_938_3)"/>
<path d="M149.203 141.254H114.749L115.237 118.281C115.498 112.597 118.742 96.6041 118.742 96.6041L125.919 88.5968L134.983 75.2438L139.144 78.7375C140.603 79.9633 147.5 83.3087 147.5 83.3087L146.846 124.399L149.203 141.254Z" fill="white"/>
<path opacity="0.22" d="M130.324 84.6893L131.445 86.8156L118.85 97.1771L118.7 97.301L127.944 86.4284L128.84 83.5653L134.549 78.3834L137.426 77.3612L139.1 78.7662L136.088 84.2468C136.09 84.249 131.08 84.8309 130.324 84.6893Z" fill="black"/>
<path d="M139.1 78.7685L137.176 81.7289L136.398 82.9281L135.832 83.7977C135.832 83.7977 130.746 84.7712 129.802 84.2468L130.823 86.5169C130.823 86.5169 128.285 89.203 125.187 91.566C123.511 92.8449 120.296 95.9757 118.852 97.1794L118.702 97.3033C118.636 97.3564 118.585 97.3873 118.549 97.3962L118.704 96.6329C118.706 96.6306 118.706 96.6306 118.709 96.6284C118.709 96.6262 118.711 96.624 118.711 96.6218C119.118 95.989 132.166 75.7284 134.938 75.2792L135.511 75.7616L136.577 76.6555L137.426 77.3679L139.1 78.7685Z" fill="#DFDFDF"/>
<path d="M90.4414 132.539L112.854 128.315L103.558 119.493L92.2258 122.622L90.4414 132.539Z" fill="#DDDDDD"/>
<path d="M86.0059 127.516L87.5249 130.91C88.0401 132.061 89.2319 132.749 90.4436 132.539C91.2949 132.39 92.1639 131.802 92.6592 130.231C92.6592 130.231 93.8687 126.226 92.228 122.62L86.0059 127.516Z" fill="#EEEEEE"/>
<path d="M86.5146 126.998C86.5146 126.998 88.4914 130.408 90.2404 129.607C90.2404 129.607 92.9623 127.337 91.0829 124.067L86.5146 126.998Z" fill="#DDDDDD"/>
<path d="M111.074 116.343L109.97 115.851H103.888C103.408 115.851 102.939 115.995 102.537 116.267L100.675 117.522L102.506 119.493L103.567 118.745C103.808 118.575 104.106 118.515 104.392 118.579L107.832 119.354L111.074 116.343Z" fill="#EFA596"/>
<path d="M102.028 119.816H107.733L103.947 121.717L102.028 119.816Z" fill="#D97F6B"/>
<path d="M121.254 119.938L120.675 125.456V125.463L120.489 127.233C116.978 127.443 115.101 125.64 115.101 125.64L113.517 125.239L112.92 125.381L112.856 125.396L113.011 125.635C113.128 125.815 113.186 126.02 113.186 126.224C113.188 126.489 113.095 126.755 112.909 126.963L112.593 127.315C112.44 127.485 112.239 127.598 112.027 127.64C111.877 127.671 111.717 127.667 111.563 127.625C111.021 127.476 110.661 127.275 110.448 127.129C110.267 127.003 110.052 126.936 109.834 126.936H108.432L106.395 124.715L103.95 121.712L111.076 116.338L121.254 119.938Z" fill="#FFC0AF"/>
<path opacity="0.44" d="M114.103 123.912C113.897 124.153 113.805 124.472 113.847 124.79C113.747 124.819 113.652 124.894 113.559 124.976C113.466 125.06 113.378 125.151 113.287 125.213C113.137 125.317 113.044 125.219 112.918 125.385L112.854 125.401L113.009 125.64C113.126 125.819 113.183 126.025 113.183 126.228C111.609 125.385 114.957 122.909 114.957 122.909L114.103 123.912Z" fill="#BF5E55"/>
<path opacity="0.44" d="M110.479 126.589L112.022 127.644C111.872 127.675 111.713 127.671 111.558 127.629C111.034 127.485 110.678 127.293 110.466 127.149C110.269 127.016 110.039 126.941 109.804 126.941H109.647C109.647 126.941 108.717 125.191 109.36 124.633C109.36 124.633 110.921 123.091 113.566 120.821L109.734 124.912C109.734 124.912 109.274 125.516 110.479 126.589Z" fill="#BF5E55"/>
<path d="M113.847 124.73C114.041 124.675 114.238 124.646 114.428 124.635C115.052 124.6 115.662 124.806 116.18 125.164C118.143 126.523 120.673 125.456 120.673 125.456V125.463L120.487 127.233C116.976 127.443 115.098 125.64 115.098 125.64L113.515 125.239L112.854 125.396L113.847 124.73Z" fill="#E98773"/>
<path opacity="0.44" d="M107.087 123.496L112.476 118.721L110.581 119.938L106.824 122.954C106.159 123.312 106.391 124.717 106.391 124.717L108.427 126.939L109.283 127.233L107.879 125.773C107.51 125.443 107.22 125.027 107.05 124.553C106.76 123.737 107.087 123.496 107.087 123.496Z" fill="#BF5E55"/>
<path d="M110.309 128.866L107.81 128.662L92.1087 127.386C91.4962 127.337 90.9257 127.045 90.5144 126.573L77.7805 111.97C77.7805 111.97 76.2017 110.258 77.3957 110.207L95.6222 111.393C95.8433 111.408 96.0578 111.475 96.2457 111.59C96.2966 111.621 96.3452 111.654 96.3917 111.692C96.4757 111.758 96.5509 111.831 96.6194 111.915L110.309 128.866Z" fill="url(#paint4_linear_938_3)"/>
<path d="M96.3895 111.689L95.6112 111.993L78.1829 110.933C78.1829 110.933 77.5771 110.911 77.3936 110.207L95.62 111.393C95.8411 111.408 96.0556 111.475 96.2436 111.59C96.2944 111.621 96.3431 111.654 96.3895 111.689Z" fill="#588BD7"/>
<path d="M110.308 128.866L107.81 128.662L95.675 113.696C95.4141 113.375 95.2903 112.951 95.3655 112.539C95.507 111.767 96.2101 111.599 96.2455 111.59C96.3848 111.674 96.5131 111.785 96.6192 111.915L110.308 128.866Z" fill="#23539A"/>
<path d="M84.666 125.511L85.1348 126.476C85.4289 127.08 86.0546 127.434 86.7069 127.366L87.6511 127.266C88.2702 127.202 88.8561 126.941 89.3293 126.52L90.8218 125.193L84.666 125.511Z" fill="#EC9685"/>
<path d="M90.9896 124.848C90.9587 125.069 90.7906 125.268 90.5452 125.441L90.5408 125.443C90.3705 125.562 90.1649 125.671 89.9416 125.766C88.9886 126.18 87.7348 126.381 87.7348 126.381C86.7177 126.574 85.5547 126.346 84.8161 126.144C84.354 126.018 83.9803 125.669 83.8101 125.206L83.1158 123.321C83.0804 123.226 83.0539 123.129 83.0362 123.031C82.9787 122.744 82.9897 122.44 83.0693 122.155L83.0804 122.115L83.1534 121.85L83.3302 121.219L85.3114 123.394L90.9896 124.848Z" fill="#EFA596"/>
<path d="M88.9332 125.065L85.8 124.443C84.5397 124.153 84.1041 123.682 84.1041 123.682L83.0781 122.115L83.1511 121.85L83.5115 121.839L85.2848 123.733L88.9332 125.065Z" fill="#E98773"/>
<path d="M90.5408 125.443L89.9415 125.766C88.9885 126.18 87.7348 126.381 87.7348 126.381C86.7177 126.573 85.5546 126.346 84.8161 126.144C84.354 126.018 83.9803 125.669 83.81 125.206L83.1157 123.321C83.0804 123.226 83.0538 123.128 83.0361 123.031C83.0605 123.086 84.051 125.35 84.5176 125.514C84.5176 125.514 85.5391 126.151 87.454 126.02C87.4496 126.02 89.5789 125.841 90.5408 125.443Z" fill="#E98773"/>
<path d="M91.6532 124.733C91.4785 124.947 91.2065 125.087 90.897 125.089L89.9506 125.1C87.4564 124.673 86.0921 124.299 85.3647 124.044C84.9003 123.881 84.5023 123.582 84.2326 123.188L82.3796 120.478C82.1475 120.139 82.1519 119.699 82.3907 119.356L83.1513 118.261L85.6167 120.973L86.7444 122.212L88.3342 122.788L88.5465 122.865L91.0738 123.266C91.1822 123.281 91.2839 123.317 91.3746 123.365C91.463 123.412 91.5426 123.471 91.6112 123.54C91.7505 123.682 91.8389 123.865 91.8588 124.069C91.8831 124.317 91.8035 124.551 91.6532 124.733Z" fill="#F0AD9F"/>
<path d="M89.2649 122.98L86.9477 122.575L82.9963 120.5C82.4436 119.878 82.2954 119.58 82.2954 119.58L85.6165 120.976L86.7442 122.215L88.334 122.79L89.2649 122.98Z" fill="#E98773"/>
<path d="M88.531 122.031C88.3586 122.23 88.0866 122.301 87.8367 122.23C87.8146 122.224 87.7925 122.217 87.7726 122.213L86.9324 121.956C86.7201 121.892 83.1071 120.407 83.1071 120.407C82.8042 120.17 82.5322 119.894 82.2956 119.58C81.9396 119.108 81.9418 118.166 82.0281 117.573L82.1187 116.949L82.1209 116.953C82.1917 117.028 83.2663 118.252 83.2663 118.252L86.3442 119.757L87.9981 120.529L88.3895 120.712H88.3917C88.4868 120.785 88.5642 120.885 88.6062 121C88.7986 121.522 88.6947 121.841 88.531 122.031Z" fill="#FFC0AF"/>
<path d="M86.8857 120.956C86.7773 121.157 86.7663 121.429 87.109 121.732C87.1753 121.79 87.2527 121.83 87.3345 121.852L88.2522 122.097C88.2522 122.097 88.5463 121.648 88.2964 120.938L87.5335 120.692C87.2859 120.613 87.0139 120.712 86.8857 120.956Z" fill="#FFFBFA"/>
<path d="M88.2699 122.151L87.3191 121.896C87.2284 121.872 87.1444 121.828 87.0759 121.766C86.6956 121.431 86.7376 121.128 86.8415 120.931C86.9786 120.675 87.266 120.555 87.5446 120.644L88.3318 120.896L88.3384 120.918C88.5927 121.642 88.3009 122.1 88.2876 122.12L88.2699 122.151ZM86.9255 120.978C86.7973 121.219 86.8702 121.46 87.1378 121.697C87.1953 121.748 87.2682 121.785 87.3434 121.805L88.2257 122.042C88.281 121.936 88.449 121.542 88.2566 120.976L87.5159 120.737C87.2837 120.661 87.0405 120.761 86.9255 120.978Z" fill="#FFC0AF"/>
<path d="M91.6111 124.399C91.5846 124.644 91.4652 124.857 91.2949 125.003L90.521 124.945C90.2513 124.925 90.039 124.699 90.028 124.421C90.0213 124.264 90.0456 124.113 90.0766 123.989C90.1297 123.77 90.3088 123.611 90.5277 123.582C90.8837 123.538 91.317 123.606 91.317 123.606C91.3878 123.671 91.4475 123.746 91.4962 123.828C91.589 123.996 91.6332 124.195 91.6111 124.399Z" fill="#FFFBFA"/>
<path d="M87.9981 120.529L87.0937 120.299C86.9102 120.252 86.7311 120.186 86.5608 120.104L83.5736 118.666C83.2485 118.509 82.9721 118.265 82.7753 117.958L82.123 116.953C82.1938 117.028 83.2684 118.252 83.2684 118.252L86.3463 119.757L87.9981 120.529Z" fill="#E98773"/>
<path d="M141.658 116.752C141.603 116.639 139.288 118.228 138.244 117.929C138.244 117.929 135.932 118.303 136.192 118.261C136.453 118.219 133.975 118.526 133.106 118.155L120.354 118.79V118.987L127.237 121.142H135.372L137.311 119.799L140.371 118.947L142.348 117.67L143.429 116.997L141.658 116.752Z" fill="#DFDFDF"/>
<path d="M120.042 94.5752L118.702 96.6329C118.702 96.6329 117.649 93.4556 113.944 89.1897L116.993 86.3244L114.51 85.9173L113.638 85.7735L113.017 85.6717C113.278 85.5168 113.563 85.3022 113.86 85.0434C114.308 84.6517 114.786 84.1583 115.261 83.6251C117.13 81.5298 118.974 78.7707 118.974 78.7707C118.974 78.7707 117.904 88.8379 120.042 94.5752Z" fill="#CECECE"/>
<path d="M136.614 101.967L135.726 105.089L135.257 106.735C135.188 106.977 135.146 107.224 135.129 107.47L134.892 111.039C134.888 111.112 134.881 111.185 134.87 111.26L134.459 114.495C134.423 114.763 134.41 115.03 134.414 115.296L134.43 116.309L134.454 117.732C134.456 117.874 134.377 118.011 134.253 118.082C134.251 118.082 134.251 118.084 134.249 118.084C133.24 118.65 128.884 121.119 127.447 122.248C127.131 122.496 126.711 122.522 126.403 122.312L121.172 118.756C120.984 118.628 120.88 118.405 120.893 118.168C120.895 118.135 120.9 118.102 120.906 118.066L121.234 116.389L121.344 115.823C121.419 115.433 121.453 115.037 121.439 114.648L121.362 112.371C121.353 112.11 121.373 111.844 121.422 111.581L122.067 108.152C122.125 107.846 122.151 107.536 122.145 107.231L122.118 105.862L122.233 105.249C122.291 104.943 122.317 104.634 122.311 104.328L122.302 103.839L122.262 101.835L122.361 100.978C122.361 100.978 122.523 100.905 122.837 100.85C123.509 100.733 124.878 100.697 126.848 101.635C126.848 101.635 127.409 101.91 128.177 101.897H128.179C128.36 101.892 128.555 101.872 128.754 101.828C128.864 101.804 128.977 101.773 129.09 101.733C129.545 101.574 129.917 101.611 130.26 101.728C130.609 101.846 130.927 102.043 131.27 102.184C131.361 102.222 131.454 102.255 131.549 102.284C131.551 102.284 131.553 102.286 131.555 102.286C131.558 102.286 131.56 102.288 131.564 102.288C131.679 102.321 131.796 102.346 131.92 102.357C131.92 102.357 132.024 102.377 132.267 102.366C132.484 102.355 132.809 102.319 133.271 102.222C133.36 102.204 133.453 102.182 133.55 102.16C133.782 102.105 134.019 102.087 134.249 102.116L135.232 102.237C135.46 102.264 135.695 102.244 135.922 102.173L136.035 102.138L136.614 101.967Z" fill="#DFDFDF"/>
<path opacity="0.14" d="M126.487 103.698L128.951 104.769L129.251 104.977L129.981 105.368L130.556 105.866L130.907 106.747L130.138 105.764C130.138 105.764 128.718 105.229 128.699 105.222C128.679 105.215 126.441 103.919 126.441 103.919L126.487 103.698Z" fill="#403F41"/>
<path d="M135.987 102.37L135.925 102.348C135.942 102.299 135.962 102.248 135.982 102.197L135.933 102.213L135.914 102.151L136.09 102.098L136.066 102.16C136.037 102.231 136.011 102.301 135.987 102.37Z" fill="white"/>
<path d="M135.845 102.954L135.783 102.936L135.838 102.744C135.816 102.72 135.816 102.673 135.869 102.507L135.931 102.527C135.9 102.624 135.892 102.669 135.889 102.691L135.923 102.684L135.845 102.954Z" fill="white"/>
<path d="M133.897 117.006L133.89 116.562H133.954L133.961 117.006H133.897ZM133.881 116.115L133.875 115.67H133.939L133.946 116.115H133.881ZM133.932 115.223H133.868C133.868 115.072 133.875 114.922 133.886 114.776L133.95 114.78C133.939 114.926 133.932 115.075 133.932 115.223ZM133.999 114.338L133.935 114.329L133.99 113.887L134.054 113.895L133.999 114.338ZM134.111 113.455L134.047 113.446L134.103 113.004L134.167 113.013L134.111 113.455ZM134.224 112.57L134.16 112.561L134.215 112.119L134.279 112.128L134.224 112.57ZM134.337 111.687L134.273 111.678L134.328 111.236L134.392 111.245L134.337 111.687ZM134.43 110.8L134.366 110.796L134.394 110.351L134.459 110.355L134.43 110.8ZM134.487 109.911L134.423 109.906L134.452 109.461L134.516 109.466L134.487 109.911ZM134.547 109.021L134.483 109.017L134.512 108.572L134.576 108.576L134.547 109.021ZM134.607 108.132L134.543 108.127L134.571 107.682L134.635 107.687L134.607 108.132ZM134.673 107.244L134.609 107.236C134.629 107.087 134.655 106.939 134.689 106.793L134.753 106.809C134.717 106.952 134.691 107.101 134.673 107.244ZM134.87 106.381L134.808 106.364L134.93 105.935L134.991 105.952L134.87 106.381ZM135.113 105.525L135.051 105.508L135.173 105.078L135.235 105.096L135.113 105.525ZM135.356 104.669L135.294 104.651L135.416 104.222L135.478 104.24L135.356 104.669ZM135.602 103.81L135.54 103.793L135.661 103.364L135.723 103.381L135.602 103.81Z" fill="white"/>
<path d="M133.758 117.818L133.727 117.761L133.906 117.659L133.904 117.451H133.968L133.972 117.697L133.758 117.818Z" fill="white"/>
<path d="M126.91 121.96C126.837 121.96 126.768 121.94 126.709 121.905L126.742 121.85C126.793 121.881 126.848 121.896 126.91 121.896H126.919C126.996 121.894 127.069 121.867 127.131 121.821L127.171 121.872C127.098 121.927 127.009 121.958 126.921 121.96H126.91ZM126.331 121.648L125.955 121.392L125.99 121.339L126.366 121.595L126.331 121.648ZM127.536 121.597L127.498 121.544C127.611 121.462 127.737 121.376 127.872 121.283L127.909 121.336C127.774 121.429 127.648 121.518 127.536 121.597ZM125.579 121.135L125.203 120.878L125.238 120.825L125.614 121.082L125.579 121.135ZM128.287 121.086L128.252 121.031C128.376 120.949 128.502 120.867 128.635 120.783L128.67 120.838C128.537 120.923 128.411 121.004 128.287 121.086ZM124.825 120.624L124.449 120.367L124.484 120.314L124.86 120.571L124.825 120.624ZM129.052 120.595L129.017 120.54C129.143 120.46 129.274 120.38 129.404 120.299L129.437 120.354C129.309 120.434 129.181 120.515 129.052 120.595ZM129.829 120.115L129.795 120.06C129.924 119.98 130.054 119.903 130.185 119.823L130.218 119.878C130.087 119.958 129.957 120.038 129.829 120.115ZM124.073 120.113L123.697 119.856L123.732 119.803L124.108 120.06L124.073 120.113ZM130.607 119.644L130.574 119.588C130.704 119.511 130.835 119.434 130.965 119.356L130.998 119.411C130.87 119.489 130.737 119.566 130.607 119.644ZM123.321 119.602L122.945 119.345L122.981 119.292L123.357 119.549L123.321 119.602ZM131.392 119.181L131.359 119.126C131.491 119.049 131.624 118.971 131.752 118.896L131.785 118.951C131.655 119.026 131.525 119.104 131.392 119.181ZM122.567 119.091L122.191 118.834L122.227 118.781L122.603 119.037L122.567 119.091ZM132.177 118.721L132.144 118.666C132.279 118.586 132.411 118.511 132.537 118.438L132.57 118.493C132.444 118.568 132.314 118.644 132.177 118.721ZM121.815 118.579L121.462 118.338C121.453 118.332 121.444 118.325 121.437 118.318L121.482 118.272C121.486 118.276 121.493 118.281 121.499 118.285L121.853 118.526L121.815 118.579ZM132.966 118.267L132.933 118.21C133.075 118.128 133.207 118.053 133.329 117.984L133.362 118.042C133.24 118.11 133.108 118.188 132.966 118.267ZM121.495 117.865L121.431 117.852L121.517 117.405L121.581 117.418L121.495 117.865ZM121.669 116.971L121.605 116.958L121.692 116.511L121.756 116.524L121.669 116.971ZM121.844 116.077L121.78 116.064L121.815 115.878C121.833 115.792 121.846 115.703 121.86 115.617L121.924 115.626C121.91 115.712 121.895 115.8 121.88 115.889L121.844 116.077ZM121.975 115.174L121.91 115.17C121.919 115.039 121.924 114.907 121.924 114.776V114.718H121.988V114.778C121.988 114.907 121.983 115.042 121.975 115.174ZM121.908 114.263L121.893 113.807L121.957 113.805L121.972 114.26L121.908 114.263ZM121.877 113.353L121.862 112.898L121.926 112.895L121.941 113.351L121.877 113.353ZM121.846 112.444L121.842 112.311C121.842 112.278 121.84 112.245 121.84 112.212C121.84 112.136 121.842 112.061 121.849 111.986L121.913 111.99C121.908 112.063 121.904 112.139 121.904 112.212C121.904 112.245 121.904 112.276 121.906 112.309L121.91 112.442L121.846 112.444ZM121.977 111.543L121.913 111.532L121.997 111.085L122.061 111.096L121.977 111.543ZM122.145 110.65L122.081 110.638L122.165 110.192L122.229 110.203L122.145 110.65ZM122.315 109.753L122.251 109.742L122.335 109.295L122.399 109.307L122.315 109.753ZM122.483 108.86L122.419 108.849L122.503 108.402L122.567 108.413L122.483 108.86ZM122.645 107.963L122.58 107.955C122.6 107.802 122.616 107.652 122.622 107.505L122.687 107.508C122.68 107.656 122.664 107.809 122.645 107.963ZM122.622 107.052L122.614 106.596L122.678 106.594L122.687 107.05L122.622 107.052ZM122.605 106.14L122.6 105.868L122.636 105.682L122.7 105.693L122.667 105.873L122.673 106.138L122.605 106.14ZM122.782 105.246L122.718 105.235C122.744 105.085 122.762 104.934 122.775 104.786L122.839 104.791C122.826 104.941 122.808 105.094 122.782 105.246ZM122.791 104.335L122.782 103.879L122.846 103.877L122.855 104.333L122.791 104.335ZM122.775 103.425L122.766 102.97L122.83 102.967L122.839 103.423L122.775 103.425ZM122.757 102.516L122.749 102.06L122.813 102.058L122.821 102.514L122.757 102.516Z" fill="white"/>
<path d="M122.833 101.616L122.769 101.609L122.797 101.359L122.822 101.354C122.824 101.352 122.842 101.328 122.833 101.173L122.897 101.169C122.903 101.288 122.897 101.374 122.857 101.405L122.833 101.616Z" fill="white"/>
<path d="M122.826 101.085C122.821 101.018 122.813 100.945 122.806 100.872L122.804 100.859L122.868 100.852L122.87 100.866C122.879 100.941 122.886 101.014 122.89 101.08L122.826 101.085Z" fill="white"/>
<path opacity="0.14" d="M134.125 102.109L134.253 105.255L134.133 105.627L132.309 108.944L131.414 110.541L131.082 111.01L132.25 108.43L133.742 105.328L133.837 101.901L134.125 102.109Z" fill="#403F41"/>
<path d="M131.942 105.583L131.94 105.519C132.066 105.516 132.196 105.503 132.322 105.481L132.334 105.545C132.205 105.567 132.073 105.581 131.942 105.583ZM131.549 105.563C131.418 105.545 131.288 105.519 131.162 105.483L131.179 105.421C131.301 105.457 131.429 105.483 131.555 105.501L131.549 105.563ZM132.716 105.448L132.698 105.386C132.785 105.362 132.919 105.324 133.079 105.288L133.092 105.353C132.935 105.388 132.8 105.423 132.716 105.448ZM134.622 105.368C134.388 105.362 134.268 105.304 134.242 105.288H134.24C134.237 105.288 134.237 105.286 134.237 105.286L134.242 105.277L134.246 105.258L134.259 105.227L134.271 105.231C134.271 105.231 134.381 105.297 134.624 105.304L134.622 105.368ZM130.795 105.342C130.622 105.262 130.507 105.182 130.452 105.142L130.489 105.089C130.543 105.127 130.655 105.202 130.821 105.282L130.795 105.342ZM135.018 105.337L135.007 105.273C135.124 105.253 135.25 105.222 135.381 105.182L135.4 105.244C135.266 105.284 135.137 105.315 135.018 105.337ZM133.474 105.286L133.466 105.222C133.605 105.204 133.738 105.193 133.859 105.191V105.255C133.74 105.258 133.609 105.269 133.474 105.286ZM130.151 104.904C130.049 104.846 129.932 104.797 129.8 104.757L129.817 104.696C129.954 104.735 130.078 104.786 130.184 104.848L130.151 104.904ZM127.011 104.837C126.916 104.837 126.815 104.833 126.711 104.824L126.717 104.76C126.852 104.771 126.98 104.775 127.102 104.771L127.104 104.835C127.073 104.837 127.042 104.837 127.011 104.837ZM127.496 104.795L127.485 104.731L127.491 104.729C127.493 104.729 127.641 104.696 127.869 104.66L127.878 104.724C127.653 104.757 127.507 104.791 127.504 104.791L127.496 104.795ZM126.319 104.773C126.195 104.751 126.065 104.724 125.934 104.693L125.95 104.629C126.078 104.66 126.206 104.687 126.33 104.709L126.319 104.773ZM129.421 104.68C129.302 104.665 129.172 104.653 129.037 104.649L129.039 104.585C129.176 104.589 129.309 104.6 129.43 104.618L129.421 104.68ZM128.263 104.676L128.256 104.611C128.389 104.598 128.522 104.589 128.648 104.585L128.65 104.649C128.526 104.653 128.395 104.665 128.263 104.676ZM125.559 104.589C125.433 104.552 125.307 104.51 125.187 104.465L125.209 104.403C125.329 104.448 125.452 104.49 125.576 104.527L125.559 104.589ZM124.851 104.255C124.754 104.169 124.65 104.094 124.544 104.027L124.577 103.972C124.687 104.041 124.794 104.118 124.893 104.207L124.851 104.255ZM122.31 103.87L122.291 103.808C122.417 103.768 122.545 103.735 122.671 103.709L122.684 103.773C122.56 103.797 122.434 103.83 122.31 103.87ZM124.201 103.857C124.084 103.81 123.96 103.775 123.832 103.751L123.845 103.687C123.975 103.713 124.104 103.751 124.223 103.797L124.201 103.857ZM123.064 103.715L123.058 103.651C123.19 103.64 123.321 103.636 123.451 103.64L123.449 103.704C123.323 103.7 123.195 103.702 123.064 103.715Z" fill="white"/>
<path opacity="0.04" d="M133.742 105.328L130.826 109.751L131.038 105.574L131.182 103.514L131.272 102.191L131.277 102.142C131.365 102.186 131.456 102.237 131.551 102.29C131.553 102.29 131.555 102.293 131.558 102.293C131.56 102.293 131.562 102.295 131.566 102.295C131.65 102.313 132.157 102.408 132.276 102.273L132.27 102.372C132.486 102.361 132.811 102.326 133.273 102.229L133.742 105.328Z" fill="#403F41"/>
<path d="M127.445 94.0596C127.516 93.1149 128.084 92.221 128.935 91.7984C129.344 91.5948 129.842 91.4775 130.399 91.6059C130.399 91.6059 131.852 91.8271 132.276 93.168C132.276 93.168 132.659 94.2521 131.894 95.8231C131.894 95.8231 131.602 96.5267 131.973 97.113C131.973 97.113 132.522 97.9139 132.051 99.6176L126.981 100.129C126.981 100.129 125.813 100.299 126.174 98.3985C126.174 98.3985 126.556 97.8719 126.191 97.4825C126.191 97.4825 125.594 96.7214 126.496 95.8031C126.496 95.8031 127.452 94.9624 127.438 94.1481C127.441 94.1503 127.441 94.1172 127.445 94.0596Z" fill="black"/>
<path d="M128.71 96.6948L128.971 96.9205L128.511 97.9737L128.294 97.2612L128.513 96.8032L128.71 96.6948Z" fill="#0C1C2B"/>
<path d="M130.799 96.7435C130.799 96.7435 130.527 96.4935 130.317 96.5599L130.496 97.7259L130.897 96.9758L130.799 96.7435Z" fill="#0C1C2B"/>
<path d="M124.573 101.722C124.573 101.722 124.575 102.543 126.824 102.359L126.569 101.531L125.948 101.162L125.192 101.33L124.69 101.43L124.573 101.722Z" fill="#203A55"/>
<path d="M134.284 101.728C134.284 101.728 134.103 102.304 132.239 102.507L132.65 101.85L133.455 101.35L134.039 101.335L134.255 101.569L134.284 101.728Z" fill="#203A55"/>
<path d="M131.073 107.309C131.071 107.342 131.047 107.375 131.012 107.384C130.998 107.386 130.987 107.388 130.974 107.388C130.91 107.388 130.855 107.351 130.832 107.289L130.691 106.888L130.373 106.419L130.377 106.519L130.662 106.99L130.852 107.567L130.905 107.729C130.921 107.778 130.886 107.833 130.835 107.84L130.804 107.844C130.801 107.844 130.801 107.844 130.799 107.844C130.744 107.848 130.695 107.82 130.675 107.769L130.408 107.118L130.034 106.674L130.37 107.198L130.58 107.729L130.64 107.882C130.649 107.902 130.644 107.928 130.631 107.946C130.605 107.983 130.58 108.006 130.556 108.021C130.479 108.07 130.419 108.019 130.419 108.019C130.251 107.946 130.061 107.329 130.061 107.329L129.802 106.935L129.627 106.784L129.879 107.255L129.986 107.55L130.019 107.645C130.032 107.683 130.012 107.727 129.972 107.74C129.95 107.747 129.928 107.747 129.906 107.742C129.851 107.731 129.804 107.687 129.784 107.663C129.776 107.654 129.769 107.643 129.764 107.629C129.521 107.072 129.34 106.908 129.34 106.908C129.002 106.618 128.807 106.081 128.807 106.081C128.666 105.742 128.168 105.673 128.168 105.673L125.221 104.702C124.838 104.611 124.818 104.372 124.834 104.257C124.84 104.207 124.845 104.153 124.845 104.103C124.836 103.295 125.172 101.463 125.172 101.463L126.565 101.534L126.09 103.534C126.545 103.959 128.462 104.669 128.933 104.839C129.004 104.864 129.066 104.904 129.121 104.952L129.179 105.003C129.221 105.041 129.269 105.074 129.322 105.098L129.813 105.324C129.873 105.35 129.928 105.388 129.979 105.43L130.395 105.784C130.437 105.82 130.472 105.864 130.496 105.915L130.897 106.727C130.901 106.733 130.903 106.74 130.905 106.747L131.016 107.109L131.069 107.282C131.073 107.291 131.076 107.3 131.073 107.309Z" fill="#FFC0AF"/>
<path d="M129.979 107.736C129.957 107.742 129.935 107.742 129.913 107.738L129.853 107.636L129.992 107.548L130.025 107.643C130.039 107.676 130.019 107.722 129.979 107.736Z" fill="white"/>
<path d="M130.635 107.941C130.609 107.979 130.585 108.001 130.56 108.017C130.459 107.961 130.445 107.835 130.445 107.835L130.585 107.725L130.644 107.877C130.651 107.897 130.649 107.921 130.635 107.941Z" fill="white"/>
<path d="M130.837 107.835L130.806 107.84C130.804 107.84 130.804 107.84 130.801 107.84L130.717 107.667L130.854 107.563L130.907 107.725C130.925 107.773 130.89 107.829 130.837 107.835Z" fill="white"/>
<path d="M131.073 107.309C131.071 107.342 131.047 107.375 131.011 107.384C130.998 107.386 130.987 107.388 130.974 107.388L130.91 107.22L131.018 107.112L131.071 107.284C131.073 107.291 131.076 107.3 131.073 107.309Z" fill="white"/>
<path d="M131.148 110.643L131.177 110.63L131.011 110.922L131.148 110.643Z" fill="#FFE0AE"/>
<path d="M134.158 105.149C134.165 105.304 134.127 105.461 134.05 105.603L132.173 109.099L131.627 110.178L131.518 110.382C131.516 110.386 131.512 110.393 131.509 110.397L131.414 110.539L131.134 111.079C131.127 111.094 131.116 111.108 131.105 111.119L130.963 111.256L130.899 111.318C130.893 111.324 130.886 111.327 130.877 111.327C130.859 111.327 130.844 111.32 130.833 111.309C130.824 111.3 130.813 111.265 130.811 111.249C130.811 111.247 130.811 111.243 130.811 111.24L130.966 111.043L131.18 110.625L131.014 110.917L130.926 111.074L130.851 111.172L130.508 111.524L130.393 111.599C130.346 111.63 130.289 111.61 130.273 111.559L130.271 111.552L130.267 111.535C130.247 111.468 130.269 111.393 130.322 111.342L130.548 111.101L130.775 110.718L130.444 111.152L130.127 111.373L130.03 111.439C129.97 111.481 129.898 111.459 129.871 111.402C129.867 111.393 129.864 111.384 129.862 111.373C129.86 111.364 129.86 111.353 129.86 111.342C129.862 111.304 129.878 111.269 129.904 111.24L130.293 110.908L130.545 110.439L130.167 110.858L129.86 111.174L129.82 111.189L129.802 111.196L129.743 111.22C129.694 111.238 129.645 111.209 129.639 111.161C129.639 111.156 129.637 111.15 129.639 111.143L129.641 111.121C129.645 111.041 129.683 110.964 129.745 110.911L129.776 110.884L130.28 110.271L130.501 109.782L130.508 109.656L129.858 110.052C129.785 110.096 129.696 110.094 129.634 110.046L129.59 110.012C129.588 110.012 129.588 110.01 129.586 110.008C129.542 109.968 129.555 109.888 129.614 109.862C129.668 109.835 129.732 109.804 129.8 109.767C129.953 109.68 130.123 109.568 130.214 109.448C130.214 109.448 130.495 109.183 130.689 109.028C130.689 109.028 130.972 108.798 131.193 108.72C131.282 108.689 131.355 108.621 131.392 108.534L132.883 105.123L132.626 101.591L134.028 101.62L134.158 105.149Z" fill="#FFC0AF"/>
<path d="M129.793 109.778L129.784 109.944L129.581 110.019C129.537 109.979 129.55 109.899 129.61 109.873C129.66 109.849 129.725 109.815 129.793 109.778Z" fill="white"/>
<path d="M129.8 111.207L129.74 111.231C129.692 111.249 129.643 111.22 129.636 111.172L129.745 111.119L129.8 111.207Z" fill="white"/>
<path d="M130.125 111.382L130.027 111.448C129.968 111.49 129.895 111.468 129.868 111.411L130.016 111.309C130.052 111.309 130.094 111.349 130.125 111.382Z" fill="white"/>
<path d="M130.503 111.528L130.388 111.603C130.341 111.634 130.284 111.614 130.268 111.563L130.266 111.557L130.372 111.457L130.503 111.528Z" fill="white"/>
<path d="M130.961 111.258L130.897 111.321C130.89 111.327 130.884 111.329 130.875 111.329C130.857 111.329 130.841 111.323 130.83 111.312L130.888 111.24L130.961 111.258Z" fill="white"/>
<path d="M134.284 101.728C134.284 101.728 134.18 101.636 133.948 101.629C133.895 101.627 133.835 101.631 133.766 101.64C133.459 101.684 133.004 101.868 132.369 102.394C132.325 102.43 132.283 102.467 132.236 102.507L132.048 102.509L131.113 102.521L126.821 102.359L130.412 98.841L130.941 97.9383L131.29 97.3387C131.29 97.3387 131.334 97.352 131.407 97.3741C131.635 97.4427 132.152 97.5931 132.555 97.675C132.555 97.675 133.267 97.748 133.525 98.7127C133.525 98.7127 133.594 98.9738 133.691 99.3433C133.733 99.5026 133.78 99.6818 133.828 99.8677C134.043 100.689 134.288 101.658 134.284 101.728Z" fill="url(#paint5_linear_938_3)"/>
<path opacity="0.28" d="M132.237 102.505L132.049 102.507C132.049 102.507 132.277 101.456 132.268 100.686C132.31 101.31 132.319 101.976 132.237 102.505Z" fill="#629282"/>
<path d="M129.601 99.5092L126.826 102.359C126.379 101.793 125.648 101.68 125.139 101.678C125.084 101.678 125.028 101.678 124.98 101.682C124.737 101.691 124.575 101.724 124.575 101.724L125.289 99.9539C125.813 98.3719 126.315 98.2104 126.315 98.2104L128.122 97.4227L129.601 99.5092Z" fill="url(#paint6_linear_938_3)"/>
<path opacity="0.1" d="M127.014 99.7017C126.89 100.208 126.751 100.64 126.826 102.357L128.515 102.552C128.515 102.552 126.981 102.512 127.129 99.7106C127.131 99.6398 127.032 99.6309 127.014 99.7017Z" fill="#2A3C36"/>
<path opacity="0.1" d="M132.237 102.505L132.049 102.507L131.113 102.518C131.113 102.518 132.066 101.815 132.055 99.2238C132.055 99.1884 132.106 99.1773 132.111 99.2127C132.15 99.4871 132.197 99.8654 132.234 100.29C132.245 100.419 132.256 100.551 132.265 100.686C132.31 101.31 132.318 101.976 132.237 102.505Z" fill="#2A3C36"/>
<path opacity="0.1" d="M132.409 99.5136L132.298 101.379L132.553 99.5092L132.409 99.5136Z" fill="#2A3C36"/>
<path opacity="0.1" d="M125.397 100.629L125.139 101.675C125.083 101.675 125.028 101.675 124.979 101.68L125.397 100.629Z" fill="#2A3C36"/>
<path opacity="0.1" d="M130.812 98.4759L130.943 97.936L131.292 97.3364C131.292 97.3364 131.337 97.3497 131.41 97.3718C131.41 97.3718 131.425 97.7214 130.812 98.4759Z" fill="#2A3C36"/>
<path d="M130.702 97.5998L129.413 99.7194L129.052 98.8477L128.595 97.7458L128.61 97.5577L128.78 95.3474L130.598 96.2766L130.571 96.9293V96.9647L130.549 97.5245L130.702 97.5998Z" fill="#FFC0AF"/>
<path d="M130.596 96.9515L130.569 96.9647L129.977 97.2834C129.694 97.436 129.475 97.6905 129.362 97.9958L129.05 98.8477L128.652 97.6418L128.606 97.5577L128.776 95.3474L130.569 96.9293L130.596 96.9515Z" fill="#EEB3A3"/>
<path d="M128.975 93.9512C128.975 93.9512 129.712 94.2101 130.976 93.0042C130.976 93.0042 131.242 93.4158 131.54 93.606C131.54 93.606 131.795 96.5842 130.309 96.9603C130.309 96.9603 128.799 97.0798 128.781 95.3495C128.781 95.3495 128.319 95.2301 128.469 94.8407C128.469 94.8407 128.489 94.4955 128.792 94.5796L128.975 93.9512Z" fill="#FFC0AF"/>
<path d="M128.71 96.6948C128.71 96.6948 128.345 96.8077 128.657 97.6418C128.657 97.6418 129.134 98.934 129.499 99.1707L129.415 99.7172L128.966 99.9363C128.966 99.9363 127.949 98.5423 128.064 97.5533C128.062 97.5555 128.367 96.7457 128.71 96.6948Z" fill="#203A55"/>
<path d="M130.8 96.7435C130.8 96.7435 131.065 97.7148 126.826 102.359L127.695 102.565L127.972 102.142C127.972 102.142 131.193 98.5733 131.293 97.3387L130.8 96.7435Z" fill="#001E3D"/>
<path d="M132.272 102.27L132.19 103.693L131.177 103.512L126.744 102.72L126.777 102.503L126.804 102.328V101.715C126.804 101.715 127.164 101.97 128.175 101.897H128.177C128.349 101.883 128.542 101.863 128.752 101.828C128.96 101.795 129.19 101.748 129.44 101.689C129.643 101.64 129.849 101.633 130.045 101.675C130.11 101.689 130.18 101.706 130.26 101.728C130.519 101.799 130.861 101.925 131.275 102.136C131.292 102.144 131.308 102.153 131.326 102.162C131.399 102.2 131.472 102.242 131.549 102.284C131.549 102.284 131.551 102.284 131.551 102.286H131.553C131.556 102.286 131.558 102.288 131.562 102.288C131.646 102.31 132.153 102.405 132.272 102.27Z" fill="#DCDBDE"/>
<path opacity="0.14" d="M127.48 101.899L127.6 102.877L126.744 102.724L126.463 103.784L126.092 103.532L126.366 102.383L126.802 102.359V101.72L127.113 101.844C127.129 101.85 127.144 101.855 127.16 101.857L127.48 101.899Z" fill="#403F41"/>
<path opacity="0.04" d="M129.44 101.693L129.207 103.162L127.485 114.002L128.237 102.987L128.312 101.89L129.44 101.693Z" fill="#403F41"/>
<path d="M128.133 104.532L128.964 104.846L128.794 106.034C128.794 106.034 128.703 105.866 128.436 105.744L128.004 105.612L128.133 104.532Z" fill="#FFC0AF"/>
<path opacity="0.04" d="M132.272 102.271L132.19 103.693L131.177 103.512L131.323 102.167C131.396 102.204 131.469 102.246 131.547 102.288C131.547 102.288 131.549 102.288 131.549 102.29H131.551C131.553 102.29 131.555 102.293 131.56 102.293C131.646 102.31 132.152 102.406 132.272 102.271Z" fill="#403F41"/>
<path d="M109.8 54.8284C109.8 54.8284 109.605 59.1163 110.547 62.7826C110.547 62.7826 110.892 64.2451 110.998 65.285C111.098 66.2785 111.281 67.2608 111.569 68.2167C112.073 69.896 112.862 72.1064 113.725 72.9649C113.725 72.9649 117.083 76.2683 117.503 77.0316C117.503 77.0316 118.213 78.8238 120.356 79.1513C120.356 79.1513 122.41 79.2088 123.872 77.6312C123.872 77.6312 129.298 73.4915 129.422 71.3386C129.422 71.3386 129.965 65.6678 128.904 62.579L126.757 52.9432C126.757 52.9432 124.298 48.5999 124.135 48.5424C123.971 48.4871 120.973 48.2614 120.511 48.2614C120.048 48.2614 112.528 51.5183 112.528 51.5183L109.8 54.8284Z" fill="#FFC0AF"/>
<path d="M110.466 62.4462C110.466 62.4462 107.731 56.7931 108.221 54.9965C108.221 54.9965 107.187 52.806 107.786 51.0669C107.786 51.0669 108.44 49.0446 109.256 48.653L111.164 47.1927L114.165 44.9912C114.857 44.4823 115.671 44.1637 116.526 44.073C119.091 43.7986 124.484 43.7101 126.207 47.4715L127.405 47.5644C127.405 47.5644 130.076 47.7658 130.24 56.771L128.904 62.5768L128.146 61.9572C127.898 61.7559 127.739 61.4616 127.706 61.1364C127.602 60.1606 127.133 57.9547 125.011 56.771V54.3039C125.011 53.7795 124.794 53.2817 124.414 52.9343L122.322 51.0116C122.322 51.0116 113.948 54.4367 109.807 54.8305C109.8 54.8283 110.382 62.1121 110.466 62.4462Z" fill="black"/>
<path d="M121.254 67.4599L118.7 69.2012L116.122 68.4158L116.529 65.8337C117.208 62.6896 116.122 62.2958 116.122 62.2958C116.122 62.2958 113.581 60.8576 110.466 62.4484L111.437 63.0613C111.437 63.0613 114.616 61.694 115.861 63.0613C115.861 63.0613 116.695 63.5923 116.288 65.8049L115.861 68.5839L118.702 69.4535L121.254 67.4599Z" fill="#D97F6B"/>
<path d="M126.903 60.5883C126.839 61.4025 126.939 62.2189 127.195 62.9911L127.688 64.4669L127.934 65.2015C128.548 65.9759 129.256 65.3387 129.256 65.3387C129.395 65.0533 130.143 64.4824 130.536 64.197C130.585 64.1616 130.631 64.124 130.678 64.0841C130.819 63.9647 130.945 63.8297 131.056 63.6792C131.191 63.4956 131.308 63.3075 131.412 63.1172C131.807 62.3871 131.995 61.6304 132.077 61.0042C132.186 60.19 132.121 59.6037 132.121 59.6037C131.995 56.9331 130.043 56.6233 130.043 56.6233C129.03 56.3467 128.354 56.6145 127.903 57.0747C127.328 57.6588 127.199 58.6633 127.173 59.1921C127.16 59.4643 127.12 59.732 127.054 59.9953L126.903 60.5883Z" fill="#FFC0AF"/>
<path d="M127.668 63.0348C127.763 63.3225 127.903 63.4132 128.035 63.4198C128.219 63.4309 128.387 63.2804 128.387 63.2804C128.467 62.995 128.641 62.7804 128.811 62.6299C128.993 62.4706 129.216 62.3733 129.453 62.3334C129.607 62.3069 129.745 62.2516 129.86 62.1852C130.05 62.0768 130.182 61.9418 130.249 61.8644C130.28 61.8268 130.297 61.8046 130.297 61.8046C130.678 61.0966 130.368 60.7293 130.368 60.7293C130.032 60.1828 128.606 59.9483 128.057 59.8775C128.055 59.8775 128.055 59.8775 128.053 59.8775C127.938 59.862 127.832 59.9483 127.819 60.0678L127.653 61.5148L127.62 61.8046L127.615 61.8467L127.653 61.9396L127.874 62.4817L127.668 63.0348Z" fill="#F0AFA1"/>
<path opacity="0.27" d="M130.479 61.2714C130.479 61.2714 130.956 59.5699 129.121 60.0766L130.479 61.2714Z" fill="#E98773"/>
<path d="M128.117 59.8886C128.135 59.9306 128.15 59.9727 128.166 60.0103V60.0125C128.309 60.3709 128.373 60.5391 128.378 60.5524C128.349 60.4528 128.338 60.3709 128.338 60.3001C128.338 60.2824 128.338 60.2647 128.34 60.247C128.349 60.1231 128.38 60.0236 128.376 59.8864C128.338 59.1053 128.725 58.769 129.156 58.6341C129.242 58.6075 129.329 58.5876 129.415 58.5743C130.116 58.4681 130.77 59.4151 130.77 59.4151C130.934 59.9572 131.044 60.6298 131.095 60.975C131.131 61.2206 131.115 61.4706 131.042 61.7073C130.85 62.3224 130.392 62.5238 130.156 62.5879C130.027 62.6233 129.93 62.734 129.921 62.8711C129.912 62.9906 129.972 63.0592 130.047 63.0968C130.18 63.1654 130.344 63.1322 130.445 63.0194C130.456 63.0061 130.467 62.9951 130.478 62.9818C130.498 62.9597 130.516 62.9375 130.534 62.9176C130.609 62.8291 130.677 62.7428 130.737 62.6565C130.737 62.6565 130.737 62.6543 130.739 62.6543C131.051 62.2206 131.204 61.8157 131.279 61.4993C131.303 61.3954 131.319 61.3024 131.327 61.2206C131.336 61.1475 131.341 61.0834 131.343 61.0281C131.343 61.017 131.343 61.0059 131.343 60.9971C131.343 60.9905 131.343 60.9816 131.343 60.975C131.343 60.9661 131.343 60.9573 131.343 60.9484C131.343 60.9374 131.343 60.9285 131.343 60.9197C131.341 60.8378 131.343 60.7559 131.347 60.6741C131.363 60.32 131.319 59.9461 131.248 59.601C131.246 59.5899 131.243 59.5788 131.241 59.5678C131.239 59.5567 131.237 59.5456 131.235 59.5346C131.232 59.5235 131.23 59.5124 131.228 59.5014C131.226 59.4881 131.221 59.4748 131.219 59.4616C131.217 59.4483 131.213 59.4328 131.21 59.4195C131.208 59.4062 131.204 59.393 131.201 59.3797C131.179 59.289 131.157 59.2027 131.133 59.1186C131.131 59.1098 131.128 59.0987 131.124 59.0898C131.12 59.0744 131.115 59.0611 131.111 59.0456C131.089 58.9704 131.067 58.8974 131.044 58.831C131.042 58.8221 131.04 58.8133 131.036 58.8066C131.031 58.7889 131.025 58.7734 131.02 58.758C131.016 58.7447 131.011 58.7336 131.007 58.7203C131.007 58.7159 131.005 58.7137 131.002 58.7093C131 58.7004 130.996 58.6894 130.994 58.6805C130.991 58.6717 130.987 58.6606 130.985 58.6518C130.978 58.6341 130.971 58.6141 130.965 58.5964C130.958 58.5787 130.954 58.5633 130.947 58.5478C130.941 58.5301 130.934 58.5146 130.929 58.4969C130.81 58.1761 130.596 57.8995 130.31 57.7203C129.594 57.2689 128.767 57.5941 128.471 57.738C128.444 57.7512 128.418 57.7645 128.391 57.78C128.373 57.7911 128.356 57.8021 128.34 57.8132C128.327 57.822 128.316 57.8309 128.303 57.8397C128.303 57.8397 128.303 57.8397 128.3 57.8397C128.276 57.8574 128.254 57.8774 128.234 57.8973C128.214 57.9172 128.194 57.9349 128.177 57.957C128.073 58.0721 128 58.2004 127.953 58.3376C127.783 58.8288 127.929 59.4217 128.117 59.8886Z" fill="#E98773"/>
<path opacity="0.69" d="M127.688 64.4664L127.869 65.0084C127.94 65.2231 128.088 65.4023 128.285 65.5019C128.548 65.6346 128.8 65.5859 128.982 65.5085C129.116 65.451 129.234 65.3536 129.322 65.2363C129.554 64.9332 130.184 64.4531 130.536 64.1964C130.585 64.161 130.631 64.1234 130.677 64.0836C130.819 63.9641 130.945 63.8291 131.056 63.6787C131.19 63.495 131.308 63.307 131.412 63.1167C131.807 62.3865 131.995 61.6298 132.077 61.0037L131.936 60.913C131.936 60.913 131.936 60.9152 131.936 60.9174C131.936 60.9196 131.936 60.9218 131.936 60.924C131.936 60.9329 131.933 60.9484 131.931 60.9683C131.931 60.9727 131.931 60.9771 131.929 60.9793C131.883 61.3842 131.557 63.4862 129.85 64.2208C129.651 64.3071 129.475 64.4398 129.342 64.6146C129.329 64.6301 129.318 64.6478 129.304 64.6655C128.964 65.1456 128.276 65.1832 127.889 64.7429C127.823 64.6633 127.754 64.5726 127.688 64.4664Z" fill="#F0AFA1"/>
<path d="M128.559 62.953C128.568 62.9441 128.572 62.9375 128.572 62.9375C128.862 62.6122 129.329 62.5857 129.329 62.5857C129.572 62.5923 129.693 62.2826 129.859 62.1896C129.194 62.3135 128.462 61.6276 128.462 61.6276C128.34 61.3776 128.053 61.3754 128.053 61.3754C127.821 61.3511 127.703 61.4197 127.65 61.5192C127.599 61.6077 127.604 61.7228 127.617 61.8091C127.628 61.8843 127.648 61.9396 127.65 61.944L127.871 62.4861L127.721 62.891C127.832 63.7274 128.46 63.0636 128.559 62.953Z" fill="#E98773"/>
<path d="M128.013 59.5987C128.044 59.6983 128.08 59.7956 128.117 59.8885C128.21 59.8908 128.296 59.8908 128.376 59.8863C129.725 59.8266 129.338 58.9239 129.338 58.9239C129.285 58.8088 129.225 58.7137 129.157 58.634C128.796 58.2092 128.263 58.2623 127.951 58.342C127.92 58.4305 127.901 58.5212 127.89 58.6141C127.852 58.9371 127.914 59.2823 128.013 59.5987Z" fill="#D97F6B"/>
<path d="M128.013 59.5987C128.25 59.674 128.433 59.7005 128.575 59.6939C129.161 59.6673 129.01 59.0722 129.01 59.0722C128.873 58.5079 128.212 58.5544 127.889 58.6141C127.876 58.7181 127.874 58.8266 127.881 58.9328C127.896 59.1584 127.947 59.3863 128.013 59.5987Z" fill="#BF5E55"/>
<path d="M127.876 63.2671C127.956 63.3003 128.049 63.307 128.131 63.2782C128.206 63.2539 128.274 63.2052 128.323 63.1277C128.69 62.5613 128.206 61.8843 128.206 61.8843C127.996 61.559 127.794 61.6608 127.688 61.7604C127.637 61.8068 127.622 61.8798 127.649 61.944C127.684 62.0325 127.713 62.1254 127.73 62.2184C127.77 62.4241 127.768 62.6365 127.721 62.8401C127.721 62.8622 127.686 63.1543 127.876 63.2671Z" fill="#A5514A"/>
<path d="M130.37 58.9681C130.37 58.9681 130.786 59.2204 130.979 60.278L130.89 59.3244L130.355 58.6163L130.37 58.9681Z" fill="#E98773"/>
<path d="M128.117 59.8885C128.128 59.924 128.139 59.9638 128.153 60.008C128.157 60.0191 128.159 60.0324 128.164 60.0434C128.17 60.0633 128.177 60.0855 128.184 60.1054C128.287 60.4306 128.478 60.8599 128.836 60.8223C128.836 60.8223 128.975 60.7891 129.165 60.778C129.632 60.7515 130.412 60.851 130.249 61.8666C130.28 61.829 130.297 61.8069 130.297 61.8069C130.41 61.5989 130.461 61.4197 130.479 61.2714C130.521 60.9152 130.366 60.7338 130.366 60.7338C130.03 60.185 128.663 59.9594 128.117 59.8885Z" fill="#BF5E55"/>
<path d="M128.117 59.8885C128.135 59.9483 128.155 60.0235 128.181 60.1076C128.612 60.1209 130.461 60.2381 130.476 61.2714C130.518 60.9152 130.364 60.7338 130.364 60.7338C130.03 60.185 128.663 59.9594 128.117 59.8885Z" fill="#E98773"/>
<path d="M128.164 60.0456C128.17 60.0656 128.177 60.0877 128.183 60.1076C128.287 60.4328 128.478 60.8621 128.836 60.8245C128.836 60.8245 128.975 60.7913 129.167 60.7802C128.942 60.5656 129.052 60.2005 129.052 60.2005L128.232 60.0302L128.164 60.0456Z" fill="#B2584F"/>
<path opacity="0.63" d="M127.883 58.935C127.883 58.935 128.884 59.0677 128.573 59.6939H128.575C129.161 59.6673 129.01 59.0722 129.01 59.0722C128.873 58.5079 128.212 58.5544 127.889 58.6141C127.878 58.7203 127.876 58.8266 127.883 58.935Z" fill="#B2584F"/>
<path d="M131.962 59.6341C131.962 59.6341 132.006 60.174 131.935 60.913C131.935 60.913 131.935 60.9152 131.935 60.9174C131.935 60.9196 131.935 60.9218 131.935 60.924C131.933 60.9395 131.933 60.9528 131.931 60.9683C131.931 60.9727 131.931 60.9771 131.929 60.9794C131.851 61.7051 131.661 62.6078 131.212 63.3756L131.411 63.1145C131.807 62.3843 131.995 61.6276 132.077 61.0015C132.185 60.1872 132.121 59.6009 132.121 59.6009C131.995 56.9303 130.043 56.6206 130.043 56.6206C129.03 56.344 128.353 56.6117 127.902 57.0719C127.9 57.0697 131.628 55.7643 131.962 59.6341Z" fill="#FFD3C8"/>
<path opacity="0.44" d="M131.142 59.7293C131.182 59.8753 131.239 60.1253 131.264 60.4417C131.312 61.1099 131.208 62.0768 130.476 62.9862C130.496 62.964 130.514 62.9419 130.532 62.922C130.607 62.8335 130.675 62.745 130.737 62.6587C131.049 62.225 131.202 61.8201 131.277 61.5037C131.301 61.3998 131.317 61.3068 131.326 61.2227C131.341 61.0944 131.343 60.9904 131.341 60.9218C131.339 60.84 131.341 60.7581 131.345 60.6762C131.379 59.9726 131.166 59.196 131.003 58.7115C130.976 58.634 130.952 58.5632 130.928 58.5013C130.808 58.1804 130.594 57.9039 130.308 57.7247C129.592 57.2733 128.765 57.5985 128.469 57.7424C128.383 57.7844 128.303 57.8375 128.234 57.9039C128.234 57.9039 128.312 57.8906 128.442 57.8818C129.002 57.8441 130.532 57.9017 131.089 59.5545C131.091 59.5655 131.096 59.5766 131.098 59.5899C131.098 59.5899 131.109 59.6186 131.124 59.6695C131.129 59.6806 131.131 59.6939 131.135 59.7049C131.138 59.7116 131.14 59.7204 131.142 59.7293Z" fill="#BF5E55"/>
<path d="M128.152 60.0081C128.157 60.0191 128.159 60.0324 128.163 60.0435C128.17 60.0634 128.177 60.0855 128.183 60.1054C128.23 60.2492 128.294 60.4152 128.38 60.5501C128.471 60.6917 128.59 60.8024 128.743 60.8201C128.771 60.8245 128.802 60.8245 128.833 60.8201C128.833 60.8201 128.973 60.7869 129.163 60.7758C129.145 60.7736 128.712 60.6962 128.438 60.4174C128.402 60.382 128.369 60.3422 128.34 60.2979C128.289 60.2205 128.25 60.1297 128.23 60.028L128.168 60.0103L128.152 60.0081Z" fill="#A6524A"/>
<path d="M128.13 63.2805C128.206 63.2561 128.274 63.2074 128.323 63.13C128.61 62.6831 128.374 62.1697 128.259 61.9706C128.217 61.8998 128.142 61.8511 128.062 61.8533C127.993 61.8556 127.929 61.8887 127.945 62.0237C127.951 62.0746 127.956 62.1255 127.956 62.1764C127.958 62.4242 127.976 63.1035 128.13 63.2805Z" fill="#8F4640"/>
<path d="M127.617 61.8091C128.013 61.3334 128.298 61.7294 128.298 61.7294C129.068 62.5569 129.859 62.1896 129.859 62.1896C129.194 62.3135 128.462 61.6276 128.462 61.6276C128.34 61.3776 128.053 61.3754 128.053 61.3754C127.821 61.3511 127.703 61.4197 127.65 61.5192C127.599 61.6077 127.602 61.7206 127.617 61.8091Z" fill="#ED9D8C"/>
<path d="M128.254 63.0835C128.294 63.1101 128.345 63.0946 128.367 63.0525C128.584 62.6255 128.367 62.1586 128.259 61.9706C128.259 61.9706 128.095 61.8976 128.104 62.079L128.195 62.9817C128.199 63.0238 128.221 63.0614 128.254 63.0835Z" fill="#8F4640"/>
<path d="M127.954 58.342C128 58.2048 128.073 58.0765 128.177 57.9614C128.195 57.9415 128.215 57.9216 128.234 57.9017C128.257 57.8818 128.279 57.8618 128.301 57.8441C128.301 57.8441 128.301 57.8441 128.303 57.8441C128.316 57.8353 128.327 57.8264 128.341 57.8176C128.358 57.8065 128.374 57.7955 128.391 57.7844C128.418 57.7689 128.442 57.7556 128.471 57.7424C128.767 57.5985 129.597 57.2755 130.311 57.7247C130.596 57.9039 130.81 58.1805 130.93 58.5013C130.936 58.5168 130.941 58.5345 130.948 58.5522C130.954 58.5677 130.959 58.5854 130.965 58.6008C130.972 58.6185 130.978 58.6362 130.985 58.6562C130.987 58.665 130.992 58.6739 130.994 58.6849C130.996 58.6938 131.001 58.7048 131.003 58.7137C131.003 58.7181 131.005 58.7203 131.007 58.7248C131.012 58.738 131.016 58.7491 131.02 58.7624C131.025 58.7779 131.032 58.7956 131.036 58.811C131.038 58.8199 131.04 58.8287 131.045 58.8354C131.067 58.904 131.089 58.9748 131.111 59.05C131.116 59.0655 131.12 59.0788 131.124 59.0943C131.127 59.1031 131.129 59.1142 131.133 59.123C131.158 59.2071 131.18 59.2934 131.202 59.3841C131.204 59.3974 131.208 59.4107 131.211 59.4239C131.215 59.4372 131.217 59.4527 131.219 59.466C131.222 59.4792 131.226 59.4925 131.228 59.5058C131.231 59.5169 131.233 59.5279 131.235 59.539C131.237 59.55 131.239 59.5611 131.242 59.5722C131.244 59.5832 131.246 59.5943 131.248 59.6054C131.319 59.9505 131.363 60.3222 131.348 60.6785C131.343 60.7603 131.341 60.8422 131.343 60.9241C131.343 60.9329 131.343 60.9418 131.343 60.9528C131.343 60.9617 131.343 60.9705 131.343 60.9794C131.343 60.986 131.343 60.9926 131.343 61.0015C131.343 61.0126 131.343 61.0214 131.343 61.0325C131.341 61.0878 131.337 61.152 131.328 61.225C131.31 61.3201 131.295 61.413 131.279 61.5038C131.206 61.8224 131.051 62.2251 130.74 62.6587C131.43 61.6564 131.264 60.4417 131.264 60.4417C131.142 58.1451 130.236 57.7424 130.236 57.7424C129.375 57.4038 128.774 57.6229 128.44 57.8618C128.418 57.8641 128.409 57.8862 128.4 57.8862C128.4 57.8862 127.644 58.3575 128.232 60.0324L128.17 60.0125C128.155 59.9749 128.139 59.9328 128.122 59.8908C127.929 59.4217 127.783 58.8287 127.954 58.342Z" fill="#D97F6B"/>
<path d="M147.458 83.3397C147.458 83.3397 137.851 95.739 139.684 108.036C139.684 108.036 141.49 113.51 142.05 117.259V118.256L145.576 115.294C145.576 115.294 146.22 102.423 146.388 100.795C146.556 99.164 147.898 86.663 147.898 86.663L147.458 83.3397Z" fill="#DFDFDF"/>
<path d="M153.924 132.083L151.741 132.39L150.448 132.572L146.594 133.114C146.154 133.176 145.709 133.207 145.265 133.207H138.932C137.842 133.207 136.763 133.01 135.741 132.625L133.908 131.935L128.975 130.492C128.511 130.357 128.038 130.26 127.558 130.209L120.358 129.412V118.984L132.066 118.489C132.526 118.469 132.986 118.495 133.442 118.568C134.439 118.728 136.248 118.978 136.559 118.781C136.723 118.677 137.05 118.65 137.395 118.657C137.437 118.657 137.479 118.657 137.524 118.657C138.35 118.657 139.164 118.464 139.894 118.06C140.137 117.927 140.396 117.825 140.666 117.759L142.737 117.256C142.808 116.845 142.711 116.068 142.523 115.128C142.507 115.05 142.492 114.973 142.474 114.893C142.353 114.309 142.2 113.67 142.034 113.019C141.344 110.331 140.411 107.45 140.411 107.45C139.029 94.8739 147.458 83.3353 147.458 83.3353C156.999 86.0855 157.05 99.0512 157.05 99.0512L157.532 101.047L157.632 104.981L159.014 119.13C159.155 130.361 153.924 132.083 153.924 132.083Z" fill="#EEEEEE"/>
<path d="M154.257 147.071L152.688 145.5V144.363H129.731V149.505H152.688V148.642L154.257 147.071Z" fill="#B5DAE5"/>
<path d="M154.257 178.66L152.688 177.089V176.007H129.731V181.151H152.688V180.231L154.257 178.66Z" fill="#B5DAE5"/>
<path d="M154.257 197.998L152.688 196.429V195.427H138.682V200.571H152.688V199.569L154.257 197.998Z" fill="#B5DAE5"/>
<path d="M107.093 188.482V189.473L105.515 191.053L107.093 192.63V193.624H134.074V188.482H107.093Z" fill="white"/>
<path d="M104.949 155.594V156.587L103.372 158.165L104.949 159.744V160.738H127.905V155.594H104.949Z" fill="white"/>
<path d="M105.064 163.732V164.506L103.487 166.084L105.064 167.663V168.874H136.741V163.732H105.064Z" fill="white"/>
<path d="M160.536 204.703V212.967C160.536 214.409 159.364 215.584 157.921 215.584H99.9024C98.4607 215.584 97.2866 214.412 97.2866 212.967V204.703H160.536Z" fill="#1A1A1A"/>
<path d="M152.179 127.813C150.105 122.195 142.735 117.261 142.735 117.261C142.81 116.816 142.691 115.944 142.474 114.898C149.663 118.475 152.104 127.532 152.179 127.813Z" fill="#DFDFDF"/>
<path d="M151.741 132.39L150.448 132.572C149.762 128.967 146.425 124.527 145.968 123.929C149.161 128.012 150.976 131.023 151.741 132.39Z" fill="#DFDFDF"/>
<path d="M142.032 113.024C142.372 107.205 144.809 102.996 146.602 100.646C143.52 105.22 142.704 112.78 142.52 115.13C142.505 115.053 142.489 114.975 142.472 114.895C142.35 114.314 142.198 113.674 142.032 113.024Z" fill="#DFDFDF"/>
<path d="M148.535 98.4848C148.433 98.5733 147.622 99.3101 146.6 100.649C147.166 99.8079 147.807 99.0711 148.535 98.4848Z" fill="white"/>
<path d="M119.792 99.8721C119.792 100.219 119.511 100.5 119.164 100.5C118.817 100.5 118.536 100.219 118.536 99.8721C118.536 99.5247 118.817 99.2437 119.164 99.2437C119.509 99.2437 119.792 99.5247 119.792 99.8721Z" fill="#B3B3B3"/>
<path d="M119.113 100.45C119.46 100.45 119.741 100.168 119.741 99.8212C119.741 99.4741 119.46 99.1928 119.113 99.1928C118.767 99.1928 118.485 99.4741 118.485 99.8212C118.485 100.168 118.767 100.45 119.113 100.45Z" fill="#E6E6E6"/>
<path d="M118.928 99.715C118.861 99.715 118.808 99.6619 118.808 99.5955C118.808 99.5291 118.861 99.476 118.928 99.476C118.994 99.476 119.047 99.5291 119.047 99.5955C119.047 99.6619 118.994 99.715 118.928 99.715Z" fill="#999999"/>
<path d="M118.928 100.186C118.861 100.186 118.808 100.133 118.808 100.067C118.808 100 118.861 99.9473 118.928 99.9473C118.994 99.9473 119.047 100 119.047 100.067C119.047 100.133 118.994 100.186 118.928 100.186Z" fill="#999999"/>
<path d="M119.312 99.715C119.246 99.715 119.193 99.6619 119.193 99.5955C119.193 99.5291 119.246 99.476 119.312 99.476C119.379 99.476 119.432 99.5291 119.432 99.5955C119.432 99.6619 119.379 99.715 119.312 99.715Z" fill="#999999"/>
<path d="M119.312 100.186C119.246 100.186 119.193 100.133 119.193 100.067C119.193 100 119.246 99.9473 119.312 99.9473C119.379 99.9473 119.432 100 119.432 100.067C119.432 100.133 119.379 100.186 119.312 100.186Z" fill="#999999"/>
<path d="M118.921 99.7039C118.855 99.7039 118.802 99.6508 118.802 99.5844C118.802 99.5181 118.855 99.465 118.921 99.465C118.987 99.465 119.041 99.5181 119.041 99.5844C119.041 99.6508 118.987 99.7039 118.921 99.7039Z" fill="#F2F2F2"/>
<path d="M118.921 100.175C118.855 100.175 118.802 100.122 118.802 100.056C118.802 99.9894 118.855 99.9363 118.921 99.9363C118.987 99.9363 119.041 99.9894 119.041 100.056C119.041 100.122 118.987 100.175 118.921 100.175Z" fill="#F2F2F2"/>
<path d="M119.303 99.7039C119.237 99.7039 119.184 99.6508 119.184 99.5844C119.184 99.5181 119.237 99.465 119.303 99.465C119.37 99.465 119.423 99.5181 119.423 99.5844C119.423 99.6508 119.37 99.7039 119.303 99.7039Z" fill="#F2F2F2"/>
<path d="M119.303 100.175C119.237 100.175 119.184 100.122 119.184 100.056C119.184 99.9894 119.237 99.9363 119.303 99.9363C119.37 99.9363 119.423 99.9894 119.423 100.056C119.423 100.122 119.37 100.175 119.303 100.175Z" fill="#F2F2F2"/>
<path d="M117.207 114.422C117.554 114.422 117.835 114.141 117.835 113.794C117.835 113.447 117.554 113.165 117.207 113.165C116.86 113.165 116.579 113.447 116.579 113.794C116.579 114.141 116.86 114.422 117.207 114.422Z" fill="#B3B3B3"/>
<path d="M117.784 113.743C117.784 114.09 117.503 114.371 117.156 114.371C116.809 114.371 116.528 114.09 116.528 113.743C116.528 113.395 116.809 113.114 117.156 113.114C117.503 113.114 117.784 113.395 117.784 113.743Z" fill="#E6E6E6"/>
<path d="M116.973 113.637C116.907 113.637 116.854 113.583 116.854 113.517C116.854 113.451 116.907 113.398 116.973 113.398C117.039 113.398 117.092 113.451 117.092 113.517C117.092 113.583 117.039 113.637 116.973 113.637Z" fill="#999999"/>
<path d="M116.973 114.108C116.907 114.108 116.854 114.055 116.854 113.988C116.854 113.922 116.907 113.869 116.973 113.869C117.039 113.869 117.092 113.922 117.092 113.988C117.092 114.055 117.039 114.108 116.973 114.108Z" fill="#999999"/>
<path d="M117.355 113.637C117.289 113.637 117.236 113.583 117.236 113.517C117.236 113.451 117.289 113.398 117.355 113.398C117.422 113.398 117.475 113.451 117.475 113.517C117.475 113.583 117.422 113.637 117.355 113.637Z" fill="#999999"/>
<path d="M117.355 114.108C117.289 114.108 117.236 114.055 117.236 113.988C117.236 113.922 117.289 113.869 117.355 113.869C117.422 113.869 117.475 113.922 117.475 113.988C117.475 114.055 117.422 114.108 117.355 114.108Z" fill="#999999"/>
<path d="M116.964 113.625C116.898 113.625 116.845 113.572 116.845 113.506C116.845 113.44 116.898 113.387 116.964 113.387C117.03 113.387 117.084 113.44 117.084 113.506C117.084 113.572 117.03 113.625 116.964 113.625Z" fill="#F2F2F2"/>
<path d="M116.964 114.097C116.898 114.097 116.845 114.044 116.845 113.977C116.845 113.911 116.898 113.858 116.964 113.858C117.03 113.858 117.084 113.911 117.084 113.977C117.084 114.044 117.03 114.097 116.964 114.097Z" fill="#F2F2F2"/>
<path d="M117.349 113.625C117.283 113.625 117.229 113.572 117.229 113.506C117.229 113.44 117.283 113.387 117.349 113.387C117.415 113.387 117.468 113.44 117.468 113.506C117.466 113.572 117.413 113.625 117.349 113.625Z" fill="#F2F2F2"/>
<path d="M117.349 114.097C117.283 114.097 117.229 114.044 117.229 113.977C117.229 113.911 117.283 113.858 117.349 113.858C117.415 113.858 117.468 113.911 117.468 113.977C117.466 114.044 117.413 114.097 117.349 114.097Z" fill="#F2F2F2"/>
<path d="M115.637 132.877C115.984 132.877 116.265 132.596 116.265 132.249C116.265 131.902 115.984 131.62 115.637 131.62C115.29 131.62 115.009 131.902 115.009 132.249C115.009 132.596 115.29 132.877 115.637 132.877Z" fill="#B3B3B3"/>
<path d="M116.214 132.198C116.214 132.545 115.934 132.826 115.586 132.826C115.239 132.826 114.958 132.545 114.958 132.198C114.958 131.851 115.239 131.57 115.586 131.57C115.931 131.57 116.214 131.851 116.214 132.198Z" fill="#E6E6E6"/>
<path d="M115.403 132.092C115.337 132.092 115.284 132.039 115.284 131.972C115.284 131.906 115.337 131.853 115.403 131.853C115.469 131.853 115.522 131.906 115.522 131.972C115.52 132.039 115.467 132.092 115.403 132.092Z" fill="#999999"/>
<path d="M115.403 132.563C115.337 132.563 115.284 132.51 115.284 132.444C115.284 132.377 115.337 132.324 115.403 132.324C115.469 132.324 115.522 132.377 115.522 132.444C115.52 132.51 115.467 132.563 115.403 132.563Z" fill="#999999"/>
<path d="M115.785 132.092C115.719 132.092 115.666 132.039 115.666 131.972C115.666 131.906 115.719 131.853 115.785 131.853C115.852 131.853 115.905 131.906 115.905 131.972C115.905 132.039 115.852 132.092 115.785 132.092Z" fill="#999999"/>
<path d="M115.785 132.563C115.719 132.563 115.666 132.51 115.666 132.444C115.666 132.377 115.719 132.324 115.785 132.324C115.852 132.324 115.905 132.377 115.905 132.444C115.905 132.51 115.852 132.563 115.785 132.563Z" fill="#999999"/>
<path d="M115.394 132.081C115.328 132.081 115.275 132.028 115.275 131.961C115.275 131.895 115.328 131.842 115.394 131.842C115.461 131.842 115.514 131.895 115.514 131.961C115.514 132.028 115.461 132.081 115.394 132.081Z" fill="#F2F2F2"/>
<path d="M115.394 132.552C115.328 132.552 115.275 132.499 115.275 132.432C115.275 132.366 115.328 132.313 115.394 132.313C115.461 132.313 115.514 132.366 115.514 132.432C115.514 132.499 115.461 132.552 115.394 132.552Z" fill="#F2F2F2"/>
<path d="M115.777 132.081C115.71 132.081 115.657 132.028 115.657 131.961C115.657 131.895 115.71 131.842 115.777 131.842C115.843 131.842 115.896 131.895 115.896 131.961C115.896 132.028 115.843 132.081 115.777 132.081Z" fill="#F2F2F2"/>
<path d="M115.777 132.552C115.71 132.552 115.657 132.499 115.657 132.432C115.657 132.366 115.71 132.313 115.777 132.313C115.843 132.313 115.896 132.366 115.896 132.432C115.896 132.499 115.843 132.552 115.777 132.552Z" fill="#F2F2F2"/>
<path d="M108.59 111.509C108.544 111.509 108.5 111.504 108.456 111.493C108.241 111.44 108.133 111.278 108.1 111.221C107.29 110.017 105.762 101.782 105.698 101.432L106.114 101.355C106.552 103.729 107.825 110.086 108.453 110.991L108.471 111.022C108.471 111.022 108.5 111.073 108.557 111.084C108.635 111.101 108.756 111.048 108.893 110.944L109.152 111.278C108.953 111.431 108.765 111.509 108.59 111.509Z" fill="#A39D9D"/>
<path d="M117.081 111.508C116.906 111.508 116.719 111.431 116.52 111.276L116.778 110.942C116.913 111.048 117.037 111.099 117.114 111.081C117.172 111.068 117.201 111.017 117.203 111.015L117.218 110.988C117.846 110.085 119.12 103.726 119.558 101.352L119.973 101.43C119.909 101.782 118.384 110.015 117.572 111.218C117.539 111.278 117.431 111.439 117.216 111.49C117.17 111.501 117.125 111.508 117.081 111.508Z" fill="#A39D9D"/>
<path d="M109.776 110.964L109.05 111.446L108.668 110.869L109.393 110.386C109.552 110.28 109.767 110.324 109.873 110.484C109.979 110.643 109.935 110.858 109.776 110.964Z" fill="url(#paint7_linear_938_3)"/>
<path d="M116.193 110.439L116.96 110.851L116.633 111.462L115.865 111.05C115.697 110.959 115.633 110.749 115.724 110.581C115.814 110.413 116.025 110.349 116.193 110.439Z" fill="url(#paint8_linear_938_3)"/>
<path d="M137.285 107.247C138.406 107.247 139.315 105.838 139.315 104.1C139.315 102.363 138.406 100.954 137.285 100.954C136.164 100.954 135.255 102.363 135.255 104.1C135.255 105.838 136.164 107.247 137.285 107.247Z" fill="url(#paint9_linear_938_3)"/>
<path d="M137.006 107.247C138.127 107.247 139.036 105.838 139.036 104.1C139.036 102.363 138.127 100.954 137.006 100.954C135.885 100.954 134.976 102.363 134.976 104.1C134.976 105.838 135.885 107.247 137.006 107.247Z" fill="#BDCFED"/>
<path d="M137.176 81.7311C137.046 79.9234 136.853 78.1976 136.579 76.651C136.579 76.651 136.462 75.1597 135.21 75.5026C135.21 75.5026 135.498 75.7283 135.549 75.9341C135.973 77.952 136.239 80.3725 136.396 82.9281C136.962 92.1501 136.11 103.14 136.097 103.295L136.82 103.255C136.869 102.598 137.851 91.0593 137.176 81.7311Z" fill="url(#paint10_linear_938_3)"/>
<path d="M113.386 90.2319C113.641 89.0548 114.019 87.5303 114.508 85.9173C114.684 85.3354 114.875 84.7424 115.076 84.1495C115.193 83.8087 115.372 83.4945 115.609 83.2224L115.741 83.0697C115.651 83.0675 115.564 83.0697 115.48 83.0764C114.782 83.1361 114.205 83.6472 114.034 84.3287L113.857 85.0434C113.78 85.2912 113.707 85.5346 113.636 85.7735C113.072 87.6697 112.688 89.3313 112.498 90.2142C108.518 90.3668 105.338 93.6414 105.338 97.6617V101.888H106.578V97.6617C106.578 94.23 109.358 91.4488 112.787 91.4488C116.217 91.4488 118.996 94.23 118.996 97.6617V101.888H120.237V97.6617C120.237 93.7454 117.221 90.5372 113.386 90.2319Z" fill="url(#paint11_linear_938_3)"/>
<path d="M137.003 105.269C137.438 105.269 137.791 104.722 137.791 104.047C137.791 103.373 137.438 102.826 137.003 102.826C136.569 102.826 136.216 103.373 136.216 104.047C136.216 104.722 136.569 105.269 137.003 105.269Z" fill="url(#paint12_linear_938_3)"/>
<path d="M135.852 105.985C136.542 105.985 137.101 105.118 137.101 104.047C137.101 102.977 136.542 102.109 135.852 102.109C135.162 102.109 134.603 102.977 134.603 104.047C134.603 105.118 135.162 105.985 135.852 105.985Z" fill="black"/>
<path d="M135.681 105.985C136.371 105.985 136.931 105.118 136.931 104.047C136.931 102.977 136.371 102.109 135.681 102.109C134.991 102.109 134.432 102.977 134.432 104.047C134.432 105.118 134.991 105.985 135.681 105.985Z" fill="url(#paint13_linear_938_3)"/>
<path d="M135.681 105.764C136.25 105.764 136.712 104.995 136.712 104.047C136.712 103.099 136.25 102.33 135.681 102.33C135.112 102.33 134.651 103.099 134.651 104.047C134.651 104.995 135.112 105.764 135.681 105.764Z" fill="url(#paint14_radial_938_3)"/>
<path d="M84.8186 152.144C84.8186 152.144 88.1839 148.892 92.478 150.171C92.478 150.171 100.951 154.585 101.066 158.3C101.066 158.3 102.999 166.725 94.6626 166.577C94.6626 166.575 76.5799 162.015 84.8186 152.144Z" fill="#FFC0AF"/>
<path d="M95.6133 163.176L100.557 156.68C100.557 156.68 94.6846 152.607 92.5973 154.583C92.5951 154.583 87.6045 158.647 95.6133 163.176Z" fill="white"/>
<path d="M79.7129 172.699C79.7129 172.699 82.9632 167.126 87.6044 169.332L95.8078 173.281C95.8078 173.281 109.656 180.366 105.013 186.636C105.013 186.636 101.081 195.347 89.9328 184.663C89.9328 184.663 82.3242 183.036 79.7129 180.945C79.7129 180.945 77.2762 176.038 79.7129 172.699Z" fill="#FFC0AF"/>
<path d="M95.8081 184.342C95.8081 184.342 93.3626 182.554 95.8081 179.399C95.8081 179.399 97.8114 177.2 100.558 178.943L105.219 182.95L101.263 188.001L95.8081 184.342Z" fill="white"/>
<path d="M78.1454 190.612C78.1454 190.612 80.843 184.775 86.3267 187.127C86.3267 187.127 101.995 193.486 97.6433 199.843C97.6433 199.843 94.5963 205.417 84.3256 200.801L81.1039 201.149C81.1062 201.153 75.4478 198.104 78.1454 190.612Z" fill="#FFC0AF"/>
<path d="M88.4162 194.602C88.4162 194.602 91.1137 191.745 97.1214 197.057L94.1629 201.239C94.1629 201.239 86.3288 197.98 88.4162 194.602Z" fill="white"/>
<path d="M189.202 207.506C189.202 207.506 185.656 206.052 181.154 203.488L170.584 223.622C168.568 222.412 167.042 220.582 165.908 218.365C165.906 218.363 165.906 218.363 165.906 218.361L165.897 218.347C165.817 218.19 165.738 218.031 165.66 217.869C165.66 217.867 165.658 217.865 165.658 217.865C161.344 208.785 163.069 193.808 164.013 187.763C163.489 186.661 164.438 185.083 164.473 185.101C162.315 183.539 156.546 177.733 156.546 177.733C149.585 175.649 145.479 169.31 145.479 169.31C140.889 162.672 139.739 156.603 139.739 156.603C139.396 154.293 139.536 152.709 139.945 151.636C140.59 149.945 141.906 149.523 143.058 149.523C143.383 149.523 143.695 149.556 143.976 149.605C144.279 149.656 144.544 149.726 144.749 149.788L151.58 155.404C152.367 156.497 152.959 156.913 154.025 157.415C155.575 158.148 157.596 158.74 157.596 158.74C165.074 158.911 169.738 164.706 169.738 164.706L179.223 174.602C185.348 178.399 185.454 184.712 185.454 184.712L188.413 201.684C188.521 202.784 188.501 203.89 188.468 204.999C188.439 206.088 188.756 206.902 189.202 207.506Z" fill="#FFC0AF"/>
<path d="M154.03 157.415L151.861 159.229L149.7 157.974C146.485 156.111 144.111 153.085 143.062 149.52C143.388 149.52 143.699 149.553 143.98 149.602C144.283 149.653 144.548 149.724 144.754 149.786L151.584 155.401L154.03 157.415Z" fill="white"/>
<path d="M95.9236 46.3897C99.8719 42.4388 99.8719 36.0332 95.9236 32.0824C91.9753 28.1315 85.5739 28.1315 81.6256 32.0824C77.6773 36.0332 77.6773 42.4388 81.6256 46.3897C85.5739 50.3405 91.9753 50.3405 95.9236 46.3897Z" fill="#9AB1B7"/>
<path d="M95.3982 45.7688C99.3465 41.818 99.3465 35.4124 95.3982 31.4615C91.4499 27.5107 85.0485 27.5107 81.1002 31.4615C77.1519 35.4124 77.1519 41.818 81.1002 45.7688C85.0485 49.7197 91.4499 49.7197 95.3982 45.7688Z" fill="white"/>
<path d="M84.8657 41.9724C84.3006 41.407 84.3006 40.4914 84.8657 39.926L89.0008 35.7881L91.0459 37.8345L86.9107 41.9724C86.3457 42.5378 85.4307 42.5378 84.8657 41.9724Z" fill="#2E3192"/>
<path d="M91.4562 38.2349L88.6636 35.438L89.2586 34.8426L92.0537 37.637L91.4562 38.2349Z" fill="#2E3192"/>
<path d="M84.8435 42.7129L84.126 41.9949L84.506 41.6122L85.226 42.3302L84.8435 42.7129Z" fill="#2E3192"/>
<path d="M81.9607 45.1796L81.6606 44.8794L84.3482 42.1901L84.6482 42.4903L81.9607 45.1796Z" fill="#2E3192"/>
<path d="M93.7108 34.1771L92.7183 33.1814L90.1582 35.7431L91.1532 36.7363L93.7108 34.1771Z" fill="#2E3192"/>
<path d="M94.3812 34.8576L92.0386 32.511L92.4261 32.1232L94.7687 34.4673L94.3812 34.8576Z" fill="#2E3192"/>
<path d="M89.499 37.039L89.3594 37.1788L90.5314 38.3516L90.6711 38.2118L89.499 37.039Z" fill="white"/>
<path d="M88.8726 37.6612L88.7329 37.801L89.905 38.9738L90.0446 38.834L88.8726 37.6612Z" fill="white"/>
<path d="M88.2471 38.2863L88.1074 38.426L89.2795 39.5988L89.4191 39.4591L88.2471 38.2863Z" fill="white"/>
<path d="M87.6221 38.9119L87.4824 39.0517L88.6545 40.2245L88.7941 40.0848L87.6221 38.9119Z" fill="white"/>
<path d="M86.9971 39.537L86.8574 39.6768L88.0295 40.8496L88.1691 40.7098L86.9971 39.537Z" fill="white"/>
<path d="M86.3721 40.1624L86.2324 40.3021L87.4045 41.4749L87.5441 41.3352L86.3721 40.1624Z" fill="white"/>
<path d="M85.7471 40.7879L85.6074 40.9276L86.7795 42.1004L86.9191 41.9607L85.7471 40.7879Z" fill="white"/>
<path d="M185.425 74.1331C192.37 71.2545 195.668 63.2871 192.791 56.3375C189.914 49.3879 181.952 46.0877 175.007 48.9664C168.062 51.8451 164.764 59.8125 167.641 66.7621C170.517 73.7117 178.48 77.0118 185.425 74.1331Z" fill="#9AB1B7"/>
<path d="M179.565 74.5257C187.082 74.5257 193.176 68.4279 193.176 60.9058C193.176 53.3838 187.082 47.286 179.565 47.286C172.048 47.286 165.954 53.3838 165.954 60.9058C165.954 68.4279 172.048 74.5257 179.565 74.5257Z" fill="white"/>
<path d="M189.21 63.1763H182.782V64.0597H189.21V63.1763Z" fill="#2E3192"/>
<path d="M191.884 61.8513H185.457V62.293H191.884V61.8513Z" fill="#2E3192"/>
<path d="M188.054 59.8326H184.267V60.3546H188.054V59.8326Z" fill="#2E3192"/>
<path d="M186.744 57.9963H180.386V58.533H186.744V57.9963Z" fill="#2E3192"/>
<path d="M173.866 56.2478V56.8538H172.261V56.2478C172.261 55.8061 172.619 55.4447 173.064 55.4447C173.286 55.4447 173.487 55.536 173.633 55.6783C173.779 55.8243 173.866 56.0251 173.866 56.2478Z" fill="#2E3192"/>
<path d="M173.866 57.3247H172.261V58.2629H173.866V57.3247Z" fill="#2E3192"/>
<path d="M182.516 64.7643H170.306C169.398 64.7643 168.661 64.0269 168.661 63.1179V61.1321C168.661 60.8948 168.712 60.6575 168.814 60.4422L169.642 58.6534C169.948 57.989 170.616 57.562 171.349 57.562H182.512C183.246 57.562 183.844 58.157 183.844 58.8944V63.4355C183.844 64.1693 183.249 64.7643 182.516 64.7643Z" fill="#2E3192"/>
<path d="M172.108 66.3705C172.995 66.3705 173.713 65.6514 173.713 64.7643C173.713 63.8773 172.995 63.1581 172.108 63.1581C171.222 63.1581 170.503 63.8773 170.503 64.7643C170.503 65.6514 171.222 66.3705 172.108 66.3705Z" fill="white"/>
<path d="M172.108 65.9106C171.477 65.9106 170.962 65.3959 170.962 64.7643C170.962 64.1328 171.477 63.6181 172.108 63.6181C172.739 63.6181 173.253 64.1328 173.253 64.7643C173.25 65.3959 172.739 65.9106 172.108 65.9106Z" fill="#2E3192"/>
<path d="M180.283 66.3705C181.17 66.3705 181.889 65.6514 181.889 64.7643C181.889 63.8773 181.17 63.1581 180.283 63.1581C179.397 63.1581 178.678 63.8773 178.678 64.7643C178.678 65.6514 179.397 66.3705 180.283 66.3705Z" fill="white"/>
<path d="M180.284 65.9106C179.653 65.9106 179.138 65.3959 179.138 64.7643C179.138 64.1328 179.653 63.6181 180.284 63.6181C180.915 63.6181 181.429 64.1328 181.429 64.7643C181.429 65.3959 180.915 65.9106 180.284 65.9106Z" fill="#2E3192"/>
<path d="M182.691 59.5624H181.593V58.4636H180.779V59.5624H179.678V60.3765H180.779V61.4789H181.593V60.3765H182.691V59.5624Z" fill="white"/>
<path d="M173.889 60.4312H169.781L170.507 58.8835C170.685 58.5038 171.065 58.2629 171.481 58.2629H173.889V60.4312Z" fill="white"/>
<path d="M178.956 58.4636H175.198V60.3765H178.956V58.4636Z" fill="white"/>
<path d="M82.1463 77.5685C87.6238 77.5685 92.0642 73.1252 92.0642 67.6442C92.0642 62.1632 87.6238 57.7199 82.1463 57.7199C76.6689 57.7199 72.2285 62.1632 72.2285 67.6442C72.2285 73.1252 76.6689 77.5685 82.1463 77.5685Z" fill="#9AB1B7"/>
<path d="M91.2326 69.3655C92.4913 64.0314 89.1904 58.6862 83.8597 57.4266C78.529 56.1671 73.1873 59.4702 71.9285 64.8043C70.6698 70.1385 73.9708 75.4837 79.3014 76.7432C84.6321 78.0028 89.9739 74.6997 91.2326 69.3655Z" fill="white"/>
<path d="M208.487 49.5144C218.975 49.5144 227.478 41.0065 227.478 30.5115C227.478 20.0164 218.975 11.5085 208.487 11.5085C197.999 11.5085 189.497 20.0164 189.497 30.5115C189.497 41.0065 197.999 49.5144 208.487 49.5144Z" fill="#9AB1B7"/>
<path d="M207.675 48.7014C218.163 48.7014 226.665 40.1935 226.665 29.6984C226.665 19.2034 218.163 10.6954 207.675 10.6954C197.186 10.6954 188.684 19.2034 188.684 29.6984C188.684 40.1935 197.186 48.7014 207.675 48.7014Z" fill="white"/>
<path d="M215.795 22.7355H211.716V21.9698C211.716 20.9263 210.871 20.0773 209.825 20.0773H204.953C203.91 20.0773 203.062 20.9232 203.062 21.9698V22.7355H198.983C196.783 22.7355 195 24.5199 195 26.7212V35.2206C195 37.4219 196.783 39.2064 198.983 39.2064H215.792C217.992 39.2064 219.775 37.4219 219.775 35.2206V26.7212C219.778 24.5199 217.995 22.7355 215.795 22.7355Z" fill="#2E3192"/>
<path d="M212.802 28.4841H208.545V24.2267H206.234V28.4841H201.979V30.7965H206.234V35.0571H208.545V30.7965H212.802V28.4841Z" fill="white"/>
<path d="M153.3 30.7533C158.958 25.0918 158.958 15.9126 153.3 10.2511C147.642 4.58956 138.469 4.58955 132.811 10.2511C127.153 15.9126 127.153 25.0918 132.811 30.7533C138.469 36.4148 147.642 36.4148 153.3 30.7533Z" fill="#9AB1B7"/>
<path d="M142.52 34.4617C150.521 34.4617 157.008 27.9709 157.008 19.9643C157.008 11.9576 150.521 5.46686 142.52 5.46686C134.518 5.46686 128.032 11.9576 128.032 19.9643C128.032 27.9709 134.518 34.4617 142.52 34.4617Z" fill="white"/>
<path d="M148.35 14.5312C147.38 13.5601 146.11 13.0773 144.84 13.0773C143.769 13.0773 142.7 13.4222 141.809 14.1093C140.918 13.4195 139.847 13.0773 138.776 13.0773C137.506 13.0773 136.236 13.5628 135.266 14.5312C133.479 16.3193 133.338 19.129 134.844 21.0763C134.974 21.2435 135.112 21.4027 135.266 21.5539L141.329 27.6189C141.481 27.7701 141.642 27.9134 141.809 28.0407C141.976 27.9107 142.135 27.7701 142.287 27.6189L148.348 21.5539C148.499 21.4027 148.639 21.2408 148.769 21.0763C150.275 19.1263 150.135 16.3167 148.35 14.5312Z" fill="#2E3192"/>
<path d="M140.68 23.5251L138.455 17.683L136.573 19.8559H130V19.251H136.297L138.659 16.521L140.682 21.8298L142.708 16.5714V19.2828L145.33 14.8309L146.081 18.5002L146.486 17.484L147.369 19.251H153.616V19.8559H146.993L146.547 18.9645L145.892 20.6067L145.052 16.4971L142.101 21.5088V19.832L140.68 23.5251Z" fill="white"/>
<path d="M261.544 67.0444C266.767 61.8186 266.767 53.3459 261.544 48.1201C256.322 42.8943 247.855 42.8943 242.632 48.1201C237.41 53.3459 237.41 61.8186 242.632 67.0444C247.855 72.2702 256.322 72.2702 261.544 67.0444Z" fill="#9AB1B7"/>
<path d="M260.807 66.3067C266.029 61.0809 266.029 52.6082 260.807 47.3824C255.584 42.1566 247.117 42.1566 241.894 47.3824C236.672 52.6082 236.672 61.0809 241.894 66.3067C247.117 71.5325 255.584 71.5325 260.807 66.3067Z" fill="white"/>
<path d="M255.953 57.8761L252.808 54.7292C251.895 53.816 251.895 52.3307 252.808 51.4176C253.72 50.5044 255.205 50.5044 256.117 51.4176L259.262 54.5646L255.953 57.8761ZM254.465 50.9316C253.916 50.9316 253.364 51.1393 252.949 51.5587C252.111 52.3973 252.111 53.7572 252.949 54.5959L255.957 57.6057L258.992 54.5685L255.984 51.5587C255.565 51.1393 255.013 50.9316 254.465 50.9316Z" fill="#2E3192"/>
<path d="M262.858 59.2282C262.858 59.8043 262.639 60.3764 262.2 60.8154C261.44 61.5757 260.265 61.6775 259.396 61.1132C259.56 60.835 259.658 60.5097 259.658 60.1609C259.658 59.1302 258.82 58.2915 257.79 58.2915H256.505L255.953 57.7389L259.125 54.5645L262.2 57.6409C262.639 58.0838 262.858 58.656 262.858 59.2282Z" fill="#2E3192"/>
<path d="M260.61 61.5678C260.171 61.5678 259.728 61.4464 259.345 61.1955L259.266 61.1446L259.313 61.0623C259.474 60.7919 259.56 60.4784 259.56 60.1609C259.56 59.1851 258.765 58.3895 257.79 58.3895H256.466L255.816 57.7389L259.125 54.4274L262.266 57.5743C262.709 58.0172 262.952 58.6051 262.952 59.2282C262.952 59.8552 262.709 60.4431 262.266 60.8859C261.82 61.3366 261.217 61.5678 260.61 61.5678ZM259.525 61.0819C260.359 61.5718 261.44 61.4385 262.129 60.7488C262.533 60.3451 262.76 59.8043 262.76 59.2321C262.76 58.6599 262.537 58.1191 262.129 57.7154L259.125 54.7056L256.09 57.7429L256.544 58.1975H257.79C258.875 58.1975 259.756 59.0793 259.756 60.1648C259.756 60.4862 259.678 60.7997 259.525 61.0819Z" fill="#2E3192"/>
<path d="M256.486 53.4359L256.039 52.9852L255.432 53.5926L254.825 52.9852L254.375 53.4359L254.982 54.0433L254.375 54.6508L254.825 55.1014L255.432 54.494L256.039 55.1014L256.486 54.6508L255.878 54.0433L256.486 53.4359Z" fill="#2E3192"/>
<path d="M257.79 61.4346H255.42V58.8912H257.79C258.491 58.8912 259.059 59.4594 259.059 60.1609C259.059 60.8624 258.491 61.4346 257.79 61.4346ZM255.612 61.2387H257.79C258.381 61.2387 258.867 60.7566 258.867 60.1609C258.867 59.5692 258.385 59.0832 257.79 59.0832H255.612V61.2387Z" fill="#2E3192"/>
<path d="M253.243 61.3367H255.518V58.9892H253.243C252.597 58.9892 252.072 59.5143 252.072 60.1649C252.068 60.8115 252.593 61.3367 253.243 61.3367Z" fill="#2E3192"/>
<path d="M255.613 61.4356H253.243C252.542 61.4356 251.974 60.8673 251.974 60.1658C251.974 59.4643 252.542 58.8961 253.243 58.8961H255.613V61.4356ZM253.243 59.0881C252.652 59.0881 252.166 59.5701 252.166 60.1658C252.166 60.7576 252.648 61.2436 253.243 61.2436H255.421V59.092H253.243V59.0881Z" fill="#2E3192"/>
<path d="M257.692 59.9963H257.242V59.5496H256.909V59.9963H256.458V60.3294H256.909V60.7801H257.242V60.3294H257.692V59.9963Z" fill="#2E3192"/>
<path d="M247.313 62.2341H244.756C242.684 62.2341 241 60.5528 241 58.4757V57.4372C241 55.364 242.68 53.6788 244.756 53.6788H247.313C249.385 53.6788 251.069 55.3601 251.069 57.4372V58.4757C251.069 60.5528 249.389 62.2341 247.313 62.2341Z" fill="#2E3192"/>
<path d="M248.653 52.2759H243.42V53.7103H248.653V52.2759Z" fill="white"/>
<path d="M248.018 52.4522H244.051C243.393 52.4522 242.864 51.9192 242.864 51.2647C242.864 50.6063 243.397 50.0773 244.051 50.0773H248.018C248.676 50.0773 249.205 50.6103 249.205 51.2647C249.209 51.9192 248.676 52.4522 248.018 52.4522Z" fill="#2E3192"/>
<path d="M246.632 55.7521H245.441V60.1649H246.632V55.7521Z" fill="white"/>
<path d="M248.239 58.5546V57.3632H243.829V58.5546H248.239Z" fill="white"/>
<path d="M18.6349 94.9229C26.8713 94.9229 33.5481 88.2416 33.5481 79.9999C33.5481 71.7582 26.8713 65.077 18.6349 65.077C10.3986 65.077 3.72168 71.7582 3.72168 79.9999C3.72168 88.2416 10.3986 94.9229 18.6349 94.9229Z" fill="#9AB1B7"/>
<path d="M32.4542 82.4588C34.3469 74.438 29.3833 66.4005 21.3677 64.5066C13.3521 62.6126 5.31977 67.5794 3.42706 75.6002C1.53435 83.6211 6.49794 91.6586 14.5136 93.5525C22.5292 95.4465 30.5615 90.4796 32.4542 82.4588Z" fill="white"/>
<path d="M12.3491 84.1488C12.3491 81.0589 17.9409 71.4941 17.9409 71.4941C17.9409 71.4941 23.5326 81.0589 23.5326 84.1488C23.5326 87.2387 21.0287 89.7441 17.9409 89.7441C14.853 89.7499 12.3491 87.2444 12.3491 84.1488Z" fill="#2E3192"/>
<path d="M20.6646 71.3437C20.6646 70.5973 22.0119 68.2943 22.0119 68.2943C22.0119 68.2943 23.3592 70.5973 23.3592 71.3437C23.3592 72.0901 22.7578 72.6919 22.0119 72.6919C21.2659 72.6919 20.6646 72.0901 20.6646 71.3437Z" fill="#2E3192"/>
<path d="M22.9081 84.1487C22.9081 85.4738 22.3934 86.7237 21.4566 87.661C20.5199 88.5984 19.2708 89.1134 17.9466 89.1134C16.8075 89.1134 15.7203 88.7315 14.8472 88.0256C15.3849 88.3265 15.9806 88.529 16.6109 88.61C17.9235 88.7836 19.2303 88.4364 20.2828 87.6321C21.3352 86.8278 22.0118 85.659 22.191 84.3455C22.2488 83.9173 22.2199 83.032 21.7747 81.2151C21.5954 80.4976 21.3699 79.6933 21.0866 78.8022C21.4798 79.647 21.8152 80.4166 22.0869 81.0994C22.7635 82.841 22.9081 83.7206 22.9081 84.1487Z" fill="white"/>
<path d="M44.5833 56.4657C54.3342 56.4657 62.2389 48.5559 62.2389 38.7987C62.2389 29.0414 54.3342 21.1316 44.5833 21.1316C34.8324 21.1316 26.9277 29.0414 26.9277 38.7987C26.9277 48.5559 34.8324 56.4657 44.5833 56.4657Z" fill="#3F50A4"/>
<path d="M43.9632 55.7527C53.7141 55.7527 61.6188 47.8429 61.6188 38.0856C61.6188 28.3284 53.7141 20.4186 43.9632 20.4186C34.2123 20.4186 26.3076 28.3284 26.3076 38.0856C26.3076 47.8429 34.2123 55.7527 43.9632 55.7527Z" fill="white"/>
<path d="M39.4128 30.548H37.2827V28.399H39.4128C40.0053 28.399 40.4853 28.8794 40.4853 29.4723C40.4853 30.0677 40.0053 30.548 39.4128 30.548Z" fill="#2E3192"/>
<path d="M41.8553 30.548H43.9853V28.399H41.8553C41.2627 28.399 40.7827 28.8794 40.7827 29.4723C40.7802 30.0677 41.2627 30.548 41.8553 30.548Z" fill="#2E3192"/>
<path d="M49.0557 37.8305V42.8014C49.0557 45.0779 47.2107 46.9242 44.9356 46.9242C43.7981 46.9242 42.768 46.4614 42.0205 45.7159C41.2755 44.9704 40.813 43.9397 40.813 42.7989V38.9513C43.2156 38.8562 45.1356 36.8798 45.1356 34.4532V28.3965H44.2881V34.1355C44.2881 36.1543 42.653 37.793 40.633 37.793C39.6229 37.793 38.7104 37.3827 38.0504 36.7222C37.3904 36.0618 36.9803 35.1462 36.9803 34.138V28.399H36.1328V34.4557C36.1328 36.7147 37.7979 38.586 39.9654 38.9087V42.8014C39.9654 45.5458 42.1905 47.7723 44.9331 47.7723C47.6757 47.7723 49.9008 45.5458 49.9008 42.8014V37.8305H49.0557Z" fill="#2E3192"/>
<path d="M49.5006 40.3798C50.7667 40.3798 51.7932 39.3527 51.7932 38.0857C51.7932 36.8187 50.7667 35.7916 49.5006 35.7916C48.2344 35.7916 47.208 36.8187 47.208 38.0857C47.208 39.3527 48.2344 40.3798 49.5006 40.3798Z" fill="#2E3192"/>
<path d="M49.5008 39.5341C50.3002 39.5341 50.9483 38.8856 50.9483 38.0856C50.9483 37.2857 50.3002 36.6371 49.5008 36.6371C48.7013 36.6371 48.0532 37.2857 48.0532 38.0856C48.0532 38.8856 48.7013 39.5341 49.5008 39.5341Z" fill="#2E3192"/>
<path d="M73.79 141.02C70.6125 140.088 67.2848 136.714 65.3146 134.424C67.9547 132.229 69.5711 129.291 69.5711 126.063C69.5711 119.268 62.4202 113.761 53.6 113.761C44.7797 113.761 37.6289 119.27 37.6289 126.063C37.6289 132.857 44.7797 138.365 53.6 138.365C56.2556 138.365 58.7608 137.865 60.9653 136.98C66.2079 139.655 73.79 141.02 73.79 141.02Z" fill="#ADEED8"/>
<path d="M53.0448 147.359C52.859 147.325 47.3754 146.317 43.5656 144.374C41.936 145.027 40.083 145.398 38.1195 145.398C31.5945 145.398 26.3076 141.325 26.3076 136.3C26.3076 132.076 30.0467 128.523 35.1168 127.499C35.5303 131.059 37.4849 134.327 40.7243 136.822C42.9752 138.557 45.6927 139.785 48.6446 140.433C48.1471 141.183 47.5191 141.871 46.7828 142.484C48.2377 144.177 50.6965 146.668 53.0448 147.359Z" fill="#ADEED8"/>
<path d="M47.3564 125.84C47.5313 124.761 46.7995 123.745 45.7218 123.57C44.6442 123.395 43.6288 124.128 43.4539 125.206C43.279 126.284 44.0108 127.3 45.0885 127.475C46.1661 127.65 47.1815 126.918 47.3564 125.84Z" fill="white"/>
<path d="M55.6539 125.982C55.9048 124.919 55.2468 123.853 54.1844 123.602C53.1219 123.351 52.0572 124.01 51.8063 125.073C51.5554 126.136 52.2134 127.201 53.2758 127.452C54.3383 127.703 55.403 127.045 55.6539 125.982Z" fill="white"/>
<path d="M63.4609 126.918C64.2328 126.146 64.2328 124.893 63.4609 124.121C62.6889 123.348 61.4373 123.348 60.6653 124.121C59.8934 124.893 59.8934 126.146 60.6653 126.918C61.4373 127.691 62.6889 127.691 63.4609 126.918Z" fill="white"/>
<path d="M178.961 147.434C181.413 146.714 183.98 144.112 185.499 142.345C183.461 140.652 182.216 138.384 182.216 135.893C182.216 130.651 187.733 126.401 194.538 126.401C201.344 126.401 206.861 130.651 206.861 135.893C206.861 141.134 201.344 145.385 194.538 145.385C192.489 145.385 190.556 145 188.856 144.316C184.812 146.38 178.961 147.434 178.961 147.434Z" fill="#1AC1B0"/>
<path d="M188.321 137.738C189.202 137.738 189.917 137.023 189.917 136.141C189.917 135.258 189.202 134.543 188.321 134.543C187.439 134.543 186.724 135.258 186.724 136.141C186.724 137.023 187.439 137.738 188.321 137.738Z" fill="white"/>
<path d="M195.053 137.738C195.935 137.738 196.65 137.023 196.65 136.141C196.65 135.258 195.935 134.543 195.053 134.543C194.172 134.543 193.457 135.258 193.457 136.141C193.457 137.023 194.172 137.738 195.053 137.738Z" fill="white"/>
<path d="M201.786 137.738C202.668 137.738 203.383 137.023 203.383 136.141C203.383 135.258 202.668 134.543 201.786 134.543C200.905 134.543 200.19 135.258 200.19 136.141C200.19 137.023 200.905 137.738 201.786 137.738Z" fill="white"/>
<circle cx="129.373" cy="210.02" r="3.88925" fill="#272727"/>
<g clip-path="url(#clip0_938_3)">
<path d="M85.1667 63.0147H83.8125V62.3897C83.8126 62.3069 83.7797 62.2273 83.7211 62.1687C83.6626 62.1101 83.5831 62.0771 83.5002 62.077C83.4173 62.077 83.3378 62.1098 83.2792 62.1684C83.2205 62.227 83.1876 62.3064 83.1875 62.3893V63.0147H81.3125V62.3897C81.3125 62.3487 81.3045 62.3081 81.2888 62.2701C81.2731 62.2322 81.2501 62.1977 81.2211 62.1687C81.1921 62.1397 81.1577 62.1166 81.1198 62.1009C81.0819 62.0852 81.0412 62.0771 81.0002 62.077C80.9173 62.077 80.8378 62.1098 80.7792 62.1684C80.7205 62.227 80.6876 62.3064 80.6875 62.3893V63.0147H78.8125V62.3897C78.8125 62.3487 78.8045 62.3081 78.7888 62.2701C78.7731 62.2322 78.7501 62.1977 78.7211 62.1687C78.6921 62.1397 78.6577 62.1166 78.6198 62.1009C78.5819 62.0852 78.5412 62.0771 78.5002 62.077C78.4173 62.077 78.3378 62.1098 78.2792 62.1684C78.2205 62.227 78.1876 62.3064 78.1875 62.3893V63.0147H76.8333C76.6124 63.0147 76.4005 63.1025 76.2442 63.2587C76.088 63.4149 76.0001 63.6267 76 63.8477V71.2435C76 71.4645 76.0878 71.6765 76.2441 71.8327C76.4004 71.989 76.6123 72.0768 76.8333 72.0768H85.1667C85.3877 72.0768 85.5996 71.989 85.7559 71.8327C85.9122 71.6765 86 71.4645 86 71.2435V63.8477C85.9999 63.6267 85.912 63.4149 85.7558 63.2587C85.5995 63.1025 85.3876 63.0147 85.1667 63.0147ZM85.375 71.2439C85.375 71.2991 85.3531 71.352 85.3141 71.3911C85.2751 71.4301 85.2223 71.4521 85.1671 71.4522H76.8333C76.7781 71.4522 76.7251 71.4303 76.686 71.3912C76.6469 71.3521 76.625 71.2992 76.625 71.2439V63.8481C76.6251 63.7929 76.6471 63.74 76.6862 63.701C76.7252 63.662 76.7782 63.6402 76.8333 63.6402H78.1875V64.2652C78.1874 64.348 78.2203 64.4275 78.2789 64.4862C78.3374 64.5448 78.4169 64.5778 78.4998 64.5779C78.5827 64.5779 78.6622 64.545 78.7208 64.4865C78.7795 64.4279 78.8124 64.3484 78.8125 64.2656V63.6402H80.6875V64.2652C80.6874 64.348 80.7203 64.4275 80.7789 64.4862C80.8374 64.5448 80.9169 64.5778 80.9998 64.5779C81.0827 64.5779 81.1622 64.545 81.2208 64.4865C81.2795 64.4279 81.3124 64.3484 81.3125 64.2656V63.6402H83.1875V64.2652C83.1874 64.348 83.2203 64.4275 83.2789 64.4862C83.3374 64.5448 83.4169 64.5778 83.4998 64.5779C83.5827 64.5779 83.6622 64.545 83.7208 64.4865C83.7795 64.4279 83.8124 64.3484 83.8125 64.2656V63.6402H85.1667C85.2218 63.6403 85.2746 63.6622 85.3136 63.7012C85.3525 63.7401 85.3745 63.793 85.3746 63.8481L85.375 71.2439Z" fill="#2E3192"/>
<path d="M78.1875 65.8273H79.4375V66.7648H78.1875V65.8273ZM78.1875 67.3898H79.4375V68.3273H78.1875V67.3898ZM78.1875 68.9523H79.4375V69.8898H78.1875V68.9523ZM80.375 68.9523H81.625V69.8898H80.375V68.9523ZM80.375 67.3898H81.625V68.3273H80.375V67.3898ZM80.375 65.8273H81.625V66.7648H80.375V65.8273ZM82.5625 68.9523H83.8125V69.8898H82.5625V68.9523ZM82.5625 67.3898H83.8125V68.3273H82.5625V67.3898ZM82.5625 65.8273H83.8125V66.7648H82.5625V65.8273Z" fill="#2E3192"/>
</g>
<defs>
<linearGradient id="paint0_linear_938_3" x1="98.2602" y1="149.737" x2="159.516" y2="149.737" gradientUnits="userSpaceOnUse">
<stop stop-color="#3D94E7"/>
<stop offset="1" stop-color="#1F45B1"/>
</linearGradient>
<linearGradient id="paint1_linear_938_3" x1="118.263" y1="87.1608" x2="127.309" y2="87.1608" gradientUnits="userSpaceOnUse">
<stop stop-color="#3D94E7"/>
<stop offset="1" stop-color="#2D51B6"/>
</linearGradient>
<linearGradient id="paint2_linear_938_3" x1="122.316" y1="78.7688" x2="134.939" y2="78.7688" gradientUnits="userSpaceOnUse">
<stop stop-color="#285EC2"/>
<stop offset="1" stop-color="#142F61"/>
</linearGradient>
<linearGradient id="paint3_linear_938_3" x1="118.7" y1="83.118" x2="122.316" y2="83.118" gradientUnits="userSpaceOnUse">
<stop stop-color="#285EC2"/>
<stop offset="1" stop-color="#122954"/>
</linearGradient>
<linearGradient id="paint4_linear_938_3" x1="76.9475" y1="119.536" x2="110.308" y2="119.536" gradientUnits="userSpaceOnUse">
<stop stop-color="#3D94E7"/>
<stop offset="1" stop-color="#1F45B1"/>
</linearGradient>
<linearGradient id="paint5_linear_938_3" x1="126.981" y1="99.6904" x2="134.378" y2="100.124" gradientUnits="userSpaceOnUse">
<stop stop-color="#3D94E7"/>
<stop offset="1" stop-color="#1F45B1"/>
</linearGradient>
<linearGradient id="paint6_linear_938_3" x1="124.694" y1="99.6791" x2="129.573" y2="99.9655" gradientUnits="userSpaceOnUse">
<stop stop-color="#3D94E7"/>
<stop offset="1" stop-color="#1F45B1"/>
</linearGradient>
<linearGradient id="paint7_linear_938_3" x1="108.668" y1="110.887" x2="109.931" y2="110.887" gradientUnits="userSpaceOnUse">
<stop stop-color="#3D94E7"/>
<stop offset="1" stop-color="#1F45B1"/>
</linearGradient>
<linearGradient id="paint8_linear_938_3" x1="115.683" y1="110.93" x2="116.96" y2="110.93" gradientUnits="userSpaceOnUse">
<stop stop-color="#1F45B1"/>
<stop offset="1" stop-color="#3D94E7"/>
</linearGradient>
<linearGradient id="paint9_linear_938_3" x1="135.256" y1="104.101" x2="139.314" y2="104.101" gradientUnits="userSpaceOnUse">
<stop stop-color="#3D94E7"/>
<stop offset="1" stop-color="#1F45B1"/>
</linearGradient>
<linearGradient id="paint10_linear_938_3" x1="135.211" y1="89.3742" x2="137.412" y2="89.3742" gradientUnits="userSpaceOnUse">
<stop stop-color="#285EC2"/>
<stop offset="1" stop-color="#142F61"/>
</linearGradient>
<linearGradient id="paint11_linear_938_3" x1="105.338" y1="92.4771" x2="120.237" y2="92.4771" gradientUnits="userSpaceOnUse">
<stop stop-color="#285EC2"/>
<stop offset="1" stop-color="#142F61"/>
</linearGradient>
<linearGradient id="paint12_linear_938_3" x1="136.217" y1="104.047" x2="137.792" y2="104.047" gradientUnits="userSpaceOnUse">
<stop stop-color="#3D94E7"/>
<stop offset="1" stop-color="#1F45B1"/>
</linearGradient>
<linearGradient id="paint13_linear_938_3" x1="134.432" y1="104.047" x2="136.93" y2="104.047" gradientUnits="userSpaceOnUse">
<stop stop-color="#3D94E7"/>
<stop offset="1" stop-color="#1F45B1"/>
</linearGradient>
<radialGradient id="paint14_radial_938_3" cx="0" cy="0" r="1" gradientUnits="userSpaceOnUse" gradientTransform="translate(135.681 104.047) scale(1.41577 1.41669)">
<stop stop-color="#CAD8F1"/>
<stop offset="1" stop-color="#608BD4"/>
</radialGradient>
<clipPath id="clip0_938_3">
<rect width="10" height="10" fill="white" transform="translate(76 62.0773)"/>
</clipPath>
</defs>
</svg>
