<svg width="271" height="276" viewBox="0 0 271 276" fill="none" xmlns="http://www.w3.org/2000/svg">
<line x1="19.5" y1="95" x2="19.5" y2="109" stroke="white"/>
<line x1="82.5" y1="78" x2="82.5" y2="87" stroke="white"/>
<line x1="89.5" y1="49" x2="89.5" y2="58" stroke="white"/>
<line x1="157.5" y1="70" x2="157.5" y2="79" stroke="white"/>
<line x1="251.5" y1="71" x2="251.5" y2="104" stroke="white"/>
<line x1="207.5" y1="50" x2="207.5" y2="118" stroke="white"/>
<line x1="45.5" y1="53" x2="45.5" y2="93" stroke="white"/>
<line x1="82" y1="86.5" x2="103" y2="86.5" stroke="white"/>
<line x1="89" y1="57.5" x2="110" y2="57.5" stroke="white"/>
<line x1="157" y1="69.5" x2="178" y2="69.5" stroke="white"/>
<line x1="164" y1="103.5" x2="252" y2="103.5" stroke="white"/>
<line x1="164" y1="118.5" x2="208" y2="118.5" stroke="white"/>
<line x1="94" y1="109.5" x2="19" y2="109.5" stroke="white"/>
<line x1="121" y1="92.5" x2="46" y2="92.5" stroke="white"/>
<path d="M158.463 204.618L135.096 226.806L164.376 245.743L168.471 220.256L158.463 204.618Z" fill="#FFC0AF"/>
<path d="M99.9073 176.757L85.4663 163.09C85.4663 163.09 96.3783 167.478 100.557 164.575L99.9073 176.757Z" fill="#DEA798"/>
<path d="M79.7129 181.868L93.1743 193.365L97.1212 188.371L83.6576 177.919L79.7129 181.868Z" fill="#DEA798"/>
<path d="M194.082 271.949L146.651 225.68L148.305 177.514L100.557 157.603L99.9692 177.919L89.9328 198.591L81.2386 202.02L81.106 202.074C81.106 202.074 87.1402 209.043 88.9975 209.506C88.9975 209.506 106.174 247.626 144.82 257.295L161.948 275.113H193.125L195.132 272.973L194.082 271.949Z" fill="#FFC0AF"/>
<path d="M84.3254 201.726L81.106 202.076L86.5321 203.972L86.0678 202.162L84.3254 201.726Z" fill="#EEB3A3"/>
<path d="M161.733 275.115L144.822 257.297C106.174 247.628 88.9975 209.508 88.9975 209.508C87.1402 209.043 81.106 202.076 81.106 202.076L81.2386 202.023L87.0473 202.777C87.0473 202.777 91.2684 206.032 92.2988 207.623C92.2988 207.623 109.853 242.909 148.121 250.87L176.289 275.117H161.948H161.733V275.115Z" fill="#EEB3A3"/>
<path d="M88.416 186.428L105.594 188.922L98.4701 202.02L90.112 195.794L88.416 186.428Z" fill="#DEA798"/>
<path d="M84.3257 201.726C84.3257 201.726 92.2792 208.428 98.4704 202.02C98.4704 202.02 100.339 199.941 98.0923 196.883L84.3257 201.726Z" fill="#DEA798"/>
<path d="M179.904 275.115H246.051L217.481 252.396C215.707 250.985 213.876 249.646 211.986 248.394C173.665 223.018 176.769 200.839 176.769 200.839L166.695 213.128L164.375 245.743L188.988 267.533L183.38 271.383L179.904 275.115Z" fill="#FFC0AF"/>
<path d="M189.202 208.428C189.202 208.428 179.099 227.556 214.495 250.025L202.697 257.103C202.697 257.103 167.433 203.737 168.493 202.164C169.554 200.591 183.075 198.513 183.075 198.513L189.202 208.428Z" fill="#FFC0AF"/>
<path d="M187.568 197.732C187.568 197.732 190.323 208.917 189.202 213.59C189.202 213.59 188.492 223.602 193.39 231.083C193.39 231.083 185.164 219.56 185.164 218.467C185.164 217.371 184.667 203.344 184.667 202.846C184.667 202.348 187.568 197.732 187.568 197.732Z" fill="#FFC0AF"/>
<path d="M100.019 136.622C100.019 136.622 92.9513 132.547 87.9693 134.819C87.9693 134.819 84.2609 136.69 89.0112 140.897C89.0112 140.897 93.9932 145.039 97.1211 146.175L101.176 148.714L100.019 136.622Z" fill="#FFC0AF"/>
<rect x="93.3975" y="78.7078" width="70.0066" height="140.013" rx="6" fill="#1A1A1A"/>
<path d="M159.515 88.0207V213.297C159.515 214.679 158.378 215.804 156.982 215.804H100.792C99.3958 215.804 98.2593 214.679 98.2593 213.297V88.0207C98.2593 86.639 99.3958 85.514 100.792 85.514H156.982C158.381 85.514 159.515 86.639 159.515 88.0207Z" fill="url(#paint0_linear_624_3)"/>
<path d="M118.974 79.6912L118.264 86.5923V90.7342L119.27 94.0664L120.04 96.4759L125.004 90.9024L127.135 87.9065L127.308 83.2026L125.004 81.7733L122.315 83.3973L118.974 79.6912Z" fill="url(#paint1_linear_624_3)"/>
<path d="M122.607 86.8777L123.091 90.9267L120.04 95.5001L119.414 93.3273C119.414 93.3273 119.381 91.9976 120.04 90.2696C120.04 90.2696 120.707 87.1388 120.267 85.174L122.607 86.8777Z" fill="#203A55"/>
<path opacity="0.34" d="M125.177 85.2669C125.177 85.2669 123.003 86.402 122.985 87.1498L123.094 90.9245L122.609 86.8754L123.527 84.8908L125.006 84.3686L125.177 85.2669Z" fill="black"/>
<path d="M120.268 85.1718C120.268 85.1718 120.372 86.6741 122.607 86.8777C122.607 86.8777 124.188 84.6474 125.004 85.0213C125.004 85.0213 124.694 82.4016 122.315 81.9348L121.406 81.6494L119.757 84.654L120.268 85.1718Z" fill="#001E3D"/>
<path d="M106.355 91.8914C106.355 91.8914 102.662 95.8387 101.789 103.587L100.794 107.941C100.297 110.121 100.044 112.353 100.044 114.592V120.429L107.456 125.352L106.355 91.8914Z" fill="#DDDDDD"/>
<path d="M118.917 79.22C118.917 79.22 119.518 81.3927 122.315 81.9348L129.09 80.0718L133.15 73.5624L132.891 73.0845L131.688 72.8455C131.688 72.8455 129.8 66.0529 129.99 63.7784L118.917 79.22Z" fill="#ED9E8D"/>
<path d="M122.315 81.9348C122.315 81.9348 124.422 83.6008 125.004 85.0213C125.004 85.0213 125.663 86.0811 126.602 86.5945C126.602 86.5945 134.264 76.2838 134.938 76.1998C134.938 76.1998 133.941 72.2768 131.688 72.8499C131.688 72.8499 133.068 73.2437 132.822 73.6641C132.825 73.6619 123.089 81.8684 122.315 81.9348Z" fill="url(#paint2_linear_624_3)"/>
<path d="M119.759 99.5447L114.932 142.205H106.501C106.306 140.427 106.083 137.732 105.92 135.605C105.787 133.902 105.793 132.189 105.973 130.49C106.472 125.697 105.749 117.96 105.749 117.96C106.198 114.537 104.566 100.963 104.166 97.737C104.091 97.1441 104.12 96.5422 104.257 95.9603C105.608 90.2585 113.015 86.5945 113.015 86.5945L117.592 84.2624L117.738 89.2872L118.7 97.5556L119.759 99.5447Z" fill="#EEEEEE"/>
<path d="M122.315 81.9348L118.972 79.6934C118.972 79.6934 117.955 85.4727 119.843 88.3911C119.845 88.3889 120.281 81.3175 122.315 81.9348Z" fill="url(#paint3_linear_624_3)"/>
<path d="M149.203 142.177H114.749L115.237 119.204C115.498 113.519 118.742 97.5269 118.742 97.5269L125.919 89.5195L134.983 76.1666L139.144 79.6603C140.603 80.886 147.5 84.2315 147.5 84.2315L146.846 125.321L149.203 142.177Z" fill="white"/>
<path opacity="0.22" d="M130.324 85.6121L131.445 87.7384L118.85 98.0999L118.7 98.2238L127.944 87.3512L128.84 84.4881L134.549 79.3062L137.426 78.284L139.1 79.689L136.088 85.1695C136.09 85.1718 131.08 85.7537 130.324 85.6121Z" fill="black"/>
<path d="M139.1 79.6912L137.176 82.6517L136.398 83.8509L135.832 84.7204C135.832 84.7204 130.746 85.694 129.802 85.1696L130.823 87.4397C130.823 87.4397 128.285 90.1258 125.187 92.4888C123.511 93.7677 120.296 96.8985 118.852 98.1021L118.702 98.226C118.636 98.2791 118.585 98.3101 118.549 98.319L118.704 97.5556C118.706 97.5534 118.706 97.5534 118.709 97.5512C118.709 97.549 118.711 97.5468 118.711 97.5446C119.118 96.9118 132.166 76.6511 134.938 76.202L135.511 76.6843L136.577 77.5782L137.426 78.2907L139.1 79.6912Z" fill="#DFDFDF"/>
<path d="M90.4414 133.461L112.854 129.238L103.558 120.416L92.2258 123.545L90.4414 133.461Z" fill="#DDDDDD"/>
<path d="M86.0059 128.439L87.5249 131.833C88.0401 132.983 89.2319 133.672 90.4436 133.461C91.2949 133.313 92.1639 132.725 92.6592 131.154C92.6592 131.154 93.8687 127.149 92.228 123.542L86.0059 128.439Z" fill="#EEEEEE"/>
<path d="M86.5146 127.921C86.5146 127.921 88.4914 131.331 90.2404 130.53C90.2404 130.53 92.9623 128.26 91.0829 124.989L86.5146 127.921Z" fill="#DDDDDD"/>
<path d="M111.074 117.265L109.97 116.774H103.888C103.408 116.774 102.939 116.918 102.537 117.19L100.675 118.445L102.506 120.416L103.567 119.668C103.808 119.498 104.106 119.438 104.392 119.502L107.832 120.277L111.074 117.265Z" fill="#EFA596"/>
<path d="M102.028 120.739H107.733L103.947 122.64L102.028 120.739Z" fill="#D97F6B"/>
<path d="M121.254 120.861L120.675 126.379V126.386L120.489 128.156C116.978 128.366 115.101 126.563 115.101 126.563L113.517 126.162L112.92 126.304L112.856 126.319L113.011 126.558C113.128 126.737 113.186 126.943 113.186 127.147C113.188 127.412 113.095 127.678 112.909 127.886L112.593 128.237C112.44 128.408 112.239 128.521 112.027 128.563C111.877 128.594 111.717 128.589 111.563 128.547C111.021 128.399 110.661 128.198 110.448 128.052C110.267 127.926 110.052 127.859 109.834 127.859H108.432L106.395 125.638L103.95 122.635L111.076 117.261L121.254 120.861Z" fill="#FFC0AF"/>
<path opacity="0.44" d="M114.103 124.835C113.897 125.076 113.805 125.394 113.847 125.713C113.747 125.742 113.652 125.817 113.559 125.899C113.466 125.983 113.378 126.074 113.287 126.136C113.137 126.24 113.044 126.142 112.918 126.308L112.854 126.324L113.009 126.563C113.126 126.742 113.183 126.948 113.183 127.151C111.609 126.308 114.957 123.832 114.957 123.832L114.103 124.835Z" fill="#BF5E55"/>
<path opacity="0.44" d="M110.479 127.512L112.022 128.567C111.872 128.598 111.713 128.594 111.558 128.552C111.034 128.408 110.678 128.215 110.466 128.072C110.269 127.939 110.039 127.864 109.804 127.864H109.647C109.647 127.864 108.717 126.113 109.36 125.556C109.36 125.556 110.921 124.014 113.566 121.744L109.734 125.835C109.734 125.835 109.274 126.439 110.479 127.512Z" fill="#BF5E55"/>
<path d="M113.847 125.653C114.041 125.598 114.238 125.569 114.428 125.558C115.052 125.523 115.662 125.728 116.18 126.087C118.143 127.445 120.673 126.379 120.673 126.379V126.386L120.487 128.156C116.976 128.366 115.098 126.563 115.098 126.563L113.515 126.162L112.854 126.319L113.847 125.653Z" fill="#E98773"/>
<path opacity="0.44" d="M107.087 124.419L112.476 119.644L110.581 120.861L106.824 123.877C106.159 124.235 106.391 125.64 106.391 125.64L108.427 127.861L109.283 128.156L107.879 126.695C107.51 126.366 107.22 125.95 107.05 125.476C106.76 124.66 107.087 124.419 107.087 124.419Z" fill="#BF5E55"/>
<path d="M110.309 129.788L107.81 129.585L92.1087 128.308C91.4962 128.26 90.9257 127.968 90.5144 127.496L77.7805 112.893C77.7805 112.893 76.2017 111.181 77.3957 111.13L95.6222 112.316C95.8433 112.331 96.0578 112.398 96.2457 112.513C96.2966 112.544 96.3452 112.577 96.3917 112.614C96.4757 112.681 96.5509 112.754 96.6194 112.838L110.309 129.788Z" fill="url(#paint4_linear_624_3)"/>
<path d="M96.3895 112.612L95.6112 112.915L78.1829 111.856C78.1829 111.856 77.5771 111.833 77.3936 111.13L95.62 112.316C95.8411 112.331 96.0556 112.398 96.2436 112.513C96.2944 112.544 96.3431 112.577 96.3895 112.612Z" fill="#588BD7"/>
<path d="M110.308 129.788L107.81 129.585L95.675 114.619C95.4141 114.298 95.2903 113.873 95.3655 113.462C95.507 112.69 96.2101 112.522 96.2455 112.513C96.3848 112.597 96.5131 112.707 96.6192 112.838L110.308 129.788Z" fill="#23539A"/>
<path d="M84.666 126.434L85.1348 127.399C85.4289 128.003 86.0546 128.357 86.7069 128.288L87.6511 128.189C88.2702 128.125 88.8561 127.864 89.3293 127.443L90.8218 126.116L84.666 126.434Z" fill="#EC9685"/>
<path d="M90.9896 125.77C90.9587 125.992 90.7906 126.191 90.5452 126.363L90.5408 126.366C90.3705 126.485 90.1649 126.594 89.9416 126.689C88.9886 127.102 87.7348 127.304 87.7348 127.304C86.7177 127.496 85.5547 127.268 84.8161 127.067C84.354 126.941 83.9803 126.591 83.8101 126.129L83.1158 124.244C83.0804 124.149 83.0539 124.051 83.0362 123.954C82.9787 123.666 82.9897 123.363 83.0693 123.078L83.0804 123.038L83.1534 122.772L83.3302 122.142L85.3114 124.317L90.9896 125.77Z" fill="#EFA596"/>
<path d="M88.9332 125.987L85.8 125.366C84.5397 125.076 84.1041 124.604 84.1041 124.604L83.0781 123.038L83.1511 122.772L83.5115 122.761L85.2848 124.655L88.9332 125.987Z" fill="#E98773"/>
<path d="M90.5408 126.366L89.9415 126.689C88.9885 127.102 87.7348 127.304 87.7348 127.304C86.7177 127.496 85.5546 127.268 84.8161 127.067C84.354 126.941 83.9803 126.591 83.81 126.129L83.1157 124.244C83.0804 124.149 83.0538 124.051 83.0361 123.954C83.0605 124.009 84.051 126.273 84.5176 126.436C84.5176 126.436 85.5391 127.074 87.454 126.943C87.4496 126.943 89.5789 126.764 90.5408 126.366Z" fill="#E98773"/>
<path d="M91.6532 125.655C91.4785 125.87 91.2065 126.009 90.897 126.012L89.9506 126.023C87.4564 125.596 86.0921 125.222 85.3647 124.967C84.9003 124.804 84.5023 124.505 84.2326 124.111L82.3796 121.401C82.1475 121.062 82.1519 120.622 82.3907 120.279L83.1513 119.184L85.6167 121.896L86.7444 123.135L88.3342 123.711L88.5465 123.788L91.0738 124.188C91.1822 124.204 91.2839 124.239 91.3746 124.288C91.463 124.334 91.5426 124.394 91.6112 124.463C91.7505 124.604 91.8389 124.788 91.8588 124.992C91.8831 125.239 91.8035 125.474 91.6532 125.655Z" fill="#F0AD9F"/>
<path d="M89.2649 123.903L86.9477 123.498L82.9963 121.423C82.4436 120.801 82.2954 120.502 82.2954 120.502L85.6165 121.898L86.7442 123.137L88.334 123.713L89.2649 123.903Z" fill="#E98773"/>
<path d="M88.531 122.954C88.3586 123.153 88.0866 123.224 87.8367 123.153C87.8146 123.146 87.7925 123.14 87.7726 123.135L86.9324 122.879C86.7201 122.814 83.1071 121.33 83.1071 121.33C82.8042 121.093 82.5322 120.816 82.2956 120.502C81.9396 120.031 81.9418 119.088 82.0281 118.495L82.1187 117.872L82.1209 117.876C82.1917 117.951 83.2663 119.175 83.2663 119.175L86.3442 120.679L87.9981 121.452L88.3895 121.635H88.3917C88.4868 121.708 88.5642 121.808 88.6062 121.923C88.7986 122.445 88.6947 122.764 88.531 122.954Z" fill="#FFC0AF"/>
<path d="M86.8857 121.879C86.7773 122.08 86.7663 122.352 87.109 122.655C87.1753 122.713 87.2527 122.752 87.3345 122.775L88.2522 123.02C88.2522 123.02 88.5463 122.571 88.2964 121.861L87.5335 121.615C87.2859 121.536 87.0139 121.635 86.8857 121.879Z" fill="#FFFBFA"/>
<path d="M88.2699 123.073L87.3191 122.819C87.2284 122.795 87.1444 122.75 87.0759 122.688C86.6956 122.354 86.7376 122.051 86.8415 121.854C86.9786 121.598 87.266 121.478 87.5446 121.567L88.3318 121.819L88.3384 121.841C88.5927 122.564 88.3009 123.022 88.2876 123.042L88.2699 123.073ZM86.9255 121.901C86.7973 122.142 86.8702 122.383 87.1378 122.62C87.1953 122.671 87.2682 122.708 87.3434 122.728L88.2257 122.965C88.281 122.859 88.449 122.465 88.2566 121.898L87.5159 121.659C87.2837 121.584 87.0405 121.684 86.9255 121.901Z" fill="#FFC0AF"/>
<path d="M91.6111 125.321C91.5846 125.567 91.4652 125.779 91.2949 125.925L90.521 125.868C90.2513 125.848 90.039 125.622 90.028 125.343C90.0213 125.186 90.0456 125.036 90.0766 124.912C90.1297 124.693 90.3088 124.534 90.5277 124.505C90.8837 124.461 91.317 124.529 91.317 124.529C91.3878 124.593 91.4475 124.669 91.4962 124.75C91.589 124.919 91.6332 125.118 91.6111 125.321Z" fill="#FFFBFA"/>
<path d="M87.9981 121.451L87.0937 121.221C86.9102 121.175 86.7311 121.109 86.5608 121.027L83.5736 119.588C83.2485 119.431 82.9721 119.188 82.7753 118.88L82.123 117.876C82.1938 117.951 83.2684 119.175 83.2684 119.175L86.3463 120.679L87.9981 121.451Z" fill="#E98773"/>
<path d="M141.658 117.675C141.603 117.562 139.288 119.15 138.244 118.852C138.244 118.852 135.932 119.226 136.192 119.184C136.453 119.142 133.975 119.449 133.106 119.077L120.354 119.712V119.909L127.237 122.064H135.372L137.311 120.721L140.371 119.869L142.348 118.593L143.429 117.92L141.658 117.675Z" fill="#DFDFDF"/>
<path d="M120.042 95.4979L118.702 97.5556C118.702 97.5556 117.649 94.3783 113.944 90.1125L116.993 87.2472L114.51 86.8401L113.638 86.6962L113.017 86.5945C113.278 86.4396 113.563 86.225 113.86 85.9661C114.308 85.5745 114.786 85.0811 115.261 84.5478C117.13 82.4525 118.974 79.6934 118.974 79.6934C118.974 79.6934 117.904 89.7607 120.042 95.4979Z" fill="#CECECE"/>
<path d="M136.614 102.89L135.726 106.012L135.257 107.658C135.188 107.899 135.146 108.147 135.129 108.393L134.892 111.962C134.888 112.035 134.881 112.108 134.87 112.183L134.459 115.418C134.423 115.685 134.41 115.953 134.414 116.219L134.43 117.232L134.454 118.655C134.456 118.796 134.377 118.934 134.253 119.004C134.251 119.004 134.251 119.007 134.249 119.007C133.24 119.573 128.884 122.042 127.447 123.171C127.131 123.418 126.711 123.445 126.403 123.235L121.172 119.679C120.984 119.551 120.88 119.327 120.893 119.091C120.895 119.057 120.9 119.024 120.906 118.989L121.234 117.312L121.344 116.745C121.419 116.356 121.453 115.96 121.439 115.57L121.362 113.294C121.353 113.033 121.373 112.767 121.422 112.504L122.067 109.074C122.125 108.769 122.151 108.459 122.145 108.154L122.118 106.784L122.233 106.171C122.291 105.866 122.317 105.556 122.311 105.251L122.302 104.762L122.262 102.757L122.361 101.901C122.361 101.901 122.523 101.828 122.837 101.773C123.509 101.656 124.878 101.62 126.848 102.558C126.848 102.558 127.409 102.833 128.177 102.819H128.179C128.36 102.815 128.555 102.795 128.754 102.751C128.864 102.726 128.977 102.695 129.09 102.656C129.545 102.496 129.917 102.534 130.26 102.651C130.609 102.768 130.927 102.965 131.27 103.107C131.361 103.145 131.454 103.178 131.549 103.207C131.551 103.207 131.553 103.209 131.555 103.209C131.558 103.209 131.56 103.211 131.564 103.211C131.679 103.244 131.796 103.268 131.92 103.28C131.92 103.28 132.024 103.299 132.267 103.288C132.484 103.277 132.809 103.242 133.271 103.145C133.36 103.127 133.453 103.105 133.55 103.083C133.782 103.027 134.019 103.01 134.249 103.038L135.232 103.16C135.46 103.187 135.695 103.167 135.922 103.096L136.035 103.06L136.614 102.89Z" fill="#DFDFDF"/>
<path opacity="0.14" d="M126.487 104.62L128.951 105.691L129.251 105.899L129.981 106.291L130.556 106.789L130.907 107.669L130.138 106.687C130.138 106.687 128.718 106.151 128.699 106.145C128.679 106.138 126.441 104.842 126.441 104.842L126.487 104.62Z" fill="#403F41"/>
<path d="M135.987 103.293L135.925 103.271C135.942 103.222 135.962 103.171 135.982 103.12L135.933 103.136L135.914 103.074L136.09 103.021L136.066 103.083C136.037 103.153 136.011 103.224 135.987 103.293Z" fill="white"/>
<path d="M135.845 103.877L135.783 103.859L135.838 103.667C135.816 103.642 135.816 103.596 135.869 103.43L135.931 103.45C135.9 103.547 135.892 103.591 135.889 103.614L135.923 103.607L135.845 103.877Z" fill="white"/>
<path d="M133.897 117.929L133.89 117.484H133.954L133.961 117.929H133.897ZM133.881 117.037L133.875 116.593H133.939L133.946 117.037H133.881ZM133.932 116.146H133.868C133.868 115.995 133.875 115.845 133.886 115.699L133.95 115.703C133.939 115.849 133.932 115.997 133.932 116.146ZM133.999 115.261L133.935 115.252L133.99 114.809L134.054 114.818L133.999 115.261ZM134.111 114.378L134.047 114.369L134.103 113.926L134.167 113.935L134.111 114.378ZM134.224 113.493L134.16 113.484L134.215 113.041L134.279 113.05L134.224 113.493ZM134.337 112.61L134.273 112.601L134.328 112.159L134.392 112.167L134.337 112.61ZM134.43 111.723L134.366 111.718L134.394 111.274L134.459 111.278L134.43 111.723ZM134.487 110.833L134.423 110.829L134.452 110.384L134.516 110.389L134.487 110.833ZM134.547 109.944L134.483 109.939L134.512 109.495L134.576 109.499L134.547 109.944ZM134.607 109.054L134.543 109.05L134.571 108.605L134.635 108.61L134.607 109.054ZM134.673 108.167L134.609 108.158C134.629 108.01 134.655 107.862 134.689 107.716L134.753 107.731C134.717 107.875 134.691 108.023 134.673 108.167ZM134.87 107.304L134.808 107.287L134.93 106.857L134.991 106.875L134.87 107.304ZM135.113 106.448L135.051 106.43L135.173 106.001L135.235 106.019L135.113 106.448ZM135.356 105.592L135.294 105.574L135.416 105.145L135.478 105.162L135.356 105.592ZM135.602 104.733L135.54 104.716L135.661 104.286L135.723 104.304L135.602 104.733Z" fill="white"/>
<path d="M133.758 118.741L133.727 118.684L133.906 118.582L133.904 118.374H133.968L133.972 118.619L133.758 118.741Z" fill="white"/>
<path d="M126.91 122.883C126.837 122.883 126.768 122.863 126.709 122.828L126.742 122.772C126.793 122.803 126.848 122.819 126.91 122.819H126.919C126.996 122.817 127.069 122.79 127.131 122.744L127.171 122.795C127.098 122.85 127.009 122.881 126.921 122.883H126.91ZM126.331 122.571L125.955 122.314L125.99 122.261L126.366 122.518L126.331 122.571ZM127.536 122.52L127.498 122.467C127.611 122.385 127.737 122.299 127.872 122.206L127.909 122.259C127.774 122.352 127.648 122.44 127.536 122.52ZM125.579 122.058L125.203 121.801L125.238 121.748L125.614 122.005L125.579 122.058ZM128.287 122.009L128.252 121.954C128.376 121.872 128.502 121.79 128.635 121.706L128.67 121.761C128.537 121.845 128.411 121.927 128.287 122.009ZM124.825 121.547L124.449 121.29L124.484 121.237L124.86 121.494L124.825 121.547ZM129.052 121.518L129.017 121.463C129.143 121.383 129.274 121.303 129.404 121.221L129.437 121.277C129.309 121.356 129.181 121.438 129.052 121.518ZM129.829 121.038L129.795 120.982C129.924 120.903 130.054 120.825 130.185 120.746L130.218 120.801C130.087 120.881 129.957 120.96 129.829 121.038ZM124.073 121.036L123.697 120.779L123.732 120.726L124.108 120.982L124.073 121.036ZM130.607 120.566L130.574 120.511C130.704 120.434 130.835 120.356 130.965 120.279L130.998 120.334C130.87 120.412 130.737 120.489 130.607 120.566ZM123.321 120.524L122.945 120.268L122.981 120.215L123.357 120.471L123.321 120.524ZM131.392 120.104L131.359 120.049C131.491 119.971 131.624 119.894 131.752 119.819L131.785 119.874C131.655 119.949 131.525 120.027 131.392 120.104ZM122.567 120.013L122.191 119.757L122.227 119.704L122.603 119.96L122.567 120.013ZM132.177 119.644L132.144 119.588C132.279 119.509 132.411 119.434 132.537 119.361L132.57 119.416C132.444 119.491 132.314 119.566 132.177 119.644ZM121.815 119.502L121.462 119.261C121.453 119.254 121.444 119.248 121.437 119.241L121.482 119.195C121.486 119.199 121.493 119.203 121.499 119.208L121.853 119.449L121.815 119.502ZM132.966 119.19L132.933 119.133C133.075 119.051 133.207 118.976 133.329 118.907L133.362 118.965C133.24 119.033 133.108 119.111 132.966 119.19ZM121.495 118.788L121.431 118.774L121.517 118.327L121.581 118.341L121.495 118.788ZM121.669 117.894L121.605 117.88L121.692 117.433L121.756 117.447L121.669 117.894ZM121.844 117L121.78 116.986L121.815 116.801C121.833 116.714 121.846 116.626 121.86 116.54L121.924 116.548C121.91 116.635 121.895 116.723 121.88 116.812L121.844 117ZM121.975 116.097L121.91 116.093C121.919 115.962 121.924 115.829 121.924 115.699V115.641H121.988V115.701C121.988 115.829 121.983 115.964 121.975 116.097ZM121.908 115.185L121.893 114.73L121.957 114.727L121.972 115.183L121.908 115.185ZM121.877 114.276L121.862 113.82L121.926 113.818L121.941 114.274L121.877 114.276ZM121.846 113.367L121.842 113.234C121.842 113.201 121.84 113.168 121.84 113.134C121.84 113.059 121.842 112.984 121.849 112.909L121.913 112.913C121.908 112.986 121.904 113.061 121.904 113.134C121.904 113.168 121.904 113.199 121.906 113.232L121.91 113.364L121.846 113.367ZM121.977 112.466L121.913 112.455L121.997 112.008L122.061 112.019L121.977 112.466ZM122.145 111.572L122.081 111.561L122.165 111.114L122.229 111.125L122.145 111.572ZM122.315 110.676L122.251 110.665L122.335 110.218L122.399 110.229L122.315 110.676ZM122.483 109.782L122.419 109.771L122.503 109.324L122.567 109.335L122.483 109.782ZM122.645 108.886L122.58 108.877C122.6 108.725 122.616 108.574 122.622 108.428L122.687 108.43C122.68 108.579 122.664 108.731 122.645 108.886ZM122.622 107.975L122.614 107.519L122.678 107.517L122.687 107.972L122.622 107.975ZM122.605 107.063L122.6 106.791L122.636 106.605L122.7 106.616L122.667 106.795L122.673 107.061L122.605 107.063ZM122.782 106.169L122.718 106.158C122.744 106.008 122.762 105.857 122.775 105.709L122.839 105.713C122.826 105.864 122.808 106.017 122.782 106.169ZM122.791 105.258L122.782 104.802L122.846 104.8L122.855 105.255L122.791 105.258ZM122.775 104.348L122.766 103.892L122.83 103.89L122.839 104.346L122.775 104.348ZM122.757 103.439L122.749 102.983L122.813 102.981L122.821 103.437L122.757 103.439Z" fill="white"/>
<path d="M122.833 102.538L122.769 102.532L122.797 102.282L122.822 102.277C122.824 102.275 122.842 102.251 122.833 102.096L122.897 102.091C122.903 102.211 122.897 102.297 122.857 102.328L122.833 102.538Z" fill="white"/>
<path d="M122.826 102.007C122.821 101.941 122.813 101.868 122.806 101.795L122.804 101.782L122.868 101.775L122.87 101.788C122.879 101.863 122.886 101.937 122.89 102.003L122.826 102.007Z" fill="white"/>
<path opacity="0.14" d="M134.125 103.032L134.253 106.178L134.133 106.55L132.309 109.866L131.414 111.464L131.082 111.933L132.25 109.353L133.742 106.251L133.837 102.824L134.125 103.032Z" fill="#403F41"/>
<path d="M131.942 106.506L131.94 106.441C132.066 106.439 132.196 106.426 132.322 106.404L132.334 106.468C132.205 106.49 132.073 106.503 131.942 106.506ZM131.549 106.486C131.418 106.468 131.288 106.441 131.162 106.406L131.179 106.344C131.301 106.379 131.429 106.406 131.555 106.424L131.549 106.486ZM132.716 106.371L132.698 106.309C132.785 106.284 132.919 106.247 133.079 106.211L133.092 106.275C132.935 106.311 132.8 106.346 132.716 106.371ZM134.622 106.291C134.388 106.284 134.268 106.227 134.242 106.211H134.24C134.237 106.211 134.237 106.209 134.237 106.209L134.242 106.2L134.246 106.18L134.259 106.149L134.271 106.154C134.271 106.154 134.381 106.22 134.624 106.227L134.622 106.291ZM130.795 106.264C130.622 106.185 130.507 106.105 130.452 106.065L130.489 106.012C130.543 106.05 130.655 106.125 130.821 106.205L130.795 106.264ZM135.018 106.26L135.007 106.196C135.124 106.176 135.25 106.145 135.381 106.105L135.4 106.167C135.266 106.207 135.137 106.238 135.018 106.26ZM133.474 106.209L133.466 106.145C133.605 106.127 133.738 106.116 133.859 106.114V106.178C133.74 106.18 133.609 106.191 133.474 106.209ZM130.151 105.826C130.049 105.769 129.932 105.72 129.8 105.68L129.817 105.618C129.954 105.658 130.078 105.709 130.184 105.771L130.151 105.826ZM127.011 105.76C126.916 105.76 126.815 105.755 126.711 105.747L126.717 105.682C126.852 105.693 126.98 105.698 127.102 105.693L127.104 105.758C127.073 105.76 127.042 105.76 127.011 105.76ZM127.496 105.718L127.485 105.654L127.491 105.651C127.493 105.651 127.641 105.618 127.869 105.583L127.878 105.647C127.653 105.68 127.507 105.713 127.504 105.713L127.496 105.718ZM126.319 105.696C126.195 105.674 126.065 105.647 125.934 105.616L125.95 105.552C126.078 105.583 126.206 105.609 126.33 105.632L126.319 105.696ZM129.421 105.603C129.302 105.587 129.172 105.576 129.037 105.572L129.039 105.508C129.176 105.512 129.309 105.523 129.43 105.541L129.421 105.603ZM128.263 105.598L128.256 105.534C128.389 105.521 128.522 105.512 128.648 105.508L128.65 105.572C128.526 105.576 128.395 105.587 128.263 105.598ZM125.559 105.512C125.433 105.474 125.307 105.432 125.187 105.388L125.209 105.326C125.329 105.37 125.452 105.412 125.576 105.45L125.559 105.512ZM124.851 105.178C124.754 105.092 124.65 105.016 124.544 104.95L124.577 104.895C124.687 104.963 124.794 105.041 124.893 105.129L124.851 105.178ZM122.31 104.793L122.291 104.731C122.417 104.691 122.545 104.658 122.671 104.631L122.684 104.696C122.56 104.72 122.434 104.753 122.31 104.793ZM124.201 104.78C124.084 104.733 123.96 104.698 123.832 104.673L123.845 104.609C123.975 104.636 124.104 104.673 124.223 104.72L124.201 104.78ZM123.064 104.638L123.058 104.574C123.19 104.563 123.321 104.558 123.451 104.563L123.449 104.627C123.323 104.623 123.195 104.625 123.064 104.638Z" fill="white"/>
<path opacity="0.04" d="M133.742 106.251L130.826 110.674L131.038 106.497L131.182 104.437L131.272 103.114L131.277 103.065C131.365 103.109 131.456 103.16 131.551 103.213C131.553 103.213 131.555 103.215 131.558 103.215C131.56 103.215 131.562 103.218 131.566 103.218C131.65 103.235 132.157 103.33 132.276 103.195L132.27 103.295C132.486 103.284 132.811 103.249 133.273 103.151L133.742 106.251Z" fill="#403F41"/>
<path d="M127.445 94.9824C127.516 94.0376 128.084 93.1437 128.935 92.7211C129.344 92.5175 129.842 92.4003 130.399 92.5286C130.399 92.5286 131.852 92.7499 132.276 94.0907C132.276 94.0907 132.659 95.1749 131.894 96.7458C131.894 96.7458 131.602 97.4494 131.973 98.0357C131.973 98.0357 132.522 98.8367 132.051 100.54L126.981 101.051C126.981 101.051 125.813 101.222 126.174 99.3212C126.174 99.3212 126.556 98.7946 126.191 98.4052C126.191 98.4052 125.594 97.6441 126.496 96.7259C126.496 96.7259 127.452 95.8851 127.438 95.0709C127.441 95.0731 127.441 95.0399 127.445 94.9824Z" fill="black"/>
<path d="M128.71 97.6176L128.971 97.8432L128.511 98.8964L128.294 98.184L128.513 97.726L128.71 97.6176Z" fill="#0C1C2B"/>
<path d="M130.799 97.6662C130.799 97.6662 130.527 97.4162 130.317 97.4826L130.496 98.6486L130.897 97.8985L130.799 97.6662Z" fill="#0C1C2B"/>
<path d="M124.573 102.645C124.573 102.645 124.575 103.465 126.824 103.282L126.569 102.454L125.948 102.085L125.192 102.253L124.69 102.352L124.573 102.645Z" fill="#203A55"/>
<path d="M134.284 102.651C134.284 102.651 134.103 103.226 132.239 103.43L132.65 102.773L133.455 102.273L134.039 102.257L134.255 102.492L134.284 102.651Z" fill="#203A55"/>
<path d="M131.073 108.231C131.071 108.264 131.047 108.298 131.012 108.307C130.998 108.309 130.987 108.311 130.974 108.311C130.91 108.311 130.855 108.273 130.832 108.211L130.691 107.811L130.373 107.342L130.377 107.441L130.662 107.913L130.852 108.49L130.905 108.652C130.921 108.7 130.886 108.756 130.835 108.762L130.804 108.767C130.801 108.767 130.801 108.767 130.799 108.767C130.744 108.771 130.695 108.742 130.675 108.692L130.408 108.041L130.034 107.596L130.37 108.121L130.58 108.652L130.64 108.804C130.649 108.824 130.644 108.851 130.631 108.869C130.605 108.906 130.58 108.928 130.556 108.944C130.479 108.992 130.419 108.942 130.419 108.942C130.251 108.869 130.061 108.251 130.061 108.251L129.802 107.857L129.627 107.707L129.879 108.178L129.986 108.472L130.019 108.568C130.032 108.605 130.012 108.649 129.972 108.663C129.95 108.669 129.928 108.669 129.906 108.665C129.851 108.654 129.804 108.61 129.784 108.585C129.776 108.576 129.769 108.565 129.764 108.552C129.521 107.995 129.34 107.831 129.34 107.831C129.002 107.541 128.807 107.003 128.807 107.003C128.666 106.665 128.168 106.596 128.168 106.596L125.221 105.625C124.838 105.534 124.818 105.295 124.834 105.18C124.84 105.129 124.845 105.076 124.845 105.025C124.836 104.218 125.172 102.386 125.172 102.386L126.565 102.456L126.09 104.457C126.545 104.881 128.462 105.592 128.933 105.762C129.004 105.786 129.066 105.826 129.121 105.875L129.179 105.926C129.221 105.963 129.269 105.997 129.322 106.021L129.813 106.247C129.873 106.273 129.928 106.311 129.979 106.353L130.395 106.707C130.437 106.742 130.472 106.786 130.496 106.837L130.897 107.649C130.901 107.656 130.903 107.663 130.905 107.669L131.016 108.032L131.069 108.205C131.073 108.214 131.076 108.222 131.073 108.231Z" fill="#FFC0AF"/>
<path d="M129.979 108.658C129.957 108.665 129.935 108.665 129.913 108.661L129.853 108.559L129.992 108.47L130.025 108.565C130.039 108.599 130.019 108.645 129.979 108.658Z" fill="white"/>
<path d="M130.635 108.864C130.609 108.902 130.585 108.924 130.56 108.939C130.459 108.884 130.445 108.758 130.445 108.758L130.585 108.647L130.644 108.8C130.651 108.82 130.649 108.844 130.635 108.864Z" fill="white"/>
<path d="M130.837 108.758L130.806 108.762C130.804 108.762 130.804 108.762 130.801 108.762L130.717 108.59L130.854 108.486L130.907 108.647C130.925 108.696 130.89 108.751 130.837 108.758Z" fill="white"/>
<path d="M131.073 108.231C131.071 108.265 131.047 108.298 131.011 108.307C130.998 108.309 130.987 108.311 130.974 108.311L130.91 108.143L131.018 108.034L131.071 108.207C131.073 108.214 131.076 108.222 131.073 108.231Z" fill="white"/>
<path d="M131.148 111.566L131.177 111.552L131.011 111.844L131.148 111.566Z" fill="#FFE0AE"/>
<path d="M134.158 106.072C134.165 106.227 134.127 106.384 134.05 106.525L132.173 110.021L131.627 111.101L131.518 111.305C131.516 111.309 131.512 111.316 131.509 111.32L131.414 111.462L131.134 112.002C131.127 112.017 131.116 112.03 131.105 112.041L130.963 112.179L130.899 112.24C130.893 112.247 130.886 112.249 130.877 112.249C130.859 112.249 130.844 112.243 130.833 112.232C130.824 112.223 130.813 112.187 130.811 112.172C130.811 112.17 130.811 112.165 130.811 112.163L130.966 111.966L131.18 111.548L131.014 111.84L130.926 111.997L130.851 112.094L130.508 112.446L130.393 112.521C130.346 112.552 130.289 112.533 130.273 112.482L130.271 112.475L130.267 112.457C130.247 112.391 130.269 112.316 130.322 112.265L130.548 112.024L130.775 111.641L130.444 112.075L130.127 112.296L130.03 112.362C129.97 112.404 129.898 112.382 129.871 112.325C129.867 112.316 129.864 112.307 129.862 112.296C129.86 112.287 129.86 112.276 129.86 112.265C129.862 112.227 129.878 112.192 129.904 112.163L130.293 111.831L130.545 111.362L130.167 111.78L129.86 112.097L129.82 112.112L129.802 112.119L129.743 112.143C129.694 112.161 129.645 112.132 129.639 112.083C129.639 112.079 129.637 112.072 129.639 112.066L129.641 112.044C129.645 111.964 129.683 111.886 129.745 111.833L129.776 111.807L130.28 111.194L130.501 110.705L130.508 110.579L129.858 110.975C129.785 111.019 129.696 111.017 129.634 110.968L129.59 110.935C129.588 110.935 129.588 110.933 129.586 110.931C129.542 110.891 129.555 110.811 129.614 110.785C129.668 110.758 129.732 110.727 129.8 110.689C129.953 110.603 130.123 110.49 130.214 110.371C130.214 110.371 130.495 110.105 130.689 109.95C130.689 109.95 130.972 109.72 131.193 109.643C131.282 109.612 131.355 109.543 131.392 109.457L132.883 106.045L132.626 102.514L134.028 102.543L134.158 106.072Z" fill="#FFC0AF"/>
<path d="M129.793 110.701L129.784 110.866L129.581 110.942C129.537 110.902 129.55 110.822 129.61 110.796C129.66 110.771 129.725 110.738 129.793 110.701Z" fill="white"/>
<path d="M129.8 112.13L129.74 112.154C129.692 112.172 129.643 112.143 129.636 112.094L129.745 112.041L129.8 112.13Z" fill="white"/>
<path d="M130.125 112.305L130.027 112.371C129.968 112.413 129.895 112.391 129.868 112.333L130.016 112.232C130.052 112.232 130.094 112.271 130.125 112.305Z" fill="white"/>
<path d="M130.503 112.451L130.388 112.526C130.341 112.557 130.284 112.537 130.268 112.486L130.266 112.479L130.372 112.38L130.503 112.451Z" fill="white"/>
<path d="M130.961 112.181L130.897 112.243C130.89 112.25 130.884 112.252 130.875 112.252C130.857 112.252 130.841 112.246 130.83 112.234L130.888 112.163L130.961 112.181Z" fill="white"/>
<path d="M134.284 102.651C134.284 102.651 134.18 102.558 133.948 102.552C133.895 102.549 133.835 102.554 133.766 102.563C133.459 102.607 133.004 102.791 132.369 103.317C132.325 103.353 132.283 103.39 132.236 103.43L132.048 103.432L131.113 103.443L126.821 103.282L130.412 99.7638L130.941 98.861L131.29 98.2614C131.29 98.2614 131.334 98.2747 131.407 98.2968C131.635 98.3654 132.152 98.5159 132.555 98.5977C132.555 98.5977 133.267 98.6707 133.525 99.6354C133.525 99.6354 133.594 99.8965 133.691 100.266C133.733 100.425 133.78 100.605 133.828 100.79C134.043 101.611 134.288 102.58 134.284 102.651Z" fill="url(#paint5_linear_624_3)"/>
<path opacity="0.28" d="M132.237 103.428L132.049 103.43C132.049 103.43 132.277 102.379 132.268 101.609C132.31 102.233 132.319 102.899 132.237 103.428Z" fill="#629282"/>
<path d="M129.601 100.432L126.826 103.282C126.379 102.715 125.648 102.602 125.139 102.6C125.084 102.6 125.028 102.6 124.98 102.605C124.737 102.614 124.575 102.647 124.575 102.647L125.289 100.877C125.813 99.2947 126.315 99.1332 126.315 99.1332L128.122 98.3455L129.601 100.432Z" fill="url(#paint6_linear_624_3)"/>
<path opacity="0.1" d="M127.014 100.624C126.89 101.131 126.751 101.563 126.826 103.28L128.515 103.474C128.515 103.474 126.981 103.434 127.129 100.633C127.131 100.563 127.032 100.554 127.014 100.624Z" fill="#2A3C36"/>
<path opacity="0.1" d="M132.237 103.428L132.049 103.43L131.113 103.441C131.113 103.441 132.066 102.737 132.055 100.147C132.055 100.111 132.106 100.1 132.111 100.135C132.15 100.41 132.197 100.788 132.234 101.213C132.245 101.341 132.256 101.474 132.265 101.609C132.31 102.233 132.318 102.899 132.237 103.428Z" fill="#2A3C36"/>
<path opacity="0.1" d="M132.409 100.436L132.298 102.302L132.553 100.432L132.409 100.436Z" fill="#2A3C36"/>
<path opacity="0.1" d="M125.397 101.552L125.139 102.598C125.083 102.598 125.028 102.598 124.979 102.602L125.397 101.552Z" fill="#2A3C36"/>
<path opacity="0.1" d="M130.812 99.3986L130.943 98.8588L131.292 98.2592C131.292 98.2592 131.337 98.2724 131.41 98.2946C131.41 98.2946 131.425 98.6442 130.812 99.3986Z" fill="#2A3C36"/>
<path d="M130.702 98.5225L129.413 100.642L129.052 99.7704L128.595 98.6685L128.61 98.4805L128.78 96.2701L130.598 97.1994L130.571 97.8521V97.8875L130.549 98.4473L130.702 98.5225Z" fill="#FFC0AF"/>
<path d="M130.596 97.8742L130.569 97.8875L129.977 98.2061C129.694 98.3588 129.475 98.6132 129.362 98.9186L129.05 99.7704L128.652 98.5645L128.606 98.4805L128.776 96.2701L130.569 97.8521L130.596 97.8742Z" fill="#EEB3A3"/>
<path d="M128.975 94.874C128.975 94.874 129.712 95.1328 130.976 93.927C130.976 93.927 131.242 94.3385 131.54 94.5288C131.54 94.5288 131.795 97.5069 130.309 97.8831C130.309 97.8831 128.799 98.0025 128.781 96.2723C128.781 96.2723 128.319 96.1528 128.469 95.7634C128.469 95.7634 128.489 95.4182 128.792 95.5023L128.975 94.874Z" fill="#FFC0AF"/>
<path d="M128.71 97.6176C128.71 97.6176 128.345 97.7304 128.657 98.5645C128.657 98.5645 129.134 99.8567 129.499 100.093L129.415 100.64L128.966 100.859C128.966 100.859 127.949 99.4651 128.064 98.476C128.062 98.4782 128.367 97.6684 128.71 97.6176Z" fill="#203A55"/>
<path d="M130.8 97.6662C130.8 97.6662 131.065 98.6376 126.826 103.282L127.695 103.488L127.972 103.065C127.972 103.065 131.193 99.496 131.293 98.2614L130.8 97.6662Z" fill="#001E3D"/>
<path d="M132.272 103.193L132.19 104.616L131.177 104.434L126.744 103.642L126.777 103.426L126.804 103.251V102.638C126.804 102.638 127.164 102.892 128.175 102.819H128.177C128.349 102.806 128.542 102.786 128.752 102.751C128.96 102.718 129.19 102.671 129.44 102.611C129.643 102.563 129.849 102.556 130.045 102.598C130.11 102.611 130.18 102.629 130.26 102.651C130.519 102.722 130.861 102.848 131.275 103.058C131.292 103.067 131.308 103.076 131.326 103.085C131.399 103.122 131.472 103.164 131.549 103.207C131.549 103.207 131.551 103.207 131.551 103.209H131.553C131.556 103.209 131.558 103.211 131.562 103.211C131.646 103.233 132.153 103.328 132.272 103.193Z" fill="#DCDBDE"/>
<path opacity="0.14" d="M127.48 102.822L127.6 103.8L126.744 103.647L126.463 104.707L126.092 104.454L126.366 103.306L126.802 103.282V102.642L127.113 102.766C127.129 102.773 127.144 102.777 127.16 102.779L127.48 102.822Z" fill="#403F41"/>
<path opacity="0.04" d="M129.44 102.616L129.207 104.085L127.485 114.924L128.237 103.91L128.312 102.813L129.44 102.616Z" fill="#403F41"/>
<path d="M128.133 105.455L128.964 105.769L128.794 106.957C128.794 106.957 128.703 106.789 128.436 106.667L128.004 106.534L128.133 105.455Z" fill="#FFC0AF"/>
<path opacity="0.04" d="M132.272 103.193L132.19 104.616L131.177 104.435L131.323 103.089C131.396 103.127 131.469 103.169 131.547 103.211C131.547 103.211 131.549 103.211 131.549 103.213H131.551C131.553 103.213 131.555 103.215 131.56 103.215C131.646 103.233 132.152 103.328 132.272 103.193Z" fill="#403F41"/>
<path d="M109.8 55.7511C109.8 55.7511 109.605 60.0391 110.547 63.7053C110.547 63.7053 110.892 65.1679 110.998 66.2078C111.098 67.2012 111.281 68.1836 111.569 69.1394C112.073 70.8188 112.862 73.0292 113.725 73.8876C113.725 73.8876 117.083 77.191 117.503 77.9544C117.503 77.9544 118.213 79.7465 120.356 80.074C120.356 80.074 122.41 80.1315 123.872 78.554C123.872 78.554 129.298 74.4142 129.422 72.2614C129.422 72.2614 129.965 66.5905 128.904 63.5018L126.757 53.866C126.757 53.866 124.298 49.5227 124.135 49.4652C123.971 49.4099 120.973 49.1842 120.511 49.1842C120.048 49.1842 112.528 52.4411 112.528 52.4411L109.8 55.7511Z" fill="#FFC0AF"/>
<path d="M110.466 63.369C110.466 63.369 107.731 57.7159 108.221 55.9193C108.221 55.9193 107.187 53.7288 107.786 51.9897C107.786 51.9897 108.44 49.9674 109.256 49.5758L111.164 48.1155L114.165 45.914C114.857 45.4051 115.671 45.0865 116.526 44.9957C119.091 44.7214 124.484 44.6329 126.207 48.3943L127.405 48.4872C127.405 48.4872 130.076 48.6885 130.24 57.6937L128.904 63.4996L128.146 62.88C127.898 62.6787 127.739 62.3844 127.706 62.0592C127.602 61.0834 127.133 58.8775 125.011 57.6937V55.2267C125.011 54.7023 124.794 54.2045 124.414 53.8571L122.322 51.9344C122.322 51.9344 113.948 55.3595 109.807 55.7533C109.8 55.7511 110.382 63.0349 110.466 63.369Z" fill="black"/>
<path d="M121.254 68.3827L118.7 70.124L116.122 69.3386L116.529 66.7565C117.208 63.6124 116.122 63.2186 116.122 63.2186C116.122 63.2186 113.581 61.7804 110.466 63.3712L111.437 63.9841C111.437 63.9841 114.616 62.6167 115.861 63.9841C115.861 63.9841 116.695 64.5151 116.288 66.7277L115.861 69.5067L118.702 70.3763L121.254 68.3827Z" fill="#D97F6B"/>
<path d="M126.903 61.511C126.839 62.3252 126.939 63.1417 127.195 63.9139L127.688 65.3896L127.934 66.1242C128.548 66.8986 129.256 66.2614 129.256 66.2614C129.395 65.976 130.143 65.4051 130.536 65.1197C130.585 65.0843 130.631 65.0467 130.678 65.0069C130.819 64.8874 130.945 64.7524 131.056 64.602C131.191 64.4183 131.308 64.2303 131.412 64.04C131.807 63.3098 131.995 62.5531 132.077 61.927C132.186 61.1127 132.121 60.5264 132.121 60.5264C131.995 57.8558 130.043 57.546 130.043 57.546C129.03 57.2695 128.354 57.5372 127.903 57.9974C127.328 58.5815 127.199 59.586 127.173 60.1149C127.16 60.387 127.12 60.6547 127.054 60.918L126.903 61.511Z" fill="#FFC0AF"/>
<path d="M127.668 63.9576C127.763 64.2452 127.903 64.3359 128.035 64.3426C128.219 64.3536 128.387 64.2032 128.387 64.2032C128.467 63.9178 128.641 63.7031 128.811 63.5527C128.993 63.3934 129.216 63.296 129.453 63.2562C129.607 63.2296 129.745 63.1743 129.86 63.108C130.05 62.9995 130.182 62.8646 130.249 62.7871C130.28 62.7495 130.297 62.7274 130.297 62.7274C130.678 62.0194 130.368 61.6521 130.368 61.6521C130.032 61.1056 128.606 60.871 128.057 60.8002C128.055 60.8002 128.055 60.8002 128.053 60.8002C127.938 60.7847 127.832 60.871 127.819 60.9905L127.653 62.4375L127.62 62.7274L127.615 62.7694L127.653 62.8624L127.874 63.4044L127.668 63.9576Z" fill="#F0AFA1"/>
<path opacity="0.27" d="M130.479 62.1942C130.479 62.1942 130.956 60.4927 129.121 60.9994L130.479 62.1942Z" fill="#E98773"/>
<path d="M128.117 60.8113C128.135 60.8533 128.15 60.8954 128.166 60.933V60.9352C128.309 61.2936 128.373 61.4618 128.378 61.4751C128.349 61.3755 128.338 61.2936 128.338 61.2228C128.338 61.2051 128.338 61.1874 128.34 61.1697C128.349 61.0458 128.38 60.9463 128.376 60.8091C128.338 60.028 128.725 59.6917 129.156 59.5568C129.242 59.5302 129.329 59.5103 129.415 59.497C130.116 59.3908 130.77 60.3378 130.77 60.3378C130.934 60.8799 131.044 61.5525 131.095 61.8977C131.131 62.1433 131.115 62.3933 131.042 62.63C130.85 63.2451 130.392 63.4465 130.156 63.5106C130.027 63.546 129.93 63.6567 129.921 63.7938C129.912 63.9133 129.972 63.9819 130.047 64.0195C130.18 64.0881 130.344 64.0549 130.445 63.9421C130.456 63.9288 130.467 63.9178 130.478 63.9045C130.498 63.8824 130.516 63.8602 130.534 63.8403C130.609 63.7518 130.677 63.6655 130.737 63.5792C130.737 63.5792 130.737 63.577 130.739 63.577C131.051 63.1433 131.204 62.7384 131.279 62.422C131.303 62.3181 131.319 62.2251 131.327 62.1433C131.336 62.0702 131.341 62.0061 131.343 61.9508C131.343 61.9397 131.343 61.9286 131.343 61.9198C131.343 61.9132 131.343 61.9043 131.343 61.8977C131.343 61.8888 131.343 61.88 131.343 61.8711C131.343 61.8601 131.343 61.8512 131.343 61.8424C131.341 61.7605 131.343 61.6786 131.347 61.5968C131.363 61.2427 131.319 60.8688 131.248 60.5237C131.246 60.5126 131.243 60.5015 131.241 60.4905C131.239 60.4794 131.237 60.4683 131.235 60.4573C131.232 60.4462 131.23 60.4351 131.228 60.4241C131.226 60.4108 131.221 60.3975 131.219 60.3843C131.217 60.371 131.213 60.3555 131.21 60.3422C131.208 60.3289 131.204 60.3157 131.201 60.3024C131.179 60.2117 131.157 60.1254 131.133 60.0413C131.131 60.0325 131.128 60.0214 131.124 60.0125C131.12 59.9971 131.115 59.9838 131.111 59.9683C131.089 59.8931 131.067 59.8201 131.044 59.7537C131.042 59.7448 131.04 59.736 131.036 59.7293C131.031 59.7116 131.025 59.6961 131.02 59.6807C131.016 59.6674 131.011 59.6563 131.007 59.643C131.007 59.6386 131.005 59.6364 131.002 59.632C131 59.6231 130.996 59.6121 130.994 59.6032C130.991 59.5944 130.987 59.5833 130.985 59.5745C130.978 59.5568 130.971 59.5368 130.965 59.5191C130.958 59.5014 130.954 59.486 130.947 59.4705C130.941 59.4528 130.934 59.4373 130.929 59.4196C130.81 59.0988 130.596 58.8222 130.31 58.643C129.594 58.1916 128.767 58.5168 128.471 58.6607C128.444 58.6739 128.418 58.6872 128.391 58.7027C128.373 58.7138 128.356 58.7248 128.34 58.7359C128.327 58.7447 128.316 58.7536 128.303 58.7624C128.303 58.7624 128.303 58.7624 128.3 58.7624C128.276 58.7801 128.254 58.8001 128.234 58.82C128.214 58.8399 128.194 58.8576 128.177 58.8797C128.073 58.9948 128 59.1231 127.953 59.2603C127.783 59.7515 127.929 60.3444 128.117 60.8113Z" fill="#E98773"/>
<path opacity="0.69" d="M127.688 65.3891L127.869 65.9312C127.94 66.1458 128.088 66.325 128.285 66.4246C128.548 66.5573 128.8 66.5087 128.982 66.4312C129.116 66.3737 129.234 66.2763 129.322 66.1591C129.554 65.856 130.184 65.3758 130.536 65.1192C130.585 65.0838 130.631 65.0461 130.677 65.0063C130.819 64.8868 130.945 64.7519 131.056 64.6014C131.19 64.4178 131.308 64.2297 131.412 64.0394C131.807 63.3093 131.995 62.5526 132.077 61.9264L131.936 61.8357C131.936 61.8357 131.936 61.8379 131.936 61.8401C131.936 61.8423 131.936 61.8445 131.936 61.8468C131.936 61.8556 131.933 61.8711 131.931 61.891C131.931 61.8954 131.931 61.8999 131.929 61.9021C131.883 62.307 131.557 64.4089 129.85 65.1435C129.651 65.2298 129.475 65.3625 129.342 65.5373C129.329 65.5528 129.318 65.5705 129.304 65.5882C128.964 66.0684 128.276 66.106 127.889 65.6657C127.823 65.586 127.754 65.4953 127.688 65.3891Z" fill="#F0AFA1"/>
<path d="M128.559 63.8757C128.568 63.8669 128.572 63.8602 128.572 63.8602C128.862 63.535 129.329 63.5084 129.329 63.5084C129.572 63.5151 129.693 63.2053 129.859 63.1124C129.194 63.2363 128.462 62.5504 128.462 62.5504C128.34 62.3004 128.053 62.2981 128.053 62.2981C127.821 62.2738 127.703 62.3424 127.65 62.442C127.599 62.5305 127.604 62.6455 127.617 62.7318C127.628 62.807 127.648 62.8624 127.65 62.8668L127.871 63.4089L127.721 63.8138C127.832 64.6501 128.46 63.9863 128.559 63.8757Z" fill="#E98773"/>
<path d="M128.013 60.5215C128.044 60.621 128.08 60.7184 128.117 60.8113C128.21 60.8135 128.296 60.8135 128.376 60.8091C129.725 60.7494 129.338 59.8466 129.338 59.8466C129.285 59.7316 129.225 59.6364 129.157 59.5568C128.796 59.132 128.263 59.1851 127.951 59.2647C127.92 59.3532 127.901 59.4439 127.89 59.5369C127.852 59.8599 127.914 60.2051 128.013 60.5215Z" fill="#D97F6B"/>
<path d="M128.013 60.5214C128.25 60.5967 128.433 60.6232 128.575 60.6166C129.161 60.59 129.01 59.9948 129.01 59.9948C128.873 59.4306 128.212 59.4771 127.889 59.5368C127.876 59.6408 127.874 59.7493 127.881 59.8555C127.896 60.0811 127.947 60.309 128.013 60.5214Z" fill="#BF5E55"/>
<path d="M127.876 64.1899C127.956 64.2231 128.049 64.2297 128.131 64.201C128.206 64.1766 128.274 64.1279 128.323 64.0505C128.69 63.4841 128.206 62.807 128.206 62.807C127.996 62.4818 127.794 62.5836 127.688 62.6831C127.637 62.7296 127.622 62.8026 127.649 62.8668C127.684 62.9553 127.713 63.0482 127.73 63.1411C127.77 63.3469 127.768 63.5593 127.721 63.7629C127.721 63.785 127.686 64.0771 127.876 64.1899Z" fill="#A5514A"/>
<path d="M130.37 59.8908C130.37 59.8908 130.786 60.1431 130.979 61.2007L130.89 60.2471L130.355 59.539L130.37 59.8908Z" fill="#E98773"/>
<path d="M128.117 60.8113C128.128 60.8467 128.139 60.8865 128.153 60.9308C128.157 60.9418 128.159 60.9551 128.164 60.9662C128.17 60.9861 128.177 61.0082 128.184 61.0281C128.287 61.3534 128.478 61.7826 128.836 61.745C128.836 61.745 128.975 61.7118 129.165 61.7007C129.632 61.6742 130.412 61.7738 130.249 62.7893C130.28 62.7517 130.297 62.7296 130.297 62.7296C130.41 62.5216 130.461 62.3424 130.479 62.1941C130.521 61.8379 130.366 61.6565 130.366 61.6565C130.03 61.1078 128.663 60.8821 128.117 60.8113Z" fill="#BF5E55"/>
<path d="M128.117 60.8113C128.135 60.871 128.155 60.9462 128.181 61.0303C128.612 61.0436 130.461 61.1609 130.476 62.1941C130.518 61.8379 130.364 61.6565 130.364 61.6565C130.03 61.1078 128.663 60.8821 128.117 60.8113Z" fill="#E98773"/>
<path d="M128.164 60.9684C128.17 60.9883 128.177 61.0104 128.183 61.0303C128.287 61.3556 128.478 61.7848 128.836 61.7472C128.836 61.7472 128.975 61.714 129.167 61.7029C128.942 61.4883 129.052 61.1233 129.052 61.1233L128.232 60.9529L128.164 60.9684Z" fill="#B2584F"/>
<path opacity="0.63" d="M127.883 59.8577C127.883 59.8577 128.884 59.9904 128.573 60.6166H128.575C129.161 60.59 129.01 59.9948 129.01 59.9948C128.873 59.4306 128.212 59.4771 127.889 59.5368C127.878 59.643 127.876 59.7493 127.883 59.8577Z" fill="#B2584F"/>
<path d="M131.962 60.5568C131.962 60.5568 132.006 61.0967 131.935 61.8357C131.935 61.8357 131.935 61.8379 131.935 61.8401C131.935 61.8423 131.935 61.8446 131.935 61.8468C131.933 61.8623 131.933 61.8755 131.931 61.891C131.931 61.8954 131.931 61.8999 131.929 61.9021C131.851 62.6278 131.661 63.5305 131.212 64.2983L131.411 64.0372C131.807 63.3071 131.995 62.5504 132.077 61.9242C132.185 61.11 132.121 60.5236 132.121 60.5236C131.995 57.8531 130.043 57.5433 130.043 57.5433C129.03 57.2667 128.353 57.5344 127.902 57.9947C127.9 57.9925 131.628 56.687 131.962 60.5568Z" fill="#FFD3C8"/>
<path opacity="0.44" d="M131.142 60.652C131.182 60.798 131.239 61.048 131.264 61.3644C131.312 62.0326 131.208 62.9995 130.476 63.9089C130.496 63.8867 130.514 63.8646 130.532 63.8447C130.607 63.7562 130.675 63.6677 130.737 63.5814C131.049 63.1477 131.202 62.7428 131.277 62.4264C131.301 62.3225 131.317 62.2295 131.326 62.1454C131.341 62.0171 131.343 61.9131 131.341 61.8445C131.339 61.7627 131.341 61.6808 131.345 61.5989C131.379 60.8953 131.166 60.1187 131.003 59.6342C130.976 59.5567 130.952 59.4859 130.928 59.424C130.808 59.1031 130.594 58.8266 130.308 58.6474C129.592 58.196 128.765 58.5212 128.469 58.6651C128.383 58.7071 128.303 58.7602 128.234 58.8266C128.234 58.8266 128.312 58.8133 128.442 58.8044C129.002 58.7668 130.532 58.8244 131.089 60.4772C131.091 60.4882 131.096 60.4993 131.098 60.5126C131.098 60.5126 131.109 60.5413 131.124 60.5922C131.129 60.6033 131.131 60.6166 131.135 60.6276C131.138 60.6343 131.14 60.6431 131.142 60.652Z" fill="#BF5E55"/>
<path d="M128.152 60.9308C128.157 60.9418 128.159 60.9551 128.163 60.9662C128.17 60.9861 128.177 61.0082 128.183 61.0281C128.23 61.1719 128.294 61.3379 128.38 61.4728C128.471 61.6144 128.59 61.7251 128.743 61.7428C128.771 61.7472 128.802 61.7472 128.833 61.7428C128.833 61.7428 128.973 61.7096 129.163 61.6985C129.145 61.6963 128.712 61.6189 128.438 61.3401C128.402 61.3047 128.369 61.2649 128.34 61.2206C128.289 61.1432 128.25 61.0524 128.23 60.9507L128.168 60.933L128.152 60.9308Z" fill="#A6524A"/>
<path d="M128.13 64.2032C128.206 64.1788 128.274 64.1301 128.323 64.0527C128.61 63.6058 128.374 63.0924 128.259 62.8933C128.217 62.8225 128.142 62.7738 128.062 62.776C127.993 62.7783 127.929 62.8114 127.945 62.9464C127.951 62.9973 127.956 63.0482 127.956 63.0991C127.958 63.3469 127.976 64.0262 128.13 64.2032Z" fill="#8F4640"/>
<path d="M127.617 62.7318C128.013 62.2561 128.298 62.6522 128.298 62.6522C129.068 63.4797 129.859 63.1124 129.859 63.1124C129.194 63.2363 128.462 62.5504 128.462 62.5504C128.34 62.3004 128.053 62.2981 128.053 62.2981C127.821 62.2738 127.703 62.3424 127.65 62.442C127.599 62.5305 127.602 62.6433 127.617 62.7318Z" fill="#ED9D8C"/>
<path d="M128.254 64.0062C128.294 64.0328 128.345 64.0173 128.367 63.9753C128.584 63.5482 128.367 63.0814 128.259 62.8933C128.259 62.8933 128.095 62.8203 128.104 63.0017L128.195 63.9045C128.199 63.9465 128.221 63.9841 128.254 64.0062Z" fill="#8F4640"/>
<path d="M127.954 59.2647C128 59.1275 128.073 58.9992 128.177 58.8841C128.195 58.8642 128.215 58.8443 128.234 58.8244C128.257 58.8045 128.279 58.7846 128.301 58.7669C128.301 58.7669 128.301 58.7669 128.303 58.7669C128.316 58.758 128.327 58.7492 128.341 58.7403C128.358 58.7293 128.374 58.7182 128.391 58.7071C128.418 58.6916 128.442 58.6784 128.471 58.6651C128.767 58.5213 129.597 58.1982 130.311 58.6474C130.596 58.8266 130.81 59.1032 130.93 59.424C130.936 59.4395 130.941 59.4572 130.948 59.4749C130.954 59.4904 130.959 59.5081 130.965 59.5236C130.972 59.5413 130.978 59.559 130.985 59.5789C130.987 59.5877 130.992 59.5966 130.994 59.6077C130.996 59.6165 131.001 59.6276 131.003 59.6364C131.003 59.6408 131.005 59.6431 131.007 59.6475C131.012 59.6608 131.016 59.6718 131.02 59.6851C131.025 59.7006 131.032 59.7183 131.036 59.7338C131.038 59.7426 131.04 59.7515 131.045 59.7581C131.067 59.8267 131.089 59.8975 131.111 59.9727C131.116 59.9882 131.12 60.0015 131.124 60.017C131.127 60.0258 131.129 60.0369 131.133 60.0457C131.158 60.1298 131.18 60.2161 131.202 60.3068C131.204 60.3201 131.208 60.3334 131.211 60.3467C131.215 60.3599 131.217 60.3754 131.219 60.3887C131.222 60.402 131.226 60.4152 131.228 60.4285C131.231 60.4396 131.233 60.4506 131.235 60.4617C131.237 60.4728 131.239 60.4838 131.242 60.4949C131.244 60.506 131.246 60.517 131.248 60.5281C131.319 60.8732 131.363 61.245 131.348 61.6012C131.343 61.6831 131.341 61.7649 131.343 61.8468C131.343 61.8556 131.343 61.8645 131.343 61.8756C131.343 61.8844 131.343 61.8932 131.343 61.9021C131.343 61.9087 131.343 61.9154 131.343 61.9242C131.343 61.9353 131.343 61.9441 131.343 61.9552C131.341 62.0105 131.337 62.0747 131.328 62.1477C131.31 62.2428 131.295 62.3358 131.279 62.4265C131.206 62.7451 131.051 63.1478 130.74 63.5814C131.43 62.5791 131.264 61.3644 131.264 61.3644C131.142 59.0678 130.236 58.6651 130.236 58.6651C129.375 58.3266 128.774 58.5456 128.44 58.7846C128.418 58.7868 128.409 58.8089 128.4 58.8089C128.4 58.8089 127.644 59.2802 128.232 60.9551L128.17 60.9352C128.155 60.8976 128.139 60.8555 128.122 60.8135C127.929 60.3444 127.783 59.7515 127.954 59.2647Z" fill="#D97F6B"/>
<path d="M147.458 84.2624C147.458 84.2624 137.851 96.6617 139.684 108.959C139.684 108.959 141.49 114.433 142.05 118.181V119.179L145.576 116.217C145.576 116.217 146.22 103.346 146.388 101.717C146.556 100.087 147.898 87.5857 147.898 87.5857L147.458 84.2624Z" fill="#DFDFDF"/>
<path d="M153.924 133.006L151.741 133.313L150.448 133.495L146.594 134.037C146.154 134.099 145.709 134.13 145.265 134.13H138.932C137.842 134.13 136.763 133.933 135.741 133.548L133.908 132.857L128.975 131.415C128.511 131.28 128.038 131.182 127.558 131.132L120.358 130.335V119.907L132.066 119.411C132.526 119.392 132.986 119.418 133.442 119.491C134.439 119.65 136.248 119.9 136.559 119.704C136.723 119.6 137.05 119.573 137.395 119.58C137.437 119.58 137.479 119.58 137.524 119.58C138.35 119.58 139.164 119.387 139.894 118.982C140.137 118.849 140.396 118.748 140.666 118.681L142.737 118.179C142.808 117.768 142.711 116.991 142.523 116.051C142.507 115.973 142.492 115.896 142.474 115.816C142.353 115.232 142.2 114.592 142.034 113.942C141.344 111.254 140.411 108.373 140.411 108.373C139.029 95.7966 147.458 84.258 147.458 84.258C156.999 87.0082 157.05 99.974 157.05 99.974L157.532 101.97L157.632 105.904L159.014 120.053C159.155 131.284 153.924 133.006 153.924 133.006Z" fill="#EEEEEE"/>
<path d="M154.257 147.994L152.688 146.423V145.285H129.731V150.427H152.688V149.565L154.257 147.994Z" fill="#B5DAE5"/>
<path d="M154.257 179.583L152.688 178.012V176.93H129.731V182.074H152.688V181.154L154.257 179.583Z" fill="#B5DAE5"/>
<path d="M154.257 198.921L152.688 197.352V196.35H138.682V201.494H152.688V200.492L154.257 198.921Z" fill="#B5DAE5"/>
<path d="M107.093 189.404V190.395L105.515 191.975L107.093 193.553V194.546H134.074V189.404H107.093Z" fill="white"/>
<path d="M104.949 156.516V157.51L103.372 159.087L104.949 160.667V161.661H127.905V156.516H104.949Z" fill="white"/>
<path d="M105.064 164.654V165.429L103.487 167.006L105.064 168.586V169.796H136.741V164.654H105.064Z" fill="white"/>
<path d="M160.536 205.626V213.89C160.536 215.332 159.364 216.507 157.921 216.507H99.9024C98.4607 216.507 97.2866 215.334 97.2866 213.89V205.626H160.536Z" fill="#1A1A1A"/>
<path d="M152.179 128.735C150.105 123.118 142.735 118.183 142.735 118.183C142.81 117.739 142.691 116.867 142.474 115.82C149.663 119.398 152.104 128.454 152.179 128.735Z" fill="#DFDFDF"/>
<path d="M151.741 133.313L150.448 133.495C149.762 129.89 146.425 125.45 145.968 124.852C149.161 128.934 150.976 131.946 151.741 133.313Z" fill="#DFDFDF"/>
<path d="M142.032 113.946C142.372 108.127 144.809 103.919 146.602 101.569C143.52 106.143 142.704 113.703 142.52 116.053C142.505 115.975 142.489 115.898 142.472 115.818C142.35 115.236 142.198 114.597 142.032 113.946Z" fill="#DFDFDF"/>
<path d="M148.535 99.4075C148.433 99.496 147.622 100.233 146.6 101.571C147.166 100.731 147.807 99.9939 148.535 99.4075Z" fill="white"/>
<path d="M119.792 100.795C119.792 101.142 119.511 101.423 119.164 101.423C118.817 101.423 118.536 101.142 118.536 100.795C118.536 100.447 118.817 100.166 119.164 100.166C119.509 100.166 119.792 100.447 119.792 100.795Z" fill="#B3B3B3"/>
<path d="M119.113 101.372C119.46 101.372 119.741 101.091 119.741 100.744C119.741 100.397 119.46 100.116 119.113 100.116C118.767 100.116 118.485 100.397 118.485 100.744C118.485 101.091 118.767 101.372 119.113 101.372Z" fill="#E6E6E6"/>
<path d="M118.928 100.638C118.861 100.638 118.808 100.585 118.808 100.518C118.808 100.452 118.861 100.399 118.928 100.399C118.994 100.399 119.047 100.452 119.047 100.518C119.047 100.585 118.994 100.638 118.928 100.638Z" fill="#999999"/>
<path d="M118.928 101.109C118.861 101.109 118.808 101.056 118.808 100.99C118.808 100.923 118.861 100.87 118.928 100.87C118.994 100.87 119.047 100.923 119.047 100.99C119.047 101.056 118.994 101.109 118.928 101.109Z" fill="#999999"/>
<path d="M119.312 100.638C119.246 100.638 119.193 100.585 119.193 100.518C119.193 100.452 119.246 100.399 119.312 100.399C119.379 100.399 119.432 100.452 119.432 100.518C119.432 100.585 119.379 100.638 119.312 100.638Z" fill="#999999"/>
<path d="M119.312 101.109C119.246 101.109 119.193 101.056 119.193 100.99C119.193 100.923 119.246 100.87 119.312 100.87C119.379 100.87 119.432 100.923 119.432 100.99C119.432 101.056 119.379 101.109 119.312 101.109Z" fill="#999999"/>
<path d="M118.921 100.627C118.855 100.627 118.802 100.574 118.802 100.507C118.802 100.441 118.855 100.388 118.921 100.388C118.987 100.388 119.041 100.441 119.041 100.507C119.041 100.574 118.987 100.627 118.921 100.627Z" fill="#F2F2F2"/>
<path d="M118.921 101.098C118.855 101.098 118.802 101.045 118.802 100.978C118.802 100.912 118.855 100.859 118.921 100.859C118.987 100.859 119.041 100.912 119.041 100.978C119.041 101.045 118.987 101.098 118.921 101.098Z" fill="#F2F2F2"/>
<path d="M119.303 100.627C119.237 100.627 119.184 100.574 119.184 100.507C119.184 100.441 119.237 100.388 119.303 100.388C119.37 100.388 119.423 100.441 119.423 100.507C119.423 100.574 119.37 100.627 119.303 100.627Z" fill="#F2F2F2"/>
<path d="M119.303 101.098C119.237 101.098 119.184 101.045 119.184 100.978C119.184 100.912 119.237 100.859 119.303 100.859C119.37 100.859 119.423 100.912 119.423 100.978C119.423 101.045 119.37 101.098 119.303 101.098Z" fill="#F2F2F2"/>
<path d="M117.207 115.345C117.554 115.345 117.835 115.063 117.835 114.716C117.835 114.369 117.554 114.088 117.207 114.088C116.86 114.088 116.579 114.369 116.579 114.716C116.579 115.063 116.86 115.345 117.207 115.345Z" fill="#B3B3B3"/>
<path d="M117.784 114.665C117.784 115.013 117.503 115.294 117.156 115.294C116.809 115.294 116.528 115.013 116.528 114.665C116.528 114.318 116.809 114.037 117.156 114.037C117.503 114.037 117.784 114.318 117.784 114.665Z" fill="#E6E6E6"/>
<path d="M116.973 114.559C116.907 114.559 116.854 114.506 116.854 114.44C116.854 114.373 116.907 114.32 116.973 114.32C117.039 114.32 117.092 114.373 117.092 114.44C117.092 114.506 117.039 114.559 116.973 114.559Z" fill="#999999"/>
<path d="M116.973 115.03C116.907 115.03 116.854 114.977 116.854 114.911C116.854 114.845 116.907 114.792 116.973 114.792C117.039 114.792 117.092 114.845 117.092 114.911C117.092 114.977 117.039 115.03 116.973 115.03Z" fill="#999999"/>
<path d="M117.355 114.559C117.289 114.559 117.236 114.506 117.236 114.44C117.236 114.373 117.289 114.32 117.355 114.32C117.422 114.32 117.475 114.373 117.475 114.44C117.475 114.506 117.422 114.559 117.355 114.559Z" fill="#999999"/>
<path d="M117.355 115.03C117.289 115.03 117.236 114.977 117.236 114.911C117.236 114.845 117.289 114.792 117.355 114.792C117.422 114.792 117.475 114.845 117.475 114.911C117.475 114.977 117.422 115.03 117.355 115.03Z" fill="#999999"/>
<path d="M116.964 114.548C116.898 114.548 116.845 114.495 116.845 114.429C116.845 114.362 116.898 114.309 116.964 114.309C117.03 114.309 117.084 114.362 117.084 114.429C117.084 114.495 117.03 114.548 116.964 114.548Z" fill="#F2F2F2"/>
<path d="M116.964 115.019C116.898 115.019 116.845 114.966 116.845 114.9C116.845 114.834 116.898 114.781 116.964 114.781C117.03 114.781 117.084 114.834 117.084 114.9C117.084 114.966 117.03 115.019 116.964 115.019Z" fill="#F2F2F2"/>
<path d="M117.349 114.548C117.283 114.548 117.229 114.495 117.229 114.429C117.229 114.362 117.283 114.309 117.349 114.309C117.415 114.309 117.468 114.362 117.468 114.429C117.466 114.495 117.413 114.548 117.349 114.548Z" fill="#F2F2F2"/>
<path d="M117.349 115.019C117.283 115.019 117.229 114.966 117.229 114.9C117.229 114.834 117.283 114.781 117.349 114.781C117.415 114.781 117.468 114.834 117.468 114.9C117.466 114.966 117.413 115.019 117.349 115.019Z" fill="#F2F2F2"/>
<path d="M115.637 133.8C115.984 133.8 116.265 133.519 116.265 133.172C116.265 132.824 115.984 132.543 115.637 132.543C115.29 132.543 115.009 132.824 115.009 133.172C115.009 133.519 115.29 133.8 115.637 133.8Z" fill="#B3B3B3"/>
<path d="M116.214 133.121C116.214 133.468 115.934 133.749 115.586 133.749C115.239 133.749 114.958 133.468 114.958 133.121C114.958 132.773 115.239 132.492 115.586 132.492C115.931 132.492 116.214 132.773 116.214 133.121Z" fill="#E6E6E6"/>
<path d="M115.403 133.014C115.337 133.014 115.284 132.961 115.284 132.895C115.284 132.829 115.337 132.775 115.403 132.775C115.469 132.775 115.522 132.829 115.522 132.895C115.52 132.961 115.467 133.014 115.403 133.014Z" fill="#999999"/>
<path d="M115.403 133.486C115.337 133.486 115.284 133.433 115.284 133.366C115.284 133.3 115.337 133.247 115.403 133.247C115.469 133.247 115.522 133.3 115.522 133.366C115.52 133.433 115.467 133.486 115.403 133.486Z" fill="#999999"/>
<path d="M115.785 133.014C115.719 133.014 115.666 132.961 115.666 132.895C115.666 132.829 115.719 132.775 115.785 132.775C115.852 132.775 115.905 132.829 115.905 132.895C115.905 132.961 115.852 133.014 115.785 133.014Z" fill="#999999"/>
<path d="M115.785 133.486C115.719 133.486 115.666 133.433 115.666 133.366C115.666 133.3 115.719 133.247 115.785 133.247C115.852 133.247 115.905 133.3 115.905 133.366C115.905 133.433 115.852 133.486 115.785 133.486Z" fill="#999999"/>
<path d="M115.394 133.003C115.328 133.003 115.275 132.95 115.275 132.884C115.275 132.817 115.328 132.764 115.394 132.764C115.461 132.764 115.514 132.817 115.514 132.884C115.514 132.95 115.461 133.003 115.394 133.003Z" fill="#F2F2F2"/>
<path d="M115.394 133.475C115.328 133.475 115.275 133.422 115.275 133.355C115.275 133.289 115.328 133.236 115.394 133.236C115.461 133.236 115.514 133.289 115.514 133.355C115.514 133.422 115.461 133.475 115.394 133.475Z" fill="#F2F2F2"/>
<path d="M115.777 133.003C115.71 133.003 115.657 132.95 115.657 132.884C115.657 132.817 115.71 132.764 115.777 132.764C115.843 132.764 115.896 132.817 115.896 132.884C115.896 132.95 115.843 133.003 115.777 133.003Z" fill="#F2F2F2"/>
<path d="M115.777 133.475C115.71 133.475 115.657 133.422 115.657 133.355C115.657 133.289 115.71 133.236 115.777 133.236C115.843 133.236 115.896 133.289 115.896 133.355C115.896 133.422 115.843 133.475 115.777 133.475Z" fill="#F2F2F2"/>
<path d="M108.59 112.431C108.544 112.431 108.5 112.427 108.456 112.416C108.241 112.363 108.133 112.201 108.1 112.144C107.29 110.94 105.762 102.705 105.698 102.355L106.114 102.278C106.552 104.652 107.825 111.009 108.453 111.914L108.471 111.945C108.471 111.945 108.5 111.995 108.557 112.007C108.635 112.024 108.756 111.971 108.893 111.867L109.152 112.201C108.953 112.354 108.765 112.431 108.59 112.431Z" fill="#A39D9D"/>
<path d="M117.081 112.431C116.906 112.431 116.719 112.353 116.52 112.198L116.778 111.864C116.913 111.971 117.037 112.021 117.114 112.004C117.172 111.99 117.201 111.94 117.203 111.937L117.218 111.911C117.846 111.008 119.12 104.649 119.558 102.275L119.973 102.352C119.909 102.704 118.384 110.937 117.572 112.141C117.539 112.201 117.431 112.362 117.216 112.413C117.17 112.424 117.125 112.431 117.081 112.431Z" fill="#A39D9D"/>
<path d="M109.776 111.887L109.05 112.369L108.668 111.791L109.393 111.309C109.552 111.203 109.767 111.247 109.873 111.406C109.979 111.566 109.935 111.78 109.776 111.887Z" fill="url(#paint7_linear_624_3)"/>
<path d="M116.193 111.362L116.96 111.774L116.633 112.384L115.865 111.973C115.697 111.882 115.633 111.672 115.724 111.504C115.814 111.336 116.025 111.271 116.193 111.362Z" fill="url(#paint8_linear_624_3)"/>
<path d="M137.285 108.169C138.406 108.169 139.315 106.761 139.315 105.023C139.315 103.285 138.406 101.877 137.285 101.877C136.164 101.877 135.255 103.285 135.255 105.023C135.255 106.761 136.164 108.169 137.285 108.169Z" fill="url(#paint9_linear_624_3)"/>
<path d="M137.006 108.169C138.127 108.169 139.036 106.761 139.036 105.023C139.036 103.285 138.127 101.877 137.006 101.877C135.885 101.877 134.976 103.285 134.976 105.023C134.976 106.761 135.885 108.169 137.006 108.169Z" fill="#BDCFED"/>
<path d="M137.176 82.6538C137.046 80.8462 136.853 79.1204 136.579 77.5738C136.579 77.5738 136.462 76.0825 135.21 76.4254C135.21 76.4254 135.498 76.6511 135.549 76.8569C135.973 78.8748 136.239 81.2953 136.396 83.8509C136.962 93.0729 136.11 104.063 136.097 104.218L136.82 104.178C136.869 103.521 137.851 91.9821 137.176 82.6538Z" fill="url(#paint10_linear_624_3)"/>
<path d="M113.386 91.1546C113.641 89.9775 114.019 88.4531 114.508 86.8401C114.684 86.2582 114.875 85.6652 115.076 85.0722C115.193 84.7315 115.372 84.4173 115.609 84.1452L115.741 83.9925C115.651 83.9903 115.564 83.9925 115.48 83.9991C114.782 84.0589 114.205 84.57 114.034 85.2515L113.857 85.9661C113.78 86.2139 113.707 86.4573 113.636 86.6963C113.072 88.5925 112.688 90.2541 112.498 91.1369C108.518 91.2896 105.338 94.5642 105.338 98.5845V102.81H106.578V98.5845C106.578 95.1528 109.358 92.3715 112.787 92.3715C116.217 92.3715 118.996 95.1528 118.996 98.5845V102.81H120.237V98.5845C120.237 94.6682 117.221 91.46 113.386 91.1546Z" fill="url(#paint11_linear_624_3)"/>
<path d="M137.003 106.191C137.438 106.191 137.791 105.644 137.791 104.97C137.791 104.295 137.438 103.749 137.003 103.749C136.569 103.749 136.216 104.295 136.216 104.97C136.216 105.644 136.569 106.191 137.003 106.191Z" fill="url(#paint12_linear_624_3)"/>
<path d="M135.852 106.908C136.542 106.908 137.101 106.04 137.101 104.97C137.101 103.9 136.542 103.032 135.852 103.032C135.162 103.032 134.603 103.9 134.603 104.97C134.603 106.04 135.162 106.908 135.852 106.908Z" fill="black"/>
<path d="M135.681 106.908C136.371 106.908 136.931 106.04 136.931 104.97C136.931 103.9 136.371 103.032 135.681 103.032C134.991 103.032 134.432 103.9 134.432 104.97C134.432 106.04 134.991 106.908 135.681 106.908Z" fill="url(#paint13_linear_624_3)"/>
<path d="M135.681 106.687C136.25 106.687 136.712 105.918 136.712 104.97C136.712 104.022 136.25 103.253 135.681 103.253C135.112 103.253 134.651 104.022 134.651 104.97C134.651 105.918 135.112 106.687 135.681 106.687Z" fill="url(#paint14_radial_624_3)"/>
<path d="M84.8186 153.067C84.8186 153.067 88.1839 149.815 92.478 151.093C92.478 151.093 100.951 155.508 101.066 159.222C101.066 159.222 102.999 167.648 94.6626 167.5C94.6626 167.498 76.5799 162.937 84.8186 153.067Z" fill="#FFC0AF"/>
<path d="M95.6133 164.099L100.557 157.603C100.557 157.603 94.6846 153.529 92.5973 155.505C92.5951 155.505 87.6045 159.57 95.6133 164.099Z" fill="white"/>
<path d="M79.7129 173.622C79.7129 173.622 82.9632 168.048 87.6044 170.254L95.8078 174.204C95.8078 174.204 109.656 181.289 105.013 187.559C105.013 187.559 101.081 196.27 89.9328 185.585C89.9328 185.585 82.3242 183.959 79.7129 181.868C79.7129 181.868 77.2762 176.961 79.7129 173.622Z" fill="#FFC0AF"/>
<path d="M95.8081 185.265C95.8081 185.265 93.3626 183.477 95.8081 180.322C95.8081 180.322 97.8114 178.122 100.558 179.866L105.219 183.873L101.263 188.924L95.8081 185.265Z" fill="white"/>
<path d="M78.1454 191.535C78.1454 191.535 80.843 185.698 86.3267 188.05C86.3267 188.05 101.995 194.409 97.6433 200.766C97.6433 200.766 94.5963 206.339 84.3256 201.724L81.1039 202.071C81.1062 202.076 75.4478 199.027 78.1454 191.535Z" fill="#FFC0AF"/>
<path d="M88.4162 195.524C88.4162 195.524 91.1137 192.668 97.1214 197.98L94.1629 202.162C94.1629 202.162 86.3288 198.903 88.4162 195.524Z" fill="white"/>
<path d="M189.202 208.429C189.202 208.429 185.656 206.975 181.154 204.411L170.584 224.545C168.568 223.335 167.042 221.505 165.908 219.288C165.906 219.286 165.906 219.286 165.906 219.283L165.897 219.27C165.817 219.113 165.738 218.954 165.66 218.792C165.66 218.79 165.658 218.788 165.658 218.788C161.344 209.707 163.069 194.73 164.013 188.686C163.489 187.584 164.438 186.006 164.473 186.024C162.315 184.462 156.546 178.656 156.546 178.656C149.585 176.572 145.479 170.233 145.479 170.233C140.889 163.595 139.739 157.526 139.739 157.526C139.396 155.216 139.536 153.632 139.945 152.559C140.59 150.868 141.906 150.446 143.058 150.446C143.383 150.446 143.695 150.479 143.976 150.528C144.279 150.578 144.544 150.649 144.749 150.711L151.58 156.327C152.367 157.42 152.959 157.836 154.025 158.338C155.575 159.07 157.596 159.663 157.596 159.663C165.074 159.834 169.738 165.628 169.738 165.628L179.223 175.525C185.348 179.322 185.454 185.635 185.454 185.635L188.413 202.607C188.521 203.707 188.501 204.813 188.468 205.922C188.439 207.01 188.756 207.825 189.202 208.429Z" fill="#FFC0AF"/>
<path d="M154.03 158.337L151.861 160.152L149.7 158.897C146.485 157.034 144.111 154.007 143.062 150.443C143.388 150.443 143.699 150.476 143.98 150.525C144.283 150.576 144.548 150.646 144.754 150.708L151.584 156.324L154.03 158.337Z" fill="white"/>
<path d="M95.9236 47.3124C99.8719 43.3616 99.8719 36.9559 95.9236 33.0051C91.9753 29.0542 85.5739 29.0542 81.6256 33.0051C77.6773 36.9559 77.6773 43.3616 81.6256 47.3124C85.5739 51.2633 91.9753 51.2633 95.9236 47.3124Z" fill="#9AB1B7"/>
<path d="M95.3982 46.6916C99.3465 42.7407 99.3465 36.3351 95.3982 32.3842C91.4499 28.4334 85.0485 28.4334 81.1002 32.3842C77.1519 36.3351 77.1519 42.7407 81.1002 46.6916C85.0485 50.6424 91.4499 50.6424 95.3982 46.6916Z" fill="white"/>
<path d="M84.8657 42.8951C84.3006 42.3297 84.3006 41.4141 84.8657 40.8487L89.0008 36.7109L91.0459 38.7573L86.9107 42.8951C86.3457 43.4605 85.4307 43.4605 84.8657 42.8951Z" fill="#2E3192"/>
<path d="M91.4562 39.1576L88.6636 36.3607L89.2586 35.7653L92.0537 38.5597L91.4562 39.1576Z" fill="#2E3192"/>
<path d="M84.8435 43.6357L84.126 42.9177L84.506 42.5349L85.226 43.2529L84.8435 43.6357Z" fill="#2E3192"/>
<path d="M81.9607 46.1023L81.6606 45.8021L84.3482 43.1128L84.6482 43.413L81.9607 46.1023Z" fill="#2E3192"/>
<path d="M93.7108 35.0998L92.7183 34.1042L90.1582 36.6659L91.1532 37.6591L93.7108 35.0998Z" fill="#2E3192"/>
<path d="M94.3812 35.7803L92.0386 33.4337L92.4261 33.0459L94.7687 35.39L94.3812 35.7803Z" fill="#2E3192"/>
<path d="M89.499 37.9618L89.3594 38.1015L90.5314 39.2743L90.6711 39.1346L89.499 37.9618Z" fill="white"/>
<path d="M88.8726 38.584L88.7329 38.7237L89.905 39.8965L90.0446 39.7568L88.8726 38.584Z" fill="white"/>
<path d="M88.2471 39.209L88.1074 39.3487L89.2795 40.5215L89.4191 40.3818L88.2471 39.209Z" fill="white"/>
<path d="M87.6221 39.8347L87.4824 39.9744L88.6545 41.1472L88.7941 41.0075L87.6221 39.8347Z" fill="white"/>
<path d="M86.9971 40.4597L86.8574 40.5995L88.0295 41.7723L88.1691 41.6326L86.9971 40.4597Z" fill="white"/>
<path d="M86.3721 41.0851L86.2324 41.2249L87.4045 42.3977L87.5441 42.2579L86.3721 41.0851Z" fill="white"/>
<path d="M85.7471 41.7106L85.6074 41.8503L86.7795 43.0232L86.9191 42.8834L85.7471 41.7106Z" fill="white"/>
<path d="M185.425 75.0559C192.37 72.1772 195.668 64.2098 192.791 57.2602C189.914 50.3106 181.952 47.0105 175.007 49.8892C168.062 52.7679 164.764 60.7353 167.641 67.6849C170.517 74.6345 178.48 77.9346 185.425 75.0559Z" fill="#9AB1B7"/>
<path d="M179.565 75.4485C187.082 75.4485 193.176 69.3507 193.176 61.8286C193.176 54.3066 187.082 48.2088 179.565 48.2088C172.048 48.2088 165.954 54.3066 165.954 61.8286C165.954 69.3507 172.048 75.4485 179.565 75.4485Z" fill="white"/>
<path d="M189.21 64.0991H182.782V64.9825H189.21V64.0991Z" fill="#2E3192"/>
<path d="M191.884 62.774H185.457V63.2157H191.884V62.774Z" fill="#2E3192"/>
<path d="M188.054 60.7553H184.267V61.2774H188.054V60.7553Z" fill="#2E3192"/>
<path d="M186.744 58.9191H180.386V59.4557H186.744V58.9191Z" fill="#2E3192"/>
<path d="M173.866 57.1706V57.7765H172.261V57.1706C172.261 56.7289 172.619 56.3675 173.064 56.3675C173.286 56.3675 173.487 56.4587 173.633 56.6011C173.779 56.7471 173.866 56.9479 173.866 57.1706Z" fill="#2E3192"/>
<path d="M173.866 58.2475H172.261V59.1857H173.866V58.2475Z" fill="#2E3192"/>
<path d="M182.516 65.6871H170.306C169.398 65.6871 168.661 64.9497 168.661 64.0407V62.0549C168.661 61.8176 168.712 61.5803 168.814 61.3649L169.642 59.5762C169.948 58.9118 170.616 58.4847 171.349 58.4847H182.512C183.246 58.4847 183.844 59.0797 183.844 59.8171V64.3583C183.844 65.092 183.249 65.6871 182.516 65.6871Z" fill="#2E3192"/>
<path d="M172.108 67.2933C172.995 67.2933 173.713 66.5742 173.713 65.6871C173.713 64.8 172.995 64.0809 172.108 64.0809C171.222 64.0809 170.503 64.8 170.503 65.6871C170.503 66.5742 171.222 67.2933 172.108 67.2933Z" fill="white"/>
<path d="M172.108 66.8333C171.477 66.8333 170.962 66.3186 170.962 65.6871C170.962 65.0555 171.477 64.5408 172.108 64.5408C172.739 64.5408 173.253 65.0555 173.253 65.6871C173.25 66.3186 172.739 66.8333 172.108 66.8333Z" fill="#2E3192"/>
<path d="M180.283 67.2933C181.17 67.2933 181.889 66.5742 181.889 65.6871C181.889 64.8 181.17 64.0809 180.283 64.0809C179.397 64.0809 178.678 64.8 178.678 65.6871C178.678 66.5742 179.397 67.2933 180.283 67.2933Z" fill="white"/>
<path d="M180.284 66.8333C179.653 66.8333 179.138 66.3186 179.138 65.6871C179.138 65.0555 179.653 64.5408 180.284 64.5408C180.915 64.5408 181.429 65.0555 181.429 65.6871C181.429 66.3186 180.915 66.8333 180.284 66.8333Z" fill="#2E3192"/>
<path d="M182.691 60.4852H181.593V59.3864H180.779V60.4852H179.678V61.2992H180.779V62.4017H181.593V61.2992H182.691V60.4852Z" fill="white"/>
<path d="M173.889 61.354H169.781L170.507 59.8062C170.685 59.4266 171.065 59.1856 171.481 59.1856H173.889V61.354Z" fill="white"/>
<path d="M178.956 59.3864H175.198V61.2992H178.956V59.3864Z" fill="white"/>
<path d="M82.1463 78.4912C87.6238 78.4912 92.0642 74.0479 92.0642 68.5669C92.0642 63.0859 87.6238 58.6426 82.1463 58.6426C76.6689 58.6426 72.2285 63.0859 72.2285 68.5669C72.2285 74.0479 76.6689 78.4912 82.1463 78.4912Z" fill="#9AB1B7"/>
<path d="M91.2326 70.2882C92.4913 64.9541 89.1904 59.6089 83.8597 58.3493C78.529 57.0898 73.1873 60.3929 71.9285 65.727C70.6698 71.0612 73.9708 76.4064 79.3014 77.6659C84.6321 78.9255 89.9739 75.6224 91.2326 70.2882Z" fill="white"/>
<path d="M208.487 50.4372C218.975 50.4372 227.478 41.9293 227.478 31.4342C227.478 20.9392 218.975 12.4312 208.487 12.4312C197.999 12.4312 189.497 20.9392 189.497 31.4342C189.497 41.9293 197.999 50.4372 208.487 50.4372Z" fill="#9AB1B7"/>
<path d="M207.675 49.6241C218.163 49.6241 226.665 41.1162 226.665 30.6212C226.665 20.1261 218.163 11.6182 207.675 11.6182C197.186 11.6182 188.684 20.1261 188.684 30.6212C188.684 41.1162 197.186 49.6241 207.675 49.6241Z" fill="white"/>
<path d="M215.795 23.6582H211.716V22.8925C211.716 21.849 210.871 21 209.825 21H204.953C203.91 21 203.062 21.8459 203.062 22.8925V23.6582H198.983C196.783 23.6582 195 25.4427 195 27.6439V36.1434C195 38.3446 196.783 40.1291 198.983 40.1291H215.792C217.992 40.1291 219.775 38.3446 219.775 36.1434V27.6439C219.778 25.4427 217.995 23.6582 215.795 23.6582Z" fill="#2E3192"/>
<path d="M212.802 29.4068H208.545V25.1494H206.234V29.4068H201.979V31.7192H206.234V35.9797H208.545V31.7192H212.802V29.4068Z" fill="white"/>
<path d="M153.3 31.6761C158.958 26.0145 158.958 16.8354 153.3 11.1738C147.642 5.51232 138.469 5.51231 132.811 11.1738C127.153 16.8354 127.153 26.0145 132.811 31.6761C138.469 37.3376 147.642 37.3376 153.3 31.6761Z" fill="#9AB1B7"/>
<path d="M142.52 35.3844C150.521 35.3844 157.008 28.8937 157.008 20.887C157.008 12.8803 150.521 6.38962 142.52 6.38962C134.518 6.38962 128.032 12.8803 128.032 20.887C128.032 28.8937 134.518 35.3844 142.52 35.3844Z" fill="white"/>
<path d="M148.35 15.4539C147.38 14.4829 146.11 14 144.84 14C143.769 14 142.7 14.3449 141.809 15.0321C140.918 14.3422 139.847 14 138.776 14C137.506 14 136.236 14.4855 135.266 15.4539C133.479 17.2421 133.338 20.0517 134.844 21.9991C134.974 22.1662 135.112 22.3254 135.266 22.4766L141.329 28.5416C141.481 28.6928 141.642 28.8361 141.809 28.9634C141.976 28.8334 142.135 28.6928 142.287 28.5416L148.348 22.4766C148.499 22.3254 148.639 22.1636 148.769 21.9991C150.275 20.0491 150.135 17.2394 148.35 15.4539Z" fill="#2E3192"/>
<path d="M140.68 24.4479L138.455 18.6058L136.573 20.7787H130V20.1737H136.297L138.659 17.4437L140.682 22.7526L142.708 17.4941V20.2056L145.33 15.7537L146.081 19.4229L146.486 18.4068L147.369 20.1737H153.616V20.7787H146.993L146.547 19.8872L145.892 21.5295L145.052 17.4198L142.101 22.4315V20.7548L140.68 24.4479Z" fill="white"/>
<path d="M261.544 67.9672C266.767 62.7414 266.767 54.2687 261.544 49.0429C256.322 43.8171 247.855 43.8171 242.632 49.0429C237.41 54.2687 237.41 62.7414 242.632 67.9672C247.855 73.193 256.322 73.193 261.544 67.9672Z" fill="#9AB1B7"/>
<path d="M260.807 67.2295C266.029 62.0037 266.029 53.531 260.807 48.3052C255.584 43.0793 247.117 43.0793 241.894 48.3052C236.672 53.531 236.672 62.0037 241.894 67.2295C247.117 72.4553 255.584 72.4553 260.807 67.2295Z" fill="white"/>
<path d="M255.953 58.7989L252.808 55.6519C251.895 54.7388 251.895 53.2535 252.808 52.3403C253.72 51.4272 255.205 51.4272 256.117 52.3403L259.262 55.4873L255.953 58.7989ZM254.465 51.8544C253.916 51.8544 253.364 52.0621 252.949 52.4814C252.111 53.3201 252.111 54.68 252.949 55.5187L255.957 58.5285L258.992 55.4912L255.984 52.4814C255.565 52.0621 255.013 51.8544 254.465 51.8544Z" fill="#2E3192"/>
<path d="M262.858 60.1509C262.858 60.727 262.639 61.2992 262.2 61.7381C261.44 62.4984 260.265 62.6003 259.396 62.036C259.56 61.7577 259.658 61.4324 259.658 61.0836C259.658 60.0529 258.82 59.2143 257.79 59.2143H256.505L255.953 58.6617L259.125 55.4873L262.2 58.5637C262.639 59.0066 262.858 59.5787 262.858 60.1509Z" fill="#2E3192"/>
<path d="M260.61 62.4906C260.171 62.4906 259.728 62.3691 259.345 62.1183L259.266 62.0673L259.313 61.985C259.474 61.7146 259.56 61.4011 259.56 61.0836C259.56 60.1078 258.765 59.3122 257.79 59.3122H256.466L255.816 58.6617L259.125 55.3501L262.266 58.4971C262.709 58.9399 262.952 59.5278 262.952 60.1509C262.952 60.778 262.709 61.3658 262.266 61.8087C261.82 62.2593 261.217 62.4906 260.61 62.4906ZM259.525 62.0046C260.359 62.4945 261.44 62.3612 262.129 61.6715C262.533 61.2678 262.76 60.727 262.76 60.1548C262.76 59.5826 262.537 59.0418 262.129 58.6382L259.125 55.6284L256.09 58.6656L256.544 59.1202H257.79C258.875 59.1202 259.756 60.002 259.756 61.0876C259.756 61.4089 259.678 61.7224 259.525 62.0046Z" fill="#2E3192"/>
<path d="M256.486 54.3586L256.039 53.9079L255.432 54.5153L254.825 53.9079L254.375 54.3586L254.982 54.966L254.375 55.5735L254.825 56.0242L255.432 55.4167L256.039 56.0242L256.486 55.5735L255.878 54.966L256.486 54.3586Z" fill="#2E3192"/>
<path d="M257.79 62.3574H255.42V59.8139H257.79C258.491 59.8139 259.059 60.3822 259.059 61.0837C259.059 61.7852 258.491 62.3574 257.79 62.3574ZM255.612 62.1614H257.79C258.381 62.1614 258.867 61.6794 258.867 61.0837C258.867 60.4919 258.385 60.0059 257.79 60.0059H255.612V62.1614Z" fill="#2E3192"/>
<path d="M253.243 62.2594H255.518V59.9119H253.243C252.597 59.9119 252.072 60.437 252.072 61.0876C252.068 61.7342 252.593 62.2594 253.243 62.2594Z" fill="#2E3192"/>
<path d="M255.613 62.3583H253.243C252.542 62.3583 251.974 61.7901 251.974 61.0886C251.974 60.387 252.542 59.8188 253.243 59.8188H255.613V62.3583ZM253.243 60.0108C252.652 60.0108 252.166 60.4929 252.166 61.0886C252.166 61.6803 252.648 62.1663 253.243 62.1663H255.421V60.0147H253.243V60.0108Z" fill="#2E3192"/>
<path d="M257.692 60.9191H257.242V60.4723H256.909V60.9191H256.458V61.2522H256.909V61.7029H257.242V61.2522H257.692V60.9191Z" fill="#2E3192"/>
<path d="M247.313 63.1568H244.756C242.684 63.1568 241 61.4756 241 59.3985V58.3599C241 56.2868 242.68 54.6016 244.756 54.6016H247.313C249.385 54.6016 251.069 56.2829 251.069 58.3599V59.3985C251.069 61.4756 249.389 63.1568 247.313 63.1568Z" fill="#2E3192"/>
<path d="M248.653 53.1986H243.42V54.633H248.653V53.1986Z" fill="white"/>
<path d="M248.018 53.3749H244.051C243.393 53.3749 242.864 52.8419 242.864 52.1875C242.864 51.5291 243.397 51 244.051 51H248.018C248.676 51 249.205 51.533 249.205 52.1875C249.209 52.8419 248.676 53.3749 248.018 53.3749Z" fill="#2E3192"/>
<path d="M246.632 56.6748H245.441V61.0876H246.632V56.6748Z" fill="white"/>
<path d="M248.239 59.4773V58.2859H243.829V59.4773H248.239Z" fill="white"/>
<path d="M18.6349 95.8456C26.8713 95.8456 33.5481 89.1644 33.5481 80.9227C33.5481 72.681 26.8713 65.9998 18.6349 65.9998C10.3986 65.9998 3.72168 72.681 3.72168 80.9227C3.72168 89.1644 10.3986 95.8456 18.6349 95.8456Z" fill="#9AB1B7"/>
<path d="M32.4542 83.3816C34.3469 75.3607 29.3833 67.3232 21.3677 65.4293C13.3521 63.5353 5.31977 68.5022 3.42706 76.523C1.53435 84.5438 6.49794 92.5813 14.5136 94.4752C22.5292 96.3692 30.5615 91.4024 32.4542 83.3816Z" fill="white"/>
<path d="M12.3491 85.0715C12.3491 81.9816 17.9409 72.4168 17.9409 72.4168C17.9409 72.4168 23.5326 81.9816 23.5326 85.0715C23.5326 88.1614 21.0287 90.6669 17.9409 90.6669C14.853 90.6727 12.3491 88.1672 12.3491 85.0715Z" fill="#2E3192"/>
<path d="M20.6646 72.2664C20.6646 71.52 22.0119 69.217 22.0119 69.217C22.0119 69.217 23.3592 71.52 23.3592 72.2664C23.3592 73.0129 22.7578 73.6146 22.0119 73.6146C21.2659 73.6146 20.6646 73.0129 20.6646 72.2664Z" fill="#2E3192"/>
<path d="M22.9081 85.0715C22.9081 86.3965 22.3934 87.6464 21.4566 88.5838C20.5199 89.5212 19.2708 90.0361 17.9466 90.0361C16.8075 90.0361 15.7203 89.6542 14.8472 88.9483C15.3849 89.2492 15.9806 89.4517 16.6109 89.5327C17.9235 89.7063 19.2304 89.3591 20.2828 88.5548C21.3352 87.7505 22.0118 86.5817 22.191 85.2682C22.2488 84.84 22.2199 83.9547 21.7747 82.1378C21.5954 81.4203 21.3699 80.616 21.0866 79.7249C21.4798 80.5697 21.8152 81.3393 22.0869 82.0221C22.7635 83.7638 22.9081 84.6433 22.9081 85.0715Z" fill="white"/>
<path d="M44.5833 57.3884C54.3342 57.3884 62.2389 49.4786 62.2389 39.7214C62.2389 29.9641 54.3342 22.0543 44.5833 22.0543C34.8324 22.0543 26.9277 29.9641 26.9277 39.7214C26.9277 49.4786 34.8324 57.3884 44.5833 57.3884Z" fill="#3F50A4"/>
<path d="M43.9632 56.6755C53.7141 56.6755 61.6188 48.7656 61.6188 39.0084C61.6188 29.2512 53.7141 21.3413 43.9632 21.3413C34.2123 21.3413 26.3076 29.2512 26.3076 39.0084C26.3076 48.7656 34.2123 56.6755 43.9632 56.6755Z" fill="white"/>
<path d="M39.4128 31.4707H37.2827V29.3218H39.4128C40.0053 29.3218 40.4853 29.8021 40.4853 30.395C40.4853 30.9904 40.0053 31.4707 39.4128 31.4707Z" fill="#2E3192"/>
<path d="M41.8553 31.4707H43.9853V29.3218H41.8553C41.2627 29.3218 40.7827 29.8021 40.7827 30.395C40.7802 30.9904 41.2627 31.4707 41.8553 31.4707Z" fill="#2E3192"/>
<path d="M49.0557 38.7532V43.7241C49.0557 46.0007 47.2107 47.8469 44.9356 47.8469C43.7981 47.8469 42.768 47.3841 42.0205 46.6386C41.2755 45.8931 40.813 44.8624 40.813 43.7216V39.874C43.2156 39.7789 45.1356 37.8026 45.1356 35.3759V29.3193H44.2881V35.0582C44.2881 37.0771 42.653 38.7157 40.633 38.7157C39.6229 38.7157 38.7104 38.3054 38.0504 37.645C37.3904 36.9845 36.9803 36.0689 36.9803 35.0607V29.3218H36.1328V35.3784C36.1328 37.6375 37.7979 39.5087 39.9654 39.8315V43.7241C39.9654 46.4685 42.1905 48.695 44.9331 48.695C47.6757 48.695 49.9008 46.4685 49.9008 43.7241V38.7532H49.0557Z" fill="#2E3192"/>
<path d="M49.5006 41.3025C50.7667 41.3025 51.7932 40.2754 51.7932 39.0084C51.7932 37.7414 50.7667 36.7144 49.5006 36.7144C48.2344 36.7144 47.208 37.7414 47.208 39.0084C47.208 40.2754 48.2344 41.3025 49.5006 41.3025Z" fill="#2E3192"/>
<path d="M49.5008 40.4569C50.3002 40.4569 50.9483 39.8084 50.9483 39.0084C50.9483 38.2084 50.3002 37.5599 49.5008 37.5599C48.7013 37.5599 48.0532 38.2084 48.0532 39.0084C48.0532 39.8084 48.7013 40.4569 49.5008 40.4569Z" fill="#2E3192"/>
<path d="M73.79 141.942C70.6125 141.011 67.2848 137.637 65.3146 135.347C67.9547 133.152 69.5711 130.214 69.5711 126.985C69.5711 120.191 62.4202 114.683 53.6 114.683C44.7797 114.683 37.6289 120.193 37.6289 126.985C37.6289 133.78 44.7797 139.287 53.6 139.287C56.2556 139.287 58.7608 138.787 60.9653 137.902C66.2079 140.577 73.79 141.942 73.79 141.942Z" fill="#ADEED8"/>
<path d="M53.0448 148.281C52.859 148.248 47.3754 147.239 43.5656 145.297C41.936 145.949 40.083 146.321 38.1195 146.321C31.5945 146.321 26.3076 142.248 26.3076 137.223C26.3076 132.999 30.0467 129.446 35.1168 128.421C35.5303 131.981 37.4849 135.249 40.7243 137.745C42.9752 139.48 45.6927 140.708 48.6446 141.356C48.1471 142.106 47.5191 142.794 46.7828 143.407C48.2377 145.1 50.6965 147.591 53.0448 148.281Z" fill="#ADEED8"/>
<path d="M47.3564 126.762C47.5313 125.684 46.7995 124.668 45.7218 124.493C44.6442 124.318 43.6288 125.05 43.4539 126.129C43.279 127.207 44.0108 128.223 45.0885 128.398C46.1661 128.573 47.1815 127.841 47.3564 126.762Z" fill="white"/>
<path d="M55.6539 126.905C55.9048 125.841 55.2468 124.776 54.1844 124.525C53.1219 124.274 52.0572 124.932 51.8063 125.995C51.5554 127.059 52.2134 128.124 53.2758 128.375C54.3383 128.626 55.403 127.968 55.6539 126.905Z" fill="white"/>
<path d="M63.4609 127.841C64.2328 127.068 64.2328 125.816 63.4609 125.044C62.6889 124.271 61.4373 124.271 60.6653 125.044C59.8934 125.816 59.8934 127.068 60.6653 127.841C61.4373 128.613 62.6889 128.613 63.4609 127.841Z" fill="white"/>
<path d="M178.961 148.356C181.413 147.637 183.98 145.035 185.499 143.267C183.461 141.575 182.216 139.307 182.216 136.816C182.216 131.574 187.733 127.324 194.538 127.324C201.344 127.324 206.861 131.574 206.861 136.816C206.861 142.057 201.344 146.307 194.538 146.307C192.489 146.307 190.556 145.922 188.856 145.239C184.812 147.303 178.961 148.356 178.961 148.356Z" fill="#1AC1B0"/>
<path d="M188.321 138.661C189.202 138.661 189.917 137.946 189.917 137.063C189.917 136.181 189.202 135.466 188.321 135.466C187.439 135.466 186.724 136.181 186.724 137.063C186.724 137.946 187.439 138.661 188.321 138.661Z" fill="white"/>
<path d="M195.053 138.661C195.935 138.661 196.65 137.946 196.65 137.063C196.65 136.181 195.935 135.466 195.053 135.466C194.172 135.466 193.457 136.181 193.457 137.063C193.457 137.946 194.172 138.661 195.053 138.661Z" fill="white"/>
<path d="M201.786 138.661C202.668 138.661 203.383 137.946 203.383 137.063C203.383 136.181 202.668 135.466 201.786 135.466C200.905 135.466 200.19 136.181 200.19 137.063C200.19 137.946 200.905 138.661 201.786 138.661Z" fill="white"/>
<circle cx="129.373" cy="210.943" r="3.88925" fill="#272727"/>
<g clip-path="url(#clip0_624_3)">
<path d="M85.1667 63.9375H83.8125V63.3125C83.8126 63.2296 83.7797 63.1501 83.7211 63.0914C83.6626 63.0328 83.5831 62.9998 83.5002 62.9998C83.4173 62.9997 83.3378 63.0326 83.2792 63.0911C83.2205 63.1497 83.1876 63.2292 83.1875 63.312V63.9375H81.3125V63.3125C81.3125 63.2714 81.3045 63.2308 81.2888 63.1929C81.2731 63.1549 81.2501 63.1205 81.2211 63.0914C81.1921 63.0624 81.1577 63.0394 81.1198 63.0236C81.0819 63.0079 81.0412 62.9998 81.0002 62.9998C80.9173 62.9997 80.8378 63.0326 80.7792 63.0911C80.7205 63.1497 80.6876 63.2292 80.6875 63.312V63.9375H78.8125V63.3125C78.8125 63.2714 78.8045 63.2308 78.7888 63.1929C78.7731 63.1549 78.7501 63.1205 78.7211 63.0914C78.6921 63.0624 78.6577 63.0394 78.6198 63.0236C78.5819 63.0079 78.5412 62.9998 78.5002 62.9998C78.4173 62.9997 78.3378 63.0326 78.2792 63.0911C78.2205 63.1497 78.1876 63.2292 78.1875 63.312V63.9375H76.8333C76.6124 63.9375 76.4005 64.0252 76.2442 64.1814C76.088 64.3376 76.0001 64.5494 76 64.7704V72.1662C76 72.3872 76.0878 72.5992 76.2441 72.7555C76.4004 72.9118 76.6123 72.9995 76.8333 72.9995H85.1667C85.3877 72.9995 85.5996 72.9118 85.7559 72.7555C85.9122 72.5992 86 72.3872 86 72.1662V64.7704C85.9999 64.5494 85.912 64.3376 85.7558 64.1814C85.5995 64.0252 85.3876 63.9375 85.1667 63.9375ZM85.375 72.1666C85.375 72.2218 85.3531 72.2747 85.3141 72.3138C85.2751 72.3529 85.2223 72.3749 85.1671 72.375H76.8333C76.7781 72.375 76.7251 72.353 76.686 72.3139C76.6469 72.2749 76.625 72.2219 76.625 72.1666V64.7708C76.6251 64.7156 76.6471 64.6627 76.6862 64.6238C76.7252 64.5848 76.7782 64.5629 76.8333 64.5629H78.1875V65.1879C78.1874 65.2708 78.2203 65.3503 78.2789 65.4089C78.3374 65.4676 78.4169 65.5005 78.4998 65.5006C78.5827 65.5006 78.6622 65.4678 78.7208 65.4092C78.7795 65.3506 78.8124 65.2712 78.8125 65.1883V64.5629H80.6875V65.1879C80.6874 65.2708 80.7203 65.3503 80.7789 65.4089C80.8374 65.4676 80.9169 65.5005 80.9998 65.5006C81.0827 65.5006 81.1622 65.4678 81.2208 65.4092C81.2795 65.3506 81.3124 65.2712 81.3125 65.1883V64.5629H83.1875V65.1879C83.1874 65.2708 83.2203 65.3503 83.2789 65.4089C83.3374 65.4676 83.4169 65.5005 83.4998 65.5006C83.5827 65.5006 83.6622 65.4678 83.7208 65.4092C83.7795 65.3506 83.8124 65.2712 83.8125 65.1883V64.5629H85.1667C85.2218 64.563 85.2746 64.5849 85.3136 64.6239C85.3525 64.6629 85.3745 64.7157 85.3746 64.7708L85.375 72.1666Z" fill="#2E3192"/>
<path d="M78.1875 66.75H79.4375V67.6875H78.1875V66.75ZM78.1875 68.3125H79.4375V69.25H78.1875V68.3125ZM78.1875 69.875H79.4375V70.8125H78.1875V69.875ZM80.375 69.875H81.625V70.8125H80.375V69.875ZM80.375 68.3125H81.625V69.25H80.375V68.3125ZM80.375 66.75H81.625V67.6875H80.375V66.75ZM82.5625 69.875H83.8125V70.8125H82.5625V69.875ZM82.5625 68.3125H83.8125V69.25H82.5625V68.3125ZM82.5625 66.75H83.8125V67.6875H82.5625V66.75Z" fill="#2E3192"/>
</g>
<defs>
<linearGradient id="paint0_linear_624_3" x1="98.2602" y1="150.66" x2="159.516" y2="150.66" gradientUnits="userSpaceOnUse">
<stop stop-color="#3D94E7"/>
<stop offset="1" stop-color="#1F45B1"/>
</linearGradient>
<linearGradient id="paint1_linear_624_3" x1="118.263" y1="88.0835" x2="127.309" y2="88.0835" gradientUnits="userSpaceOnUse">
<stop stop-color="#3D94E7"/>
<stop offset="1" stop-color="#2D51B6"/>
</linearGradient>
<linearGradient id="paint2_linear_624_3" x1="122.316" y1="79.6916" x2="134.939" y2="79.6916" gradientUnits="userSpaceOnUse">
<stop stop-color="#285EC2"/>
<stop offset="1" stop-color="#142F61"/>
</linearGradient>
<linearGradient id="paint3_linear_624_3" x1="118.7" y1="84.0407" x2="122.316" y2="84.0407" gradientUnits="userSpaceOnUse">
<stop stop-color="#285EC2"/>
<stop offset="1" stop-color="#122954"/>
</linearGradient>
<linearGradient id="paint4_linear_624_3" x1="76.9475" y1="120.459" x2="110.308" y2="120.459" gradientUnits="userSpaceOnUse">
<stop stop-color="#3D94E7"/>
<stop offset="1" stop-color="#1F45B1"/>
</linearGradient>
<linearGradient id="paint5_linear_624_3" x1="126.981" y1="100.613" x2="134.378" y2="101.047" gradientUnits="userSpaceOnUse">
<stop stop-color="#3D94E7"/>
<stop offset="1" stop-color="#1F45B1"/>
</linearGradient>
<linearGradient id="paint6_linear_624_3" x1="124.694" y1="100.602" x2="129.573" y2="100.888" gradientUnits="userSpaceOnUse">
<stop stop-color="#3D94E7"/>
<stop offset="1" stop-color="#1F45B1"/>
</linearGradient>
<linearGradient id="paint7_linear_624_3" x1="108.668" y1="111.81" x2="109.931" y2="111.81" gradientUnits="userSpaceOnUse">
<stop stop-color="#3D94E7"/>
<stop offset="1" stop-color="#1F45B1"/>
</linearGradient>
<linearGradient id="paint8_linear_624_3" x1="115.683" y1="111.852" x2="116.96" y2="111.852" gradientUnits="userSpaceOnUse">
<stop stop-color="#1F45B1"/>
<stop offset="1" stop-color="#3D94E7"/>
</linearGradient>
<linearGradient id="paint9_linear_624_3" x1="135.256" y1="105.024" x2="139.314" y2="105.024" gradientUnits="userSpaceOnUse">
<stop stop-color="#3D94E7"/>
<stop offset="1" stop-color="#1F45B1"/>
</linearGradient>
<linearGradient id="paint10_linear_624_3" x1="135.211" y1="90.297" x2="137.412" y2="90.297" gradientUnits="userSpaceOnUse">
<stop stop-color="#285EC2"/>
<stop offset="1" stop-color="#142F61"/>
</linearGradient>
<linearGradient id="paint11_linear_624_3" x1="105.338" y1="93.3999" x2="120.237" y2="93.3999" gradientUnits="userSpaceOnUse">
<stop stop-color="#285EC2"/>
<stop offset="1" stop-color="#142F61"/>
</linearGradient>
<linearGradient id="paint12_linear_624_3" x1="136.217" y1="104.969" x2="137.792" y2="104.969" gradientUnits="userSpaceOnUse">
<stop stop-color="#3D94E7"/>
<stop offset="1" stop-color="#1F45B1"/>
</linearGradient>
<linearGradient id="paint13_linear_624_3" x1="134.432" y1="104.969" x2="136.93" y2="104.969" gradientUnits="userSpaceOnUse">
<stop stop-color="#3D94E7"/>
<stop offset="1" stop-color="#1F45B1"/>
</linearGradient>
<radialGradient id="paint14_radial_624_3" cx="0" cy="0" r="1" gradientUnits="userSpaceOnUse" gradientTransform="translate(135.681 104.969) scale(1.41577 1.41669)">
<stop stop-color="#CAD8F1"/>
<stop offset="1" stop-color="#608BD4"/>
</radialGradient>
<clipPath id="clip0_624_3">
<rect width="10" height="10" fill="white" transform="translate(76 63)"/>
</clipPath>
</defs>
</svg>
