<svg width="111" height="82" viewBox="0 0 111 82" fill="none" xmlns="http://www.w3.org/2000/svg">
<g clip-path="url(#clip0_590_8)">
<path d="M106.59 64.9297H100.465H89.2726C87.1089 64.9297 85.1998 63.0713 85.1917 60.9031C85.2025 58.7349 87.1116 57.0504 89.2726 57.0504H100.465H100.481C102.644 57.0504 104.383 55.1919 104.391 53.0237C104.383 50.8556 102.642 49.171 100.481 49.171H100.465H97.1284C94.9647 49.171 93.0556 47.3125 93.0475 45.1444C93.0583 42.9762 94.9674 41.2916 97.1284 41.2916H100.465H105.136C107.299 41.2916 109.181 39.4332 109.192 37.265C109.181 35.0968 107.299 33.4122 105.136 33.4122H97.5725C96.1318 25.647 92.4219 18.2241 86.4346 12.2167C71.7033 -2.56391 48.4203 -3.53117 32.5706 9.31221L19.3124 9.09757C17.1434 9.07311 15.3642 10.8147 15.3399 12.9911C15.3345 13.4611 15.413 13.9149 15.5565 14.336C16.0846 15.8575 17.5198 16.9579 19.2204 16.9797L26.0742 17.1264C28.2433 17.1508 29.9818 18.9359 29.9547 21.1123C29.9304 23.2886 28.1512 25.0329 25.9821 25.0058L15.4346 24.8672L4.47825 24.7232C2.30646 24.6906 0.527333 26.4349 0.500254 28.6113C0.475882 30.7876 2.21168 32.5727 4.38076 32.5971L15.3372 32.7493L18.0316 32.7873C20.2007 32.8118 21.9392 34.5969 21.9121 36.7732C21.8877 38.9495 20.1086 40.6939 17.9395 40.6667L15.2451 40.6069L13.7828 40.5743C11.6137 40.5499 9.83459 42.2915 9.81022 44.4678C9.78584 46.6442 11.5216 48.4292 13.6907 48.4537L18.2536 48.5243C19.7241 56.2054 23.4204 63.5414 29.3481 69.4862C43.917 84.1038 66.848 85.2096 82.6868 72.8118H106.59C108.754 72.8118 110.492 70.9534 110.5 68.7852C110.492 66.617 108.754 64.9297 106.59 64.9297Z" fill="#DFE4E8"/>
<path d="M47.2269 4.94571H41.9897C41.7487 4.94571 41.5537 4.75009 41.5537 4.50827C41.5537 4.26646 41.7487 4.07083 41.9897 4.07083H47.2269C47.4679 4.07083 47.6629 4.26646 47.6629 4.50827C47.6629 4.75009 47.4679 4.94571 47.2269 4.94571Z" fill="black"/>
<path d="M39.3707 4.94571H29.7709C29.5299 4.94571 29.335 4.75009 29.335 4.50827C29.335 4.26646 29.5299 4.07083 29.7709 4.07083H39.3707C39.6117 4.07083 39.8066 4.26646 39.8066 4.50827C39.8066 4.75009 39.6117 4.94571 39.3707 4.94571Z" fill="black"/>
<path d="M59.0085 2.31836H37.6264C37.3854 2.31836 37.1904 2.12274 37.1904 1.88092C37.1904 1.63911 37.3854 1.44348 37.6264 1.44348H59.0085C59.2495 1.44348 59.4444 1.63911 59.4444 1.88092C59.4444 2.12274 59.2495 2.31836 59.0085 2.31836Z" fill="black"/>
<path d="M34.1338 2.31836H32.3872C32.1461 2.31836 31.9512 2.12274 31.9512 1.88092C31.9512 1.63911 32.1461 1.44348 32.3872 1.44348H34.1338C34.3748 1.44348 34.5698 1.63911 34.5698 1.88092C34.5698 2.12274 34.3748 2.31836 34.1338 2.31836Z" fill="black"/>
<path d="M93.0447 17.205H91.7368C91.4958 17.205 91.3008 17.0093 91.3008 16.7675C91.3008 16.5257 91.4958 16.3301 91.7368 16.3301H93.0447C93.2857 16.3301 93.4807 16.5257 93.4807 16.7675C93.4807 17.0093 93.2857 17.205 93.0447 17.205Z" fill="black"/>
<path d="M86.4998 17.205H85.1918C84.9508 17.205 84.7559 17.0093 84.7559 16.7675C84.7559 16.5257 84.9508 16.3301 85.1918 16.3301H86.4998C86.7408 16.3301 86.9358 16.5257 86.9358 16.7675C86.9358 17.0093 86.7408 17.205 86.4998 17.205Z" fill="black"/>
<path d="M91.9106 19.9573C91.7996 19.9573 91.6886 19.9138 91.6019 19.8296L90.6758 18.9004C90.5052 18.7292 90.5052 18.4521 90.6758 18.2809C90.8464 18.1097 91.1226 18.1097 91.2932 18.2809L92.2193 19.2101C92.3899 19.3813 92.3899 19.6584 92.2193 19.8296C92.1354 19.9138 92.0217 19.9573 91.9106 19.9573Z" fill="black"/>
<path d="M87.2827 15.3112C87.1717 15.3112 87.0606 15.2677 86.974 15.1835L86.0479 14.2543C85.8773 14.0831 85.8773 13.806 86.0479 13.6348C86.2185 13.4636 86.4947 13.4636 86.6653 13.6348L87.5914 14.564C87.762 14.7352 87.762 15.0123 87.5914 15.1835C87.5047 15.2704 87.3937 15.3112 87.2827 15.3112Z" fill="black"/>
<path d="M89.1186 21.1446C88.8776 21.1446 88.6826 20.949 88.6826 20.7072V19.3949C88.6826 19.1531 88.8776 18.9574 89.1186 18.9574C89.3596 18.9574 89.5546 19.1531 89.5546 19.3949V20.7072C89.5546 20.949 89.3596 21.1446 89.1186 21.1446Z" fill="black"/>
<path d="M89.1186 14.5776C88.8776 14.5776 88.6826 14.382 88.6826 14.1401V12.8278C88.6826 12.586 88.8776 12.3904 89.1186 12.3904C89.3596 12.3904 89.5546 12.586 89.5546 12.8278V14.1401C89.5546 14.382 89.3596 14.5776 89.1186 14.5776Z" fill="black"/>
<path d="M86.3566 19.9573C86.2455 19.9573 86.1345 19.9138 86.0479 19.8296C85.8773 19.6584 85.8773 19.3813 86.0479 19.2101L86.974 18.2809C87.1446 18.1097 87.4208 18.1097 87.5914 18.2809C87.762 18.4521 87.762 18.7292 87.5914 18.9004L86.6653 19.8296C86.5813 19.9138 86.4676 19.9573 86.3566 19.9573Z" fill="black"/>
<path d="M90.9845 15.3112C90.8735 15.3112 90.7625 15.2677 90.6758 15.1835C90.5052 15.0123 90.5052 14.7352 90.6758 14.564L91.6019 13.6348C91.7725 13.4636 92.0487 13.4636 92.2193 13.6348C92.3899 13.806 92.3899 14.0831 92.2193 14.2543L91.2932 15.1835C91.2093 15.2704 91.0982 15.3112 90.9845 15.3112Z" fill="black"/>
<path d="M102.333 44.6442C102.173 44.6442 102.027 44.5573 101.951 44.416L101.418 43.4379C101.177 42.995 100.817 42.6336 100.375 42.3918L99.4003 41.8565C99.2595 41.7805 99.1729 41.6337 99.1729 41.4734C99.1729 41.3131 99.2595 41.1664 99.4003 41.0903L100.375 40.5551C100.817 40.3133 101.177 39.9519 101.42 39.509L101.954 38.5309C102.03 38.3896 102.176 38.3027 102.336 38.3027C102.496 38.3027 102.642 38.3896 102.718 38.5309L103.251 39.509C103.492 39.9519 103.855 40.3133 104.296 40.5551L105.271 41.0903C105.412 41.1664 105.499 41.3131 105.499 41.4734C105.499 41.6337 105.412 41.7805 105.271 41.8565L104.296 42.3918C103.855 42.6336 103.495 42.995 103.251 43.4379L102.718 44.416C102.642 44.5573 102.493 44.6442 102.333 44.6442ZM100.792 41.6229C101.38 41.9462 101.862 42.4271 102.184 43.0194L102.336 43.2966L102.487 43.0194C102.81 42.4298 103.289 41.9462 103.879 41.6229L104.155 41.4707L103.879 41.3186C103.292 40.9952 102.81 40.5143 102.487 39.922L102.336 39.6449L102.184 39.922C101.862 40.5116 101.383 40.9952 100.792 41.3186L100.516 41.4707L100.792 41.6229Z" fill="black"/>
<path d="M17.1248 12.6567C16.965 12.6567 16.8188 12.5697 16.743 12.4284L16.2068 11.4503C15.9658 11.0074 15.6056 10.6461 15.1642 10.4042L14.1894 9.869C14.0486 9.79292 13.9619 9.6462 13.9619 9.4859C13.9619 9.32559 14.0486 9.17887 14.1894 9.10279L15.1642 8.56754C15.6056 8.32572 15.9658 7.96436 16.2068 7.52148L16.7403 6.54335C16.8161 6.40207 16.9623 6.31512 17.1221 6.31512C17.2819 6.31512 17.4281 6.40207 17.5039 6.54335L18.0374 7.52148C18.2784 7.96436 18.6413 8.32572 19.08 8.56754L20.0548 9.10279C20.1956 9.17887 20.2823 9.32559 20.2823 9.4859C20.2823 9.6462 20.1956 9.79292 20.0548 9.869L19.0854 10.4015C18.644 10.6433 18.2838 11.0047 18.0428 11.4476L17.5093 12.4257C17.4308 12.5697 17.2846 12.6567 17.1248 12.6567ZM15.5813 9.63533C16.1689 9.95866 16.6509 10.4396 16.9732 11.0319L17.1248 11.309L17.2765 11.0319C17.5987 10.4423 18.078 9.95866 18.6683 9.63533L18.9446 9.48318L18.6683 9.33102C18.0807 9.0077 17.5987 8.52678 17.2765 7.93447L17.1248 7.65734L16.9732 7.93447C16.6509 8.52407 16.1716 9.0077 15.5813 9.33102L15.3051 9.48318L15.5813 9.63533Z" fill="black"/>
<path d="M21.9154 59.6748H21.0434C20.8024 59.6748 20.6074 59.4792 20.6074 59.2374C20.6074 58.9955 20.8024 58.7999 21.0434 58.7999H21.9154C22.1564 58.7999 22.3513 58.9955 22.3513 59.2374C22.3513 59.4792 22.1564 59.6748 21.9154 59.6748Z" fill="black"/>
<path d="M17.5501 59.6748H16.6782C16.4372 59.6748 16.2422 59.4792 16.2422 59.2374C16.2422 58.9955 16.4372 58.7999 16.6782 58.7999H17.5501C17.7911 58.7999 17.9861 58.9955 17.9861 59.2374C17.9861 59.4792 17.7911 59.6748 17.5501 59.6748Z" fill="black"/>
<path d="M19.2963 62.3022C19.0553 62.3022 18.8604 62.1065 18.8604 61.8647V60.9898C18.8604 60.748 19.0553 60.5524 19.2963 60.5524C19.5373 60.5524 19.7323 60.748 19.7323 60.9898V61.8647C19.7323 62.1065 19.5373 62.3022 19.2963 62.3022Z" fill="black"/>
<path d="M19.2963 57.925C19.0553 57.925 18.8604 57.7294 18.8604 57.4876V56.6127C18.8604 56.3709 19.0553 56.1753 19.2963 56.1753C19.5373 56.1753 19.7323 56.3709 19.7323 56.6127V57.4876C19.7323 57.7294 19.5373 57.925 19.2963 57.925Z" fill="black"/>
<path d="M46.3513 73.2491H23.6586C23.4176 73.2491 23.2227 73.0534 23.2227 72.8116C23.2227 72.5698 23.4176 72.3742 23.6586 72.3742H46.3513C46.5923 72.3742 46.7873 72.5698 46.7873 72.8116C46.7873 73.0534 46.5923 73.2491 46.3513 73.2491Z" fill="black"/>
<path d="M41.989 76.3139H34.1332C33.8922 76.3139 33.6973 76.1183 33.6973 75.8764C33.6973 75.6346 33.8922 75.439 34.1332 75.439H41.989C42.23 75.439 42.425 75.6346 42.425 75.8764C42.425 76.1183 42.23 76.3139 41.989 76.3139Z" fill="black"/>
<path d="M29.7714 76.3139H27.1528C26.9118 76.3139 26.7168 76.1183 26.7168 75.8764C26.7168 75.6346 26.9118 75.439 27.1528 75.439H29.7714C30.0124 75.439 30.2074 75.6346 30.2074 75.8764C30.2074 76.1183 30.0124 76.3139 29.7714 76.3139Z" fill="black"/>
<g clip-path="url(#clip1_590_8)">
<path d="M41.1613 21.416C40.3934 21.4864 39.8066 22.1574 39.8066 22.9633V58.5278C39.8066 59.2843 40.3212 59.9254 41.0317 60.0587L56.5415 62.9503C56.9752 63.0319 57.4189 62.9091 57.7552 62.6118C58.0929 62.3159 58.2869 61.8808 58.2869 61.421V21.5275C58.2869 21.0887 58.1144 20.6775 57.806 20.3817C57.4961 20.0851 57.089 19.9406 56.6711 19.9795L41.1613 21.416ZM54.2209 43.5994C53.5826 43.5994 53.0645 42.6467 53.0645 41.4739C53.0645 40.2988 53.5826 39.3492 54.2209 39.3492C54.8599 39.3492 55.378 40.2996 55.378 41.4739C55.378 42.646 54.8599 43.5994 54.2209 43.5994Z" fill="#2E3192"/>
<path d="M80.8067 40.641L68.6845 31.2202V36.1077H59.2666V45.1151H68.6845V50.0012L80.8067 40.641Z" fill="#2E3192"/>
<path d="M53.0645 41.4731C53.0645 42.6459 53.5825 43.5986 54.2209 43.5986C54.8599 43.5986 55.378 42.6459 55.378 41.4731C55.378 40.298 54.8599 39.3484 54.2209 39.3484C53.5825 39.3484 53.0645 40.298 53.0645 41.4731Z" fill="white"/>
<path d="M67.629 34.7222V22.564C67.629 22.245 67.5067 21.9327 67.2906 21.7072C67.0766 21.4818 66.7782 21.3522 66.4741 21.3522H59.2666V23.7743H65.317V34.7229H67.629V34.7222Z" fill="#2E3192"/>
<path d="M59.2666 59.1734V61.5954H66.4741C66.7782 61.5954 67.0766 61.4666 67.2906 61.2404C67.5067 61.0157 67.629 60.7027 67.629 60.3844V46.4265H65.3162V59.1734H59.2666Z" fill="#2E3192"/>
</g>
</g>
<defs>
<clipPath id="clip0_590_8">
<rect width="110" height="81" fill="white" transform="translate(0.5 0.348511)"/>
</clipPath>
<clipPath id="clip1_590_8">
<rect width="41" height="43" fill="white" transform="translate(39.8066 19.9734)"/>
</clipPath>
</defs>
</svg>
