<svg width="120" height="88" viewBox="0 0 120 88" fill="none" xmlns="http://www.w3.org/2000/svg">
<g clip-path="url(#clip0_1_3005)">
<path d="M115.734 70.1621H109.052H96.8426C94.4822 70.1621 92.3995 68.143 92.3907 65.7875C92.4025 63.4319 94.4852 61.6018 96.8426 61.6018H109.052H109.07C111.43 61.6018 113.327 59.5827 113.336 57.2272C113.327 54.8716 111.427 53.0415 109.07 53.0415H109.052H105.413C103.052 53.0415 100.969 51.0224 100.961 48.6669C100.972 46.3113 103.055 44.4812 105.413 44.4812H109.052H114.148C116.508 44.4812 118.561 42.4621 118.573 40.1065C118.561 37.751 116.508 35.9208 114.148 35.9208H105.897C104.325 27.4845 100.278 19.4201 93.7466 12.8936C77.6761 -3.16437 52.2764 -4.21522 34.9859 9.73809L20.5224 9.5049C18.1562 9.47833 16.2153 11.3705 16.1887 13.7349C16.1828 14.2455 16.2685 14.7385 16.425 15.196C17.0011 16.8491 18.5668 18.0445 20.422 18.0682L27.8989 18.2276C30.2652 18.2541 32.1617 20.1935 32.1322 22.5579C32.1056 24.9223 30.1647 26.8174 27.7985 26.7879L16.2921 26.6373L4.33966 26.4809C1.97044 26.4455 0.0295738 28.3405 3.24398e-05 30.705C-0.0265548 33.0694 1.86705 35.0087 4.23331 35.0353L16.1858 35.2006L19.1251 35.2419C21.4914 35.2685 23.3879 37.2078 23.3584 39.5723C23.3318 41.9367 21.3909 43.8318 19.0247 43.8022L16.0853 43.7373L14.4901 43.7019C12.1238 43.6753 10.1829 45.5674 10.1564 47.9318C10.1298 50.2963 12.0234 52.2356 14.3896 52.2622L19.3674 52.3389C20.9715 60.6838 25.0039 68.6537 31.4705 75.1123C47.3637 90.9932 72.3794 92.1946 89.6581 78.7254H115.734C118.095 78.7254 119.991 76.7063 120 74.3507C119.991 71.9952 118.095 70.1621 115.734 70.1621Z" fill="#DFE4E8"/>
<path d="M50.9736 4.99444H45.2603C44.9974 4.99444 44.7847 4.7819 44.7847 4.51919C44.7847 4.25648 44.9974 4.04395 45.2603 4.04395H50.9736C51.2365 4.04395 51.4492 4.25648 51.4492 4.51919C51.4492 4.7819 51.2365 4.99444 50.9736 4.99444Z" fill="black"/>
<path d="M42.4038 4.99444H31.9314C31.6685 4.99444 31.4558 4.7819 31.4558 4.51919C31.4558 4.25648 31.6685 4.04395 31.9314 4.04395H42.4038C42.6668 4.04395 42.8795 4.25648 42.8795 4.51919C42.8795 4.7819 42.6668 4.99444 42.4038 4.99444Z" fill="black"/>
<path d="M63.8271 2.13994H40.5013C40.2383 2.13994 40.0256 1.92741 40.0256 1.6647C40.0256 1.40198 40.2383 1.18945 40.5013 1.18945H63.8271C64.09 1.18945 64.3027 1.40198 64.3027 1.6647C64.3027 1.92741 64.09 2.13994 63.8271 2.13994Z" fill="black"/>
<path d="M36.6904 2.13994H34.7849C34.522 2.13994 34.3093 1.92741 34.3093 1.6647C34.3093 1.40198 34.522 1.18945 34.7849 1.18945H36.6904C36.9533 1.18945 37.166 1.40198 37.166 1.6647C37.166 1.92741 36.9533 2.13994 36.6904 2.13994Z" fill="black"/>
<path d="M100.958 18.3133H99.5308C99.2679 18.3133 99.0552 18.1008 99.0552 17.838C99.0552 17.5753 99.2679 17.3628 99.5308 17.3628H100.958C101.221 17.3628 101.433 17.5753 101.433 17.838C101.433 18.1008 101.221 18.3133 100.958 18.3133Z" fill="black"/>
<path d="M93.8175 18.3133H92.3907C92.1277 18.3133 91.915 18.1008 91.915 17.838C91.915 17.5753 92.1277 17.3628 92.3907 17.3628H93.8175C94.0804 17.3628 94.2931 17.5753 94.2931 17.838C94.2931 18.1008 94.0804 18.3133 93.8175 18.3133Z" fill="black"/>
<path d="M99.7198 21.3035C99.5987 21.3035 99.4776 21.2563 99.3831 21.1648L98.3727 20.1553C98.1866 19.9693 98.1866 19.6682 98.3727 19.4822C98.5588 19.2963 98.8602 19.2963 99.0463 19.4822L100.057 20.4918C100.243 20.6777 100.243 20.9788 100.057 21.1648C99.965 21.2563 99.8409 21.3035 99.7198 21.3035Z" fill="black"/>
<path d="M94.6712 16.2557C94.5501 16.2557 94.429 16.2084 94.3345 16.1169L93.3242 15.1074C93.138 14.9214 93.138 14.6204 93.3242 14.4344C93.5103 14.2484 93.8116 14.2484 93.9977 14.4344L95.008 15.4439C95.1941 15.6299 95.1941 15.931 95.008 16.1169C94.9135 16.2114 94.7924 16.2557 94.6712 16.2557Z" fill="black"/>
<path d="M96.6741 22.5935C96.4112 22.5935 96.1985 22.381 96.1985 22.1183V20.6925C96.1985 20.4298 96.4112 20.2173 96.6741 20.2173C96.937 20.2173 97.1497 20.4298 97.1497 20.6925V22.1183C97.1497 22.381 96.937 22.5935 96.6741 22.5935Z" fill="black"/>
<path d="M96.6741 15.4587C96.4112 15.4587 96.1985 15.2462 96.1985 14.9835V13.5578C96.1985 13.2951 96.4112 13.0825 96.6741 13.0825C96.937 13.0825 97.1497 13.2951 97.1497 13.5578V14.9835C97.1497 15.2462 96.937 15.4587 96.6741 15.4587Z" fill="black"/>
<path d="M93.6609 21.3035C93.5398 21.3035 93.4187 21.2563 93.3242 21.1648C93.138 20.9788 93.138 20.6777 93.3242 20.4918L94.3345 19.4822C94.5206 19.2963 94.8219 19.2963 95.008 19.4822C95.1941 19.6682 95.1941 19.9693 95.008 20.1553L93.9977 21.1648C93.9061 21.2563 93.782 21.3035 93.6609 21.3035Z" fill="black"/>
<path d="M98.7095 16.2557C98.5884 16.2557 98.4673 16.2084 98.3727 16.1169C98.1866 15.931 98.1866 15.6299 98.3727 15.4439L99.3831 14.4344C99.5692 14.2484 99.8705 14.2484 100.057 14.4344C100.243 14.6204 100.243 14.9214 100.057 15.1074L99.0463 16.1169C98.9547 16.2114 98.8336 16.2557 98.7095 16.2557Z" fill="black"/>
<path d="M111.09 48.1235C110.916 48.1235 110.756 48.029 110.674 47.8755L110.092 46.8128C109.829 46.3317 109.436 45.9391 108.954 45.6764L107.891 45.0949C107.737 45.0122 107.643 44.8528 107.643 44.6787C107.643 44.5045 107.737 44.3451 107.891 44.2625L108.954 43.681C109.436 43.4182 109.829 43.0256 110.095 42.5445L110.677 41.4818C110.759 41.3283 110.919 41.2339 111.093 41.2339C111.268 41.2339 111.427 41.3283 111.51 41.4818L112.092 42.5445C112.355 43.0256 112.751 43.4182 113.232 43.681L114.296 44.2625C114.449 44.3451 114.544 44.5045 114.544 44.6787C114.544 44.8528 114.449 45.0122 114.296 45.0949L113.232 45.6764C112.751 45.9391 112.358 46.3317 112.092 46.8128L111.51 47.8755C111.427 48.029 111.265 48.1235 111.09 48.1235ZM109.409 44.841C110.05 45.1923 110.576 45.7148 110.928 46.3583L111.093 46.6594L111.259 46.3583C111.61 45.7177 112.133 45.1923 112.777 44.841L113.078 44.6757L112.777 44.5104C112.136 44.1591 111.61 43.6367 111.259 42.9932L111.093 42.6921L110.928 42.9932C110.576 43.6337 110.053 44.1591 109.409 44.5104L109.108 44.6757L109.409 44.841Z" fill="black"/>
<path d="M18.1355 13.3715C17.9612 13.3715 17.8017 13.277 17.719 13.1236L17.134 12.0609C16.8711 11.5797 16.4782 11.1872 15.9967 10.9244L14.9332 10.3429C14.7796 10.2603 14.6851 10.1009 14.6851 9.92672C14.6851 9.75256 14.7796 9.59316 14.9332 9.51051L15.9967 8.929C16.4782 8.66629 16.8711 8.2737 17.134 7.79255L17.716 6.72989C17.7987 6.57639 17.9582 6.48193 18.1325 6.48193C18.3068 6.48193 18.4664 6.57639 18.5491 6.72989L19.131 7.79255C19.394 8.2737 19.7898 8.66629 20.2684 8.929L21.3319 9.51051C21.4855 9.59316 21.58 9.75256 21.58 9.92672C21.58 10.1009 21.4855 10.2603 21.3319 10.3429L20.2743 10.9215C19.7928 11.1842 19.3999 11.5768 19.1369 12.0579L18.555 13.1206C18.4693 13.2771 18.3098 13.3715 18.1355 13.3715ZM16.4516 10.0891C17.0927 10.4403 17.6185 10.9628 17.9701 11.6063L18.1355 11.9074L18.3009 11.6063C18.6525 10.9658 19.1753 10.4403 19.8193 10.0891L20.1207 9.92377L19.8193 9.75847C19.1783 9.4072 18.6525 8.88472 18.3009 8.24123L18.1355 7.94014L17.9701 8.24123C17.6185 8.88177 17.0956 9.4072 16.4516 9.75847L16.1503 9.92377L16.4516 10.0891Z" fill="black"/>
<path d="M23.3612 64.4534H22.4099C22.147 64.4534 21.9343 64.2409 21.9343 63.9782C21.9343 63.7155 22.147 63.5029 22.4099 63.5029H23.3612C23.6241 63.5029 23.8368 63.7155 23.8368 63.9782C23.8368 64.2409 23.6241 64.4534 23.3612 64.4534Z" fill="black"/>
<path d="M18.5992 64.4534H17.648C17.3851 64.4534 17.1724 64.2409 17.1724 63.9782C17.1724 63.7155 17.3851 63.5029 17.648 63.5029H18.5992C18.8621 63.5029 19.0748 63.7155 19.0748 63.9782C19.0748 64.2409 18.8621 64.4534 18.5992 64.4534Z" fill="black"/>
<path d="M20.5047 67.3077C20.2418 67.3077 20.0291 67.0952 20.0291 66.8325V65.882C20.0291 65.6193 20.2418 65.4067 20.5047 65.4067C20.7676 65.4067 20.9803 65.6193 20.9803 65.882V66.8325C20.9803 67.0952 20.7676 67.3077 20.5047 67.3077Z" fill="black"/>
<path d="M20.5047 62.5523C20.2418 62.5523 20.0291 62.3398 20.0291 62.0771V61.1266C20.0291 60.8639 20.2418 60.6514 20.5047 60.6514C20.7676 60.6514 20.9803 60.8639 20.9803 61.1266V62.0771C20.9803 62.3398 20.7676 62.5523 20.5047 62.5523Z" fill="black"/>
<path d="M50.0196 79.2005H25.2639C25.001 79.2005 24.7883 78.988 24.7883 78.7252C24.7883 78.4625 25.001 78.25 25.2639 78.25H50.0196C50.2825 78.25 50.4952 78.4625 50.4952 78.7252C50.4952 78.988 50.2825 79.2005 50.0196 79.2005Z" fill="black"/>
<path d="M45.2604 82.5301H36.6905C36.4275 82.5301 36.2148 82.3176 36.2148 82.0548C36.2148 81.7921 36.4275 81.5796 36.6905 81.5796H45.2604C45.5233 81.5796 45.736 81.7921 45.736 82.0548C45.736 82.3176 45.5233 82.5301 45.2604 82.5301Z" fill="black"/>
<path d="M31.9314 82.5301H29.0747C28.8118 82.5301 28.5991 82.3176 28.5991 82.0548C28.5991 81.7921 28.8118 81.5796 29.0747 81.5796H31.9314C32.1943 81.5796 32.407 81.7921 32.407 82.0548C32.407 82.3176 32.1943 82.5301 31.9314 82.5301Z" fill="black"/>
<g clip-path="url(#clip1_1_3005)">
<path d="M44.3577 22.8882C43.52 22.9647 42.8799 23.6937 42.8799 24.5692V63.2073C42.8799 64.029 43.4412 64.7255 44.2164 64.8704L61.1361 68.0119C61.6092 68.1006 62.0932 67.9671 62.4601 67.6441C62.8286 67.3227 63.0401 66.85 63.0401 66.3504V23.0094C63.0401 22.5326 62.852 22.0859 62.5155 21.7645C62.1775 21.4423 61.7333 21.2853 61.2774 21.3276L44.3577 22.8882ZM58.6045 46.9887C57.9082 46.9887 57.343 45.9537 57.343 44.6795C57.343 43.4029 57.9082 42.3712 58.6045 42.3712C59.3016 42.3712 59.8668 43.4037 59.8668 44.6795C59.8668 45.9529 59.3016 46.9887 58.6045 46.9887Z" fill="#2E3192"/>
<path d="M87.6072 43.7745L74.383 33.5396V38.8495H64.1089V48.6353H74.383V53.9436L87.6072 43.7745Z" fill="#2E3192"/>
<path d="M57.343 44.6785C57.343 45.9526 57.9082 46.9876 58.6045 46.9876C59.3017 46.9876 59.8669 45.9526 59.8669 44.6785C59.8669 43.4018 59.3017 42.3701 58.6045 42.3701C57.9082 42.3701 57.343 43.4018 57.343 44.6785Z" fill="white"/>
<path d="M73.2315 37.3442V24.1353C73.2315 23.7887 73.0981 23.4494 72.8623 23.2045C72.6289 22.9596 72.3034 22.8188 71.9716 22.8188H64.1089V25.4502H70.7093V37.345H73.2315V37.3442Z" fill="#2E3192"/>
<path d="M64.1089 63.9085V66.5398H71.9716C72.3034 66.5398 72.6289 66.3999 72.8623 66.1542C73.0981 65.9101 73.2315 65.57 73.2315 65.2242V50.0601H70.7085V63.9085H64.1089Z" fill="#2E3192"/>
</g>
</g>
<defs>
<clipPath id="clip0_1_3005">
<rect width="120" height="88" fill="white"/>
</clipPath>
<clipPath id="clip1_1_3005">
<rect width="44.7273" height="46.716" fill="white" transform="translate(42.8799 21.3208)"/>
</clipPath>
</defs>
</svg>
