<svg width="45" height="45" viewBox="0 0 45 45" fill="none" xmlns="http://www.w3.org/2000/svg">
<rect y="0.000488281" width="45" height="45" rx="8" fill="#2E3192"/>
<path d="M30.75 11.2505H27.75C27.482 11.2505 27.2344 11.3935 27.1005 11.6255C26.9665 11.8575 26.9665 12.1435 27.1005 12.3755C27.2344 12.6075 27.482 12.7505 27.75 12.7505H30V32.2505H15V12.7505H17.25C17.518 12.7505 17.7656 12.6075 17.8995 12.3755C18.0335 12.1435 18.0335 11.8575 17.8995 11.6255C17.7656 11.3935 17.518 11.2505 17.25 11.2505H14.25C14.0511 11.2505 13.8603 11.3295 13.7196 11.4701C13.579 11.6108 13.5 11.8016 13.5 12.0005V33.0005C13.5 33.1994 13.579 33.3902 13.7196 33.5308C13.8603 33.6715 14.0511 33.7505 14.25 33.7505H30.75C30.9489 33.7505 31.1397 33.6715 31.2804 33.5308C31.421 33.3902 31.5 33.1994 31.5 33.0005V12.0005C31.5 11.8016 31.421 11.6108 31.2804 11.4701C31.1397 11.3295 30.9489 11.2505 30.75 11.2505Z" fill="white"/>
<path d="M19.4995 15.7505H25.4995C25.6984 15.7505 25.8892 15.6715 26.0299 15.5308C26.1705 15.3902 26.2495 15.1994 26.2495 15.0005V12.0005C26.2495 11.8016 26.1705 11.6108 26.0299 11.4701C25.8892 11.3295 25.6984 11.2505 25.4995 11.2505H19.4995C19.3006 11.2505 19.1098 11.3295 18.9692 11.4701C18.8285 11.6108 18.7495 11.8016 18.7495 12.0005V15.0005C18.7495 15.1994 18.8285 15.3902 18.9692 15.5308C19.1098 15.6715 19.3006 15.7505 19.4995 15.7505ZM20.2495 12.7505H24.7495V14.2505H20.2495V12.7505Z" fill="white"/>
<path d="M19.4995 27.7505C19.6984 27.7505 19.8893 27.6715 20.0299 27.5308C20.1705 27.3902 20.2495 27.1994 20.2495 27.0005V24.308L22.567 26.6255L21.217 27.9679C21.075 28.1087 20.9952 28.3004 20.9952 28.5005C20.9952 28.7005 21.075 28.8922 21.217 29.033C21.3578 29.175 21.5495 29.2548 21.7495 29.2548C21.9496 29.2548 22.1413 29.175 22.2821 29.033L23.6245 27.683L24.967 29.033C25.1078 29.175 25.2995 29.2548 25.4995 29.2548C25.6996 29.2548 25.8913 29.175 26.0321 29.033C26.174 28.8922 26.2539 28.7005 26.2539 28.5005C26.2539 28.3004 26.174 28.1087 26.0321 27.9679L24.6821 26.6255L26.0321 25.283C26.2222 25.0927 26.2966 24.8154 26.2269 24.5556C26.1573 24.2956 25.9544 24.0927 25.6944 24.0231C25.4346 23.9534 25.1573 24.0278 24.967 24.2179L23.6245 25.5679L21.3071 23.2505H21.7495C22.8213 23.2505 23.8117 22.6786 24.3476 21.7505C24.8834 20.8224 24.8834 19.6786 24.3476 18.7505C23.8117 17.8224 22.8213 17.2505 21.7495 17.2505H19.4995C19.3006 17.2505 19.1098 17.3295 18.9692 17.4701C18.8285 17.6107 18.7495 17.8016 18.7495 18.0005V27.0005C18.7495 27.1994 18.8285 27.3902 18.9692 27.5308C19.1098 27.6715 19.3006 27.7505 19.4995 27.7505ZM20.2495 18.7505H21.7495C22.2854 18.7505 22.7806 19.0364 23.0486 19.5005C23.3165 19.9645 23.3165 20.5364 23.0486 21.0005C22.7806 21.4645 22.2854 21.7505 21.7495 21.7505H20.2495V18.7505Z" fill="white"/>
</svg>
