<svg width="45" height="45" viewBox="0 0 45 45" fill="none" xmlns="http://www.w3.org/2000/svg">
<rect y="0.000488281" width="45" height="45" rx="8" fill="#2E3192"/>
<path d="M22.4997 11.8338C23.9142 11.8338 25.2707 12.3957 26.2709 13.3959C27.2711 14.3961 27.833 15.7526 27.833 17.1671C27.833 18.5816 27.2711 19.9382 26.2709 20.9384C25.2707 21.9386 23.9142 22.5005 22.4997 22.5005C21.0852 22.5005 19.7286 21.9386 18.7284 20.9384C17.7282 19.9382 17.1663 18.5816 17.1663 17.1671C17.1663 15.7526 17.7282 14.3961 18.7284 13.3959C19.7286 12.3957 21.0852 11.8338 22.4997 11.8338ZM22.4997 14.5005C21.7924 14.5005 21.1142 14.7814 20.6141 15.2815C20.114 15.7816 19.833 16.4599 19.833 17.1671C19.833 17.8744 20.114 18.5527 20.6141 19.0528C21.1142 19.5528 21.7924 19.8338 22.4997 19.8338C23.2069 19.8338 23.8852 19.5528 24.3853 19.0528C24.8854 18.5527 25.1663 17.8744 25.1663 17.1671C25.1663 16.4599 24.8854 15.7816 24.3853 15.2815C23.8852 14.7814 23.2069 14.5005 22.4997 14.5005ZM22.4997 23.8338C26.0597 23.8338 33.1663 25.6071 33.1663 29.1671V33.1671H11.833V29.1671C11.833 25.6071 18.9397 23.8338 22.4997 23.8338ZM22.4997 26.3671C18.5397 26.3671 14.3663 28.3138 14.3663 29.1671V30.6338H30.633V29.1671C30.633 28.3138 26.4597 26.3671 22.4997 26.3671Z" fill="white"/>
</svg>
