<svg width="13" height="13" viewBox="0 0 13 13" fill="none" xmlns="http://www.w3.org/2000/svg">
<path d="M5.41663 0.167145C8.31463 0.167145 10.6666 2.51914 10.6666 5.41714C10.6666 8.31514 8.31463 10.6671 5.41663 10.6671C2.51863 10.6671 0.166626 8.31514 0.166626 5.41714C0.166626 2.51914 2.51863 0.167145 5.41663 0.167145ZM5.41663 9.50048C7.67238 9.50048 9.49996 7.67289 9.49996 5.41714C9.49996 3.16081 7.67238 1.33381 5.41663 1.33381C3.16029 1.33381 1.33329 3.16081 1.33329 5.41714C1.33329 7.67289 3.16029 9.50048 5.41663 9.50048ZM10.3662 9.54189L12.0165 11.1916L11.191 12.017L9.54138 10.3667L10.3662 9.54189Z" fill="#2E3192"/>
</svg>
