<svg width="45" height="45" viewBox="0 0 45 45" fill="none" xmlns="http://www.w3.org/2000/svg">
<rect y="0.000488281" width="45" height="45" rx="8" fill="#2E3192"/>
<path d="M33.107 25.426L31.4243 23.9874C31.504 23.4993 31.5451 23.0009 31.5451 22.5026C31.5451 22.0042 31.504 21.5058 31.4243 21.0177L33.107 19.5791C33.2339 19.4705 33.3247 19.3257 33.3674 19.1642C33.4101 19.0027 33.4026 18.832 33.3459 18.6748L33.3228 18.608C32.8595 17.3134 32.1659 16.1132 31.2753 15.0655L31.2291 15.0115C31.1211 14.8845 30.9771 14.7932 30.8161 14.7496C30.6551 14.7061 30.4848 14.7123 30.3274 14.7675L28.2389 15.5099C27.4682 14.8779 26.6076 14.3796 25.6776 14.0302L25.2743 11.8466C25.2439 11.6823 25.1642 11.5311 25.0458 11.4132C24.9274 11.2953 24.7759 11.2162 24.6115 11.1864L24.5422 11.1735C23.2037 10.9321 21.796 10.9321 20.4575 11.1735L20.3882 11.1864C20.2238 11.2162 20.0723 11.2953 19.9539 11.4132C19.8355 11.5311 19.7558 11.6823 19.7254 11.8466L19.3195 14.0405C18.397 14.3899 17.5379 14.888 16.7763 15.515L14.6723 14.7675C14.515 14.7118 14.3445 14.7054 14.1834 14.749C14.0224 14.7926 13.8784 14.8842 13.7706 15.0115L13.7244 15.0655C12.8349 16.1139 12.1413 17.3139 11.6769 18.608L11.6538 18.6748C11.5382 18.996 11.6332 19.3556 11.8927 19.5791L13.5959 21.0331C13.5163 21.5161 13.4777 22.0093 13.4777 22.5C13.4777 22.9932 13.5163 23.4865 13.5959 23.9668L11.8927 25.4209C11.7658 25.5295 11.675 25.6742 11.6323 25.8358C11.5896 25.9973 11.5971 26.168 11.6538 26.3251L11.6769 26.3919C12.1419 27.6867 12.8304 28.8812 13.7244 29.9345L13.7706 29.9884C13.8786 30.1155 14.0226 30.2068 14.1836 30.2503C14.3446 30.2939 14.5149 30.2877 14.6723 30.2325L16.7763 29.4849C17.5418 30.1143 18.3973 30.6127 19.3195 30.9595L19.7254 33.1534C19.7558 33.3177 19.8355 33.4688 19.9539 33.5868C20.0723 33.7047 20.2238 33.7838 20.3882 33.8136L20.4575 33.8264C21.8083 34.0692 23.1914 34.0692 24.5422 33.8264L24.6115 33.8136C24.7759 33.7838 24.9274 33.7047 25.0458 33.5868C25.1642 33.4688 25.2439 33.3177 25.2743 33.1534L25.6776 30.9698C26.6072 30.6213 27.4727 30.1213 28.2389 29.4901L30.3274 30.2325C30.4847 30.2881 30.6552 30.2946 30.8163 30.251C30.9773 30.2074 31.1213 30.1158 31.2291 29.9884L31.2753 29.9345C32.1693 28.8787 32.8578 27.6867 33.3228 26.3919L33.3459 26.3251C33.4615 26.0092 33.3665 25.6495 33.107 25.426ZM29.6004 21.3208C29.6646 21.7088 29.698 22.1069 29.698 22.5051C29.698 22.9033 29.6646 23.3015 29.6004 23.6894L29.4308 24.7195L31.3498 26.3611C31.0589 27.0313 30.6917 27.6657 30.2555 28.2518L27.8715 27.4067L27.0648 28.0694C26.4509 28.573 25.7675 28.9686 25.0277 29.246L24.0489 29.6134L23.5891 32.1052C22.8635 32.1874 22.131 32.1874 21.4055 32.1052L20.9456 29.6082L19.9746 29.2357C19.2424 28.9583 18.5617 28.5627 17.9528 28.0617L17.1462 27.3964L14.7468 28.2493C14.3101 27.661 13.9453 27.0265 13.6524 26.3585L15.592 24.7016L15.425 23.674C15.3633 23.2912 15.3299 22.8956 15.3299 22.5051C15.3299 22.1121 15.3608 21.719 15.425 21.3363L15.592 20.3087L13.6524 18.6517C13.9427 17.9812 14.3101 17.3493 14.7468 16.761L17.1462 17.6139L17.9528 16.9485C18.5617 16.4476 19.2424 16.052 19.9746 15.7745L20.9482 15.4071L21.408 12.9101C22.1299 12.8279 22.8672 12.8279 23.5916 12.9101L24.0515 15.402L25.0303 15.7694C25.7675 16.0468 26.4534 16.4424 27.0674 16.9459L27.8741 17.6087L30.258 16.7635C30.6948 17.3518 31.0595 17.9864 31.3524 18.6543L29.4334 20.2958L29.6004 21.3208ZM22.5024 17.7269C20.0054 17.7269 17.9811 19.7512 17.9811 22.2482C17.9811 24.7452 20.0054 26.7696 22.5024 26.7696C24.9994 26.7696 27.0237 24.7452 27.0237 22.2482C27.0237 19.7512 24.9994 17.7269 22.5024 17.7269ZM24.537 24.2828C24.2702 24.5505 23.953 24.7627 23.6038 24.9073C23.2547 25.0519 22.8804 25.126 22.5024 25.1254C21.7343 25.1254 21.0124 24.8249 20.4678 24.2828C20.2002 24.016 19.988 23.6988 19.8434 23.3497C19.6988 23.0005 19.6246 22.6262 19.6252 22.2482C19.6252 21.4801 19.9258 20.7582 20.4678 20.2136C21.0124 19.669 21.7343 19.371 22.5024 19.371C23.2705 19.371 23.9924 19.669 24.537 20.2136C24.8046 20.4805 25.0169 20.7976 25.1615 21.1468C25.3061 21.496 25.3802 21.8703 25.3796 22.2482C25.3796 23.0163 25.0791 23.7382 24.537 24.2828Z" fill="white"/>
</svg>
