<svg width="45" height="45" viewBox="0 0 45 45" fill="none" xmlns="http://www.w3.org/2000/svg">
<rect y="0.000488281" width="45" height="45" rx="8" fill="#2E3192"/>
<mask id="path-2-outside-1_977_9" maskUnits="userSpaceOnUse" x="12.75" y="9.48947" width="19" height="26" fill="black">
<rect fill="white" x="12.75" y="9.48947" width="19" height="26"/>
<path d="M31.2473 14.7831C31.2492 14.801 31.25 14.8191 31.25 14.8374V33.9681C31.25 34.2682 31.0067 34.5115 30.7066 34.5115H14.2934C13.9933 34.5115 13.75 34.2682 13.75 33.9681V11.0329C13.75 10.7328 13.9933 10.4895 14.2934 10.4895H26.9025C26.9206 10.4895 26.9387 10.4905 26.9568 10.4922C26.97 10.4935 26.9829 10.4957 26.9957 10.498C27.0004 10.4987 27.005 10.4992 27.0096 10.5C27.0252 10.5032 27.0402 10.5072 27.0553 10.5116C27.0572 10.5121 27.059 10.5124 27.0608 10.5129C27.0761 10.5176 27.0912 10.5232 27.1058 10.529C27.1074 10.5299 27.1091 10.5302 27.1108 10.5309C27.1247 10.5367 27.1381 10.5433 27.1513 10.5501C27.1538 10.5513 27.1565 10.5525 27.159 10.5538C27.1709 10.5602 27.1823 10.5672 27.1936 10.5744C27.1972 10.5768 27.2011 10.579 27.2048 10.5813C27.2148 10.588 27.2246 10.5955 27.2341 10.6031C27.2385 10.6064 27.2432 10.6094 27.2475 10.6131C27.2574 10.6213 27.2668 10.6301 27.2762 10.6389C27.2795 10.6423 27.2834 10.6451 27.2867 10.6487L31.0912 14.4531C31.0945 14.4564 31.0975 14.4603 31.1009 14.4636C31.1098 14.473 31.1185 14.4824 31.1267 14.4923C31.1304 14.4967 31.1334 14.5013 31.1367 14.5057C31.1443 14.5154 31.1518 14.525 31.1585 14.5352C31.161 14.5387 31.163 14.5426 31.1654 14.5463C31.1726 14.5576 31.1796 14.569 31.186 14.5809C31.1873 14.5835 31.1885 14.5861 31.1897 14.5886C31.1966 14.6019 31.2031 14.6153 31.209 14.629C31.2096 14.6307 31.2101 14.6324 31.2108 14.6341C31.2167 14.6488 31.2222 14.6637 31.2269 14.679C31.2274 14.6808 31.2277 14.6827 31.2282 14.6845C31.2326 14.6996 31.2366 14.7148 31.2398 14.7304C31.2406 14.7349 31.2411 14.7396 31.2418 14.7442C31.2441 14.7571 31.2463 14.77 31.2477 14.7832L31.2473 14.7831ZM27.4456 12.345V14.2938H29.3944L27.4456 12.345ZM14.8365 33.4245H30.1631V15.3808H26.9023C26.6022 15.3808 26.3587 15.1375 26.3587 14.8374V11.5764H14.8366L14.8365 33.4245ZM17.9053 28.9864C17.5621 28.9864 17.3171 28.7413 17.3171 28.3981C17.3171 28.0549 17.5621 27.7853 17.9053 27.7853H21.4842C21.8274 27.7853 22.0725 28.0549 22.0725 28.3981C22.0725 28.7412 21.8274 28.9864 21.4842 28.9864H17.9053ZM17.9053 31.3886C17.5621 31.3886 17.3171 31.1435 17.3171 30.8003C17.3171 30.4571 17.5621 30.1875 17.9053 30.1875H21.4842C21.8274 30.1875 22.0725 30.4571 22.0725 30.8003C22.0725 31.1435 21.8274 31.3886 21.4842 31.3886H17.9053ZM23.4304 28.9864C23.0872 28.9864 22.8421 28.7413 22.8421 28.3981C22.8421 28.0549 23.0872 27.7853 23.4304 27.7853H27.0093C27.3525 27.7853 27.5976 28.0549 27.5976 28.3981C27.5976 28.7412 27.3525 28.9864 27.0093 28.9864H23.4304ZM23.4304 31.3886C23.0872 31.3886 22.8421 31.1435 22.8421 30.8003C22.8421 30.4571 23.0872 30.1875 23.4304 30.1875H27.0093C27.3525 30.1875 27.5976 30.4571 27.5976 30.8003C27.5976 31.1435 27.3525 31.3886 27.0093 31.3886H23.4304ZM27.3737 21.3208C27.5443 21.3208 27.6824 21.46 27.6824 21.6316V21.7708C27.6824 22.6911 26.9391 23.4396 26.025 23.4396C25.1109 23.4396 24.3676 22.6911 24.3676 21.7708V21.6316C24.3676 21.46 24.5057 21.3208 24.6762 21.3208H24.7235L25.4871 18.449L22.9827 18.4125V23.168L24.0325 24.2091C24.1689 24.3445 24.2456 24.5287 24.2456 24.7209V25.1884C24.2456 25.36 24.1074 25.4991 23.9368 25.4991H20.8583C20.6877 25.4991 20.5494 25.36 20.5494 25.1884V24.7209C20.5494 24.5287 20.6262 24.3446 20.7628 24.2091L21.8124 23.168V18.4125L19.308 18.449L20.0716 21.3208H20.1188C20.2894 21.3208 20.4276 21.46 20.4276 21.6316V21.7708C20.4276 22.6911 19.6842 23.4396 18.7701 23.4396C17.856 23.4396 17.1127 22.6911 17.1127 21.7708V21.6316C17.1127 21.46 17.2509 21.3208 17.4213 21.3208H17.4672L18.3666 17.8009C18.3929 17.6546 18.5172 17.5292 18.6704 17.5292H21.8124V16.8059C21.8124 16.6343 21.9506 16.495 22.121 16.495H22.674C22.8446 16.495 22.9827 16.6343 22.9827 16.8059V17.5292H26.1247C26.2778 17.5292 26.4022 17.6546 26.4258 17.7886L27.3278 21.3208L27.3737 21.3208ZM26.3124 21.1927L25.9208 19.8226L25.5294 21.1927H26.3124ZM19.0701 21.1927L18.6787 19.8226L18.2873 21.1927H19.0701Z"/>
</mask>
<path d="M31.2473 14.7831C31.2492 14.801 31.25 14.8191 31.25 14.8374V33.9681C31.25 34.2682 31.0067 34.5115 30.7066 34.5115H14.2934C13.9933 34.5115 13.75 34.2682 13.75 33.9681V11.0329C13.75 10.7328 13.9933 10.4895 14.2934 10.4895H26.9025C26.9206 10.4895 26.9387 10.4905 26.9568 10.4922C26.97 10.4935 26.9829 10.4957 26.9957 10.498C27.0004 10.4987 27.005 10.4992 27.0096 10.5C27.0252 10.5032 27.0402 10.5072 27.0553 10.5116C27.0572 10.5121 27.059 10.5124 27.0608 10.5129C27.0761 10.5176 27.0912 10.5232 27.1058 10.529C27.1074 10.5299 27.1091 10.5302 27.1108 10.5309C27.1247 10.5367 27.1381 10.5433 27.1513 10.5501C27.1538 10.5513 27.1565 10.5525 27.159 10.5538C27.1709 10.5602 27.1823 10.5672 27.1936 10.5744C27.1972 10.5768 27.2011 10.579 27.2048 10.5813C27.2148 10.588 27.2246 10.5955 27.2341 10.6031C27.2385 10.6064 27.2432 10.6094 27.2475 10.6131C27.2574 10.6213 27.2668 10.6301 27.2762 10.6389C27.2795 10.6423 27.2834 10.6451 27.2867 10.6487L31.0912 14.4531C31.0945 14.4564 31.0975 14.4603 31.1009 14.4636C31.1098 14.473 31.1185 14.4824 31.1267 14.4923C31.1304 14.4967 31.1334 14.5013 31.1367 14.5057C31.1443 14.5154 31.1518 14.525 31.1585 14.5352C31.161 14.5387 31.163 14.5426 31.1654 14.5463C31.1726 14.5576 31.1796 14.569 31.186 14.5809C31.1873 14.5835 31.1885 14.5861 31.1897 14.5886C31.1966 14.6019 31.2031 14.6153 31.209 14.629C31.2096 14.6307 31.2101 14.6324 31.2108 14.6341C31.2167 14.6488 31.2222 14.6637 31.2269 14.679C31.2274 14.6808 31.2277 14.6827 31.2282 14.6845C31.2326 14.6996 31.2366 14.7148 31.2398 14.7304C31.2406 14.7349 31.2411 14.7396 31.2418 14.7442C31.2441 14.7571 31.2463 14.77 31.2477 14.7832L31.2473 14.7831ZM27.4456 12.345V14.2938H29.3944L27.4456 12.345ZM14.8365 33.4245H30.1631V15.3808H26.9023C26.6022 15.3808 26.3587 15.1375 26.3587 14.8374V11.5764H14.8366L14.8365 33.4245ZM17.9053 28.9864C17.5621 28.9864 17.3171 28.7413 17.3171 28.3981C17.3171 28.0549 17.5621 27.7853 17.9053 27.7853H21.4842C21.8274 27.7853 22.0725 28.0549 22.0725 28.3981C22.0725 28.7412 21.8274 28.9864 21.4842 28.9864H17.9053ZM17.9053 31.3886C17.5621 31.3886 17.3171 31.1435 17.3171 30.8003C17.3171 30.4571 17.5621 30.1875 17.9053 30.1875H21.4842C21.8274 30.1875 22.0725 30.4571 22.0725 30.8003C22.0725 31.1435 21.8274 31.3886 21.4842 31.3886H17.9053ZM23.4304 28.9864C23.0872 28.9864 22.8421 28.7413 22.8421 28.3981C22.8421 28.0549 23.0872 27.7853 23.4304 27.7853H27.0093C27.3525 27.7853 27.5976 28.0549 27.5976 28.3981C27.5976 28.7412 27.3525 28.9864 27.0093 28.9864H23.4304ZM23.4304 31.3886C23.0872 31.3886 22.8421 31.1435 22.8421 30.8003C22.8421 30.4571 23.0872 30.1875 23.4304 30.1875H27.0093C27.3525 30.1875 27.5976 30.4571 27.5976 30.8003C27.5976 31.1435 27.3525 31.3886 27.0093 31.3886H23.4304ZM27.3737 21.3208C27.5443 21.3208 27.6824 21.46 27.6824 21.6316V21.7708C27.6824 22.6911 26.9391 23.4396 26.025 23.4396C25.1109 23.4396 24.3676 22.6911 24.3676 21.7708V21.6316C24.3676 21.46 24.5057 21.3208 24.6762 21.3208H24.7235L25.4871 18.449L22.9827 18.4125V23.168L24.0325 24.2091C24.1689 24.3445 24.2456 24.5287 24.2456 24.7209V25.1884C24.2456 25.36 24.1074 25.4991 23.9368 25.4991H20.8583C20.6877 25.4991 20.5494 25.36 20.5494 25.1884V24.7209C20.5494 24.5287 20.6262 24.3446 20.7628 24.2091L21.8124 23.168V18.4125L19.308 18.449L20.0716 21.3208H20.1188C20.2894 21.3208 20.4276 21.46 20.4276 21.6316V21.7708C20.4276 22.6911 19.6842 23.4396 18.7701 23.4396C17.856 23.4396 17.1127 22.6911 17.1127 21.7708V21.6316C17.1127 21.46 17.2509 21.3208 17.4213 21.3208H17.4672L18.3666 17.8009C18.3929 17.6546 18.5172 17.5292 18.6704 17.5292H21.8124V16.8059C21.8124 16.6343 21.9506 16.495 22.121 16.495H22.674C22.8446 16.495 22.9827 16.6343 22.9827 16.8059V17.5292H26.1247C26.2778 17.5292 26.4022 17.6546 26.4258 17.7886L27.3278 21.3208L27.3737 21.3208ZM26.3124 21.1927L25.9208 19.8226L25.5294 21.1927H26.3124ZM19.0701 21.1927L18.6787 19.8226L18.2873 21.1927H19.0701Z" fill="white"/>
<path d="M31.2473 14.7831C31.2492 14.801 31.25 14.8191 31.25 14.8374V33.9681C31.25 34.2682 31.0067 34.5115 30.7066 34.5115H14.2934C13.9933 34.5115 13.75 34.2682 13.75 33.9681V11.0329C13.75 10.7328 13.9933 10.4895 14.2934 10.4895H26.9025C26.9206 10.4895 26.9387 10.4905 26.9568 10.4922C26.97 10.4935 26.9829 10.4957 26.9957 10.498C27.0004 10.4987 27.005 10.4992 27.0096 10.5C27.0252 10.5032 27.0402 10.5072 27.0553 10.5116C27.0572 10.5121 27.059 10.5124 27.0608 10.5129C27.0761 10.5176 27.0912 10.5232 27.1058 10.529C27.1074 10.5299 27.1091 10.5302 27.1108 10.5309C27.1247 10.5367 27.1381 10.5433 27.1513 10.5501C27.1538 10.5513 27.1565 10.5525 27.159 10.5538C27.1709 10.5602 27.1823 10.5672 27.1936 10.5744C27.1972 10.5768 27.2011 10.579 27.2048 10.5813C27.2148 10.588 27.2246 10.5955 27.2341 10.6031C27.2385 10.6064 27.2432 10.6094 27.2475 10.6131C27.2574 10.6213 27.2668 10.6301 27.2762 10.6389C27.2795 10.6423 27.2834 10.6451 27.2867 10.6487L31.0912 14.4531C31.0945 14.4564 31.0975 14.4603 31.1009 14.4636C31.1098 14.473 31.1185 14.4824 31.1267 14.4923C31.1304 14.4967 31.1334 14.5013 31.1367 14.5057C31.1443 14.5154 31.1518 14.525 31.1585 14.5352C31.161 14.5387 31.163 14.5426 31.1654 14.5463C31.1726 14.5576 31.1796 14.569 31.186 14.5809C31.1873 14.5835 31.1885 14.5861 31.1897 14.5886C31.1966 14.6019 31.2031 14.6153 31.209 14.629C31.2096 14.6307 31.2101 14.6324 31.2108 14.6341C31.2167 14.6488 31.2222 14.6637 31.2269 14.679C31.2274 14.6808 31.2277 14.6827 31.2282 14.6845C31.2326 14.6996 31.2366 14.7148 31.2398 14.7304C31.2406 14.7349 31.2411 14.7396 31.2418 14.7442C31.2441 14.7571 31.2463 14.77 31.2477 14.7832L31.2473 14.7831ZM27.4456 12.345V14.2938H29.3944L27.4456 12.345ZM14.8365 33.4245H30.1631V15.3808H26.9023C26.6022 15.3808 26.3587 15.1375 26.3587 14.8374V11.5764H14.8366L14.8365 33.4245ZM17.9053 28.9864C17.5621 28.9864 17.3171 28.7413 17.3171 28.3981C17.3171 28.0549 17.5621 27.7853 17.9053 27.7853H21.4842C21.8274 27.7853 22.0725 28.0549 22.0725 28.3981C22.0725 28.7412 21.8274 28.9864 21.4842 28.9864H17.9053ZM17.9053 31.3886C17.5621 31.3886 17.3171 31.1435 17.3171 30.8003C17.3171 30.4571 17.5621 30.1875 17.9053 30.1875H21.4842C21.8274 30.1875 22.0725 30.4571 22.0725 30.8003C22.0725 31.1435 21.8274 31.3886 21.4842 31.3886H17.9053ZM23.4304 28.9864C23.0872 28.9864 22.8421 28.7413 22.8421 28.3981C22.8421 28.0549 23.0872 27.7853 23.4304 27.7853H27.0093C27.3525 27.7853 27.5976 28.0549 27.5976 28.3981C27.5976 28.7412 27.3525 28.9864 27.0093 28.9864H23.4304ZM23.4304 31.3886C23.0872 31.3886 22.8421 31.1435 22.8421 30.8003C22.8421 30.4571 23.0872 30.1875 23.4304 30.1875H27.0093C27.3525 30.1875 27.5976 30.4571 27.5976 30.8003C27.5976 31.1435 27.3525 31.3886 27.0093 31.3886H23.4304ZM27.3737 21.3208C27.5443 21.3208 27.6824 21.46 27.6824 21.6316V21.7708C27.6824 22.6911 26.9391 23.4396 26.025 23.4396C25.1109 23.4396 24.3676 22.6911 24.3676 21.7708V21.6316C24.3676 21.46 24.5057 21.3208 24.6762 21.3208H24.7235L25.4871 18.449L22.9827 18.4125V23.168L24.0325 24.2091C24.1689 24.3445 24.2456 24.5287 24.2456 24.7209V25.1884C24.2456 25.36 24.1074 25.4991 23.9368 25.4991H20.8583C20.6877 25.4991 20.5494 25.36 20.5494 25.1884V24.7209C20.5494 24.5287 20.6262 24.3446 20.7628 24.2091L21.8124 23.168V18.4125L19.308 18.449L20.0716 21.3208H20.1188C20.2894 21.3208 20.4276 21.46 20.4276 21.6316V21.7708C20.4276 22.6911 19.6842 23.4396 18.7701 23.4396C17.856 23.4396 17.1127 22.6911 17.1127 21.7708V21.6316C17.1127 21.46 17.2509 21.3208 17.4213 21.3208H17.4672L18.3666 17.8009C18.3929 17.6546 18.5172 17.5292 18.6704 17.5292H21.8124V16.8059C21.8124 16.6343 21.9506 16.495 22.121 16.495H22.674C22.8446 16.495 22.9827 16.6343 22.9827 16.8059V17.5292H26.1247C26.2778 17.5292 26.4022 17.6546 26.4258 17.7886L27.3278 21.3208L27.3737 21.3208ZM26.3124 21.1927L25.9208 19.8226L25.5294 21.1927H26.3124ZM19.0701 21.1927L18.6787 19.8226L18.2873 21.1927H19.0701Z" stroke="white" stroke-width="0.6" mask="url(#path-2-outside-1_977_9)"/>
</svg>
