<svg width="26" height="37" viewBox="0 0 26 37" fill="none" xmlns="http://www.w3.org/2000/svg">
<path d="M0.645182 11.8463C0.0644436 12.509 -0.139597 13.6072 0.0958373 14.535C0.331272 15.4628 0.990485 16.2012 1.75957 16.4853C1.99501 16.561 2.23044 16.6178 2.48158 16.5989C2.84257 16.5799 3.20357 16.4474 3.50179 16.2013C3.54887 16.1634 3.61166 16.1066 3.62736 16.0498C3.65875 15.9551 3.62735 15.8415 3.59596 15.7468C3.36053 15.0841 3.20357 14.3835 3.1094 13.664C3.04661 13.1717 3.25066 11.922 3.04661 11.5622C2.60714 10.7102 1.06896 11.335 0.645182 11.8463Z" fill="white"/>
<path d="M25.4824 1.64105V35.2045C25.4824 35.9182 24.9664 36.5005 24.3437 36.5005H1.76433C1.14158 36.5005 0.62558 35.9182 0.62558 35.2045V1.64105C0.62558 0.927336 1.14158 0.345093 1.76433 0.345093H24.3437C24.9664 0.363875 25.4824 0.927336 25.4824 1.64105Z" fill="#2E79BE"/>
<path d="M23.6404 2.6048H2.32574C2.0496 2.6048 1.82574 2.82865 1.82574 3.1048V33.7408C1.82574 34.0169 2.0496 34.2408 2.32575 34.2408H23.6404C23.9165 34.2408 24.1404 34.0169 24.1404 33.7408V3.1048C24.1404 2.82866 23.9165 2.6048 23.6404 2.6048Z" fill="white"/>
<path d="M7.99421 11.0729H3.34616C3.09779 11.0729 2.8849 10.8846 2.8849 10.665V5.91037C2.8849 5.69068 3.09779 5.50238 3.34616 5.50238H7.99421C8.24258 5.50238 8.45546 5.69068 8.45546 5.91037V10.665C8.43772 10.9003 8.24258 11.0729 7.99421 11.0729Z" fill="#E5E5E5"/>
<path d="M19.6164 7.99841L10.5459 7.90757V6.18152L19.6303 6.27236L19.6164 7.99841Z" fill="#E5E5E5"/>
<path d="M20.4333 20.6825L4.61534 20.5723V18.4228L20.4333 18.5331V20.6825Z" fill="#E5E5E5"/>
<path d="M20.9631 31.4514L5.14508 31.367V29.7213L20.9631 29.8479V31.4514Z" fill="#E5E5E5"/>
<path d="M18.9858 33.1815L5.14508 33.0971V31.4514L18.9858 31.5358V33.1815Z" fill="#E5E5E5"/>
<path d="M10.3611 9.70729L10.3586 10.2986L17.1438 10.3266L17.1463 9.73532L10.3611 9.70729Z" fill="#E5E5E5"/>
<path d="M10.0935 27.3903L9.42981 25.5611L8.42472 25.5423L7.89373 24.392L7.26792 25.5423L4.65089 25.5234V25.3348L7.15413 25.3537L7.89373 23.9771L8.55747 25.3537H9.56255L10.0746 26.7869L11.1935 23.1662L11.8382 25.3726L12.7864 25.3914L13.1847 26.3343L13.6398 25.3914H14.6449L15.2707 23.1851L16.2379 26.372L16.5602 25.4103L19.4428 25.4291V25.6177L16.693 25.5988L16.2189 26.9943L15.2897 23.864L14.7776 25.58H13.7536L13.1657 26.8057L12.6537 25.58L11.7055 25.5611L11.1935 23.8262L10.0935 27.3903Z" fill="#EB573F"/>
<path d="M5.01474 22.1498L4.67339 22.1475L4.62914 28.427L4.97049 28.4294L5.01474 22.1498Z" fill="#4E88FF"/>
<path d="M19.5703 28.7018L19.5729 28.3246L4.62932 28.2215L4.62669 28.5987L19.5703 28.7018Z" fill="#4E88FF"/>
<path d="M19.3473 16.3021C19.2335 16.3021 19.1577 16.2078 19.1577 16.0947L19.1766 13.5301C19.1766 13.4169 19.2714 13.3226 19.3852 13.3226C19.499 13.3226 19.5749 13.4169 19.5749 13.5301L19.5559 16.0947C19.5369 16.2078 19.4421 16.3021 19.3473 16.3021Z" fill="#1B71C2"/>
<path d="M18.4006 16.0946V16.0758L18.4195 13.6997C18.3247 13.7752 18.192 13.8317 18.0213 13.8506L18.0023 15.774C18.192 15.8306 18.3247 15.9438 18.4006 16.0946Z" fill="#1B71C2"/>
<path d="M15.7834 13.53L15.7644 16.0569C15.8592 15.9249 15.992 15.8117 16.1626 15.774L16.1816 13.8317C15.992 13.7751 15.8782 13.662 15.7834 13.53Z" fill="#1B71C2"/>
<path d="M14.8358 16.2644C14.7221 16.2644 14.6462 16.1701 14.6462 16.0569L14.6652 13.4923C14.6652 13.3792 14.76 13.2849 14.8738 13.2849C14.9875 13.2849 15.0634 13.3792 15.0634 13.4923L15.0444 16.0569C15.0444 16.1701 14.9496 16.2644 14.8358 16.2644Z" fill="#1B71C2"/>
<path d="M13.526 13.5112L13.5071 16.0381C13.5071 16.1512 13.6019 16.2455 13.6967 16.2455C13.8105 16.2455 13.8863 16.1512 13.9053 16.0381L13.9243 13.4734C13.9243 13.4357 13.9053 13.398 13.8863 13.3792C13.7915 13.4546 13.6777 13.5112 13.526 13.5112Z" fill="#1B71C2"/>
<path d="M12.5963 15.4158C12.4825 15.4158 12.4067 15.3781 12.4067 15.3215V14.19C12.4067 14.1335 12.5015 14.0957 12.5963 14.0957C12.7101 14.0957 12.7859 14.1335 12.7859 14.19V15.3215C12.7859 15.3781 12.7101 15.4158 12.5963 15.4158Z" fill="#1B71C2"/>
<path d="M11.4781 15.397C11.3643 15.397 11.2885 15.3592 11.2885 15.3027V14.1712C11.2885 14.1147 11.3833 14.0769 11.4781 14.0769C11.5919 14.0769 11.6677 14.1147 11.6677 14.1712V15.3027C11.6677 15.3592 11.5729 15.397 11.4781 15.397Z" fill="#1B71C2"/>
<path d="M10.3399 16.0192C10.2262 16.0192 10.1503 15.9438 10.1503 15.8306L10.1693 13.6432C10.1693 13.5489 10.2641 13.4546 10.3779 13.4546C10.4917 13.4546 10.5675 13.53 10.5675 13.6432L10.5485 15.8306C10.5296 15.9438 10.4537 16.0192 10.3399 16.0192Z" fill="#1B71C2"/>
<path d="M9.22079 16.2267C9.10701 16.2267 9.03116 16.1324 9.03116 16.0192L9.05012 13.4546C9.05012 13.3415 9.14494 13.2472 9.25872 13.2472C9.37251 13.2472 9.44836 13.3415 9.44836 13.4546L9.4294 16.0192C9.41044 16.1324 9.31561 16.2267 9.22079 16.2267Z" fill="#1B71C2"/>
<path d="M8.08229 15.7364C7.96851 15.7364 7.89265 15.6609 7.89265 15.5855L7.91162 13.8318C7.91162 13.7563 8.00644 13.6809 8.12022 13.6809C8.234 13.6809 8.30986 13.7563 8.30986 13.8318L8.2909 15.5855C8.2909 15.6798 8.19608 15.7364 8.08229 15.7364Z" fill="#1B71C2"/>
<path d="M5.84593 15.8494C5.73215 15.8494 5.6563 15.774 5.6563 15.6985L5.67526 13.9071C5.67526 13.8316 5.77008 13.7562 5.88386 13.7562C5.99765 13.7562 6.0735 13.8316 6.0735 13.9071L6.05454 15.6985C6.03557 15.774 5.94075 15.8494 5.84593 15.8494Z" fill="#1B71C2"/>
<path d="M4.70818 16.1889C4.5944 16.1889 4.51854 16.0946 4.51854 15.9815L4.5375 13.4169C4.5375 13.3037 4.63232 13.2094 4.74611 13.2094C4.85989 13.2094 4.93575 13.3037 4.93575 13.4169L4.91678 15.9815C4.91678 16.0946 4.82196 16.1889 4.70818 16.1889Z" fill="#1B71C2"/>
<path d="M19.6706 16.4907C18.3052 16.4907 17.6415 15.6987 16.9777 14.9444C16.3519 14.2278 15.783 13.549 14.5883 13.549C13.4125 13.549 12.8057 14.209 12.1799 14.9255C11.5161 15.661 10.8334 16.4341 9.46803 16.4341C8.10263 16.4341 7.43889 15.6421 6.77516 14.8878C6.14935 14.1713 5.56146 13.4924 4.3857 13.4924C4.27192 13.4924 4.19606 13.3981 4.19606 13.2849C4.19606 13.1718 4.29088 13.0964 4.40466 13.0964C5.77007 13.0964 6.43381 13.8884 7.09754 14.6427C7.72335 15.3593 8.31123 16.0381 9.487 16.0381C10.6628 16.0381 11.2696 15.3781 11.8954 14.6615C12.5592 13.9261 13.2419 13.1529 14.6073 13.1529C15.9727 13.1529 16.6364 13.945 17.3001 14.6993C17.9259 15.4158 18.4949 16.0947 19.6896 16.0947C19.8034 16.0947 19.8792 16.189 19.8792 16.3021C19.8603 16.4153 19.7654 16.4907 19.6706 16.4907Z" fill="#EB573F"/>
<path d="M14.5686 16.4532C13.2032 16.4532 12.5395 15.6612 11.8757 14.9069C11.2499 14.1903 10.662 13.5114 9.48628 13.5114C8.31052 13.5114 7.70367 14.1714 7.07786 14.888C6.41412 15.6235 5.73142 16.3966 4.36602 16.3966C4.25223 16.3966 4.17638 16.3023 4.17638 16.1892C4.17638 16.076 4.2712 16.0006 4.38498 16.0006C5.56074 16.0006 6.16759 15.3406 6.7934 14.624C7.45714 13.8886 8.13984 13.1154 9.50524 13.1154C10.8706 13.1154 11.5344 13.9074 12.1981 14.6617C12.8239 15.3783 13.4118 16.0572 14.5876 16.0572C15.7633 16.0572 16.3702 15.3972 16.996 14.6806C17.6597 13.9451 18.3424 13.172 19.7078 13.172C19.8216 13.172 19.8975 13.2663 19.8975 13.3794C19.8975 13.4926 19.8027 13.568 19.6889 13.568C18.5131 13.568 17.9063 14.228 17.2805 14.9446C16.6167 15.6989 15.934 16.472 14.5686 16.4532Z" fill="#EB573F"/>
<path d="M18.0985 4.86452H5.74993C5.34626 4.86452 5.07104 4.48336 5.16278 4.1022L6.08021 0.7807C6.1536 0.526596 6.39213 0.345093 6.66736 0.345093H17.1811C17.4563 0.345093 17.6948 0.526596 17.7682 0.7807L18.6857 4.1022C18.7774 4.50151 18.5022 4.86452 18.0985 4.86452Z" fill="#4D4D4D"/>
<path opacity="0.6" d="M18.4297 4.86451H5.41877C5.2714 4.86451 5.14508 4.29958 5.14508 3.73465C5.14508 3.07557 5.2714 2.6048 5.41877 2.6048H18.4297C18.577 2.6048 18.7034 3.16972 18.7034 3.73465C18.7034 4.39374 18.5981 4.86451 18.4297 4.86451Z" fill="#333333"/>
<path opacity="0.6" d="M14.1839 0.345093C14.1839 1.60049 13.1796 2.6048 11.9242 2.6048C10.6688 2.6048 9.66447 1.60049 9.66447 0.345093H14.1839Z" fill="#333333"/>
</svg>
