<svg width="27" height="27" viewBox="0 0 27 27" fill="none" xmlns="http://www.w3.org/2000/svg">
<path d="M5.625 3.37549C5.02826 3.37549 4.45597 3.61254 4.03401 4.0345C3.61205 4.45645 3.375 5.02875 3.375 5.62549V21.3755C3.375 21.9722 3.61205 22.5445 4.03401 22.9665C4.45597 23.3884 5.02826 23.6255 5.625 23.6255H21.375C21.9717 23.6255 22.544 23.3884 22.966 22.9665C23.3879 22.5445 23.625 21.9722 23.625 21.3755V18.8105C23.9651 18.6142 24.2478 18.3323 24.4452 17.9928C24.6425 17.6533 24.7476 17.2681 24.75 16.8755V10.1255C24.7476 9.73283 24.6425 9.34763 24.4452 9.00817C24.2478 8.66871 23.9651 8.38681 23.625 8.19049V5.62549C23.625 5.02875 23.3879 4.45645 22.966 4.0345C22.544 3.61254 21.9717 3.37549 21.375 3.37549H5.625ZM5.625 5.62549H21.375V7.87549H14.625C14.0283 7.87549 13.456 8.11254 13.034 8.5345C12.6121 8.95645 12.375 9.52875 12.375 10.1255V16.8755C12.375 17.4722 12.6121 18.0445 13.034 18.4665C13.456 18.8884 14.0283 19.1255 14.625 19.1255H21.375V21.3755H5.625V5.62549ZM14.625 10.1255H22.5V16.8755H14.625V10.1255ZM18 11.813C17.5524 11.813 17.1232 11.9908 16.8068 12.3072C16.4903 12.6237 16.3125 13.0529 16.3125 13.5005C16.3125 13.948 16.4903 14.3773 16.8068 14.6937C17.1232 15.0102 17.5524 15.188 18 15.188C18.4476 15.188 18.8768 15.0102 19.1932 14.6937C19.5097 14.3773 19.6875 13.948 19.6875 13.5005C19.6875 13.0529 19.5097 12.6237 19.1932 12.3072C18.8768 11.9908 18.4476 11.813 18 11.813Z" fill="white"/>
</svg>
