<svg id="Layer_1" data-name="Layer 1" xmlns="http://www.w3.org/2000/svg" viewBox="0 0 483.37 483.37"><defs><style>.cls-1{fill:#d9d9d9;opacity:0.2;isolation:isolate;}.cls-2{fill:#fbe383;stroke:#fbe383;}.cls-2,.cls-3,.cls-4,.cls-5{fill-rule:evenodd;}.cls-3{fill:#fbfbfb;stroke:#fbfbfb;}.cls-4{fill:#53b3e3;stroke:#53b3e3;}.cls-5{fill:#1c8cb4;stroke:#1c8cb4;}</style></defs><circle class="cls-1" cx="241.69" cy="241.69" r="241.69"/><path class="cls-2" d="M247.19,103a66.89,66.89,0,0,0-57,55.11,58.47,58.47,0,0,0-.84,7.86v3H166.6c-17.58,0-23.59.19-26.56.82A32.21,32.21,0,0,0,114.8,201c0,2.05,3.18,35.39,7.07,74.07C131.3,369,131,366,132.57,370.28a32.82,32.82,0,0,0,21.62,20.06c5.93,1.7,197.57,1.7,203.5,0,13-3.72,21.76-14.36,23.52-28.55,1.6-12.91,15.87-157.47,15.87-160.78a32.22,32.22,0,0,0-25.24-31.19c-3-.63-9-.81-26.56-.82H322.56v-3c0-7.56-3.05-19-7.22-27.13C302.45,113.76,274.56,99.1,247.19,103" transform="translate(-14.25 -12.3)"/><path class="cls-3" d="M246.13,116.92c-39.54,8.22-56.71,54.17-31.95,85.5,4.14,5.24,5.95,5.2,11.9-.26,17.24-15.82,42.48-15.82,59.72,0,5.95,5.46,7.76,5.5,11.9.26,23.77-30.08,8.71-74.86-28.49-84.7-5.87-1.55-17.51-2-23.08-.8M259,127.85a49.41,49.41,0,0,1,22.09,29.73c1.58,6,1.47,18.29-.21,24.14-.7,2.41-1.27,4.5-1.27,4.65a8.32,8.32,0,0,0,2.21,1.39,52.84,52.84,0,0,1,6,4c4.49,3.4,3.91,3.35,5.73.46,7.8-12.35,8.31-30.15,1.24-43.42-7.19-13.5-20.09-21.86-36-23.34l-4.23-.4,4.51,2.83M141.53,169.77c-14.85,2.48-26.68,16.19-26.72,31,0,6.15,16.32,165.3,17.26,168.09a33.32,33.32,0,0,0,23.41,21.86c5.66,1.39,195.26,1.39,200.91,0,12.24-3,22.33-13.66,24.29-25.63.91-5.58,16.4-160.86,16.39-164.34,0-13.27-9.64-25.81-23.14-30.2-2.74-.9-5.94-1-27.13-1.22l-24-.21-.67,6.39c-1.72,16.17-7.59,28.85-18.62,40.2-39.43,40.54-107.69,16.43-113.69-40.17l-.68-6.35-22.33.07c-12.29,0-23.65.28-25.25.55" transform="translate(-14.25 -12.3)"/><path class="cls-4" d="M252.27,116.56c-17.08,1.53-31.34,9.9-40.59,23.82-11,16.59-11.57,39-1.34,56,6.77,11.2,8.72,11.94,15.33,5.82a44,44,0,0,1,60.54,0c6.61,6.12,8.56,5.38,15.32-5.82,8.35-13.82,9.64-30.9,3.54-46.73-8-20.63-30.93-35-52.8-33.07m-3.8,9.25c-30.28,5.09-46.38,40.46-30.32,66.57l1.73,2.81,4-3c18.42-14,45.21-14.34,63.13-.71,1.34,1,2.69,2,4,3.06.85.62,1.2.31,2.9-2.54,13.84-23.29,3.43-53.85-21.72-63.7a47.53,47.53,0,0,0-23.73-2.48m-4.26,17.29c-1.61.65-2.49,3.52-1.76,5.73,1.45,4.4,9.52,22.86,10.44,23.88,2.32,2.56,7.57.4,7.57-3.11,0-1.75-9.51-24.11-10.89-25.6a5.23,5.23,0,0,0-5.36-.9M138.66,170.69a32,32,0,0,0-23.36,26.69c-.67,5,15,164.39,16.78,170.6a32.12,32.12,0,0,0,22,22.37c5.28,1.66,198.52,1.66,203.8,0a32.14,32.14,0,0,0,22-22.37c1.78-6.18,17.46-165.59,16.78-170.6A31.64,31.64,0,0,0,379.16,173c-6-3-7.48-3.17-32.93-3.17H322.72l-.33,5.23c-2.26,36-36.45,64.65-72.52,60.85-32.62-3.43-58.4-29.41-60.39-60.85l-.33-5.23-23.77,0c-18.58,0-24.41.21-26.72.83" transform="translate(-14.25 -12.3)"/><path class="cls-5" d="M244.4,142.76c-1.35,1.07-1.51,1.51-1.26,3.53.34,2.8,9.22,23.83,10.66,25.27,2.68,2.68,8-.58,6.93-4.21-1.34-4.36-10.08-24-11.05-24.82-1.58-1.32-3.4-1.24-5.28.23M160.17,247.7c-12.1,2.42-14.87,17.91-4.42,24.75l2.26,1.48,97,.15,97,.15,3-1.35c10.45-4.79,9.94-19.66-.84-24.58-2.21-1-189.1-1.58-194-.6m4.44,47.17c-10.56,5.27-9.59,21.08,1.53,24.77,4.54,1.51,177.85,1,180.92-.5a13.55,13.55,0,0,0,1.24-23.74l-2.77-1.71-89-.15-89-.14-3,1.47m8.46,44.87c-12.48,2.48-14.32,20.14-2.65,25.44,3.54,1.61,167.56,1.61,171.07,0,10.49-4.81,10.46-19.45-.05-24.67-2.15-1.06-4.32-1.09-84.07-1.17-45,0-83,.13-84.3.4" transform="translate(-14.25 -12.3)"/></svg>